<svg xmlns="http://www.w3.org/2000/svg" width="3200" height="1600" viewBox="0 0 3200 1600">
<rect width="100%" height="100%" fill="#121212"/>
<polygon points="598.16,1372.44 598.16,1384.32 419.04,1384.32 419.04,1372.44 598.16,1372.44" fill="#FF9800" fill-opacity="0.12" stroke="#FFB74D" stroke-width="0.6"/>
<polygon points="338.00,1390.25 383.92,1390.25 383.92,1390.25 402.83,1390.25 402.83,1396.19 408.23,1396.19 408.28,1485.28 402.83,1485.29 402.83,1491.22 401.70,1491.23 413.63,1491.23 413.63,1396.19 419.04,1396.19 419.04,1390.25 598.16,1390.25 598.16,1402.13 424.44,1402.13 424.44,1497.17 419.04,1497.17 419.04,1503.10 85.43,1503.10 85.43,1497.17 80.03,1497.17 80.03,1157.12 90.84,1157.12 90.84,1329.36 96.24,1329.36 96.24,1157.12 107.04,1157.12 107.04,1335.30 175.92,1335.30 175.92,1341.24 181.33,1341.24 181.33,1350.74 175.92,1350.74 175.92,1356.68 107.04,1356.68 107.04,1372.57 178.86,1372.57 178.86,1384.45 101.64,1384.45 101.64,1378.51 96.24,1378.51 96.24,1356.68 90.84,1356.68 90.84,1491.23 101.53,1491.23 101.53,1485.43 96.24,1485.43 96.24,1396.31 101.64,1396.31 101.64,1390.37 186.73,1390.37 316.39,1390.25 316.39,1396.19 321.79,1396.19 321.79,1396.19 327.19,1396.19 327.19,1390.25 338.00,1390.25" fill="#FF9800" fill-opacity="0.12" stroke="#FFB74D" stroke-width="0.6"/>
<polygon points="719.65,1315.11 719.65,1326.99 600.02,1326.99 600.02,1315.11 719.65,1315.11" fill="#FF9800" fill-opacity="0.12" stroke="#FFB74D" stroke-width="0.6"/>
<polygon points="600.02,1303.23 719.65,1303.23 719.65,1315.11 600.02,1315.11 600.02,1303.23" fill="#FF9800" fill-opacity="0.12" stroke="#FFB74D" stroke-width="0.6"/>
<polygon points="735.86,1283.34 846.07,1283.34 846.07,1295.22 735.86,1295.22 735.86,1283.34" fill="#FF9800" fill-opacity="0.12" stroke="#FFB74D" stroke-width="0.6"/>
<polygon points="741.26,1265.53 776.38,1265.53 776.38,1277.40 741.26,1277.40 741.26,1265.53" fill="#FF9800" fill-opacity="0.12" stroke="#FFB74D" stroke-width="0.6"/>
<polygon points="316.39,1157.12 321.79,1157.12 321.79,1151.18 402.83,1151.18 402.83,1157.12 408.23,1157.12 408.23,1224.08 402.83,1224.08 402.83,1230.02 402.83,1241.90 327.19,1241.90 327.19,1372.57 402.83,1372.57 402.83,1384.45 236.70,1384.45 236.70,1372.57 276.41,1372.57 276.41,1341.24 281.81,1341.24 281.81,1335.30 305.58,1335.30 305.58,1157.12 316.39,1157.12" fill="#FF9800" fill-opacity="0.12" stroke="#FFB74D" stroke-width="0.6"/>
<polygon points="719.65,1258.09 600.02,1258.09 600.02,1246.21 719.65,1246.21 719.65,1258.09" fill="#FF9800" fill-opacity="0.12" stroke="#FFB74D" stroke-width="0.6"/>
<polygon points="719.65,1246.21 600.02,1246.21 600.02,1234.33 719.65,1234.33 719.65,1246.21" fill="#FF9800" fill-opacity="0.12" stroke="#FFB74D" stroke-width="0.6"/>
<polygon points="424.44,1224.08 413.64,1224.08 413.63,1157.12 424.44,1157.12 424.44,1224.08" fill="#FF9800" fill-opacity="0.12" stroke="#FFB74D" stroke-width="0.6"/>
<polygon points="321.79,1133.38 402.83,1133.36 402.83,1145.24 321.79,1145.26 321.79,1133.38" fill="#FF9800" fill-opacity="0.12" stroke="#FFB74D" stroke-width="0.6"/>
<polygon points="198.31,943.30 209.12,943.30 209.12,1139.30 198.31,1139.30 198.31,1139.30 187.51,1139.30 187.51,943.30 198.31,943.30 198.31,943.30" fill="#FF9800" fill-opacity="0.12" stroke="#FFB74D" stroke-width="0.6"/>
<polygon points="578.41,907.66 578.41,919.54 487.35,919.54 487.35,907.66 578.41,907.66" fill="#FF9800" fill-opacity="0.12" stroke="#FFB74D" stroke-width="0.6"/>
<polygon points="600.02,907.66 745.04,907.66 745.04,919.54 600.02,919.54 600.02,907.66" fill="#FF9800" fill-opacity="0.12" stroke="#FFB74D" stroke-width="0.6"/>
<polygon points="920.62,907.66 920.62,919.54 766.65,919.54 766.65,907.66 920.62,907.66" fill="#FF9800" fill-opacity="0.12" stroke="#FFB74D" stroke-width="0.6"/>
<polygon points="766.65,883.90 920.62,883.90 920.62,895.78 766.65,895.78 766.65,883.90" fill="#FF9800" fill-opacity="0.12" stroke="#FFB74D" stroke-width="0.6"/>
<polygon points="745.04,883.90 745.04,895.78 600.02,895.78 600.02,883.90 745.04,883.90" fill="#FF9800" fill-opacity="0.12" stroke="#FFB74D" stroke-width="0.6"/>
<polygon points="173.46,925.48 173.46,771.05 184.26,771.05 184.26,925.48 173.46,925.48" fill="#FF9800" fill-opacity="0.12" stroke="#FFB74D" stroke-width="0.6"/>
<polygon points="205.87,771.05 205.87,765.11 470.51,765.11 470.51,771.05 476.56,771.05 476.56,889.84 465.75,889.84 465.75,776.99 211.28,776.99 211.28,925.48 200.47,925.48 200.47,771.05 205.87,771.05" fill="#FF9800" fill-opacity="0.12" stroke="#FFB74D" stroke-width="0.6"/>
<polygon points="481.94,889.84 481.94,771.05 492.75,771.05 492.75,883.90 578.41,883.90 578.41,895.78 487.35,895.78 487.35,889.84 481.94,889.84" fill="#FF9800" fill-opacity="0.12" stroke="#FFB74D" stroke-width="0.6"/>
<polygon points="205.87,747.29 471.15,747.29 471.15,759.17 205.87,759.17 205.87,747.29" fill="#FF9800" fill-opacity="0.12" stroke="#FFB74D" stroke-width="0.6"/>
<polygon points="503.03,676.02 503.03,676.02 497.61,676.02 497.61,676.02 497.61,670.08 492.21,670.08 492.21,652.26 497.61,652.26 497.61,646.32 497.61,646.32 497.61,646.32 503.03,646.32 503.03,646.32 540.84,646.32 540.84,646.32 627.27,646.32 627.27,646.32 851.47,646.32 851.47,658.20 770.43,658.20 770.43,664.14 851.47,664.14 851.47,676.02 729.91,676.02 729.91,753.23 729.91,753.23 724.51,753.23 724.51,759.17 713.71,759.17 713.71,753.23 708.30,753.23 708.30,753.23 702.90,753.23 702.90,676.02 570.00,676.02 570.00,753.23 559.20,753.23 559.20,753.23 548.39,753.23 548.39,676.02 503.03,676.02" fill="#FF9800" fill-opacity="0.12" stroke="#FFB74D" stroke-width="0.6"/>
<polygon points="878.48,664.14 1032.45,664.14 1032.45,676.02 878.48,676.02 878.48,664.14" fill="#FF9800" fill-opacity="0.12" stroke="#FFB74D" stroke-width="0.6"/>
<polygon points="1032.45,646.32 1032.45,658.20 878.48,658.20 878.48,646.32 1032.45,646.32" fill="#FF9800" fill-opacity="0.12" stroke="#FFB74D" stroke-width="0.6"/>
<polygon points="1032.45,595.24 1032.45,607.12 878.48,607.12 878.48,595.24 1032.45,595.24" fill="#FF9800" fill-opacity="0.12" stroke="#FFB74D" stroke-width="0.6"/>
<polygon points="173.46,625.50 173.46,494.84 184.26,494.84 184.26,625.50 173.46,625.50" fill="#FF9800" fill-opacity="0.12" stroke="#FFB74D" stroke-width="0.6"/>
<polygon points="200.47,625.50 200.47,494.84 211.28,494.84 211.28,625.50 200.47,625.50" fill="#FF9800" fill-opacity="0.12" stroke="#FFB74D" stroke-width="0.6"/>
<polygon points="878.48,497.84 1032.45,497.84 1032.45,509.72 878.48,509.72 878.48,497.84" fill="#FF9800" fill-opacity="0.12" stroke="#FFB74D" stroke-width="0.6"/>
<polygon points="878.48,480.02 878.48,480.02 891.99,480.02 891.99,480.02 1032.45,480.02 1032.45,491.90 878.48,491.90 878.48,491.90 878.48,491.90 878.48,485.96 878.48,480.02 878.48,480.02" fill="#FF9800" fill-opacity="0.12" stroke="#FFB74D" stroke-width="0.6"/>
<polygon points="462.49,187.53 473.30,187.53 473.30,652.26 470.60,652.26 470.60,652.26 476.00,652.26 476.00,670.15 470.60,670.15 470.60,676.09 430.08,676.09 430.08,676.07 205.87,675.96 205.87,670.02 200.53,670.02 200.53,652.20 205.87,652.20 205.87,646.36 205.94,646.36 205.94,646.26 395.48,646.26 395.48,646.36 430.08,646.36 430.08,646.32 462.49,646.32 462.49,187.53" fill="#FF9800" fill-opacity="0.12" stroke="#FFB74D" stroke-width="0.6"/>
<polygon points="503.01,580.99 492.21,580.99 492.21,187.53 503.01,187.53 503.01,580.99" fill="#FF9800" fill-opacity="0.12" stroke="#FFB74D" stroke-width="0.6"/>
<polygon points="856.87,390.93 846.07,390.93 846.07,187.53 856.87,187.53 856.87,390.93" fill="#FF9800" fill-opacity="0.12" stroke="#FFB74D" stroke-width="0.6"/>
<polygon points="873.08,390.93 873.08,185.13 883.89,185.13 883.88,390.93 873.08,390.93" fill="#FF9800" fill-opacity="0.12" stroke="#FFB74D" stroke-width="0.6"/>
<polygon points="242.07,111.77 247.47,111.77 247.47,105.83 467.89,105.83 467.89,117.71 252.88,117.71 252.88,278.08 247.47,278.08 247.47,284.02 205.87,284.02 205.87,272.14 242.07,272.14 242.07,111.77" fill="#FF9800" fill-opacity="0.12" stroke="#FFB74D" stroke-width="0.6"/>
<polygon points="231.27,260.26 205.87,260.26 205.87,248.38 225.86,248.38 225.86,117.71 205.87,117.71 205.87,105.83 231.27,105.83 231.27,111.77 236.67,111.77 236.67,254.32 231.27,254.32 231.27,260.26" fill="#FF9800" fill-opacity="0.12" stroke="#FFB74D" stroke-width="0.6"/>
<polygon points="851.47,117.71 497.61,117.71 497.61,105.83 851.47,105.83 851.47,117.71" fill="#FF9800" fill-opacity="0.12" stroke="#FFB74D" stroke-width="0.6"/>
<polygon points="205.87,88.01 497.61,88.01 497.61,93.95 497.61,88.01 851.47,88.01 851.47,99.89 497.61,99.89 497.61,99.89 205.87,99.89 205.87,88.01" fill="#FF9800" fill-opacity="0.12" stroke="#FFB74D" stroke-width="0.6"/>
<polygon points="1391.72,1188.31 1391.72,1200.19 1326.89,1200.19 1326.89,1188.31 1391.72,1188.31" fill="#FF9800" fill-opacity="0.12" stroke="#FFB74D" stroke-width="0.6"/>
<polygon points="1326.89,1170.49 1391.72,1170.49 1391.72,1182.37 1326.89,1182.37 1326.89,1170.49" fill="#FF9800" fill-opacity="0.12" stroke="#FFB74D" stroke-width="0.6"/>
<polygon points="1283.67,1176.43 1272.86,1176.43 1272.86,1079.91 1283.67,1079.91 1283.67,1176.43" fill="#FF9800" fill-opacity="0.12" stroke="#FFB74D" stroke-width="0.6"/>
<polygon points="1299.88,1176.43 1289.07,1176.43 1289.07,1079.91 1299.88,1079.91 1299.88,1176.43" fill="#FF9800" fill-opacity="0.12" stroke="#FFB74D" stroke-width="0.6"/>
<polygon points="1272.86,913.60 1283.67,913.60 1283.67,1057.48 1272.86,1057.48 1272.86,913.60" fill="#FF9800" fill-opacity="0.12" stroke="#FFB74D" stroke-width="0.6"/>
<polygon points="1289.07,1057.48 1289.07,913.60 1299.88,913.60 1299.88,1057.48 1289.07,1057.48" fill="#FF9800" fill-opacity="0.12" stroke="#FFB74D" stroke-width="0.6"/>
<polygon points="1440.34,889.84 1440.34,771.05 1445.74,771.05 1445.74,765.11 1780.70,765.11 1780.70,771.05 1786.10,771.05 1786.10,889.84 1780.70,889.84 1780.70,895.78 1780.70,895.78 1780.70,907.66 1630.27,907.66 1630.27,901.72 1630.27,907.66 1629.43,907.66 1629.43,1071.59 1780.70,1071.59 1780.70,1083.47 1751.52,1083.47 1751.52,1089.41 1756.93,1089.41 1756.93,1170.19 1751.52,1170.19 1751.52,1176.13 1624.02,1176.13 1624.02,1170.19 1618.62,1170.19 1618.62,1170.19 1613.22,1170.19 1613.22,1176.13 1445.74,1176.13 1445.74,1164.25 1607.82,1164.25 1607.82,907.66 1445.74,907.66 1445.74,895.78 1445.74,895.78 1445.74,889.84 1440.34,889.84" fill="#FF9800" fill-opacity="0.12" stroke="#FFB74D" stroke-width="0.6"/>
<polygon points="1095.12,919.54 942.23,919.54 942.23,907.66 1095.12,907.66 1095.12,919.54" fill="#FF9800" fill-opacity="0.12" stroke="#FFB74D" stroke-width="0.6"/>
<polygon points="1299.88,907.66 1418.73,907.66 1418.73,919.54 1299.88,919.54 1299.88,907.66" fill="#FF9800" fill-opacity="0.12" stroke="#FFB74D" stroke-width="0.6"/>
<polygon points="1299.88,883.90 1418.73,883.90 1418.73,895.78 1299.88,895.78 1299.88,883.90" fill="#FF9800" fill-opacity="0.12" stroke="#FFB74D" stroke-width="0.6"/>
<polygon points="942.23,883.90 1096.20,883.90 1096.20,895.78 942.23,895.78 942.23,883.90" fill="#FF9800" fill-opacity="0.12" stroke="#FFB74D" stroke-width="0.6"/>
<polygon points="1434.94,889.84 1424.13,889.84 1424.13,771.05 1434.94,771.05 1434.94,889.84" fill="#FF9800" fill-opacity="0.12" stroke="#FFB74D" stroke-width="0.6"/>
<polygon points="1780.70,759.17 1445.74,759.17 1445.74,759.17 1445.74,747.30 1445.74,747.30 1780.70,747.30 1780.70,747.30 1780.70,759.17 1780.70,759.17" fill="#FF9800" fill-opacity="0.12" stroke="#FFB74D" stroke-width="0.6"/>
<polygon points="1290.15,759.17 1290.15,753.23 1284.75,753.23 1284.75,735.41 1290.15,735.41 1290.15,729.47 1424.13,729.47 1424.13,735.41 1429.54,735.41 1429.54,753.23 1424.13,753.23 1424.13,759.17 1290.15,759.17" fill="#FF9800" fill-opacity="0.12" stroke="#FFB74D" stroke-width="0.6"/>
<polygon points="1048.66,664.14 1122.67,664.14 1122.67,676.02 1048.66,676.02 1048.66,664.14" fill="#FF9800" fill-opacity="0.12" stroke="#FFB74D" stroke-width="0.6"/>
<polygon points="1122.67,658.20 1048.66,658.20 1048.66,646.32 1122.67,646.32 1122.67,658.20" fill="#FF9800" fill-opacity="0.12" stroke="#FFB74D" stroke-width="0.6"/>
<polygon points="1440.34,598.81 1445.74,598.81 1445.74,592.87 1780.25,592.87 1780.25,598.81 1786.10,598.81 1786.10,693.25 1775.29,693.25 1775.29,604.75 1451.15,604.75 1451.15,693.25 1440.34,693.25 1440.34,598.81" fill="#FF9800" fill-opacity="0.12" stroke="#FFB74D" stroke-width="0.6"/>
<polygon points="1418.73,604.75 1259.36,604.75 1259.36,592.87 1424.13,592.87 1424.13,598.81 1429.54,598.81 1429.54,681.37 1418.73,681.37 1418.73,604.75" fill="#FF9800" fill-opacity="0.12" stroke="#FFB74D" stroke-width="0.6"/>
<polygon points="1122.68,595.25 1122.68,607.13 1051.36,607.13 1051.36,595.25 1122.68,595.25" fill="#FF9800" fill-opacity="0.12" stroke="#FFB74D" stroke-width="0.6"/>
<polygon points="1232.80,595.24 1232.35,595.24 1232.35,607.12 1138.88,607.12 1138.88,595.24 1051.36,595.24 1051.36,583.37 1138.88,583.37 1138.88,583.37 1232.35,583.37 1232.35,583.37 1232.80,583.37 1232.80,595.24" fill="#FF9800" fill-opacity="0.12" stroke="#FFB74D" stroke-width="0.6"/>
<polygon points="1032.45,583.36 1032.45,595.24 878.48,595.24 878.48,583.36 1032.45,583.36" fill="#FF9800" fill-opacity="0.12" stroke="#FFB74D" stroke-width="0.6"/>
<polygon points="1032.45,551.89 1032.45,563.76 878.48,563.77 878.48,551.89 1032.45,551.89" fill="#FF9800" fill-opacity="0.12" stroke="#FFB74D" stroke-width="0.6"/>
<polygon points="878.48,540.01 1032.45,540.01 1032.45,551.89 878.48,551.89 878.48,540.01" fill="#FF9800" fill-opacity="0.12" stroke="#FFB74D" stroke-width="0.6"/>
<polygon points="1253.96,181.56 1264.76,181.56 1264.76,440.82 1253.95,440.82 1253.96,181.56" fill="#FF9800" fill-opacity="0.12" stroke="#FFB74D" stroke-width="0.6"/>
<polygon points="1226.94,440.82 1226.94,181.56 1237.75,181.56 1237.75,440.82 1226.94,440.82" fill="#FF9800" fill-opacity="0.12" stroke="#FFB74D" stroke-width="0.6"/>
<polygon points="1424.12,159.26 1424.14,171.14 1259.37,171.48 1259.35,159.61 1424.12,159.26" fill="#FF9800" fill-opacity="0.12" stroke="#FFB74D" stroke-width="0.6"/>
<polygon points="878.48,159.29 1232.35,159.29 1232.35,171.17 878.48,171.17 878.48,159.29" fill="#FF9800" fill-opacity="0.12" stroke="#FFB74D" stroke-width="0.6"/>
<polygon points="1445.28,159.59 1780.69,158.88 1780.71,170.76 1445.30,171.47 1445.28,159.59" fill="#FF9800" fill-opacity="0.12" stroke="#FFB74D" stroke-width="0.6"/>
<polygon points="1232.35,141.47 1232.35,153.35 878.48,153.35 878.48,141.47 1232.35,141.47" fill="#FF9800" fill-opacity="0.12" stroke="#FFB74D" stroke-width="0.6"/>
<polygon points="1424.14,153.02 1259.37,153.37 1259.35,141.49 1424.12,141.14 1424.14,153.02" fill="#FF9800" fill-opacity="0.12" stroke="#FFB74D" stroke-width="0.6"/>
<polygon points="1780.69,140.77 1780.71,152.65 1445.30,153.35 1445.28,141.47 1780.69,140.77" fill="#FF9800" fill-opacity="0.12" stroke="#FFB74D" stroke-width="0.6"/>
<polygon points="1424.12,105.78 1424.14,117.66 1259.37,118.01 1259.35,106.13 1424.12,105.78" fill="#FF9800" fill-opacity="0.12" stroke="#FFB74D" stroke-width="0.6"/>
<polygon points="1232.35,105.83 1232.35,117.71 878.48,117.71 878.48,105.83 1232.35,105.83" fill="#FF9800" fill-opacity="0.12" stroke="#FFB74D" stroke-width="0.6"/>
<polygon points="1445.28,106.13 1780.69,105.43 1780.71,117.31 1445.30,118.01 1445.28,106.13" fill="#FF9800" fill-opacity="0.12" stroke="#FFB74D" stroke-width="0.6"/>
<polygon points="1232.35,99.89 878.48,99.89 878.48,88.01 1232.35,88.01 1232.35,99.89" fill="#FF9800" fill-opacity="0.12" stroke="#FFB74D" stroke-width="0.6"/>
<polygon points="1424.14,99.55 1259.37,99.89 1259.35,88.01 1424.12,87.67 1424.14,99.55" fill="#FF9800" fill-opacity="0.12" stroke="#FFB74D" stroke-width="0.6"/>
<polygon points="1445.28,88.01 1780.69,87.31 1780.71,99.19 1445.30,99.89 1445.28,88.01" fill="#FF9800" fill-opacity="0.12" stroke="#FFB74D" stroke-width="0.6"/>
<polygon points="1445.74,1434.80 1780.70,1434.80 1780.70,1446.68 1445.74,1446.68 1445.74,1434.80" fill="#FF9800" fill-opacity="0.12" stroke="#FFB74D" stroke-width="0.6"/>
<polygon points="1780.70,1416.98 1780.70,1428.86 1445.74,1428.86 1445.74,1416.98 1780.70,1416.98" fill="#FF9800" fill-opacity="0.12" stroke="#FFB74D" stroke-width="0.6"/>
<polygon points="1899.55,1200.19 1834.72,1200.19 1834.72,1188.31 1899.55,1188.31 1899.55,1200.19" fill="#FF9800" fill-opacity="0.12" stroke="#FFB74D" stroke-width="0.6"/>
<polygon points="1899.55,1182.37 1834.72,1182.37 1834.72,1170.49 1899.55,1170.49 1899.55,1182.37" fill="#FF9800" fill-opacity="0.12" stroke="#FFB74D" stroke-width="0.6"/>
<polygon points="1762.78,1083.47 1781.15,1083.47 1781.15,1095.35 1768.18,1095.35 1768.18,1164.25 1781.15,1164.25 1781.15,1176.13 1780.70,1176.13 1780.70,1188.00 1445.74,1188.00 1445.74,1176.13 1762.78,1176.13 1762.78,1170.19 1757.38,1170.19 1757.38,1089.41 1762.78,1089.41 1762.78,1083.47" fill="#FF9800" fill-opacity="0.12" stroke="#FFB74D" stroke-width="0.6"/>
<polygon points="1953.58,1079.91 1953.58,1176.43 1942.77,1176.43 1942.77,1079.91 1953.58,1079.91" fill="#FF9800" fill-opacity="0.12" stroke="#FFB74D" stroke-width="0.6"/>
<polygon points="1926.56,1176.43 1926.56,1079.91 1937.37,1079.91 1937.37,1176.43 1926.56,1176.43" fill="#FF9800" fill-opacity="0.12" stroke="#FFB74D" stroke-width="0.6"/>
<polygon points="1937.37,913.60 1937.37,1057.48 1926.56,1057.48 1926.56,913.60 1937.37,913.60" fill="#FF9800" fill-opacity="0.12" stroke="#FFB74D" stroke-width="0.6"/>
<polygon points="1942.77,1057.48 1942.77,913.60 1953.58,913.60 1953.58,1057.48 1942.77,1057.48" fill="#FF9800" fill-opacity="0.12" stroke="#FFB74D" stroke-width="0.6"/>
<polygon points="1807.71,919.54 1807.71,907.66 1926.56,907.66 1926.56,919.54 1807.71,919.54" fill="#FF9800" fill-opacity="0.12" stroke="#FFB74D" stroke-width="0.6"/>
<polygon points="2131.32,919.54 2131.32,907.66 2284.21,907.66 2284.21,919.54 2131.32,919.54" fill="#FF9800" fill-opacity="0.12" stroke="#FFB74D" stroke-width="0.6"/>
<polygon points="1807.71,895.78 1807.71,883.90 1926.56,883.90 1926.56,895.78 1807.71,895.78" fill="#FF9800" fill-opacity="0.12" stroke="#FFB74D" stroke-width="0.6"/>
<polygon points="2284.21,895.78 2130.24,895.78 2130.24,883.90 2284.21,883.90 2284.21,895.78" fill="#FF9800" fill-opacity="0.12" stroke="#FFB74D" stroke-width="0.6"/>
<polygon points="1802.31,771.05 1802.31,889.84 1791.50,889.84 1791.50,771.05 1802.31,771.05" fill="#FF9800" fill-opacity="0.12" stroke="#FFB74D" stroke-width="0.6"/>
<polygon points="1941.69,735.41 1941.69,753.23 1936.29,753.23 1936.29,759.17 1802.31,759.17 1802.31,753.23 1796.90,753.23 1796.90,735.41 1802.31,735.41 1802.31,729.47 1936.29,729.47 1936.29,735.41 1941.69,735.41" fill="#FF9800" fill-opacity="0.12" stroke="#FFB74D" stroke-width="0.6"/>
<polygon points="2103.76,664.14 2177.78,664.14 2177.78,676.02 2103.76,676.02 2103.76,664.14" fill="#FF9800" fill-opacity="0.12" stroke="#FFB74D" stroke-width="0.6"/>
<polygon points="2103.76,646.32 2177.78,646.32 2177.78,658.20 2103.76,658.20 2103.76,646.32" fill="#FF9800" fill-opacity="0.12" stroke="#FFB74D" stroke-width="0.6"/>
<polygon points="2193.99,658.20 2193.99,646.32 2347.96,646.32 2347.96,658.20 2193.99,658.20" fill="#FF9800" fill-opacity="0.12" stroke="#FFB74D" stroke-width="0.6"/>
<polygon points="1967.53,592.87 1967.53,604.75 1807.71,604.75 1807.71,681.37 1796.90,681.37 1796.90,598.81 1802.31,598.81 1802.31,592.87 1967.53,592.87" fill="#FF9800" fill-opacity="0.12" stroke="#FFB74D" stroke-width="0.6"/>
<polygon points="2175.08,607.13 2104.21,607.13 2104.21,595.25 2175.08,595.25 2175.08,607.13" fill="#FF9800" fill-opacity="0.12" stroke="#FFB74D" stroke-width="0.6"/>
<polygon points="1994.54,607.12 1994.54,595.24 2088.01,595.24 2088.01,607.12 1994.54,607.12" fill="#FF9800" fill-opacity="0.12" stroke="#FFB74D" stroke-width="0.6"/>
<polygon points="2193.99,607.12 2193.99,595.24 2347.96,595.24 2347.96,607.12 2193.99,607.12" fill="#FF9800" fill-opacity="0.12" stroke="#FFB74D" stroke-width="0.6"/>
<polygon points="1994.09,595.24 1994.09,583.37 2175.08,583.37 2175.08,595.24 1994.09,595.24" fill="#FF9800" fill-opacity="0.12" stroke="#FFB74D" stroke-width="0.6"/>
<polygon points="2193.99,595.24 2193.99,583.36 2347.96,583.36 2347.96,595.24 2193.99,595.24" fill="#FF9800" fill-opacity="0.12" stroke="#FFB74D" stroke-width="0.6"/>
<polygon points="2193.99,551.89 2347.96,551.89 2347.96,563.77 2193.99,563.76 2193.99,551.89" fill="#FF9800" fill-opacity="0.12" stroke="#FFB74D" stroke-width="0.6"/>
<polygon points="2193.99,540.01 2347.96,540.01 2347.96,551.89 2193.99,551.89 2193.99,540.01" fill="#FF9800" fill-opacity="0.12" stroke="#FFB74D" stroke-width="0.6"/>
<polygon points="2347.96,509.72 2193.99,509.72 2193.99,497.84 2347.96,497.84 2347.96,509.72" fill="#FF9800" fill-opacity="0.12" stroke="#FFB74D" stroke-width="0.6"/>
<polygon points="1775.29,181.56 1786.10,181.56 1786.10,575.05 1796.90,575.05 1796.90,181.56 1807.71,181.56 1807.71,575.05 1967.53,575.05 1967.53,586.93 1259.36,586.93 1259.36,575.05 1418.73,575.05 1418.73,181.56 1429.54,181.56 1429.54,575.05 1440.34,575.05 1440.34,181.56 1451.15,181.56 1451.15,575.05 1775.29,575.05 1775.29,181.56" fill="#FF9800" fill-opacity="0.12" stroke="#FFB74D" stroke-width="0.6"/>
<polygon points="1961.68,440.82 1961.68,181.56 1972.48,181.56 1972.48,440.82 1961.68,440.82" fill="#FF9800" fill-opacity="0.12" stroke="#FFB74D" stroke-width="0.6"/>
<polygon points="1999.50,440.82 1988.69,440.82 1988.69,165.23 1994.09,165.23 1994.09,159.29 2347.96,159.29 2347.96,171.17 1999.50,171.17 1999.50,440.82" fill="#FF9800" fill-opacity="0.12" stroke="#FFB74D" stroke-width="0.6"/>
<polygon points="1967.07,172.10 1802.30,171.76 1802.32,159.88 1967.09,160.23 1967.07,172.10" fill="#FF9800" fill-opacity="0.12" stroke="#FFB74D" stroke-width="0.6"/>
<polygon points="1994.09,153.35 1994.09,141.47 2347.96,141.47 2347.96,153.35 1994.09,153.35" fill="#FF9800" fill-opacity="0.12" stroke="#FFB74D" stroke-width="0.6"/>
<polygon points="1967.07,153.35 1802.30,153.00 1802.32,141.13 1967.09,141.47 1967.07,153.35" fill="#FF9800" fill-opacity="0.12" stroke="#FFB74D" stroke-width="0.6"/>
<polygon points="1802.30,117.66 1802.32,105.78 1967.09,106.13 1967.07,118.01 1802.30,117.66" fill="#FF9800" fill-opacity="0.12" stroke="#FFB74D" stroke-width="0.6"/>
<polygon points="1994.09,117.71 1994.09,105.83 2347.96,105.83 2347.96,117.71 1994.09,117.71" fill="#FF9800" fill-opacity="0.12" stroke="#FFB74D" stroke-width="0.6"/>
<polygon points="1994.09,99.89 1994.09,88.01 2347.96,88.01 2347.96,99.89 1994.09,99.89" fill="#FF9800" fill-opacity="0.12" stroke="#FFB74D" stroke-width="0.6"/>
<polygon points="1802.30,99.55 1802.32,87.67 1967.09,88.01 1967.07,99.89 1802.30,99.55" fill="#FF9800" fill-opacity="0.12" stroke="#FFB74D" stroke-width="0.6"/>
<polygon points="2628.28,1384.32 2628.28,1372.44 2807.40,1372.44 2807.40,1384.32 2628.28,1384.32" fill="#FF9800" fill-opacity="0.12" stroke="#FFB74D" stroke-width="0.6"/>
<polygon points="3124.80,1390.37 3124.80,1396.31 3130.20,1396.31 3130.20,1485.43 3124.91,1485.43 3124.91,1491.23 3135.60,1491.23 3135.60,1356.68 3130.20,1356.68 3130.20,1378.51 3124.80,1378.51 3124.80,1384.45 3047.58,1384.45 3047.58,1372.57 3119.40,1372.57 3119.40,1356.68 3050.51,1356.68 3050.51,1350.74 3045.11,1350.74 3045.11,1341.24 3050.51,1341.24 3050.51,1335.30 3119.40,1335.30 3119.40,1157.12 3130.20,1157.12 3130.20,1329.36 3135.60,1329.36 3135.60,1157.12 3146.41,1157.12 3146.41,1497.17 3141.01,1497.17 3141.01,1503.10 2807.40,1503.10 2807.40,1497.17 2802.00,1497.17 2802.00,1402.13 2628.28,1402.13 2628.28,1390.25 2807.40,1390.25 2807.40,1396.19 2812.80,1396.19 2812.80,1491.23 2824.73,1491.23 2823.61,1491.22 2823.61,1485.29 2818.16,1485.28 2818.21,1396.19 2823.61,1396.19 2823.61,1390.25 2842.52,1390.25 2842.52,1390.25 2888.44,1390.25 2888.44,1390.25 2899.24,1390.25 2899.24,1396.19 2904.65,1396.19 2904.65,1485.29 2899.24,1485.29 2899.24,1491.23 2910.05,1491.23 2910.05,1485.29 2904.65,1485.29 2904.65,1396.19 2910.05,1396.19 2910.05,1390.25 3039.71,1390.37 3124.80,1390.37" fill="#FF9800" fill-opacity="0.12" stroke="#FFB74D" stroke-width="0.6"/>
<polygon points="2626.42,1326.99 2506.79,1326.99 2506.79,1315.11 2626.42,1315.11 2626.42,1326.99" fill="#FF9800" fill-opacity="0.12" stroke="#FFB74D" stroke-width="0.6"/>
<polygon points="2626.42,1315.11 2506.79,1315.11 2506.79,1303.23 2626.42,1303.23 2626.42,1315.11" fill="#FF9800" fill-opacity="0.12" stroke="#FFB74D" stroke-width="0.6"/>
<polygon points="2490.58,1295.22 2380.37,1295.22 2380.37,1283.34 2490.58,1283.34 2490.58,1295.22" fill="#FF9800" fill-opacity="0.12" stroke="#FFB74D" stroke-width="0.6"/>
<polygon points="2450.06,1265.53 2485.18,1265.53 2485.18,1277.40 2450.06,1277.40 2450.06,1265.53" fill="#FF9800" fill-opacity="0.12" stroke="#FFB74D" stroke-width="0.6"/>
<polygon points="2910.05,1157.12 2910.05,1157.12 2920.85,1157.12 2920.85,1335.30 2944.63,1335.30 2944.63,1341.24 2950.03,1341.24 2950.03,1372.57 2989.74,1372.57 2989.74,1384.45 2823.61,1384.45 2823.61,1372.57 2899.24,1372.57 2899.24,1241.90 2823.61,1241.90 2823.61,1230.02 2823.61,1224.08 2818.21,1224.08 2818.21,1157.12 2823.61,1157.12 2823.61,1151.18 2904.65,1151.18 2904.65,1157.12 2910.05,1157.12" fill="#FF9800" fill-opacity="0.12" stroke="#FFB74D" stroke-width="0.6"/>
<polygon points="2506.79,1258.09 2506.79,1246.21 2626.42,1246.21 2626.42,1258.09 2506.79,1258.09" fill="#FF9800" fill-opacity="0.12" stroke="#FFB74D" stroke-width="0.6"/>
<polygon points="2626.42,1246.21 2506.79,1246.21 2506.79,1234.33 2626.42,1234.33 2626.42,1246.21" fill="#FF9800" fill-opacity="0.12" stroke="#FFB74D" stroke-width="0.6"/>
<polygon points="2812.80,1157.12 2812.80,1224.08 2802.00,1224.08 2802.00,1157.12 2812.80,1157.12" fill="#FF9800" fill-opacity="0.12" stroke="#FFB74D" stroke-width="0.6"/>
<polygon points="2823.61,1145.24 2823.61,1133.36 2904.65,1133.38 2904.65,1145.26 2823.61,1145.24" fill="#FF9800" fill-opacity="0.12" stroke="#FFB74D" stroke-width="0.6"/>
<polygon points="3017.32,1139.30 3017.32,943.30 3028.13,943.30 3028.13,943.30 3038.93,943.30 3038.93,1139.30 3028.13,1139.30 3028.13,1139.30 3017.32,1139.30" fill="#FF9800" fill-opacity="0.12" stroke="#FFB74D" stroke-width="0.6"/>
<polygon points="3101.06,925.48 3111.87,925.48 3111.87,1139.30 3101.06,1139.30 3101.06,925.48" fill="#FF9800" fill-opacity="0.12" stroke="#FFB74D" stroke-width="0.6"/>
<polygon points="2739.09,919.54 2648.03,919.54 2648.03,907.66 2739.09,907.66 2739.09,919.54" fill="#FF9800" fill-opacity="0.12" stroke="#FFB74D" stroke-width="0.6"/>
<polygon points="2305.82,919.54 2305.82,907.66 2459.79,907.66 2459.79,919.54 2305.82,919.54" fill="#FF9800" fill-opacity="0.12" stroke="#FFB74D" stroke-width="0.6"/>
<polygon points="2481.40,919.54 2481.40,907.66 2626.42,907.66 2626.42,919.54 2481.40,919.54" fill="#FF9800" fill-opacity="0.12" stroke="#FFB74D" stroke-width="0.6"/>
<polygon points="2305.82,895.78 2305.82,883.90 2459.79,883.90 2459.79,895.78 2305.82,895.78" fill="#FF9800" fill-opacity="0.12" stroke="#FFB74D" stroke-width="0.6"/>
<polygon points="2626.42,895.78 2481.40,895.78 2481.40,883.90 2626.42,883.90 2626.42,895.78" fill="#FF9800" fill-opacity="0.12" stroke="#FFB74D" stroke-width="0.6"/>
<polygon points="3052.98,925.48 3042.17,925.48 3042.17,771.05 3052.98,771.05 3052.98,925.48" fill="#FF9800" fill-opacity="0.12" stroke="#FFB74D" stroke-width="0.6"/>
<polygon points="3015.16,776.99 2760.69,776.99 2760.69,889.84 2749.88,889.84 2749.88,771.05 2755.93,771.05 2755.93,765.11 3020.56,765.11 3020.56,771.05 3025.97,771.05 3025.97,925.48 3015.16,925.48 3015.16,776.99" fill="#FF9800" fill-opacity="0.12" stroke="#FFB74D" stroke-width="0.6"/>
<polygon points="2744.50,771.05 2744.50,889.84 2739.09,889.84 2739.09,895.78 2648.03,895.78 2648.03,883.90 2733.69,883.90 2733.69,771.05 2744.50,771.05" fill="#FF9800" fill-opacity="0.12" stroke="#FFB74D" stroke-width="0.6"/>
<polygon points="2755.28,759.17 2755.28,747.29 3020.61,747.29 3020.61,759.17 2755.28,759.17" fill="#FF9800" fill-opacity="0.12" stroke="#FFB74D" stroke-width="0.6"/>
<polygon points="2456.01,664.14 2456.01,658.20 2374.97,658.20 2374.97,646.32 2599.17,646.32 2599.17,646.32 2689.37,646.32 2689.37,646.32 2723.41,646.32 2723.41,646.32 2728.83,646.32 2728.83,652.26 2734.23,652.26 2734.23,670.08 2728.83,670.08 2728.83,676.02 2728.83,676.02 2728.83,676.02 2728.82,676.02 2723.41,676.02 2723.41,676.02 2678.05,676.02 2678.05,753.23 2667.24,753.23 2667.24,753.23 2656.44,753.23 2656.44,676.02 2523.54,676.02 2523.54,753.23 2518.13,753.23 2518.13,753.23 2512.73,753.23 2512.73,759.17 2501.93,759.17 2501.93,753.23 2496.52,753.23 2496.52,753.23 2496.52,753.23 2496.52,751.52 2496.52,676.02 2374.97,676.02 2374.97,664.14 2456.01,664.14" fill="#FF9800" fill-opacity="0.12" stroke="#FFB74D" stroke-width="0.6"/>
<polygon points="2193.99,676.02 2193.99,664.14 2347.96,664.14 2347.96,676.02 2193.99,676.02" fill="#FF9800" fill-opacity="0.12" stroke="#FFB74D" stroke-width="0.6"/>
<polygon points="3052.98,625.50 3042.17,625.50 3042.17,494.84 3052.98,494.84 3052.98,625.50" fill="#FF9800" fill-opacity="0.12" stroke="#FFB74D" stroke-width="0.6"/>
<polygon points="3025.97,625.50 3015.16,625.50 3015.16,494.84 3025.97,494.84 3025.97,625.50" fill="#FF9800" fill-opacity="0.12" stroke="#FFB74D" stroke-width="0.6"/>
<polygon points="2347.96,480.02 2347.96,480.02 2347.96,480.02 2347.96,485.96 2347.96,491.90 2347.96,491.90 2347.96,491.90 2193.99,491.90 2193.99,480.02 2334.45,480.02 2334.45,480.02 2347.96,480.02" fill="#FF9800" fill-opacity="0.12" stroke="#FFB74D" stroke-width="0.6"/>
<polygon points="2797.47,646.36 2831.50,646.36 2831.50,646.26 3020.50,646.26 3020.50,646.36 3020.56,646.36 3020.56,652.20 3025.90,652.20 3025.90,670.02 3020.56,670.02 3020.57,675.96 2797.47,676.07 2797.47,676.09 2755.84,676.09 2755.84,670.15 2755.84,670.15 2750.44,670.15 2750.44,652.26 2753.14,652.26 2753.14,187.53 2763.95,187.53 2763.95,646.32 2797.47,646.32 2797.47,646.36" fill="#FF9800" fill-opacity="0.12" stroke="#FFB74D" stroke-width="0.6"/>
<polygon points="2734.23,580.99 2723.43,580.99 2723.43,187.53 2734.23,187.53 2734.23,580.99" fill="#FF9800" fill-opacity="0.12" stroke="#FFB74D" stroke-width="0.6"/>
<polygon points="2369.57,390.93 2369.57,187.53 2380.37,187.53 2380.37,390.93 2369.57,390.93" fill="#FF9800" fill-opacity="0.12" stroke="#FFB74D" stroke-width="0.6"/>
<polygon points="2342.55,183.73 2353.36,183.73 2353.36,390.93 2342.56,390.93 2342.55,183.73" fill="#FF9800" fill-opacity="0.12" stroke="#FFB74D" stroke-width="0.6"/>
<polygon points="3020.56,272.14 3020.56,284.02 2978.97,284.02 2978.97,278.08 2973.56,278.08 2973.56,117.71 2755.84,117.71 2755.84,105.83 2978.97,105.83 2978.97,111.77 2984.37,111.77 2984.37,272.14 3020.56,272.14" fill="#FF9800" fill-opacity="0.12" stroke="#FFB74D" stroke-width="0.6"/>
<polygon points="2989.77,111.77 2995.17,111.77 2995.17,105.83 3020.57,105.83 3020.57,117.71 3000.58,117.71 3000.58,248.38 3020.57,248.38 3020.57,260.26 2995.17,260.26 2995.17,254.32 2989.77,254.32 2989.77,111.77" fill="#FF9800" fill-opacity="0.12" stroke="#FFB74D" stroke-width="0.6"/>
<polygon points="2374.97,105.83 2728.83,105.83 2728.83,117.71 2374.97,117.71 2374.97,105.83" fill="#FF9800" fill-opacity="0.12" stroke="#FFB74D" stroke-width="0.6"/>
<polygon points="2728.83,93.95 2728.83,88.01 3020.57,88.01 3020.57,99.89 2728.83,99.89 2728.83,99.89 2374.97,99.89 2374.97,88.01 2728.83,88.01 2728.83,93.95" fill="#FF9800" fill-opacity="0.12" stroke="#FFB74D" stroke-width="0.6"/>
<polygon class="slab-poly" data-slab-id="SLAB-001" points="2345.26,99.57 2345.26,159.60 1996.80,159.60 1996.80,99.57 2345.26,99.57" fill="#607D8B" fill-opacity="0.45" stroke="#B0BEC5" stroke-width="0.8"/>
<polygon class="slab-poly" data-slab-id="SLAB-002" points="851.47,99.57 851.47,159.60 497.61,159.60 497.61,99.57 851.47,99.57" fill="#2196F3" fill-opacity="0.45" stroke="#2196F3" stroke-width="0.8"/>
<polygon class="slab-poly" data-slab-id="SLAB-003" points="1439.26,595.94 1340.39,595.94 1340.39,440.82 1340.00,432.09 1338.84,423.44 1336.91,414.96 1334.23,406.72 1330.83,398.82 1326.74,391.32 1322.00,384.30 1316.66,377.82 1310.77,371.95 1304.38,366.74 1297.56,362.25 1290.37,358.51 1283.40,355.77 1283.40,153.07 1424.13,153.07 1424.13,181.56 1439.26,181.56 1439.26,595.94" fill="#607D8B" fill-opacity="0.45" stroke="#B0BEC5" stroke-width="0.8"/>
<text x="1372.0" y="351.4" fill="#fff" font-size="9" text-anchor="middle" dominant-baseline="middle" font-family="Segoe UI, sans-serif" paint-order="stroke" stroke="#000" stroke-width="2" pointer-events="none">SLAB-003</text>
<polygon class="slab-poly" data-slab-id="SLAB-004" points="1943.04,153.07 1943.04,355.77 1936.07,358.51 1928.88,362.25 1922.06,366.74 1915.67,371.95 1909.78,377.82 1904.44,384.30 1899.70,391.32 1895.61,398.82 1892.21,406.72 1889.53,414.96 1887.60,423.44 1886.43,432.09 1886.04,440.82 1886.04,595.94 1787.18,595.94 1787.18,184.53 1802.31,184.53 1802.57,184.52 1802.83,184.47 1803.09,184.40 1803.34,184.30 1803.58,184.18 1803.81,184.03 1804.02,183.86 1804.22,183.66 1804.39,183.44 1804.55,183.21 1804.69,182.96 1804.80,182.70 1804.89,182.42 1804.96,182.14 1804.99,181.85 1805.01,181.56 1805.01,153.07 1943.04,153.07" fill="#607D8B" fill-opacity="0.45" stroke="#B0BEC5" stroke-width="0.8"/>
<text x="1854.6" y="351.8" fill="#fff" font-size="9" text-anchor="middle" dominant-baseline="middle" font-family="Segoe UI, sans-serif" paint-order="stroke" stroke="#000" stroke-width="2" pointer-events="none">SLAB-004</text>
<polygon class="slab-poly" data-slab-id="SLAB-005" points="2350.93,390.93 2350.66,390.93 2350.64,390.64 2350.61,390.35 2350.54,390.06 2350.45,389.79 2350.34,389.53 2350.20,389.28 2350.04,389.04 2349.87,388.83 2349.67,388.63 2349.46,388.46 2349.23,388.31 2348.99,388.18 2348.74,388.08 2348.48,388.01 2348.22,387.97 2347.96,387.96 2347.69,387.97 2347.43,388.01 2347.17,388.08 2346.92,388.18 2346.68,388.31 2346.46,388.46 2346.24,388.63 2346.05,388.83 2345.87,389.04 2345.71,389.28 2345.57,389.53 2345.46,389.79 2345.37,390.06 2345.31,390.35 2345.27,390.64 2345.26,390.93 2345.26,595.94 2193.99,595.94 2193.99,485.96 2177.78,485.96 2177.78,595.94 2106.47,595.94 2106.47,589.31 2106.45,589.01 2106.41,588.73 2106.35,588.44 2106.26,588.17 2106.15,587.91 2106.01,587.66 2105.85,587.42 2105.67,587.21 2105.48,587.01 2105.27,586.84 2105.04,586.69 2104.80,586.56 2104.55,586.46 2104.29,586.39 2104.03,586.35 2103.76,586.34 2087.56,586.34 2087.29,586.35 2087.03,586.39 2086.77,586.46 2086.52,586.56 2086.28,586.69 2086.06,586.84 2085.84,587.01 2085.65,587.21 2085.47,587.42 2085.31,587.66 2085.17,587.91 2085.06,588.17 2084.97,588.44 2084.91,588.73 2084.87,589.01 2084.86,589.31 2084.86,595.94 2075.13,595.94 2075.13,440.82 2074.74,432.09 2073.57,423.44 2071.64,414.96 2068.96,406.72 2065.56,398.82 2061.47,391.32 2056.74,384.30 2051.40,377.82 2045.50,371.95 2039.12,366.74 2032.29,362.25 2025.11,358.51 2017.62,355.56 2009.90,353.44 2002.04,352.16 1994.09,351.73 1991.12,351.73 1991.12,184.53 1994.09,184.53 1994.36,184.52 1994.62,184.47 1994.88,184.40 1995.13,184.30 1995.37,184.18 1995.59,184.03 1995.81,183.86 1996.00,183.66 1996.18,183.44 1996.34,183.21 1996.48,182.96 1996.59,182.70 1996.68,182.42 1996.74,182.14 1996.78,181.85 1996.80,181.56 1996.80,153.07 2345.26,153.07 2345.26,187.53 2345.27,187.82 2345.31,188.11 2345.37,188.39 2345.46,188.66 2345.57,188.93 2345.71,189.18 2345.87,189.41 2346.05,189.63 2346.24,189.82 2346.46,190.00 2346.68,190.15 2346.92,190.27 2347.17,190.37 2347.43,190.44 2347.69,190.48 2347.96,190.50 2348.22,190.48 2348.48,190.44 2348.74,190.37 2348.99,190.27 2349.23,190.15 2349.46,190.00 2349.67,189.82 2349.87,189.63 2350.04,189.41 2350.20,189.18 2350.34,188.93 2350.45,188.66 2350.54,188.39 2350.61,188.11 2350.64,187.82 2350.66,187.53 2350.93,187.53 2350.93,390.93" fill="#607D8B" fill-opacity="0.45" stroke="#B0BEC5" stroke-width="0.8"/>
<text x="2188.8" y="356.7" fill="#fff" font-size="9" text-anchor="middle" dominant-baseline="middle" font-family="Segoe UI, sans-serif" paint-order="stroke" stroke="#000" stroke-width="2" pointer-events="none">SLAB-005</text>
<polygon class="slab-poly" data-slab-id="SLAB-006" points="1235.32,351.73 1232.35,351.73 1224.40,352.16 1216.54,353.44 1208.82,355.56 1201.33,358.51 1194.14,362.25 1187.32,366.74 1180.94,371.95 1175.04,377.82 1169.70,384.30 1164.97,391.32 1160.88,398.82 1157.48,406.72 1154.80,414.96 1152.86,423.44 1151.70,432.09 1151.31,440.82 1151.31,595.94 1138.88,595.94 1138.88,589.31 1122.67,589.31 1122.67,595.94 1048.66,595.94 1048.66,485.96 1032.45,485.96 1032.45,595.94 878.48,595.94 878.48,390.93 875.51,390.93 875.51,187.53 878.48,187.53 878.48,153.07 1232.35,153.07 1232.35,181.56 1235.32,181.56 1235.32,351.73" fill="#607D8B" fill-opacity="0.45" stroke="#B0BEC5" stroke-width="0.8"/>
<text x="1037.1" y="357.1" fill="#fff" font-size="9" text-anchor="middle" dominant-baseline="middle" font-family="Segoe UI, sans-serif" paint-order="stroke" stroke="#000" stroke-width="2" pointer-events="none">SLAB-006</text>
<polygon class="slab-poly" data-slab-id="SLAB-007" points="2748.41,578.02 2728.83,578.02 2728.57,578.03 2728.30,578.08 2728.05,578.15 2727.80,578.25 2727.56,578.37 2727.33,578.52 2727.12,578.69 2726.92,578.89 2726.74,579.11 2726.58,579.34 2726.45,579.59 2726.34,579.85 2726.25,580.13 2726.18,580.41 2726.14,580.70 2726.13,580.99 2726.13,595.94 2712.19,595.94 2705.47,591.51 2698.28,587.77 2690.79,584.83 2683.08,582.70 2675.21,581.42 2667.27,580.99 2512.73,580.99 2504.79,581.42 2496.92,582.70 2489.21,584.83 2481.72,587.77 2474.53,591.51 2467.81,595.94 2377.67,595.94 2377.67,390.93 2377.66,390.64 2377.62,390.35 2377.56,390.06 2377.47,389.79 2377.35,389.53 2377.22,389.28 2377.06,389.04 2376.88,388.83 2376.68,388.63 2376.47,388.46 2376.24,388.31 2376.00,388.18 2375.75,388.08 2375.50,388.01 2375.23,387.97 2374.97,387.96 2374.71,387.97 2374.44,388.01 2374.19,388.08 2373.94,388.18 2373.70,388.31 2373.47,388.46 2373.26,388.63 2373.06,388.83 2372.88,389.04 2372.72,389.28 2372.59,389.53 2372.47,389.79 2372.39,390.06 2372.32,390.35 2372.28,390.64 2372.27,390.93 2372.00,390.93 2372.00,187.53 2372.27,187.53 2372.28,187.82 2372.32,188.11 2372.39,188.39 2372.47,188.66 2372.59,188.93 2372.72,189.18 2372.88,189.41 2373.06,189.63 2373.26,189.82 2373.47,190.00 2373.70,190.15 2373.94,190.27 2374.19,190.37 2374.44,190.44 2374.71,190.48 2374.97,190.50 2375.23,190.48 2375.50,190.44 2375.75,190.37 2376.00,190.27 2376.24,190.15 2376.47,190.00 2376.68,189.82 2376.88,189.63 2377.06,189.41 2377.22,189.18 2377.35,188.93 2377.47,188.66 2377.56,188.39 2377.62,188.11 2377.66,187.82 2377.67,187.53 2377.67,153.07 2726.13,153.07 2726.13,187.53 2726.14,187.82 2726.18,188.11 2726.25,188.39 2726.34,188.66 2726.45,188.93 2726.58,189.18 2726.74,189.41 2726.92,189.63 2727.12,189.82 2727.33,190.00 2727.56,190.15 2727.80,190.27 2728.05,190.37 2728.30,190.44 2728.57,190.48 2728.83,190.50 2728.83,190.50 2748.41,190.50 2748.41,578.02" fill="#2196F3" fill-opacity="0.45" stroke="#2196F3" stroke-width="0.8"/>
<text x="2559.8" y="370.1" fill="#fff" font-size="9" text-anchor="middle" dominant-baseline="middle" font-family="Segoe UI, sans-serif" paint-order="stroke" stroke="#000" stroke-width="2" pointer-events="none">SLAB-007</text>
<polygon class="slab-poly" data-slab-id="SLAB-008" points="854.44,390.93 851.47,390.93 851.47,595.94 758.63,595.94 751.91,591.51 744.72,587.77 737.23,584.83 729.52,582.70 721.65,581.42 713.71,580.99 559.17,580.99 551.23,581.42 543.36,582.70 535.65,584.83 528.16,587.77 520.97,591.51 514.25,595.94 500.31,595.94 500.31,580.99 500.30,580.70 500.26,580.41 500.20,580.13 500.11,579.85 499.99,579.59 499.86,579.34 499.70,579.11 499.52,578.89 499.32,578.69 499.11,578.52 498.88,578.37 498.64,578.25 498.39,578.15 498.14,578.08 497.88,578.03 497.61,578.02 478.03,578.02 478.03,187.53 497.61,187.53 497.61,153.07 851.47,153.07 851.47,187.53 854.44,187.53 854.44,390.93" fill="#2196F3" fill-opacity="0.45" stroke="#2196F3" stroke-width="0.8"/>
<text x="667.2" y="370.3" fill="#fff" font-size="9" text-anchor="middle" dominant-baseline="middle" font-family="Segoe UI, sans-serif" paint-order="stroke" stroke="#000" stroke-width="2" pointer-events="none">SLAB-008</text>
<polygon class="slab-poly" data-slab-id="SLAB-009" points="244.50,595.94 244.50,153.07 319.36,153.07 319.36,595.94 244.50,595.94" fill="#2196F3" fill-opacity="0.45" stroke="#2196F3" stroke-width="0.8"/>
<polygon class="slab-poly" data-slab-id="SLAB-010" points="483.97,578.02 470.60,578.02 470.33,578.03 470.07,578.08 469.81,578.15 469.56,578.25 469.32,578.37 469.10,578.52 468.88,578.69 468.69,578.89 468.51,579.11 468.35,579.34 468.21,579.59 468.10,579.85 468.01,580.13 467.95,580.41 467.91,580.70 467.89,580.99 467.89,595.94 313.42,595.94 313.42,153.07 467.89,153.07 467.89,187.53 483.97,187.53 483.97,578.02" fill="#2196F3" fill-opacity="0.45" stroke="#2196F3" stroke-width="0.8"/>
<text x="397.8" y="375.2" fill="#fff" font-size="9" text-anchor="middle" dominant-baseline="middle" font-family="Segoe UI, sans-serif" paint-order="stroke" stroke="#000" stroke-width="2" pointer-events="none">SLAB-010</text>
<polygon class="slab-poly" data-slab-id="SLAB-011" points="1621.59,153.07 1621.59,595.94 1433.32,595.94 1433.32,181.56 1445.74,181.56 1445.74,153.07 1621.59,153.07" fill="#607D8B" fill-opacity="0.45" stroke="#B0BEC5" stroke-width="0.8"/>
<text x="1527.8" y="375.4" fill="#fff" font-size="9" text-anchor="middle" dominant-baseline="middle" font-family="Segoe UI, sans-serif" paint-order="stroke" stroke="#000" stroke-width="2" pointer-events="none">SLAB-011</text>
<polygon class="slab-poly" data-slab-id="SLAB-012" points="2913.02,153.07 2913.02,595.94 2758.54,595.94 2758.54,580.99 2758.53,580.70 2758.49,580.41 2758.43,580.13 2758.34,579.85 2758.23,579.59 2758.09,579.34 2757.93,579.11 2757.75,578.89 2757.56,578.69 2757.34,578.52 2757.12,578.37 2756.88,578.25 2756.63,578.15 2756.37,578.08 2756.11,578.03 2755.84,578.02 2742.47,578.02 2742.47,190.50 2758.54,190.50 2758.81,190.48 2758.81,190.48 2758.81,190.48 2758.89,190.47 2759.07,190.44 2759.07,190.44 2759.07,190.44 2759.17,190.41 2759.33,190.37 2759.33,190.37 2759.33,190.37 2759.43,190.33 2759.58,190.27 2759.58,190.27 2759.58,190.27 2759.68,190.22 2759.82,190.15 2759.82,190.15 2759.82,190.15 2759.92,190.08 2760.05,190.00 2760.05,190.00 2760.05,190.00 2760.15,189.91 2760.26,189.82 2760.26,189.82 2760.26,189.82 2760.35,189.73 2760.45,189.63 2760.45,189.63 2760.45,189.63 2760.54,189.53 2760.63,189.41 2760.63,189.41 2760.63,189.41 2760.71,189.30 2760.79,189.18 2760.79,189.18 2760.79,189.18 2760.85,189.06 2760.93,188.93 2760.93,188.93 2760.93,188.93 2760.98,188.80 2761.04,188.66 2761.04,188.66 2761.04,188.66 2761.08,188.53 2761.13,188.39 2761.13,188.39 2761.13,188.39 2761.16,188.25 2761.19,188.11 2761.19,188.11 2761.19,188.11 2761.21,187.97 2761.23,187.82 2761.23,187.82 2761.23,187.82 2761.24,187.68 2761.25,187.53 2761.25,187.53 2761.25,153.07 2913.02,153.07" fill="#2196F3" fill-opacity="0.45" stroke="#2196F3" stroke-width="0.8"/>
<text x="2828.8" y="375.6" fill="#fff" font-size="9" text-anchor="middle" dominant-baseline="middle" font-family="Segoe UI, sans-serif" paint-order="stroke" stroke="#000" stroke-width="2" pointer-events="none">SLAB-012</text>
<polygon class="slab-poly" data-slab-id="SLAB-013" points="1793.12,595.94 1615.65,595.94 1615.65,153.07 1778.00,153.07 1778.00,181.56 1778.01,181.85 1778.05,182.14 1778.11,182.42 1778.20,182.70 1778.31,182.96 1778.45,183.21 1778.61,183.44 1778.79,183.66 1778.98,183.86 1779.20,184.03 1779.42,184.18 1779.66,184.30 1779.91,184.40 1780.17,184.47 1780.43,184.52 1780.70,184.53 1793.12,184.53 1793.12,595.94" fill="#607D8B" fill-opacity="0.45" stroke="#B0BEC5" stroke-width="0.8"/>
<text x="1703.9" y="375.8" fill="#fff" font-size="9" text-anchor="middle" dominant-baseline="middle" font-family="Segoe UI, sans-serif" paint-order="stroke" stroke="#000" stroke-width="2" pointer-events="none">SLAB-013</text>
<polygon class="slab-poly" data-slab-id="SLAB-014" points="197.32,595.94 90.57,595.94 90.57,153.07 178.86,153.07 178.86,494.84 197.32,494.84 197.32,595.94" fill="#2196F3" fill-opacity="0.45" stroke="#2196F3" stroke-width="0.8"/>
<text x="137.1" y="382.3" fill="#fff" font-size="9" text-anchor="middle" dominant-baseline="middle" font-family="Segoe UI, sans-serif" paint-order="stroke" stroke="#000" stroke-width="2" pointer-events="none">SLAB-014</text>
<polygon class="slab-poly" data-slab-id="SLAB-015" points="3109.43,153.07 3109.43,595.94 2992.20,595.94 2992.20,153.07 3020.57,153.07 3020.56,257.24 3020.30,257.26 3020.04,257.30 3019.78,257.37 3019.53,257.47 3019.29,257.59 3019.06,257.74 3018.85,257.92 3018.65,258.11 3018.48,258.33 3018.32,258.56 3018.18,258.81 3018.07,259.08 3017.98,259.35 3017.92,259.63 3017.88,259.92 3017.86,260.21 3017.88,260.50 3017.92,260.79 3017.98,261.07 3018.07,261.35 3018.18,261.61 3018.32,261.86 3018.48,262.10 3018.65,262.31 3018.85,262.51 3019.06,262.68 3019.29,262.83 3019.53,262.96 3019.78,263.05 3020.04,263.12 3020.30,263.17 3020.56,263.18 3020.56,494.84 3047.58,494.84 3047.58,263.18 3047.58,263.18 3047.84,263.17 3048.10,263.12 3048.36,263.05 3048.61,262.96 3048.85,262.83 3049.08,262.68 3049.29,262.51 3049.49,262.31 3049.67,262.10 3049.82,261.86 3049.96,261.61 3050.07,261.35 3050.16,261.07 3050.23,260.79 3050.27,260.50 3050.28,260.21 3050.27,259.92 3050.23,259.63 3050.16,259.35 3050.07,259.08 3049.96,258.81 3049.82,258.56 3049.67,258.33 3049.49,258.11 3049.29,257.92 3049.08,257.74 3048.85,257.59 3048.61,257.47 3048.36,257.37 3048.10,257.30 3047.84,257.26 3047.58,257.24 3047.58,257.24 3047.58,153.07 3109.43,153.07" fill="#2196F3" fill-opacity="0.45" stroke="#2196F3" stroke-width="0.8"/>
<text x="3054.5" y="385.5" fill="#fff" font-size="9" text-anchor="middle" dominant-baseline="middle" font-family="Segoe UI, sans-serif" paint-order="stroke" stroke="#000" stroke-width="2" pointer-events="none">SLAB-015</text>
<polygon class="slab-poly" data-slab-id="SLAB-016" points="250.45,153.07 250.45,595.94 191.38,595.94 191.38,494.84 205.87,494.84 205.87,153.07 250.45,153.07" fill="#2196F3" fill-opacity="0.45" stroke="#2196F3" stroke-width="0.8"/>
<polygon class="slab-poly" data-slab-id="SLAB-017" points="90.57,765.41 90.57,589.41 234.24,589.41 234.24,765.41 205.87,765.41 205.87,625.50 178.86,625.50 178.86,765.41 90.57,765.41" fill="#2196F3" fill-opacity="0.45" stroke="#2196F3" stroke-width="0.8"/>
<polygon class="slab-poly" data-slab-id="SLAB-018" points="1615.65,765.41 1615.65,589.41 1793.12,589.41 1793.12,678.40 1780.70,678.40 1780.43,678.41 1780.17,678.45 1779.91,678.53 1779.66,678.62 1779.42,678.75 1779.20,678.90 1778.98,679.07 1778.79,679.27 1778.61,679.48 1778.45,679.72 1778.31,679.97 1778.20,680.23 1778.11,680.51 1778.05,680.79 1778.01,681.08 1778.00,681.37 1778.00,765.41 1615.65,765.41" fill="#2196F3" fill-opacity="0.45" stroke="#2196F3" stroke-width="0.8"/>
<polygon class="slab-poly" data-slab-id="SLAB-019" points="1433.32,589.41 1621.59,589.41 1621.59,765.41 1445.74,765.41 1445.74,681.37 1433.32,681.37 1433.32,589.41" fill="#2196F3" fill-opacity="0.45" stroke="#2196F3" stroke-width="0.8"/>
<polygon class="slab-poly" data-slab-id="SLAB-020" points="2981.94,589.41 2981.94,765.41 2757.99,765.41 2757.99,753.23 2757.97,752.94 2757.93,752.65 2757.87,752.37 2757.78,752.10 2757.67,751.83 2757.53,751.58 2757.37,751.35 2757.20,751.13 2757.00,750.94 2756.79,750.76 2756.56,750.61 2756.32,750.49 2756.07,750.39 2755.81,750.32 2755.55,750.28 2755.29,750.26 2748.31,750.26 2748.31,673.05 2758.54,673.05 2758.81,673.04 2759.07,672.99 2759.33,672.92 2759.58,672.83 2759.82,672.70 2760.05,672.55 2760.26,672.38 2760.45,672.18 2760.63,671.97 2760.79,671.73 2760.93,671.48 2761.04,671.22 2761.13,670.94 2761.19,670.66 2761.23,670.37 2761.25,670.08 2761.23,669.79 2761.19,669.50 2761.13,669.22 2761.04,668.95 2760.93,668.68 2760.79,668.43 2760.63,668.20 2760.45,667.98 2760.26,667.79 2760.05,667.61 2759.82,667.46 2759.58,667.34 2759.33,667.24 2759.07,667.17 2758.81,667.13 2758.54,667.11 2758.54,589.41 2981.94,589.41" fill="#2196F3" fill-opacity="0.45" stroke="#2196F3" stroke-width="0.8"/>
<text x="2867.9" y="678.1" fill="#fff" font-size="9" text-anchor="middle" dominant-baseline="middle" font-family="Segoe UI, sans-serif" paint-order="stroke" stroke="#000" stroke-width="2" pointer-events="none">SLAB-020</text>
<polygon class="slab-poly" data-slab-id="SLAB-021" points="244.50,765.41 244.50,589.41 467.89,589.41 467.89,649.32 430.08,649.32 429.81,649.34 429.55,649.38 429.29,649.45 429.04,649.55 428.80,649.68 428.58,649.83 428.36,650.00 428.17,650.19 427.99,650.41 427.83,650.64 427.70,650.89 427.58,651.16 427.49,651.43 427.43,651.72 427.39,652.00 427.38,652.29 427.38,670.14 427.39,670.44 427.43,670.72 427.49,671.01 427.58,671.28 427.70,671.54 427.83,671.79 427.99,672.03 428.17,672.24 428.36,672.44 428.58,672.61 428.80,672.76 429.04,672.89 429.29,672.99 429.55,673.06 429.81,673.10 430.08,673.11 470.60,673.11 470.86,673.10 471.12,673.06 471.14,673.05 478.13,673.05 478.13,753.23 478.52,761.97 478.99,765.41 244.50,765.41" fill="#2196F3" fill-opacity="0.45" stroke="#2196F3" stroke-width="0.8"/>
<text x="356.8" y="678.8" fill="#fff" font-size="9" text-anchor="middle" dominant-baseline="middle" font-family="Segoe UI, sans-serif" paint-order="stroke" stroke="#000" stroke-width="2" pointer-events="none">SLAB-021</text>
<polygon class="slab-poly" data-slab-id="SLAB-022" points="1122.67,589.41 1122.67,765.41 875.51,765.41 875.51,670.08 878.48,670.08 878.48,589.41 1032.45,589.41 1032.45,670.08 1048.66,670.08 1048.66,589.41 1122.67,589.41" fill="#2196F3" fill-opacity="0.45" stroke="#2196F3" stroke-width="0.8"/>
<text x="998.5" y="679.2" fill="#fff" font-size="9" text-anchor="middle" dominant-baseline="middle" font-family="Segoe UI, sans-serif" paint-order="stroke" stroke="#000" stroke-width="2" pointer-events="none">SLAB-022</text>
<polygon class="slab-poly" data-slab-id="SLAB-023" points="2350.93,765.41 2106.47,765.41 2106.47,589.41 2177.78,589.41 2177.78,670.08 2193.99,670.08 2193.99,589.41 2345.26,589.41 2345.26,670.08 2345.27,670.37 2345.31,670.66 2345.37,670.94 2345.46,671.22 2345.57,671.48 2345.71,671.73 2345.87,671.97 2346.05,672.18 2346.24,672.38 2346.46,672.55 2346.68,672.70 2346.92,672.83 2347.17,672.92 2347.43,672.99 2347.69,673.04 2347.96,673.05 2350.93,673.05 2350.93,765.41" fill="#2196F3" fill-opacity="0.45" stroke="#2196F3" stroke-width="0.8"/>
<text x="2228.7" y="679.4" fill="#fff" font-size="9" text-anchor="middle" dominant-baseline="middle" font-family="Segoe UI, sans-serif" paint-order="stroke" stroke="#000" stroke-width="2" pointer-events="none">SLAB-023</text>
<polygon class="slab-poly" data-slab-id="SLAB-024" points="483.97,889.84 471.15,889.84 471.15,899.05 270.27,899.05 267.78,891.39 264.38,883.48 260.29,875.98 255.55,868.96 250.21,862.48 244.50,856.79 244.50,758.88 478.38,758.88 478.52,761.97 479.69,770.61 481.62,779.10 483.97,786.32 483.97,889.84" fill="#2196F3" fill-opacity="0.45" stroke="#2196F3" stroke-width="0.8"/>
<polygon class="slab-poly" data-slab-id="SLAB-025" points="2981.94,758.88 2981.94,856.79 2976.23,862.48 2970.89,868.96 2966.15,875.98 2962.06,883.48 2958.66,891.39 2956.17,899.05 2757.99,899.05 2757.99,889.84 2757.97,889.55 2757.93,889.26 2757.87,888.98 2757.78,888.71 2757.67,888.44 2757.53,888.19 2757.37,887.96 2757.20,887.74 2757.00,887.55 2756.79,887.37 2756.56,887.22 2756.32,887.10 2756.07,887.00 2755.81,886.93 2755.55,886.89 2755.29,886.87 2742.47,886.87 2742.47,786.32 2744.82,779.10 2745.97,774.02 2755.29,774.02 2755.55,774.01 2755.81,773.97 2756.07,773.89 2756.32,773.80 2756.56,773.67 2756.79,773.52 2757.00,773.35 2757.20,773.15 2757.37,772.94 2757.53,772.70 2757.67,772.45 2757.78,772.19 2757.87,771.92 2757.93,771.63 2757.97,771.34 2757.99,771.05 2757.99,758.88 2981.94,758.88" fill="#2196F3" fill-opacity="0.45" stroke="#2196F3" stroke-width="0.8"/>
<polygon class="slab-poly" data-slab-id="SLAB-026" points="2350.93,758.88 2350.93,886.87 2305.82,886.87 2305.78,886.87 2284.21,886.87 2284.21,886.87 2284.19,886.87 2284.17,886.87 2238.79,886.87 2238.53,886.89 2238.26,886.93 2238.01,887.00 2237.76,887.10 2237.52,887.22 2237.29,887.37 2237.08,887.55 2236.88,887.74 2236.70,887.96 2236.55,888.19 2236.41,888.44 2236.30,888.71 2236.21,888.98 2236.14,889.26 2236.10,889.55 2236.09,889.84 2236.09,899.05 2178.28,899.05 2178.28,889.84 2178.27,889.55 2178.23,889.26 2178.17,888.98 2178.08,888.71 2177.96,888.44 2177.83,888.19 2177.67,887.96 2177.49,887.74 2177.30,887.55 2177.08,887.37 2176.86,887.22 2176.62,887.10 2176.37,887.00 2176.11,886.93 2175.85,886.89 2175.58,886.87 2130.20,886.87 2129.94,886.89 2129.67,886.93 2129.42,887.00 2129.17,887.10 2128.93,887.22 2128.70,887.37 2128.49,887.55 2128.29,887.74 2128.11,887.96 2127.96,888.19 2127.82,888.44 2127.71,888.71 2127.62,888.98 2127.55,889.26 2127.51,889.55 2127.50,889.84 2127.50,899.05 1991.12,899.05 1991.12,774.02 2087.56,774.02 2103.76,774.02 2104.03,774.01 2104.29,773.97 2104.55,773.89 2104.80,773.80 2105.04,773.67 2105.27,773.52 2105.48,773.35 2105.67,773.15 2105.85,772.94 2106.01,772.70 2106.15,772.45 2106.26,772.19 2106.35,771.92 2106.41,771.63 2106.45,771.34 2106.47,771.05 2106.47,758.88 2350.93,758.88" fill="#2196F3" fill-opacity="0.45" stroke="#2196F3" stroke-width="0.8"/>
<text x="2172.2" y="828.5" fill="#fff" font-size="9" text-anchor="middle" dominant-baseline="middle" font-family="Segoe UI, sans-serif" paint-order="stroke" stroke="#000" stroke-width="2" pointer-events="none">SLAB-026</text>
<polygon class="slab-poly" data-slab-id="SLAB-027" points="1621.59,758.88 1621.59,899.05 1433.32,899.05 1433.32,771.05 1445.74,771.05 1445.74,758.88 1621.59,758.88" fill="#2196F3" fill-opacity="0.45" stroke="#2196F3" stroke-width="0.8"/>
<polygon class="slab-poly" data-slab-id="SLAB-028" points="1793.12,899.05 1615.65,899.05 1615.65,758.88 1778.00,758.88 1778.00,771.05 1778.01,771.34 1778.05,771.63 1778.11,771.92 1778.20,772.19 1778.31,772.45 1778.45,772.70 1778.61,772.94 1778.79,773.15 1778.98,773.35 1779.20,773.52 1779.42,773.67 1779.66,773.80 1779.91,773.89 1780.17,773.97 1780.43,774.01 1780.70,774.02 1793.12,774.02 1793.12,899.05" fill="#2196F3" fill-opacity="0.45" stroke="#2196F3" stroke-width="0.8"/>
<polygon class="slab-poly" data-slab-id="SLAB-029" points="1235.32,899.05 875.51,899.05 875.51,892.81 987.65,892.81 987.91,892.80 988.17,892.76 988.43,892.68 988.68,892.59 988.92,892.46 989.15,892.31 989.36,892.14 989.56,891.94 989.74,891.73 989.89,891.49 990.03,891.24 990.14,890.98 990.23,890.70 990.30,890.42 990.34,890.13 990.35,889.84 990.34,889.55 990.30,889.26 990.23,888.98 990.14,888.71 990.03,888.44 989.89,888.19 989.74,887.96 989.56,887.74 989.36,887.55 989.15,887.37 988.92,887.22 988.68,887.10 988.43,887.00 988.17,886.93 987.91,886.89 987.65,886.87 875.51,886.87 875.51,758.88 1122.67,758.88 1122.67,771.05 1235.32,771.05 1235.32,899.05" fill="#2196F3" fill-opacity="0.45" stroke="#2196F3" stroke-width="0.8"/>
<text x="1053.5" y="829.6" fill="#fff" font-size="9" text-anchor="middle" dominant-baseline="middle" font-family="Segoe UI, sans-serif" paint-order="stroke" stroke="#000" stroke-width="2" pointer-events="none">SLAB-029</text>
<polygon class="slab-poly" data-slab-id="SLAB-030" points="1439.26,899.05 1229.37,899.05 1229.37,771.05 1439.26,771.05 1439.26,899.05" fill="#2196F3" fill-opacity="0.45" stroke="#2196F3" stroke-width="0.8"/>
<polygon class="slab-poly" data-slab-id="SLAB-031" points="1997.06,899.05 1787.18,899.05 1787.18,774.02 1947.09,774.02 1997.06,774.02 1997.06,899.05" fill="#2196F3" fill-opacity="0.45" stroke="#2196F3" stroke-width="0.8"/>
<polygon class="slab-poly" data-slab-id="SLAB-032" points="2748.41,886.87 2739.09,886.87 2739.09,886.87 2739.06,886.87 2728.26,886.87 2727.99,886.89 2727.73,886.93 2727.47,887.00 2727.22,887.10 2726.98,887.22 2726.76,887.37 2726.54,887.55 2726.35,887.74 2726.17,887.96 2726.01,888.19 2725.87,888.44 2725.76,888.71 2725.67,888.98 2725.61,889.26 2725.57,889.55 2725.55,889.84 2725.55,899.05 2670.45,899.05 2670.45,889.84 2670.44,889.55 2670.40,889.26 2670.33,888.98 2670.24,888.71 2670.13,888.44 2669.99,888.19 2669.84,887.96 2669.66,887.74 2669.46,887.55 2669.25,887.37 2669.02,887.22 2668.78,887.10 2668.53,887.00 2668.28,886.93 2668.01,886.89 2667.75,886.87 2648.03,886.87 2647.76,886.89 2647.50,886.93 2647.25,887.00 2647.00,887.10 2646.76,887.22 2646.53,887.37 2646.32,887.55 2646.12,887.74 2645.94,887.96 2645.78,888.19 2645.65,888.44 2645.53,888.71 2645.44,888.98 2645.38,889.26 2645.34,889.55 2645.33,889.84 2645.33,899.05 2629.12,899.05 2629.12,889.84 2629.11,889.55 2629.07,889.26 2629.00,888.98 2628.91,888.71 2628.80,888.44 2628.67,888.19 2628.51,887.96 2628.33,887.74 2628.13,887.55 2627.92,887.37 2627.69,887.22 2627.45,887.10 2627.20,887.00 2626.95,886.93 2626.68,886.89 2626.42,886.87 2585.50,886.87 2585.23,886.89 2584.97,886.93 2584.71,887.00 2584.46,887.10 2584.22,887.22 2583.99,887.37 2583.78,887.55 2583.59,887.74 2583.41,887.96 2583.25,888.19 2583.11,888.44 2583.00,888.71 2582.91,888.98 2582.85,889.26 2582.81,889.55 2582.79,889.84 2582.79,899.05 2524.99,899.05 2524.99,889.84 2524.97,889.55 2524.94,889.26 2524.87,888.98 2524.78,888.71 2524.67,888.44 2524.53,888.19 2524.37,887.96 2524.20,887.74 2524.00,887.55 2523.79,887.37 2523.56,887.22 2523.32,887.10 2523.07,887.00 2522.81,886.93 2522.55,886.89 2522.29,886.87 2481.40,886.87 2481.40,886.87 2459.79,886.87 2414.37,886.87 2414.37,886.87 2414.11,886.89 2413.85,886.93 2413.59,887.00 2413.34,887.10 2413.10,887.22 2412.87,887.37 2412.66,887.55 2412.46,887.74 2412.28,887.96 2412.13,888.19 2411.99,888.44 2411.88,888.71 2411.79,888.98 2411.72,889.26 2411.68,889.55 2411.67,889.84 2411.67,899.05 2372.00,899.05 2372.00,758.88 2431.95,758.88 2432.08,761.97 2433.25,770.61 2435.18,779.10 2437.86,787.33 2441.26,795.23 2445.35,802.73 2450.09,809.75 2455.43,816.23 2461.32,822.10 2467.71,827.31 2474.53,831.81 2481.72,835.54 2489.21,838.49 2496.92,840.61 2504.79,841.90 2512.73,842.33 2667.27,842.33 2675.21,841.90 2683.08,840.61 2690.79,838.49 2698.28,835.54 2705.47,831.81 2712.29,827.31 2718.68,822.10 2724.57,816.23 2729.91,809.75 2734.65,802.73 2738.74,795.23 2742.14,787.33 2744.82,779.10 2745.97,774.02 2748.41,774.02 2748.41,886.87" fill="#2196F3" fill-opacity="0.45" stroke="#2196F3" stroke-width="0.8"/>
<polygon class="slab-poly" data-slab-id="SLAB-033" points="854.44,758.88 854.44,899.05 487.35,899.05 487.35,889.84 478.03,889.84 478.03,758.88 478.38,758.88 478.52,761.97 479.69,770.61 481.62,779.10 484.30,787.33 487.70,795.23 491.79,802.73 496.53,809.75 501.87,816.23 507.76,822.10 514.15,827.31 520.97,831.81 528.16,835.54 535.65,838.49 543.36,840.61 551.23,841.90 559.17,842.33 713.71,842.33 721.65,841.90 729.52,840.61 737.23,838.49 744.72,835.54 751.91,831.81 758.73,827.31 765.12,822.10 771.01,816.23 776.35,809.75 781.09,802.73 785.18,795.23 788.58,787.33 791.26,779.10 793.19,770.61 794.35,761.97 794.49,758.88 854.44,758.88" fill="#2196F3" fill-opacity="0.45" stroke="#2196F3" stroke-width="0.8"/>
<polygon class="slab-poly" data-slab-id="SLAB-034" points="1615.65,892.52 1793.12,892.52 1793.12,1013.08 1789.72,1010.84 1782.53,1007.10 1775.05,1004.15 1767.33,1002.03 1759.47,1000.75 1751.52,1000.32 1624.02,1000.32 1616.08,1000.75 1615.65,1000.82 1615.65,892.52" fill="#2196F3" fill-opacity="0.45" stroke="#2196F3" stroke-width="0.8"/>
<polygon class="slab-poly" data-slab-id="SLAB-035" points="1433.32,1179.39 1433.32,892.52 1621.59,892.52 1621.59,1000.45 1616.08,1000.75 1608.21,1002.03 1600.50,1004.15 1593.01,1007.10 1585.82,1010.84 1579.00,1015.33 1572.62,1020.54 1566.72,1026.41 1561.38,1032.89 1556.64,1039.91 1552.56,1047.41 1549.16,1055.32 1546.48,1063.55 1544.54,1072.03 1543.38,1080.68 1542.99,1089.41 1542.99,1170.19 1543.38,1178.92 1543.44,1179.39 1433.32,1179.39" fill="#2196F3" fill-opacity="0.45" stroke="#2196F3" stroke-width="0.8"/>
<text x="1510.1" y="1017.1" fill="#fff" font-size="9" text-anchor="middle" dominant-baseline="middle" font-family="Segoe UI, sans-serif" paint-order="stroke" stroke="#000" stroke-width="2" pointer-events="none">SLAB-035</text>
<polygon class="slab-poly" data-slab-id="SLAB-036" points="854.44,892.52 854.44,1076.94 846.07,1076.94 845.80,1076.95 845.54,1076.99 845.28,1077.06 845.03,1077.16 844.79,1077.29 844.57,1077.44 844.35,1077.61 844.16,1077.81 843.98,1078.02 843.82,1078.26 843.69,1078.51 843.57,1078.77 843.48,1079.04 843.42,1079.33 843.38,1079.61 843.37,1079.91 843.37,1169.00 748.52,1169.00 743.18,1166.89 735.46,1164.77 727.60,1163.49 719.65,1163.06 602.72,1163.06 602.72,1139.30 602.71,1139.01 602.67,1138.72 602.60,1138.44 602.52,1138.16 602.40,1137.90 602.27,1137.65 602.11,1137.42 601.93,1137.20 601.73,1137.00 601.52,1136.83 601.29,1136.68 601.05,1136.56 600.80,1136.46 600.55,1136.39 600.28,1136.34 600.02,1136.33 478.03,1136.33 478.03,943.30 487.35,943.30 487.35,925.48 487.35,892.52 854.44,892.52" fill="#2196F3" fill-opacity="0.45" stroke="#2196F3" stroke-width="0.8"/>
<text x="670.1" y="1024.5" fill="#fff" font-size="9" text-anchor="middle" dominant-baseline="middle" font-family="Segoe UI, sans-serif" paint-order="stroke" stroke="#000" stroke-width="2" pointer-events="none">SLAB-036</text>
<polygon class="slab-poly" data-slab-id="SLAB-037" points="1943.04,1179.39 1832.11,1179.39 1832.17,1178.92 1832.56,1170.19 1832.56,1089.41 1832.17,1080.68 1831.00,1072.03 1829.07,1063.55 1826.39,1055.32 1822.99,1047.41 1818.90,1039.91 1814.17,1032.89 1808.82,1026.41 1802.93,1020.54 1796.54,1015.33 1789.72,1010.84 1787.18,1009.51 1787.18,892.52 1943.04,892.52 1943.04,910.63 1931.97,910.63 1931.70,910.64 1931.44,910.69 1931.18,910.76 1930.93,910.86 1930.69,910.98 1930.46,911.13 1930.25,911.30 1930.06,911.50 1929.88,911.72 1929.72,911.95 1929.58,912.20 1929.47,912.46 1929.38,912.74 1929.32,913.02 1929.28,913.31 1929.26,913.60 1929.26,932.90 1929.28,933.19 1929.32,933.48 1929.38,933.77 1929.47,934.04 1929.58,934.30 1929.72,934.55 1929.88,934.79 1930.06,935.00 1930.25,935.20 1930.46,935.37 1930.69,935.52 1930.93,935.65 1931.18,935.75 1931.44,935.82 1931.70,935.86 1931.97,935.87 1943.04,935.87 1943.04,1179.39" fill="#2196F3" fill-opacity="0.45" stroke="#2196F3" stroke-width="0.8"/>
<polygon class="slab-poly" data-slab-id="SLAB-038" points="1229.37,1179.39 1229.37,892.52 1289.34,892.52 1289.34,1179.39 1280.97,1179.39 1280.97,1176.43 1280.95,1176.14 1280.92,1175.85 1280.85,1175.57 1280.76,1175.30 1280.65,1175.03 1280.51,1174.78 1280.35,1174.55 1280.18,1174.33 1279.98,1174.14 1279.77,1173.96 1279.54,1173.81 1279.30,1173.69 1279.05,1173.59 1278.79,1173.52 1278.53,1173.48 1278.27,1173.46 1278.00,1173.48 1277.74,1173.52 1277.48,1173.59 1277.23,1173.69 1276.99,1173.81 1276.77,1173.96 1276.55,1174.14 1276.36,1174.33 1276.18,1174.55 1276.02,1174.78 1275.88,1175.03 1275.77,1175.30 1275.68,1175.57 1275.62,1175.85 1275.58,1176.14 1275.56,1176.43 1275.56,1179.39 1229.37,1179.39" fill="#2196F3" fill-opacity="0.45" stroke="#2196F3" stroke-width="0.8"/>
<polygon class="slab-poly" data-slab-id="SLAB-039" points="1283.40,1179.39 1283.40,892.52 1439.26,892.52 1439.26,1179.39 1297.17,1179.39 1297.17,1176.43 1297.16,1176.14 1297.12,1175.85 1297.06,1175.57 1296.97,1175.30 1296.86,1175.03 1296.72,1174.78 1296.56,1174.55 1296.38,1174.33 1296.19,1174.14 1295.97,1173.96 1295.75,1173.81 1295.51,1173.69 1295.26,1173.59 1295.00,1173.52 1294.74,1173.48 1294.47,1173.46 1294.21,1173.48 1293.95,1173.52 1293.69,1173.59 1293.44,1173.69 1293.20,1173.81 1292.97,1173.96 1292.76,1174.14 1292.56,1174.33 1292.39,1174.55 1292.23,1174.78 1292.09,1175.03 1291.98,1175.30 1291.89,1175.57 1291.82,1175.85 1291.79,1176.14 1291.77,1176.43 1291.77,1179.39 1283.40,1179.39" fill="#2196F3" fill-opacity="0.45" stroke="#2196F3" stroke-width="0.8"/>
<text x="1361.4" y="1035.9" fill="#fff" font-size="9" text-anchor="middle" dominant-baseline="middle" font-family="Segoe UI, sans-serif" paint-order="stroke" stroke="#000" stroke-width="2" pointer-events="none">SLAB-039</text>
<polygon class="slab-poly" data-slab-id="SLAB-040" points="1937.10,892.52 1997.06,892.52 1997.06,1179.39 1937.10,1179.39 1937.10,935.87 1948.17,935.87 1948.44,935.86 1948.70,935.82 1948.96,935.75 1949.21,935.65 1949.45,935.52 1949.67,935.37 1949.89,935.20 1950.08,935.00 1950.26,934.79 1950.42,934.55 1950.56,934.30 1950.67,934.04 1950.76,933.77 1950.82,933.48 1950.86,933.19 1950.87,932.90 1950.87,913.60 1950.86,913.31 1950.82,913.02 1950.76,912.74 1950.67,912.46 1950.56,912.20 1950.42,911.95 1950.26,911.72 1950.08,911.50 1949.89,911.30 1949.67,911.13 1949.45,910.98 1949.21,910.86 1948.96,910.76 1948.70,910.69 1948.44,910.64 1948.17,910.63 1937.10,910.63 1937.10,892.52" fill="#2196F3" fill-opacity="0.45" stroke="#2196F3" stroke-width="0.8"/>
<polygon class="slab-poly" data-slab-id="SLAB-041" points="2748.41,1179.39 2673.06,1179.39 2671.44,1178.07 2664.62,1173.58 2657.43,1169.84 2649.94,1166.89 2642.23,1164.77 2634.36,1163.49 2626.42,1163.06 2506.79,1163.06 2498.84,1163.49 2490.98,1164.77 2483.26,1166.89 2477.92,1169.00 2380.37,1169.00 2380.37,1179.39 2372.00,1179.39 2372.00,892.52 2411.67,892.52 2411.67,913.60 2411.68,913.89 2411.72,914.18 2411.79,914.46 2411.88,914.74 2411.99,915.00 2412.13,915.25 2412.28,915.48 2412.46,915.70 2412.66,915.90 2412.87,916.07 2413.10,916.22 2413.34,916.34 2413.59,916.44 2413.85,916.51 2414.11,916.56 2414.37,916.57 2457.09,916.57 2457.09,1056.15 2457.10,1056.44 2457.14,1056.73 2457.20,1057.01 2457.29,1057.28 2457.41,1057.55 2457.54,1057.80 2457.70,1058.03 2457.88,1058.25 2458.07,1058.44 2458.29,1058.62 2458.51,1058.77 2458.75,1058.89 2459.00,1058.99 2459.26,1059.06 2459.52,1059.10 2459.79,1059.12 2481.40,1059.12 2481.66,1059.10 2481.92,1059.06 2482.18,1058.99 2482.43,1058.89 2482.67,1058.77 2482.90,1058.62 2483.11,1058.44 2483.31,1058.25 2483.49,1058.03 2483.64,1057.80 2483.78,1057.55 2483.89,1057.28 2483.98,1057.01 2484.05,1056.73 2484.09,1056.44 2484.10,1056.15 2484.10,916.57 2522.29,916.57 2522.55,916.56 2522.81,916.51 2523.07,916.44 2523.32,916.34 2523.56,916.22 2523.79,916.07 2524.00,915.90 2524.20,915.70 2524.37,915.48 2524.53,915.25 2524.67,915.00 2524.78,914.74 2524.87,914.46 2524.94,914.18 2524.97,913.89 2524.99,913.60 2524.99,892.52 2582.79,892.52 2582.79,913.60 2582.81,913.89 2582.85,914.18 2582.91,914.46 2583.00,914.74 2583.11,915.00 2583.25,915.25 2583.41,915.48 2583.59,915.70 2583.78,915.90 2583.99,916.07 2584.22,916.22 2584.46,916.34 2584.71,916.44 2584.97,916.51 2585.23,916.56 2585.50,916.57 2626.42,916.57 2626.68,916.56 2626.95,916.51 2627.20,916.44 2627.45,916.34 2627.69,916.22 2627.92,916.07 2628.13,915.90 2628.33,915.70 2628.51,915.48 2628.67,915.25 2628.80,915.00 2628.91,914.74 2629.00,914.46 2629.07,914.18 2629.11,913.89 2629.12,913.60 2629.12,892.52 2645.33,892.52 2645.33,913.60 2645.34,913.89 2645.38,914.18 2645.44,914.46 2645.53,914.74 2645.65,915.00 2645.78,915.25 2645.94,915.48 2646.12,915.70 2646.32,915.90 2646.53,916.07 2646.76,916.22 2647.00,916.34 2647.25,916.44 2647.50,916.51 2647.76,916.56 2648.03,916.57 2667.75,916.57 2668.01,916.56 2668.28,916.51 2668.53,916.44 2668.78,916.34 2669.02,916.22 2669.25,916.07 2669.46,915.90 2669.66,915.70 2669.84,915.48 2669.99,915.25 2670.13,915.00 2670.24,914.74 2670.33,914.46 2670.40,914.18 2670.44,913.89 2670.45,913.60 2670.45,892.52 2725.55,892.52 2725.55,913.60 2725.57,913.89 2725.61,914.18 2725.67,914.46 2725.76,914.74 2725.87,915.00 2726.01,915.25 2726.17,915.48 2726.35,915.70 2726.54,915.90 2726.76,916.07 2726.98,916.22 2727.22,916.34 2727.47,916.44 2727.73,916.51 2727.99,916.56 2728.26,916.57 2736.39,916.57 2736.39,925.48 2736.39,943.30 2736.40,943.59 2736.44,943.88 2736.51,944.16 2736.53,944.24 2736.60,944.43 2736.71,944.70 2736.85,944.95 2737.00,945.18 2737.18,945.40 2737.38,945.59 2737.38,945.59 2737.59,945.77 2737.82,945.92 2737.97,946.00 2738.06,946.04 2738.06,946.04 2738.13,946.07 2738.31,946.14 2738.57,946.21 2738.57,946.21 2738.57,946.21 2738.65,946.22 2738.83,946.25 2738.83,946.25 2738.88,946.26 2739.09,946.27 2739.09,946.27 2748.41,946.27 2748.41,1179.39" fill="#2196F3" fill-opacity="0.45" stroke="#2196F3" stroke-width="0.8"/>
<text x="2564.7" y="1039.6" fill="#fff" font-size="9" text-anchor="middle" dominant-baseline="middle" font-family="Segoe UI, sans-serif" paint-order="stroke" stroke="#000" stroke-width="2" pointer-events="none">SLAB-041</text>
<polygon class="slab-poly" data-slab-id="SLAB-042" points="1235.32,892.52 1235.32,1179.39 875.51,1179.39 875.51,916.57 920.62,916.57 920.89,916.56 921.15,916.51 921.41,916.44 921.66,916.34 921.90,916.22 922.12,916.07 922.34,915.90 922.53,915.70 922.71,915.48 922.87,915.25 923.00,915.00 923.12,914.74 923.21,914.46 923.27,914.18 923.31,913.89 923.32,913.60 923.31,913.31 923.27,913.02 923.21,912.74 923.12,912.46 923.00,912.20 922.87,911.95 922.71,911.72 922.53,911.50 922.34,911.30 922.12,911.13 921.90,910.98 921.66,910.86 921.41,910.76 921.15,910.69 920.89,910.64 920.62,910.63 875.51,910.63 875.51,892.81 987.65,892.81 987.91,892.80 988.17,892.76 988.43,892.68 988.68,892.59 988.82,892.52 1049.69,892.52 1049.82,892.59 1050.07,892.68 1050.33,892.76 1050.59,892.80 1050.86,892.81 1096.20,892.81 1096.47,892.80 1096.73,892.76 1096.99,892.68 1097.24,892.59 1097.37,892.52 1235.32,892.52" fill="#2196F3" fill-opacity="0.45" stroke="#2196F3" stroke-width="0.8"/>
<text x="1050.1" y="1040.7" fill="#fff" font-size="9" text-anchor="middle" dominant-baseline="middle" font-family="Segoe UI, sans-serif" paint-order="stroke" stroke="#000" stroke-width="2" pointer-events="none">SLAB-042</text>
<polygon class="slab-poly" data-slab-id="SLAB-043" points="483.97,1136.33 402.83,1136.33 402.56,1136.34 402.30,1136.39 402.05,1136.46 401.80,1136.56 401.56,1136.68 401.33,1136.83 401.12,1137.00 400.92,1137.20 400.74,1137.42 400.58,1137.65 400.45,1137.90 400.33,1138.16 400.24,1138.44 400.18,1138.72 400.14,1139.01 400.13,1139.30 400.13,1146.87 321.79,1146.87 321.79,1139.30 313.42,1139.30 313.42,943.30 483.97,943.30 483.97,1136.33" fill="#2196F3" fill-opacity="0.45" stroke="#2196F3" stroke-width="0.8"/>
<polygon class="slab-poly" data-slab-id="SLAB-044" points="2913.02,1136.33 2904.65,1136.33 2904.38,1136.34 2904.12,1136.39 2903.86,1136.46 2903.61,1136.56 2903.37,1136.68 2903.15,1136.83 2902.93,1137.00 2902.74,1137.20 2902.56,1137.42 2902.40,1137.65 2902.26,1137.90 2902.15,1138.16 2902.06,1138.44 2902.00,1138.72 2901.96,1139.01 2901.95,1139.30 2901.95,1146.87 2822.59,1146.87 2814.65,1147.30 2806.78,1148.58 2799.07,1150.70 2791.58,1153.65 2784.39,1157.39 2777.57,1161.88 2771.18,1167.09 2765.29,1172.96 2759.99,1179.39 2742.47,1179.39 2742.47,946.27 2913.02,946.27 2913.02,1136.33" fill="#2196F3" fill-opacity="0.45" stroke="#2196F3" stroke-width="0.8"/>
<polygon class="slab-poly" data-slab-id="SLAB-045" points="2350.93,1179.39 1991.12,1179.39 1991.12,892.52 2127.50,892.52 2127.50,910.63 2108.63,910.63 2108.63,910.63 2061.63,910.63 2061.36,910.64 2061.10,910.69 2060.84,910.76 2060.59,910.86 2060.35,910.98 2060.12,911.13 2059.91,911.30 2059.72,911.50 2059.54,911.72 2059.38,911.95 2059.24,912.20 2059.13,912.46 2059.04,912.74 2058.98,913.02 2058.94,913.31 2058.92,913.60 2058.92,1056.15 2058.94,1056.44 2058.98,1056.73 2059.04,1057.01 2059.13,1057.28 2059.24,1057.55 2059.38,1057.80 2059.54,1058.03 2059.72,1058.25 2059.91,1058.44 2060.12,1058.62 2060.35,1058.77 2060.59,1058.89 2060.84,1058.99 2061.10,1059.06 2061.36,1059.10 2061.63,1059.12 2108.63,1059.12 2108.63,1059.12 2130.24,1059.12 2130.50,1059.10 2130.76,1059.06 2131.02,1058.99 2131.27,1058.89 2131.51,1058.77 2131.74,1058.62 2131.95,1058.44 2132.15,1058.25 2132.32,1058.03 2132.48,1057.80 2132.62,1057.55 2132.73,1057.28 2132.82,1057.01 2132.89,1056.73 2132.92,1056.44 2132.94,1056.15 2132.94,916.57 2175.58,916.57 2175.85,916.56 2176.11,916.51 2176.37,916.44 2176.62,916.34 2176.86,916.22 2177.08,916.07 2177.30,915.90 2177.49,915.70 2177.67,915.48 2177.83,915.25 2177.96,915.00 2178.08,914.74 2178.17,914.46 2178.23,914.18 2178.27,913.89 2178.28,913.60 2178.28,892.52 2236.09,892.52 2236.09,913.60 2236.10,913.89 2236.14,914.18 2236.21,914.46 2236.30,914.74 2236.41,915.00 2236.55,915.25 2236.70,915.48 2236.88,915.70 2237.08,915.90 2237.29,916.07 2237.52,916.22 2237.76,916.34 2238.01,916.44 2238.26,916.51 2238.53,916.56 2238.79,916.57 2281.51,916.57 2281.51,1056.15 2281.52,1056.44 2281.56,1056.73 2281.62,1057.01 2281.71,1057.28 2281.82,1057.55 2281.96,1057.80 2282.12,1058.03 2282.30,1058.25 2282.49,1058.44 2282.71,1058.62 2282.93,1058.77 2283.17,1058.89 2283.42,1058.99 2283.68,1059.06 2283.94,1059.10 2284.21,1059.12 2305.82,1059.12 2306.08,1059.10 2306.34,1059.06 2306.60,1058.99 2306.85,1058.89 2307.09,1058.77 2307.32,1058.62 2307.53,1058.44 2307.73,1058.25 2307.91,1058.03 2308.06,1057.80 2308.20,1057.55 2308.31,1057.28 2308.40,1057.01 2308.47,1056.73 2308.51,1056.44 2308.52,1056.15 2308.52,916.57 2350.93,916.57 2350.93,1179.39" fill="#2196F3" fill-opacity="0.45" stroke="#2196F3" stroke-width="0.8"/>
<text x="2171.4" y="1050.9" fill="#fff" font-size="9" text-anchor="middle" dominant-baseline="middle" font-family="Segoe UI, sans-serif" paint-order="stroke" stroke="#000" stroke-width="2" pointer-events="none">SLAB-045</text>
<polygon class="slab-poly" data-slab-id="SLAB-046" points="875.51,1500.43 875.51,1172.86 1235.32,1172.86 1235.32,1500.43 875.51,1500.43" fill="#2196F3" fill-opacity="0.45" stroke="#2196F3" stroke-width="0.8"/>
<text x="1055.4" y="1336.6" fill="#fff" font-size="9" text-anchor="middle" dominant-baseline="middle" font-family="Segoe UI, sans-serif" paint-order="stroke" stroke="#000" stroke-width="2" pointer-events="none">SLAB-046</text>
<polygon class="slab-poly" data-slab-id="SLAB-047" points="1229.37,1500.43 1229.37,1172.86 1439.26,1172.86 1439.26,1500.43 1229.37,1500.43" fill="#2196F3" fill-opacity="0.45" stroke="#2196F3" stroke-width="0.8"/>
<text x="1335.9" y="1338.7" fill="#fff" font-size="9" text-anchor="middle" dominant-baseline="middle" font-family="Segoe UI, sans-serif" paint-order="stroke" stroke="#000" stroke-width="2" pointer-events="none">SLAB-047</text>
<polygon class="slab-poly" data-slab-id="SLAB-048" points="1997.06,1172.86 1997.06,1500.43 1787.18,1500.43 1787.18,1443.71 1802.31,1443.71 1802.57,1443.70 1802.83,1443.65 1803.09,1443.58 1803.34,1443.48 1803.58,1443.36 1803.81,1443.21 1804.02,1443.04 1804.22,1442.84 1804.39,1442.62 1804.55,1442.39 1804.69,1442.14 1804.80,1441.88 1804.89,1441.60 1804.96,1441.32 1804.99,1441.03 1805.01,1440.74 1805.01,1396.19 1804.99,1395.90 1804.96,1395.61 1804.89,1395.33 1804.80,1395.06 1804.69,1394.79 1804.55,1394.54 1804.39,1394.31 1804.22,1394.09 1804.02,1393.90 1803.81,1393.72 1803.58,1393.58 1803.34,1393.45 1803.09,1393.35 1802.83,1393.28 1802.57,1393.24 1802.31,1393.22 1802.04,1393.24 1801.78,1393.28 1801.52,1393.35 1801.27,1393.45 1801.03,1393.58 1800.81,1393.72 1800.59,1393.90 1800.40,1394.09 1800.22,1394.31 1800.06,1394.54 1799.92,1394.79 1799.81,1395.06 1799.72,1395.33 1799.66,1395.61 1799.62,1395.90 1799.61,1396.19 1799.61,1437.77 1787.18,1437.77 1787.18,1250.08 1789.72,1248.76 1796.54,1244.26 1802.93,1239.06 1808.82,1233.18 1814.17,1226.71 1818.90,1219.68 1822.99,1212.18 1826.39,1204.28 1829.07,1196.05 1831.00,1187.57 1832.17,1178.92 1832.44,1172.86 1997.06,1172.86" fill="#2196F3" fill-opacity="0.45" stroke="#2196F3" stroke-width="0.8"/>
<text x="1895.8" y="1341.2" fill="#fff" font-size="9" text-anchor="middle" dominant-baseline="middle" font-family="Segoe UI, sans-serif" paint-order="stroke" stroke="#000" stroke-width="2" pointer-events="none">SLAB-048</text>
<polygon class="slab-poly" data-slab-id="SLAB-049" points="1621.59,1500.43 1433.32,1500.43 1433.32,1172.86 1543.11,1172.86 1543.38,1178.92 1544.54,1187.57 1546.48,1196.05 1549.16,1204.28 1552.56,1212.18 1556.64,1219.68 1561.38,1226.71 1566.72,1233.18 1572.62,1239.06 1579.00,1244.26 1585.82,1248.76 1593.01,1252.50 1600.50,1255.44 1608.21,1257.57 1616.08,1258.85 1621.59,1259.15 1621.59,1500.43" fill="#2196F3" fill-opacity="0.45" stroke="#2196F3" stroke-width="0.8"/>
<text x="1521.8" y="1348.5" fill="#fff" font-size="9" text-anchor="middle" dominant-baseline="middle" font-family="Segoe UI, sans-serif" paint-order="stroke" stroke="#000" stroke-width="2" pointer-events="none">SLAB-049</text>
<polygon class="slab-poly" data-slab-id="SLAB-050" points="1793.12,1500.43 1615.65,1500.43 1615.65,1258.78 1616.08,1258.85 1624.02,1259.28 1751.52,1259.28 1759.47,1258.85 1767.33,1257.57 1775.05,1255.44 1782.53,1252.50 1789.72,1248.76 1793.12,1246.52 1793.12,1437.77 1783.40,1437.77 1783.40,1372.44 1783.38,1372.15 1783.35,1371.86 1783.28,1371.57 1783.19,1371.30 1783.08,1371.04 1782.94,1370.79 1782.78,1370.55 1782.61,1370.34 1782.41,1370.14 1782.20,1369.97 1781.97,1369.82 1781.73,1369.69 1781.48,1369.60 1781.22,1369.52 1780.96,1369.48 1780.70,1369.47 1780.43,1369.48 1780.17,1369.52 1779.91,1369.60 1779.66,1369.69 1779.42,1369.82 1779.20,1369.97 1778.98,1370.14 1778.79,1370.34 1778.61,1370.55 1778.45,1370.79 1778.31,1371.04 1778.20,1371.30 1778.11,1371.57 1778.05,1371.86 1778.01,1372.15 1778.00,1372.44 1778.00,1440.74 1778.01,1441.03 1778.05,1441.32 1778.11,1441.60 1778.20,1441.88 1778.31,1442.14 1778.45,1442.39 1778.61,1442.62 1778.79,1442.84 1778.98,1443.04 1779.20,1443.21 1779.42,1443.36 1779.66,1443.48 1779.91,1443.58 1780.17,1443.65 1780.43,1443.70 1780.70,1443.71 1793.12,1443.71 1793.12,1500.43" fill="#2196F3" fill-opacity="0.45" stroke="#2196F3" stroke-width="0.8"/>
<text x="1703.9" y="1379.0" fill="#fff" font-size="9" text-anchor="middle" dominant-baseline="middle" font-family="Segoe UI, sans-serif" paint-order="stroke" stroke="#000" stroke-width="2" pointer-events="none">SLAB-050</text>
<polygon class="slab-poly" data-slab-id="SLAB-051" points="2748.41,1500.43 2372.00,1500.43 2372.00,1372.44 2380.37,1372.44 2380.37,1339.77 2372.00,1339.77 2372.00,1172.86 2380.37,1172.86 2380.37,1186.82 2451.83,1186.82 2449.48,1189.15 2444.14,1195.63 2439.41,1202.65 2435.32,1210.15 2431.92,1218.06 2429.24,1226.29 2427.31,1234.77 2426.14,1243.42 2425.75,1252.15 2425.75,1268.50 2380.37,1268.50 2380.37,1268.50 2380.11,1268.51 2379.84,1268.55 2379.59,1268.62 2379.34,1268.72 2379.10,1268.85 2378.87,1269.00 2378.66,1269.17 2378.46,1269.37 2378.28,1269.58 2378.13,1269.82 2377.99,1270.07 2377.88,1270.33 2377.79,1270.60 2377.72,1270.89 2377.68,1271.17 2377.67,1271.47 2377.67,1271.47 2377.67,1283.34 2377.67,1283.34 2377.68,1283.63 2377.68,1283.63 2377.68,1283.64 2377.72,1283.92 2377.79,1284.21 2377.88,1284.48 2377.99,1284.74 2378.13,1284.99 2378.28,1285.23 2378.46,1285.44 2378.66,1285.64 2378.87,1285.81 2379.10,1285.96 2379.34,1286.09 2379.59,1286.19 2379.84,1286.26 2380.11,1286.30 2380.37,1286.31 2425.75,1286.31 2425.75,1309.17 2426.14,1317.90 2427.31,1326.55 2429.24,1335.03 2431.92,1343.26 2435.32,1351.17 2439.41,1358.67 2444.14,1365.69 2449.48,1372.17 2455.38,1378.04 2461.76,1383.25 2468.59,1387.74 2475.77,1391.48 2483.26,1394.42 2490.98,1396.55 2498.84,1397.83 2506.79,1398.26 2626.42,1398.26 2634.36,1397.83 2642.23,1396.55 2649.94,1394.42 2657.43,1391.48 2664.62,1387.74 2671.44,1383.25 2677.83,1378.04 2683.72,1372.17 2689.06,1365.69 2693.80,1358.67 2697.89,1351.17 2701.29,1343.26 2703.97,1335.03 2705.90,1326.55 2707.07,1317.90 2707.46,1309.17 2707.46,1252.15 2707.07,1243.42 2705.90,1234.77 2703.97,1226.29 2701.29,1218.06 2697.89,1210.15 2693.80,1202.65 2689.06,1195.63 2683.72,1189.15 2677.83,1183.28 2671.44,1178.07 2664.62,1173.58 2663.24,1172.86 2748.41,1172.86 2748.41,1200.27 2747.72,1201.87 2745.05,1210.10 2743.11,1218.58 2741.95,1227.23 2741.56,1235.96 2741.56,1381.01 2741.95,1389.75 2743.11,1398.40 2745.05,1406.88 2747.72,1415.11 2748.41,1416.70 2748.41,1500.43" fill="#2196F3" fill-opacity="0.45" stroke="#2196F3" stroke-width="0.8"/>
<text x="2555.7" y="1391.0" fill="#fff" font-size="9" text-anchor="middle" dominant-baseline="middle" font-family="Segoe UI, sans-serif" paint-order="stroke" stroke="#000" stroke-width="2" pointer-events="none">SLAB-051</text>
<polygon class="slab-poly" data-slab-id="SLAB-052" points="854.44,1500.43 478.03,1500.43 478.03,1416.70 478.71,1415.11 481.39,1406.88 483.33,1398.40 484.49,1389.75 484.88,1381.01 484.88,1235.96 484.49,1227.23 483.33,1218.58 481.39,1210.10 478.71,1201.87 478.03,1200.27 478.03,1172.86 563.20,1172.86 561.82,1173.58 555.00,1178.07 548.61,1183.28 542.72,1189.15 537.38,1195.63 532.64,1202.65 528.55,1210.15 525.15,1218.06 522.47,1226.29 520.54,1234.77 519.37,1243.42 518.98,1252.15 518.98,1309.17 519.37,1317.90 520.54,1326.55 522.47,1335.03 525.15,1343.26 528.55,1351.17 532.64,1358.67 537.38,1365.69 542.72,1372.17 548.61,1378.04 555.00,1383.25 561.82,1387.74 569.01,1391.48 576.50,1394.42 581.11,1395.70 581.11,1396.19 581.12,1396.49 581.16,1396.77 581.23,1397.06 581.32,1397.33 581.43,1397.59 581.57,1397.84 581.72,1398.08 581.90,1398.29 582.10,1398.49 582.31,1398.66 582.54,1398.81 582.78,1398.94 583.03,1399.04 583.29,1399.11 583.55,1399.15 583.81,1399.16 600.02,1399.16 600.28,1399.15 600.55,1399.11 600.80,1399.04 601.05,1398.94 601.29,1398.81 601.52,1398.66 601.73,1398.49 601.93,1398.29 601.96,1398.26 719.65,1398.26 727.60,1397.83 733.24,1396.91 733.28,1397.06 733.36,1397.33 733.48,1397.59 733.61,1397.84 733.77,1398.08 733.95,1398.29 734.15,1398.49 734.36,1398.66 734.59,1398.81 734.83,1398.94 735.08,1399.04 735.33,1399.11 735.60,1399.15 735.86,1399.16 846.07,1399.16 846.33,1399.15 846.59,1399.11 846.85,1399.04 847.10,1398.94 847.34,1398.81 847.57,1398.66 847.78,1398.49 847.98,1398.29 848.16,1398.08 848.31,1397.84 848.45,1397.59 848.56,1397.33 848.65,1397.06 848.72,1396.77 848.76,1396.49 848.77,1396.19 848.76,1395.90 848.72,1395.61 848.65,1395.33 848.56,1395.06 848.45,1394.79 848.31,1394.54 848.16,1394.31 847.98,1394.09 847.78,1393.90 847.57,1393.72 847.34,1393.58 847.10,1393.45 846.85,1393.35 846.59,1393.28 846.33,1393.24 846.07,1393.22 746.23,1393.22 750.66,1391.48 757.85,1387.74 764.67,1383.25 771.06,1378.04 773.70,1375.41 846.07,1375.41 854.44,1375.41 854.44,1500.43" fill="#2196F3" fill-opacity="0.45" stroke="#2196F3" stroke-width="0.8"/>
<text x="638.3" y="1413.7" fill="#fff" font-size="9" text-anchor="middle" dominant-baseline="middle" font-family="Segoe UI, sans-serif" paint-order="stroke" stroke="#000" stroke-width="2" pointer-events="none">SLAB-052</text>
</svg>