<svg xmlns="http://www.w3.org/2000/svg" width="1664" height="1600" viewBox="0 0 1664 1600">
<rect width="100%" height="100%" fill="#121212"/>
<polygon points="633.33,1541.23 659.60,1541.23 659.60,1520.20 670.10,1520.20 670.10,1546.49 664.85,1546.49 664.85,1551.74 628.07,1551.74 628.07,1546.49 622.82,1546.49 622.82,1509.69 628.07,1509.69 628.07,1504.43 664.85,1504.43 664.85,1514.95 633.33,1514.95 633.33,1541.23" fill="#FF9800" fill-opacity="0.12" stroke="#FFB74D" stroke-width="0.6"/>
<polygon points="457.74,1181.60 457.74,1192.11 283.55,1192.11 283.55,1181.60 457.74,1181.60" fill="#FF9800" fill-opacity="0.12" stroke="#FFB74D" stroke-width="0.6"/>
<polygon points="194.23,1197.37 204.74,1197.37 204.74,1197.37 249.40,1197.37 249.40,1197.37 267.78,1197.37 267.78,1202.63 273.04,1202.62 273.08,1281.47 267.78,1281.48 267.79,1286.73 266.69,1286.73 278.29,1286.73 278.29,1202.63 283.55,1202.63 283.55,1197.37 457.74,1197.37 457.74,1207.88 288.80,1207.88 288.80,1291.99 283.55,1291.99 283.55,1297.25 -40.87,1297.25 -40.87,1291.99 -46.13,1291.99 -46.13,991.03 -35.62,991.03 -35.62,1286.73 -25.22,1286.73 -25.22,1281.60 -30.36,1281.60 -30.36,1202.73 -25.11,1202.73 -25.11,1197.47 57.63,1197.47 183.72,1197.37 183.72,1202.63 188.98,1202.63 188.98,1281.48 188.98,1202.63 194.23,1202.63 194.23,1197.37" fill="#FF9800" fill-opacity="0.12" stroke="#FFB74D" stroke-width="0.6"/>
<polygon points="459.54,1130.86 575.88,1130.86 575.88,1141.37 459.54,1141.37 459.54,1130.86" fill="#FF9800" fill-opacity="0.12" stroke="#FFB74D" stroke-width="0.6"/>
<polygon points="459.54,1120.35 575.88,1120.35 575.88,1130.86 459.54,1130.86 459.54,1120.35" fill="#FF9800" fill-opacity="0.12" stroke="#FFB74D" stroke-width="0.6"/>
<polygon points="591.64,1102.75 698.82,1102.75 698.82,1113.26 591.64,1113.26 591.64,1102.75" fill="#FF9800" fill-opacity="0.12" stroke="#FFB74D" stroke-width="0.6"/>
<polygon points="631.05,1086.98 631.05,1097.49 596.90,1097.49 596.90,1086.98 631.05,1086.98" fill="#FF9800" fill-opacity="0.12" stroke="#FFB74D" stroke-width="0.6"/>
<polygon points="-19.86,991.03 -19.86,1181.71 49.98,1181.71 49.98,1192.23 -25.11,1192.23 -25.11,1186.97 -30.36,1186.97 -30.36,991.03 -19.86,991.03" fill="#FF9800" fill-opacity="0.12" stroke="#FFB74D" stroke-width="0.6"/>
<polygon points="273.04,1050.30 267.78,1050.30 267.78,1055.55 267.78,1055.55 267.78,1066.07 194.23,1066.07 194.23,1181.71 267.78,1181.71 267.78,1192.23 106.23,1192.23 106.23,1181.71 153.25,1181.71 153.25,1162.40 158.51,1162.40 158.51,1157.15 173.22,1157.15 173.22,991.03 183.72,991.03 183.72,991.03 188.98,991.03 188.98,985.78 267.78,985.78 267.78,991.03 273.04,991.03 273.04,1050.30" fill="#FF9800" fill-opacity="0.12" stroke="#FFB74D" stroke-width="0.6"/>
<polygon points="575.88,1069.88 575.88,1080.40 459.54,1080.40 459.54,1069.88 575.88,1069.88" fill="#FF9800" fill-opacity="0.12" stroke="#FFB74D" stroke-width="0.6"/>
<polygon points="459.54,1059.37 575.88,1059.37 575.88,1069.88 459.54,1069.88 459.54,1059.37" fill="#FF9800" fill-opacity="0.12" stroke="#FFB74D" stroke-width="0.6"/>
<polygon points="288.80,991.03 288.80,1050.30 278.29,1050.30 278.29,991.03 288.80,991.03" fill="#FF9800" fill-opacity="0.12" stroke="#FFB74D" stroke-width="0.6"/>
<polygon points="267.78,970.01 267.79,980.52 188.98,980.54 188.98,970.03 267.78,970.01" fill="#FF9800" fill-opacity="0.12" stroke="#FFB74D" stroke-width="0.6"/>
<polygon points="68.90,801.79 68.90,801.79 79.41,801.79 79.41,975.26 68.90,975.26 68.90,975.26 58.39,975.26 58.39,801.79 68.90,801.79" fill="#FF9800" fill-opacity="0.12" stroke="#FFB74D" stroke-width="0.6"/>
<polygon points="44.73,780.76 44.73,602.04 55.24,602.04 55.24,780.76 63.65,780.76 63.65,791.28 -2.03,791.28 -2.03,975.26 -12.53,975.26 -12.53,786.02 -7.28,786.02 -7.28,780.76 44.73,780.76" fill="#FF9800" fill-opacity="0.12" stroke="#FFB74D" stroke-width="0.6"/>
<polygon points="349.97,770.25 438.53,770.25 438.53,780.76 349.97,780.76 349.97,770.25" fill="#FF9800" fill-opacity="0.12" stroke="#FFB74D" stroke-width="0.6"/>
<polygon points="600.57,770.25 600.57,780.76 459.54,780.76 459.54,770.25 600.57,770.25" fill="#FF9800" fill-opacity="0.12" stroke="#FFB74D" stroke-width="0.6"/>
<polygon points="771.32,780.76 621.59,780.76 621.59,770.25 771.32,770.25 771.32,780.76" fill="#FF9800" fill-opacity="0.12" stroke="#FFB74D" stroke-width="0.6"/>
<polygon points="771.32,749.22 771.32,759.74 621.59,759.74 621.59,749.22 771.32,749.22" fill="#FF9800" fill-opacity="0.12" stroke="#FFB74D" stroke-width="0.6"/>
<polygon points="600.57,749.22 600.57,759.74 459.54,759.74 459.54,749.22 600.57,749.22" fill="#FF9800" fill-opacity="0.12" stroke="#FFB74D" stroke-width="0.6"/>
<polygon points="349.97,754.48 344.72,754.48 344.72,633.58 355.23,633.58 355.23,749.22 438.53,749.22 438.53,759.74 349.97,759.74 349.97,754.48" fill="#FF9800" fill-opacity="0.12" stroke="#FFB74D" stroke-width="0.6"/>
<polygon points="81.51,644.09 333.60,644.09 333.60,649.35 339.48,649.35 339.48,754.48 328.97,754.48 328.97,654.60 81.51,654.60 81.51,786.02 71.00,786.02 71.00,602.04 81.51,602.04 81.51,628.32 334.23,628.32 334.23,638.83 81.51,638.83 81.51,644.09" fill="#FF9800" fill-opacity="0.12" stroke="#FFB74D" stroke-width="0.6"/>
<polygon points="425.10,554.73 564.85,554.73 564.85,559.98 570.10,559.98 570.10,633.58 559.59,633.58 559.59,565.24 430.35,565.24 430.35,633.58 419.85,633.58 419.85,633.58 409.34,633.58 409.34,565.24 359.95,565.24 359.95,554.73 414.59,554.73 414.59,559.98 419.85,559.98 419.85,559.98 425.10,559.98 425.10,554.73" fill="#FF9800" fill-opacity="0.12" stroke="#FFB74D" stroke-width="0.6"/>
<polygon points="580.61,559.98 580.61,554.73 704.07,554.73 704.07,565.24 585.86,565.24 585.86,633.58 575.36,633.58 575.36,559.98 580.61,559.98" fill="#FF9800" fill-opacity="0.12" stroke="#FFB74D" stroke-width="0.6"/>
<polygon points="76.25,554.67 333.69,554.79 333.68,565.30 76.25,565.18 76.25,554.67" fill="#FF9800" fill-opacity="0.12" stroke="#FFB74D" stroke-width="0.6"/>
<polygon points="76.25,538.98 333.68,538.98 333.68,549.50 76.25,549.50 76.25,538.98" fill="#FF9800" fill-opacity="0.12" stroke="#FFB74D" stroke-width="0.6"/>
<polygon points="704.07,549.47 359.95,549.47 359.95,538.96 704.07,538.96 704.07,549.47" fill="#FF9800" fill-opacity="0.12" stroke="#FFB74D" stroke-width="0.6"/>
<polygon points="55.24,520.53 44.73,520.53 44.73,404.88 55.24,404.88 55.24,520.53" fill="#FF9800" fill-opacity="0.12" stroke="#FFB74D" stroke-width="0.6"/>
<polygon points="81.51,404.88 81.51,520.53 71.00,520.53 71.00,404.88 81.51,404.88" fill="#FF9800" fill-opacity="0.12" stroke="#FFB74D" stroke-width="0.6"/>
<polygon points="338.94,354.44 338.94,405.43 328.43,405.43 328.43,354.44 338.94,354.44" fill="#FF9800" fill-opacity="0.12" stroke="#FFB74D" stroke-width="0.6"/>
<polygon points="365.21,354.44 365.21,405.43 354.70,405.43 354.70,354.44 365.21,354.44" fill="#FF9800" fill-opacity="0.12" stroke="#FFB74D" stroke-width="0.6"/>
<polygon points="336.31,328.42 325.80,328.42 325.80,135.26 336.31,135.26 336.31,328.42" fill="#FF9800" fill-opacity="0.12" stroke="#FFB74D" stroke-width="0.6"/>
<polygon points="365.21,318.54 354.70,318.54 354.70,132.90 365.21,132.90 365.21,318.54" fill="#FF9800" fill-opacity="0.12" stroke="#FFB74D" stroke-width="0.6"/>
<polygon points="709.32,312.92 698.82,312.92 698.82,132.90 709.32,132.90 709.32,312.92" fill="#FF9800" fill-opacity="0.12" stroke="#FFB74D" stroke-width="0.6"/>
<polygon points="76.25,218.30 76.25,207.78 111.45,207.78 111.45,81.62 116.71,81.62 116.71,76.36 333.68,76.36 333.68,86.88 121.96,86.88 121.96,213.04 116.71,213.04 116.71,218.30 76.25,218.30" fill="#FF9800" fill-opacity="0.12" stroke="#FFB74D" stroke-width="0.6"/>
<polygon points="100.94,192.01 100.94,197.27 76.25,197.27 76.25,186.76 95.69,186.76 95.69,86.88 76.25,86.88 76.25,76.36 100.94,76.36 100.94,81.62 106.20,81.62 106.20,192.01 100.94,192.01" fill="#FF9800" fill-opacity="0.12" stroke="#FFB74D" stroke-width="0.6"/>
<polygon points="704.07,76.36 704.07,86.88 359.95,86.88 359.95,76.36 704.07,76.36" fill="#FF9800" fill-opacity="0.12" stroke="#FFB74D" stroke-width="0.6"/>
<polygon points="359.95,44.82 359.95,50.08 359.95,44.82 704.07,44.82 704.07,55.34 359.95,55.34 359.95,55.34 76.25,55.34 76.25,44.82 359.95,44.82" fill="#FF9800" fill-opacity="0.12" stroke="#FFB74D" stroke-width="0.6"/>
<polygon points="822.93,1567.51 822.93,1520.20 833.44,1520.20 833.44,1567.51 822.93,1567.51" fill="#FF9800" fill-opacity="0.12" stroke="#FFB74D" stroke-width="0.6"/>
<polygon points="807.17,1520.20 817.68,1520.20 817.68,1567.51 807.17,1567.51 807.17,1520.20" fill="#FF9800" fill-opacity="0.12" stroke="#FFB74D" stroke-width="0.6"/>
<polygon points="1174.69,1552.95 1169.44,1552.95 1169.44,1522.20 1179.95,1522.20 1179.95,1547.69 1185.20,1547.69 1185.20,1518.78 1195.71,1518.78 1195.71,1552.95 1190.45,1552.95 1190.45,1558.21 1179.95,1558.21 1174.69,1558.21 1174.69,1552.95" fill="#FF9800" fill-opacity="0.12" stroke="#FFB74D" stroke-width="0.6"/>
<polygon points="1022.33,1558.21 1022.33,1552.95 1017.08,1552.95 1017.08,1518.78 1027.59,1518.78 1027.59,1522.20 1038.10,1522.20 1038.10,1552.95 1032.84,1552.95 1032.84,1558.21 1022.33,1558.21" fill="#FF9800" fill-opacity="0.12" stroke="#FFB74D" stroke-width="0.6"/>
<polygon points="946.34,1493.04 954.22,1493.04 954.22,1498.29 959.47,1498.29 959.47,1553.49 954.22,1553.49 954.22,1558.75 922.70,1558.75 922.70,1553.49 917.44,1553.49 917.44,1521.95 927.95,1521.95 927.95,1548.23 948.96,1548.23 948.96,1511.44 941.08,1511.44 941.08,1498.29 946.34,1498.29 946.34,1493.04" fill="#FF9800" fill-opacity="0.12" stroke="#FFB74D" stroke-width="0.6"/>
<polygon points="1169.44,1510.90 1174.69,1510.90 1174.69,1505.64 1179.95,1505.64 1190.45,1505.64 1190.45,1516.15 1179.95,1516.15 1174.69,1516.15 1174.69,1514.31 1169.44,1514.31 1169.44,1510.90" fill="#FF9800" fill-opacity="0.12" stroke="#FFB74D" stroke-width="0.6"/>
<polygon points="1032.84,1505.64 1032.84,1510.90 1038.10,1510.90 1038.10,1514.31 1032.84,1514.31 1032.84,1516.15 1022.33,1516.15 1022.33,1505.64 1032.84,1505.64" fill="#FF9800" fill-opacity="0.12" stroke="#FFB74D" stroke-width="0.6"/>
<polygon points="1229.44,1029.15 1166.40,1029.15 1166.40,1018.64 1229.44,1018.64 1229.44,1029.15" fill="#FF9800" fill-opacity="0.12" stroke="#FFB74D" stroke-width="0.6"/>
<polygon points="1229.44,1002.87 1229.44,1013.38 1166.40,1013.38 1166.40,1002.87 1229.44,1002.87" fill="#FF9800" fill-opacity="0.12" stroke="#FFB74D" stroke-width="0.6"/>
<polygon points="1124.37,922.70 1124.37,1008.13 1113.86,1008.13 1113.86,922.70 1124.37,922.70" fill="#FF9800" fill-opacity="0.12" stroke="#FFB74D" stroke-width="0.6"/>
<polygon points="1140.13,1008.13 1129.62,1008.13 1129.62,922.70 1140.13,922.70 1140.13,1008.13" fill="#FF9800" fill-opacity="0.12" stroke="#FFB74D" stroke-width="0.6"/>
<polygon points="1129.62,902.85 1129.62,775.51 1140.13,775.51 1140.13,902.85 1129.62,902.85" fill="#FF9800" fill-opacity="0.12" stroke="#FFB74D" stroke-width="0.6"/>
<polygon points="1124.37,775.51 1124.37,902.85 1113.86,902.85 1113.86,775.51 1124.37,775.51" fill="#FF9800" fill-opacity="0.12" stroke="#FFB74D" stroke-width="0.6"/>
<polygon points="942.07,770.25 942.07,780.76 792.33,780.76 792.33,770.25 942.07,770.25" fill="#FF9800" fill-opacity="0.12" stroke="#FFB74D" stroke-width="0.6"/>
<polygon points="1140.13,770.25 1255.71,770.25 1255.71,780.76 1140.13,780.76 1140.13,770.25" fill="#FF9800" fill-opacity="0.12" stroke="#FFB74D" stroke-width="0.6"/>
<polygon points="836.47,749.22 942.07,749.22 942.07,759.74 836.47,759.74 836.47,749.22" fill="#FF9800" fill-opacity="0.12" stroke="#FFB74D" stroke-width="0.6"/>
<polygon points="1140.13,749.22 1255.71,749.22 1255.71,759.74 1140.13,759.74 1140.13,749.22" fill="#FF9800" fill-opacity="0.12" stroke="#FFB74D" stroke-width="0.6"/>
<polygon points="1260.97,754.48 1260.97,649.35 1271.47,649.35 1271.47,754.48 1260.97,754.48" fill="#FF9800" fill-opacity="0.12" stroke="#FFB74D" stroke-width="0.6"/>
<polygon points="1130.67,617.80 1130.67,612.54 1266.22,612.54 1266.22,617.80 1271.47,617.80 1271.47,633.58 1266.22,633.58 1266.22,638.83 1130.67,638.83 1130.67,633.58 1125.42,633.58 1125.42,617.80 1130.67,617.80" fill="#FF9800" fill-opacity="0.12" stroke="#FFB74D" stroke-width="0.6"/>
<polygon points="895.83,554.73 967.81,554.73 967.81,565.24 895.83,565.24 895.83,554.73" fill="#FF9800" fill-opacity="0.12" stroke="#FFB74D" stroke-width="0.6"/>
<polygon points="730.34,554.73 880.07,554.73 880.07,565.24 730.34,565.24 730.34,554.73" fill="#FF9800" fill-opacity="0.12" stroke="#FFB74D" stroke-width="0.6"/>
<polygon points="895.83,538.96 967.81,538.96 967.81,549.47 895.83,549.47 895.83,538.96" fill="#FF9800" fill-opacity="0.12" stroke="#FFB74D" stroke-width="0.6"/>
<polygon points="730.34,538.96 880.07,538.96 880.07,549.47 730.34,549.47 730.34,538.96" fill="#FF9800" fill-opacity="0.12" stroke="#FFB74D" stroke-width="0.6"/>
<polygon points="880.07,493.75 880.07,504.26 730.34,504.26 730.34,493.75 880.07,493.75" fill="#FF9800" fill-opacity="0.12" stroke="#FFB74D" stroke-width="0.6"/>
<polygon points="1190.04,488.49 1190.04,425.94 1200.55,425.94 1200.55,483.23 1260.97,483.23 1260.97,425.94 1271.47,425.94 1271.47,488.49 1266.22,488.49 1266.22,493.75 1266.22,499.00 1271.47,499.00 1271.47,569.97 1260.97,569.97 1260.97,504.26 1100.73,504.26 1100.73,493.75 1100.73,483.23 1174.28,483.23 1174.28,425.94 1184.79,425.94 1184.79,488.49 1179.53,488.49 1179.53,493.75 1195.29,493.75 1195.29,488.49 1190.04,488.49" fill="#FF9800" fill-opacity="0.12" stroke="#FFB74D" stroke-width="0.6"/>
<polygon points="1074.46,493.75 1074.46,504.26 983.57,504.26 983.57,493.75 983.57,483.23 1074.46,483.23 1074.46,493.75" fill="#FF9800" fill-opacity="0.12" stroke="#FFB74D" stroke-width="0.6"/>
<polygon points="880.07,483.23 880.07,493.75 730.34,493.75 730.34,483.23 880.07,483.23" fill="#FF9800" fill-opacity="0.12" stroke="#FFB74D" stroke-width="0.6"/>
<polygon points="880.07,455.37 880.07,465.89 730.34,465.89 730.34,455.37 880.07,455.37" fill="#FF9800" fill-opacity="0.12" stroke="#FFB74D" stroke-width="0.6"/>
<polygon points="730.34,444.86 880.07,444.86 880.07,455.37 730.34,455.37 730.34,444.86" fill="#FF9800" fill-opacity="0.12" stroke="#FFB74D" stroke-width="0.6"/>
<polygon points="880.07,407.54 880.07,418.05 730.34,418.05 730.34,407.54 880.07,407.54" fill="#FF9800" fill-opacity="0.12" stroke="#FFB74D" stroke-width="0.6"/>
<polygon points="880.07,402.28 730.34,402.28 730.34,402.28 730.34,402.28 730.34,397.02 730.34,391.77 730.34,391.77 730.34,391.77 743.48,391.77 743.48,391.77 880.07,391.77 880.07,402.28" fill="#FF9800" fill-opacity="0.12" stroke="#FFB74D" stroke-width="0.6"/>
<polygon points="1260.97,244.58 1260.97,249.84 1271.47,249.84 1271.47,410.17 1260.97,410.17 1260.97,255.09 1105.98,255.09 1105.98,357.07 1095.47,357.07 1095.47,127.62 1105.98,127.62 1105.98,228.81 1260.97,228.81 1260.97,239.32 1105.98,239.32 1105.98,244.58 1260.97,244.58" fill="#FF9800" fill-opacity="0.12" stroke="#FFB74D" stroke-width="0.6"/>
<polygon points="1069.21,357.07 1069.21,127.62 1079.71,127.62 1079.71,357.07 1069.21,357.07" fill="#FF9800" fill-opacity="0.12" stroke="#FFB74D" stroke-width="0.6"/>
<polygon points="725.09,132.90 735.59,132.90 735.59,312.92 725.09,312.92 725.09,132.90" fill="#FF9800" fill-opacity="0.12" stroke="#FFB74D" stroke-width="0.6"/>
<polygon points="1100.72,76.63 1260.96,76.32 1260.98,86.84 1100.74,87.14 1100.72,76.63" fill="#FF9800" fill-opacity="0.12" stroke="#FFB74D" stroke-width="0.6"/>
<polygon points="730.34,76.36 1074.46,76.36 1074.46,86.88 730.34,86.88 730.34,76.36" fill="#FF9800" fill-opacity="0.12" stroke="#FFB74D" stroke-width="0.6"/>
<polygon points="1074.46,55.34 730.34,55.34 730.34,44.82 1074.46,44.82 1074.46,55.34" fill="#FF9800" fill-opacity="0.12" stroke="#FFB74D" stroke-width="0.6"/>
<polygon points="1260.96,44.52 1260.98,55.03 1100.74,55.34 1100.72,44.82 1260.96,44.52" fill="#FF9800" fill-opacity="0.12" stroke="#FFB74D" stroke-width="0.6"/>
<polygon points="1607.71,1239.42 1607.71,1239.42 1607.71,1247.31 1281.98,1247.31 1281.98,1236.79 1281.98,1236.79 1281.98,1228.91 1607.71,1228.91 1607.71,1239.42" fill="#FF9800" fill-opacity="0.12" stroke="#FFB74D" stroke-width="0.6"/>
<polygon points="1281.98,1205.25 1607.71,1205.25 1607.71,1215.77 1281.98,1215.77 1281.98,1205.25" fill="#FF9800" fill-opacity="0.12" stroke="#FFB74D" stroke-width="0.6"/>
<polygon points="1723.29,1029.15 1660.25,1029.15 1660.25,1018.64 1723.29,1018.64 1723.29,1029.15" fill="#FF9800" fill-opacity="0.12" stroke="#FFB74D" stroke-width="0.6"/>
<polygon points="1660.25,1013.38 1660.25,1002.87 1723.29,1002.87 1723.29,1013.38 1660.25,1013.38" fill="#FF9800" fill-opacity="0.12" stroke="#FFB74D" stroke-width="0.6"/>
<polygon points="1775.83,1008.13 1765.32,1008.13 1765.32,922.70 1775.83,922.70 1775.83,1008.13" fill="#FF9800" fill-opacity="0.12" stroke="#FFB74D" stroke-width="0.6"/>
<polygon points="1760.07,922.70 1760.07,1008.13 1749.56,1008.13 1749.56,922.70 1760.07,922.70" fill="#FF9800" fill-opacity="0.12" stroke="#FFB74D" stroke-width="0.6"/>
<polygon points="1765.32,902.85 1765.32,775.51 1775.83,775.51 1775.83,902.85 1765.32,902.85" fill="#FF9800" fill-opacity="0.12" stroke="#FFB74D" stroke-width="0.6"/>
<polygon points="1749.56,775.51 1760.07,775.51 1760.07,902.85 1749.56,902.85 1749.56,775.51" fill="#FF9800" fill-opacity="0.12" stroke="#FFB74D" stroke-width="0.6"/>
<polygon points="1276.73,649.35 1281.98,649.35 1281.98,644.09 1607.71,644.09 1607.71,649.35 1612.97,649.35 1612.97,754.48 1607.71,754.48 1607.71,759.74 1607.71,759.74 1607.71,770.25 1461.43,770.25 1461.43,764.99 1461.43,770.25 1460.61,770.25 1460.61,915.34 1607.71,915.34 1607.71,925.85 1607.71,936.36 1595.10,936.36 1595.10,997.34 1607.71,997.34 1607.71,1007.86 1607.71,1018.37 1281.98,1018.37 1281.98,1007.86 1281.98,997.34 1439.59,997.34 1439.59,770.25 1281.98,770.25 1281.98,759.74 1281.98,759.74 1281.98,754.48 1276.73,754.48 1276.73,649.35" fill="#FF9800" fill-opacity="0.12" stroke="#FFB74D" stroke-width="0.6"/>
<polygon points="1385.48,837.54 1380.23,837.54 1380.23,837.54 1380.23,842.79 1374.97,842.79 1374.97,837.54 1374.97,837.54 1369.72,837.54 1369.72,794.96 1374.97,794.96 1374.97,794.96 1374.97,789.70 1380.23,789.70 1380.23,794.96 1380.23,794.96 1385.48,794.96 1385.48,837.54" fill="#FF9800" fill-opacity="0.12" stroke="#FFB74D" stroke-width="0.6"/>
<polygon points="1948.68,780.76 1948.68,770.25 2097.36,770.25 2097.36,780.76 1948.68,780.76" fill="#FF9800" fill-opacity="0.12" stroke="#FFB74D" stroke-width="0.6"/>
<polygon points="1749.56,780.76 1633.98,780.76 1633.98,770.25 1749.56,770.25 1749.56,780.76" fill="#FF9800" fill-opacity="0.12" stroke="#FFB74D" stroke-width="0.6"/>
<polygon points="1947.63,749.22 2097.36,749.22 2097.36,759.74 1947.63,759.74 1947.63,749.22" fill="#FF9800" fill-opacity="0.12" stroke="#FFB74D" stroke-width="0.6"/>
<polygon points="1633.98,759.74 1633.98,749.22 1749.56,749.22 1749.56,759.74 1633.98,759.74" fill="#FF9800" fill-opacity="0.12" stroke="#FFB74D" stroke-width="0.6"/>
<polygon points="1628.73,754.48 1618.22,754.48 1618.22,649.35 1628.73,649.35 1628.73,754.48" fill="#FF9800" fill-opacity="0.12" stroke="#FFB74D" stroke-width="0.6"/>
<polygon points="1281.98,628.32 1607.71,628.32 1607.71,638.83 1281.98,638.83 1281.98,628.32" fill="#FF9800" fill-opacity="0.12" stroke="#FFB74D" stroke-width="0.6"/>
<polygon points="1623.47,633.58 1618.22,633.58 1618.22,617.80 1623.47,617.80 1623.47,612.54 1759.02,612.54 1759.02,617.80 1764.27,617.80 1764.27,633.58 1759.02,633.58 1759.02,638.83 1623.47,638.83 1623.47,633.58" fill="#FF9800" fill-opacity="0.12" stroke="#FFB74D" stroke-width="0.6"/>
<polygon points="1921.88,565.24 1921.88,554.73 1993.86,554.73 1993.86,565.24 1921.88,565.24" fill="#FF9800" fill-opacity="0.12" stroke="#FFB74D" stroke-width="0.6"/>
<polygon points="2009.62,565.24 2009.62,554.73 2159.35,554.73 2159.35,565.24 2009.62,565.24" fill="#FF9800" fill-opacity="0.12" stroke="#FFB74D" stroke-width="0.6"/>
<polygon points="1921.88,549.47 1921.88,538.96 1993.86,538.96 1993.86,549.47 1921.88,549.47" fill="#FF9800" fill-opacity="0.12" stroke="#FFB74D" stroke-width="0.6"/>
<polygon points="2009.62,549.47 2009.62,538.96 2159.35,538.96 2159.35,549.47 2009.62,549.47" fill="#FF9800" fill-opacity="0.12" stroke="#FFB74D" stroke-width="0.6"/>
<polygon points="1602.46,580.48 1602.46,431.19 1287.23,431.19 1287.23,580.48 1276.73,580.48 1276.73,425.94 1281.98,425.94 1281.98,420.68 1607.71,420.68 1607.71,425.94 1612.97,425.94 1612.97,580.48 1602.46,580.48" fill="#FF9800" fill-opacity="0.12" stroke="#FFB74D" stroke-width="0.6"/>
<polygon points="2159.35,504.26 2009.62,504.26 2009.62,493.75 2159.35,493.75 2159.35,504.26" fill="#FF9800" fill-opacity="0.12" stroke="#FFB74D" stroke-width="0.6"/>
<polygon points="1699.65,488.49 1694.40,488.49 1694.40,493.75 1710.16,493.75 1710.16,488.49 1704.91,488.49 1704.91,425.94 1715.41,425.94 1715.41,483.23 1788.96,483.23 1788.96,493.75 1788.96,504.26 1628.73,504.26 1628.73,569.97 1618.22,569.97 1618.22,499.00 1623.47,499.00 1623.47,493.75 1623.47,488.49 1618.22,488.49 1618.22,425.94 1628.73,425.94 1628.73,483.23 1689.14,483.23 1689.14,425.94 1699.65,425.94 1699.65,488.49" fill="#FF9800" fill-opacity="0.12" stroke="#FFB74D" stroke-width="0.6"/>
<polygon points="1815.23,504.26 1815.23,493.75 1815.23,483.23 1906.12,483.23 1906.12,493.75 1906.12,504.26 1815.23,504.26" fill="#FF9800" fill-opacity="0.12" stroke="#FFB74D" stroke-width="0.6"/>
<polygon points="2009.62,493.75 2009.62,483.23 2159.35,483.23 2159.35,493.75 2009.62,493.75" fill="#FF9800" fill-opacity="0.12" stroke="#FFB74D" stroke-width="0.6"/>
<polygon points="2009.62,465.89 2009.62,455.37 2159.35,455.37 2159.35,465.89 2009.62,465.89" fill="#FF9800" fill-opacity="0.12" stroke="#FFB74D" stroke-width="0.6"/>
<polygon points="2009.62,455.37 2009.62,444.86 2159.35,444.86 2159.35,455.37 2009.62,455.37" fill="#FF9800" fill-opacity="0.12" stroke="#FFB74D" stroke-width="0.6"/>
<polygon points="1612.97,410.17 1607.71,410.17 1607.71,415.42 1281.98,415.42 1281.98,410.17 1276.73,410.17 1276.73,249.84 1281.98,249.84 1281.98,244.58 1607.71,244.58 1607.71,249.84 1612.97,249.84 1612.97,410.17" fill="#FF9800" fill-opacity="0.12" stroke="#FFB74D" stroke-width="0.6"/>
<polygon points="1628.29,228.81 1783.71,228.81 1783.71,127.62 1794.22,127.62 1794.22,357.07 1783.71,357.07 1783.71,255.09 1628.73,255.09 1628.73,410.17 1618.22,410.17 1618.22,249.84 1628.29,249.84 1628.29,244.58 1783.71,244.58 1783.71,239.32 1628.29,239.32 1628.29,228.81" fill="#FF9800" fill-opacity="0.12" stroke="#FFB74D" stroke-width="0.6"/>
<polygon points="1820.49,357.07 1809.98,357.07 1809.98,127.62 1820.49,127.62 1820.49,357.07" fill="#FF9800" fill-opacity="0.12" stroke="#FFB74D" stroke-width="0.6"/>
<polygon points="1607.71,228.81 1607.71,239.32 1281.98,239.32 1281.98,228.81 1607.71,228.81" fill="#FF9800" fill-opacity="0.12" stroke="#FFB74D" stroke-width="0.6"/>
<polygon points="1607.72,91.51 1281.55,92.14 1281.53,81.62 1607.70,81.00 1607.72,91.51" fill="#FF9800" fill-opacity="0.12" stroke="#FFB74D" stroke-width="0.6"/>
<polygon points="1628.72,86.84 1628.74,76.32 1788.98,76.63 1788.95,87.14 1628.72,86.84" fill="#FF9800" fill-opacity="0.12" stroke="#FFB74D" stroke-width="0.6"/>
<polygon points="1815.23,86.88 1815.23,76.36 2159.35,76.36 2159.35,86.88 1815.23,86.88" fill="#FF9800" fill-opacity="0.12" stroke="#FFB74D" stroke-width="0.6"/>
<polygon points="2159.35,55.34 1815.23,55.34 1815.23,44.82 2159.35,44.82 2159.35,55.34" fill="#FF9800" fill-opacity="0.12" stroke="#FFB74D" stroke-width="0.6"/>
<polygon points="1628.72,55.03 1628.74,44.52 1788.98,44.82 1788.95,55.34 1628.72,55.03" fill="#FF9800" fill-opacity="0.12" stroke="#FFB74D" stroke-width="0.6"/>
<polygon points="1607.70,44.20 1607.72,54.72 1281.55,55.34 1281.53,44.82 1607.70,44.20" fill="#FF9800" fill-opacity="0.12" stroke="#FFB74D" stroke-width="0.6"/>
<polygon points="2431.95,1192.11 2431.95,1181.60 2606.15,1181.60 2606.15,1192.11 2431.95,1192.11" fill="#FF9800" fill-opacity="0.12" stroke="#FFB74D" stroke-width="0.6"/>
<polygon points="2621.91,1197.37 2640.30,1197.37 2640.30,1197.37 2684.95,1197.37 2684.95,1197.37 2695.46,1197.37 2695.46,1202.63 2700.71,1202.63 2700.71,1281.48 2695.46,1281.48 2695.46,1286.73 2705.97,1286.73 2705.97,1281.48 2700.71,1281.48 2700.71,1202.63 2705.97,1202.63 2705.97,1197.37 2832.06,1197.47 2914.80,1197.47 2914.80,1202.73 2920.06,1202.73 2920.06,1281.60 2914.91,1281.60 2914.91,1286.73 2925.31,1286.73 2925.31,991.03 2935.82,991.03 2935.82,1291.99 2930.56,1291.99 2930.56,1297.25 2606.15,1297.25 2606.15,1291.99 2600.89,1291.99 2600.89,1207.88 2431.95,1207.88 2431.95,1197.37 2606.15,1197.37 2606.15,1202.63 2611.40,1202.63 2611.40,1286.73 2623.00,1286.73 2621.91,1286.73 2621.91,1281.48 2616.61,1281.47 2616.65,1202.62 2621.91,1202.63 2621.91,1197.37" fill="#FF9800" fill-opacity="0.12" stroke="#FFB74D" stroke-width="0.6"/>
<polygon points="2430.15,1141.37 2313.81,1141.37 2313.81,1130.86 2430.15,1130.86 2430.15,1141.37" fill="#FF9800" fill-opacity="0.12" stroke="#FFB74D" stroke-width="0.6"/>
<polygon points="2430.15,1130.86 2313.81,1130.86 2313.81,1120.35 2430.15,1120.35 2430.15,1130.86" fill="#FF9800" fill-opacity="0.12" stroke="#FFB74D" stroke-width="0.6"/>
<polygon points="2298.05,1113.26 2190.87,1113.26 2190.87,1102.75 2298.05,1102.75 2298.05,1113.26" fill="#FF9800" fill-opacity="0.12" stroke="#FFB74D" stroke-width="0.6"/>
<polygon points="2258.65,1097.49 2258.65,1086.98 2292.79,1086.98 2292.79,1097.49 2258.65,1097.49" fill="#FF9800" fill-opacity="0.12" stroke="#FFB74D" stroke-width="0.6"/>
<polygon points="2920.06,1186.97 2914.80,1186.97 2914.80,1192.23 2839.71,1192.23 2839.71,1181.71 2909.55,1181.71 2909.55,991.03 2920.06,991.03 2920.06,1186.97" fill="#FF9800" fill-opacity="0.12" stroke="#FFB74D" stroke-width="0.6"/>
<polygon points="2616.65,1050.30 2616.65,991.03 2621.91,991.03 2621.91,985.78 2700.71,985.78 2700.71,991.03 2705.97,991.03 2705.97,991.03 2716.48,991.03 2716.48,1157.15 2731.19,1157.15 2731.19,1162.40 2736.44,1162.40 2736.44,1181.71 2783.46,1181.71 2783.46,1192.23 2621.91,1192.23 2621.91,1181.71 2695.46,1181.71 2695.46,1066.07 2621.91,1066.07 2621.91,1055.55 2621.91,1055.55 2621.91,1050.30 2616.65,1050.30" fill="#FF9800" fill-opacity="0.12" stroke="#FFB74D" stroke-width="0.6"/>
<polygon points="2313.81,1069.88 2430.15,1069.88 2430.15,1080.40 2313.81,1080.40 2313.81,1069.88" fill="#FF9800" fill-opacity="0.12" stroke="#FFB74D" stroke-width="0.6"/>
<polygon points="2430.15,1069.88 2313.81,1069.88 2313.81,1059.37 2430.15,1059.37 2430.15,1069.88" fill="#FF9800" fill-opacity="0.12" stroke="#FFB74D" stroke-width="0.6"/>
<polygon points="2611.40,991.03 2611.40,1050.30 2600.89,1050.30 2600.89,991.03 2611.40,991.03" fill="#FF9800" fill-opacity="0.12" stroke="#FFB74D" stroke-width="0.6"/>
<polygon points="2700.71,980.54 2621.91,980.52 2621.91,970.01 2700.72,970.03 2700.71,980.54" fill="#FF9800" fill-opacity="0.12" stroke="#FFB74D" stroke-width="0.6"/>
<polygon points="2810.29,801.79 2820.79,801.79 2820.79,801.79 2831.30,801.79 2831.30,975.26 2820.79,975.26 2820.79,975.26 2810.29,975.26 2810.29,801.79" fill="#FF9800" fill-opacity="0.12" stroke="#FFB74D" stroke-width="0.6"/>
<polygon points="2826.05,791.28 2826.05,780.76 2834.46,780.76 2834.46,602.04 2844.96,602.04 2844.96,780.76 2896.97,780.76 2896.97,786.02 2902.23,786.02 2902.23,975.26 2891.72,975.26 2891.72,791.28 2826.05,791.28" fill="#FF9800" fill-opacity="0.12" stroke="#FFB74D" stroke-width="0.6"/>
<polygon points="2451.16,780.76 2451.16,770.25 2539.72,770.25 2539.72,780.76 2451.16,780.76" fill="#FF9800" fill-opacity="0.12" stroke="#FFB74D" stroke-width="0.6"/>
<polygon points="2268.10,780.76 2118.37,780.76 2118.37,770.25 2268.10,770.25 2268.10,780.76" fill="#FF9800" fill-opacity="0.12" stroke="#FFB74D" stroke-width="0.6"/>
<polygon points="2430.15,780.76 2289.12,780.76 2289.12,770.25 2430.15,770.25 2430.15,780.76" fill="#FF9800" fill-opacity="0.12" stroke="#FFB74D" stroke-width="0.6"/>
<polygon points="2118.37,749.22 2268.10,749.22 2268.10,759.74 2118.37,759.74 2118.37,749.22" fill="#FF9800" fill-opacity="0.12" stroke="#FFB74D" stroke-width="0.6"/>
<polygon points="2539.72,759.74 2394.72,759.74 2394.72,754.48 2394.72,759.74 2289.12,759.74 2289.12,749.22 2394.72,749.22 2394.72,749.22 2534.46,749.22 2534.46,633.58 2544.97,633.58 2544.97,754.48 2539.72,754.48 2539.72,759.74" fill="#FF9800" fill-opacity="0.12" stroke="#FFB74D" stroke-width="0.6"/>
<polygon points="2808.19,628.32 2808.19,602.04 2818.69,602.04 2818.69,786.02 2808.19,786.02 2808.19,654.60 2560.72,654.60 2560.72,754.48 2550.21,754.48 2550.21,649.35 2556.10,649.35 2556.10,644.09 2808.19,644.09 2808.19,638.83 2555.47,638.83 2555.47,628.32 2808.19,628.32" fill="#FF9800" fill-opacity="0.12" stroke="#FFB74D" stroke-width="0.6"/>
<polygon points="2324.84,554.73 2464.59,554.73 2464.59,559.98 2469.85,559.98 2469.85,559.98 2475.10,559.98 2475.10,554.73 2529.74,554.73 2529.74,565.24 2480.35,565.24 2480.35,633.58 2469.85,633.58 2469.85,633.58 2459.34,633.58 2459.34,565.24 2330.10,565.24 2330.10,633.58 2319.59,633.58 2319.59,559.98 2324.84,559.98 2324.84,554.73" fill="#FF9800" fill-opacity="0.12" stroke="#FFB74D" stroke-width="0.6"/>
<polygon points="2185.62,565.24 2185.62,554.73 2309.08,554.73 2309.08,559.98 2314.34,559.98 2314.34,633.58 2303.83,633.58 2303.83,565.24 2185.62,565.24" fill="#FF9800" fill-opacity="0.12" stroke="#FFB74D" stroke-width="0.6"/>
<polygon points="2556.01,565.30 2556.01,554.79 2813.44,554.67 2813.44,565.18 2556.01,565.30" fill="#FF9800" fill-opacity="0.12" stroke="#FFB74D" stroke-width="0.6"/>
<polygon points="2813.44,549.50 2556.01,549.50 2556.01,538.98 2813.44,538.98 2813.44,549.50" fill="#FF9800" fill-opacity="0.12" stroke="#FFB74D" stroke-width="0.6"/>
<polygon points="2529.74,549.47 2185.62,549.47 2185.62,538.96 2529.74,538.96 2529.74,549.47" fill="#FF9800" fill-opacity="0.12" stroke="#FFB74D" stroke-width="0.6"/>
<polygon points="2844.96,404.88 2844.96,520.53 2834.46,520.53 2834.46,404.88 2844.96,404.88" fill="#FF9800" fill-opacity="0.12" stroke="#FFB74D" stroke-width="0.6"/>
<polygon points="2818.69,520.53 2808.19,520.53 2808.19,404.88 2818.69,404.88 2818.69,520.53" fill="#FF9800" fill-opacity="0.12" stroke="#FFB74D" stroke-width="0.6"/>
<polygon points="2009.62,418.05 2009.62,407.54 2159.35,407.54 2159.35,418.05 2009.62,418.05" fill="#FF9800" fill-opacity="0.12" stroke="#FFB74D" stroke-width="0.6"/>
<polygon points="2159.35,391.77 2159.35,391.77 2159.35,397.02 2159.35,402.28 2159.35,402.28 2159.35,402.28 2009.62,402.28 2009.62,391.77 2146.22,391.77 2146.22,391.77 2159.35,391.77 2159.35,391.77" fill="#FF9800" fill-opacity="0.12" stroke="#FFB74D" stroke-width="0.6"/>
<polygon points="2550.75,405.43 2550.75,354.44 2561.26,354.44 2561.26,405.43 2550.75,405.43" fill="#FF9800" fill-opacity="0.12" stroke="#FFB74D" stroke-width="0.6"/>
<polygon points="2534.99,152.32 2534.99,481.13 2524.48,481.13 2524.49,152.32 2534.99,152.32" fill="#FF9800" fill-opacity="0.12" stroke="#FFB74D" stroke-width="0.6"/>
<polygon points="2553.38,328.42 2553.38,152.32 2563.89,152.32 2563.89,328.42 2553.38,328.42" fill="#FF9800" fill-opacity="0.12" stroke="#FFB74D" stroke-width="0.6"/>
<polygon points="2154.10,152.32 2164.61,152.32 2164.61,312.92 2154.10,312.92 2154.10,152.32" fill="#FF9800" fill-opacity="0.12" stroke="#FFB74D" stroke-width="0.6"/>
<polygon points="2190.88,146.37 2190.88,312.92 2180.37,312.92 2180.37,146.37 2190.88,146.37" fill="#FF9800" fill-opacity="0.12" stroke="#FFB74D" stroke-width="0.6"/>
<polygon points="2813.44,207.78 2813.44,218.30 2772.99,218.30 2772.99,213.04 2767.73,213.04 2767.73,86.88 2556.01,86.88 2556.01,76.36 2772.99,76.36 2772.99,81.62 2778.24,81.62 2778.24,207.78 2813.44,207.78" fill="#FF9800" fill-opacity="0.12" stroke="#FFB74D" stroke-width="0.6"/>
<polygon points="2788.75,197.27 2788.75,192.01 2783.49,192.01 2783.49,81.62 2788.75,81.62 2788.75,76.36 2813.44,76.36 2813.44,86.88 2794.00,86.88 2794.00,186.76 2813.44,186.76 2813.44,197.27 2788.75,197.27" fill="#FF9800" fill-opacity="0.12" stroke="#FFB74D" stroke-width="0.6"/>
<polygon points="2185.62,86.88 2185.62,76.36 2529.74,76.36 2529.74,86.88 2185.62,86.88" fill="#FF9800" fill-opacity="0.12" stroke="#FFB74D" stroke-width="0.6"/>
<polygon points="2529.74,44.82 2813.44,44.82 2813.44,55.34 2529.74,55.34 2529.74,55.34 2185.62,55.34 2185.62,44.82 2529.74,44.82 2529.74,50.08 2529.74,44.82" fill="#FF9800" fill-opacity="0.12" stroke="#FFB74D" stroke-width="0.6"/>
<polygon class="slab-poly" data-slab-id="SLAB-001" points="1272.79,244.84 1272.79,47.12 1616.91,47.12 1616.91,244.84 1272.79,244.84" fill="#2196F3" fill-opacity="0.45" stroke="#2196F3" stroke-width="1.5"/>
<text x="1444.8" y="146.0" fill="#fff" font-size="9" text-anchor="middle" dominant-baseline="middle" font-family="Segoe UI, sans-serif" paint-order="stroke" stroke="#000" stroke-width="2" pointer-events="none">SLAB-001</text>
<polygon class="slab-poly" data-slab-id="SLAB-002" points="1097.84,244.84 1097.84,47.12 1278.57,47.12 1278.57,244.84 1097.84,244.84" fill="#2196F3" fill-opacity="0.45" stroke="#2196F3" stroke-width="1.5"/>
<text x="1188.2" y="146.0" fill="#fff" font-size="9" text-anchor="middle" dominant-baseline="middle" font-family="Segoe UI, sans-serif" paint-order="stroke" stroke="#000" stroke-width="2" pointer-events="none">SLAB-002</text>
<polygon class="slab-poly" data-slab-id="SLAB-003" points="727.45,244.84 727.45,47.12 1077.35,47.12 1077.35,244.84 727.45,244.84" fill="#FF9800" fill-opacity="0.45" stroke="#FF9800" stroke-width="1.5"/>
<text x="902.4" y="146.0" fill="#fff" font-size="9" text-anchor="middle" dominant-baseline="middle" font-family="Segoe UI, sans-serif" paint-order="stroke" stroke="#000" stroke-width="2" pointer-events="none">SLAB-003</text>
<polygon class="slab-poly" data-slab-id="SLAB-004" points="340.91,244.84 340.91,47.12 706.96,47.12 706.96,244.84 340.91,244.84" fill="#FF9800" fill-opacity="0.45" stroke="#FF9800" stroke-width="1.5"/>
<text x="523.9" y="146.0" fill="#fff" font-size="9" text-anchor="middle" dominant-baseline="middle" font-family="Segoe UI, sans-serif" paint-order="stroke" stroke="#000" stroke-width="2" pointer-events="none">SLAB-004</text>
<polygon class="slab-poly" data-slab-id="SLAB-005" points="113.82,244.84 113.82,47.12 346.69,47.12 346.69,244.84 113.82,244.84" fill="#FF9800" fill-opacity="0.45" stroke="#FF9800" stroke-width="1.5"/>
<text x="230.3" y="146.0" fill="#fff" font-size="9" text-anchor="middle" dominant-baseline="middle" font-family="Segoe UI, sans-serif" paint-order="stroke" stroke="#000" stroke-width="2" pointer-events="none">SLAB-005</text>
<polygon class="slab-poly" data-slab-id="SLAB-006" points="47.09,244.84 47.09,47.12 119.60,47.12 119.60,244.84 47.09,244.84" fill="#2196F3" fill-opacity="0.45" stroke="#2196F3" stroke-width="1.5"/>
<text x="83.3" y="146.0" fill="#fff" font-size="9" text-anchor="middle" dominant-baseline="middle" font-family="Segoe UI, sans-serif" paint-order="stroke" stroke="#000" stroke-width="2" pointer-events="none">SLAB-006</text>
<polygon class="slab-poly" data-slab-id="SLAB-007" points="1272.79,239.06 1616.91,239.06 1616.91,481.13 1272.79,481.13 1272.79,239.06" fill="#2196F3" fill-opacity="0.45" stroke="#2196F3" stroke-width="1.5"/>
<text x="1444.8" y="360.1" fill="#fff" font-size="9" text-anchor="middle" dominant-baseline="middle" font-family="Segoe UI, sans-serif" paint-order="stroke" stroke="#000" stroke-width="2" pointer-events="none">SLAB-007</text>
<polygon class="slab-poly" data-slab-id="SLAB-008" points="1097.84,239.06 1278.57,239.06 1278.57,481.13 1097.84,481.13 1097.84,239.06" fill="#2196F3" fill-opacity="0.45" stroke="#2196F3" stroke-width="1.5"/>
<text x="1188.2" y="360.1" fill="#fff" font-size="9" text-anchor="middle" dominant-baseline="middle" font-family="Segoe UI, sans-serif" paint-order="stroke" stroke="#000" stroke-width="2" pointer-events="none">SLAB-008</text>
<polygon class="slab-poly" data-slab-id="SLAB-009" points="727.45,239.06 1077.35,239.06 1077.35,481.13 727.45,481.13 727.45,239.06" fill="#FF9800" fill-opacity="0.45" stroke="#FF9800" stroke-width="1.5"/>
<text x="902.4" y="360.1" fill="#fff" font-size="9" text-anchor="middle" dominant-baseline="middle" font-family="Segoe UI, sans-serif" paint-order="stroke" stroke="#000" stroke-width="2" pointer-events="none">SLAB-009</text>
<polygon class="slab-poly" data-slab-id="SLAB-010" points="340.91,239.06 706.96,239.06 706.96,481.13 349.97,481.13 342.25,481.51 340.91,481.71 340.91,239.06" fill="#FF9800" fill-opacity="0.45" stroke="#FF9800" stroke-width="1.5"/>
<text x="523.9" y="360.1" fill="#fff" font-size="9" text-anchor="middle" dominant-baseline="middle" font-family="Segoe UI, sans-serif" paint-order="stroke" stroke="#000" stroke-width="2" pointer-events="none">SLAB-010</text>
<polygon class="slab-poly" data-slab-id="SLAB-011" points="113.82,239.06 346.69,239.06 346.69,481.29 342.25,481.51 334.60,482.65 327.10,484.53 319.82,487.13 312.83,490.44 306.19,494.42 299.98,499.03 294.25,504.23 289.06,509.96 284.45,516.17 280.47,522.81 277.17,529.81 274.56,537.09 272.68,544.60 271.55,552.25 271.54,552.37 148.27,552.37 149.06,550.70 151.67,543.42 153.54,535.91 154.68,528.26 155.06,520.53 155.06,404.88 154.68,397.15 153.54,389.50 151.67,381.99 149.06,374.71 145.75,367.71 141.78,361.07 137.17,354.86 131.98,349.13 126.25,343.93 120.03,339.32 113.82,335.59 113.82,239.06" fill="#FF9800" fill-opacity="0.45" stroke="#FF9800" stroke-width="1.5"/>
<text x="237.4" y="379.8" fill="#fff" font-size="9" text-anchor="middle" dominant-baseline="middle" font-family="Segoe UI, sans-serif" paint-order="stroke" stroke="#000" stroke-width="2" pointer-events="none">SLAB-011</text>
<polygon class="slab-poly" data-slab-id="SLAB-012" points="271.17,639.70 271.17,762.63 155.06,762.63 155.06,649.35 154.68,641.62 154.39,639.70 271.17,639.70" fill="#2196F3" fill-opacity="0.45" stroke="#2196F3" stroke-width="1.5"/>
<text x="213.1" y="701.2" fill="#fff" font-size="9" text-anchor="middle" dominant-baseline="middle" font-family="Segoe UI, sans-serif" paint-order="stroke" stroke="#000" stroke-width="2" pointer-events="none">SLAB-012</text>
<polygon class="slab-poly" data-slab-id="SLAB-013" points="294.32,922.96 294.32,986.31 291.65,985.36 284.15,983.48 276.50,982.34 268.77,981.96 188.98,981.96 181.25,982.34 173.60,983.48 166.10,985.36 158.82,987.96 151.83,991.27 145.20,995.25 138.98,999.86 138.19,1000.58 139.06,998.15 140.94,990.65 142.07,982.99 142.45,975.26 142.45,922.96 294.32,922.96" fill="#2196F3" fill-opacity="0.45" stroke="#2196F3" stroke-width="1.5"/>
<text x="216.8" y="953.6" fill="#fff" font-size="9" text-anchor="middle" dominant-baseline="middle" font-family="Segoe UI, sans-serif" paint-order="stroke" stroke="#000" stroke-width="2" pointer-events="none">SLAB-013</text>
<polygon class="slab-poly" data-slab-id="SLAB-014" points="294.32,1512.58 78.39,1512.58 78.39,1360.45 186.74,1360.45 194.47,1360.07 202.12,1358.94 209.62,1357.06 216.90,1354.45 223.89,1351.14 230.53,1347.16 236.74,1342.55 242.47,1337.36 247.66,1331.62 252.27,1325.41 256.24,1318.77 259.55,1311.78 262.16,1304.49 264.03,1296.98 265.17,1289.33 265.55,1281.60 265.55,1268.04 268.77,1268.04 276.50,1267.66 284.15,1266.53 291.65,1264.65 294.32,1263.69 294.32,1512.58" fill="#2196F3" fill-opacity="0.45" stroke="#2196F3" stroke-width="1.5"/>
<text x="195.4" y="1424.1" fill="#fff" font-size="9" text-anchor="middle" dominant-baseline="middle" font-family="Segoe UI, sans-serif" paint-order="stroke" stroke="#000" stroke-width="2" pointer-events="none">SLAB-014</text>
<polygon class="slab-poly" data-slab-id="SLAB-015" points="294.32,1281.27 294.32,1552.88 78.39,1552.88 78.39,1360.45 186.74,1360.45 194.47,1360.07 202.12,1358.94 209.62,1357.06 216.90,1354.45 223.89,1351.14 230.53,1347.16 236.74,1342.55 242.47,1337.36 247.66,1331.62 252.27,1325.41 256.24,1318.77 259.55,1311.78 262.16,1304.49 264.03,1296.98 265.17,1289.33 265.55,1281.60 265.55,1281.27 294.32,1281.27" fill="#2196F3" fill-opacity="0.45" stroke="#2196F3" stroke-width="1.5"/>
<text x="192.9" y="1446.4" fill="#fff" font-size="9" text-anchor="middle" dominant-baseline="middle" font-family="Segoe UI, sans-serif" paint-order="stroke" stroke="#000" stroke-width="2" pointer-events="none">SLAB-015</text>
</svg>