<svg xmlns="http://www.w3.org/2000/svg" width="1964" height="1600" viewBox="0 0 1964 1600">
<rect width="100%" height="100%" fill="#121212"/>
<polygon points="130.68,1658.03 130.68,1664.82 -38.36,1664.82 -38.36,1658.03 130.68,1658.03" fill="#FF9800" fill-opacity="0.12" stroke="#FFB74D" stroke-width="0.6"/>
<polygon points="331.88,1664.82 198.61,1664.82 198.61,1658.03 331.88,1658.03 331.88,1664.82" fill="#FF9800" fill-opacity="0.12" stroke="#FFB74D" stroke-width="0.6"/>
<polygon points="130.68,1646.14 130.68,1652.93 -38.36,1652.93 -38.36,1646.14 130.68,1646.14" fill="#FF9800" fill-opacity="0.12" stroke="#FFB74D" stroke-width="0.6"/>
<polygon points="510.76,1646.14 510.76,1652.93 399.81,1652.93 399.81,1646.14 510.76,1646.14" fill="#FF9800" fill-opacity="0.12" stroke="#FFB74D" stroke-width="0.6"/>
<polygon points="198.61,1652.93 198.61,1646.14 331.88,1646.14 331.88,1652.93 198.61,1652.93" fill="#FF9800" fill-opacity="0.12" stroke="#FFB74D" stroke-width="0.6"/>
<polygon points="-54.86,1552.77 -49.23,1649.38 -56.01,1649.77 -61.85,1549.57 -58.46,1549.38 -58.46,1545.98 159.55,1545.98 159.55,1549.38 162.95,1549.38 162.95,1649.57 156.15,1649.57 156.15,1552.77 -54.86,1552.77" fill="#FF9800" fill-opacity="0.12" stroke="#FFB74D" stroke-width="0.6"/>
<polygon points="174.83,1549.38 174.83,1545.98 360.75,1545.98 360.75,1549.38 364.15,1549.38 364.15,1649.57 357.36,1649.57 357.36,1552.77 178.23,1552.77 178.23,1649.57 171.44,1649.57 171.44,1549.38 174.83,1549.38" fill="#FF9800" fill-opacity="0.12" stroke="#FFB74D" stroke-width="0.6"/>
<polygon points="-72.30,1370.40 -68.91,1370.20 -68.91,1366.81 -45.93,1366.81 -45.93,1370.20 -42.53,1370.20 -42.53,1537.49 -45.93,1537.49 -45.93,1540.89 -59.15,1540.89 -59.15,1537.49 -62.55,1537.69 -72.30,1370.40" fill="#FF9800" fill-opacity="0.12" stroke="#FFB74D" stroke-width="0.6"/>
<polygon points="162.95,1537.49 159.55,1537.49 159.55,1540.89 -34.04,1540.89 -34.04,1537.49 -37.44,1537.49 -37.44,1370.20 -34.04,1370.20 -34.04,1366.81 118.79,1366.81 118.79,1373.60 -30.65,1373.60 -30.65,1534.09 156.15,1534.09 156.15,1377.85 162.95,1377.85 162.95,1537.49" fill="#FF9800" fill-opacity="0.12" stroke="#FFB74D" stroke-width="0.6"/>
<polygon points="-80.22,1234.80 -76.83,1234.60 -76.83,1231.21 -45.93,1231.21 -45.93,1234.60 -42.53,1234.60 -42.53,1354.92 -45.93,1354.92 -45.93,1358.32 -69.81,1358.32 -69.81,1354.92 -73.20,1355.12 -80.22,1234.80" fill="#FF9800" fill-opacity="0.12" stroke="#FFB74D" stroke-width="0.6"/>
<polygon points="45.28,1245.05 45.28,1351.52 118.79,1351.52 118.79,1358.32 -34.04,1358.32 -34.04,1354.92 -37.44,1354.92 -37.44,1234.60 -34.53,1234.60 -34.53,1231.21 118.31,1231.21 118.31,1238.00 47.46,1238.00 56.81,1245.89 52.43,1251.08 45.28,1245.05" fill="#FF9800" fill-opacity="0.12" stroke="#FFB74D" stroke-width="0.6"/>
<polygon points="268.09,1279.43 268.09,1241.14 274.88,1241.14 274.88,1279.43 268.09,1279.43" fill="#FF9800" fill-opacity="0.12" stroke="#FFB74D" stroke-width="0.6"/>
<polygon points="261.29,1241.14 261.29,1279.43 254.50,1279.43 254.50,1241.14 261.29,1241.14" fill="#FF9800" fill-opacity="0.12" stroke="#FFB74D" stroke-width="0.6"/>
<polygon points="373.37,1196.98 373.37,1227.55 366.58,1227.55 366.58,1196.98 373.37,1196.98" fill="#FF9800" fill-opacity="0.12" stroke="#FFB74D" stroke-width="0.6"/>
<polygon points="383.56,1196.98 390.35,1196.98 390.35,1227.55 383.56,1227.55 383.56,1196.98" fill="#FF9800" fill-opacity="0.12" stroke="#FFB74D" stroke-width="0.6"/>
<polygon points="132.38,1118.86 139.17,1118.86 139.17,1230.95 132.38,1230.95 132.38,1118.86" fill="#FF9800" fill-opacity="0.12" stroke="#FFB74D" stroke-width="0.6"/>
<polygon points="-77.72,1219.32 -81.11,1219.52 -87.15,1115.92 -83.76,1115.72 -83.76,1112.33 -45.93,1112.33 -45.93,1115.72 -42.53,1115.72 -42.53,1219.32 -45.93,1219.32 -45.93,1222.71 -77.72,1222.71 -77.72,1219.32" fill="#FF9800" fill-opacity="0.12" stroke="#FFB74D" stroke-width="0.6"/>
<polygon points="474.73,1098.48 474.73,1105.28 383.56,1105.28 383.56,1098.48 474.73,1098.48" fill="#FF9800" fill-opacity="0.12" stroke="#FFB74D" stroke-width="0.6"/>
<polygon points="369.98,1105.28 312.39,1105.28 312.39,1098.48 369.98,1098.48 369.98,1105.28" fill="#FF9800" fill-opacity="0.12" stroke="#FFB74D" stroke-width="0.6"/>
<polygon points="383.56,1020.36 383.56,1088.29 383.56,1084.90 474.73,1084.90 474.73,1091.69 383.56,1091.69 383.56,1088.29 376.77,1088.29 376.77,1020.36 383.56,1020.36" fill="#FF9800" fill-opacity="0.12" stroke="#FFB74D" stroke-width="0.6"/>
<polygon points="308.99,1088.29 308.99,1020.36 315.78,1020.36 315.78,1084.90 366.58,1084.90 366.58,1020.36 373.37,1020.36 373.37,1088.29 369.98,1088.29 369.98,1091.69 312.39,1091.69 312.39,1088.29 308.99,1088.29" fill="#FF9800" fill-opacity="0.12" stroke="#FFB74D" stroke-width="0.6"/>
<polygon points="302.20,1020.35 302.54,1088.28 295.74,1088.31 295.40,1020.38 302.20,1020.35" fill="#FF9800" fill-opacity="0.12" stroke="#FFB74D" stroke-width="0.6"/>
<polygon points="-88.04,1100.64 -94.09,997.04 -90.70,996.85 -90.70,993.45 -45.93,993.45 -45.93,996.85 -42.53,996.85 -42.53,1100.44 -45.93,1100.44 -45.93,1103.84 -84.65,1103.84 -84.65,1100.44 -88.04,1100.64" fill="#FF9800" fill-opacity="0.12" stroke="#FFB74D" stroke-width="0.6"/>
<polygon points="448.24,962.62 448.24,1006.78 441.45,1006.78 441.45,966.02 319.18,966.02 319.18,959.23 444.84,959.23 444.84,962.62 448.24,962.62" fill="#FF9800" fill-opacity="0.12" stroke="#FFB74D" stroke-width="0.6"/>
<polygon points="135.78,966.02 135.78,959.23 302.20,959.23 302.20,966.02 135.78,966.02" fill="#FF9800" fill-opacity="0.12" stroke="#FFB74D" stroke-width="0.6"/>
<polygon points="135.78,949.04 135.78,942.24 302.20,942.24 302.20,949.04 135.78,949.04" fill="#FF9800" fill-opacity="0.12" stroke="#FFB74D" stroke-width="0.6"/>
<polygon points="319.18,942.24 541.64,942.24 541.64,949.04 319.18,949.04 319.18,942.24" fill="#FF9800" fill-opacity="0.12" stroke="#FFB74D" stroke-width="0.6"/>
<polygon points="-37.44,996.85 -34.53,996.85 -34.53,993.45 38.49,993.45 38.49,984.96 -34.53,984.96 -34.53,981.56 -37.44,981.56 -37.44,877.97 -34.53,877.97 -34.53,874.57 38.49,874.57 38.49,866.08 -34.53,866.08 -34.53,862.68 -37.44,862.68 -37.44,759.09 -34.53,759.09 -34.53,755.69 38.49,755.69 38.49,747.20 -34.53,747.20 -34.53,743.81 -37.44,743.81 -37.44,648.45 -34.53,648.45 -34.53,645.05 118.79,645.05 118.79,648.45 122.19,648.45 122.19,728.26 115.40,728.26 115.40,651.84 -30.65,651.84 -30.65,740.41 38.49,740.41 38.49,688.02 31.34,694.06 26.96,688.86 39.70,678.12 41.89,680.71 44.08,678.12 56.81,688.86 52.43,694.06 45.28,688.02 45.28,740.41 118.79,740.41 118.79,747.20 45.28,747.20 45.28,755.69 118.31,755.69 118.31,762.49 45.28,762.49 45.28,859.29 118.79,859.29 118.79,866.08 45.28,866.08 45.28,874.57 118.31,874.57 118.31,881.36 45.28,881.36 45.28,978.17 118.79,978.17 118.79,984.96 45.28,984.96 45.28,993.45 118.31,993.45 118.31,1000.24 45.28,1000.24 45.28,1097.04 118.79,1097.04 118.79,1103.84 45.28,1103.84 45.28,1112.33 118.31,1112.33 118.31,1118.86 119.64,1118.86 119.64,1219.32 118.79,1219.32 118.79,1222.71 -34.53,1222.71 -34.53,1219.32 -37.44,1219.32 -37.44,1115.72 -34.53,1115.72 -34.53,1112.33 38.49,1112.33 38.49,1103.84 -34.53,1103.84 -34.53,1100.44 -37.44,1100.44 -37.44,996.85" fill="#FF9800" fill-opacity="0.12" stroke="#FFB74D" stroke-width="0.6"/>
<polygon points="-101.02,878.17 -97.63,877.97 -97.63,874.57 -45.93,874.57 -45.93,877.97 -42.53,877.97 -42.53,981.56 -45.93,981.56 -45.93,984.96 -91.59,984.96 -91.59,981.56 -94.98,981.76 -101.02,878.17" fill="#FF9800" fill-opacity="0.12" stroke="#FFB74D" stroke-width="0.6"/>
<polygon points="-45.93,862.68 -45.93,866.08 -98.52,866.08 -98.52,862.68 -101.91,862.88 -107.96,759.29 -104.57,759.09 -104.57,755.69 -45.93,755.69 -45.93,759.09 -42.53,759.09 -42.53,862.68 -45.93,862.68" fill="#FF9800" fill-opacity="0.12" stroke="#FFB74D" stroke-width="0.6"/>
<polygon points="54.04,-212.66 57.44,-212.66 57.59,-216.05 261.45,-206.80 261.15,-200.02 60.84,-209.11 60.84,-186.37 278.28,-171.42 278.28,-200.82 281.68,-200.82 282.41,-204.14 497.44,-156.35 543.92,-153.16 543.45,-146.38 511.15,-148.60 510.67,-146.46 496.47,-149.61 285.07,-164.14 285.07,42.17 278.28,42.17 278.28,-164.61 60.84,-179.56 60.84,42.17 54.04,42.17 54.04,-180.03 40.46,-180.96 40.46,42.17 33.66,42.17 33.66,-181.43 -111.64,-191.41 -156.32,-186.28 -130.41,257.85 42.17,257.85 42.17,264.64 -130.01,264.64 -128.92,283.32 42.17,283.32 42.17,286.68 45.57,286.68 45.57,398.80 42.17,398.80 42.17,402.20 -121.99,402.20 -120.90,420.88 118.79,420.88 118.79,424.28 122.19,424.28 122.19,633.16 118.79,633.16 118.79,636.56 -111.91,636.56 -111.91,633.16 -115.30,633.36 -163.29,-189.09 -159.89,-189.28 -160.28,-192.66 -148.85,-193.97 -168.75,-195.34 -60.44,1661.22 -67.22,1661.62 -175.76,-198.80 -172.37,-198.99 -172.14,-202.38 -111.80,-198.23 36.67,-215.31 37.06,-211.93 40.46,-211.93 40.46,-187.77 54.04,-186.83 54.04,-212.66" fill="#FF9800" fill-opacity="0.12" stroke="#FFB74D" stroke-width="0.6"/>
<polygon points="-45.93,747.20 -105.46,747.20 -105.46,743.81 -108.85,744.00 -114.41,648.64 -111.02,648.45 -111.02,645.05 -45.93,645.05 -45.93,648.45 -42.53,648.45 -42.53,743.81 -45.93,743.81 -45.93,747.20" fill="#FF9800" fill-opacity="0.12" stroke="#FFB74D" stroke-width="0.6"/>
<polygon points="302.20,651.84 179.91,651.84 179.91,651.84 161.93,651.84 161.93,651.84 139.17,651.84 139.17,728.26 132.38,728.26 132.38,648.45 135.78,648.45 135.78,645.05 302.20,645.05 302.20,651.84" fill="#FF9800" fill-opacity="0.12" stroke="#FFB74D" stroke-width="0.6"/>
<polygon points="541.64,645.05 541.64,651.84 319.18,651.84 319.18,645.05 541.64,645.05" fill="#FF9800" fill-opacity="0.12" stroke="#FFB74D" stroke-width="0.6"/>
<polygon points="541.64,636.56 319.18,636.56 319.18,629.84 313.86,630.88 273.53,424.89 276.87,424.24 276.87,420.88 522.79,420.88 522.79,424.28 526.17,423.97 545.06,633.62 541.64,633.93 541.64,636.56" fill="#FF9800" fill-opacity="0.12" stroke="#FFB74D" stroke-width="0.6"/>
<polygon points="135.78,424.28 135.78,420.88 261.30,420.88 261.30,424.28 264.63,423.63 305.53,632.51 302.20,633.16 302.20,636.56 135.78,636.56 135.78,633.16 132.38,633.16 132.38,424.28 135.78,424.28" fill="#FF9800" fill-opacity="0.12" stroke="#FFB74D" stroke-width="0.6"/>
<polygon points="523.67,412.39 276.58,412.39 276.58,408.99 273.19,408.99 273.19,276.53 276.58,276.53 276.58,273.13 523.67,273.13 523.67,276.53 527.06,276.53 527.06,408.99 523.67,408.99 523.67,412.39" fill="#FF9800" fill-opacity="0.12" stroke="#FFB74D" stroke-width="0.6"/>
<polygon points="54.06,398.76 54.06,286.68 57.45,286.68 57.45,283.32 271.49,283.32 271.49,290.12 264.70,290.12 264.70,395.41 271.49,395.41 271.49,402.20 57.44,402.20 57.44,398.76 54.06,398.76" fill="#FF9800" fill-opacity="0.12" stroke="#FFB74D" stroke-width="0.6"/>
<polygon points="462.17,257.85 462.17,264.64 276.58,264.64 276.58,257.85 462.17,257.85" fill="#FF9800" fill-opacity="0.12" stroke="#FFB74D" stroke-width="0.6"/>
<polygon points="271.49,257.85 271.49,264.64 57.44,264.64 57.44,257.85 271.49,257.85" fill="#FF9800" fill-opacity="0.12" stroke="#FFB74D" stroke-width="0.6"/>
<polygon points="802.75,1772.23 801.35,1772.92 801.35,1778.76 794.56,1778.76 794.56,1776.01 768.95,1776.01 768.95,1786.20 765.55,1786.20 765.55,1789.60 750.27,1789.60 750.27,1786.20 746.87,1786.20 746.87,1776.01 721.27,1776.01 721.27,1778.76 714.47,1778.76 714.47,1772.92 713.07,1772.23 714.58,1769.18 714.58,1767.95 714.47,1767.95 714.47,1759.99 721.27,1759.99 721.27,1762.43 794.56,1762.43 794.56,1759.99 801.35,1759.99 801.35,1767.95 801.25,1767.95 801.25,1769.18 802.75,1772.23" fill="#FF9800" fill-opacity="0.12" stroke="#FFB74D" stroke-width="0.6"/>
<polygon points="841.69,1772.73 840.29,1773.42 840.29,1779.25 833.49,1779.25 833.49,1771.30 833.60,1771.30 833.60,1769.68 832.41,1766.50 833.49,1766.09 833.49,1760.48 840.29,1760.48 840.29,1768.45 840.18,1768.45 840.18,1769.68 841.69,1772.73" fill="#FF9800" fill-opacity="0.12" stroke="#FFB74D" stroke-width="0.6"/>
<polygon points="510.76,1658.03 510.76,1664.82 399.81,1664.82 399.81,1658.03 510.76,1658.03" fill="#FF9800" fill-opacity="0.12" stroke="#FFB74D" stroke-width="0.6"/>
<polygon points="848.39,1664.82 748.51,1664.82 748.51,1658.03 848.39,1658.03 848.39,1664.82" fill="#FF9800" fill-opacity="0.12" stroke="#FFB74D" stroke-width="0.6"/>
<polygon points="578.69,1664.82 578.69,1658.03 680.58,1658.03 680.58,1664.82 578.69,1664.82" fill="#FF9800" fill-opacity="0.12" stroke="#FFB74D" stroke-width="0.6"/>
<polygon points="748.51,1646.14 848.39,1646.14 848.39,1652.93 748.51,1652.93 748.51,1646.14" fill="#FF9800" fill-opacity="0.12" stroke="#FFB74D" stroke-width="0.6"/>
<polygon points="578.69,1652.93 578.69,1646.14 680.58,1646.14 680.58,1652.93 578.69,1652.93" fill="#FF9800" fill-opacity="0.12" stroke="#FFB74D" stroke-width="0.6"/>
<polygon points="372.64,1649.57 372.64,1549.38 376.04,1549.38 376.04,1545.98 539.63,1545.98 539.63,1549.38 543.03,1549.38 543.03,1649.57 536.24,1649.57 536.24,1552.77 379.43,1552.77 379.43,1649.57 372.64,1649.57" fill="#FF9800" fill-opacity="0.12" stroke="#FFB74D" stroke-width="0.6"/>
<polygon points="551.52,1649.57 551.52,1549.38 554.92,1549.38 554.92,1545.98 709.45,1545.98 709.45,1549.38 712.85,1549.38 712.85,1649.57 706.05,1649.57 706.05,1552.77 558.31,1552.77 558.31,1649.57 551.52,1649.57" fill="#FF9800" fill-opacity="0.12" stroke="#FFB74D" stroke-width="0.6"/>
<polygon points="903.35,1645.38 896.56,1645.38 896.56,1552.77 728.13,1552.77 728.13,1649.57 721.34,1649.57 721.34,1549.38 724.73,1549.38 724.73,1545.98 899.95,1545.98 899.95,1549.38 903.35,1549.38 903.35,1645.38" fill="#FF9800" fill-opacity="0.12" stroke="#FFB74D" stroke-width="0.6"/>
<polygon points="372.64,1457.95 372.64,1377.85 379.43,1377.85 379.43,1457.95 501.32,1457.95 501.32,1464.74 379.43,1464.74 379.43,1534.09 536.24,1534.09 536.24,1471.13 529.95,1463.68 532.55,1461.49 529.95,1459.30 536.24,1451.85 536.24,1377.85 543.03,1377.85 543.03,1448.54 545.89,1450.95 543.03,1454.33 543.03,1457.95 551.52,1457.95 551.52,1377.85 558.31,1377.85 558.31,1457.95 706.05,1457.95 706.05,1377.85 712.85,1377.85 712.85,1457.95 721.34,1457.95 721.34,1377.85 728.13,1377.85 728.13,1457.95 896.56,1457.95 896.56,1377.85 903.35,1377.85 903.35,1457.95 911.84,1457.95 911.84,1377.85 915.24,1377.85 915.24,1374.46 1125.81,1374.46 1125.81,1377.85 1129.21,1377.85 1129.21,1537.49 1125.81,1537.49 1125.81,1540.89 915.24,1540.89 915.24,1537.49 911.84,1537.49 911.84,1464.74 903.35,1464.74 903.35,1537.49 899.95,1537.49 899.95,1540.89 724.73,1540.89 724.73,1537.49 721.34,1537.49 721.34,1464.74 712.85,1464.74 712.85,1537.49 709.45,1537.49 709.45,1540.89 554.92,1540.89 554.92,1537.49 551.52,1537.49 551.52,1464.74 543.03,1464.74 543.03,1468.65 545.89,1472.04 543.03,1474.45 543.03,1537.49 539.63,1537.49 539.63,1540.89 376.04,1540.89 376.04,1537.49 372.64,1537.49 372.64,1464.74 364.15,1464.74 364.15,1537.49 360.75,1537.49 360.75,1540.89 174.83,1540.89 174.83,1537.49 171.44,1537.49 171.44,1377.85 178.23,1377.85 178.23,1451.30 182.23,1446.57 187.42,1450.95 181.51,1457.95 357.36,1457.95 357.36,1377.85 364.15,1377.85 364.15,1457.95 372.64,1457.95" fill="#FF9800" fill-opacity="0.12" stroke="#FFB74D" stroke-width="0.6"/>
<polygon points="538.24,1313.32 538.24,1320.11 470.66,1320.11 470.66,1313.32 538.24,1313.32" fill="#FF9800" fill-opacity="0.12" stroke="#FFB74D" stroke-width="0.6"/>
<polygon points="496.13,1303.13 496.13,1309.92 474.05,1309.92 474.05,1303.13 496.13,1303.13" fill="#FF9800" fill-opacity="0.12" stroke="#FFB74D" stroke-width="0.6"/>
<polygon points="881.27,1265.77 840.52,1265.77 840.52,1258.98 881.27,1258.98 881.27,1265.77" fill="#FF9800" fill-opacity="0.12" stroke="#FFB74D" stroke-width="0.6"/>
<polygon points="840.52,1248.79 881.27,1248.79 881.27,1255.58 840.52,1255.58 840.52,1248.79" fill="#FF9800" fill-opacity="0.12" stroke="#FFB74D" stroke-width="0.6"/>
<polygon points="806.55,1196.98 813.35,1196.98 813.35,1252.18 806.55,1252.18 806.55,1196.98" fill="#FF9800" fill-opacity="0.12" stroke="#FFB74D" stroke-width="0.6"/>
<polygon points="816.74,1196.98 823.54,1196.98 823.54,1252.18 816.74,1252.18 816.74,1196.98" fill="#FF9800" fill-opacity="0.12" stroke="#FFB74D" stroke-width="0.6"/>
<polygon points="813.35,1101.88 813.35,1184.16 806.55,1184.16 806.55,1101.88 813.35,1101.88" fill="#FF9800" fill-opacity="0.12" stroke="#FFB74D" stroke-width="0.6"/>
<polygon points="816.74,1101.88 823.54,1101.88 823.54,1184.16 816.74,1184.16 816.74,1101.88" fill="#FF9800" fill-opacity="0.12" stroke="#FFB74D" stroke-width="0.6"/>
<polygon points="694.81,1098.48 694.81,1105.28 598.70,1105.28 598.70,1098.48 694.81,1098.48" fill="#FF9800" fill-opacity="0.12" stroke="#FFB74D" stroke-width="0.6"/>
<polygon points="585.11,1098.48 585.11,1105.28 488.32,1105.28 488.32,1098.48 585.11,1098.48" fill="#FF9800" fill-opacity="0.12" stroke="#FFB74D" stroke-width="0.6"/>
<polygon points="585.11,1084.90 585.11,1091.69 488.32,1091.69 488.32,1084.90 585.11,1084.90" fill="#FF9800" fill-opacity="0.12" stroke="#FFB74D" stroke-width="0.6"/>
<polygon points="695.49,1091.69 598.70,1091.69 598.70,1084.90 695.49,1084.90 695.49,1091.69" fill="#FF9800" fill-opacity="0.12" stroke="#FFB74D" stroke-width="0.6"/>
<polygon points="794.67,1010.18 794.67,979.27 798.06,979.27 798.06,975.87 810.63,975.87 810.63,982.66 801.46,982.66 801.46,1010.18 794.67,1010.18" fill="#FF9800" fill-opacity="0.12" stroke="#FFB74D" stroke-width="0.6"/>
<polygon points="458.43,962.62 461.83,962.62 461.83,959.23 712.14,959.23 712.14,966.02 465.22,966.02 465.22,1006.78 458.43,1006.78 458.43,962.62" fill="#FF9800" fill-opacity="0.12" stroke="#FFB74D" stroke-width="0.6"/>
<polygon points="791.27,1010.18 784.48,1010.18 784.48,923.22 791.27,923.22 791.27,1010.18" fill="#FF9800" fill-opacity="0.12" stroke="#FFB74D" stroke-width="0.6"/>
<polygon points="712.14,949.04 712.14,955.83 665.61,955.83 665.61,949.04 712.14,949.04" fill="#FF9800" fill-opacity="0.12" stroke="#FFB74D" stroke-width="0.6"/>
<polygon points="810.63,965.68 810.63,972.47 798.06,972.47 798.06,969.08 794.67,969.08 794.67,923.22 801.46,923.22 801.46,965.68 810.63,965.68" fill="#FF9800" fill-opacity="0.12" stroke="#FFB74D" stroke-width="0.6"/>
<polygon points="655.42,949.04 558.62,949.04 558.62,942.24 655.42,942.24 655.42,949.04" fill="#FF9800" fill-opacity="0.12" stroke="#FFB74D" stroke-width="0.6"/>
<polygon points="725.72,919.83 725.72,913.04 781.08,913.04 781.08,919.83 781.08,926.62 725.72,926.62 725.72,919.83" fill="#FF9800" fill-opacity="0.12" stroke="#FFB74D" stroke-width="0.6"/>
<polygon points="798.06,882.81 798.06,876.01 849.01,876.01 849.01,882.81 798.06,882.81" fill="#FF9800" fill-opacity="0.12" stroke="#FFB74D" stroke-width="0.6"/>
<polygon points="558.62,877.71 558.62,870.92 653.72,870.92 653.72,877.71 558.62,877.71" fill="#FF9800" fill-opacity="0.12" stroke="#FFB74D" stroke-width="0.6"/>
<polygon points="798.06,869.22 798.06,862.43 849.01,862.43 849.01,869.22 798.06,869.22" fill="#FF9800" fill-opacity="0.12" stroke="#FFB74D" stroke-width="0.6"/>
<polygon points="558.62,853.94 653.72,853.94 653.72,860.73 558.62,860.73 558.62,853.94" fill="#FF9800" fill-opacity="0.12" stroke="#FFB74D" stroke-width="0.6"/>
<polygon points="901.65,645.05 901.65,651.84 798.06,651.84 798.06,645.05 901.65,645.05" fill="#FF9800" fill-opacity="0.12" stroke="#FFB74D" stroke-width="0.6"/>
<polygon points="558.62,651.84 558.62,645.05 781.08,645.05 781.08,651.84 558.62,651.84" fill="#FF9800" fill-opacity="0.12" stroke="#FFB74D" stroke-width="0.6"/>
<polygon points="798.06,636.56 798.06,629.77 895.84,629.77 833.28,427.67 543.55,427.67 561.76,629.77 781.08,629.77 781.08,636.56 558.62,636.56 558.62,632.40 555.20,632.71 536.45,424.54 539.84,424.24 539.84,420.88 835.79,420.88 835.79,424.28 839.03,423.27 904.39,634.42 900.73,635.55 900.73,636.56 798.06,636.56" fill="#FF9800" fill-opacity="0.12" stroke="#FFB74D" stroke-width="0.6"/>
<polygon points="1101.05,273.13 1101.05,276.53 1104.44,276.53 1104.44,408.99 1101.05,408.99 1101.05,412.39 851.41,412.39 851.41,408.99 848.02,408.99 848.02,407.30 838.66,407.30 838.66,403.90 836.13,403.90 836.13,407.30 541.50,407.30 541.50,403.90 535.55,403.90 535.55,281.62 538.95,281.62 538.95,278.23 836.13,278.23 836.13,281.62 839.53,281.62 839.53,400.50 848.02,400.50 848.02,276.53 851.41,276.53 851.41,273.13 1101.05,273.13" fill="#FF9800" fill-opacity="0.12" stroke="#FFB74D" stroke-width="0.6"/>
<polygon points="836.13,257.85 836.13,264.64 720.29,264.64 720.29,257.85 836.13,257.85" fill="#FF9800" fill-opacity="0.12" stroke="#FFB74D" stroke-width="0.6"/>
<polygon points="705.01,257.85 705.01,264.64 477.45,264.64 477.45,257.85 705.01,257.85" fill="#FF9800" fill-opacity="0.12" stroke="#FFB74D" stroke-width="0.6"/>
<polygon points="874.20,1783.30 874.20,1786.69 857.22,1786.69 857.22,1783.30 853.82,1783.30 853.82,1773.11 860.61,1773.11 860.61,1779.90 870.80,1779.90 870.80,1773.11 877.59,1773.11 877.59,1783.30 874.20,1783.30" fill="#FF9800" fill-opacity="0.12" stroke="#FFB74D" stroke-width="0.6"/>
<polygon points="998.30,1760.48 998.30,1768.45 998.19,1768.45 998.19,1769.68 999.70,1772.73 998.30,1773.42 998.30,1781.80 991.50,1781.80 991.50,1779.06 965.90,1779.06 965.90,1783.30 962.50,1783.30 962.50,1786.70 945.52,1786.70 945.52,1783.30 942.12,1783.30 942.12,1773.11 948.92,1773.11 948.92,1779.91 959.11,1779.91 959.11,1775.66 962.50,1775.66 962.50,1772.27 991.50,1772.27 991.50,1771.30 991.61,1771.30 991.61,1769.72 945.52,1769.72 945.52,1762.93 991.50,1762.93 991.50,1760.48 998.30,1760.48" fill="#FF9800" fill-opacity="0.12" stroke="#FFB74D" stroke-width="0.6"/>
<polygon points="917.52,1649.59 1129.02,1594.59 1130.73,1601.17 919.23,1656.16 917.52,1649.59" fill="#FF9800" fill-opacity="0.12" stroke="#FFB74D" stroke-width="0.6"/>
<polygon points="1126.67,1589.94 916.09,1644.69 915.24,1641.40 911.84,1641.40 911.84,1549.38 915.24,1549.38 915.24,1545.98 1125.81,1545.98 1125.81,1549.38 1129.21,1549.38 1129.21,1586.65 1125.81,1586.65 1126.67,1589.94" fill="#FF9800" fill-opacity="0.12" stroke="#FFB74D" stroke-width="0.6"/>
<polygon points="1263.84,1554.52 1265.42,1561.12 1194.53,1578.05 1192.95,1571.44 1263.84,1554.52" fill="#FF9800" fill-opacity="0.12" stroke="#FFB74D" stroke-width="0.6"/>
<polygon points="1190.19,1559.88 1261.08,1542.95 1262.66,1549.56 1191.77,1566.49 1190.19,1559.88" fill="#FF9800" fill-opacity="0.12" stroke="#FFB74D" stroke-width="0.6"/>
<polygon points="1497.97,1457.67 1144.49,1457.67 1144.49,1581.17 1137.70,1581.17 1137.70,1457.67 1131.77,1457.67 1131.77,1450.88 1137.70,1450.88 1137.70,1377.85 1144.49,1377.85 1144.49,1450.88 1497.72,1450.88 1491.81,1443.87 1497.01,1439.49 1507.75,1452.23 1505.15,1454.42 1507.75,1456.61 1497.01,1469.35 1491.81,1464.97 1497.97,1457.67" fill="#FF9800" fill-opacity="0.12" stroke="#FFB74D" stroke-width="0.6"/>
<polygon points="1125.81,1365.97 915.24,1365.97 915.24,1359.17 1125.81,1359.17 1125.81,1365.97" fill="#FF9800" fill-opacity="0.12" stroke="#FFB74D" stroke-width="0.6"/>
<polygon points="1159.77,1265.77 1159.77,1258.98 1200.53,1258.98 1200.53,1265.77 1159.77,1265.77" fill="#FF9800" fill-opacity="0.12" stroke="#FFB74D" stroke-width="0.6"/>
<polygon points="1159.77,1255.58 1159.77,1248.79 1200.53,1248.79 1200.53,1255.58 1159.77,1255.58" fill="#FF9800" fill-opacity="0.12" stroke="#FFB74D" stroke-width="0.6"/>
<polygon points="1217.51,1196.98 1224.30,1196.98 1224.30,1252.18 1217.51,1252.18 1217.51,1196.98" fill="#FF9800" fill-opacity="0.12" stroke="#FFB74D" stroke-width="0.6"/>
<polygon points="1227.70,1196.98 1234.49,1196.98 1234.49,1252.18 1227.70,1252.18 1227.70,1196.98" fill="#FF9800" fill-opacity="0.12" stroke="#FFB74D" stroke-width="0.6"/>
<polygon points="1224.30,1101.88 1224.30,1184.16 1217.51,1184.16 1217.51,1101.88 1224.30,1101.88" fill="#FF9800" fill-opacity="0.12" stroke="#FFB74D" stroke-width="0.6"/>
<polygon points="1227.70,1101.88 1234.49,1101.88 1234.49,1184.16 1227.70,1184.16 1227.70,1101.88" fill="#FF9800" fill-opacity="0.12" stroke="#FFB74D" stroke-width="0.6"/>
<polygon points="915.24,1100.18 1125.81,1100.18 1125.81,1106.98 915.24,1106.98 915.24,1100.18" fill="#FF9800" fill-opacity="0.12" stroke="#FFB74D" stroke-width="0.6"/>
<polygon points="1142.79,1105.28 1142.79,1098.48 1217.51,1098.48 1217.51,1105.28 1142.79,1105.28" fill="#FF9800" fill-opacity="0.12" stroke="#FFB74D" stroke-width="0.6"/>
<polygon points="898.25,1105.28 823.54,1105.28 823.54,1098.48 898.25,1098.48 898.25,1105.28" fill="#FF9800" fill-opacity="0.12" stroke="#FFB74D" stroke-width="0.6"/>
<polygon points="896.56,1084.90 896.56,1020.36 903.35,1020.36 903.35,1088.29 898.25,1088.29 898.25,1091.69 823.54,1091.69 823.54,1084.90 896.56,1084.90" fill="#FF9800" fill-opacity="0.12" stroke="#FFB74D" stroke-width="0.6"/>
<polygon points="1144.49,1084.90 1217.51,1084.90 1217.51,1091.69 1142.79,1091.69 1142.79,1088.29 1137.70,1088.29 1137.70,1020.36 1144.49,1020.36 1144.49,1084.90" fill="#FF9800" fill-opacity="0.12" stroke="#FFB74D" stroke-width="0.6"/>
<polygon points="1125.81,1091.69 915.24,1091.69 915.24,1088.29 911.84,1088.29 911.84,1020.36 915.24,1020.36 915.24,1016.97 1125.81,1016.97 1125.81,1020.36 1129.21,1020.36 1129.21,1088.29 1125.81,1088.29 1125.81,1091.69" fill="#FF9800" fill-opacity="0.12" stroke="#FFB74D" stroke-width="0.6"/>
<polygon points="915.24,1001.68 1125.81,1001.68 1125.81,1008.48 915.24,1008.48 915.24,1001.68" fill="#FF9800" fill-opacity="0.12" stroke="#FFB74D" stroke-width="0.6"/>
<polygon points="824.22,996.58 901.65,996.58 901.65,999.98 905.05,999.98 905.05,1006.78 901.65,1006.78 901.65,1010.18 824.22,1010.18 824.22,1006.78 820.82,1006.78 820.82,999.98 824.22,999.98 824.22,996.58" fill="#FF9800" fill-opacity="0.12" stroke="#FFB74D" stroke-width="0.6"/>
<polygon points="1216.83,1010.18 1139.40,1010.18 1139.40,1006.78 1136.00,1006.78 1136.00,999.98 1139.40,999.98 1139.40,996.58 1216.83,996.58 1216.83,999.98 1220.23,999.98 1220.23,1006.78 1216.83,1006.78 1216.83,1010.18" fill="#FF9800" fill-opacity="0.12" stroke="#FFB74D" stroke-width="0.6"/>
<polygon points="1230.42,982.66 1230.42,975.87 1242.98,975.87 1242.98,979.27 1246.38,979.27 1246.38,1010.18 1239.59,1010.18 1239.59,982.66 1230.42,982.66" fill="#FF9800" fill-opacity="0.12" stroke="#FFB74D" stroke-width="0.6"/>
<polygon points="1256.57,1010.18 1249.78,1010.18 1249.78,923.22 1256.57,923.22 1256.57,1010.18" fill="#FF9800" fill-opacity="0.12" stroke="#FFB74D" stroke-width="0.6"/>
<polygon points="1328.91,955.83 1328.91,949.04 1375.44,949.04 1375.44,955.83 1328.91,955.83" fill="#FF9800" fill-opacity="0.12" stroke="#FFB74D" stroke-width="0.6"/>
<polygon points="1246.38,969.08 1242.98,969.08 1242.98,972.47 1230.42,972.47 1230.42,965.68 1239.59,965.68 1239.59,923.22 1246.38,923.22 1246.38,969.08" fill="#FF9800" fill-opacity="0.12" stroke="#FFB74D" stroke-width="0.6"/>
<polygon points="1315.33,926.62 1259.97,926.62 1259.97,919.83 1259.97,913.04 1315.33,913.04 1315.33,919.83 1315.33,926.62" fill="#FF9800" fill-opacity="0.12" stroke="#FFB74D" stroke-width="0.6"/>
<polygon points="1242.98,876.01 1242.98,882.81 1192.04,882.81 1192.04,876.01 1242.98,876.01" fill="#FF9800" fill-opacity="0.12" stroke="#FFB74D" stroke-width="0.6"/>
<polygon points="1242.98,862.43 1242.98,869.22 1192.04,869.22 1192.04,862.43 1242.98,862.43" fill="#FF9800" fill-opacity="0.12" stroke="#FFB74D" stroke-width="0.6"/>
<polygon points="915.24,767.33 915.24,760.53 1125.81,760.53 1125.81,767.33 915.24,767.33" fill="#FF9800" fill-opacity="0.12" stroke="#FFB74D" stroke-width="0.6"/>
<polygon points="915.24,745.25 1125.81,745.25 1125.81,752.04 915.24,752.04 915.24,745.25" fill="#FF9800" fill-opacity="0.12" stroke="#FFB74D" stroke-width="0.6"/>
<polygon points="1139.40,651.84 1139.40,645.05 1242.98,645.05 1242.98,651.84 1139.40,651.84" fill="#FF9800" fill-opacity="0.12" stroke="#FFB74D" stroke-width="0.6"/>
<polygon points="1482.43,645.05 1482.43,651.84 1259.97,651.84 1259.97,645.05 1482.43,645.05" fill="#FF9800" fill-opacity="0.12" stroke="#FFB74D" stroke-width="0.6"/>
<polygon points="1125.81,651.84 915.24,651.84 915.24,645.05 1125.81,645.05 1125.81,651.84" fill="#FF9800" fill-opacity="0.12" stroke="#FFB74D" stroke-width="0.6"/>
<polygon points="1113.86,424.62 1117.24,424.24 1117.24,420.88 1242.73,420.88 1242.73,424.28 1246.12,424.27 1246.38,633.16 1242.98,633.16 1242.98,636.56 1139.40,636.56 1139.40,632.39 1137.66,632.58 1113.86,424.62" fill="#FF9800" fill-opacity="0.12" stroke="#FFB74D" stroke-width="0.6"/>
<polygon points="1125.81,633.94 1125.81,636.56 916.16,636.56 916.16,630.77 912.50,631.91 848.54,425.28 851.78,424.28 851.78,420.88 1100.15,420.88 1100.15,424.28 1103.52,423.89 1127.54,633.74 1125.81,633.94" fill="#FF9800" fill-opacity="0.12" stroke="#FFB74D" stroke-width="0.6"/>
<polygon points="1256.57,633.17 1256.32,424.28 1259.71,424.28 1259.71,420.88 1482.01,420.88 1482.01,424.28 1485.40,424.27 1485.82,633.16 1482.43,633.16 1482.43,636.56 1259.97,636.56 1259.97,633.16 1256.57,633.17" fill="#FF9800" fill-opacity="0.12" stroke="#FFB74D" stroke-width="0.6"/>
<polygon points="1485.33,385.63 1485.37,408.99 1481.98,408.99 1481.98,412.39 1116.33,412.39 1116.33,408.99 1112.93,408.99 1112.93,276.53 1116.33,276.53 1116.33,273.13 1257.35,273.13 1257.35,276.53 1258.83,273.47 1483.41,382.58 1481.93,385.64 1485.33,385.63" fill="#FF9800" fill-opacity="0.12" stroke="#FFB74D" stroke-width="0.6"/>
<polygon points="1112.93,261.25 1112.93,195.04 1116.33,195.04 1118.05,192.10 1231.16,258.31 1229.45,261.25 1229.45,264.64 1116.33,264.64 1116.33,261.25 1112.93,261.25" fill="#FF9800" fill-opacity="0.12" stroke="#FFB74D" stroke-width="0.6"/>
<polygon points="1445.18,1539.15 1445.45,1545.93 1331.11,1550.48 1330.85,1543.69 1445.18,1539.15" fill="#FF9800" fill-opacity="0.12" stroke="#FFB74D" stroke-width="0.6"/>
<polygon points="1670.09,1545.94 1670.09,1539.15 1854.68,1539.15 1854.68,1545.94 1670.09,1545.94" fill="#FF9800" fill-opacity="0.12" stroke="#FFB74D" stroke-width="0.6"/>
<polygon points="1602.16,1545.94 1513.01,1545.94 1513.01,1539.15 1602.16,1539.15 1602.16,1545.94" fill="#FF9800" fill-opacity="0.12" stroke="#FFB74D" stroke-width="0.6"/>
<polygon points="1330.37,1531.81 1444.71,1527.27 1444.98,1534.06 1330.64,1538.60 1330.37,1531.81" fill="#FF9800" fill-opacity="0.12" stroke="#FFB74D" stroke-width="0.6"/>
<polygon points="1670.09,1534.05 1670.09,1527.26 1854.68,1527.26 1854.68,1534.05 1670.09,1534.05" fill="#FF9800" fill-opacity="0.12" stroke="#FFB74D" stroke-width="0.6"/>
<polygon points="1602.16,1527.26 1602.16,1534.05 1513.01,1534.05 1513.01,1527.26 1602.16,1527.26" fill="#FF9800" fill-opacity="0.12" stroke="#FFB74D" stroke-width="0.6"/>
<polygon points="1889.51,1464.97 1895.67,1457.67 1529.47,1457.67 1529.47,1450.88 1895.42,1450.88 1889.51,1443.87 1894.71,1439.49 1903.57,1450.01 1903.57,1377.85 1910.37,1377.85 1910.37,1530.66 1903.57,1530.66 1903.57,1458.83 1894.71,1469.35 1889.51,1464.97" fill="#FF9800" fill-opacity="0.12" stroke="#FFB74D" stroke-width="0.6"/>
<polygon points="1502.81,1313.32 1570.39,1313.32 1570.39,1320.11 1502.81,1320.11 1502.81,1313.32" fill="#FF9800" fill-opacity="0.12" stroke="#FFB74D" stroke-width="0.6"/>
<polygon points="1544.92,1309.92 1544.92,1303.13 1566.99,1303.13 1566.99,1309.92 1544.92,1309.92" fill="#FF9800" fill-opacity="0.12" stroke="#FFB74D" stroke-width="0.6"/>
<polygon points="1779.76,1241.14 1786.55,1241.14 1786.55,1279.43 1779.76,1279.43 1779.76,1241.14" fill="#FF9800" fill-opacity="0.12" stroke="#FFB74D" stroke-width="0.6"/>
<polygon points="1766.17,1279.43 1766.17,1241.14 1772.96,1241.14 1772.96,1279.43 1766.17,1279.43" fill="#FF9800" fill-opacity="0.12" stroke="#FFB74D" stroke-width="0.6"/>
<polygon points="1667.68,1227.55 1667.68,1196.98 1674.47,1196.98 1674.47,1227.55 1667.68,1227.55" fill="#FF9800" fill-opacity="0.12" stroke="#FFB74D" stroke-width="0.6"/>
<polygon points="1657.49,1227.55 1650.69,1227.55 1650.69,1196.98 1657.49,1196.98 1657.49,1227.55" fill="#FF9800" fill-opacity="0.12" stroke="#FFB74D" stroke-width="0.6"/>
<polygon points="1921.40,1118.86 1928.20,1118.86 1928.20,1230.95 1921.40,1230.95 1921.40,1118.86" fill="#FF9800" fill-opacity="0.12" stroke="#FFB74D" stroke-width="0.6"/>
<polygon points="1901.88,1230.95 1901.88,1118.86 1908.67,1118.86 1908.67,1230.95 1901.88,1230.95" fill="#FF9800" fill-opacity="0.12" stroke="#FFB74D" stroke-width="0.6"/>
<polygon points="1442.35,1105.28 1346.23,1105.28 1346.23,1098.48 1442.35,1098.48 1442.35,1105.28" fill="#FF9800" fill-opacity="0.12" stroke="#FFB74D" stroke-width="0.6"/>
<polygon points="1566.32,1098.48 1657.49,1098.48 1657.49,1105.28 1566.32,1105.28 1566.32,1098.48" fill="#FF9800" fill-opacity="0.12" stroke="#FFB74D" stroke-width="0.6"/>
<polygon points="1455.94,1098.48 1552.73,1098.48 1552.73,1105.28 1455.94,1105.28 1455.94,1098.48" fill="#FF9800" fill-opacity="0.12" stroke="#FFB74D" stroke-width="0.6"/>
<polygon points="1728.66,1105.28 1671.07,1105.28 1671.07,1098.48 1728.66,1098.48 1728.66,1105.28" fill="#FF9800" fill-opacity="0.12" stroke="#FFB74D" stroke-width="0.6"/>
<polygon points="1552.73,1091.69 1455.94,1091.69 1455.94,1084.90 1552.73,1084.90 1552.73,1091.69" fill="#FF9800" fill-opacity="0.12" stroke="#FFB74D" stroke-width="0.6"/>
<polygon points="1345.55,1091.69 1345.55,1084.90 1442.35,1084.90 1442.35,1091.69 1345.55,1091.69" fill="#FF9800" fill-opacity="0.12" stroke="#FFB74D" stroke-width="0.6"/>
<polygon points="1664.28,1088.29 1657.49,1088.29 1657.49,1091.69 1566.32,1091.69 1566.32,1084.90 1657.49,1084.90 1657.49,1020.36 1664.28,1020.36 1664.28,1088.29" fill="#FF9800" fill-opacity="0.12" stroke="#FFB74D" stroke-width="0.6"/>
<polygon points="1732.06,1088.29 1728.66,1088.29 1728.66,1091.69 1671.07,1091.69 1671.07,1088.29 1667.68,1088.29 1667.68,1020.36 1674.47,1020.36 1674.47,1084.90 1725.27,1084.90 1725.27,1020.36 1732.06,1020.36 1732.06,1088.29" fill="#FF9800" fill-opacity="0.12" stroke="#FFB74D" stroke-width="0.6"/>
<polygon points="1745.30,1088.31 1738.51,1088.28 1738.85,1020.35 1745.64,1020.38 1745.30,1088.31" fill="#FF9800" fill-opacity="0.12" stroke="#FFB74D" stroke-width="0.6"/>
<polygon points="1996.25,1374.46 1996.25,1365.97 1922.25,1365.97 1922.25,1359.17 1996.25,1359.17 1996.25,1256.42 1922.25,1256.42 1922.25,1249.63 1987.67,1249.63 1984.72,1246.13 1990.64,1241.14 1922.25,1241.14 1922.25,1234.34 2071.71,1234.34 2071.71,1103.58 1922.74,1103.58 1922.74,1096.79 1996.25,1096.79 1996.25,1088.29 1922.74,1088.29 1922.74,1081.50 1996.25,1081.50 1996.25,771.24 1989.10,777.27 1984.72,772.08 1990.35,767.32 1922.74,767.32 1922.74,767.32 1922.25,767.32 1922.25,760.53 2071.71,760.53 2071.71,752.04 1922.26,752.04 1922.26,748.64 1918.86,748.64 1918.86,535.39 1922.26,535.39 1923.00,532.07 2076.32,566.27 2075.58,569.59 2078.50,569.59 2078.50,1084.90 2075.10,1084.90 2075.10,1088.29 2003.04,1088.29 2003.04,1096.79 2075.10,1096.79 2075.10,1100.18 2078.50,1100.18 2078.50,1237.74 2075.10,1237.74 2075.10,1241.14 2008.65,1241.14 2014.57,1246.13 2011.63,1249.63 2075.10,1249.63 2075.10,1253.03 2078.50,1253.03 2078.50,1537.34 2075.10,1537.34 2075.22,1540.74 1922.72,1545.94 1922.49,1539.15 2071.71,1534.06 2071.71,1528.96 1922.32,1534.06 1922.20,1530.66 1918.86,1530.66 1918.86,1377.85 1922.25,1377.85 1922.25,1374.46 1996.25,1374.46" fill="#FF9800" fill-opacity="0.12" stroke="#FFB74D" stroke-width="0.6"/>
<polygon points="1592.81,962.62 1596.20,962.62 1596.20,959.23 1721.87,959.23 1721.87,966.02 1599.60,966.02 1599.60,1006.78 1592.81,1006.78 1592.81,962.62" fill="#FF9800" fill-opacity="0.12" stroke="#FFB74D" stroke-width="0.6"/>
<polygon points="1328.91,966.02 1328.91,959.23 1579.22,959.23 1579.22,962.62 1582.62,962.62 1582.62,1006.78 1575.83,1006.78 1575.83,966.02 1328.91,966.02" fill="#FF9800" fill-opacity="0.12" stroke="#FFB74D" stroke-width="0.6"/>
<polygon points="1905.27,966.02 1738.85,966.02 1738.85,959.23 1905.27,959.23 1905.27,966.02" fill="#FF9800" fill-opacity="0.12" stroke="#FFB74D" stroke-width="0.6"/>
<polygon points="1482.43,949.04 1385.63,949.04 1385.63,942.24 1482.43,942.24 1482.43,949.04" fill="#FF9800" fill-opacity="0.12" stroke="#FFB74D" stroke-width="0.6"/>
<polygon points="1905.27,942.24 1905.27,949.04 1738.85,949.04 1738.85,942.24 1905.27,942.24" fill="#FF9800" fill-opacity="0.12" stroke="#FFB74D" stroke-width="0.6"/>
<polygon points="1721.87,949.04 1499.41,949.04 1499.41,942.24 1721.87,942.24 1721.87,949.04" fill="#FF9800" fill-opacity="0.12" stroke="#FFB74D" stroke-width="0.6"/>
<polygon points="1482.43,877.71 1387.33,877.71 1387.33,870.92 1482.43,870.92 1482.43,877.71" fill="#FF9800" fill-opacity="0.12" stroke="#FFB74D" stroke-width="0.6"/>
<polygon points="1482.43,860.73 1387.33,860.73 1387.33,853.94 1482.43,853.94 1482.43,860.73" fill="#FF9800" fill-opacity="0.12" stroke="#FFB74D" stroke-width="0.6"/>
<polygon points="2086.99,559.68 2090.39,559.68 2090.39,1537.34 2083.59,1537.34 2083.59,561.94 994.87,105.48 996.18,102.34 994.32,105.18 944.97,72.85 990.95,109.05 1102.91,182.71 1101.05,185.55 1104.44,185.55 1104.44,261.25 1101.05,261.25 1101.05,264.64 851.41,264.64 851.41,257.85 1097.65,257.85 1097.65,187.38 987.10,114.64 988.97,111.80 986.87,114.47 917.83,60.12 920.46,56.78 898.60,42.46 896.90,44.99 834.35,3.18 718.62,-62.19 721.96,-68.11 779.26,-35.75 718.43,-75.60 722.16,-81.29 997.79,99.33 2088.30,556.55 2086.99,559.68" fill="#FF9800" fill-opacity="0.12" stroke="#FFB74D" stroke-width="0.6"/>
<polygon points="1906.97,648.45 1910.37,648.45 1910.37,728.26 1903.58,728.26 1903.58,651.84 1738.85,651.84 1738.85,645.05 1906.97,645.05 1906.97,648.45" fill="#FF9800" fill-opacity="0.12" stroke="#FFB74D" stroke-width="0.6"/>
<polygon points="1721.87,651.84 1499.41,651.84 1499.41,645.05 1721.87,645.05 1721.87,651.84" fill="#FF9800" fill-opacity="0.12" stroke="#FFB74D" stroke-width="0.6"/>
<polygon points="1905.27,633.16 1905.27,636.56 1738.85,636.56 1738.85,633.16 1735.45,633.17 1735.15,482.55 1738.55,482.54 1739.50,479.28 1907.92,528.23 1906.97,531.49 1910.37,531.49 1910.37,633.16 1905.27,633.16" fill="#FF9800" fill-opacity="0.12" stroke="#FFB74D" stroke-width="0.6"/>
<polygon points="1721.55,476.98 1724.95,476.97 1725.27,633.16 1721.87,633.16 1721.87,636.56 1499.41,636.56 1499.41,633.16 1496.01,633.17 1495.59,424.28 1498.99,424.28 1498.99,420.88 1563.33,420.88 1537.43,411.10 1537.43,412.39 1498.96,412.39 1498.96,408.99 1495.56,409.00 1495.53,392.94 1498.93,392.94 1500.13,389.76 1722.75,473.80 1721.55,476.98" fill="#FF9800" fill-opacity="0.12" stroke="#FFB74D" stroke-width="0.6"/>
<polygon class="slab-poly" data-slab-id="SLAB-001" points="1254.64,263.11 1254.64,55.59 1484.09,55.59 1484.09,263.11 1254.64,263.11" fill="#2196F3" fill-opacity="0.45" stroke="#2196F3" stroke-width="0.8"/>
<text x="1369.4" y="159.4" fill="#fff" font-size="9" text-anchor="middle" dominant-baseline="middle" font-family="Segoe UI, sans-serif" paint-order="stroke" stroke="#000" stroke-width="2" pointer-events="none">SLAB-001</text>
<polygon class="slab-poly" data-slab-id="SLAB-002" points="1224.13,263.11 1224.13,55.59 1258.37,55.59 1258.37,263.11 1224.13,263.11" fill="#2196F3" fill-opacity="0.45" stroke="#2196F3" stroke-width="0.8"/>
<polygon class="slab-poly" data-slab-id="SLAB-003" points="1139.23,263.11 1139.23,55.59 1227.87,55.59 1227.87,263.11 1139.23,263.11" fill="#2196F3" fill-opacity="0.45" stroke="#2196F3" stroke-width="0.8"/>
<text x="1183.5" y="159.4" fill="#fff" font-size="9" text-anchor="middle" dominant-baseline="middle" font-family="Segoe UI, sans-serif" paint-order="stroke" stroke="#000" stroke-width="2" pointer-events="none">SLAB-003</text>
<polygon class="slab-poly" data-slab-id="SLAB-004" points="1099.18,263.11 1099.18,55.59 1142.96,55.59 1142.96,263.11 1099.18,263.11" fill="#2196F3" fill-opacity="0.45" stroke="#2196F3" stroke-width="0.8"/>
<polygon class="slab-poly" data-slab-id="SLAB-005" points="913.37,263.11 913.37,55.59 1102.91,55.59 1102.91,263.11 913.37,263.11" fill="#2196F3" fill-opacity="0.45" stroke="#2196F3" stroke-width="0.8"/>
<text x="1008.1" y="159.4" fill="#fff" font-size="9" text-anchor="middle" dominant-baseline="middle" font-family="Segoe UI, sans-serif" paint-order="stroke" stroke="#000" stroke-width="2" pointer-events="none">SLAB-005</text>
<polygon class="slab-poly" data-slab-id="SLAB-006" points="849.55,263.11 849.55,55.59 917.11,55.59 917.11,263.11 849.55,263.11" fill="#2196F3" fill-opacity="0.45" stroke="#2196F3" stroke-width="0.8"/>
<text x="883.3" y="159.4" fill="#fff" font-size="9" text-anchor="middle" dominant-baseline="middle" font-family="Segoe UI, sans-serif" paint-order="stroke" stroke="#000" stroke-width="2" pointer-events="none">SLAB-006</text>
<polygon class="slab-poly" data-slab-id="SLAB-007" points="786.01,263.11 786.01,55.59 853.28,55.59 853.28,263.11 786.01,263.11" fill="#2196F3" fill-opacity="0.45" stroke="#2196F3" stroke-width="0.8"/>
<text x="819.6" y="159.4" fill="#fff" font-size="9" text-anchor="middle" dominant-baseline="middle" font-family="Segoe UI, sans-serif" paint-order="stroke" stroke="#000" stroke-width="2" pointer-events="none">SLAB-007</text>
<polygon class="slab-poly" data-slab-id="SLAB-008" points="721.38,263.11 721.38,55.59 789.74,55.59 789.74,263.11 721.38,263.11" fill="#2196F3" fill-opacity="0.45" stroke="#2196F3" stroke-width="0.8"/>
<text x="755.6" y="159.4" fill="#fff" font-size="9" text-anchor="middle" dominant-baseline="middle" font-family="Segoe UI, sans-serif" paint-order="stroke" stroke="#000" stroke-width="2" pointer-events="none">SLAB-008</text>
<polygon class="slab-poly" data-slab-id="SLAB-009" points="553.05,263.11 553.05,55.59 709.84,55.59 709.84,263.11 553.05,263.11" fill="#2196F3" fill-opacity="0.45" stroke="#2196F3" stroke-width="0.8"/>
<text x="631.4" y="159.4" fill="#fff" font-size="9" text-anchor="middle" dominant-baseline="middle" font-family="Segoe UI, sans-serif" paint-order="stroke" stroke="#000" stroke-width="2" pointer-events="none">SLAB-009</text>
<polygon class="slab-poly" data-slab-id="SLAB-010" points="475.59,263.11 475.59,55.59 541.27,55.59 541.27,263.11 475.59,263.11" fill="#2196F3" fill-opacity="0.45" stroke="#2196F3" stroke-width="0.8"/>
<polygon class="slab-poly" data-slab-id="SLAB-011" points="368.75,263.11 368.75,55.59 464.04,55.59 464.04,263.11 368.75,263.11" fill="#2196F3" fill-opacity="0.45" stroke="#2196F3" stroke-width="0.8"/>
<text x="416.4" y="159.4" fill="#fff" font-size="9" text-anchor="middle" dominant-baseline="middle" font-family="Segoe UI, sans-serif" paint-order="stroke" stroke="#000" stroke-width="2" pointer-events="none">SLAB-011</text>
<polygon class="slab-poly" data-slab-id="SLAB-012" points="310.52,263.11 310.52,55.59 372.49,55.59 372.49,263.11 310.52,263.11" fill="#2196F3" fill-opacity="0.45" stroke="#2196F3" stroke-width="0.8"/>
<polygon class="slab-poly" data-slab-id="SLAB-013" points="259.43,263.11 259.43,55.59 314.25,55.59 314.25,263.11 259.43,263.11" fill="#2196F3" fill-opacity="0.45" stroke="#2196F3" stroke-width="0.8"/>
<polygon class="slab-poly" data-slab-id="SLAB-014" points="172.97,263.11 172.97,55.59 263.17,55.59 263.17,263.11 172.97,263.11" fill="#2196F3" fill-opacity="0.45" stroke="#2196F3" stroke-width="0.8"/>
<text x="218.1" y="159.4" fill="#fff" font-size="9" text-anchor="middle" dominant-baseline="middle" font-family="Segoe UI, sans-serif" paint-order="stroke" stroke="#000" stroke-width="2" pointer-events="none">SLAB-014</text>
<polygon class="slab-poly" data-slab-id="SLAB-015" points="133.91,263.11 133.91,55.59 176.70,55.59 176.70,263.11 133.91,263.11" fill="#2196F3" fill-opacity="0.45" stroke="#2196F3" stroke-width="0.8"/>
<polygon class="slab-poly" data-slab-id="SLAB-016" points="55.58,263.11 55.58,55.59 137.64,55.59 137.64,263.11 55.58,263.11" fill="#2196F3" fill-opacity="0.45" stroke="#2196F3" stroke-width="0.8"/>
<text x="96.6" y="159.4" fill="#fff" font-size="9" text-anchor="middle" dominant-baseline="middle" font-family="Segoe UI, sans-serif" paint-order="stroke" stroke="#000" stroke-width="2" pointer-events="none">SLAB-016</text>
<polygon class="slab-poly" data-slab-id="SLAB-017" points="1497.33,263.11 1497.33,55.59 1664.11,55.59 1667.85,55.59 1727.82,55.59 1731.56,55.59 1908.42,55.59 1908.42,263.11 1731.56,263.11 1731.56,426.15 1664.11,426.15 1664.11,263.11 1497.33,263.11" fill="#2196F3" fill-opacity="0.45" stroke="#2196F3" stroke-width="0.8"/>
<text x="1702.3" y="180.5" fill="#fff" font-size="9" text-anchor="middle" dominant-baseline="middle" font-family="Segoe UI, sans-serif" paint-order="stroke" stroke="#000" stroke-width="2" pointer-events="none">SLAB-017</text>
<polygon class="slab-poly" data-slab-id="SLAB-018" points="1727.82,426.15 1727.82,259.38 1908.42,259.38 1908.42,426.15 1727.82,426.15" fill="#2196F3" fill-opacity="0.45" stroke="#2196F3" stroke-width="0.8"/>
<text x="1818.1" y="342.8" fill="#fff" font-size="9" text-anchor="middle" dominant-baseline="middle" font-family="Segoe UI, sans-serif" paint-order="stroke" stroke="#000" stroke-width="2" pointer-events="none">SLAB-018</text>
<polygon class="slab-poly" data-slab-id="SLAB-019" points="1497.33,426.15 1497.33,259.38 1667.85,259.38 1667.85,426.15 1497.33,426.15" fill="#2196F3" fill-opacity="0.45" stroke="#2196F3" stroke-width="0.8"/>
<text x="1582.6" y="342.8" fill="#fff" font-size="9" text-anchor="middle" dominant-baseline="middle" font-family="Segoe UI, sans-serif" paint-order="stroke" stroke="#000" stroke-width="2" pointer-events="none">SLAB-019</text>
<polygon class="slab-poly" data-slab-id="SLAB-020" points="1254.64,426.15 1254.64,259.38 1484.09,259.38 1484.09,426.15 1254.64,426.15" fill="#2196F3" fill-opacity="0.45" stroke="#2196F3" stroke-width="0.8"/>
<text x="1369.4" y="342.8" fill="#fff" font-size="9" text-anchor="middle" dominant-baseline="middle" font-family="Segoe UI, sans-serif" paint-order="stroke" stroke="#000" stroke-width="2" pointer-events="none">SLAB-020</text>
<polygon class="slab-poly" data-slab-id="SLAB-021" points="1099.18,426.15 1099.18,259.38 1227.87,259.38 1227.87,426.15 1099.18,426.15" fill="#2196F3" fill-opacity="0.45" stroke="#2196F3" stroke-width="0.8"/>
<text x="1163.5" y="342.8" fill="#fff" font-size="9" text-anchor="middle" dominant-baseline="middle" font-family="Segoe UI, sans-serif" paint-order="stroke" stroke="#000" stroke-width="2" pointer-events="none">SLAB-021</text>
<polygon class="slab-poly" data-slab-id="SLAB-022" points="913.37,426.15 913.37,259.38 1102.91,259.38 1102.91,426.15 913.37,426.15" fill="#2196F3" fill-opacity="0.45" stroke="#2196F3" stroke-width="0.8"/>
<text x="1008.1" y="342.8" fill="#fff" font-size="9" text-anchor="middle" dominant-baseline="middle" font-family="Segoe UI, sans-serif" paint-order="stroke" stroke="#000" stroke-width="2" pointer-events="none">SLAB-022</text>
<polygon class="slab-poly" data-slab-id="SLAB-023" points="849.55,426.15 849.55,259.38 917.11,259.38 917.11,426.15 849.55,426.15" fill="#2196F3" fill-opacity="0.45" stroke="#2196F3" stroke-width="0.8"/>
<polygon class="slab-poly" data-slab-id="SLAB-024" points="721.38,426.15 721.38,259.38 853.28,259.38 853.28,426.15 721.38,426.15" fill="#2196F3" fill-opacity="0.45" stroke="#2196F3" stroke-width="0.8"/>
<text x="787.3" y="342.8" fill="#fff" font-size="9" text-anchor="middle" dominant-baseline="middle" font-family="Segoe UI, sans-serif" paint-order="stroke" stroke="#000" stroke-width="2" pointer-events="none">SLAB-024</text>
<polygon class="slab-poly" data-slab-id="SLAB-025" points="553.05,426.15 553.05,259.38 709.84,259.38 709.84,426.15 553.05,426.15" fill="#2196F3" fill-opacity="0.45" stroke="#2196F3" stroke-width="0.8"/>
<text x="631.4" y="342.8" fill="#fff" font-size="9" text-anchor="middle" dominant-baseline="middle" font-family="Segoe UI, sans-serif" paint-order="stroke" stroke="#000" stroke-width="2" pointer-events="none">SLAB-025</text>
<polygon class="slab-poly" data-slab-id="SLAB-026" points="475.59,426.15 475.59,259.38 541.27,259.38 541.27,426.15 475.59,426.15" fill="#2196F3" fill-opacity="0.45" stroke="#2196F3" stroke-width="0.8"/>
<polygon class="slab-poly" data-slab-id="SLAB-027" points="368.75,406.62 368.75,278.91 464.04,278.91 464.04,406.62 368.75,406.62" fill="#2196F3" fill-opacity="0.45" stroke="#2196F3" stroke-width="0.8"/>
<polygon class="slab-poly" data-slab-id="SLAB-028" points="274.72,426.15 274.72,259.38 464.04,259.38 464.04,426.15 274.72,426.15" fill="#2196F3" fill-opacity="0.45" stroke="#2196F3" stroke-width="0.8"/>
<text x="369.4" y="342.8" fill="#fff" font-size="9" text-anchor="middle" dominant-baseline="middle" font-family="Segoe UI, sans-serif" paint-order="stroke" stroke="#000" stroke-width="2" pointer-events="none">SLAB-028</text>
<polygon class="slab-poly" data-slab-id="SLAB-029" points="172.97,426.15 172.97,259.38 314.25,259.38 314.25,426.15 172.97,426.15" fill="#2196F3" fill-opacity="0.45" stroke="#2196F3" stroke-width="0.8"/>
<text x="243.6" y="342.8" fill="#fff" font-size="9" text-anchor="middle" dominant-baseline="middle" font-family="Segoe UI, sans-serif" paint-order="stroke" stroke="#000" stroke-width="2" pointer-events="none">SLAB-029</text>
<polygon class="slab-poly" data-slab-id="SLAB-030" points="55.58,426.15 55.58,259.38 161.42,259.38 161.42,426.15 55.58,426.15" fill="#2196F3" fill-opacity="0.45" stroke="#2196F3" stroke-width="0.8"/>
<text x="108.5" y="342.8" fill="#fff" font-size="9" text-anchor="middle" dominant-baseline="middle" font-family="Segoe UI, sans-serif" paint-order="stroke" stroke="#000" stroke-width="2" pointer-events="none">SLAB-030</text>
<polygon class="slab-poly" data-slab-id="SLAB-031" points="1727.82,635.03 1727.82,422.41 1908.42,422.41 1908.42,635.03 1727.82,635.03" fill="#2196F3" fill-opacity="0.45" stroke="#2196F3" stroke-width="0.8"/>
<text x="1818.1" y="528.7" fill="#fff" font-size="9" text-anchor="middle" dominant-baseline="middle" font-family="Segoe UI, sans-serif" paint-order="stroke" stroke="#000" stroke-width="2" pointer-events="none">SLAB-031</text>
<polygon class="slab-poly" data-slab-id="SLAB-032" points="1664.11,635.03 1664.11,422.41 1731.56,422.41 1731.56,635.03 1664.11,635.03" fill="#2196F3" fill-opacity="0.45" stroke="#2196F3" stroke-width="0.8"/>
<text x="1697.8" y="528.7" fill="#fff" font-size="9" text-anchor="middle" dominant-baseline="middle" font-family="Segoe UI, sans-serif" paint-order="stroke" stroke="#000" stroke-width="2" pointer-events="none">SLAB-032</text>
<polygon class="slab-poly" data-slab-id="SLAB-033" points="1497.33,635.03 1497.33,422.41 1667.85,422.41 1667.85,635.03 1497.33,635.03" fill="#2196F3" fill-opacity="0.45" stroke="#2196F3" stroke-width="0.8"/>
<text x="1582.6" y="528.7" fill="#fff" font-size="9" text-anchor="middle" dominant-baseline="middle" font-family="Segoe UI, sans-serif" paint-order="stroke" stroke="#000" stroke-width="2" pointer-events="none">SLAB-033</text>
<polygon class="slab-poly" data-slab-id="SLAB-034" points="1254.64,635.03 1254.64,422.41 1484.09,422.41 1484.09,635.03 1254.64,635.03" fill="#2196F3" fill-opacity="0.45" stroke="#2196F3" stroke-width="0.8"/>
<text x="1369.4" y="528.7" fill="#fff" font-size="9" text-anchor="middle" dominant-baseline="middle" font-family="Segoe UI, sans-serif" paint-order="stroke" stroke="#000" stroke-width="2" pointer-events="none">SLAB-034</text>
<polygon class="slab-poly" data-slab-id="SLAB-035" points="1224.13,635.03 1224.13,422.41 1258.37,422.41 1258.37,635.03 1224.13,635.03" fill="#2196F3" fill-opacity="0.45" stroke="#2196F3" stroke-width="0.8"/>
<polygon class="slab-poly" data-slab-id="SLAB-036" points="1139.23,635.03 1139.23,422.41 1227.87,422.41 1227.87,635.03 1139.23,635.03" fill="#2196F3" fill-opacity="0.45" stroke="#2196F3" stroke-width="0.8"/>
<text x="1183.5" y="528.7" fill="#fff" font-size="9" text-anchor="middle" dominant-baseline="middle" font-family="Segoe UI, sans-serif" paint-order="stroke" stroke="#000" stroke-width="2" pointer-events="none">SLAB-036</text>
<polygon class="slab-poly" data-slab-id="SLAB-037" points="1099.18,635.03 1099.18,422.41 1142.96,422.41 1142.96,635.03 1099.18,635.03" fill="#2196F3" fill-opacity="0.45" stroke="#2196F3" stroke-width="0.8"/>
<polygon class="slab-poly" data-slab-id="SLAB-038" points="913.37,635.03 913.37,422.41 1102.91,422.41 1102.91,635.03 913.37,635.03" fill="#2196F3" fill-opacity="0.45" stroke="#2196F3" stroke-width="0.8"/>
<text x="1008.1" y="528.7" fill="#fff" font-size="9" text-anchor="middle" dominant-baseline="middle" font-family="Segoe UI, sans-serif" paint-order="stroke" stroke="#000" stroke-width="2" pointer-events="none">SLAB-038</text>
<polygon class="slab-poly" data-slab-id="SLAB-039" points="834.26,635.03 834.26,422.41 917.11,422.41 917.11,635.03 834.26,635.03" fill="#2196F3" fill-opacity="0.45" stroke="#2196F3" stroke-width="0.8"/>
<text x="875.7" y="528.7" fill="#fff" font-size="9" text-anchor="middle" dominant-baseline="middle" font-family="Segoe UI, sans-serif" paint-order="stroke" stroke="#000" stroke-width="2" pointer-events="none">SLAB-039</text>
<polygon class="slab-poly" data-slab-id="SLAB-040" points="786.01,635.03 786.01,422.41 838.00,422.41 838.00,635.03 786.01,635.03" fill="#2196F3" fill-opacity="0.45" stroke="#2196F3" stroke-width="0.8"/>
<polygon class="slab-poly" data-slab-id="SLAB-041" points="706.10,635.03 706.10,422.41 789.74,422.41 789.74,635.03 706.10,635.03" fill="#2196F3" fill-opacity="0.45" stroke="#2196F3" stroke-width="0.8"/>
<text x="747.9" y="528.7" fill="#fff" font-size="9" text-anchor="middle" dominant-baseline="middle" font-family="Segoe UI, sans-serif" paint-order="stroke" stroke="#000" stroke-width="2" pointer-events="none">SLAB-041</text>
<polygon class="slab-poly" data-slab-id="SLAB-042" points="553.05,635.03 553.05,422.41 709.84,422.41 709.84,635.03 553.05,635.03" fill="#2196F3" fill-opacity="0.45" stroke="#2196F3" stroke-width="0.8"/>
<text x="631.4" y="528.7" fill="#fff" font-size="9" text-anchor="middle" dominant-baseline="middle" font-family="Segoe UI, sans-serif" paint-order="stroke" stroke="#000" stroke-width="2" pointer-events="none">SLAB-042</text>
<polygon class="slab-poly" data-slab-id="SLAB-043" points="475.59,635.03 475.59,422.41 556.78,422.41 556.78,635.03 475.59,635.03" fill="#2196F3" fill-opacity="0.45" stroke="#2196F3" stroke-width="0.8"/>
<text x="516.2" y="528.7" fill="#fff" font-size="9" text-anchor="middle" dominant-baseline="middle" font-family="Segoe UI, sans-serif" paint-order="stroke" stroke="#000" stroke-width="2" pointer-events="none">SLAB-043</text>
<polygon class="slab-poly" data-slab-id="SLAB-044" points="368.75,635.03 368.75,422.41 464.04,422.41 464.04,635.03 368.75,635.03" fill="#2196F3" fill-opacity="0.45" stroke="#2196F3" stroke-width="0.8"/>
<text x="416.4" y="528.7" fill="#fff" font-size="9" text-anchor="middle" dominant-baseline="middle" font-family="Segoe UI, sans-serif" paint-order="stroke" stroke="#000" stroke-width="2" pointer-events="none">SLAB-044</text>
<polygon class="slab-poly" data-slab-id="SLAB-045" points="310.52,635.03 310.52,422.41 372.49,422.41 372.49,635.03 310.52,635.03" fill="#2196F3" fill-opacity="0.45" stroke="#2196F3" stroke-width="0.8"/>
<polygon class="slab-poly" data-slab-id="SLAB-046" points="259.43,635.03 259.43,422.41 314.25,422.41 314.25,635.03 259.43,635.03" fill="#2196F3" fill-opacity="0.45" stroke="#2196F3" stroke-width="0.8"/>
<polygon class="slab-poly" data-slab-id="SLAB-047" points="172.97,635.03 172.97,422.41 263.17,422.41 263.17,635.03 172.97,635.03" fill="#2196F3" fill-opacity="0.45" stroke="#2196F3" stroke-width="0.8"/>
<text x="218.1" y="528.7" fill="#fff" font-size="9" text-anchor="middle" dominant-baseline="middle" font-family="Segoe UI, sans-serif" paint-order="stroke" stroke="#000" stroke-width="2" pointer-events="none">SLAB-047</text>
<polygon class="slab-poly" data-slab-id="SLAB-048" points="133.91,635.03 133.91,422.41 176.70,422.41 176.70,635.03 133.91,635.03" fill="#2196F3" fill-opacity="0.45" stroke="#2196F3" stroke-width="0.8"/>
<polygon class="slab-poly" data-slab-id="SLAB-049" points="55.58,635.03 55.58,422.41 137.64,422.41 137.64,635.03 55.58,635.03" fill="#2196F3" fill-opacity="0.45" stroke="#2196F3" stroke-width="0.8"/>
<text x="96.6" y="528.7" fill="#fff" font-size="9" text-anchor="middle" dominant-baseline="middle" font-family="Segoe UI, sans-serif" paint-order="stroke" stroke="#000" stroke-width="2" pointer-events="none">SLAB-049</text>
<polygon class="slab-poly" data-slab-id="SLAB-050" points="1727.82,748.90 1727.82,631.29 1908.42,631.29 1908.42,748.90 1727.82,748.90" fill="#2196F3" fill-opacity="0.45" stroke="#2196F3" stroke-width="0.8"/>
<text x="1818.1" y="690.1" fill="#fff" font-size="9" text-anchor="middle" dominant-baseline="middle" font-family="Segoe UI, sans-serif" paint-order="stroke" stroke="#000" stroke-width="2" pointer-events="none">SLAB-050</text>
<polygon class="slab-poly" data-slab-id="SLAB-051" points="1664.11,748.90 1664.11,631.29 1731.56,631.29 1731.56,748.90 1664.11,748.90" fill="#2196F3" fill-opacity="0.45" stroke="#2196F3" stroke-width="0.8"/>
<polygon class="slab-poly" data-slab-id="SLAB-052" points="849.55,631.29 913.37,631.29 917.11,631.29 1099.18,631.29 1102.91,631.29 1227.87,631.29 1227.87,748.90 1102.91,748.90 1099.18,748.90 917.11,748.90 913.37,748.90 849.55,748.90 849.55,631.29" fill="#2196F3" fill-opacity="0.45" stroke="#2196F3" stroke-width="0.8"/>
<text x="1038.7" y="690.1" fill="#fff" font-size="9" text-anchor="middle" dominant-baseline="middle" font-family="Segoe UI, sans-serif" paint-order="stroke" stroke="#000" stroke-width="2" pointer-events="none">SLAB-052</text>
<polygon class="slab-poly" data-slab-id="SLAB-053" points="721.38,748.90 721.38,631.29 853.28,631.29 853.28,748.90 721.38,748.90" fill="#2196F3" fill-opacity="0.45" stroke="#2196F3" stroke-width="0.8"/>
<text x="787.3" y="690.1" fill="#fff" font-size="9" text-anchor="middle" dominant-baseline="middle" font-family="Segoe UI, sans-serif" paint-order="stroke" stroke="#000" stroke-width="2" pointer-events="none">SLAB-053</text>
<polygon class="slab-poly" data-slab-id="SLAB-054" points="475.59,748.90 475.59,631.29 541.27,631.29 541.27,748.90 475.59,748.90" fill="#2196F3" fill-opacity="0.45" stroke="#2196F3" stroke-width="0.8"/>
<polygon class="slab-poly" data-slab-id="SLAB-055" points="310.52,748.90 310.52,631.29 464.04,631.29 464.04,748.90 310.52,748.90" fill="#2196F3" fill-opacity="0.45" stroke="#2196F3" stroke-width="0.8"/>
<text x="387.3" y="690.1" fill="#fff" font-size="9" text-anchor="middle" dominant-baseline="middle" font-family="Segoe UI, sans-serif" paint-order="stroke" stroke="#000" stroke-width="2" pointer-events="none">SLAB-055</text>
<polygon class="slab-poly" data-slab-id="SLAB-056" points="172.97,748.90 172.97,631.29 314.25,631.29 314.25,748.90 172.97,748.90" fill="#2196F3" fill-opacity="0.45" stroke="#2196F3" stroke-width="0.8"/>
<text x="243.6" y="690.1" fill="#fff" font-size="9" text-anchor="middle" dominant-baseline="middle" font-family="Segoe UI, sans-serif" paint-order="stroke" stroke="#000" stroke-width="2" pointer-events="none">SLAB-056</text>
<polygon class="slab-poly" data-slab-id="SLAB-057" points="55.58,748.90 55.58,631.29 161.42,631.29 161.42,748.90 55.58,748.90" fill="#2196F3" fill-opacity="0.45" stroke="#2196F3" stroke-width="0.8"/>
<polygon class="slab-poly" data-slab-id="SLAB-058" points="1254.64,764.18 1254.64,631.29 1484.09,631.29 1484.09,764.18 1254.64,764.18" fill="#2196F3" fill-opacity="0.45" stroke="#2196F3" stroke-width="0.8"/>
<text x="1369.4" y="697.7" fill="#fff" font-size="9" text-anchor="middle" dominant-baseline="middle" font-family="Segoe UI, sans-serif" paint-order="stroke" stroke="#000" stroke-width="2" pointer-events="none">SLAB-058</text>
<polygon class="slab-poly" data-slab-id="SLAB-059" points="172.97,879.84 172.97,745.16 314.25,745.16 314.25,879.84 172.97,879.84" fill="#2196F3" fill-opacity="0.45" stroke="#2196F3" stroke-width="0.8"/>
<text x="243.6" y="812.5" fill="#fff" font-size="9" text-anchor="middle" dominant-baseline="middle" font-family="Segoe UI, sans-serif" paint-order="stroke" stroke="#000" stroke-width="2" pointer-events="none">SLAB-059</text>
<polygon class="slab-poly" data-slab-id="SLAB-060" points="1727.82,964.49 1727.82,745.16 1908.42,745.16 1908.42,964.49 1727.82,964.49" fill="#FF9800" fill-opacity="0.45" stroke="#FF9800" stroke-width="0.8"/>
<text x="1818.1" y="854.8" fill="#fff" font-size="9" text-anchor="middle" dominant-baseline="middle" font-family="Segoe UI, sans-serif" paint-order="stroke" stroke="#000" stroke-width="2" pointer-events="none">SLAB-060</text>
<polygon class="slab-poly" data-slab-id="SLAB-061" points="849.55,745.16 913.37,745.16 917.11,745.16 1099.18,745.16 1102.91,745.16 1227.87,745.16 1227.87,964.49 1102.91,964.49 1099.18,964.49 917.11,964.49 913.37,964.49 849.55,964.49 849.55,745.16" fill="#2196F3" fill-opacity="0.45" stroke="#2196F3" stroke-width="0.8"/>
<text x="1038.7" y="854.8" fill="#fff" font-size="9" text-anchor="middle" dominant-baseline="middle" font-family="Segoe UI, sans-serif" paint-order="stroke" stroke="#000" stroke-width="2" pointer-events="none">SLAB-061</text>
<polygon class="slab-poly" data-slab-id="SLAB-062" points="55.58,964.49 55.58,745.16 161.42,745.16 161.42,964.49 55.58,964.49" fill="#2196F3" fill-opacity="0.45" stroke="#2196F3" stroke-width="0.8"/>
<text x="108.5" y="854.8" fill="#fff" font-size="9" text-anchor="middle" dominant-baseline="middle" font-family="Segoe UI, sans-serif" paint-order="stroke" stroke="#000" stroke-width="2" pointer-events="none">SLAB-062</text>
<polygon class="slab-poly" data-slab-id="SLAB-063" points="464.04,879.84 464.04,1022.23 310.52,1022.23 310.52,879.84 310.52,876.10 310.52,745.16 464.04,745.16 464.04,876.10 464.04,879.84" fill="#FF9800" fill-opacity="0.45" stroke="#FF9800" stroke-width="0.8"/>
<text x="387.3" y="883.7" fill="#fff" font-size="9" text-anchor="middle" dominant-baseline="middle" font-family="Segoe UI, sans-serif" paint-order="stroke" stroke="#000" stroke-width="2" pointer-events="none">SLAB-063</text>
<polygon class="slab-poly" data-slab-id="SLAB-064" points="1497.33,1018.50 1497.33,964.49 1497.33,960.76 1497.33,748.90 1497.33,745.16 1497.33,631.29 1667.85,631.29 1667.85,745.16 1731.56,745.16 1731.56,964.49 1667.85,964.49 1667.85,1018.50 1667.85,1022.23 1667.85,1221.19 1497.33,1221.19 1497.33,1022.23 1497.33,1018.50" fill="#FF9800" fill-opacity="0.45" stroke="#FF9800" stroke-width="0.8"/>
<text x="1596.9" y="917.5" fill="#fff" font-size="9" text-anchor="middle" dominant-baseline="middle" font-family="Segoe UI, sans-serif" paint-order="stroke" stroke="#000" stroke-width="2" pointer-events="none">SLAB-064</text>
<polygon class="slab-poly" data-slab-id="SLAB-065" points="553.05,1018.50 553.05,964.49 553.05,960.76 553.05,748.90 553.05,745.16 553.05,631.29 709.84,631.29 709.84,745.16 709.84,748.90 709.84,960.76 709.84,964.49 709.84,1018.50 709.84,1022.23 709.84,1221.19 553.05,1221.19 553.05,1022.23 553.05,1018.50" fill="#FF9800" fill-opacity="0.45" stroke="#FF9800" stroke-width="0.8"/>
<text x="631.4" y="926.2" fill="#fff" font-size="9" text-anchor="middle" dominant-baseline="middle" font-family="Segoe UI, sans-serif" paint-order="stroke" stroke="#000" stroke-width="2" pointer-events="none">SLAB-065</text>
<polygon class="slab-poly" data-slab-id="SLAB-066" points="1254.64,1018.50 1254.64,964.49 1224.13,964.49 1224.13,745.16 1258.37,745.16 1258.37,760.45 1484.09,760.45 1484.09,960.76 1484.09,964.49 1484.09,1018.50 1484.09,1022.23 1484.09,1221.19 1254.64,1221.19 1254.64,1022.23 1254.64,1018.50" fill="#FF9800" fill-opacity="0.45" stroke="#FF9800" stroke-width="0.8"/>
<text x="1361.6" y="982.6" fill="#fff" font-size="9" text-anchor="middle" dominant-baseline="middle" font-family="Segoe UI, sans-serif" paint-order="stroke" stroke="#000" stroke-width="2" pointer-events="none">SLAB-066</text>
<polygon class="slab-poly" data-slab-id="SLAB-067" points="1727.82,1022.23 1727.82,960.76 1908.42,960.76 1908.42,1022.23 1727.82,1022.23" fill="#2196F3" fill-opacity="0.45" stroke="#2196F3" stroke-width="0.8"/>
<polygon class="slab-poly" data-slab-id="SLAB-068" points="310.52,1022.23 172.97,1022.23 172.97,876.10 314.25,876.10 314.25,1018.50 464.04,1018.50 464.04,1221.19 310.52,1221.19 310.52,1022.23" fill="#FF9800" fill-opacity="0.45" stroke="#FF9800" stroke-width="0.8"/>
<text x="330.0" y="1051.8" fill="#fff" font-size="9" text-anchor="middle" dominant-baseline="middle" font-family="Segoe UI, sans-serif" paint-order="stroke" stroke="#000" stroke-width="2" pointer-events="none">SLAB-068</text>
<polygon class="slab-poly" data-slab-id="SLAB-069" points="849.55,1018.50 853.28,1018.50 913.37,1018.50 913.37,960.76 1099.18,960.76 1102.91,960.76 1227.87,960.76 1227.87,1018.50 1258.37,1018.50 1258.37,1221.19 1227.87,1221.19 1224.13,1221.19 1102.91,1221.19 1099.18,1221.19 917.11,1221.19 913.37,1221.19 853.28,1221.19 849.55,1221.19 721.38,1221.19 721.38,1018.50 849.55,1018.50" fill="#2196F3" fill-opacity="0.45" stroke="#2196F3" stroke-width="0.8"/>
<text x="1001.4" y="1101.2" fill="#fff" font-size="9" text-anchor="middle" dominant-baseline="middle" font-family="Segoe UI, sans-serif" paint-order="stroke" stroke="#000" stroke-width="2" pointer-events="none">SLAB-069</text>
<polygon class="slab-poly" data-slab-id="SLAB-070" points="1664.11,1018.50 1727.82,1018.50 1731.56,1018.50 1908.42,1018.50 1908.42,1221.19 1731.56,1221.19 1727.82,1221.19 1664.11,1221.19 1664.11,1018.50" fill="#2196F3" fill-opacity="0.45" stroke="#2196F3" stroke-width="0.8"/>
<text x="1786.3" y="1119.8" fill="#fff" font-size="9" text-anchor="middle" dominant-baseline="middle" font-family="Segoe UI, sans-serif" paint-order="stroke" stroke="#000" stroke-width="2" pointer-events="none">SLAB-070</text>
<polygon class="slab-poly" data-slab-id="SLAB-071" points="172.97,1221.19 172.97,1018.50 314.25,1018.50 314.25,1221.19 172.97,1221.19" fill="#2196F3" fill-opacity="0.45" stroke="#2196F3" stroke-width="0.8"/>
<text x="243.6" y="1119.8" fill="#fff" font-size="9" text-anchor="middle" dominant-baseline="middle" font-family="Segoe UI, sans-serif" paint-order="stroke" stroke="#000" stroke-width="2" pointer-events="none">SLAB-071</text>
<polygon class="slab-poly" data-slab-id="SLAB-072" points="55.58,1221.19 55.58,1018.50 161.42,1018.50 161.42,1221.19 55.58,1221.19" fill="#2196F3" fill-opacity="0.45" stroke="#2196F3" stroke-width="0.8"/>
<text x="108.5" y="1119.8" fill="#fff" font-size="9" text-anchor="middle" dominant-baseline="middle" font-family="Segoe UI, sans-serif" paint-order="stroke" stroke="#000" stroke-width="2" pointer-events="none">SLAB-072</text>
<polygon class="slab-poly" data-slab-id="SLAB-073" points="1727.82,1369.53 1727.82,1217.45 1908.42,1217.45 1908.42,1369.53 1727.82,1369.53" fill="#2196F3" fill-opacity="0.45" stroke="#2196F3" stroke-width="0.8"/>
<text x="1818.1" y="1293.5" fill="#fff" font-size="9" text-anchor="middle" dominant-baseline="middle" font-family="Segoe UI, sans-serif" paint-order="stroke" stroke="#000" stroke-width="2" pointer-events="none">SLAB-073</text>
<polygon class="slab-poly" data-slab-id="SLAB-074" points="849.55,1217.45 913.37,1217.45 917.11,1217.45 1099.18,1217.45 1102.91,1217.45 1258.37,1217.45 1258.37,1369.53 1102.91,1369.53 1099.18,1369.53 917.11,1369.53 913.37,1369.53 849.55,1369.53 849.55,1217.45" fill="#2196F3" fill-opacity="0.45" stroke="#2196F3" stroke-width="0.8"/>
<text x="1054.0" y="1293.5" fill="#fff" font-size="9" text-anchor="middle" dominant-baseline="middle" font-family="Segoe UI, sans-serif" paint-order="stroke" stroke="#000" stroke-width="2" pointer-events="none">SLAB-074</text>
<polygon class="slab-poly" data-slab-id="SLAB-075" points="553.05,1369.53 553.05,1217.45 709.84,1217.45 709.84,1369.53 553.05,1369.53" fill="#2196F3" fill-opacity="0.45" stroke="#2196F3" stroke-width="0.8"/>
<text x="631.4" y="1293.5" fill="#fff" font-size="9" text-anchor="middle" dominant-baseline="middle" font-family="Segoe UI, sans-serif" paint-order="stroke" stroke="#000" stroke-width="2" pointer-events="none">SLAB-075</text>
<polygon class="slab-poly" data-slab-id="SLAB-076" points="310.52,1369.53 310.52,1217.45 464.04,1217.45 464.04,1369.53 310.52,1369.53" fill="#2196F3" fill-opacity="0.45" stroke="#2196F3" stroke-width="0.8"/>
<text x="387.3" y="1293.5" fill="#fff" font-size="9" text-anchor="middle" dominant-baseline="middle" font-family="Segoe UI, sans-serif" paint-order="stroke" stroke="#000" stroke-width="2" pointer-events="none">SLAB-076</text>
<polygon class="slab-poly" data-slab-id="SLAB-077" points="172.97,1369.53 172.97,1217.45 314.25,1217.45 314.25,1369.53 172.97,1369.53" fill="#2196F3" fill-opacity="0.45" stroke="#2196F3" stroke-width="0.8"/>
<text x="243.6" y="1293.5" fill="#fff" font-size="9" text-anchor="middle" dominant-baseline="middle" font-family="Segoe UI, sans-serif" paint-order="stroke" stroke="#000" stroke-width="2" pointer-events="none">SLAB-077</text>
<polygon class="slab-poly" data-slab-id="SLAB-078" points="1254.64,1365.79 1254.64,1217.45 1484.09,1217.45 1484.09,1365.79 1484.09,1369.53 1484.09,1544.41 1254.64,1544.41 1254.64,1369.53 1254.64,1365.79" fill="#2196F3" fill-opacity="0.45" stroke="#2196F3" stroke-width="0.8"/>
<text x="1369.4" y="1380.9" fill="#fff" font-size="9" text-anchor="middle" dominant-baseline="middle" font-family="Segoe UI, sans-serif" paint-order="stroke" stroke="#000" stroke-width="2" pointer-events="none">SLAB-078</text>
<polygon class="slab-poly" data-slab-id="SLAB-079" points="721.38,1369.53 721.38,1365.79 721.38,1217.45 853.28,1217.45 853.28,1365.79 917.11,1365.79 917.11,1544.41 853.28,1544.41 813.18,1544.41 721.38,1544.41 721.38,1369.53" fill="#2196F3" fill-opacity="0.45" stroke="#2196F3" stroke-width="0.8"/>
<text x="807.8" y="1396.4" fill="#fff" font-size="9" text-anchor="middle" dominant-baseline="middle" font-family="Segoe UI, sans-serif" paint-order="stroke" stroke="#000" stroke-width="2" pointer-events="none">SLAB-079</text>
<polygon class="slab-poly" data-slab-id="SLAB-080" points="368.75,1365.79 464.04,1365.79 464.04,1532.52 368.75,1532.52 368.75,1365.79" fill="#2196F3" fill-opacity="0.45" stroke="#2196F3" stroke-width="0.8"/>
<text x="416.4" y="1449.2" fill="#fff" font-size="9" text-anchor="middle" dominant-baseline="middle" font-family="Segoe UI, sans-serif" paint-order="stroke" stroke="#000" stroke-width="2" pointer-events="none">SLAB-080</text>
<polygon class="slab-poly" data-slab-id="SLAB-081" points="1727.82,1544.41 1727.82,1365.79 1908.42,1365.79 1908.42,1544.41 1727.82,1544.41" fill="#2196F3" fill-opacity="0.45" stroke="#2196F3" stroke-width="0.8"/>
<text x="1818.1" y="1455.1" fill="#fff" font-size="9" text-anchor="middle" dominant-baseline="middle" font-family="Segoe UI, sans-serif" paint-order="stroke" stroke="#000" stroke-width="2" pointer-events="none">SLAB-081</text>
<polygon class="slab-poly" data-slab-id="SLAB-082" points="913.37,1365.79 1099.18,1365.79 1102.91,1365.79 1227.87,1365.79 1227.87,1544.41 1102.91,1544.41 1099.18,1544.41 913.37,1544.41 913.37,1365.79" fill="#2196F3" fill-opacity="0.45" stroke="#2196F3" stroke-width="0.8"/>
<text x="1070.6" y="1455.1" fill="#fff" font-size="9" text-anchor="middle" dominant-baseline="middle" font-family="Segoe UI, sans-serif" paint-order="stroke" stroke="#000" stroke-width="2" pointer-events="none">SLAB-082</text>
<polygon class="slab-poly" data-slab-id="SLAB-083" points="55.58,1544.41 55.58,1365.79 161.42,1365.79 161.42,1544.41 55.58,1544.41" fill="#2196F3" fill-opacity="0.45" stroke="#2196F3" stroke-width="0.8"/>
<text x="108.5" y="1455.1" fill="#fff" font-size="9" text-anchor="middle" dominant-baseline="middle" font-family="Segoe UI, sans-serif" paint-order="stroke" stroke="#000" stroke-width="2" pointer-events="none">SLAB-083</text>
</svg>