<svg xmlns="http://www.w3.org/2000/svg" width="3200" height="1600" viewBox="0 0 3200 1600">
<rect width="100%" height="100%" fill="#121212"/>
<polygon points="508.62,1179.80 625.00,1179.80 625.00,1188.77 630.97,1188.77 630.97,1188.77 636.93,1188.77 636.93,1179.80 905.67,1179.80 905.67,1188.77 911.64,1188.77 911.64,1448.90 905.48,1448.90 905.48,1457.87 636.93,1457.87 636.93,1448.90 630.97,1448.90 630.97,1448.90 625.00,1448.90 625.00,1457.87 508.62,1457.87 508.62,1448.90 502.65,1448.90 502.65,1188.77 508.62,1188.77 508.62,1179.80" fill="#FF9800" fill-opacity="0.12" stroke="#FFB74D" stroke-width="0.6"/>
<polygon points="362.41,910.88 368.37,910.88 374.34,910.88 374.34,901.91 490.71,901.91 490.71,910.88 496.68,910.88 496.68,1125.98 490.71,1125.98 490.71,1134.95 490.71,1143.92 496.68,1143.92 496.68,1448.90 490.71,1448.90 490.71,1457.87 99.82,1457.87 99.82,1448.90 93.85,1448.90 93.85,1143.92 99.82,1143.92 99.82,1134.95 99.82,1125.98 93.85,1125.98 93.85,910.88 99.82,910.88 99.82,901.91 362.41,901.91 362.41,910.88" fill="#FF9800" fill-opacity="0.12" stroke="#FFB74D" stroke-width="0.6"/>
<polygon points="636.93,901.91 905.67,901.91 905.67,910.88 911.64,910.88 911.64,1170.83 905.67,1170.83 905.67,1179.80 636.93,1179.80 636.93,1170.83 630.97,1170.83 630.97,1005.42 630.97,1170.83 625.00,1170.83 625.00,1179.80 508.62,1179.80 508.62,1179.80 508.62,1170.83 502.65,1170.83 502.65,910.88 508.62,910.88 508.62,901.91 625.00,901.91 625.00,910.88 630.97,910.88 630.97,910.88 636.93,910.88 636.93,901.91" fill="#FF9800" fill-opacity="0.12" stroke="#FFB74D" stroke-width="0.6"/>
<polygon points="1087.50,982.45 1024.83,982.45 1024.83,973.48 1018.87,973.48 1018.87,915.36 1024.83,915.36 1024.83,906.39 1087.50,906.39 1087.50,915.36 1093.47,915.36 1093.47,973.48 1087.50,973.48 1087.50,982.45" fill="#FF9800" fill-opacity="0.12" stroke="#FFB74D" stroke-width="0.6"/>
<polygon points="93.85,883.96 93.85,722.31 99.82,722.31 99.82,713.34 490.71,713.34 490.71,722.31 496.68,722.31 496.68,883.96 490.71,883.96 490.71,892.93 99.82,892.93 99.82,883.96 93.85,883.96" fill="#FF9800" fill-opacity="0.12" stroke="#FFB74D" stroke-width="0.6"/>
<polygon points="905.48,883.96 905.48,892.93 508.62,892.93 508.62,883.96 502.65,883.96 502.65,722.31 508.62,722.31 508.62,713.34 905.48,713.34 905.48,722.31 911.45,722.31 911.45,883.96 905.48,883.96" fill="#FF9800" fill-opacity="0.12" stroke="#FFB74D" stroke-width="0.6"/>
<polygon points="1323.24,883.96 1323.24,892.93 923.39,892.93 923.39,883.96 917.42,883.96 917.42,722.31 923.39,722.31 923.39,713.34 1323.24,713.34 1323.24,722.31 1329.20,722.31 1329.20,883.96 1323.24,883.96" fill="#FF9800" fill-opacity="0.12" stroke="#FFB74D" stroke-width="0.6"/>
<polygon points="75.94,161.47 87.88,161.47 87.88,883.96 81.91,883.96 81.91,892.93 81.91,892.93 81.91,901.91 87.88,901.91 87.88,955.54 81.91,955.54 81.91,964.51 81.91,973.48 87.88,973.48 87.88,1444.61 75.94,1444.61 75.94,982.45 55.04,982.45 55.04,973.48 49.07,973.47 49.16,883.95 55.13,883.96 55.13,874.99 75.94,874.99 75.94,161.47" fill="#FF9800" fill-opacity="0.12" stroke="#FFB74D" stroke-width="0.6"/>
<polygon points="374.34,435.26 490.71,435.26 490.71,444.23 496.68,444.23 496.68,695.40 490.71,695.40 490.71,704.37 374.34,704.37 374.34,695.40 368.37,695.40 362.41,695.40 362.41,704.37 99.82,704.37 99.82,695.40 93.85,695.40 93.85,444.23 99.82,444.23 99.82,435.26 362.41,435.26 362.41,444.23 368.37,444.23 374.34,444.23 374.34,435.26" fill="#FF9800" fill-opacity="0.12" stroke="#FFB74D" stroke-width="0.6"/>
<polygon points="508.62,157.18 508.62,148.21 625.00,148.21 625.00,157.18 630.97,157.18 630.97,157.18 636.93,157.18 636.93,148.21 905.48,148.21 905.48,157.18 911.45,157.18 911.45,426.29 905.48,426.29 905.48,435.26 636.93,435.26 636.93,426.29 630.97,426.29 630.97,426.29 625.00,426.29 625.00,435.26 508.62,435.26 625.00,435.26 625.00,444.13 630.97,444.13 630.97,560.10 630.97,444.13 636.93,444.13 636.93,435.26 905.48,435.26 905.48,444.23 911.45,444.23 911.45,695.40 905.48,695.40 905.48,704.37 636.93,704.37 636.93,695.40 630.97,695.40 630.97,695.40 625.00,695.40 625.00,704.37 508.62,704.37 508.62,695.40 502.65,695.40 502.65,444.23 508.62,444.23 508.62,435.26 508.62,435.26 508.62,426.29 502.65,426.29 502.65,157.18 508.62,157.18" fill="#FF9800" fill-opacity="0.12" stroke="#FFB74D" stroke-width="0.6"/>
<polygon points="923.39,578.78 917.42,578.78 917.42,444.23 923.39,444.23 923.39,435.26 1042.75,435.26 1042.75,444.23 1048.72,444.23 1048.72,444.23 1054.68,444.23 1054.68,435.26 1323.24,435.26 1054.68,435.26 1054.68,426.29 1048.72,426.29 1048.72,426.29 1042.75,426.29 1042.75,435.26 923.39,435.26 923.39,426.29 917.42,426.29 917.42,157.18 923.39,157.18 923.39,148.21 1042.75,148.21 1042.75,157.18 1048.72,157.18 1048.72,157.18 1054.68,157.18 1054.68,148.21 1323.24,148.21 1323.24,157.18 1329.20,157.18 1329.20,426.29 1323.24,426.29 1323.24,435.26 1323.24,435.26 1323.24,444.23 1329.20,444.23 1329.20,695.40 1323.24,695.40 1323.24,704.37 1054.68,704.37 1054.68,695.40 1048.72,695.40 1048.72,695.40 1042.75,695.40 1042.75,704.37 986.05,704.37 986.05,695.40 980.08,695.40 974.11,695.40 974.11,704.37 923.39,704.37 923.39,695.40 917.42,695.40 917.42,596.72 923.39,596.72 923.39,587.75 923.39,587.75 923.39,578.78" fill="#FF9800" fill-opacity="0.12" stroke="#FFB74D" stroke-width="0.6"/>
<polygon points="490.71,148.21 490.71,157.18 496.68,157.18 496.68,426.29 490.71,426.29 490.71,435.26 374.34,435.26 374.34,426.29 368.37,426.29 368.37,157.18 374.34,157.18 374.34,148.21 490.71,148.21" fill="#FF9800" fill-opacity="0.12" stroke="#FFB74D" stroke-width="0.6"/>
<polygon points="362.41,435.26 99.82,435.26 99.82,426.29 93.85,426.29 93.85,157.18 99.82,157.18 99.82,148.21 362.41,148.21 362.41,157.18 368.37,157.18 368.37,426.29 368.37,426.29 362.41,426.29 362.41,435.26" fill="#FF9800" fill-opacity="0.12" stroke="#FFB74D" stroke-width="0.6"/>
<polygon points="2076.69,1547.57 2076.69,1556.54 1987.23,1556.54 1987.23,1547.57 1981.26,1547.57 1981.26,1475.81 1987.23,1475.81 1987.23,1466.84 2076.69,1466.84 2076.69,1475.81 2082.66,1475.81 2082.66,1547.57 2076.69,1547.57" fill="#FF9800" fill-opacity="0.12" stroke="#FFB74D" stroke-width="0.6"/>
<polygon points="43.12,1449.21 81.91,1449.21 81.91,1467.15 49.05,1467.15 49.09,1511.90 49.06,1476.29 55.03,1476.28 55.01,1467.31 81.89,1467.15 81.91,1476.12 87.88,1476.12 87.88,1547.57 81.91,1547.57 81.94,1556.54 81.92,1556.54 93.85,1556.54 93.85,1475.81 99.82,1475.81 99.82,1467.14 160.16,1467.14 160.16,1476.12 166.12,1476.11 166.13,1556.86 166.13,1556.86 166.13,1476.12 172.09,1476.12 172.09,1467.14 418.57,1467.14 418.57,1476.11 424.54,1476.11 424.54,1476.12 430.48,1476.12 430.48,1467.14 490.71,1467.14 490.71,1475.81 496.68,1475.81 496.68,1556.54 508.62,1556.54 508.62,1547.57 502.65,1547.57 502.65,1475.81 508.62,1475.81 508.62,1466.84 565.31,1466.84 565.31,1475.81 571.28,1475.81 571.28,1475.81 577.25,1475.81 577.25,1466.84 648.07,1466.84 648.07,1475.81 654.03,1475.81 654.04,1556.86 654.04,1556.86 654.03,1475.81 660.00,1475.81 660.00,1466.84 742.86,1466.84 742.86,1475.81 748.83,1475.81 754.79,1475.81 754.79,1466.84 905.48,1466.84 905.48,1475.81 911.45,1475.81 911.45,1547.56 905.48,1547.56 905.48,1556.53 759.11,1556.53 989.03,1556.53 989.03,1547.56 983.06,1547.56 983.06,1556.53 923.39,1556.53 923.39,1547.56 917.42,1547.56 917.42,1475.81 923.39,1475.81 923.39,1466.84 923.39,1466.84 923.39,1457.87 917.61,1457.87 917.61,915.36 923.39,915.36 923.39,906.39 1012.90,906.39 1012.90,915.36 1018.87,915.36 1018.87,986.94 1185.97,986.94 1185.97,995.91 1191.93,995.91 1191.93,973.49 1185.97,973.49 1185.97,982.46 1099.43,982.46 1099.43,973.49 1093.47,973.49 1093.47,915.36 1099.43,915.36 1099.43,906.39 1185.97,906.39 1185.97,915.36 1191.93,915.36 1191.93,915.36 1197.90,915.36 1197.90,906.39 1323.24,906.39 1323.24,915.36 1329.20,915.36 1329.20,1072.16 1323.24,1072.16 1323.24,1081.13 1323.24,1090.10 1329.20,1090.10 1329.20,1368.69 1323.24,1368.69 1323.24,1377.66 1203.87,1377.66 1203.87,1359.72 1317.27,1359.72 1317.27,1099.07 1203.87,1099.07 1203.87,1368.69 1191.93,1368.69 1191.93,1386.63 1197.90,1386.63 1197.90,1377.66 1257.59,1377.66 1257.59,1386.63 1263.56,1386.63 1263.56,1386.63 1269.53,1386.63 1269.53,1377.66 1333.66,1377.66 1333.66,1386.61 1339.63,1386.61 1339.63,1386.66 1339.63,1386.61 1345.60,1386.61 1345.60,1377.66 1592.07,1377.66 1592.07,1386.61 1598.04,1386.61 1598.04,1386.66 1598.04,1386.61 1604.01,1386.61 1604.01,1377.66 1667.88,1377.66 1667.88,1386.63 1673.85,1386.63 1673.85,1556.63 1685.79,1556.63 1685.79,1547.66 1679.82,1547.66 1679.82,1475.81 1685.79,1475.81 1685.79,1466.84 1739.50,1466.84 1739.50,1475.81 1745.47,1475.81 1751.44,1475.81 1751.44,1466.84 1821.32,1466.84 1821.32,1475.81 1827.29,1475.81 1827.30,1556.99 1827.30,1556.99 1827.29,1475.81 1833.26,1475.81 1833.26,1466.84 1975.24,1466.84 1975.24,1475.81 1981.20,1475.81 1981.20,1556.83 2190.08,1556.55 2190.08,1547.57 2184.11,1547.57 2184.11,1556.54 2094.59,1556.54 2094.59,1547.57 2088.62,1547.57 2088.62,1475.81 2094.59,1475.81 2094.59,1466.84 2181.13,1466.84 2181.13,1475.81 2190.08,1475.81 2190.08,1475.81 2193.06,1475.81 2193.06,1467.14 2419.84,1467.14 2419.84,1475.81 2425.81,1475.81 2425.81,1475.81 2431.78,1475.81 2431.78,1466.84 2488.47,1466.84 2488.47,1475.81 2494.44,1475.81 2494.44,1547.57 2488.47,1547.57 2488.47,1556.84 2500.41,1556.84 2500.41,1475.81 2506.38,1475.81 2506.38,1466.84 2825.19,1466.84 2825.19,1475.81 2831.15,1475.81 2831.16,1556.92 2831.16,1556.92 2831.15,1475.81 2837.12,1475.81 2837.12,1466.84 2909.21,1466.84 2909.31,902.01 2915.18,902.01 2915.18,893.04 2941.97,893.04 2941.97,902.06 2947.96,902.07 2947.96,901.76 2959.90,901.76 2959.90,991.41 2953.93,991.41 2953.93,1000.38 2921.23,1000.38 2921.15,1448.91 2953.78,1448.97 2953.78,1457.87 2959.67,1457.87 2959.67,1565.51 2953.70,1565.51 2953.70,1574.48 2897.31,1574.48 2897.31,1574.49 2837.16,1574.86 2837.13,1565.89 2837.13,1574.86 2825.20,1574.87 2825.20,1565.90 2819.23,1565.90 2819.22,1484.78 2584.70,1484.78 2584.65,1565.82 2578.68,1565.81 2578.68,1574.79 2506.38,1574.79 2506.38,1565.81 2506.38,1574.79 2419.84,1574.79 2419.84,1565.81 2413.87,1565.81 2413.87,1485.09 2355.75,1485.09 2355.76,1565.95 2349.79,1565.96 2349.79,1574.93 2337.86,1574.93 2337.85,1565.96 2331.89,1565.96 2331.88,1485.09 2202.01,1485.09 2202.01,1565.51 2196.04,1565.51 2196.05,1574.48 1975.24,1574.78 1975.24,1565.81 1969.27,1565.81 1969.27,1484.78 1839.23,1484.78 1839.24,1565.95 1833.27,1565.96 1833.27,1574.93 1821.33,1574.93 1821.33,1565.96 1815.36,1565.96 1815.36,1484.78 1757.40,1484.78 1757.40,1565.60 1751.44,1565.60 1751.44,1574.57 1667.88,1574.57 1667.88,1565.60 1661.92,1565.60 1661.92,1395.60 1609.97,1395.60 1609.97,1476.33 1604.01,1476.33 1604.01,1485.30 1592.07,1485.30 1592.07,1476.33 1586.10,1476.33 1586.10,1395.60 1351.56,1395.60 1351.56,1476.33 1345.60,1476.33 1345.60,1485.30 1333.66,1485.30 1333.66,1476.33 1327.69,1476.33 1327.69,1395.60 1275.49,1395.60 1275.49,1565.43 1269.53,1565.43 1269.53,1574.40 1185.98,1574.40 1185.98,1565.43 1180.01,1565.43 1180.01,1484.78 1095.09,1484.78 1095.10,1565.89 1089.13,1565.89 1089.13,1574.86 1077.20,1574.87 1077.20,1565.90 1071.23,1565.90 1071.22,1484.78 1000.97,1484.78 1000.97,1565.50 995.00,1565.50 995.00,1574.47 742.86,1574.47 742.86,1565.50 736.89,1565.50 736.89,1484.78 665.97,1484.78 665.98,1565.83 660.01,1565.83 660.01,1574.80 648.08,1574.80 648.07,1565.83 642.11,1565.84 642.10,1484.78 583.22,1484.78 583.22,1565.51 577.25,1565.51 577.25,1574.48 490.83,1574.48 490.83,1574.52 418.52,1574.21 418.54,1565.24 412.57,1565.23 412.60,1485.09 178.06,1485.09 178.07,1565.83 172.10,1565.83 172.10,1574.80 160.17,1574.80 160.17,1565.83 159.97,1565.83 160.00,1574.13 99.84,1574.49 99.82,1565.54 99.82,1574.48 43.16,1574.48 43.16,1565.51 37.19,1565.52 37.11,1458.35 43.12,1458.34 43.12,1449.21" fill="#FF9800" fill-opacity="0.12" stroke="#FFB74D" stroke-width="0.6"/>
<polygon points="2506.38,973.48 2500.41,973.48 2500.41,910.88 2506.38,910.88 2506.38,901.91 2554.12,901.91 2554.12,910.88 2560.08,910.88 2560.08,910.88 2566.05,910.88 2566.05,901.91 2697.35,901.91 2697.35,910.88 2703.32,910.88 2703.32,910.88 2709.29,910.88 2709.29,901.91 2897.27,901.91 2897.27,910.88 2903.24,910.88 2903.24,1448.90 2897.27,1448.90 2897.27,1457.87 2709.29,1457.87 2709.29,1448.90 2703.32,1448.90 2703.32,1448.90 2697.35,1448.90 2697.35,1457.87 2506.38,1457.87 2506.38,1448.90 2500.41,1448.90 2500.41,991.42 2506.38,991.42 2506.38,982.45 2506.38,973.48" fill="#FF9800" fill-opacity="0.12" stroke="#FFB74D" stroke-width="0.6"/>
<polygon points="1685.79,901.91 1799.18,901.91 1799.18,910.88 1805.15,910.88 1811.12,910.88 1811.12,901.91 1978.20,901.91 1978.20,910.88 1984.17,910.88 1990.14,910.88 1990.14,901.91 2076.69,901.91 2076.69,910.88 2082.65,910.88 2082.65,1161.86 2076.69,1161.86 2076.69,1170.83 2076.69,1170.83 2076.69,1179.80 2082.65,1179.80 2082.65,1448.90 2076.69,1448.90 2076.69,1457.87 1990.14,1457.87 1990.14,1448.90 1984.17,1448.90 1978.20,1448.90 1978.20,1457.87 1811.12,1457.87 1811.12,1448.90 1805.15,1448.90 1805.15,1448.90 1799.18,1448.90 1799.18,1457.87 1685.79,1457.87 1685.79,1448.90 1679.82,1448.90 1679.82,1179.80 1685.79,1179.80 1685.79,1170.83 1685.79,1170.83 1685.79,1161.86 1679.82,1161.86 1679.82,910.88 1685.79,910.88 1685.79,901.91" fill="#FF9800" fill-opacity="0.12" stroke="#FFB74D" stroke-width="0.6"/>
<polygon points="2360.16,901.91 2360.16,910.88 2366.13,910.88 2366.13,1161.86 2360.16,1161.86 2360.16,1170.83 2360.16,1170.83 2360.16,1179.80 2366.13,1179.80 2366.13,1195.63 2366.13,1179.80 2372.10,1179.80 2372.10,1170.83 2372.10,1161.86 2366.13,1161.86 2366.13,910.88 2372.10,910.88 2372.10,901.91 2488.47,901.91 2488.47,910.88 2494.44,910.88 2494.44,1161.86 2488.47,1161.86 2488.47,1170.83 2488.47,1179.80 2494.44,1179.80 2494.44,1448.90 2488.47,1448.90 2488.47,1457.87 2372.10,1457.87 2372.10,1448.90 2366.13,1448.90 2366.13,1448.90 2360.16,1448.90 2360.16,1457.87 2094.59,1457.87 2094.59,1448.90 2088.62,1448.90 2088.62,1179.80 2094.59,1179.80 2094.59,1170.83 2094.59,1170.83 2094.59,1161.86 2088.62,1161.86 2088.62,910.88 2094.59,910.88 2094.59,901.91 2360.16,901.91" fill="#FF9800" fill-opacity="0.12" stroke="#FFB74D" stroke-width="0.6"/>
<polygon points="1667.88,1359.72 1667.88,1368.69 1341.14,1368.69 1341.14,1359.72 1335.17,1359.72 1335.17,910.88 1341.14,910.88 1341.14,901.91 1667.88,901.91 1667.88,910.88 1673.85,910.88 1673.85,1359.72 1667.88,1359.72" fill="#FF9800" fill-opacity="0.12" stroke="#FFB74D" stroke-width="0.6"/>
<polygon points="1673.85,883.96 1667.88,883.96 1667.88,892.93 1341.14,892.93 1341.14,883.96 1335.17,883.96 1335.17,722.31 1341.14,722.31 1341.14,713.34 1667.88,713.34 1667.88,722.31 1673.85,722.31 1673.85,883.96" fill="#FF9800" fill-opacity="0.12" stroke="#FFB74D" stroke-width="0.6"/>
<polygon points="2076.69,883.96 2076.69,892.93 1685.79,892.93 1685.79,883.96 1679.82,883.96 1679.82,722.31 1685.79,722.31 1685.79,713.34 2076.69,713.34 2076.69,722.31 2082.65,722.31 2082.65,883.96 2076.69,883.96" fill="#FF9800" fill-opacity="0.12" stroke="#FFB74D" stroke-width="0.6"/>
<polygon points="2488.47,883.96 2488.47,892.93 2094.59,892.93 2094.59,883.96 2088.62,883.96 2088.62,722.31 2094.59,722.31 2094.59,713.34 2488.47,713.34 2488.47,722.31 2494.44,722.31 2494.44,883.96 2488.47,883.96" fill="#FF9800" fill-opacity="0.12" stroke="#FFB74D" stroke-width="0.6"/>
<polygon points="2897.27,883.96 2897.27,892.93 2506.38,892.93 2506.38,883.96 2500.41,883.96 2500.41,722.31 2506.38,722.31 2506.38,713.34 2897.27,713.34 2897.27,722.31 2903.24,722.31 2903.24,883.96 2897.27,883.96" fill="#FF9800" fill-opacity="0.12" stroke="#FFB74D" stroke-width="0.6"/>
<polygon points="3100.18,883.96 3100.18,892.75 2915.18,892.75 2915.18,883.78 2909.21,883.78 2909.21,363.50 2915.18,363.50 2915.18,354.82 3100.18,354.82 3100.18,363.50 3106.15,363.50 3106.15,883.96 3100.18,883.96" fill="#FF9800" fill-opacity="0.12" stroke="#FFB74D" stroke-width="0.6"/>
<polygon points="43.10,40.63 43.09,31.96 201.27,31.80 201.27,40.63 207.22,40.62 207.27,121.59 334.06,121.59 334.06,40.85 340.02,40.85 340.02,31.88 351.96,31.88 351.96,40.85 357.93,40.85 357.93,121.59 416.12,121.59 416.12,40.63 422.09,40.63 422.09,31.66 577.25,31.66 577.25,40.63 583.22,40.63 583.22,121.30 650.72,121.30 650.72,40.85 656.69,40.85 656.69,31.88 668.62,31.88 668.62,40.85 674.59,40.85 674.59,121.30 798.06,121.30 798.06,40.97 804.03,40.97 804.02,32.00 994.99,31.66 995.00,40.63 1000.97,40.63 1000.97,121.30 1068.47,121.30 1068.47,40.55 1074.44,40.55 1074.44,31.58 1086.37,31.58 1086.37,40.55 1092.34,40.55 1092.34,121.30 1215.81,121.30 1215.81,40.63 1221.78,40.63 1221.78,31.66 1341.14,31.66 1341.14,40.62 1347.11,40.62 1347.11,686.43 1661.91,686.43 1661.91,157.47 1638.11,157.47 1638.11,148.50 1632.14,148.50 1632.14,40.85 1638.11,40.85 1638.11,31.88 1667.88,31.88 1667.88,40.54 1667.88,40.54 1667.88,31.57 1751.44,31.57 1751.44,40.54 1757.40,40.54 1757.40,121.30 1815.65,121.30 1815.65,40.55 1821.62,40.55 1821.62,31.58 1833.56,31.58 1833.56,40.55 1839.52,40.55 1839.52,121.30 1972.25,121.30 1972.25,40.63 1978.22,40.63 1978.22,31.66 2193.06,31.66 2193.06,40.63 2199.03,40.63 2199.03,121.30 2315.17,121.30 2315.17,40.76 2321.14,40.76 2321.14,31.79 2333.07,31.79 2333.07,40.76 2339.04,40.76 2339.04,121.30 2413.87,121.30 2413.87,40.63 2419.84,40.63 2419.84,31.66 2575.01,31.66 2575.01,40.63 2580.98,40.63 2580.98,121.30 2639.22,121.30 2639.22,40.55 2645.19,40.55 2645.19,31.58 2657.13,31.58 2657.13,40.55 2663.10,40.55 2663.10,121.30 2789.85,121.30 2789.85,40.54 2795.79,40.54 2795.78,31.87 2915.17,31.57 2915.17,31.87 2953.99,31.91 2953.98,40.88 2959.95,40.88 2959.95,148.52 2953.98,148.52 2953.98,157.49 2921.15,157.49 2921.15,336.88 3094.22,336.88 3094.21,273.81 3100.18,273.81 3100.18,264.82 3112.12,264.82 3112.12,273.79 3118.09,273.79 3118.09,336.59 3139.08,336.59 3139.08,345.56 3145.05,345.54 3145.07,363.48 3139.10,363.50 3139.10,372.47 3118.09,372.47 3118.09,466.89 3139.01,466.86 3139.02,475.83 3144.98,475.77 3145.07,493.79 3139.10,493.85 3139.10,502.82 3118.09,502.82 3118.09,875.10 3138.90,875.10 3138.90,884.07 3144.87,884.07 3144.87,991.41 3138.90,991.41 3138.90,1000.38 3100.12,1000.38 3100.12,991.41 3094.15,991.36 3094.22,973.46 3094.22,911.00 2985.87,910.98 2985.87,893.04 3100.18,893.06 3100.18,910.73 3106.15,910.73 3106.15,964.51 3106.15,964.51 3106.15,493.56 3112.12,493.56 3112.12,484.88 3133.09,484.88 3133.09,484.81 3112.12,484.84 3112.12,475.62 3106.15,475.62 3106.15,363.50 3112.12,363.50 3112.12,354.53 3133.12,354.53 3133.12,354.53 3112.12,354.53 3112.12,345.56 3106.15,345.56 3106.15,282.76 3106.15,282.76 3106.15,345.56 3100.18,345.56 3100.18,354.82 2915.18,354.82 2915.18,345.56 2909.21,345.56 2909.21,58.82 2915.18,58.82 2915.18,49.85 2942.05,49.85 2942.05,58.82 2948.02,58.82 2948.02,49.84 2915.02,49.81 2915.02,49.51 2809.57,49.78 2897.28,49.78 2897.28,58.48 2903.24,58.48 2903.24,130.27 2897.28,130.27 2897.28,139.24 2813.72,139.24 2813.72,121.30 2891.31,121.30 2891.31,67.72 2813.72,67.72 2813.72,130.27 2801.79,130.27 2801.79,139.24 2575.01,139.24 2575.01,130.27 2569.04,130.27 2569.04,130.27 2563.07,130.27 2563.07,139.24 2506.38,139.24 2506.38,130.27 2500.41,130.27 2500.41,58.57 2506.38,58.57 2506.38,49.60 2488.47,49.60 2488.47,58.57 2494.44,58.57 2494.44,130.27 2488.47,130.27 2488.47,139.24 2431.78,139.24 2431.78,130.27 2425.81,130.27 2425.81,58.57 2431.78,58.57 2431.78,49.60 2425.81,49.60 2425.81,130.27 2419.84,130.27 2419.84,139.24 2193.06,139.24 2193.06,130.27 2187.09,130.27 2187.09,130.27 2181.13,130.27 2181.13,139.24 2094.59,139.24 2094.59,130.27 2088.62,130.27 2088.62,58.57 2094.59,58.57 2094.59,49.60 2173.08,49.60 1984.18,49.60 1984.18,58.57 1990.15,58.57 1990.15,49.60 2076.69,49.60 2076.69,58.57 2082.66,58.57 2082.66,130.27 2076.69,130.27 2076.69,139.24 1990.15,139.24 1990.15,130.27 1984.18,130.27 1978.22,130.27 1978.22,139.24 1966.28,139.24 1966.28,152.70 2076.69,152.70 2076.69,161.67 2082.65,161.67 2082.65,327.61 2088.62,327.61 2088.62,157.18 2094.59,157.18 2094.59,148.21 2360.16,148.21 2360.16,157.18 2366.13,157.18 2366.13,157.18 2372.10,157.18 2372.10,148.21 2488.47,148.21 2488.47,157.18 2494.44,157.18 2494.44,426.29 2488.47,426.29 2488.47,435.26 2372.10,435.26 2372.10,426.29 2366.13,426.29 2366.13,157.18 2366.13,426.29 2360.16,426.29 2360.16,435.26 2094.59,435.26 2360.16,435.26 2360.16,444.23 2366.13,444.23 2372.10,444.23 2372.10,435.26 2488.47,435.26 2488.47,444.23 2494.44,444.23 2494.44,695.40 2488.47,695.40 2488.47,704.37 2372.10,704.37 2372.10,695.40 2366.13,695.40 2360.16,695.40 2360.16,704.37 2094.59,704.37 2094.59,695.40 2088.62,695.40 2088.62,444.23 2094.59,444.23 2094.59,435.26 2094.59,435.26 2094.59,426.29 2088.62,426.29 2088.62,363.49 2082.65,363.49 2082.65,695.40 2076.69,695.40 2076.69,704.37 1685.79,704.37 1685.79,695.40 1679.82,695.40 1679.82,363.49 1673.85,363.49 1673.85,695.40 1667.88,695.40 1667.88,704.37 1341.14,704.37 1341.14,695.40 1335.17,695.40 1335.18,130.27 1335.17,130.27 1335.17,49.60 1323.24,49.60 1323.24,58.57 1329.21,58.57 1329.21,130.27 1323.24,130.27 1323.24,139.24 1233.72,139.24 1233.72,130.27 1227.75,130.27 1221.78,130.27 1221.78,139.24 995.00,139.24 995.00,130.27 989.03,130.27 989.03,130.27 983.06,130.27 983.06,139.24 923.39,139.24 923.39,130.27 917.42,130.27 917.42,58.57 923.39,58.57 923.39,49.73 905.48,49.76 905.48,58.57 911.45,58.57 911.45,130.27 905.48,130.27 905.48,139.24 821.93,139.24 821.93,130.27 810.00,130.27 810.00,58.57 815.97,58.57 815.97,49.92 810.00,49.93 810.00,130.61 810.00,130.61 810.00,139.24 577.25,139.24 577.25,130.27 571.28,130.27 571.28,130.27 565.31,130.27 565.31,139.24 508.62,139.24 508.62,130.27 502.65,130.27 502.65,58.57 508.62,58.57 508.62,49.60 490.71,49.60 490.71,58.57 496.68,58.57 496.68,130.27 490.71,130.27 490.71,139.24 434.02,139.24 434.02,130.27 428.05,130.27 422.09,130.27 422.09,139.53 201.27,139.53 201.27,130.27 195.34,130.28 195.29,49.74 183.38,49.76 183.39,58.58 195.29,58.56 195.33,130.26 189.36,130.27 189.36,139.24 99.82,139.24 99.82,130.27 93.85,130.27 93.85,58.57 99.82,58.57 99.81,49.84 81.90,49.86 81.90,58.57 87.88,58.57 87.89,130.63 81.93,130.63 81.93,139.60 81.91,139.60 81.91,157.54 43.10,157.54 43.10,148.57 37.13,148.57 37.17,40.62 43.10,40.63" fill="#FF9800" fill-opacity="0.12" stroke="#FFB74D" stroke-width="0.6"/>
<polygon points="2634.69,444.13 2634.69,435.26 2897.27,435.26 2634.69,435.26 2634.69,426.29 2628.72,426.29 2628.72,426.29 2622.75,426.29 2622.75,435.26 2506.38,435.26 2506.38,426.29 2500.41,426.29 2500.41,157.18 2506.38,157.18 2506.38,148.21 2622.75,148.21 2622.75,157.18 2628.72,157.18 2628.72,157.18 2634.69,157.18 2634.69,148.21 2897.27,148.21 2897.27,157.18 2903.24,157.18 2903.24,426.29 2897.27,426.29 2897.27,435.26 2897.27,435.26 2897.27,444.23 2903.24,444.23 2903.24,695.40 2897.27,695.40 2897.27,704.37 2634.69,704.37 2634.69,695.40 2628.72,695.40 2628.72,569.77 2628.72,695.40 2622.75,695.40 2622.75,704.37 2506.38,704.37 2506.38,695.40 2500.41,695.40 2500.41,444.23 2506.38,444.23 2506.38,435.26 2622.75,435.26 2622.75,444.13 2628.72,444.13 2628.72,444.13 2634.69,444.13" fill="#FF9800" fill-opacity="0.12" stroke="#FFB74D" stroke-width="0.6"/>
<polygon class="slab-poly" data-slab-id="SLAB-001" points="2088.92,359.66 1852.59,359.66 1852.59,136.13 2088.92,136.13 2088.92,296.23 2073.78,296.23 2073.49,296.25 2073.20,296.32 2072.92,296.42 2072.64,296.57 2072.37,296.76 2072.12,296.99 2071.89,297.25 2071.67,297.54 2071.47,297.87 2071.30,298.22 2071.15,298.60 2071.02,299.00 2070.93,299.41 2070.85,299.84 2070.81,300.28 2070.80,300.72 2070.80,354.53 2070.81,354.97 2070.85,355.41 2070.93,355.83 2071.02,356.25 2071.15,356.65 2071.30,357.02 2071.47,357.38 2071.67,357.70 2071.89,358.00 2072.12,358.26 2072.37,358.49 2072.64,358.68 2072.92,358.82 2073.20,358.93 2073.49,359.00 2073.78,359.02 2088.92,359.02 2088.92,359.66" fill="#66BB6A" fill-opacity="0.45" stroke="#66BB6A" stroke-width="1.5"/>
<polygon class="slab-poly" data-slab-id="SLAB-002" points="2825.83,136.13 2825.92,140.95 2827.05,154.05 2829.02,166.91 2831.82,179.43 2835.43,191.47 2839.80,202.92 2844.90,213.68 2850.68,223.62 2857.07,232.68 2864.03,240.74 2870.63,246.95 2865.45,251.62 2858.40,259.48 2854.96,264.16 2838.37,275.96 2815.76,296.32 2794.59,319.92 2775.07,346.52 2757.37,375.88 2741.67,407.69 2728.12,441.67 2716.85,477.48 2707.97,514.78 2701.57,553.21 2697.70,592.39 2696.41,631.96 2696.41,632.01 2696.41,632.06 2697.70,671.63 2701.57,710.81 2702.06,713.79 2625.44,713.79 2625.44,226.88 2625.56,226.72 2631.54,217.05 2636.86,206.55 2641.48,195.31 2645.33,183.45 2648.40,171.07 2650.64,158.31 2652.04,145.27 2652.42,136.13 2825.83,136.13" fill="#66BB6A" fill-opacity="0.45" stroke="#66BB6A" stroke-width="1.5"/>
<text x="2706.3" y="359.3" fill="#fff" font-size="9" text-anchor="middle" dominant-baseline="middle" font-family="Segoe UI, sans-serif" paint-order="stroke" stroke="#000" stroke-width="2" pointer-events="none">SLAB-002</text>
<polygon class="slab-poly" data-slab-id="SLAB-003" points="1195.22,713.79 1062.76,713.79 1062.91,712.50 1063.60,699.34 1063.42,686.14 1062.39,673.03 1060.51,660.13 1057.79,647.57 1057.35,646.06 1057.79,644.54 1060.51,631.99 1062.39,619.09 1063.42,605.98 1063.60,592.77 1062.91,579.61 1061.37,566.61 1058.98,553.90 1055.78,541.60 1051.79,529.84 1047.06,518.72 1041.62,508.34 1035.53,498.83 1028.85,490.25 1021.65,482.70 1013.98,476.24 1005.94,470.95 997.58,466.87 989.00,464.04 980.28,462.48 971.49,462.22 962.73,463.26 954.09,465.58 948.75,467.84 943.42,465.58 934.77,463.26 926.02,462.22 917.23,462.48 908.51,464.04 908.27,464.12 908.27,262.83 913.52,264.10 922.29,264.91 931.07,264.42 939.78,262.65 948.32,259.60 953.23,257.06 958.14,259.60 966.69,262.65 975.39,264.42 984.17,264.91 992.94,264.10 1001.61,262.00 1010.11,258.64 1018.34,254.03 1026.24,248.24 1033.71,241.32 1040.71,233.32 1047.14,224.33 1052.96,214.44 1058.11,203.74 1062.53,192.33 1066.19,180.32 1069.05,167.84 1071.08,154.99 1072.26,141.91 1072.40,136.13 1175.79,136.13 1179.26,156.98 1188.14,194.28 1195.22,216.75 1195.22,713.79" fill="#66BB6A" fill-opacity="0.45" stroke="#66BB6A" stroke-width="1.5"/>
<text x="1085.3" y="409.6" fill="#fff" font-size="9" text-anchor="middle" dominant-baseline="middle" font-family="Segoe UI, sans-serif" paint-order="stroke" stroke="#000" stroke-width="2" pointer-events="none">SLAB-003</text>
<polygon class="slab-poly" data-slab-id="SLAB-004" points="914.83,462.91 908.51,464.04 899.93,466.87 891.57,470.95 883.53,476.24 875.86,482.70 868.66,490.25 861.98,498.83 855.89,508.34 850.45,518.72 845.71,529.84 841.73,541.60 838.53,553.90 836.14,566.61 834.60,579.61 833.91,592.77 834.08,605.98 835.12,619.09 837.00,631.99 839.72,644.54 840.16,646.06 839.72,647.57 837.00,660.13 835.12,673.03 834.08,686.14 833.91,699.34 834.60,712.50 834.75,713.79 627.68,713.79 627.68,226.93 627.84,226.71 633.82,217.04 639.14,206.53 643.75,195.29 647.60,183.42 650.66,171.04 652.90,158.27 654.29,145.24 654.67,136.13 834.06,136.13 834.20,141.91 835.39,154.99 837.42,167.84 840.27,180.32 843.93,192.33 848.35,203.74 853.50,214.44 859.32,224.33 865.76,233.32 872.75,241.32 880.23,248.24 888.12,254.03 896.36,258.64 904.85,262.00 913.52,264.10 914.83,264.22 914.83,462.91" fill="#66BB6A" fill-opacity="0.45" stroke="#66BB6A" stroke-width="1.5"/>
<text x="753.2" y="419.0" fill="#fff" font-size="9" text-anchor="middle" dominant-baseline="middle" font-family="Segoe UI, sans-serif" paint-order="stroke" stroke="#000" stroke-width="2" pointer-events="none">SLAB-004</text>
<polygon class="slab-poly" data-slab-id="SLAB-005" points="2369.41,713.79 2082.36,713.79 2082.36,359.02 2091.69,359.02 2091.98,359.00 2092.27,358.93 2092.55,358.82 2092.83,358.68 2093.09,358.49 2093.34,358.26 2093.58,358.00 2093.80,357.70 2093.99,357.38 2094.17,357.02 2094.32,356.65 2094.44,356.25 2094.54,355.83 2094.61,355.41 2094.66,354.97 2094.67,354.53 2094.67,300.72 2094.66,300.28 2094.61,299.84 2094.54,299.41 2094.44,299.00 2094.32,298.60 2094.17,298.22 2093.99,297.87 2093.80,297.54 2093.58,297.25 2093.34,296.99 2093.09,296.76 2092.83,296.57 2092.55,296.42 2092.27,296.32 2091.98,296.25 2091.69,296.23 2082.36,296.23 2082.36,136.13 2342.44,136.13 2342.82,145.27 2344.22,158.31 2346.46,171.07 2349.53,183.45 2353.38,195.31 2358.00,206.55 2363.32,217.05 2369.30,226.72 2369.41,226.87 2369.41,713.79" fill="#66BB6A" fill-opacity="0.45" stroke="#66BB6A" stroke-width="1.5"/>
<text x="2225.2" y="428.0" fill="#fff" font-size="9" text-anchor="middle" dominant-baseline="middle" font-family="Segoe UI, sans-serif" paint-order="stroke" stroke="#000" stroke-width="2" pointer-events="none">SLAB-005</text>
<polygon class="slab-poly" data-slab-id="SLAB-006" points="371.66,713.79 90.57,713.79 90.57,277.31 96.17,276.37 104.76,273.63 113.14,269.64 121.21,264.43 128.90,258.06 136.15,250.59 142.87,242.08 149.00,232.63 154.49,222.32 159.27,211.25 163.32,199.53 166.58,187.26 169.02,174.58 170.63,161.60 171.38,148.44 171.27,136.13 344.69,136.13 345.05,145.05 346.44,158.08 348.68,170.85 351.73,183.23 355.58,195.10 360.19,206.35 365.51,216.86 371.48,226.54 371.66,226.77 371.66,713.79" fill="#66BB6A" fill-opacity="0.45" stroke="#66BB6A" stroke-width="1.5"/>
<text x="235.9" y="441.1" fill="#fff" font-size="9" text-anchor="middle" dominant-baseline="middle" font-family="Segoe UI, sans-serif" paint-order="stroke" stroke="#000" stroke-width="2" pointer-events="none">SLAB-006</text>
<polygon class="slab-poly" data-slab-id="SLAB-007" points="1859.15,136.13 1859.15,713.79 1675.34,713.79 1675.34,359.02 1685.87,359.02 1686.16,359.00 1686.45,358.93 1686.74,358.82 1687.01,358.68 1687.28,358.49 1687.53,358.26 1687.76,358.00 1687.98,357.70 1688.18,357.38 1688.35,357.02 1688.50,356.65 1688.63,356.25 1688.73,355.83 1688.80,355.41 1688.84,354.97 1688.85,354.53 1688.85,300.72 1688.84,300.28 1688.80,299.84 1688.73,299.41 1688.63,299.00 1688.50,298.60 1688.35,298.22 1688.18,297.87 1687.98,297.54 1687.76,297.25 1687.53,296.99 1687.28,296.76 1687.01,296.57 1686.74,296.42 1686.45,296.32 1686.16,296.25 1685.87,296.23 1675.34,296.23 1675.34,264.77 1678.14,264.30 1680.55,264.69 1689.34,264.81 1698.09,263.64 1706.72,261.19 1712.65,258.58 1718.58,261.19 1727.21,263.64 1735.96,264.81 1744.75,264.69 1753.48,263.27 1762.08,260.57 1770.46,256.62 1778.55,251.45 1786.25,245.11 1793.51,237.67 1800.25,229.20 1806.40,219.77 1811.91,209.49 1816.72,198.44 1820.79,186.73 1824.07,174.49 1826.54,161.82 1828.18,148.84 1828.93,136.13 1859.15,136.13" fill="#66BB6A" fill-opacity="0.45" stroke="#66BB6A" stroke-width="1.5"/>
<text x="1772.6" y="470.4" fill="#fff" font-size="9" text-anchor="middle" dominant-baseline="middle" font-family="Segoe UI, sans-serif" paint-order="stroke" stroke="#000" stroke-width="2" pointer-events="none">SLAB-007</text>
<polygon class="slab-poly" data-slab-id="SLAB-008" points="494.00,713.79 365.09,713.79 365.09,216.04 365.51,216.86 371.48,226.54 378.06,235.29 385.18,243.03 392.77,249.68 400.75,255.18 409.06,259.49 417.60,262.54 426.31,264.32 435.09,264.82 443.86,264.01 452.53,261.92 461.03,258.56 462.23,257.88 463.60,258.65 472.09,262.03 480.77,264.14 489.53,264.96 494.00,264.72 494.00,713.79" fill="#66BB6A" fill-opacity="0.45" stroke="#66BB6A" stroke-width="1.5"/>
<polygon class="slab-poly" data-slab-id="SLAB-009" points="2632.00,713.79 2362.85,713.79 2362.85,216.12 2363.32,217.05 2369.30,226.72 2375.89,235.46 2383.01,243.19 2390.60,249.84 2398.59,255.33 2406.90,259.62 2415.45,262.66 2424.16,264.43 2432.93,264.91 2441.70,264.09 2450.38,261.98 2458.87,258.61 2460.13,257.91 2461.39,258.61 2469.89,261.98 2478.56,264.09 2487.33,264.91 2496.11,264.43 2497.43,264.16 2498.76,264.43 2507.53,264.91 2516.30,264.09 2524.97,261.98 2533.47,258.61 2534.73,257.91 2535.99,258.61 2544.49,261.98 2553.16,264.09 2561.93,264.91 2570.71,264.43 2579.41,262.66 2587.96,259.62 2596.27,255.33 2604.26,249.84 2611.85,243.19 2618.97,235.46 2625.56,226.72 2631.54,217.05 2632.00,216.14 2632.00,713.79" fill="#66BB6A" fill-opacity="0.45" stroke="#66BB6A" stroke-width="1.5"/>
<text x="2497.4" y="484.8" fill="#fff" font-size="9" text-anchor="middle" dominant-baseline="middle" font-family="Segoe UI, sans-serif" paint-order="stroke" stroke="#000" stroke-width="2" pointer-events="none">SLAB-009</text>
<polygon class="slab-poly" data-slab-id="SLAB-010" points="1326.52,713.79 1188.65,713.79 1188.65,195.89 1199.41,230.09 1212.96,264.06 1228.66,295.88 1246.36,325.24 1265.89,351.84 1287.05,375.44 1309.66,395.80 1326.52,407.79 1326.52,713.79" fill="#66BB6A" fill-opacity="0.45" stroke="#66BB6A" stroke-width="1.5"/>
<polygon class="slab-poly" data-slab-id="SLAB-011" points="2088.92,713.79 1852.59,713.79 1852.59,349.79 2070.80,349.79 2070.80,354.53 2070.81,354.97 2070.85,355.41 2070.93,355.83 2071.02,356.25 2071.15,356.65 2071.30,357.02 2071.47,357.38 2071.67,357.70 2071.89,358.00 2072.12,358.26 2072.37,358.49 2072.64,358.68 2072.92,358.82 2073.20,358.93 2073.49,359.00 2073.78,359.02 2088.92,359.02 2088.92,713.79" fill="#66BB6A" fill-opacity="0.45" stroke="#66BB6A" stroke-width="1.5"/>
<text x="1970.5" y="532.1" fill="#fff" font-size="9" text-anchor="middle" dominant-baseline="middle" font-family="Segoe UI, sans-serif" paint-order="stroke" stroke="#000" stroke-width="2" pointer-events="none">SLAB-011</text>
<polygon class="slab-poly" data-slab-id="SLAB-012" points="1681.91,713.79 1337.86,713.79 1337.86,415.09 1358.30,426.08 1383.86,435.71 1409.93,441.52 1436.26,443.47 1462.58,441.52 1488.65,435.71 1514.21,426.08 1539.03,412.74 1562.85,395.80 1585.46,375.44 1606.63,351.84 1626.15,325.24 1643.85,295.88 1659.29,264.59 1664.62,265.27 1673.41,265.09 1678.14,264.30 1680.55,264.69 1681.91,264.71 1681.91,296.23 1667.96,296.23 1667.67,296.25 1667.38,296.32 1667.10,296.42 1666.82,296.57 1666.56,296.76 1666.31,296.99 1666.07,297.25 1665.85,297.54 1665.66,297.87 1665.48,298.22 1665.33,298.60 1665.21,299.00 1665.11,299.41 1665.04,299.84 1665.00,300.28 1664.98,300.72 1664.98,354.53 1665.00,354.97 1665.04,355.41 1665.11,355.83 1665.21,356.25 1665.33,356.65 1665.48,357.02 1665.66,357.38 1665.85,357.70 1666.07,358.00 1666.31,358.26 1666.56,358.49 1666.82,358.68 1667.10,358.82 1667.38,358.93 1667.67,359.00 1667.96,359.02 1681.91,359.02 1681.91,713.79" fill="#66BB6A" fill-opacity="0.45" stroke="#66BB6A" stroke-width="1.5"/>
<text x="1523.5" y="551.1" fill="#fff" font-size="9" text-anchor="middle" dominant-baseline="middle" font-family="Segoe UI, sans-serif" paint-order="stroke" stroke="#000" stroke-width="2" pointer-events="none">SLAB-012</text>
<polygon class="slab-poly" data-slab-id="SLAB-013" points="2362.85,898.67 2362.85,703.92 2632.00,703.92 2632.00,844.61 2631.76,843.90 2627.02,832.78 2621.58,822.42 2615.48,812.91 2608.80,804.34 2601.59,796.79 2593.92,790.35 2585.87,785.07 2577.51,781.00 2568.93,778.18 2560.21,776.63 2551.42,776.38 2542.67,777.43 2534.02,779.76 2530.25,781.36 2526.49,779.76 2517.84,777.43 2509.08,776.38 2500.30,776.63 2491.57,778.17 2482.99,780.99 2474.63,785.07 2466.58,790.35 2458.91,796.79 2451.70,804.34 2445.02,812.90 2438.93,822.42 2433.48,832.78 2428.74,843.90 2424.75,855.66 2421.54,867.95 2419.15,880.66 2417.60,893.65 2417.33,898.67 2362.85,898.67" fill="#66BB6A" fill-opacity="0.45" stroke="#66BB6A" stroke-width="1.5"/>
<polygon class="slab-poly" data-slab-id="SLAB-014" points="90.57,703.92 371.66,703.92 371.66,898.67 171.32,898.67 171.03,889.16 169.77,876.09 167.67,863.27 164.73,850.82 161.00,838.87 156.51,827.52 151.30,816.89 145.42,807.07 138.93,798.17 131.90,790.27 124.38,783.45 116.45,777.76 108.18,773.27 99.67,770.02 90.98,768.04 90.57,768.01 90.57,703.92" fill="#66BB6A" fill-opacity="0.45" stroke="#66BB6A" stroke-width="1.5"/>
<polygon class="slab-poly" data-slab-id="SLAB-015" points="1337.86,703.92 1681.91,703.92 1681.91,898.67 1386.39,898.67 1370.35,884.21 1346.52,867.28 1337.86,862.62 1337.86,703.92" fill="#66BB6A" fill-opacity="0.45" stroke="#66BB6A" stroke-width="1.5"/>
<text x="1512.1" y="800.1" fill="#fff" font-size="9" text-anchor="middle" dominant-baseline="middle" font-family="Segoe UI, sans-serif" paint-order="stroke" stroke="#000" stroke-width="2" pointer-events="none">SLAB-015</text>
<polygon class="slab-poly" data-slab-id="SLAB-016" points="2082.36,898.67 2082.36,703.92 2369.41,703.92 2369.41,898.67 2082.36,898.67" fill="#66BB6A" fill-opacity="0.45" stroke="#66BB6A" stroke-width="1.5"/>
<polygon class="slab-poly" data-slab-id="SLAB-017" points="1852.59,898.67 1852.59,703.92 2088.92,703.92 2088.92,898.67 1852.59,898.67" fill="#66BB6A" fill-opacity="0.45" stroke="#66BB6A" stroke-width="1.5"/>
<polygon class="slab-poly" data-slab-id="SLAB-018" points="1675.34,898.67 1675.34,703.92 1859.15,703.92 1859.15,898.67 1675.34,898.67" fill="#66BB6A" fill-opacity="0.45" stroke="#66BB6A" stroke-width="1.5"/>
<polygon class="slab-poly" data-slab-id="SLAB-019" points="627.68,898.67 627.68,703.92 834.15,703.92 834.60,712.50 836.14,725.50 838.53,738.21 841.73,750.51 845.71,762.28 850.45,773.40 855.89,783.77 861.98,793.29 868.66,801.87 871.97,805.34 870.73,806.55 863.89,814.84 857.62,824.09 851.98,834.22 847.04,845.13 842.82,856.72 839.39,868.87 836.76,881.47 836.54,883.06 825.08,898.67 627.68,898.67" fill="#66BB6A" fill-opacity="0.45" stroke="#66BB6A" stroke-width="1.5"/>
<polygon class="slab-poly" data-slab-id="SLAB-020" points="627.68,1166.79 627.68,888.80 832.33,888.80 822.07,902.78 804.37,932.13 788.67,963.95 775.12,997.92 763.85,1033.73 754.97,1071.03 748.57,1109.46 744.70,1148.64 744.11,1166.79 627.68,1166.79" fill="#66BB6A" fill-opacity="0.45" stroke="#66BB6A" stroke-width="1.5"/>
<polygon class="slab-poly" data-slab-id="SLAB-021" points="1681.91,888.80 1681.91,1166.79 1507.67,1166.79 1507.15,1161.46 1500.74,1123.04 1491.87,1085.74 1480.60,1049.93 1467.05,1015.95 1451.35,984.13 1433.65,954.78 1414.12,928.18 1392.95,904.58 1375.44,888.80 1681.91,888.80" fill="#66BB6A" fill-opacity="0.45" stroke="#66BB6A" stroke-width="1.5"/>
<polygon class="slab-poly" data-slab-id="SLAB-022" points="2082.36,1166.79 2082.36,888.80 2369.41,888.80 2369.41,1166.79 2082.36,1166.79" fill="#66BB6A" fill-opacity="0.45" stroke="#66BB6A" stroke-width="1.5"/>
<text x="2225.9" y="1027.8" fill="#fff" font-size="9" text-anchor="middle" dominant-baseline="middle" font-family="Segoe UI, sans-serif" paint-order="stroke" stroke="#000" stroke-width="2" pointer-events="none">SLAB-022</text>
<polygon class="slab-poly" data-slab-id="SLAB-023" points="1852.59,1166.79 1852.59,888.80 2088.92,888.80 2088.92,1166.79 1852.59,1166.79" fill="#66BB6A" fill-opacity="0.45" stroke="#66BB6A" stroke-width="1.5"/>
<text x="1970.8" y="1027.8" fill="#fff" font-size="9" text-anchor="middle" dominant-baseline="middle" font-family="Segoe UI, sans-serif" paint-order="stroke" stroke="#000" stroke-width="2" pointer-events="none">SLAB-023</text>
<polygon class="slab-poly" data-slab-id="SLAB-024" points="1675.34,1166.79 1675.34,888.80 1859.15,888.80 1859.15,1166.79 1675.34,1166.79" fill="#66BB6A" fill-opacity="0.45" stroke="#66BB6A" stroke-width="1.5"/>
<polygon class="slab-poly" data-slab-id="SLAB-025" points="365.09,1166.79 365.09,888.80 494.00,888.80 494.00,1166.79 365.09,1166.79" fill="#66BB6A" fill-opacity="0.45" stroke="#66BB6A" stroke-width="1.5"/>
<polygon class="slab-poly" data-slab-id="SLAB-026" points="371.66,888.80 371.66,1166.79 90.57,1166.79 90.57,1089.44 90.98,1089.41 99.67,1087.42 108.18,1084.17 116.45,1079.68 124.38,1074.00 131.90,1067.17 138.93,1059.27 145.42,1050.37 151.30,1040.56 156.51,1029.93 161.00,1018.58 164.73,1006.63 167.67,994.18 169.77,981.36 171.03,968.29 171.44,955.10 170.98,941.91 169.66,928.86 169.64,928.72 169.66,928.59 170.98,915.53 171.44,902.35 171.03,889.16 171.00,888.80 371.66,888.80" fill="#66BB6A" fill-opacity="0.45" stroke="#66BB6A" stroke-width="1.5"/>
<text x="253.1" y="1038.7" fill="#fff" font-size="9" text-anchor="middle" dominant-baseline="middle" font-family="Segoe UI, sans-serif" paint-order="stroke" stroke="#000" stroke-width="2" pointer-events="none">SLAB-026</text>
<polygon class="slab-poly" data-slab-id="SLAB-027" points="2907.73,1166.79 2625.44,1166.79 2625.44,1054.58 2627.02,1051.58 2631.76,1040.46 2635.76,1028.70 2638.96,1016.41 2641.35,1003.70 2642.90,990.70 2643.60,977.54 2643.43,964.34 2642.41,951.22 2641.09,942.18 2642.41,933.14 2643.43,920.02 2643.60,906.82 2642.90,893.66 2642.33,888.80 2757.76,888.80 2775.07,917.49 2794.59,944.10 2815.76,967.69 2825.74,976.68 2826.30,989.16 2827.75,1002.18 2830.04,1014.93 2833.16,1027.28 2837.06,1039.11 2841.72,1050.30 2847.08,1060.76 2853.10,1070.38 2859.72,1079.06 2866.88,1086.73 2874.49,1093.30 2882.50,1098.72 2890.83,1102.94 2899.39,1105.90 2907.73,1107.52 2907.73,1166.79" fill="#66BB6A" fill-opacity="0.45" stroke="#66BB6A" stroke-width="1.5"/>
<polygon class="slab-poly" data-slab-id="SLAB-028" points="2632.00,1166.79 2362.85,1166.79 2362.85,888.80 2418.18,888.80 2417.60,893.65 2416.90,906.82 2417.07,920.02 2418.10,933.13 2419.41,942.18 2418.10,951.22 2417.07,964.34 2416.90,977.54 2417.60,990.70 2419.15,1003.70 2421.54,1016.41 2424.75,1028.70 2428.74,1040.46 2433.48,1051.58 2438.93,1061.94 2445.02,1071.45 2451.70,1080.02 2458.91,1087.56 2466.58,1094.01 2474.63,1099.29 2482.99,1103.36 2491.57,1106.18 2500.30,1107.73 2509.08,1107.98 2517.84,1106.93 2526.48,1104.60 2530.25,1103.00 2534.02,1104.60 2542.67,1106.93 2551.42,1107.98 2560.21,1107.73 2568.93,1106.18 2577.51,1103.36 2585.87,1099.29 2593.92,1094.01 2601.59,1087.56 2608.80,1080.02 2615.48,1071.45 2621.58,1061.94 2627.02,1051.58 2631.76,1040.46 2632.00,1039.74 2632.00,1166.79" fill="#66BB6A" fill-opacity="0.45" stroke="#66BB6A" stroke-width="1.5"/>
<polygon class="slab-poly" data-slab-id="SLAB-029" points="1675.34,1156.92 1859.15,1156.92 1859.15,1463.87 1828.56,1463.87 1828.18,1457.45 1826.55,1444.48 1824.08,1431.80 1820.80,1419.56 1816.73,1407.85 1811.92,1396.80 1806.41,1386.51 1800.26,1377.09 1793.52,1368.61 1786.27,1361.17 1778.56,1354.83 1770.48,1349.66 1762.10,1345.71 1753.50,1343.00 1744.76,1341.58 1735.98,1341.46 1727.23,1342.62 1718.60,1345.07 1712.86,1347.60 1706.82,1344.93 1698.19,1342.46 1689.44,1341.28 1680.66,1341.39 1675.34,1342.24 1675.34,1156.92" fill="#66BB6A" fill-opacity="0.45" stroke="#66BB6A" stroke-width="1.5"/>
<polygon class="slab-poly" data-slab-id="SLAB-030" points="2362.85,1156.92 2632.00,1156.92 2632.00,1463.87 2577.56,1463.87 2577.44,1460.94 2576.04,1447.91 2573.79,1435.14 2570.72,1422.77 2566.86,1410.91 2562.24,1399.67 2556.92,1389.17 2550.93,1379.51 2544.34,1370.77 2537.22,1363.05 2529.62,1356.41 2521.63,1350.92 2513.32,1346.64 2504.77,1343.60 2496.07,1341.84 2487.29,1341.36 2478.52,1342.19 2469.85,1344.30 2461.36,1347.68 2460.21,1348.32 2458.90,1347.58 2450.41,1344.20 2441.74,1342.09 2432.97,1341.27 2424.19,1341.74 2415.49,1343.51 2406.94,1346.55 2398.63,1350.83 2390.64,1356.31 2383.04,1362.95 2375.92,1370.68 2369.33,1379.41 2363.34,1389.08 2362.85,1390.06 2362.85,1156.92" fill="#66BB6A" fill-opacity="0.45" stroke="#66BB6A" stroke-width="1.5"/>
<polygon class="slab-poly" data-slab-id="SLAB-031" points="2901.16,1156.92 3109.43,1156.92 3109.43,1463.87 3030.97,1463.87 3029.98,1452.28 3028.02,1439.41 3025.23,1426.89 3021.64,1414.84 3017.28,1403.37 3012.19,1392.61 3006.43,1382.65 3000.04,1373.58 2993.09,1365.50 2985.65,1358.48 2977.79,1352.59 2969.58,1347.89 2961.11,1344.42 2952.44,1342.21 2943.68,1341.29 2934.90,1341.67 2928.43,1342.91 2921.96,1341.67 2913.18,1341.29 2904.42,1342.21 2901.16,1343.04 2901.16,1156.92" fill="#66BB6A" fill-opacity="0.45" stroke="#66BB6A" stroke-width="1.5"/>
<polygon class="slab-poly" data-slab-id="SLAB-032" points="90.57,1156.92 371.66,1156.92 371.66,1374.78 365.98,1382.81 360.21,1392.76 355.11,1403.52 350.74,1414.97 347.14,1427.01 344.33,1439.53 342.36,1452.40 341.38,1463.87 171.00,1463.87 170.07,1452.78 168.13,1439.91 165.35,1427.38 161.77,1415.32 157.42,1403.85 152.34,1393.07 146.59,1383.09 140.21,1374.01 133.27,1365.92 125.84,1358.88 117.98,1352.97 109.78,1348.25 101.31,1344.76 92.65,1342.54 90.57,1342.31 90.57,1156.92" fill="#66BB6A" fill-opacity="0.45" stroke="#66BB6A" stroke-width="1.5"/>
<text x="238.3" y="1297.9" fill="#fff" font-size="9" text-anchor="middle" dominant-baseline="middle" font-family="Segoe UI, sans-serif" paint-order="stroke" stroke="#000" stroke-width="2" pointer-events="none">SLAB-032</text>
<polygon class="slab-poly" data-slab-id="SLAB-033" points="1681.91,1156.92 1681.91,1341.37 1680.66,1341.39 1671.92,1342.79 1663.32,1345.48 1654.93,1349.41 1646.85,1354.57 1639.13,1360.89 1631.87,1368.32 1625.13,1376.78 1618.97,1386.20 1613.45,1396.47 1608.63,1407.51 1604.56,1419.21 1601.26,1431.45 1598.78,1444.12 1597.14,1457.09 1596.74,1463.87 1467.33,1463.87 1480.60,1430.60 1491.87,1394.79 1500.74,1357.49 1507.15,1319.07 1511.02,1279.88 1512.31,1240.32 1512.31,1240.27 1512.31,1240.22 1511.02,1200.65 1507.15,1161.46 1506.39,1156.92 1681.91,1156.92" fill="#66BB6A" fill-opacity="0.45" stroke="#66BB6A" stroke-width="1.5"/>
<polygon class="slab-poly" data-slab-id="SLAB-034" points="2625.44,1463.87 2625.44,1156.92 2907.73,1156.92 2907.73,1341.86 2904.42,1342.21 2895.76,1344.42 2887.28,1347.89 2879.07,1352.59 2871.21,1358.48 2863.77,1365.50 2856.82,1373.58 2850.43,1382.65 2844.67,1392.61 2839.58,1403.37 2835.22,1414.84 2831.63,1426.89 2828.84,1439.41 2826.88,1452.28 2825.90,1463.87 2625.44,1463.87" fill="#66BB6A" fill-opacity="0.45" stroke="#66BB6A" stroke-width="1.5"/>
<text x="2756.4" y="1300.7" fill="#fff" font-size="9" text-anchor="middle" dominant-baseline="middle" font-family="Segoe UI, sans-serif" paint-order="stroke" stroke="#000" stroke-width="2" pointer-events="none">SLAB-034</text>
<polygon class="slab-poly" data-slab-id="SLAB-035" points="2082.36,1463.87 2082.36,1156.92 2369.41,1156.92 2369.41,1379.30 2369.33,1379.41 2363.34,1389.08 2358.02,1399.58 2353.40,1410.82 2349.54,1422.68 2346.47,1435.05 2344.22,1447.81 2342.82,1460.85 2342.69,1463.87 2082.36,1463.87" fill="#66BB6A" fill-opacity="0.45" stroke="#66BB6A" stroke-width="1.5"/>
<text x="2223.6" y="1308.3" fill="#fff" font-size="9" text-anchor="middle" dominant-baseline="middle" font-family="Segoe UI, sans-serif" paint-order="stroke" stroke="#000" stroke-width="2" pointer-events="none">SLAB-035</text>
<polygon class="slab-poly" data-slab-id="SLAB-036" points="1852.59,1463.87 1852.59,1156.92 2088.92,1156.92 2088.92,1463.87 1852.59,1463.87" fill="#66BB6A" fill-opacity="0.45" stroke="#66BB6A" stroke-width="1.5"/>
<text x="1970.8" y="1310.4" fill="#fff" font-size="9" text-anchor="middle" dominant-baseline="middle" font-family="Segoe UI, sans-serif" paint-order="stroke" stroke="#000" stroke-width="2" pointer-events="none">SLAB-036</text>
<polygon class="slab-poly" data-slab-id="SLAB-037" points="627.68,1156.92 744.43,1156.92 743.41,1188.21 743.41,1188.26 743.41,1188.31 744.70,1227.88 748.57,1267.06 754.97,1305.49 763.85,1342.79 775.12,1378.60 788.67,1412.58 804.37,1444.39 816.11,1463.87 654.41,1463.87 654.29,1461.00 652.90,1447.96 650.66,1435.19 647.60,1422.82 643.75,1410.95 639.14,1399.71 633.82,1389.20 627.85,1379.52 627.68,1379.30 627.68,1156.92" fill="#66BB6A" fill-opacity="0.45" stroke="#66BB6A" stroke-width="1.5"/>
</svg>