<svg xmlns="http://www.w3.org/2000/svg" width="1844" height="1600" viewBox="0 0 1844 1600">
<rect width="100%" height="100%" fill="#121212"/>
<polygon points="-35.19,1542.91 122.04,1542.91 122.04,1549.22 -35.19,1549.22 -35.19,1542.91" fill="#FF9800" fill-opacity="0.12" stroke="#FFB74D" stroke-width="0.6"/>
<polygon points="309.19,1549.22 185.22,1549.22 185.22,1542.91 309.19,1542.91 309.19,1549.22" fill="#FF9800" fill-opacity="0.12" stroke="#FFB74D" stroke-width="0.6"/>
<polygon points="185.22,1538.17 185.22,1531.85 309.19,1531.85 309.19,1538.17 185.22,1538.17" fill="#FF9800" fill-opacity="0.12" stroke="#FFB74D" stroke-width="0.6"/>
<polygon points="122.04,1538.17 -35.19,1538.17 -35.19,1531.85 122.04,1531.85 122.04,1538.17" fill="#FF9800" fill-opacity="0.12" stroke="#FFB74D" stroke-width="0.6"/>
<polygon points="240.49,1279.11 240.49,1285.43 166.27,1285.43 166.27,1535.01 159.95,1535.01 159.95,1285.43 152.05,1285.43 152.05,1535.01 145.73,1535.01 145.73,1282.27 146.64,1282.27 146.64,1279.11 240.49,1279.11" fill="#FF9800" fill-opacity="0.12" stroke="#FFB74D" stroke-width="0.6"/>
<polygon points="332.89,1535.01 332.89,1285.43 253.13,1285.43 253.13,1279.11 347.90,1279.11 347.90,1282.27 353.42,1282.27 353.42,1535.01 347.10,1535.01 347.10,1285.43 339.20,1285.43 339.20,1535.01 332.89,1535.01" fill="#FF9800" fill-opacity="0.12" stroke="#FFB74D" stroke-width="0.6"/>
<polygon points="-51.61,1535.19 -66.77,1275.34 -63.60,1275.15 -63.60,1271.99 110.98,1271.99 110.98,1278.31 -60.27,1278.31 -45.30,1534.82 -51.61,1535.19" fill="#FF9800" fill-opacity="0.12" stroke="#FFB74D" stroke-width="0.6"/>
<polygon points="240.49,1272.79 146.64,1272.79 146.64,1266.47 240.49,1266.47 240.49,1272.79" fill="#FF9800" fill-opacity="0.12" stroke="#FFB74D" stroke-width="0.6"/>
<polygon points="347.90,1266.47 347.90,1272.79 253.13,1272.79 253.13,1266.47 347.90,1266.47" fill="#FF9800" fill-opacity="0.12" stroke="#FFB74D" stroke-width="0.6"/>
<polygon points="-64.43,1260.93 -67.60,1261.12 -74.13,1149.19 -70.96,1149.00 -70.96,1145.84 110.53,1145.84 110.53,1152.16 -67.63,1152.16 -61.46,1257.77 110.98,1257.77 110.98,1264.09 -64.43,1264.09 -64.43,1260.93" fill="#FF9800" fill-opacity="0.12" stroke="#FFB74D" stroke-width="0.6"/>
<polygon points="256.17,1155.08 256.17,1190.71 249.85,1190.71 249.85,1155.08 256.17,1155.08" fill="#FF9800" fill-opacity="0.12" stroke="#FFB74D" stroke-width="0.6"/>
<polygon points="240.37,1155.16 243.53,1155.16 243.53,1190.71 237.21,1190.71 237.21,1158.32 194.56,1158.22 194.57,1151.90 240.38,1152.00 240.37,1155.16" fill="#FF9800" fill-opacity="0.12" stroke="#FFB74D" stroke-width="0.6"/>
<polygon points="241.95,1145.61 194.56,1145.61 194.56,1139.29 241.95,1139.29 241.95,1145.61" fill="#FF9800" fill-opacity="0.12" stroke="#FFB74D" stroke-width="0.6"/>
<polygon points="347.78,1114.01 347.78,1142.45 341.46,1142.45 341.46,1114.01 347.78,1114.01" fill="#FF9800" fill-opacity="0.12" stroke="#FFB74D" stroke-width="0.6"/>
<polygon points="123.62,1041.34 129.94,1041.34 129.94,1145.61 123.62,1145.61 123.62,1041.34" fill="#FF9800" fill-opacity="0.12" stroke="#FFB74D" stroke-width="0.6"/>
<polygon points="-80.58,1038.60 -77.41,1038.41 -77.41,1035.26 110.53,1035.26 110.53,1041.34 111.77,1041.34 111.77,1134.79 108.61,1134.79 108.61,1137.95 -71.79,1137.95 -71.79,1134.79 -74.96,1134.97 -80.58,1038.60" fill="#FF9800" fill-opacity="0.12" stroke="#FFB74D" stroke-width="0.6"/>
<polygon points="344.62,1028.70 291.06,1028.70 291.06,1022.38 344.62,1022.38 344.62,1028.70" fill="#FF9800" fill-opacity="0.12" stroke="#FFB74D" stroke-width="0.6"/>
<polygon points="287.90,1012.90 287.90,949.71 294.21,949.71 294.21,1009.74 341.46,1009.74 341.46,949.71 347.78,949.71 347.78,1012.90 344.62,1012.90 344.62,1016.06 291.06,1016.06 291.06,1012.90 287.90,1012.90" fill="#FF9800" fill-opacity="0.12" stroke="#FFB74D" stroke-width="0.6"/>
<polygon points="281.53,949.69 281.58,949.69 281.89,1012.88 275.58,1012.91 275.28,952.89 126.78,952.89 126.78,946.57 281.53,946.57 281.53,949.69" fill="#FF9800" fill-opacity="0.12" stroke="#FFB74D" stroke-width="0.6"/>
<polygon points="-87.03,928.01 -83.86,927.83 -83.86,924.67 110.53,924.67 110.53,930.99 -80.53,930.99 -75.27,1021.04 110.98,1021.04 110.98,1027.36 -78.24,1027.36 -78.24,1024.20 -81.41,1024.38 -87.03,928.01" fill="#FF9800" fill-opacity="0.12" stroke="#FFB74D" stroke-width="0.6"/>
<polygon points="281.90,937.09 281.90,943.41 126.78,943.41 126.78,937.09 281.90,937.09" fill="#FF9800" fill-opacity="0.12" stroke="#FFB74D" stroke-width="0.6"/>
<polygon points="420.58,899.17 417.42,899.17 417.42,940.25 411.10,940.25 411.10,899.17 339.71,899.17 339.71,940.25 333.39,940.25 333.39,940.25 327.07,940.25 327.07,899.17 297.37,899.17 297.37,892.86 330.23,892.86 330.23,896.01 333.39,896.02 333.39,896.02 336.55,896.02 336.55,892.86 420.58,892.86 420.58,899.17" fill="#FF9800" fill-opacity="0.12" stroke="#FFB74D" stroke-width="0.6"/>
<polygon points="281.58,899.21 126.78,899.14 126.78,892.82 281.58,892.89 281.58,899.21" fill="#FF9800" fill-opacity="0.12" stroke="#FFB74D" stroke-width="0.6"/>
<polygon points="110.98,910.45 110.98,916.77 -84.69,916.77 -84.69,913.61 -87.86,913.79 -93.48,817.42 -90.31,817.24 -90.31,814.08 110.53,814.08 110.53,820.40 -86.98,820.40 -81.73,910.45 110.98,910.45" fill="#FF9800" fill-opacity="0.12" stroke="#FFB74D" stroke-width="0.6"/>
<polygon points="262.94,804.38 262.94,807.54 281.58,807.54 281.58,810.70 284.74,810.70 284.74,886.54 281.58,886.54 281.58,889.70 281.58,889.71 126.78,889.71 126.78,883.39 231.03,883.39 231.03,810.70 234.19,810.70 234.19,807.54 234.19,807.54 234.19,807.54 237.35,807.54 237.35,804.38 262.94,804.38" fill="#FF9800" fill-opacity="0.12" stroke="#FFB74D" stroke-width="0.6"/>
<polygon points="-99.93,706.83 -96.76,706.65 -96.76,703.49 110.53,703.49 110.53,709.81 -93.43,709.81 -88.18,799.86 110.98,799.86 110.98,806.18 -91.14,806.18 -91.14,803.02 -94.31,803.20 -99.93,706.83" fill="#FF9800" fill-opacity="0.12" stroke="#FFB74D" stroke-width="0.6"/>
<polygon points="329.28,706.43 329.28,709.59 300.53,709.59 300.53,706.43 297.37,706.43 297.37,703.27 300.53,703.27 300.53,700.11 329.28,700.11 329.28,703.27 332.44,703.27 332.44,706.43 329.28,706.43" fill="#FF9800" fill-opacity="0.12" stroke="#FFB74D" stroke-width="0.6"/>
<polygon points="138.47,606.90 126.78,606.90 126.78,600.58 141.63,600.58 141.63,603.74 144.79,603.74 144.79,674.84 141.63,674.84 141.63,678.00 129.94,678.00 129.94,684.32 147.95,684.32 147.95,679.01 147.95,603.74 151.10,603.74 151.10,600.58 281.58,600.58 281.58,606.90 154.26,606.90 154.26,674.84 154.26,674.84 154.26,679.01 154.26,684.32 174.17,684.32 174.17,687.48 177.33,687.48 177.33,712.44 177.33,712.44 177.33,715.60 180.48,715.60 180.48,741.19 177.33,741.19 177.33,744.35 177.33,744.35 177.33,766.47 174.17,766.47 174.17,769.63 126.78,769.63 126.78,766.47 123.62,766.47 123.62,687.48 123.62,687.48 123.62,674.84 126.78,674.84 126.78,674.84 123.62,674.84 123.62,613.22 129.94,613.22 129.94,671.68 138.47,671.68 138.47,606.90" fill="#FF9800" fill-opacity="0.12" stroke="#FFB74D" stroke-width="0.6"/>
<polygon points="-123.43,-194.53 -111.08,-196.54 -110.57,-193.42 -111.05,-196.55 -98.67,-198.44 -98.20,-195.32 -98.64,-198.45 -86.26,-200.22 -85.81,-197.09 -86.23,-200.22 -73.82,-201.88 -73.40,-198.74 -73.79,-201.88 -61.37,-203.41 -60.98,-200.27 -61.34,-203.41 -48.90,-204.82 -48.55,-201.68 -48.87,-204.82 -36.42,-206.11 -36.10,-202.97 -36.39,-206.11 -23.93,-207.28 -23.64,-204.13 -23.90,-207.28 -11.43,-208.32 -11.17,-205.17 -11.40,-208.32 1.08,-209.24 1.31,-206.09 1.11,-209.25 13.60,-210.04 13.80,-206.89 13.63,-210.04 26.13,-210.72 26.30,-207.56 26.16,-210.72 38.66,-211.27 38.80,-208.11 38.69,-211.27 51.20,-211.70 51.31,-208.54 51.23,-211.70 63.74,-212.01 63.82,-208.85 63.77,-212.01 76.29,-212.19 76.33,-209.03 76.32,-212.19 88.83,-212.25 88.85,-209.09 88.86,-212.25 101.38,-212.19 101.36,-209.03 101.41,-212.19 113.92,-212.00 113.88,-208.84 113.95,-212.00 126.46,-211.70 126.39,-208.54 126.49,-211.69 139.00,-211.26 138.89,-208.11 139.03,-211.26 151.54,-210.71 151.40,-207.55 151.57,-210.71 164.06,-210.03 163.89,-206.88 164.09,-210.03 176.58,-209.23 176.38,-206.08 176.61,-209.23 189.09,-208.31 188.86,-205.16 189.13,-208.31 201.60,-207.26 201.33,-204.11 201.63,-207.26 214.09,-206.09 213.79,-202.95 214.12,-206.09 226.57,-204.80 226.24,-201.66 226.60,-204.80 239.03,-203.39 238.68,-200.25 239.06,-203.39 251.48,-201.85 251.10,-198.72 251.51,-201.85 263.92,-200.20 263.50,-197.06 263.95,-200.19 276.34,-198.42 275.89,-195.29 276.37,-198.41 288.74,-196.51 287.78,-190.27 275.43,-192.16 263.07,-193.93 250.69,-195.58 238.30,-197.11 225.90,-198.52 213.48,-199.80 201.05,-200.97 188.61,-202.01 176.16,-202.93 163.71,-203.72 151.24,-204.40 138.77,-204.95 126.29,-205.38 113.81,-205.69 101.33,-205.87 88.85,-205.93 76.36,-205.87 63.88,-205.69 51.40,-205.38 38.93,-204.96 26.45,-204.41 13.99,-203.73 1.53,-202.94 -10.92,-202.02 -23.36,-200.98 -35.79,-199.82 -48.21,-198.54 -60.61,-197.14 -73.00,-195.61 -85.38,-193.96 -97.73,-192.19 -110.07,-190.30 -122.39,-188.29 -134.69,-186.16 -146.97,-183.91 -156.53,-182.06 -55.73,1545.88 -62.04,1546.25 -163.00,-184.45 -159.84,-184.63 -160.45,-187.73 -148.16,-190.11 -147.56,-187.01 -148.13,-190.12 -135.82,-192.38 -135.25,-189.27 -135.79,-192.38 -123.46,-194.52 -122.92,-191.41 -123.43,-194.53" fill="#FF9800" fill-opacity="0.12" stroke="#FFB74D" stroke-width="0.6"/>
<polygon points="110.98,689.27 110.98,695.59 -97.59,695.59 -97.59,692.43 -100.76,692.61 -105.94,603.90 -102.77,603.72 -102.77,600.56 108.62,600.56 108.62,603.72 111.78,603.72 111.78,677.87 105.46,677.87 105.46,606.88 -99.43,606.88 -94.63,689.27 110.98,689.27" fill="#FF9800" fill-opacity="0.12" stroke="#FFB74D" stroke-width="0.6"/>
<polygon points="486.76,395.18 489.91,394.90 507.48,589.93 504.30,590.21 504.30,592.69 507.46,592.69 507.46,638.50 504.30,638.50 504.30,641.66 396.89,641.66 396.89,638.50 393.73,638.50 393.73,606.90 297.37,606.90 297.37,600.58 393.73,600.58 393.73,592.69 396.89,592.69 396.89,592.69 297.37,592.69 297.37,592.69 126.78,592.69 126.78,589.50 123.62,589.50 123.62,395.18 126.78,395.18 126.78,392.02 243.54,392.02 243.54,395.18 246.64,394.57 284.18,586.37 292.23,586.37 254.92,395.75 258.02,395.14 258.02,392.02 486.76,392.02 486.76,395.18" fill="#FF9800" fill-opacity="0.12" stroke="#FFB74D" stroke-width="0.6"/>
<polygon points="-118.10,395.36 -114.95,395.18 -114.95,392.02 110.98,392.02 110.98,395.18 111.78,395.18 111.78,589.50 108.62,589.50 108.62,592.66 -103.61,592.66 -103.61,589.50 -106.77,589.69 -118.10,395.36" fill="#FF9800" fill-opacity="0.12" stroke="#FFB74D" stroke-width="0.6"/>
<polygon points="243.54,374.64 53.91,374.64 53.91,371.45 50.77,371.45 50.77,267.18 53.93,267.18 53.93,264.05 243.54,264.05 243.54,267.21 246.70,267.21 246.70,371.48 243.54,371.48 243.54,374.64" fill="#FF9800" fill-opacity="0.12" stroke="#FFB74D" stroke-width="0.6"/>
<polygon points="430.38,246.68 257.75,246.68 257.75,240.36 430.38,240.36 430.38,246.68" fill="#FF9800" fill-opacity="0.12" stroke="#FFB74D" stroke-width="0.6"/>
<polygon points="253.01,246.68 53.91,246.68 53.91,240.36 253.01,240.36 253.01,246.68" fill="#FF9800" fill-opacity="0.12" stroke="#FFB74D" stroke-width="0.6"/>
<polygon points="39.71,240.36 39.71,246.68 -120.45,246.68 -119.43,264.05 39.71,264.05 39.71,267.18 42.87,267.18 42.87,371.48 39.71,371.48 39.71,374.64 -116.33,374.64 -116.33,371.48 -119.48,371.67 -138.01,54.12 -131.70,53.75 -120.81,240.36 39.71,240.36" fill="#FF9800" fill-opacity="0.12" stroke="#FFB74D" stroke-width="0.6"/>
<polygon points="-138.84,39.90 -151.40,-175.42 -148.24,-175.60 -148.60,-178.74 34.60,-199.81 34.96,-196.67 38.12,-196.67 38.12,39.72 31.80,39.72 31.80,-193.13 -144.91,-172.80 -132.53,39.53 -138.84,39.90" fill="#FF9800" fill-opacity="0.12" stroke="#FFB74D" stroke-width="0.6"/>
<polygon points="243.68,-191.90 243.39,-185.59 57.07,-194.04 57.07,39.72 50.75,39.72 50.75,-197.35 53.91,-197.35 54.06,-200.51 243.68,-191.90" fill="#FF9800" fill-opacity="0.12" stroke="#FFB74D" stroke-width="0.6"/>
<polygon points="372.38,1542.91 475.58,1542.91 475.58,1549.22 372.38,1549.22 372.38,1542.91" fill="#FF9800" fill-opacity="0.12" stroke="#FFB74D" stroke-width="0.6"/>
<polygon points="538.76,1549.22 538.76,1542.91 633.54,1542.91 633.54,1549.22 538.76,1549.22" fill="#FF9800" fill-opacity="0.12" stroke="#FFB74D" stroke-width="0.6"/>
<polygon points="475.58,1538.17 372.38,1538.17 372.38,1531.85 475.58,1531.85 475.58,1538.17" fill="#FF9800" fill-opacity="0.12" stroke="#FFB74D" stroke-width="0.6"/>
<polygon points="538.76,1538.17 538.76,1531.85 633.54,1531.85 633.54,1538.17 538.76,1538.17" fill="#FF9800" fill-opacity="0.12" stroke="#FFB74D" stroke-width="0.6"/>
<polygon points="513.49,1535.04 513.49,1282.27 519.81,1282.27 519.81,1535.04 513.49,1535.04" fill="#FF9800" fill-opacity="0.12" stroke="#FFB74D" stroke-width="0.6"/>
<polygon points="671.45,1535.04 671.45,1282.27 677.76,1282.27 677.76,1535.04 671.45,1535.04" fill="#FF9800" fill-opacity="0.12" stroke="#FFB74D" stroke-width="0.6"/>
<polygon points="505.59,1535.01 499.27,1535.01 499.27,1282.27 505.59,1282.27 505.59,1535.01" fill="#FF9800" fill-opacity="0.12" stroke="#FFB74D" stroke-width="0.6"/>
<polygon points="657.23,1535.01 657.23,1282.27 663.55,1282.27 663.55,1535.01 657.23,1535.01" fill="#FF9800" fill-opacity="0.12" stroke="#FFB74D" stroke-width="0.6"/>
<polygon points="427.33,1285.43 360.54,1285.43 360.54,1279.11 427.33,1279.11 427.33,1285.43" fill="#FF9800" fill-opacity="0.12" stroke="#FFB74D" stroke-width="0.6"/>
<polygon points="427.33,1266.47 427.33,1272.79 360.54,1272.79 360.54,1266.47 427.33,1266.47" fill="#FF9800" fill-opacity="0.12" stroke="#FFB74D" stroke-width="0.6"/>
<polygon points="501.14,1222.23 501.14,1228.55 438.27,1228.55 438.27,1222.23 501.14,1222.23" fill="#FF9800" fill-opacity="0.12" stroke="#FFB74D" stroke-width="0.6"/>
<polygon points="461.97,1212.76 461.97,1219.07 441.43,1219.07 441.43,1212.76 461.97,1212.76" fill="#FF9800" fill-opacity="0.12" stroke="#FFB74D" stroke-width="0.6"/>
<polygon points="363.58,1114.01 363.58,1142.45 357.26,1142.45 357.26,1114.01 363.58,1114.01" fill="#FF9800" fill-opacity="0.12" stroke="#FFB74D" stroke-width="0.6"/>
<polygon points="647.41,1028.70 557.37,1028.70 557.37,1022.38 647.41,1022.38 647.41,1028.70" fill="#FF9800" fill-opacity="0.12" stroke="#FFB74D" stroke-width="0.6"/>
<polygon points="442.06,1022.38 442.06,1028.70 357.26,1028.70 357.26,1022.38 442.06,1022.38" fill="#FF9800" fill-opacity="0.12" stroke="#FFB74D" stroke-width="0.6"/>
<polygon points="544.74,1028.70 454.70,1028.70 454.70,1022.38 544.74,1022.38 544.74,1028.70" fill="#FF9800" fill-opacity="0.12" stroke="#FFB74D" stroke-width="0.6"/>
<polygon points="647.41,1016.06 557.37,1016.06 557.37,1009.74 647.41,1009.74 647.41,1016.06" fill="#FF9800" fill-opacity="0.12" stroke="#FFB74D" stroke-width="0.6"/>
<polygon points="544.74,1009.74 544.74,1016.06 454.70,1016.06 454.70,1009.74 544.74,1009.74" fill="#FF9800" fill-opacity="0.12" stroke="#FFB74D" stroke-width="0.6"/>
<polygon points="350.94,1012.90 350.94,949.71 357.26,949.71 357.26,1012.90 357.26,1009.74 442.06,1009.74 442.06,1016.06 357.26,1016.06 357.26,1012.90 350.94,1012.90" fill="#FF9800" fill-opacity="0.12" stroke="#FFB74D" stroke-width="0.6"/>
<polygon points="504.30,899.15 504.30,899.17 433.22,899.17 433.22,940.25 426.90,940.25 426.90,896.01 430.06,896.01 430.06,892.86 430.06,892.86 430.06,892.83 608.55,892.83 608.55,899.15 504.30,899.15" fill="#FF9800" fill-opacity="0.12" stroke="#FFB74D" stroke-width="0.6"/>
<polygon points="662.89,892.83 662.89,899.15 621.19,899.15 621.19,892.83 662.89,892.83" fill="#FF9800" fill-opacity="0.12" stroke="#FFB74D" stroke-width="0.6"/>
<polygon points="608.55,889.67 520.09,889.67 520.09,883.35 608.55,883.35 608.55,889.67" fill="#FF9800" fill-opacity="0.12" stroke="#FFB74D" stroke-width="0.6"/>
<polygon points="662.89,883.35 662.89,883.35 662.89,889.67 662.89,889.67 621.19,889.67 621.19,883.35 662.89,883.35" fill="#FF9800" fill-opacity="0.12" stroke="#FFB74D" stroke-width="0.6"/>
<polygon points="610.13,856.18 610.13,862.50 520.09,862.50 520.09,856.18 610.13,856.18" fill="#FF9800" fill-opacity="0.12" stroke="#FFB74D" stroke-width="0.6"/>
<polygon points="727.02,862.50 675.52,862.50 675.52,856.18 675.52,849.86 727.02,849.86 727.02,856.18 727.02,862.50" fill="#FF9800" fill-opacity="0.12" stroke="#FFB74D" stroke-width="0.6"/>
<polygon points="610.13,856.18 520.09,856.18 520.09,849.86 610.13,849.86 610.13,856.18" fill="#FF9800" fill-opacity="0.12" stroke="#FFB74D" stroke-width="0.6"/>
<polygon points="347.93,807.54 347.93,810.70 351.09,810.70 351.09,883.38 504.30,883.38 504.30,889.70 297.37,889.70 297.37,889.70 297.37,889.70 297.37,886.54 297.37,886.54 294.21,886.54 294.21,810.70 297.37,810.70 297.37,807.54 297.37,807.54 300.53,807.54 300.53,804.38 326.12,804.38 326.12,807.54 347.93,807.54" fill="#FF9800" fill-opacity="0.12" stroke="#FFB74D" stroke-width="0.6"/>
<polygon points="610.13,839.43 520.09,839.43 520.09,833.11 610.13,833.11 610.13,839.43" fill="#FF9800" fill-opacity="0.12" stroke="#FFB74D" stroke-width="0.6"/>
<polygon points="610.13,833.11 520.09,833.11 520.09,826.79 610.13,826.79 610.13,833.11" fill="#FF9800" fill-opacity="0.12" stroke="#FFB74D" stroke-width="0.6"/>
<polygon points="461.33,813.86 461.33,810.70 458.17,810.70 458.17,807.54 461.33,807.54 461.33,804.38 496.72,804.38 496.72,807.54 499.88,807.54 499.88,810.70 496.72,810.70 496.72,813.86 461.33,813.86" fill="#FF9800" fill-opacity="0.12" stroke="#FFB74D" stroke-width="0.6"/>
<polygon points="392.15,810.70 388.99,810.70 388.99,807.54 392.15,807.54 392.15,804.38 420.58,804.38 420.58,807.54 423.74,807.54 423.74,810.70 420.58,810.70 420.58,813.86 392.15,813.86 392.15,810.70" fill="#FF9800" fill-opacity="0.12" stroke="#FFB74D" stroke-width="0.6"/>
<polygon points="520.09,804.36 608.55,804.36 608.55,810.68 520.09,810.68 520.09,804.36" fill="#FF9800" fill-opacity="0.12" stroke="#FFB74D" stroke-width="0.6"/>
<polygon points="520.09,801.20 520.09,794.88 608.55,794.88 608.55,801.20 520.09,801.20" fill="#FF9800" fill-opacity="0.12" stroke="#FFB74D" stroke-width="0.6"/>
<polygon points="520.09,600.56 727.02,600.56 727.02,606.88 520.09,606.88 520.09,600.56" fill="#FF9800" fill-opacity="0.12" stroke="#FFB74D" stroke-width="0.6"/>
<polygon points="727.02,592.66 520.09,592.66 520.09,588.79 516.92,589.08 499.47,395.43 502.62,395.14 502.62,392.02 777.90,392.02 777.90,395.18 780.92,394.25 841.71,590.67 838.31,591.72 838.31,592.66 742.81,592.66 742.81,586.34 833.76,586.34 775.57,398.34 506.08,398.34 523.01,586.34 727.02,586.34 727.02,592.66" fill="#FF9800" fill-opacity="0.12" stroke="#FFB74D" stroke-width="0.6"/>
<polygon points="487.58,384.12 257.75,384.12 257.75,380.96 254.59,380.96 254.59,257.73 257.75,257.73 257.75,254.57 487.58,254.57 487.58,257.73 490.74,257.73 490.74,380.96 487.58,380.96 487.58,384.12" fill="#FF9800" fill-opacity="0.12" stroke="#FFB74D" stroke-width="0.6"/>
<polygon points="498.64,262.47 501.80,262.47 501.80,259.31 778.22,259.31 778.22,262.47 781.38,262.47 781.38,376.22 778.22,376.22 778.22,379.38 504.17,379.38 504.17,376.22 498.64,376.22 498.64,262.47" fill="#FF9800" fill-opacity="0.12" stroke="#FFB74D" stroke-width="0.6"/>
<polygon points="656.26,246.68 444.60,246.68 444.60,240.36 656.26,240.36 656.26,246.68" fill="#FF9800" fill-opacity="0.12" stroke="#FFB74D" stroke-width="0.6"/>
<polygon points="789.63,1542.91 789.63,1549.22 696.72,1549.22 696.72,1542.91 789.63,1542.91" fill="#FF9800" fill-opacity="0.12" stroke="#FFB74D" stroke-width="0.6"/>
<polygon points="789.63,1538.17 696.72,1538.17 696.72,1531.85 789.63,1531.85 789.63,1538.17" fill="#FF9800" fill-opacity="0.12" stroke="#FFB74D" stroke-width="0.6"/>
<polygon points="1050.66,1483.89 1052.25,1490.01 855.51,1541.17 853.92,1535.05 1050.66,1483.89" fill="#FF9800" fill-opacity="0.12" stroke="#FFB74D" stroke-width="0.6"/>
<polygon points="840.75,1531.14 834.43,1531.14 834.43,1282.27 840.75,1282.27 840.75,1531.14" fill="#FF9800" fill-opacity="0.12" stroke="#FFB74D" stroke-width="0.6"/>
<polygon points="848.65,1282.27 851.80,1282.27 851.80,1279.11 1047.67,1279.11 1047.67,1282.27 1050.83,1282.27 1050.83,1476.51 1047.67,1476.51 1048.47,1479.57 852.60,1530.50 851.80,1527.44 848.65,1527.44 848.65,1282.27" fill="#FF9800" fill-opacity="0.12" stroke="#FFB74D" stroke-width="0.6"/>
<polygon points="1058.73,1471.41 1058.73,1282.27 1065.05,1282.27 1065.05,1471.41 1058.73,1471.41" fill="#FF9800" fill-opacity="0.12" stroke="#FFB74D" stroke-width="0.6"/>
<polygon points="1047.67,1264.89 1047.67,1271.21 851.80,1271.21 851.80,1264.89 1047.67,1264.89" fill="#FF9800" fill-opacity="0.12" stroke="#FFB74D" stroke-width="0.6"/>
<polygon points="820.21,1178.00 782.30,1178.00 782.30,1171.68 820.21,1171.68 820.21,1178.00" fill="#FF9800" fill-opacity="0.12" stroke="#FFB74D" stroke-width="0.6"/>
<polygon points="1079.26,1162.20 1117.17,1162.20 1117.17,1168.52 1079.26,1168.52 1079.26,1162.20" fill="#FF9800" fill-opacity="0.12" stroke="#FFB74D" stroke-width="0.6"/>
<polygon points="820.21,1162.20 820.21,1168.52 782.30,1168.52 782.30,1162.20 820.21,1162.20" fill="#FF9800" fill-opacity="0.12" stroke="#FFB74D" stroke-width="0.6"/>
<polygon points="757.03,1114.01 757.03,1165.36 750.71,1165.36 750.71,1114.01 757.03,1114.01" fill="#FF9800" fill-opacity="0.12" stroke="#FFB74D" stroke-width="0.6"/>
<polygon points="766.51,1114.01 766.51,1165.36 760.19,1165.36 760.19,1114.01 766.51,1114.01" fill="#FF9800" fill-opacity="0.12" stroke="#FFB74D" stroke-width="0.6"/>
<polygon points="851.80,1016.06 949.74,1016.06 949.74,1019.22 952.90,1019.22 952.90,1019.22 956.06,1019.22 956.06,1016.06 972.27,1016.06 972.27,1019.22 975.43,1019.22 975.43,1102.82 975.43,1095.39 978.59,1095.39 978.59,1092.23 978.59,1089.07 975.43,1089.07 975.43,1019.22 978.59,1019.22 978.59,1016.06 1047.67,1016.06 1047.67,1019.22 1050.83,1019.22 1050.83,1112.75 1047.67,1112.75 1047.67,1115.91 1047.67,1115.91 1047.67,1122.22 1040.09,1122.22 1040.09,1158.88 1047.67,1158.88 1047.67,1165.20 1047.67,1165.20 1047.67,1171.52 851.80,1171.52 851.80,1165.20 851.80,1158.88 946.58,1158.88 946.58,1022.38 851.80,1022.38 851.80,1016.06" fill="#FF9800" fill-opacity="0.12" stroke="#FFB74D" stroke-width="0.6"/>
<polygon points="757.03,1025.54 757.03,1102.08 750.71,1102.08 750.71,1025.54 757.03,1025.54" fill="#FF9800" fill-opacity="0.12" stroke="#FFB74D" stroke-width="0.6"/>
<polygon points="766.51,1025.54 766.51,1102.08 760.19,1102.08 760.19,1025.54 766.51,1025.54" fill="#FF9800" fill-opacity="0.12" stroke="#FFB74D" stroke-width="0.6"/>
<polygon points="836.01,1022.38 836.01,1028.70 766.51,1028.70 766.51,1022.38 836.01,1022.38" fill="#FF9800" fill-opacity="0.12" stroke="#FFB74D" stroke-width="0.6"/>
<polygon points="1063.47,1022.38 1132.97,1022.38 1132.97,1028.70 1063.47,1028.70 1063.47,1022.38" fill="#FF9800" fill-opacity="0.12" stroke="#FFB74D" stroke-width="0.6"/>
<polygon points="836.01,1016.06 766.51,1016.06 766.51,1009.74 834.43,1009.74 834.43,949.71 840.75,949.71 840.75,1012.90 836.01,1012.90 836.01,1016.06" fill="#FF9800" fill-opacity="0.12" stroke="#FFB74D" stroke-width="0.6"/>
<polygon points="1065.05,949.71 1065.05,1009.74 1132.97,1009.74 1132.97,1016.06 1063.47,1016.06 1063.47,1012.90 1058.73,1012.90 1058.73,949.71 1065.05,949.71" fill="#FF9800" fill-opacity="0.12" stroke="#FFB74D" stroke-width="0.6"/>
<polygon points="848.65,1012.90 848.65,949.71 851.80,949.71 851.80,946.55 1047.67,946.55 1047.67,949.71 1050.83,949.71 1050.83,1012.90 1047.67,1012.90 1047.67,1016.06 851.80,1016.06 851.80,1012.90 848.65,1012.90" fill="#FF9800" fill-opacity="0.12" stroke="#FFB74D" stroke-width="0.6"/>
<polygon points="1132.42,930.74 1135.50,930.74 1135.50,937.07 1132.34,937.07 1132.34,937.09 1135.52,937.09 1135.52,930.77 1141.84,930.77 1141.84,940.25 1138.68,940.25 1138.68,943.41 1057.18,943.41 1057.18,940.25 1054.02,940.25 1054.02,930.77 1057.15,930.77 1057.15,930.74 1057.18,930.74 1057.18,927.61 1060.31,927.61 1060.31,927.58 1132.34,927.58 1132.34,927.61 1132.42,927.61 1132.42,930.74" fill="#FF9800" fill-opacity="0.12" stroke="#FFB74D" stroke-width="0.6"/>
<polygon points="1047.67,938.65 851.80,938.65 851.80,932.33 1047.67,932.33 1047.67,938.65" fill="#FF9800" fill-opacity="0.12" stroke="#FFB74D" stroke-width="0.6"/>
<polygon points="767.14,940.23 767.14,937.07 763.98,937.07 763.98,930.74 767.14,930.74 767.14,927.58 839.17,927.58 839.17,930.74 842.33,930.74 842.33,937.07 839.17,937.07 839.17,940.23 767.14,940.23" fill="#FF9800" fill-opacity="0.12" stroke="#FFB74D" stroke-width="0.6"/>
<polygon points="754.50,908.31 754.50,914.63 675.52,914.63 675.52,908.31 754.50,908.31" fill="#FF9800" fill-opacity="0.12" stroke="#FFB74D" stroke-width="0.6"/>
<polygon points="733.34,905.15 675.52,905.15 675.52,898.83 730.18,898.83 730.18,859.34 736.50,859.34 736.50,901.99 733.34,901.99 733.34,905.15" fill="#FF9800" fill-opacity="0.12" stroke="#FFB74D" stroke-width="0.6"/>
<polygon points="839.14,863.45 745.97,862.55 745.97,898.83 754.50,898.83 754.50,905.15 742.81,905.15 742.81,901.99 739.65,901.99 739.65,859.34 742.81,859.34 742.84,856.20 742.84,856.20 742.90,849.88 839.26,850.81 839.20,857.13 839.20,857.13 839.14,863.45" fill="#FF9800" fill-opacity="0.12" stroke="#FFB74D" stroke-width="0.6"/>
<polygon points="742.81,821.74 742.81,815.42 790.20,815.42 790.20,821.74 742.81,821.74" fill="#FF9800" fill-opacity="0.12" stroke="#FFB74D" stroke-width="0.6"/>
<polygon points="742.81,802.78 790.20,802.78 790.20,809.10 742.81,809.10 742.81,802.78" fill="#FF9800" fill-opacity="0.12" stroke="#FFB74D" stroke-width="0.6"/>
<polygon points="851.80,707.99 1047.67,707.99 1047.67,714.31 851.80,714.31 851.80,707.99" fill="#FF9800" fill-opacity="0.12" stroke="#FFB74D" stroke-width="0.6"/>
<polygon points="851.80,700.09 851.80,693.77 1047.67,693.77 1047.67,700.09 851.80,700.09" fill="#FF9800" fill-opacity="0.12" stroke="#FFB74D" stroke-width="0.6"/>
<polygon points="839.17,606.88 742.81,606.88 742.81,600.56 839.17,600.56 839.17,606.88" fill="#FF9800" fill-opacity="0.12" stroke="#FFB74D" stroke-width="0.6"/>
<polygon points="851.80,600.56 1047.67,600.56 1047.67,606.88 851.80,606.88 851.80,600.56" fill="#FF9800" fill-opacity="0.12" stroke="#FFB74D" stroke-width="0.6"/>
<polygon points="1156.66,592.66 1060.31,592.66 1060.31,588.78 1058.70,588.96 1036.56,395.50 1039.70,395.14 1039.70,392.02 1156.42,392.02 1156.42,395.18 1159.58,395.18 1159.82,589.50 1156.66,589.50 1156.66,592.66" fill="#FF9800" fill-opacity="0.12" stroke="#FFB74D" stroke-width="0.6"/>
<polygon points="1047.67,590.22 1047.67,592.66 852.66,592.66 852.66,587.28 849.26,588.33 789.77,396.11 792.78,395.18 792.78,392.02 1023.80,392.02 1023.80,395.18 1026.94,394.82 1049.28,590.04 1047.67,590.22" fill="#FF9800" fill-opacity="0.12" stroke="#FFB74D" stroke-width="0.6"/>
<polygon points="792.44,384.12 792.44,380.96 789.28,380.96 789.28,257.73 792.44,257.73 792.44,254.57 1024.64,254.57 1024.64,257.73 1027.80,257.73 1027.80,380.96 1024.64,380.96 1024.64,384.12 792.44,384.12" fill="#FF9800" fill-opacity="0.12" stroke="#FFB74D" stroke-width="0.6"/>
<polygon points="778.22,240.36 778.22,246.68 670.48,246.68 670.48,240.36 778.22,240.36" fill="#FF9800" fill-opacity="0.12" stroke="#FFB74D" stroke-width="0.6"/>
<polygon points="1033.32,243.48 1033.32,180.46 1039.64,180.46 1039.64,180.57 1040.45,179.20 1145.67,240.79 1144.07,243.52 1144.07,246.68 1036.48,246.68 1036.48,243.48 1033.32,243.48" fill="#FF9800" fill-opacity="0.12" stroke="#FFB74D" stroke-width="0.6"/>
<polygon points="1027.01,246.68 792.44,246.68 792.44,240.36 1023.85,240.36 1023.85,174.58 1030.17,174.58 1030.17,243.52 1027.01,243.52 1027.01,246.68" fill="#FF9800" fill-opacity="0.12" stroke="#FFB74D" stroke-width="0.6"/>
<polygon points="1110.13,1462.36 1176.06,1446.61 1177.53,1452.76 1111.59,1468.51 1110.13,1462.36" fill="#FF9800" fill-opacity="0.12" stroke="#FFB74D" stroke-width="0.6"/>
<polygon points="1174.96,1442.00 1109.03,1457.75 1107.56,1451.60 1173.49,1435.86 1174.96,1442.00" fill="#FF9800" fill-opacity="0.12" stroke="#FFB74D" stroke-width="0.6"/>
<polygon points="1344.99,1438.63 1238.64,1442.86 1238.39,1436.54 1344.74,1432.31 1344.99,1438.63" fill="#FF9800" fill-opacity="0.12" stroke="#FFB74D" stroke-width="0.6"/>
<polygon points="1344.30,1421.26 1344.55,1427.58 1238.20,1431.81 1237.95,1425.49 1344.30,1421.26" fill="#FF9800" fill-opacity="0.12" stroke="#FFB74D" stroke-width="0.6"/>
<polygon points="1398.34,1222.23 1461.20,1222.23 1461.20,1228.55 1398.34,1228.55 1398.34,1222.23" fill="#FF9800" fill-opacity="0.12" stroke="#FFB74D" stroke-width="0.6"/>
<polygon points="1079.26,1171.68 1117.17,1171.68 1117.17,1178.00 1079.26,1178.00 1079.26,1171.68" fill="#FF9800" fill-opacity="0.12" stroke="#FFB74D" stroke-width="0.6"/>
<polygon points="1132.97,1114.01 1139.29,1114.01 1139.29,1165.36 1132.97,1165.36 1132.97,1114.01" fill="#FF9800" fill-opacity="0.12" stroke="#FFB74D" stroke-width="0.6"/>
<polygon points="1148.77,1114.01 1148.77,1165.36 1142.45,1165.36 1142.45,1114.01 1148.77,1114.01" fill="#FF9800" fill-opacity="0.12" stroke="#FFB74D" stroke-width="0.6"/>
<polygon points="1139.29,1025.54 1139.29,1102.08 1132.97,1102.08 1132.97,1025.54 1139.29,1025.54" fill="#FF9800" fill-opacity="0.12" stroke="#FFB74D" stroke-width="0.6"/>
<polygon points="1142.45,1025.54 1148.77,1025.54 1148.77,1102.08 1142.45,1102.08 1142.45,1025.54" fill="#FF9800" fill-opacity="0.12" stroke="#FFB74D" stroke-width="0.6"/>
<polygon points="1252.70,1022.38 1342.11,1022.38 1342.11,1028.70 1252.70,1028.70 1252.70,1022.38" fill="#FF9800" fill-opacity="0.12" stroke="#FFB74D" stroke-width="0.6"/>
<polygon points="1354.74,1022.38 1444.78,1022.38 1444.78,1028.70 1354.74,1028.70 1354.74,1022.38" fill="#FF9800" fill-opacity="0.12" stroke="#FFB74D" stroke-width="0.6"/>
<polygon points="1354.74,1016.06 1354.74,1009.74 1444.78,1009.74 1444.78,1016.06 1354.74,1016.06" fill="#FF9800" fill-opacity="0.12" stroke="#FFB74D" stroke-width="0.6"/>
<polygon points="1252.07,1009.74 1342.11,1009.74 1342.11,1016.06 1252.07,1016.06 1252.07,1009.74" fill="#FF9800" fill-opacity="0.12" stroke="#FFB74D" stroke-width="0.6"/>
<polygon points="1472.58,896.01 1472.60,896.01 1472.60,940.25 1466.29,940.25 1466.29,937.07 1466.26,937.07 1466.26,899.17 1395.21,899.17 1395.21,899.15 1379.41,899.15 1379.41,899.17 1289.37,899.17 1289.37,892.86 1290.93,892.86 1290.93,892.83 1469.42,892.83 1469.42,892.86 1469.45,892.86 1469.45,895.99 1472.58,895.99 1472.58,896.01" fill="#FF9800" fill-opacity="0.12" stroke="#FFB74D" stroke-width="0.6"/>
<polygon points="1144.97,914.63 1144.97,908.31 1223.95,908.31 1223.95,914.63 1144.97,914.63" fill="#FF9800" fill-opacity="0.12" stroke="#FFB74D" stroke-width="0.6"/>
<polygon points="1278.29,892.86 1279.90,892.86 1279.90,899.17 1236.62,899.17 1236.62,899.15 1227.11,899.15 1227.11,892.83 1278.29,892.83 1278.29,892.86" fill="#FF9800" fill-opacity="0.12" stroke="#FFB74D" stroke-width="0.6"/>
<polygon points="1279.90,889.70 1236.62,889.70 1236.62,889.67 1236.59,889.67 1227.11,889.67 1227.11,883.35 1236.59,883.35 1278.29,883.35 1278.29,883.38 1279.90,883.38 1279.90,889.70" fill="#FF9800" fill-opacity="0.12" stroke="#FFB74D" stroke-width="0.6"/>
<polygon points="1289.37,889.70 1289.37,883.38 1290.93,883.38 1290.93,883.35 1379.38,883.35 1379.38,883.38 1379.41,883.38 1379.41,889.70 1289.37,889.70" fill="#FF9800" fill-opacity="0.12" stroke="#FFB74D" stroke-width="0.6"/>
<polygon points="1166.14,901.99 1162.98,901.99 1162.98,859.34 1169.30,859.34 1169.30,898.83 1223.95,898.83 1223.95,905.15 1166.14,905.15 1166.14,901.99" fill="#FF9800" fill-opacity="0.12" stroke="#FFB74D" stroke-width="0.6"/>
<polygon points="1159.82,901.99 1156.66,901.99 1156.66,905.15 1144.97,905.15 1144.97,898.83 1153.50,898.83 1153.50,862.55 1060.34,863.45 1060.28,857.13 1060.28,857.13 1060.22,850.81 1156.57,849.88 1156.63,856.20 1156.63,856.20 1156.66,859.34 1159.82,859.34 1159.82,901.99" fill="#FF9800" fill-opacity="0.12" stroke="#FFB74D" stroke-width="0.6"/>
<polygon points="1289.43,862.52 1289.43,856.20 1379.41,856.20 1379.41,862.52 1289.43,862.52" fill="#FF9800" fill-opacity="0.12" stroke="#FFB74D" stroke-width="0.6"/>
<polygon points="1172.46,856.18 1172.46,849.86 1223.95,849.86 1223.95,856.18 1223.95,856.20 1227.14,856.20 1227.14,862.52 1172.48,862.52 1172.48,862.50 1172.46,862.50 1172.46,856.18" fill="#FF9800" fill-opacity="0.12" stroke="#FFB74D" stroke-width="0.6"/>
<polygon points="1289.43,849.88 1379.41,849.88 1379.41,856.20 1289.43,856.20 1289.43,849.88" fill="#FF9800" fill-opacity="0.12" stroke="#FFB74D" stroke-width="0.6"/>
<polygon points="1289.43,839.46 1289.43,833.14 1379.41,833.14 1379.41,839.46 1289.43,839.46" fill="#FF9800" fill-opacity="0.12" stroke="#FFB74D" stroke-width="0.6"/>
<polygon points="1289.43,826.82 1379.41,826.82 1379.41,833.14 1289.43,833.14 1289.43,826.82" fill="#FF9800" fill-opacity="0.12" stroke="#FFB74D" stroke-width="0.6"/>
<polygon points="1156.66,821.74 1109.28,821.74 1109.28,815.42 1156.66,815.42 1156.66,821.74" fill="#FF9800" fill-opacity="0.12" stroke="#FFB74D" stroke-width="0.6"/>
<polygon points="1399.63,810.70 1399.63,807.54 1402.79,807.54 1402.79,804.38 1438.17,804.38 1438.17,807.54 1441.33,807.54 1441.33,810.70 1438.17,810.70 1438.17,813.86 1402.79,813.86 1402.79,810.70 1399.63,810.70" fill="#FF9800" fill-opacity="0.12" stroke="#FFB74D" stroke-width="0.6"/>
<polygon points="1289.43,810.70 1289.43,804.38 1379.41,804.38 1379.41,810.70 1289.43,810.70" fill="#FF9800" fill-opacity="0.12" stroke="#FFB74D" stroke-width="0.6"/>
<polygon points="1156.66,802.78 1156.66,809.10 1109.28,809.10 1109.28,802.78 1156.66,802.78" fill="#FF9800" fill-opacity="0.12" stroke="#FFB74D" stroke-width="0.6"/>
<polygon points="1379.41,801.22 1289.37,801.22 1289.37,794.91 1379.41,794.90 1379.41,801.22" fill="#FF9800" fill-opacity="0.12" stroke="#FFB74D" stroke-width="0.6"/>
<polygon points="1153.53,774.05 1153.53,733.29 1159.85,733.29 1159.85,774.05 1153.53,774.05" fill="#FF9800" fill-opacity="0.12" stroke="#FFB74D" stroke-width="0.6"/>
<polygon points="1175.64,774.05 1169.33,774.05 1169.33,733.29 1175.64,733.29 1175.64,774.05" fill="#FF9800" fill-opacity="0.12" stroke="#FFB74D" stroke-width="0.6"/>
<polygon points="349.52,-179.67 351.58,-185.64 671.50,-75.48 670.48,-72.49 672.21,-75.13 928.59,92.89 1942.95,518.23 1941.73,521.15 1944.88,521.15 1944.88,1430.64 1938.57,1430.64 1938.57,534.59 1938.43,534.92 1933.83,532.99 1933.83,650.51 1927.51,650.51 1927.51,532.79 1794.02,503.01 1794.02,677.97 1787.71,677.97 1787.71,498.54 1788.50,498.54 1789.18,495.46 1907.02,521.75 950.60,120.59 1026.37,170.46 1022.90,175.74 918.65,107.13 920.38,104.50 918.65,107.13 668.74,-57.48 672.21,-62.76 721.99,-29.97 724.13,-33.55 669.07,-69.63 599.20,-93.69 645.29,-75.43 642.97,-69.55 505.04,-124.21 505.70,-125.89 470.32,-138.07 469.70,-135.79 347.58,-168.74 265.65,-182.60 265.65,39.72 259.33,39.72 259.33,-186.33 262.49,-186.33 263.02,-189.45 348.91,-174.92 348.86,-174.63 348.94,-174.92 415.34,-157.00 349.52,-179.67" fill="#FF9800" fill-opacity="0.12" stroke="#FFB74D" stroke-width="0.6"/>
<polygon points="1060.34,600.56 1156.70,600.74 1156.68,607.06 1060.33,606.88 1060.34,600.56" fill="#FF9800" fill-opacity="0.12" stroke="#FFB74D" stroke-width="0.6"/>
<polygon points="1172.48,606.90 1172.48,600.58 1379.41,600.58 1379.41,606.90 1172.48,606.90" fill="#FF9800" fill-opacity="0.12" stroke="#FFB74D" stroke-width="0.6"/>
<polygon points="1379.38,592.66 1172.46,592.66 1172.46,589.50 1169.30,589.51 1169.06,395.18 1172.22,395.18 1172.22,392.02 1378.99,392.02 1378.99,395.18 1382.15,395.17 1382.54,589.49 1379.38,589.50 1379.38,592.66" fill="#FF9800" fill-opacity="0.12" stroke="#FFB74D" stroke-width="0.6"/>
<polygon points="1382.12,380.96 1378.96,380.96 1378.96,384.12 1038.85,384.12 1038.85,380.96 1035.69,380.96 1035.69,257.73 1038.85,257.73 1038.85,254.57 1170.02,254.57 1170.02,257.73 1171.40,254.89 1380.30,356.39 1378.92,359.24 1382.08,359.23 1382.12,380.96" fill="#FF9800" fill-opacity="0.12" stroke="#FFB74D" stroke-width="0.6"/>
<polygon points="1725.64,1438.64 1553.94,1438.64 1553.94,1432.32 1725.64,1432.32 1725.64,1438.64" fill="#FF9800" fill-opacity="0.12" stroke="#FFB74D" stroke-width="0.6"/>
<polygon points="1490.76,1432.32 1490.76,1438.64 1407.83,1438.64 1407.83,1432.32 1490.76,1432.32" fill="#FF9800" fill-opacity="0.12" stroke="#FFB74D" stroke-width="0.6"/>
<polygon points="1553.94,1421.26 1725.64,1421.26 1725.64,1427.58 1553.94,1427.58 1553.94,1421.26" fill="#FF9800" fill-opacity="0.12" stroke="#FFB74D" stroke-width="0.6"/>
<polygon points="1490.76,1421.26 1490.76,1427.58 1407.83,1427.58 1407.83,1421.26 1490.76,1421.26" fill="#FF9800" fill-opacity="0.12" stroke="#FFB74D" stroke-width="0.6"/>
<polygon points="1771.12,1424.27 1771.12,1282.27 1777.44,1282.27 1777.44,1424.27 1771.12,1424.27" fill="#FF9800" fill-opacity="0.12" stroke="#FFB74D" stroke-width="0.6"/>
<polygon points="1551.45,1279.11 1646.22,1279.11 1646.22,1285.43 1551.45,1285.43 1551.45,1279.11" fill="#FF9800" fill-opacity="0.12" stroke="#FFB74D" stroke-width="0.6"/>
<polygon points="1658.86,1285.43 1658.86,1279.11 1752.71,1279.11 1752.71,1285.43 1658.86,1285.43" fill="#FF9800" fill-opacity="0.12" stroke="#FFB74D" stroke-width="0.6"/>
<polygon points="1472.02,1279.11 1538.81,1279.11 1538.81,1285.43 1472.02,1285.43 1472.02,1279.11" fill="#FF9800" fill-opacity="0.12" stroke="#FFB74D" stroke-width="0.6"/>
<polygon points="1551.63,1266.47 1646.22,1266.47 1646.22,1272.79 1551.63,1272.79 1551.63,1266.47" fill="#FF9800" fill-opacity="0.12" stroke="#FFB74D" stroke-width="0.6"/>
<polygon points="1658.86,1272.79 1658.86,1266.47 1752.71,1266.47 1752.71,1272.79 1658.86,1272.79" fill="#FF9800" fill-opacity="0.12" stroke="#FFB74D" stroke-width="0.6"/>
<polygon points="1472.02,1266.47 1538.81,1266.47 1538.81,1272.79 1472.02,1272.79 1472.02,1266.47" fill="#FF9800" fill-opacity="0.12" stroke="#FFB74D" stroke-width="0.6"/>
<polygon points="1437.51,1212.76 1458.04,1212.76 1458.04,1219.07 1437.51,1219.07 1437.51,1212.76" fill="#FF9800" fill-opacity="0.12" stroke="#FFB74D" stroke-width="0.6"/>
<polygon points="1643.31,1155.08 1649.63,1155.08 1649.63,1190.71 1643.31,1190.71 1643.31,1155.08" fill="#FF9800" fill-opacity="0.12" stroke="#FFB74D" stroke-width="0.6"/>
<polygon points="1659.11,1155.08 1659.10,1152.03 1704.91,1151.92 1704.92,1158.24 1662.26,1158.34 1662.26,1190.71 1655.95,1190.71 1655.95,1155.08 1659.11,1155.08" fill="#FF9800" fill-opacity="0.12" stroke="#FFB74D" stroke-width="0.6"/>
<polygon points="1657.53,1139.29 1704.91,1139.29 1704.91,1145.61 1657.53,1145.61 1657.53,1139.29" fill="#FF9800" fill-opacity="0.12" stroke="#FFB74D" stroke-width="0.6"/>
<polygon points="1542.22,1142.45 1535.90,1142.45 1535.90,1114.01 1542.22,1114.01 1542.22,1142.45" fill="#FF9800" fill-opacity="0.12" stroke="#FFB74D" stroke-width="0.6"/>
<polygon points="1551.69,1142.45 1551.69,1114.01 1558.01,1114.01 1558.01,1142.45 1551.69,1142.45" fill="#FF9800" fill-opacity="0.12" stroke="#FFB74D" stroke-width="0.6"/>
<polygon points="1794.02,1041.34 1794.02,1145.61 1787.70,1145.61 1787.70,1041.34 1794.02,1041.34" fill="#FF9800" fill-opacity="0.12" stroke="#FFB74D" stroke-width="0.6"/>
<polygon points="1769.54,1041.34 1775.86,1041.34 1775.86,1145.61 1769.54,1145.61 1769.54,1041.34" fill="#FF9800" fill-opacity="0.12" stroke="#FFB74D" stroke-width="0.6"/>
<polygon points="1927.51,654.27 1933.83,654.27 1933.83,1430.64 1930.67,1430.64 1930.78,1433.79 1788.93,1438.63 1788.71,1432.32 1927.51,1427.58 1927.51,1422.84 1788.55,1427.58 1788.42,1423.85 1785.33,1423.85 1785.33,1282.27 1791.65,1282.27 1791.65,1421.15 1927.51,1416.51 1927.51,654.27" fill="#FF9800" fill-opacity="0.12" stroke="#FFB74D" stroke-width="0.6"/>
<polygon points="1457.41,1022.38 1542.22,1022.38 1542.22,1028.70 1457.41,1028.70 1457.41,1022.38" fill="#FF9800" fill-opacity="0.12" stroke="#FFB74D" stroke-width="0.6"/>
<polygon points="1554.85,1028.70 1554.85,1022.38 1608.42,1022.38 1608.42,1028.70 1554.85,1028.70" fill="#FF9800" fill-opacity="0.12" stroke="#FFB74D" stroke-width="0.6"/>
<polygon points="1457.41,1009.74 1542.22,1009.74 1542.22,1016.06 1457.41,1016.06 1457.41,1009.74" fill="#FF9800" fill-opacity="0.12" stroke="#FFB74D" stroke-width="0.6"/>
<polygon points="1611.58,1012.90 1608.42,1012.90 1608.42,1016.06 1554.85,1016.06 1554.85,1012.90 1551.69,1012.90 1551.69,949.71 1558.01,949.71 1558.01,1009.74 1605.26,1009.74 1605.26,949.71 1611.58,949.71 1611.58,1012.90" fill="#FF9800" fill-opacity="0.12" stroke="#FFB74D" stroke-width="0.6"/>
<polygon points="1623.90,1012.91 1617.58,1012.88 1617.90,949.69 1624.22,949.72 1623.90,1012.91" fill="#FF9800" fill-opacity="0.12" stroke="#FFB74D" stroke-width="0.6"/>
<polygon points="1548.54,949.71 1548.54,1012.90 1542.22,1012.90 1542.22,949.71 1548.54,949.71" fill="#FF9800" fill-opacity="0.12" stroke="#FFB74D" stroke-width="0.6"/>
<polygon points="1478.92,899.15 1478.90,899.15 1478.90,892.83 1602.10,892.83 1602.10,892.86 1602.13,892.86 1602.13,899.17 1572.43,899.17 1572.43,940.25 1566.12,940.25 1566.12,940.25 1559.80,940.25 1559.80,899.17 1488.40,899.17 1488.40,940.25 1482.08,940.25 1482.08,899.17 1478.92,899.17 1478.92,899.15" fill="#FF9800" fill-opacity="0.12" stroke="#FFB74D" stroke-width="0.6"/>
<polygon points="1611.29,907.07 1604.97,907.07 1604.97,896.01 1611.29,896.01 1611.29,907.07" fill="#FF9800" fill-opacity="0.12" stroke="#FFB74D" stroke-width="0.6"/>
<polygon points="1617.92,892.89 1617.93,892.89 1617.93,892.87 1772.72,892.80 1772.73,899.12 1772.73,899.12 1772.73,899.14 1617.93,899.21 1617.92,892.89" fill="#FF9800" fill-opacity="0.12" stroke="#FFB74D" stroke-width="0.6"/>
<polygon points="1772.72,883.39 1772.72,889.71 1617.93,889.71 1617.93,889.70 1617.93,886.54 1614.77,886.54 1614.77,810.70 1617.93,810.70 1617.93,807.54 1636.56,807.54 1636.56,804.38 1662.15,804.38 1662.15,807.54 1665.31,807.54 1665.31,807.54 1665.31,807.54 1665.31,810.70 1668.47,810.70 1668.47,883.39 1772.72,883.39" fill="#FF9800" fill-opacity="0.12" stroke="#FFB74D" stroke-width="0.6"/>
<polygon points="1573.38,807.54 1573.38,804.38 1598.97,804.38 1598.97,807.54 1602.13,807.54 1602.13,810.70 1605.29,810.70 1605.29,886.54 1602.13,886.54 1602.13,886.54 1602.13,889.70 1602.13,889.70 1602.13,889.70 1395.21,889.70 1395.21,889.67 1395.18,889.67 1395.18,883.35 1548.41,883.35 1548.41,810.70 1551.57,810.70 1551.57,807.54 1570.22,807.54 1573.38,807.54" fill="#FF9800" fill-opacity="0.12" stroke="#FFB74D" stroke-width="0.6"/>
<polygon points="1475.76,807.54 1478.92,807.54 1478.92,804.38 1507.35,804.38 1507.35,807.54 1510.51,807.54 1510.51,810.70 1507.35,810.70 1507.35,813.86 1478.92,813.86 1478.92,810.70 1475.76,810.70 1475.76,807.54" fill="#FF9800" fill-opacity="0.12" stroke="#FFB74D" stroke-width="0.6"/>
<polygon points="1567.06,703.27 1570.22,703.27 1570.22,700.11 1598.97,700.11 1598.97,703.27 1602.13,703.27 1602.13,706.43 1598.97,706.43 1598.97,709.59 1570.22,709.59 1570.22,706.43 1567.06,706.43 1567.06,703.27" fill="#FF9800" fill-opacity="0.12" stroke="#FFB74D" stroke-width="0.6"/>
<polygon points="1722.18,687.48 1725.34,687.48 1725.34,684.32 1745.24,684.32 1745.24,608.48 1751.56,608.48 1751.56,678.00 1751.61,678.00 1751.61,684.32 1769.62,684.32 1769.62,678.00 1757.88,678.00 1757.88,674.84 1754.72,674.84 1754.72,608.48 1761.03,608.48 1761.03,671.68 1769.54,671.68 1769.54,606.90 1757.88,606.90 1757.88,600.58 1769.54,600.58 1769.54,592.66 1617.90,592.66 1617.90,589.50 1614.74,589.51 1614.46,449.39 1617.62,449.38 1618.50,446.35 1775.16,491.88 1774.28,494.92 1775.86,494.92 1775.86,613.22 1775.94,613.22 1775.94,674.84 1775.86,674.84 1775.86,674.84 1775.94,674.84 1775.94,687.48 1775.88,687.48 1775.88,766.47 1772.72,766.47 1772.72,769.63 1725.34,769.63 1725.34,766.47 1722.18,766.47 1722.18,744.35 1722.18,744.35 1722.18,741.19 1719.02,741.19 1719.02,715.60 1722.18,715.60 1722.18,712.44 1722.18,712.44 1722.18,687.48" fill="#FF9800" fill-opacity="0.12" stroke="#FFB74D" stroke-width="0.6"/>
<polygon points="1617.93,600.58 1748.40,600.58 1748.40,606.90 1617.93,606.90 1617.93,600.58" fill="#FF9800" fill-opacity="0.12" stroke="#FFB74D" stroke-width="0.6"/>
<polygon points="1391.60,380.97 1391.57,366.03 1394.73,366.02 1395.85,363.07 1602.93,441.25 1601.81,444.21 1604.97,444.20 1605.26,589.49 1602.10,589.50 1602.10,592.66 1502.62,592.66 1502.62,592.66 1505.78,592.66 1505.78,600.58 1602.13,600.58 1602.13,606.90 1505.78,606.90 1505.78,638.50 1502.62,638.50 1502.62,641.66 1395.21,641.66 1395.21,638.50 1392.05,638.50 1392.05,592.66 1395.18,592.66 1395.18,589.50 1392.02,589.51 1391.63,395.19 1394.79,395.18 1394.79,392.02 1454.64,392.02 1430.54,382.92 1430.54,384.12 1394.76,384.12 1394.76,380.96 1391.60,380.97" fill="#FF9800" fill-opacity="0.12" stroke="#FFB74D" stroke-width="0.6"/>
<polygon class="slab-poly" data-slab-id="SLAB-001" points="1024.08,245.25 1024.08,52.20 1063.63,52.20 1063.63,245.25 1038.06,245.25 1038.06,243.48 1038.06,243.32 1038.03,243.17 1038.00,243.02 1037.94,242.87 1037.88,242.73 1037.80,242.60 1037.71,242.48 1037.60,242.36 1037.49,242.26 1037.36,242.17 1037.23,242.09 1037.09,242.02 1036.94,241.97 1036.79,241.93 1036.64,241.91 1036.48,241.90 1036.48,241.90 1027.01,241.90 1027.01,241.90 1027.01,241.90 1026.85,241.91 1026.70,241.93 1026.55,241.97 1026.40,242.02 1026.26,242.09 1026.13,242.17 1026.00,242.26 1025.89,242.36 1025.79,242.48 1025.69,242.60 1025.61,242.73 1025.55,242.87 1025.49,243.02 1025.46,243.17 1025.43,243.32 1025.43,243.48 1025.43,245.25 1024.08,245.25" fill="#2196F3" fill-opacity="0.45" stroke="#2196F3" stroke-width="0.8"/>
<polygon class="slab-poly" data-slab-id="SLAB-002" points="442.86,245.25 442.86,52.20 503.85,52.20 503.85,245.25 501.01,245.25 501.01,243.48 501.00,243.32 500.98,243.17 500.94,243.02 500.89,242.87 500.82,242.73 500.74,242.60 500.65,242.48 500.55,242.36 500.43,242.26 500.31,242.17 500.17,242.09 500.03,242.02 499.89,241.97 499.74,241.93 499.58,241.91 499.43,241.90 489.95,241.90 489.80,241.91 489.64,241.93 489.49,241.97 489.35,242.02 489.35,242.02 489.35,242.02 489.21,242.09 489.07,242.17 488.95,242.26 488.83,242.36 488.73,242.48 488.64,242.60 488.56,242.73 488.49,242.87 488.44,243.02 488.40,243.17 488.38,243.32 488.37,243.48 488.37,245.25 442.86,245.25" fill="#2196F3" fill-opacity="0.45" stroke="#2196F3" stroke-width="0.8"/>
<polygon class="slab-poly" data-slab-id="SLAB-003" points="756.87,245.25 756.87,52.20 839.33,52.20 839.33,245.25 791.65,245.25 791.65,243.48 791.64,243.32 791.62,243.17 791.58,243.02 791.53,242.87 791.46,242.73 791.38,242.60 791.29,242.48 791.19,242.36 791.07,242.26 790.95,242.17 790.81,242.09 790.67,242.02 790.53,241.97 790.38,241.93 790.22,241.91 790.07,241.90 780.59,241.90 780.44,241.91 780.28,241.93 780.28,241.93 780.28,241.93 780.13,241.97 779.99,242.02 779.85,242.09 779.72,242.17 779.59,242.26 779.48,242.36 779.37,242.48 779.28,242.60 779.20,242.73 779.13,242.87 779.08,243.02 779.04,243.17 779.02,243.32 779.01,243.48 779.01,245.25 756.87,245.25" fill="#2196F3" fill-opacity="0.45" stroke="#2196F3" stroke-width="0.8"/>
<polygon class="slab-poly" data-slab-id="SLAB-004" points="245.27,241.90 243.54,241.90 243.38,241.91 243.23,241.93 243.08,241.97 242.93,242.02 242.79,242.09 242.79,242.09 242.79,242.09 242.66,242.17 242.53,242.26 242.42,242.36 242.32,242.48 242.22,242.60 242.14,242.73 242.08,242.87 242.03,243.02 241.99,243.17 241.96,243.32 241.96,243.48 241.96,243.48 241.96,245.25 161.37,245.25 161.37,52.20 243.54,52.20 243.54,53.90 245.27,53.90 245.27,241.90" fill="#2196F3" fill-opacity="0.45" stroke="#2196F3" stroke-width="0.8"/>
<polygon class="slab-poly" data-slab-id="SLAB-005" points="951.16,245.25 951.16,52.20 1027.56,52.20 1027.56,241.90 1027.01,241.90 1027.01,241.90 1027.01,241.90 1026.85,241.91 1026.70,241.93 1026.55,241.97 1026.40,242.02 1026.26,242.09 1026.13,242.17 1026.00,242.26 1025.89,242.36 1025.79,242.48 1025.69,242.60 1025.61,242.73 1025.55,242.87 1025.49,243.02 1025.46,243.17 1025.43,243.32 1025.43,243.48 1025.43,245.25 951.16,245.25" fill="#2196F3" fill-opacity="0.45" stroke="#2196F3" stroke-width="0.8"/>
<polygon class="slab-poly" data-slab-id="SLAB-006" points="1139.13,245.25 1139.13,52.20 1174.08,52.20 1174.08,245.25 1139.13,245.25" fill="#2196F3" fill-opacity="0.45" stroke="#2196F3" stroke-width="0.8"/>
<polygon class="slab-poly" data-slab-id="SLAB-007" points="1060.15,245.25 1060.15,52.20 1142.60,52.20 1142.60,245.25 1060.15,245.25" fill="#2196F3" fill-opacity="0.45" stroke="#2196F3" stroke-width="0.8"/>
<polygon class="slab-poly" data-slab-id="SLAB-008" points="850.07,245.25 850.07,52.20 954.63,52.20 954.63,245.25 850.07,245.25" fill="#2196F3" fill-opacity="0.45" stroke="#2196F3" stroke-width="0.8"/>
<polygon class="slab-poly" data-slab-id="SLAB-009" points="670.80,245.25 670.80,52.20 760.35,52.20 760.35,245.25 670.80,245.25" fill="#2196F3" fill-opacity="0.45" stroke="#2196F3" stroke-width="0.8"/>
<polygon class="slab-poly" data-slab-id="SLAB-010" points="514.91,245.25 514.91,52.20 660.06,52.20 660.06,245.25 514.91,245.25" fill="#2196F3" fill-opacity="0.45" stroke="#2196F3" stroke-width="0.8"/>
<polygon class="slab-poly" data-slab-id="SLAB-011" points="344.52,245.25 344.52,52.20 432.12,52.20 432.12,245.25 344.52,245.25" fill="#2196F3" fill-opacity="0.45" stroke="#2196F3" stroke-width="0.8"/>
<polygon class="slab-poly" data-slab-id="SLAB-012" points="125.04,245.25 125.04,52.20 164.85,52.20 164.85,245.25 125.04,245.25" fill="#2196F3" fill-opacity="0.45" stroke="#2196F3" stroke-width="0.8"/>
<polygon class="slab-poly" data-slab-id="SLAB-013" points="128.52,52.20 128.52,245.25 52.19,245.25 52.19,53.90 53.93,53.90 53.93,52.20 128.52,52.20" fill="#2196F3" fill-opacity="0.45" stroke="#2196F3" stroke-width="0.8"/>
<polygon class="slab-poly" data-slab-id="SLAB-014" points="348.00,52.20 348.00,245.25 289.32,245.25 289.32,53.90 290.92,53.90 290.92,52.20 348.00,52.20" fill="#2196F3" fill-opacity="0.45" stroke="#2196F3" stroke-width="0.8"/>
<polygon class="slab-poly" data-slab-id="SLAB-015" points="292.79,52.20 292.79,245.25 254.59,245.25 254.59,243.48 254.59,243.32 254.56,243.17 254.53,243.02 254.47,242.87 254.41,242.73 254.33,242.60 254.24,242.48 254.13,242.36 254.02,242.26 253.89,242.17 253.76,242.09 253.62,242.02 253.47,241.97 253.32,241.93 253.17,241.91 253.01,241.90 243.54,241.90 243.38,241.91 243.23,241.93 243.08,241.97 242.93,242.02 242.79,242.09 242.79,242.09 242.79,242.09 242.66,242.17 242.53,242.26 242.42,242.36 242.32,242.48 242.22,242.60 242.14,242.73 242.08,242.87 242.03,243.02 241.99,243.17 241.96,243.32 241.96,243.48 241.96,243.48 241.96,245.25 241.80,245.25 241.80,52.20 243.54,52.20 243.54,53.90 290.92,53.90 290.92,52.20 292.79,52.20" fill="#2196F3" fill-opacity="0.45" stroke="#2196F3" stroke-width="0.8"/>
<polygon class="slab-poly" data-slab-id="SLAB-016" points="1611.12,396.92 1553.12,396.92 1553.12,245.25 1553.12,241.78 1553.12,52.20 1607.64,52.20 1611.12,52.20 1750.14,52.20 1750.14,245.25 1611.12,245.25 1611.12,396.92" fill="#2196F3" fill-opacity="0.45" stroke="#2196F3" stroke-width="0.8"/>
<polygon class="slab-poly" data-slab-id="SLAB-017" points="1170.60,245.25 1170.60,241.78 1170.60,52.20 1380.93,52.20 1380.93,241.78 1380.93,245.25 1380.93,396.92 1170.60,396.92 1170.60,245.25" fill="#2196F3" fill-opacity="0.45" stroke="#2196F3" stroke-width="0.8"/>
<polygon class="slab-poly" data-slab-id="SLAB-018" points="1607.64,241.78 1746.66,241.78 1746.66,52.20 1791.81,52.20 1791.81,245.25 1750.14,245.25 1750.14,396.92 1607.64,396.92 1607.64,241.78" fill="#2196F3" fill-opacity="0.45" stroke="#2196F3" stroke-width="0.8"/>
<polygon class="slab-poly" data-slab-id="SLAB-019" points="1393.25,396.92 1393.25,241.78 1547.11,241.78 1547.11,396.92 1510.13,396.92 1510.13,376.68 1510.12,376.53 1510.09,376.38 1510.06,376.23 1510.00,376.08 1509.94,375.94 1509.86,375.81 1509.77,375.68 1509.66,375.57 1509.55,375.46 1509.42,375.37 1509.29,375.29 1509.15,375.22 1509.00,375.17 1508.85,375.13 1508.70,375.11 1508.55,375.10 1445.48,375.10 1445.32,375.11 1445.17,375.13 1445.02,375.17 1444.87,375.22 1444.73,375.29 1444.60,375.37 1444.47,375.46 1444.36,375.57 1444.26,375.68 1444.16,375.81 1444.08,375.94 1444.02,376.08 1443.96,376.23 1443.93,376.38 1443.90,376.53 1443.90,376.68 1443.90,396.92 1393.25,396.92" fill="#2196F3" fill-opacity="0.45" stroke="#2196F3" stroke-width="0.8"/>
<polygon class="slab-poly" data-slab-id="SLAB-020" points="1746.66,396.92 1746.66,241.78 1791.81,241.78 1791.81,396.92 1746.66,396.92" fill="#2196F3" fill-opacity="0.45" stroke="#2196F3" stroke-width="0.8"/>
<polygon class="slab-poly" data-slab-id="SLAB-021" points="1139.13,396.92 1139.13,241.78 1174.08,241.78 1174.08,396.92 1139.13,396.92" fill="#2196F3" fill-opacity="0.45" stroke="#2196F3" stroke-width="0.8"/>
<polygon class="slab-poly" data-slab-id="SLAB-022" points="850.07,396.92 850.07,241.78 954.63,241.78 954.63,396.92 850.07,396.92" fill="#2196F3" fill-opacity="0.45" stroke="#2196F3" stroke-width="0.8"/>
<polygon class="slab-poly" data-slab-id="SLAB-023" points="670.80,396.92 670.80,241.78 760.35,241.78 760.35,396.92 670.80,396.92" fill="#2196F3" fill-opacity="0.45" stroke="#2196F3" stroke-width="0.8"/>
<polygon class="slab-poly" data-slab-id="SLAB-024" points="514.91,396.92 514.91,241.78 660.06,241.78 660.06,396.92 514.91,396.92" fill="#2196F3" fill-opacity="0.45" stroke="#2196F3" stroke-width="0.8"/>
<polygon class="slab-poly" data-slab-id="SLAB-025" points="344.52,378.75 344.52,259.95 432.12,259.95 432.12,378.75 344.52,378.75" fill="#2196F3" fill-opacity="0.45" stroke="#2196F3" stroke-width="0.8"/>
<polygon class="slab-poly" data-slab-id="SLAB-026" points="256.02,396.92 256.02,241.78 432.12,241.78 432.12,396.92 256.02,396.92" fill="#2196F3" fill-opacity="0.45" stroke="#2196F3" stroke-width="0.8"/>
<polygon class="slab-poly" data-slab-id="SLAB-027" points="52.19,396.92 52.19,241.78 164.85,241.78 164.85,396.92 52.19,396.92" fill="#2196F3" fill-opacity="0.45" stroke="#2196F3" stroke-width="0.8"/>
<polygon class="slab-poly" data-slab-id="SLAB-028" points="1027.56,396.92 951.16,396.92 951.16,241.78 1027.56,241.78 1027.56,241.90 1027.01,241.90 1027.01,241.90 1027.01,241.90 1026.85,241.91 1026.70,241.93 1026.55,241.97 1026.40,242.02 1026.26,242.09 1026.13,242.17 1026.00,242.26 1025.89,242.36 1025.79,242.48 1025.69,242.60 1025.61,242.73 1025.55,242.87 1025.49,243.02 1025.46,243.17 1025.43,243.32 1025.43,243.48 1025.43,290.87 1025.43,291.03 1025.46,291.18 1025.49,291.33 1025.55,291.48 1025.61,291.62 1025.69,291.75 1025.79,291.88 1025.89,291.99 1026.00,292.10 1026.13,292.19 1026.26,292.27 1026.40,292.33 1026.55,292.39 1026.70,292.42 1026.85,292.45 1027.01,292.45 1027.56,292.45 1027.56,346.17 1027.01,346.17 1027.01,346.17 1027.01,346.17 1026.85,346.18 1026.70,346.20 1026.55,346.24 1026.40,346.29 1026.26,346.36 1026.13,346.43 1026.00,346.53 1025.89,346.63 1025.79,346.75 1025.69,346.87 1025.61,347.00 1025.55,347.14 1025.49,347.29 1025.46,347.44 1025.43,347.59 1025.43,347.75 1025.43,395.14 1025.43,395.30 1025.46,395.45 1025.49,395.60 1025.55,395.75 1025.61,395.89 1025.69,396.02 1025.79,396.15 1025.89,396.26 1026.00,396.36 1026.13,396.46 1026.26,396.54 1026.40,396.60 1026.55,396.66 1026.70,396.69 1026.85,396.72 1027.01,396.72 1027.56,396.72 1027.56,396.92" fill="#2196F3" fill-opacity="0.45" stroke="#2196F3" stroke-width="0.8"/>
<polygon class="slab-poly" data-slab-id="SLAB-029" points="125.04,396.92 125.04,241.78 292.79,241.78 292.79,396.92 125.04,396.92" fill="#2196F3" fill-opacity="0.45" stroke="#2196F3" stroke-width="0.8"/>
<polygon class="slab-poly" data-slab-id="SLAB-030" points="1024.08,396.92 1024.08,241.78 1142.60,241.78 1142.60,396.92 1024.08,396.92" fill="#2196F3" fill-opacity="0.45" stroke="#2196F3" stroke-width="0.8"/>
<polygon class="slab-poly" data-slab-id="SLAB-031" points="756.87,396.92 756.87,241.78 839.33,241.78 839.33,396.92 756.87,396.92" fill="#2196F3" fill-opacity="0.45" stroke="#2196F3" stroke-width="0.8"/>
<polygon class="slab-poly" data-slab-id="SLAB-032" points="442.86,396.92 442.86,241.78 503.85,241.78 503.85,396.92 442.86,396.92" fill="#2196F3" fill-opacity="0.45" stroke="#2196F3" stroke-width="0.8"/>
<polygon class="slab-poly" data-slab-id="SLAB-033" points="1170.60,393.44 1380.93,393.44 1380.93,545.27 1170.60,545.27 1170.60,393.44" fill="#2196F3" fill-opacity="0.45" stroke="#2196F3" stroke-width="0.8"/>
<polygon class="slab-poly" data-slab-id="SLAB-034" points="1139.13,393.44 1174.08,393.44 1174.08,545.27 1139.13,545.27 1139.13,393.44" fill="#2196F3" fill-opacity="0.45" stroke="#2196F3" stroke-width="0.8"/>
<polygon class="slab-poly" data-slab-id="SLAB-035" points="1060.15,393.44 1142.60,393.44 1142.60,545.27 1060.15,545.27 1060.15,393.44" fill="#2196F3" fill-opacity="0.45" stroke="#2196F3" stroke-width="0.8"/>
<polygon class="slab-poly" data-slab-id="SLAB-036" points="850.07,393.44 954.63,393.44 954.63,545.27 850.07,545.27 850.07,393.44" fill="#2196F3" fill-opacity="0.45" stroke="#2196F3" stroke-width="0.8"/>
<polygon class="slab-poly" data-slab-id="SLAB-037" points="670.80,393.44 760.35,393.44 760.35,545.27 670.80,545.27 670.80,393.44" fill="#2196F3" fill-opacity="0.45" stroke="#2196F3" stroke-width="0.8"/>
<polygon class="slab-poly" data-slab-id="SLAB-038" points="514.91,393.44 660.06,393.44 660.06,545.27 514.91,545.27 514.91,393.44" fill="#2196F3" fill-opacity="0.45" stroke="#2196F3" stroke-width="0.8"/>
<polygon class="slab-poly" data-slab-id="SLAB-039" points="1027.56,545.27 951.16,545.27 951.16,393.44 1025.43,393.44 1025.43,395.14 1025.43,395.30 1025.46,395.45 1025.49,395.60 1025.55,395.75 1025.61,395.89 1025.69,396.02 1025.79,396.15 1025.89,396.26 1026.00,396.36 1026.13,396.46 1026.26,396.54 1026.40,396.60 1026.55,396.66 1026.70,396.69 1026.85,396.72 1027.01,396.72 1027.56,396.72 1027.56,545.27" fill="#2196F3" fill-opacity="0.45" stroke="#2196F3" stroke-width="0.8"/>
<polygon class="slab-poly" data-slab-id="SLAB-040" points="839.33,393.44 839.33,545.27 756.87,545.27 756.87,393.44 779.01,393.44 779.01,395.14 779.02,395.30 779.04,395.45 779.08,395.60 779.13,395.75 779.20,395.89 779.28,396.02 779.37,396.15 779.48,396.26 779.59,396.36 779.72,396.46 779.85,396.54 779.99,396.60 780.13,396.66 780.28,396.69 780.44,396.72 780.59,396.72 790.07,396.72 790.22,396.72 790.38,396.69 790.38,396.69 790.38,396.69 790.53,396.66 790.67,396.60 790.81,396.54 790.95,396.46 791.07,396.36 791.19,396.26 791.29,396.15 791.38,396.02 791.46,395.89 791.53,395.75 791.58,395.60 791.62,395.45 791.64,395.30 791.65,395.14 791.65,393.44 839.33,393.44" fill="#2196F3" fill-opacity="0.45" stroke="#2196F3" stroke-width="0.8"/>
<polygon class="slab-poly" data-slab-id="SLAB-041" points="518.38,393.44 518.38,545.27 442.86,545.27 442.86,393.44 488.37,393.44 488.37,395.14 488.38,395.30 488.40,395.45 488.44,395.60 488.49,395.75 488.56,395.89 488.64,396.02 488.73,396.15 488.83,396.26 488.95,396.36 489.07,396.46 489.21,396.54 489.35,396.60 489.49,396.66 489.64,396.69 489.80,396.72 489.95,396.72 499.43,396.72 499.58,396.72 499.74,396.69 499.89,396.66 500.03,396.60 500.03,396.60 500.03,396.60 500.17,396.54 500.31,396.46 500.43,396.36 500.55,396.26 500.65,396.15 500.74,396.02 500.82,395.89 500.89,395.75 500.94,395.60 500.98,395.45 501.00,395.30 501.01,395.14 501.01,393.44 518.38,393.44" fill="#2196F3" fill-opacity="0.45" stroke="#2196F3" stroke-width="0.8"/>
<polygon class="slab-poly" data-slab-id="SLAB-042" points="1063.63,393.44 1063.63,545.27 1024.08,545.27 1024.08,393.44 1025.43,393.44 1025.43,395.14 1025.43,395.30 1025.46,395.45 1025.49,395.60 1025.55,395.75 1025.61,395.89 1025.69,396.02 1025.79,396.15 1025.89,396.26 1026.00,396.36 1026.13,396.46 1026.26,396.54 1026.40,396.60 1026.55,396.66 1026.70,396.69 1026.85,396.72 1027.01,396.72 1036.48,396.72 1036.48,396.72 1036.64,396.72 1036.79,396.69 1036.94,396.66 1037.09,396.60 1037.23,396.54 1037.36,396.46 1037.49,396.36 1037.60,396.26 1037.71,396.15 1037.80,396.02 1037.88,395.89 1037.94,395.75 1038.00,395.60 1038.03,395.45 1038.06,395.30 1038.06,395.14 1038.06,393.44 1063.63,393.44" fill="#2196F3" fill-opacity="0.45" stroke="#2196F3" stroke-width="0.8"/>
<polygon class="slab-poly" data-slab-id="SLAB-043" points="344.52,591.24 344.52,393.44 432.12,393.44 432.12,545.27 396.89,545.27 392.24,545.49 387.64,546.18 383.13,547.31 378.76,548.87 374.55,550.86 370.56,553.25 366.83,556.02 363.38,559.15 360.26,562.59 357.49,566.33 355.10,570.32 353.11,574.52 351.54,578.90 350.41,583.41 349.73,588.02 349.57,591.24 344.52,591.24" fill="#2196F3" fill-opacity="0.45" stroke="#2196F3" stroke-width="0.8"/>
<polygon class="slab-poly" data-slab-id="SLAB-044" points="1547.11,393.44 1547.11,576.53 1546.40,574.52 1544.41,570.32 1542.02,566.33 1539.25,562.59 1536.12,559.15 1532.68,556.02 1528.94,553.25 1524.95,550.86 1520.75,548.87 1516.37,547.31 1511.86,546.18 1507.26,545.49 1502.62,545.27 1393.25,545.27 1393.25,393.44 1443.90,393.44 1443.90,409.86 1443.90,410.01 1443.93,410.17 1443.96,410.32 1444.02,410.46 1444.08,410.60 1444.16,410.74 1444.26,410.86 1444.36,410.98 1444.47,411.08 1444.60,411.17 1444.73,411.25 1444.87,411.32 1445.02,411.37 1445.17,411.41 1445.32,411.43 1445.48,411.44 1508.55,411.44 1508.70,411.43 1508.85,411.41 1509.00,411.37 1509.15,411.32 1509.29,411.25 1509.42,411.17 1509.55,411.08 1509.66,410.98 1509.77,410.86 1509.86,410.74 1509.94,410.60 1510.00,410.46 1510.06,410.32 1510.09,410.17 1510.12,410.01 1510.13,409.86 1510.13,393.44 1547.11,393.44" fill="#2196F3" fill-opacity="0.45" stroke="#2196F3" stroke-width="0.8"/>
<polygon class="slab-poly" data-slab-id="SLAB-045" points="289.32,591.24 289.32,393.44 348.00,393.44 348.00,591.24 289.32,591.24" fill="#2196F3" fill-opacity="0.45" stroke="#2196F3" stroke-width="0.8"/>
<polygon class="slab-poly" data-slab-id="SLAB-046" points="125.04,591.24 125.04,393.44 164.85,393.44 164.85,591.24 125.04,591.24" fill="#2196F3" fill-opacity="0.45" stroke="#2196F3" stroke-width="0.8"/>
<polygon class="slab-poly" data-slab-id="SLAB-047" points="52.19,591.24 52.19,393.44 128.52,393.44 128.52,591.24 52.19,591.24" fill="#2196F3" fill-opacity="0.45" stroke="#2196F3" stroke-width="0.8"/>
<polygon class="slab-poly" data-slab-id="SLAB-048" points="245.27,591.24 177.33,591.24 177.33,589.53 174.17,589.53 174.17,591.24 161.37,591.24 161.37,393.44 241.96,393.44 241.96,395.14 241.96,395.30 241.99,395.45 242.03,395.60 242.08,395.75 242.14,395.89 242.22,396.02 242.32,396.15 242.42,396.26 242.53,396.36 242.66,396.46 242.79,396.54 242.93,396.60 243.08,396.66 243.23,396.69 243.38,396.72 243.54,396.72 245.27,396.72 245.27,591.24" fill="#2196F3" fill-opacity="0.45" stroke="#2196F3" stroke-width="0.8"/>
<polygon class="slab-poly" data-slab-id="SLAB-049" points="292.79,393.44 292.79,591.24 241.80,591.24 241.80,393.44 241.96,393.44 241.96,395.14 241.96,395.30 241.99,395.45 242.03,395.60 242.08,395.75 242.14,395.89 242.22,396.02 242.32,396.15 242.42,396.26 242.53,396.36 242.66,396.46 242.79,396.54 242.93,396.60 243.08,396.66 243.23,396.69 243.38,396.72 243.54,396.72 253.01,396.72 253.17,396.72 253.32,396.69 253.47,396.66 253.62,396.60 253.76,396.54 253.89,396.46 253.89,396.46 253.89,396.46 254.02,396.36 254.13,396.26 254.24,396.15 254.33,396.02 254.41,395.89 254.47,395.75 254.53,395.60 254.56,395.45 254.59,395.30 254.59,395.14 254.59,393.44 292.79,393.44" fill="#2196F3" fill-opacity="0.45" stroke="#2196F3" stroke-width="0.8"/>
<polygon class="slab-poly" data-slab-id="SLAB-050" points="1611.12,591.24 1553.12,591.24 1553.12,393.44 1611.12,393.44 1611.12,429.62 1594.60,429.62 1594.44,429.63 1594.29,429.65 1594.14,429.69 1593.99,429.74 1593.85,429.81 1593.72,429.89 1593.59,429.98 1593.48,430.09 1593.37,430.20 1593.28,430.33 1593.20,430.46 1593.14,430.60 1593.08,430.75 1593.05,430.90 1593.02,431.05 1593.02,431.20 1593.02,461.12 1593.02,461.27 1593.05,461.43 1593.08,461.58 1593.14,461.72 1593.20,461.86 1593.28,461.99 1593.37,462.12 1593.48,462.23 1593.59,462.34 1593.72,462.43 1593.85,462.51 1593.99,462.58 1594.14,462.63 1594.29,462.67 1594.44,462.69 1594.60,462.70 1611.12,462.70 1611.12,591.24" fill="#2196F3" fill-opacity="0.45" stroke="#2196F3" stroke-width="0.8"/>
<polygon class="slab-poly" data-slab-id="SLAB-051" points="1750.14,591.24 1725.40,591.24 1725.40,589.53 1722.24,589.53 1722.24,591.24 1607.64,591.24 1607.64,462.70 1658.30,462.70 1658.46,462.69 1658.61,462.67 1658.76,462.63 1658.91,462.58 1659.05,462.51 1659.18,462.43 1659.31,462.34 1659.42,462.23 1659.53,462.12 1659.62,461.99 1659.70,461.86 1659.76,461.72 1659.82,461.58 1659.85,461.43 1659.88,461.27 1659.88,461.12 1659.88,431.20 1659.88,431.05 1659.85,430.90 1659.82,430.75 1659.76,430.60 1659.70,430.46 1659.62,430.33 1659.53,430.20 1659.42,430.09 1659.31,429.98 1659.18,429.89 1659.05,429.81 1658.91,429.74 1658.76,429.69 1658.61,429.65 1658.46,429.63 1658.30,429.62 1607.64,429.62 1607.64,393.44 1750.14,393.44 1750.14,475.22 1746.33,475.22 1746.17,475.23 1746.02,475.25 1745.87,475.29 1745.73,475.34 1745.58,475.41 1745.45,475.49 1745.33,475.58 1745.21,475.68 1745.11,475.80 1745.02,475.92 1744.94,476.05 1744.87,476.19 1744.82,476.34 1744.78,476.49 1744.76,476.64 1744.75,476.80 1744.75,503.26 1744.76,503.42 1744.78,503.57 1744.82,503.72 1744.87,503.87 1744.94,504.01 1745.02,504.14 1745.11,504.27 1745.21,504.38 1745.33,504.48 1745.45,504.58 1745.58,504.66 1745.73,504.72 1745.87,504.78 1746.02,504.81 1746.17,504.84 1746.33,504.84 1750.14,504.84 1750.14,591.24" fill="#2196F3" fill-opacity="0.45" stroke="#2196F3" stroke-width="0.8"/>
<polygon class="slab-poly" data-slab-id="SLAB-052" points="52.19,696.42 52.19,587.77 164.85,587.77 164.85,640.08 126.78,640.08 122.13,640.31 117.53,640.99 113.02,642.12 108.64,643.69 104.44,645.68 100.45,648.07 96.72,650.84 93.27,653.96 90.15,657.41 87.38,661.14 84.99,665.13 83.00,669.34 81.43,673.72 80.30,678.23 79.62,682.83 79.39,687.48 79.39,696.42 52.19,696.42" fill="#2196F3" fill-opacity="0.45" stroke="#2196F3" stroke-width="0.8"/>
<polygon class="slab-poly" data-slab-id="SLAB-053" points="1607.64,696.42 1607.64,587.77 1750.14,587.77 1750.14,640.08 1725.40,640.08 1725.40,589.53 1722.24,589.53 1722.24,640.23 1720.69,640.31 1716.09,640.99 1711.58,642.12 1707.20,643.69 1703.00,645.68 1699.01,648.07 1695.27,650.84 1691.83,653.96 1688.71,657.41 1685.94,661.14 1683.54,665.13 1681.56,669.34 1679.99,673.72 1678.86,678.23 1678.18,682.83 1677.95,687.48 1677.95,696.42 1607.64,696.42" fill="#2196F3" fill-opacity="0.45" stroke="#2196F3" stroke-width="0.8"/>
<polygon class="slab-poly" data-slab-id="SLAB-054" points="161.37,587.77 292.79,587.77 292.79,696.42 221.55,696.42 221.55,687.48 221.33,682.83 220.64,678.23 219.51,673.72 217.95,669.34 215.96,665.13 213.57,661.14 210.80,657.41 207.67,653.96 204.23,650.84 200.49,648.07 196.50,645.68 192.30,643.69 187.92,642.12 183.41,640.99 178.81,640.31 177.33,640.24 177.33,589.53 174.17,589.53 174.17,640.08 174.17,640.08 161.37,640.08 161.37,587.77" fill="#FF9800" fill-opacity="0.45" stroke="#FF9800" stroke-width="0.8"/>
<polygon class="slab-poly" data-slab-id="SLAB-055" points="1553.12,696.42 1553.12,587.77 1611.12,587.77 1611.12,696.42 1553.12,696.42" fill="#607D8B" fill-opacity="0.45" stroke="#B0BEC5" stroke-width="0.8"/>
<polygon class="slab-poly" data-slab-id="SLAB-056" points="289.32,696.42 289.32,587.77 349.77,587.77 349.73,588.02 349.50,592.66 349.50,603.69 349.50,603.74 349.50,638.50 349.73,643.15 350.41,647.75 351.54,652.26 353.11,656.64 355.10,660.84 357.49,664.83 360.26,668.57 363.38,672.01 366.82,675.14 370.56,677.91 374.55,680.30 378.75,682.29 383.13,683.86 387.64,684.99 392.24,685.67 393.73,685.74 393.73,696.42 289.32,696.42" fill="#2196F3" fill-opacity="0.45" stroke="#2196F3" stroke-width="0.8"/>
<polygon class="slab-poly" data-slab-id="SLAB-057" points="1174.08,696.42 1024.08,696.42 1024.08,655.88 1174.08,655.88 1174.08,696.42" fill="#2196F3" fill-opacity="0.45" stroke="#2196F3" stroke-width="0.8"/>
<polygon class="slab-poly" data-slab-id="SLAB-058" points="660.06,696.42 514.91,696.42 514.91,684.64 518.05,683.86 522.43,682.29 526.64,680.30 530.62,677.91 534.36,675.14 537.81,672.01 540.93,668.57 543.70,664.83 546.09,660.84 548.08,656.64 548.35,655.88 660.06,655.88 660.06,696.42" fill="#2196F3" fill-opacity="0.45" stroke="#2196F3" stroke-width="0.8"/>
<polygon class="slab-poly" data-slab-id="SLAB-059" points="1380.93,710.64 1170.60,710.64 1170.60,655.88 1351.15,655.88 1351.43,656.64 1353.41,660.84 1355.80,664.83 1358.58,668.57 1361.70,672.01 1365.14,675.14 1368.88,677.91 1372.87,680.30 1377.07,682.29 1380.93,683.67 1380.93,710.64" fill="#FF9800" fill-opacity="0.45" stroke="#FF9800" stroke-width="0.8"/>
<polygon class="slab-poly" data-slab-id="SLAB-060" points="292.79,692.94 292.79,763.53 292.73,763.54 289.48,764.02 286.22,763.54 281.58,763.31 234.19,763.31 229.55,763.54 224.95,764.22 221.55,765.07 221.55,692.94 292.79,692.94" fill="#2196F3" fill-opacity="0.45" stroke="#2196F3" stroke-width="0.8"/>
<polygon class="slab-poly" data-slab-id="SLAB-061" points="432.12,849.40 428.38,848.85 423.74,848.62 395.32,848.62 395.32,810.70 395.09,806.06 394.41,801.46 393.28,796.95 391.71,792.57 389.73,788.36 387.33,784.37 384.56,780.64 381.44,777.19 378.00,774.07 374.26,771.30 370.27,768.90 366.07,766.92 361.69,765.35 357.18,764.22 352.58,763.54 347.93,763.31 297.37,763.31 292.73,763.54 289.48,764.02 289.32,764.00 289.32,692.94 393.73,692.94 393.73,703.27 329.28,703.27 329.28,706.43 393.73,706.43 393.73,705.05 393.73,706.43 396.89,706.43 396.89,692.94 432.12,692.94 432.12,807.54 420.58,807.54 420.58,810.70 432.12,810.70 432.12,849.40" fill="#2196F3" fill-opacity="0.45" stroke="#2196F3" stroke-width="0.8"/>
<polygon class="slab-poly" data-slab-id="SLAB-062" points="1547.11,763.53 1546.92,763.54 1542.32,764.22 1537.81,765.35 1533.44,766.92 1529.23,768.90 1525.24,771.30 1521.51,774.07 1518.06,777.19 1514.94,780.64 1512.17,784.37 1509.78,788.36 1507.79,792.57 1506.22,796.95 1505.09,801.46 1504.41,806.06 1504.18,810.70 1504.18,848.62 1475.76,848.62 1471.12,848.85 1466.52,849.53 1462.01,850.66 1457.63,852.23 1453.43,854.22 1449.44,856.61 1448.97,856.95 1448.97,810.70 1445.81,810.70 1445.81,859.30 1445.70,859.38 1442.26,862.50 1439.13,865.95 1436.36,869.68 1433.97,873.67 1431.98,877.88 1430.42,882.26 1429.29,886.77 1428.60,891.37 1428.50,893.44 1393.25,893.44 1393.25,692.94 1502.68,692.94 1502.68,706.43 1505.83,706.43 1505.83,705.05 1505.83,706.43 1547.11,706.43 1547.11,763.53" fill="#FF9800" fill-opacity="0.45" stroke="#FF9800" stroke-width="0.8"/>
<polygon class="slab-poly" data-slab-id="SLAB-063" points="442.86,692.94 518.38,692.94 518.38,893.44 471.00,893.44 470.90,891.37 470.22,886.77 469.09,882.26 467.52,877.88 465.53,873.67 463.14,869.68 460.37,865.95 457.25,862.50 453.80,859.38 453.75,859.34 453.75,810.70 450.59,810.70 450.59,857.00 450.07,856.61 446.08,854.22 442.86,852.69 442.86,810.70 461.33,810.70 461.33,807.54 442.86,807.54 442.86,692.94" fill="#FF9800" fill-opacity="0.45" stroke="#FF9800" stroke-width="0.8"/>
<polygon class="slab-poly" data-slab-id="SLAB-064" points="1024.08,692.94 1139.13,692.94 1142.60,692.94 1174.08,692.94 1174.08,893.44 1142.60,893.44 1139.13,893.44 1024.08,893.44 1024.08,692.94" fill="#66BB6A" fill-opacity="0.45" stroke="#66BB6A" stroke-width="0.8"/>
<polygon class="slab-poly" data-slab-id="SLAB-065" points="850.07,692.94 951.16,692.94 954.63,692.94 1027.56,692.94 1027.56,893.44 954.63,893.44 951.16,893.44 850.07,893.44 850.07,692.94" fill="#2196F3" fill-opacity="0.45" stroke="#2196F3" stroke-width="0.8"/>
<polygon class="slab-poly" data-slab-id="SLAB-066" points="756.87,893.44 756.87,692.94 839.33,692.94 839.33,893.44 756.87,893.44" fill="#66BB6A" fill-opacity="0.45" stroke="#66BB6A" stroke-width="0.8"/>
<polygon class="slab-poly" data-slab-id="SLAB-067" points="670.80,893.44 670.80,692.94 760.35,692.94 760.35,893.44 670.80,893.44" fill="#607D8B" fill-opacity="0.45" stroke="#B0BEC5" stroke-width="0.8"/>
<polygon class="slab-poly" data-slab-id="SLAB-068" points="514.91,893.44 514.91,692.94 660.06,692.94 660.06,893.44 514.91,893.44" fill="#FF9800" fill-opacity="0.45" stroke="#FF9800" stroke-width="0.8"/>
<polygon class="slab-poly" data-slab-id="SLAB-069" points="1170.60,893.44 1170.60,707.16 1380.93,707.16 1380.93,893.44 1170.60,893.44" fill="#607D8B" fill-opacity="0.45" stroke="#B0BEC5" stroke-width="0.8"/>
<polygon class="slab-poly" data-slab-id="SLAB-070" points="164.85,893.44 52.19,893.44 52.19,692.94 79.39,692.94 79.39,766.47 79.62,771.11 80.30,775.71 81.43,780.23 83.00,784.61 84.99,788.81 87.38,792.80 90.15,796.54 93.27,799.98 96.72,803.11 100.45,805.88 104.44,808.27 108.64,810.26 113.02,811.82 117.53,812.95 122.13,813.64 126.78,813.86 164.85,813.86 164.85,893.44" fill="#2196F3" fill-opacity="0.45" stroke="#2196F3" stroke-width="0.8"/>
<polygon class="slab-poly" data-slab-id="SLAB-071" points="1024.08,889.96 1142.60,889.96 1142.60,1020.51 1095.08,1020.51 1095.14,1019.02 1094.89,1014.38 1094.19,1009.78 1093.04,1005.27 1091.45,1000.90 1089.44,996.71 1087.03,992.73 1084.25,989.01 1081.11,985.57 1077.65,982.47 1073.90,979.71 1069.90,977.34 1065.69,975.37 1061.30,973.83 1056.78,972.72 1052.18,972.06 1047.53,971.85 1042.89,972.10 1038.29,972.80 1033.79,973.95 1029.42,975.54 1025.22,977.55 1024.08,978.24 1024.08,889.96" fill="#66BB6A" fill-opacity="0.45" stroke="#66BB6A" stroke-width="0.8"/>
<polygon class="slab-poly" data-slab-id="SLAB-072" points="850.07,889.96 951.16,889.96 954.63,889.96 1027.56,889.96 1027.56,976.43 1025.22,977.55 1021.24,979.96 1017.52,982.75 1014.09,985.89 1013.17,986.81 1012.26,985.89 1008.82,982.75 1005.10,979.96 1001.12,977.55 996.93,975.54 992.56,973.95 988.05,972.80 983.46,972.10 978.81,971.85 974.17,972.06 969.56,972.72 965.05,973.83 960.66,975.37 956.45,977.34 952.45,979.71 948.70,982.47 945.24,985.57 942.10,989.01 939.31,992.73 936.90,996.71 934.90,1000.90 933.31,1005.27 932.16,1009.78 931.45,1014.38 931.20,1019.02 931.27,1020.51 850.07,1020.51 850.07,889.96" fill="#2196F3" fill-opacity="0.45" stroke="#2196F3" stroke-width="0.8"/>
<polygon class="slab-poly" data-slab-id="SLAB-073" points="1746.66,1020.51 1746.66,889.96 1791.81,889.96 1791.81,1020.51 1746.66,1020.51" fill="#2196F3" fill-opacity="0.45" stroke="#2196F3" stroke-width="0.8"/>
<polygon class="slab-poly" data-slab-id="SLAB-074" points="670.80,889.96 756.87,889.96 760.35,889.96 839.33,889.96 839.33,1020.51 760.35,1020.51 756.87,1020.51 670.80,1020.51 670.80,889.96" fill="#66BB6A" fill-opacity="0.45" stroke="#66BB6A" stroke-width="0.8"/>
<polygon class="slab-poly" data-slab-id="SLAB-075" points="514.91,1020.51 514.91,889.96 660.06,889.96 660.06,1020.51 514.91,1020.51" fill="#66BB6A" fill-opacity="0.45" stroke="#66BB6A" stroke-width="0.8"/>
<polygon class="slab-poly" data-slab-id="SLAB-076" points="52.19,1020.51 52.19,889.96 164.85,889.96 164.85,1020.51 52.19,1020.51" fill="#2196F3" fill-opacity="0.45" stroke="#2196F3" stroke-width="0.8"/>
<polygon class="slab-poly" data-slab-id="SLAB-077" points="503.85,889.96 503.85,1020.51 442.86,1020.51 442.86,983.57 446.08,982.05 450.07,979.66 453.80,976.89 457.25,973.76 460.37,970.32 463.14,966.58 465.53,962.59 467.52,958.39 469.09,954.01 470.22,949.50 470.90,944.90 471.13,940.25 471.13,896.02 470.90,891.37 470.69,889.96 503.85,889.96" fill="#607D8B" fill-opacity="0.45" stroke="#B0BEC5" stroke-width="0.8"/>
<polygon class="slab-poly" data-slab-id="SLAB-078" points="1750.14,889.96 1750.14,1020.51 1607.64,1020.51 1607.64,963.06 1607.92,962.59 1609.91,958.39 1611.48,954.01 1612.61,949.50 1613.29,944.90 1613.52,940.25 1613.52,933.71 1617.93,933.93 1665.31,933.93 1669.96,933.70 1674.56,933.02 1679.07,931.89 1683.45,930.32 1687.65,928.33 1691.64,925.94 1695.37,923.17 1698.82,920.05 1701.94,916.60 1704.71,912.87 1707.10,908.88 1709.09,904.67 1710.66,900.29 1711.79,895.78 1712.47,891.18 1712.53,889.96 1750.14,889.96" fill="#66BB6A" fill-opacity="0.45" stroke="#66BB6A" stroke-width="0.8"/>
<polygon class="slab-poly" data-slab-id="SLAB-079" points="292.79,1020.51 161.37,1020.51 161.37,889.96 186.97,889.96 187.03,891.18 187.71,895.78 188.84,900.29 190.41,904.67 192.40,908.88 194.79,912.87 197.56,916.60 200.68,920.05 204.13,923.17 207.86,925.94 211.85,928.33 216.06,930.32 220.43,931.89 224.95,933.02 229.55,933.70 234.19,933.93 281.58,933.93 285.98,933.71 285.98,940.25 286.21,944.90 286.90,949.50 288.02,954.01 289.59,958.39 291.58,962.59 292.79,964.62 292.79,1020.51" fill="#66BB6A" fill-opacity="0.45" stroke="#66BB6A" stroke-width="0.8"/>
<polygon class="slab-poly" data-slab-id="SLAB-080" points="1547.11,1020.51 1393.25,1020.51 1393.25,889.96 1428.81,889.96 1428.60,891.37 1428.38,896.02 1428.38,940.25 1428.60,944.90 1429.29,949.50 1430.42,954.01 1431.98,958.39 1433.97,962.59 1436.36,966.58 1439.13,970.32 1442.26,973.76 1445.70,976.89 1449.44,979.66 1453.43,982.05 1457.63,984.04 1462.01,985.60 1466.52,986.73 1471.12,987.42 1475.76,987.65 1547.11,987.65 1547.11,1020.51" fill="#66BB6A" fill-opacity="0.45" stroke="#66BB6A" stroke-width="0.8"/>
<polygon class="slab-poly" data-slab-id="SLAB-081" points="432.12,1020.51 289.32,1020.51 289.32,957.62 289.59,958.39 291.58,962.59 293.97,966.58 296.74,970.32 299.86,973.76 303.31,976.89 307.04,979.66 311.03,982.05 315.24,984.04 319.62,985.60 324.13,986.73 328.73,987.42 333.37,987.65 423.74,987.65 428.38,987.42 432.12,986.86 432.12,1020.51" fill="#607D8B" fill-opacity="0.45" stroke="#B0BEC5" stroke-width="0.8"/>
<polygon class="slab-poly" data-slab-id="SLAB-082" points="1170.60,1020.51 1170.60,1017.03 1170.60,889.96 1380.93,889.96 1380.93,1017.03 1380.93,1020.51 1380.93,1136.52 1170.60,1136.52 1170.60,1020.51" fill="#66BB6A" fill-opacity="0.45" stroke="#66BB6A" stroke-width="0.8"/>
<polygon class="slab-poly" data-slab-id="SLAB-083" points="1746.66,1136.52 1746.66,1017.03 1791.81,1017.03 1791.81,1136.52 1746.66,1136.52" fill="#607D8B" fill-opacity="0.45" stroke="#B0BEC5" stroke-width="0.8"/>
<polygon class="slab-poly" data-slab-id="SLAB-084" points="1607.64,1136.52 1607.64,1017.03 1750.14,1017.03 1750.14,1136.52 1607.64,1136.52" fill="#FF9800" fill-opacity="0.45" stroke="#FF9800" stroke-width="0.8"/>
<polygon class="slab-poly" data-slab-id="SLAB-085" points="1553.12,1136.52 1553.12,1017.03 1611.12,1017.03 1611.12,1136.52 1553.12,1136.52" fill="#66BB6A" fill-opacity="0.45" stroke="#66BB6A" stroke-width="0.8"/>
<polygon class="slab-poly" data-slab-id="SLAB-086" points="1393.25,1136.52 1393.25,1017.03 1547.11,1017.03 1547.11,1136.52 1393.25,1136.52" fill="#607D8B" fill-opacity="0.45" stroke="#B0BEC5" stroke-width="0.8"/>
<polygon class="slab-poly" data-slab-id="SLAB-087" points="514.91,1136.52 514.91,1017.03 660.06,1017.03 660.06,1136.52 514.91,1136.52" fill="#66BB6A" fill-opacity="0.45" stroke="#66BB6A" stroke-width="0.8"/>
<polygon class="slab-poly" data-slab-id="SLAB-088" points="442.86,1136.52 442.86,1017.03 503.85,1017.03 503.85,1136.52 442.86,1136.52" fill="#607D8B" fill-opacity="0.45" stroke="#B0BEC5" stroke-width="0.8"/>
<polygon class="slab-poly" data-slab-id="SLAB-089" points="289.32,1136.52 289.32,1017.03 432.12,1017.03 432.12,1136.52 289.32,1136.52" fill="#66BB6A" fill-opacity="0.45" stroke="#66BB6A" stroke-width="0.8"/>
<polygon class="slab-poly" data-slab-id="SLAB-090" points="161.37,1136.52 161.37,1017.03 292.79,1017.03 292.79,1136.52 161.37,1136.52" fill="#66BB6A" fill-opacity="0.45" stroke="#66BB6A" stroke-width="0.8"/>
<polygon class="slab-poly" data-slab-id="SLAB-091" points="52.19,1136.52 52.19,1017.03 164.85,1017.03 164.85,1136.52 52.19,1136.52" fill="#2196F3" fill-opacity="0.45" stroke="#2196F3" stroke-width="0.8"/>
<polygon class="slab-poly" data-slab-id="SLAB-092" points="670.80,1133.05 670.80,1017.03 756.87,1017.03 760.35,1017.03 839.33,1017.03 839.33,1136.52 760.35,1136.52 760.35,1273.34 670.80,1273.34 670.80,1136.52 670.80,1133.05" fill="#2196F3" fill-opacity="0.45" stroke="#2196F3" stroke-width="0.8"/>
<polygon class="slab-poly" data-slab-id="SLAB-093" points="1142.60,1136.52 1142.60,1273.34 1024.08,1273.34 1024.08,1136.52 1024.08,1133.05 1024.08,1130.08 1025.22,1130.77 1029.42,1132.77 1033.79,1134.36 1038.30,1135.51 1042.89,1136.22 1047.54,1136.47 1052.18,1136.26 1056.78,1135.60 1061.30,1134.49 1065.39,1133.05 1065.69,1132.94 1069.90,1130.97 1073.90,1128.60 1077.65,1125.85 1081.11,1122.74 1084.25,1119.31 1087.03,1115.59 1089.44,1111.61 1091.45,1107.41 1093.04,1103.04 1094.19,1098.54 1094.89,1093.94 1095.14,1089.29 1094.94,1084.65 1094.28,1080.04 1093.17,1075.53 1091.62,1071.14 1089.65,1066.93 1087.28,1062.93 1084.53,1059.18 1081.42,1055.72 1079.88,1054.16 1081.42,1052.60 1084.53,1049.14 1087.28,1045.39 1089.65,1041.39 1091.62,1037.18 1093.17,1032.79 1094.28,1028.27 1094.94,1023.67 1095.14,1019.02 1095.04,1017.03 1142.60,1017.03 1142.60,1133.05 1142.60,1136.52" fill="#2196F3" fill-opacity="0.45" stroke="#2196F3" stroke-width="0.8"/>
<polygon class="slab-poly" data-slab-id="SLAB-094" points="1607.64,1273.34 1607.64,1133.05 1750.14,1133.05 1750.14,1273.34 1607.64,1273.34" fill="#66BB6A" fill-opacity="0.45" stroke="#66BB6A" stroke-width="0.8"/>
<polygon class="slab-poly" data-slab-id="SLAB-095" points="1553.12,1273.34 1553.12,1133.05 1611.12,1133.05 1611.12,1273.34 1553.12,1273.34" fill="#66BB6A" fill-opacity="0.45" stroke="#66BB6A" stroke-width="0.8"/>
<polygon class="slab-poly" data-slab-id="SLAB-096" points="1393.25,1273.34 1393.25,1133.05 1547.11,1133.05 1547.11,1273.34 1393.25,1273.34" fill="#66BB6A" fill-opacity="0.45" stroke="#66BB6A" stroke-width="0.8"/>
<polygon class="slab-poly" data-slab-id="SLAB-097" points="1170.60,1273.34 1170.60,1133.05 1380.93,1133.05 1380.93,1273.34 1170.60,1273.34" fill="#66BB6A" fill-opacity="0.45" stroke="#66BB6A" stroke-width="0.8"/>
<polygon class="slab-poly" data-slab-id="SLAB-098" points="514.91,1273.34 514.91,1133.05 660.06,1133.05 660.06,1273.34 514.91,1273.34" fill="#66BB6A" fill-opacity="0.45" stroke="#66BB6A" stroke-width="0.8"/>
<polygon class="slab-poly" data-slab-id="SLAB-099" points="442.86,1273.34 442.86,1133.05 503.85,1133.05 503.85,1273.34 442.86,1273.34" fill="#66BB6A" fill-opacity="0.45" stroke="#66BB6A" stroke-width="0.8"/>
<polygon class="slab-poly" data-slab-id="SLAB-100" points="289.32,1273.34 289.32,1133.05 432.12,1133.05 432.12,1273.34 289.32,1273.34" fill="#66BB6A" fill-opacity="0.45" stroke="#66BB6A" stroke-width="0.8"/>
<polygon class="slab-poly" data-slab-id="SLAB-101" points="161.37,1273.34 161.37,1133.05 292.79,1133.05 292.79,1273.34 161.37,1273.34" fill="#66BB6A" fill-opacity="0.45" stroke="#66BB6A" stroke-width="0.8"/>
<polygon class="slab-poly" data-slab-id="SLAB-102" points="52.19,1273.34 52.19,1133.05 164.85,1133.05 164.85,1273.34 52.19,1273.34" fill="#2196F3" fill-opacity="0.45" stroke="#2196F3" stroke-width="0.8"/>
<polygon class="slab-poly" data-slab-id="SLAB-103" points="951.16,1133.05 954.63,1133.05 960.96,1133.05 965.05,1134.49 969.56,1135.60 974.17,1136.26 978.81,1136.47 983.46,1136.22 988.05,1135.51 992.56,1134.36 996.18,1133.05 1027.56,1133.05 1027.56,1273.34 954.63,1273.34 951.16,1273.34 850.07,1273.34 850.07,1133.05 951.16,1133.05" fill="#2196F3" fill-opacity="0.45" stroke="#2196F3" stroke-width="0.8"/>
<polygon class="slab-poly" data-slab-id="SLAB-104" points="1746.66,1437.21 1607.64,1437.21 1607.64,1269.86 1746.66,1269.86 1746.66,1133.05 1791.81,1133.05 1791.81,1269.86 1791.81,1273.34 1791.81,1437.21 1750.14,1437.21 1746.66,1437.21" fill="#66BB6A" fill-opacity="0.45" stroke="#66BB6A" stroke-width="0.8"/>
<polygon class="slab-poly" data-slab-id="SLAB-105" points="442.86,1547.80 442.86,1437.21 442.86,1433.74 442.86,1269.86 503.85,1269.86 503.85,1433.74 503.85,1437.21 503.85,1535.01 475.58,1535.01 475.58,1546.06 503.85,1546.06 503.85,1547.80 442.86,1547.80" fill="#2196F3" fill-opacity="0.45" stroke="#2196F3" stroke-width="0.8"/>
<polygon class="slab-poly" data-slab-id="SLAB-106" points="52.19,1547.80 52.19,1437.21 52.19,1433.74 52.19,1269.86 164.85,1269.86 164.85,1433.74 164.85,1437.21 164.85,1535.01 122.04,1535.01 122.04,1546.06 164.85,1546.06 164.85,1547.80 52.19,1547.80" fill="#2196F3" fill-opacity="0.45" stroke="#2196F3" stroke-width="0.8"/>
<polygon class="slab-poly" data-slab-id="SLAB-107" points="514.91,1547.80 514.91,1546.06 538.76,1546.06 538.76,1535.01 514.91,1535.01 514.91,1437.21 514.91,1433.74 514.91,1269.86 660.06,1269.86 660.06,1433.74 660.06,1437.21 660.06,1535.01 633.54,1535.01 633.54,1546.06 660.06,1546.06 660.06,1547.80 514.91,1547.80" fill="#2196F3" fill-opacity="0.45" stroke="#2196F3" stroke-width="0.8"/>
<polygon class="slab-poly" data-slab-id="SLAB-108" points="432.12,1437.21 432.12,1547.80 292.79,1547.80 289.32,1547.80 161.37,1547.80 161.37,1546.06 185.22,1546.06 185.22,1535.01 161.37,1535.01 161.37,1437.21 161.37,1433.74 161.37,1269.86 256.02,1269.86 292.79,1269.86 432.12,1269.86 432.12,1433.74 432.12,1437.21" fill="#2196F3" fill-opacity="0.45" stroke="#2196F3" stroke-width="0.8"/>
<polygon class="slab-poly" data-slab-id="SLAB-109" points="1174.08,1426.15 1174.08,1427.46 1174.03,1427.49 1173.92,1427.60 1173.81,1427.71 1173.72,1427.84 1173.64,1427.97 1173.58,1428.11 1173.52,1428.26 1173.49,1428.41 1173.46,1428.56 1173.46,1428.71 1173.46,1449.69 1173.46,1449.84 1173.49,1449.99 1173.52,1450.14 1173.58,1450.29 1173.64,1450.43 1173.72,1450.56 1173.81,1450.69 1173.92,1450.80 1174.03,1450.91 1174.08,1450.94 1174.08,1547.80 1027.56,1547.80 1024.08,1547.80 954.63,1547.80 951.16,1547.80 850.07,1547.80 850.07,1437.21 850.07,1433.74 850.07,1269.86 951.16,1269.86 954.63,1269.86 1024.08,1269.86 1046.47,1269.86 1060.15,1269.86 1139.13,1269.86 1142.60,1269.86 1174.08,1269.86 1174.08,1422.68 1174.08,1426.15" fill="#2196F3" fill-opacity="0.45" stroke="#2196F3" stroke-width="0.8"/>
<polygon class="slab-poly" data-slab-id="SLAB-110" points="1170.60,1437.21 1170.60,1433.74 1170.60,1269.86 1380.93,1269.86 1380.93,1422.84 1344.64,1422.84 1344.49,1422.84 1344.33,1422.87 1344.18,1422.91 1344.04,1422.96 1343.90,1423.02 1343.77,1423.10 1343.64,1423.20 1343.53,1423.30 1343.42,1423.41 1343.33,1423.54 1343.25,1423.67 1343.18,1423.81 1343.13,1423.96 1343.09,1424.11 1343.07,1424.26 1343.06,1424.42 1343.06,1433.74 1343.06,1435.48 1343.07,1435.63 1343.09,1435.78 1343.13,1435.93 1343.18,1436.08 1343.25,1436.22 1343.33,1436.35 1343.42,1436.48 1343.53,1436.59 1343.64,1436.70 1343.77,1436.79 1343.90,1436.87 1344.04,1436.94 1344.18,1436.99 1344.33,1437.03 1344.49,1437.05 1344.64,1437.06 1380.93,1437.06 1380.93,1437.21 1380.93,1547.80 1170.60,1547.80 1170.60,1437.21" fill="#2196F3" fill-opacity="0.45" stroke="#2196F3" stroke-width="0.8"/>
<polygon class="slab-poly" data-slab-id="SLAB-111" points="839.33,1437.21 839.33,1547.80 760.35,1547.80 756.87,1547.80 670.80,1547.80 670.80,1546.06 696.72,1546.06 696.72,1535.01 670.80,1535.01 670.80,1437.21 670.80,1433.74 670.80,1269.86 756.87,1269.86 760.35,1269.86 839.33,1269.86 839.33,1433.74 839.33,1437.21" fill="#2196F3" fill-opacity="0.45" stroke="#2196F3" stroke-width="0.8"/>
</svg>