<svg xmlns="http://www.w3.org/2000/svg" width="3200" height="1600" viewBox="0 0 3200 1600">
<rect width="100%" height="100%" fill="#121212"/>
<polygon points="620.55,1381.43 620.55,1393.37 433.52,1393.37 433.52,1381.43 620.55,1381.43" fill="#FF9800" fill-opacity="0.12" stroke="#FFB74D" stroke-width="0.6"/>
<polygon points="331.99,1399.34 337.63,1399.34 337.63,1393.37 348.91,1393.37 348.91,1393.37 396.86,1393.37 396.86,1393.37 416.60,1393.37 416.60,1399.34 422.24,1399.34 422.29,1488.90 416.60,1488.90 416.60,1494.88 415.42,1494.88 427.88,1494.88 427.88,1399.34 433.52,1399.34 433.52,1393.37 620.55,1393.37 620.55,1405.31 439.16,1405.31 439.16,1500.85 433.52,1500.85 433.52,1506.82 85.21,1506.82 85.21,1500.85 79.57,1500.85 79.57,1159.00 90.85,1159.00 90.85,1494.88 102.02,1494.88 102.02,1489.05 96.49,1489.05 96.49,1399.46 102.13,1399.46 102.13,1393.49 190.97,1393.49 326.34,1393.37 326.35,1399.34 331.99,1399.34 331.99,1488.91 331.99,1399.34" fill="#FF9800" fill-opacity="0.12" stroke="#FFB74D" stroke-width="0.6"/>
<polygon points="622.48,1329.77 622.48,1317.83 747.39,1317.83 747.39,1329.77 622.48,1329.77" fill="#FF9800" fill-opacity="0.12" stroke="#FFB74D" stroke-width="0.6"/>
<polygon points="747.39,1317.82 622.48,1317.83 622.48,1305.88 747.39,1305.88 747.39,1317.82" fill="#FF9800" fill-opacity="0.12" stroke="#FFB74D" stroke-width="0.6"/>
<polygon points="879.38,1297.83 764.31,1297.83 764.31,1285.89 879.38,1285.89 879.38,1297.83" fill="#FF9800" fill-opacity="0.12" stroke="#FFB74D" stroke-width="0.6"/>
<polygon points="806.62,1279.92 769.96,1279.92 769.96,1267.98 806.62,1267.98 806.62,1279.92" fill="#FF9800" fill-opacity="0.12" stroke="#FFB74D" stroke-width="0.6"/>
<polygon points="102.13,1387.53 102.13,1381.56 96.49,1381.56 96.49,1159.00 107.77,1159.00 107.77,1375.59 182.76,1375.59 182.76,1387.53 102.13,1387.53" fill="#FF9800" fill-opacity="0.12" stroke="#FFB74D" stroke-width="0.6"/>
<polygon points="315.07,1338.13 315.07,1159.00 326.35,1159.00 326.35,1159.00 331.99,1159.00 331.99,1153.03 416.60,1153.03 416.60,1159.00 422.24,1159.00 422.24,1226.31 416.60,1226.31 416.60,1232.28 416.60,1244.23 337.63,1244.23 337.63,1375.59 416.60,1375.59 416.60,1387.53 243.15,1387.53 243.15,1375.59 284.61,1375.59 284.61,1344.10 290.25,1344.10 290.25,1338.13 315.07,1338.13" fill="#FF9800" fill-opacity="0.12" stroke="#FFB74D" stroke-width="0.6"/>
<polygon points="747.39,1260.50 622.48,1260.50 622.48,1248.56 747.39,1248.56 747.39,1260.50" fill="#FF9800" fill-opacity="0.12" stroke="#FFB74D" stroke-width="0.6"/>
<polygon points="747.39,1248.56 622.48,1248.56 622.48,1236.62 747.39,1236.62 747.39,1248.56" fill="#FF9800" fill-opacity="0.12" stroke="#FFB74D" stroke-width="0.6"/>
<polygon points="427.88,1226.31 427.88,1159.00 439.16,1159.00 439.16,1226.31 427.88,1226.31" fill="#FF9800" fill-opacity="0.12" stroke="#FFB74D" stroke-width="0.6"/>
<polygon points="416.60,1147.06 331.99,1147.08 331.99,1135.14 416.60,1135.11 416.60,1147.06" fill="#FF9800" fill-opacity="0.12" stroke="#FFB74D" stroke-width="0.6"/>
<polygon points="177.12,944.04 188.40,944.04 188.40,1141.09 177.12,1141.09 177.12,944.04" fill="#FF9800" fill-opacity="0.12" stroke="#FFB74D" stroke-width="0.6"/>
<polygon points="214.35,944.04 214.35,1141.09 203.06,1141.09 203.06,944.04 214.35,944.04" fill="#FF9800" fill-opacity="0.12" stroke="#FFB74D" stroke-width="0.6"/>
<polygon points="445.05,645.50 487.35,645.50 487.35,651.47 492.99,651.47 492.99,669.45 487.35,669.45 487.35,675.42 445.05,675.42 445.05,669.45 439.41,669.45 439.41,651.47 445.05,651.47 445.05,645.50" fill="#FF9800" fill-opacity="0.12" stroke="#FFB74D" stroke-width="0.6"/>
<polygon points="526.86,669.38 521.22,669.38 521.22,675.35 515.56,675.35 515.56,669.38 509.92,669.38 509.92,651.47 515.56,651.47 515.56,645.50 521.22,645.50 521.22,651.47 526.86,651.47 526.86,669.38" fill="#FF9800" fill-opacity="0.12" stroke="#FFB74D" stroke-width="0.6"/>
<polygon points="408.92,645.43 408.92,651.40 414.56,651.40 414.56,669.32 408.92,669.32 408.92,675.29 211.02,675.29 211.02,669.32 205.38,669.32 205.38,651.40 211.02,651.40 211.02,645.43 408.92,645.43" fill="#FF9800" fill-opacity="0.12" stroke="#FFB74D" stroke-width="0.6"/>
<polygon points="1855.22,1450.09 1505.50,1450.09 1505.50,1438.15 1855.22,1438.15 1855.22,1450.09" fill="#FF9800" fill-opacity="0.12" stroke="#FFB74D" stroke-width="0.6"/>
<polygon points="1855.22,1420.24 1855.22,1432.18 1505.50,1432.18 1505.50,1420.24 1855.22,1420.24" fill="#FF9800" fill-opacity="0.12" stroke="#FFB74D" stroke-width="0.6"/>
<polygon points="2738.24,1305.88 2738.24,1317.83 2613.33,1317.82 2613.33,1305.88 2738.24,1305.88" fill="#FF9800" fill-opacity="0.12" stroke="#FFB74D" stroke-width="0.6"/>
<polygon points="2481.34,1285.89 2596.41,1285.89 2596.41,1297.83 2481.34,1297.83 2481.34,1285.89" fill="#FF9800" fill-opacity="0.12" stroke="#FFB74D" stroke-width="0.6"/>
<polygon points="2554.10,1267.98 2590.77,1267.98 2590.77,1279.92 2554.10,1279.92 2554.10,1267.98" fill="#FF9800" fill-opacity="0.12" stroke="#FFB74D" stroke-width="0.6"/>
<polygon points="1979.32,1190.36 1979.32,1202.30 1911.63,1202.30 1911.63,1190.36 1979.32,1190.36" fill="#FF9800" fill-opacity="0.12" stroke="#FFB74D" stroke-width="0.6"/>
<polygon points="1449.09,1202.30 1381.40,1202.30 1381.40,1190.36 1449.09,1190.36 1449.09,1202.30" fill="#FF9800" fill-opacity="0.12" stroke="#FFB74D" stroke-width="0.6"/>
<polygon points="1979.32,1172.44 1979.32,1184.39 1911.63,1184.39 1911.63,1172.44 1979.32,1172.44" fill="#FF9800" fill-opacity="0.12" stroke="#FFB74D" stroke-width="0.6"/>
<polygon points="1449.09,1172.44 1449.09,1184.39 1381.40,1184.39 1381.40,1172.44 1449.09,1172.44" fill="#FF9800" fill-opacity="0.12" stroke="#FFB74D" stroke-width="0.6"/>
<polygon points="1824.76,1090.93 1824.76,1096.90 1830.41,1096.90 1836.05,1096.90 1836.05,1090.93 1855.22,1090.93 1855.22,1102.87 1841.69,1102.87 1841.69,1166.16 1855.22,1166.16 1855.22,1178.11 1855.22,1178.11 1855.22,1190.05 1824.76,1190.05 1824.76,1184.08 1819.12,1184.08 1819.12,1102.87 1505.50,1102.87 1505.50,1090.93 1824.76,1090.93" fill="#FF9800" fill-opacity="0.12" stroke="#FFB74D" stroke-width="0.6"/>
<polygon points="2024.44,1081.38 2035.73,1081.38 2035.73,1178.42 2024.44,1178.42 2024.44,1081.38" fill="#FF9800" fill-opacity="0.12" stroke="#FFB74D" stroke-width="0.6"/>
<polygon points="1336.28,1178.42 1325.00,1178.42 1325.00,1081.38 1336.28,1081.38 1336.28,1178.42" fill="#FF9800" fill-opacity="0.12" stroke="#FFB74D" stroke-width="0.6"/>
<polygon points="2007.52,1178.42 2007.52,1081.38 2018.80,1081.38 2018.80,1178.42 2007.52,1178.42" fill="#FF9800" fill-opacity="0.12" stroke="#FFB74D" stroke-width="0.6"/>
<polygon points="1341.92,1178.42 1341.92,1081.38 1353.20,1081.38 1353.20,1178.42 1341.92,1178.42" fill="#FF9800" fill-opacity="0.12" stroke="#FFB74D" stroke-width="0.6"/>
<polygon points="1680.36,1073.02 1680.36,1084.96 1505.50,1084.96 1505.50,1073.02 1680.36,1073.02" fill="#FF9800" fill-opacity="0.12" stroke="#FFB74D" stroke-width="0.6"/>
<polygon points="1855.22,1084.96 1691.64,1084.96 1691.64,1073.02 1855.22,1073.02 1855.22,1084.96" fill="#FF9800" fill-opacity="0.12" stroke="#FFB74D" stroke-width="0.6"/>
<polygon points="2625.18,651.47 2630.82,651.47 2630.82,669.38 2625.18,669.38 2625.18,752.97 2619.54,752.97 2619.54,758.94 2608.26,758.94 2608.26,752.97 2602.62,752.97 2602.62,675.35 2565.95,675.35 2565.95,669.38 2560.31,669.38 2560.31,651.47 2565.95,651.47 2565.95,645.50 2625.18,645.50 2625.18,651.47" fill="#FF9800" fill-opacity="0.12" stroke="#FFB74D" stroke-width="0.6"/>
<polygon points="2740.18,1393.37 2740.18,1381.43 2927.20,1381.43 2927.20,1393.37 2740.18,1393.37" fill="#FF9800" fill-opacity="0.12" stroke="#FFB74D" stroke-width="0.6"/>
<polygon points="3011.81,1393.37 3023.10,1393.37 3023.10,1399.34 3028.74,1399.34 3028.74,1488.91 3028.74,1399.34 3034.38,1399.34 3034.38,1393.37 3169.76,1393.49 3258.59,1393.49 3258.59,1399.46 3264.24,1399.46 3264.24,1489.05 3258.71,1489.05 3258.71,1494.88 3269.88,1494.88 3269.88,1159.00 3281.16,1159.00 3281.16,1500.85 3275.52,1500.85 3275.52,1506.82 2927.20,1506.82 2927.20,1500.85 2921.56,1500.85 2921.56,1405.31 2740.18,1405.31 2740.18,1393.37 2927.20,1393.37 2927.20,1399.34 2932.84,1399.34 2932.84,1494.88 2945.30,1494.88 2944.12,1494.88 2944.13,1488.90 2938.43,1488.90 2938.48,1399.34 2944.13,1399.34 2944.13,1393.37 2963.87,1393.37 2963.87,1393.37 3011.81,1393.37 3011.81,1393.37" fill="#FF9800" fill-opacity="0.12" stroke="#FFB74D" stroke-width="0.6"/>
<polygon points="2738.24,1317.83 2738.24,1329.77 2613.33,1329.77 2613.33,1317.83 2738.24,1317.83" fill="#FF9800" fill-opacity="0.12" stroke="#FFB74D" stroke-width="0.6"/>
<polygon points="3175.39,1344.10 3181.04,1344.10 3181.04,1338.13 3252.95,1338.13 3252.95,1159.00 3264.24,1159.00 3264.24,1344.10 3264.24,1344.10 3264.24,1353.65 3264.24,1353.65 3264.24,1381.56 3258.59,1381.56 3258.59,1387.53 3177.97,1387.53 3177.97,1375.59 3252.95,1375.59 3252.95,1359.62 3181.04,1359.62 3181.04,1353.65 3175.39,1353.65 3175.39,1344.10" fill="#FF9800" fill-opacity="0.12" stroke="#FFB74D" stroke-width="0.6"/>
<polygon points="2944.13,1226.31 2938.48,1226.31 2938.48,1159.00 2944.13,1159.00 2944.13,1153.03 3028.74,1153.03 3028.74,1159.00 3034.38,1159.00 3034.38,1159.00 3045.66,1159.00 3045.66,1338.13 3070.48,1338.13 3070.48,1344.10 3076.12,1344.10 3076.12,1375.59 3117.58,1375.59 3117.58,1387.53 2944.13,1387.53 2944.13,1375.59 3023.10,1375.59 3023.10,1244.23 2944.13,1244.23 2944.13,1232.28 3028.74,1232.28 3028.74,1238.26 3034.38,1238.26 3034.38,1159.00 3034.38,1226.31 3028.74,1226.31 3028.74,1232.28 2944.13,1232.28 2944.13,1226.31" fill="#FF9800" fill-opacity="0.12" stroke="#FFB74D" stroke-width="0.6"/>
<polygon points="2613.33,1248.56 2738.24,1248.56 2738.24,1260.50 2613.33,1260.50 2613.33,1248.56" fill="#FF9800" fill-opacity="0.12" stroke="#FFB74D" stroke-width="0.6"/>
<polygon points="2613.33,1236.62 2738.24,1236.62 2738.24,1248.56 2613.33,1248.56 2613.33,1236.62" fill="#FF9800" fill-opacity="0.12" stroke="#FFB74D" stroke-width="0.6"/>
<polygon points="2921.56,1226.31 2921.56,1159.00 2932.84,1159.00 2932.84,1226.31 2921.56,1226.31" fill="#FF9800" fill-opacity="0.12" stroke="#FFB74D" stroke-width="0.6"/>
<polygon points="3028.74,1135.14 3028.73,1147.08 2944.12,1147.06 2944.13,1135.11 3028.74,1135.14" fill="#FF9800" fill-opacity="0.12" stroke="#FFB74D" stroke-width="0.6"/>
<polygon points="3157.66,944.04 3157.66,1141.09 3146.38,1141.09 3146.38,944.04 3157.66,944.04" fill="#FF9800" fill-opacity="0.12" stroke="#FFB74D" stroke-width="0.6"/>
<polygon points="3183.61,944.04 3183.61,1141.09 3172.33,1141.09 3172.33,944.04 3183.61,944.04" fill="#FF9800" fill-opacity="0.12" stroke="#FFB74D" stroke-width="0.6"/>
<polygon points="3245.09,926.13 3245.09,1141.09 3233.81,1141.09 3233.81,926.13 3245.09,926.13" fill="#FF9800" fill-opacity="0.12" stroke="#FFB74D" stroke-width="0.6"/>
<polygon points="2873.37,645.50 2916.83,645.50 2916.83,651.47 2922.47,651.47 2922.47,669.45 2916.83,669.45 2916.83,675.42 2873.37,675.42 2873.37,669.45 2867.73,669.45 2867.73,651.47 2873.37,651.47 2873.37,645.50" fill="#FF9800" fill-opacity="0.12" stroke="#FFB74D" stroke-width="0.6"/>
<polygon points="2850.81,651.47 2850.81,669.38 2845.17,669.38 2845.17,675.35 2839.50,675.35 2839.50,669.38 2833.86,669.38 2833.86,651.47 2839.50,651.47 2839.50,645.50 2845.17,645.50 2845.17,651.47 2850.81,651.47" fill="#FF9800" fill-opacity="0.12" stroke="#FFB74D" stroke-width="0.6"/>
<polygon points="2704.15,651.47 2709.79,651.47 2709.79,645.50 2803.97,645.50 2803.97,651.47 2809.61,651.47 2809.61,669.38 2803.97,669.38 2803.97,675.35 2709.79,675.35 2709.79,669.38 2704.15,669.38 2704.15,651.47" fill="#FF9800" fill-opacity="0.12" stroke="#FFB74D" stroke-width="0.6"/>
<polygon points="3155.34,669.32 3149.70,669.32 3149.70,675.29 2952.36,675.29 2952.36,669.32 2946.72,669.32 2946.72,651.40 2952.36,651.40 2952.36,645.43 3149.70,645.43 3149.70,651.40 3155.34,651.40 3155.34,669.32" fill="#FF9800" fill-opacity="0.12" stroke="#FFB74D" stroke-width="0.6"/>
<polygon class="slab-poly" data-slab-id="SLAB-001" points="1342.20,95.87 1342.20,660.73 1185.11,660.73 1185.11,588.17 1168.19,588.17 1168.19,660.73 1090.91,660.73 1090.91,484.28 1073.99,484.28 1073.99,660.73 913.23,660.73 913.23,388.74 910.12,388.74 910.12,184.27 913.23,184.27 913.23,95.87 1342.20,95.87" fill="#2196F3" fill-opacity="0.45" stroke="#2196F3" stroke-width="1.5"/>
<text x="1127.5" y="374.4" fill="#fff" font-size="9" text-anchor="middle" dominant-baseline="middle" font-family="Segoe UI, sans-serif" paint-order="stroke" stroke="#000" stroke-width="2" pointer-events="none">SLAB-001</text>
<polygon class="slab-poly" data-slab-id="SLAB-002" points="1682.90,660.73 1682.90,95.87 1866.79,95.87 1866.79,660.73 1682.90,660.73" fill="#2196F3" fill-opacity="0.45" stroke="#2196F3" stroke-width="1.5"/>
<text x="1774.8" y="378.3" fill="#fff" font-size="9" text-anchor="middle" dominant-baseline="middle" font-family="Segoe UI, sans-serif" paint-order="stroke" stroke="#000" stroke-width="2" pointer-events="none">SLAB-002</text>
<polygon class="slab-poly" data-slab-id="SLAB-003" points="1493.94,660.73 1493.94,95.87 1689.11,95.87 1689.11,660.73 1493.94,660.73" fill="#2196F3" fill-opacity="0.45" stroke="#2196F3" stroke-width="1.5"/>
<text x="1591.5" y="378.3" fill="#fff" font-size="9" text-anchor="middle" dominant-baseline="middle" font-family="Segoe UI, sans-serif" paint-order="stroke" stroke="#000" stroke-width="2" pointer-events="none">SLAB-003</text>
<polygon class="slab-poly" data-slab-id="SLAB-004" points="1336.00,660.73 1336.00,95.87 1500.14,95.87 1500.14,660.73 1336.00,660.73" fill="#2196F3" fill-opacity="0.45" stroke="#2196F3" stroke-width="1.5"/>
<text x="1418.1" y="378.3" fill="#fff" font-size="9" text-anchor="middle" dominant-baseline="middle" font-family="Segoe UI, sans-serif" paint-order="stroke" stroke="#000" stroke-width="2" pointer-events="none">SLAB-004</text>
<polygon class="slab-poly" data-slab-id="SLAB-005" points="234.37,660.73 234.37,95.87 329.45,95.87 329.45,660.73 234.37,660.73" fill="#2196F3" fill-opacity="0.45" stroke="#2196F3" stroke-width="1.5"/>
<text x="281.9" y="378.3" fill="#fff" font-size="9" text-anchor="middle" dominant-baseline="middle" font-family="Segoe UI, sans-serif" paint-order="stroke" stroke="#000" stroke-width="2" pointer-events="none">SLAB-005</text>
<polygon class="slab-poly" data-slab-id="SLAB-006" points="888.12,388.74 885.02,388.74 885.02,660.73 512.46,660.73 512.46,184.27 515.56,184.27 515.56,95.87 885.02,95.87 885.02,184.27 888.12,184.27 888.12,388.74" fill="#2196F3" fill-opacity="0.45" stroke="#2196F3" stroke-width="1.5"/>
<text x="699.5" y="378.3" fill="#fff" font-size="9" text-anchor="middle" dominant-baseline="middle" font-family="Segoe UI, sans-serif" paint-order="stroke" stroke="#000" stroke-width="2" pointer-events="none">SLAB-006</text>
<polygon class="slab-poly" data-slab-id="SLAB-007" points="3037.48,95.87 3037.48,660.73 2873.09,660.73 2873.09,184.27 2876.19,184.27 2876.19,95.87 3037.48,95.87" fill="#2196F3" fill-opacity="0.45" stroke="#2196F3" stroke-width="1.5"/>
<text x="2955.5" y="379.0" fill="#fff" font-size="9" text-anchor="middle" dominant-baseline="middle" font-family="Segoe UI, sans-serif" paint-order="stroke" stroke="#000" stroke-width="2" pointer-events="none">SLAB-007</text>
<polygon class="slab-poly" data-slab-id="SLAB-008" points="489.34,660.73 323.25,660.73 323.25,95.87 484.53,95.87 484.53,184.27 489.34,184.27 489.34,660.73" fill="#2196F3" fill-opacity="0.45" stroke="#2196F3" stroke-width="1.5"/>
<text x="405.9" y="379.4" fill="#fff" font-size="9" text-anchor="middle" dominant-baseline="middle" font-family="Segoe UI, sans-serif" paint-order="stroke" stroke="#000" stroke-width="2" pointer-events="none">SLAB-008</text>
<polygon class="slab-poly" data-slab-id="SLAB-009" points="185.86,624.57 182.76,624.57 182.76,660.73 90.57,660.73 90.57,95.87 182.76,95.87 182.76,493.20 185.86,493.20 185.86,624.57" fill="#2196F3" fill-opacity="0.45" stroke="#2196F3" stroke-width="1.5"/>
<text x="137.0" y="379.7" fill="#fff" font-size="9" text-anchor="middle" dominant-baseline="middle" font-family="Segoe UI, sans-serif" paint-order="stroke" stroke="#000" stroke-width="2" pointer-events="none">SLAB-009</text>
<polygon class="slab-poly" data-slab-id="SLAB-010" points="240.57,95.87 240.57,660.73 210.96,660.73 210.96,624.57 182.76,624.57 182.76,660.73 179.65,660.73 179.65,95.87 182.76,95.87 182.76,493.20 210.96,493.20 210.96,95.87 240.57,95.87" fill="#2196F3" fill-opacity="0.45" stroke="#2196F3" stroke-width="1.5"/>
<text x="217.4" y="408.5" fill="#fff" font-size="9" text-anchor="middle" dominant-baseline="middle" font-family="Segoe UI, sans-serif" paint-order="stroke" stroke="#000" stroke-width="2" pointer-events="none">SLAB-010</text>
<polygon class="slab-poly" data-slab-id="SLAB-011" points="2879.29,95.87 2879.29,660.73 2842.06,660.73 2842.06,95.87 2845.17,95.87 2845.17,184.27 2876.19,184.27 2876.19,95.87 2879.29,95.87" fill="#2196F3" fill-opacity="0.45" stroke="#2196F3" stroke-width="1.5"/>
<text x="2860.7" y="414.0" fill="#fff" font-size="9" text-anchor="middle" dominant-baseline="middle" font-family="Segoe UI, sans-serif" paint-order="stroke" stroke="#000" stroke-width="2" pointer-events="none">SLAB-011</text>
<polygon class="slab-poly" data-slab-id="SLAB-012" points="518.66,95.87 518.66,660.73 483.13,660.73 483.13,95.87 484.53,95.87 484.53,184.27 515.56,184.27 515.56,95.87 518.66,95.87" fill="#2196F3" fill-opacity="0.45" stroke="#2196F3" stroke-width="1.5"/>
<text x="501.0" y="416.0" fill="#fff" font-size="9" text-anchor="middle" dominant-baseline="middle" font-family="Segoe UI, sans-serif" paint-order="stroke" stroke="#000" stroke-width="2" pointer-events="none">SLAB-012</text>
<polygon class="slab-poly" data-slab-id="SLAB-013" points="1682.90,756.26 1682.90,654.16 1866.79,654.16 1866.79,680.72 1855.22,680.72 1855.22,756.26 1682.90,756.26" fill="#2196F3" fill-opacity="0.45" stroke="#2196F3" stroke-width="1.5"/>
<text x="1770.6" y="704.6" fill="#fff" font-size="9" text-anchor="middle" dominant-baseline="middle" font-family="Segoe UI, sans-serif" paint-order="stroke" stroke="#000" stroke-width="2" pointer-events="none">SLAB-013</text>
<polygon class="slab-poly" data-slab-id="SLAB-014" points="1493.94,654.16 1689.11,654.16 1689.11,756.26 1505.50,756.26 1505.50,680.72 1493.94,680.72 1493.94,654.16" fill="#2196F3" fill-opacity="0.45" stroke="#2196F3" stroke-width="1.5"/>
<text x="1595.7" y="704.6" fill="#fff" font-size="9" text-anchor="middle" dominant-baseline="middle" font-family="Segoe UI, sans-serif" paint-order="stroke" stroke="#000" stroke-width="2" pointer-events="none">SLAB-014</text>
<polygon class="slab-poly" data-slab-id="SLAB-015" points="2873.09,756.26 2873.09,654.16 3109.43,654.16 3109.43,756.26 2873.09,756.26" fill="#2196F3" fill-opacity="0.45" stroke="#2196F3" stroke-width="1.5"/>
<text x="2991.3" y="705.2" fill="#fff" font-size="9" text-anchor="middle" dominant-baseline="middle" font-family="Segoe UI, sans-serif" paint-order="stroke" stroke="#000" stroke-width="2" pointer-events="none">SLAB-015</text>
<polygon class="slab-poly" data-slab-id="SLAB-016" points="251.29,756.26 251.29,654.16 489.34,654.16 489.34,756.26 251.29,756.26" fill="#2196F3" fill-opacity="0.45" stroke="#2196F3" stroke-width="1.5"/>
<text x="370.3" y="705.2" fill="#fff" font-size="9" text-anchor="middle" dominant-baseline="middle" font-family="Segoe UI, sans-serif" paint-order="stroke" stroke="#000" stroke-width="2" pointer-events="none">SLAB-016</text>
<polygon class="slab-poly" data-slab-id="SLAB-017" points="888.12,756.26 512.46,756.26 512.46,654.16 885.02,654.16 885.02,669.38 888.12,669.38 888.12,756.26" fill="#2196F3" fill-opacity="0.45" stroke="#2196F3" stroke-width="1.5"/>
<text x="700.1" y="705.3" fill="#fff" font-size="9" text-anchor="middle" dominant-baseline="middle" font-family="Segoe UI, sans-serif" paint-order="stroke" stroke="#000" stroke-width="2" pointer-events="none">SLAB-017</text>
<polygon class="slab-poly" data-slab-id="SLAB-018" points="1168.19,654.16 1168.19,756.26 910.12,756.26 910.12,669.38 913.23,669.38 913.23,654.16 1073.99,654.16 1073.99,669.38 1090.91,669.38 1090.91,654.16 1168.19,654.16" fill="#2196F3" fill-opacity="0.45" stroke="#2196F3" stroke-width="1.5"/>
<text x="1039.0" y="705.7" fill="#fff" font-size="9" text-anchor="middle" dominant-baseline="middle" font-family="Segoe UI, sans-serif" paint-order="stroke" stroke="#000" stroke-width="2" pointer-events="none">SLAB-018</text>
<polygon class="slab-poly" data-slab-id="SLAB-019" points="251.29,749.69 489.34,749.69 489.34,890.30 487.94,890.30 487.94,899.56 278.20,899.56 275.59,891.86 272.04,883.91 267.77,876.37 262.83,869.31 257.25,862.80 251.29,857.08 251.29,749.69" fill="#2196F3" fill-opacity="0.45" stroke="#2196F3" stroke-width="1.5"/>
<text x="372.4" y="823.4" fill="#fff" font-size="9" text-anchor="middle" dominant-baseline="middle" font-family="Segoe UI, sans-serif" paint-order="stroke" stroke="#000" stroke-width="2" pointer-events="none">SLAB-019</text>
<polygon class="slab-poly" data-slab-id="SLAB-020" points="2873.09,899.56 2873.09,749.69 3109.43,749.69 3109.43,857.08 3103.47,862.80 3097.90,869.31 3092.95,876.37 3088.68,883.91 3085.13,891.86 3082.53,899.56 2873.09,899.56" fill="#2196F3" fill-opacity="0.45" stroke="#2196F3" stroke-width="1.5"/>
<text x="2989.1" y="823.4" fill="#fff" font-size="9" text-anchor="middle" dominant-baseline="middle" font-family="Segoe UI, sans-serif" paint-order="stroke" stroke="#000" stroke-width="2" pointer-events="none">SLAB-020</text>
<polygon class="slab-poly" data-slab-id="SLAB-021" points="1342.20,800.74 1330.64,800.74 1322.35,801.17 1314.13,802.46 1306.08,804.60 1298.26,807.56 1290.75,811.32 1283.63,815.83 1276.96,821.07 1270.81,826.97 1265.23,833.49 1260.29,840.55 1256.02,848.08 1252.47,856.03 1249.67,864.31 1247.65,872.83 1246.44,881.53 1246.03,890.30 1246.03,899.56 910.12,899.56 910.12,749.69 1168.19,749.69 1168.19,770.89 1342.20,770.89 1342.20,800.74" fill="#2196F3" fill-opacity="0.45" stroke="#2196F3" stroke-width="1.5"/>
<text x="1091.5" y="824.4" fill="#fff" font-size="9" text-anchor="middle" dominant-baseline="middle" font-family="Segoe UI, sans-serif" paint-order="stroke" stroke="#000" stroke-width="2" pointer-events="none">SLAB-021</text>
<polygon class="slab-poly" data-slab-id="SLAB-022" points="512.46,899.56 512.46,749.69 888.12,749.69 888.12,899.56 512.46,899.56" fill="#2196F3" fill-opacity="0.45" stroke="#2196F3" stroke-width="1.5"/>
<text x="700.3" y="824.6" fill="#fff" font-size="9" text-anchor="middle" dominant-baseline="middle" font-family="Segoe UI, sans-serif" paint-order="stroke" stroke="#000" stroke-width="2" pointer-events="none">SLAB-022</text>
<polygon class="slab-poly" data-slab-id="SLAB-023" points="1866.79,800.74 1855.22,800.74 1846.93,801.17 1838.72,802.46 1830.66,804.60 1822.84,807.56 1815.34,811.32 1808.22,815.83 1801.55,821.07 1795.40,826.97 1789.82,833.49 1784.87,840.55 1780.60,848.08 1777.05,856.03 1774.26,864.31 1772.24,872.83 1771.02,881.53 1770.61,890.30 1770.61,1091.23 1682.90,1091.23 1682.90,749.69 1855.22,749.69 1855.22,770.89 1866.79,770.89 1866.79,800.74" fill="#2196F3" fill-opacity="0.45" stroke="#2196F3" stroke-width="1.5"/>
<text x="1741.1" y="897.4" fill="#fff" font-size="9" text-anchor="middle" dominant-baseline="middle" font-family="Segoe UI, sans-serif" paint-order="stroke" stroke="#000" stroke-width="2" pointer-events="none">SLAB-023</text>
<polygon class="slab-poly" data-slab-id="SLAB-024" points="1689.11,749.69 1689.11,1091.23 1590.11,1091.23 1590.11,890.30 1589.70,881.53 1588.49,872.83 1586.47,864.31 1583.67,856.03 1580.12,848.08 1575.85,840.55 1570.91,833.49 1565.33,826.97 1559.18,821.07 1552.51,815.83 1545.39,811.32 1537.88,807.56 1530.06,804.60 1522.01,802.46 1513.79,801.17 1505.50,800.74 1493.94,800.74 1493.94,770.89 1505.50,770.89 1505.50,749.69 1689.11,749.69" fill="#2196F3" fill-opacity="0.45" stroke="#2196F3" stroke-width="1.5"/>
<text x="1625.7" y="899.6" fill="#fff" font-size="9" text-anchor="middle" dominant-baseline="middle" font-family="Segoe UI, sans-serif" paint-order="stroke" stroke="#000" stroke-width="2" pointer-events="none">SLAB-024</text>
<polygon class="slab-poly" data-slab-id="SLAB-025" points="512.46,1091.23 512.46,892.99 888.12,892.99 888.12,991.81 879.38,991.81 747.39,991.81 739.10,992.24 730.89,993.53 722.83,995.67 715.01,998.63 707.51,1002.39 700.39,1006.91 693.72,1012.14 687.56,1018.04 681.99,1024.56 677.04,1031.62 672.77,1039.16 669.22,1047.10 666.43,1055.38 664.41,1063.90 663.19,1072.60 662.78,1081.38 662.78,1091.23 512.46,1091.23" fill="#2196F3" fill-opacity="0.45" stroke="#2196F3" stroke-width="1.5"/>
<text x="668.4" y="972.1" fill="#fff" font-size="9" text-anchor="middle" dominant-baseline="middle" font-family="Segoe UI, sans-serif" paint-order="stroke" stroke="#000" stroke-width="2" pointer-events="none">SLAB-025</text>
<polygon class="slab-poly" data-slab-id="SLAB-026" points="910.12,892.99 1246.03,892.99 1246.03,1091.23 986.56,1091.23 986.56,1084.36 1086.96,1084.36 1087.24,1084.35 1087.51,1084.30 1087.78,1084.23 1088.04,1084.13 1088.29,1084.01 1088.53,1083.86 1088.75,1083.68 1088.95,1083.49 1089.14,1083.27 1089.31,1083.03 1089.45,1082.78 1089.57,1082.52 1089.66,1082.24 1089.73,1081.96 1089.77,1081.67 1089.78,1081.38 1089.78,1057.49 1089.77,1057.20 1089.73,1056.91 1089.66,1056.63 1089.57,1056.35 1089.45,1056.08 1089.31,1055.83 1089.14,1055.60 1088.95,1055.38 1088.75,1055.18 1088.53,1055.01 1088.29,1054.86 1088.04,1054.73 1087.78,1054.63 1087.51,1054.56 1087.24,1054.52 1086.96,1054.51 982.62,1054.51 980.12,1047.10 976.56,1039.16 972.30,1031.62 967.35,1024.56 961.77,1018.04 955.62,1012.14 948.95,1006.91 941.83,1002.39 934.32,998.63 926.51,995.67 918.45,993.53 910.24,992.24 910.12,992.24 910.12,892.99" fill="#2196F3" fill-opacity="0.45" stroke="#2196F3" stroke-width="1.5"/>
<text x="1081.3" y="981.4" fill="#fff" font-size="9" text-anchor="middle" dominant-baseline="middle" font-family="Segoe UI, sans-serif" paint-order="stroke" stroke="#000" stroke-width="2" pointer-events="none">SLAB-026</text>
<polygon class="slab-poly" data-slab-id="SLAB-027" points="2450.60,892.99 2450.60,992.24 2450.49,992.24 2442.27,993.53 2434.22,995.67 2426.40,998.63 2418.89,1002.39 2411.77,1006.91 2405.10,1012.14 2398.95,1018.04 2393.37,1024.56 2388.43,1031.62 2384.16,1039.16 2380.61,1047.10 2377.81,1055.38 2375.79,1063.90 2374.58,1072.60 2374.17,1081.38 2374.17,1091.23 2114.70,1091.23 2114.70,892.99 2450.60,892.99" fill="#2196F3" fill-opacity="0.45" stroke="#2196F3" stroke-width="1.5"/>
<text x="2282.0" y="986.5" fill="#fff" font-size="9" text-anchor="middle" dominant-baseline="middle" font-family="Segoe UI, sans-serif" paint-order="stroke" stroke="#000" stroke-width="2" pointer-events="none">SLAB-027</text>
<polygon class="slab-poly" data-slab-id="SLAB-028" points="2873.09,1091.23 2873.09,944.04 3078.69,944.04 3078.69,1091.23 2873.09,1091.23" fill="#2196F3" fill-opacity="0.45" stroke="#2196F3" stroke-width="1.5"/>
<text x="2975.9" y="1017.6" fill="#fff" font-size="9" text-anchor="middle" dominant-baseline="middle" font-family="Segoe UI, sans-serif" paint-order="stroke" stroke="#000" stroke-width="2" pointer-events="none">SLAB-028</text>
<polygon class="slab-poly" data-slab-id="SLAB-029" points="489.34,1091.23 282.03,1091.23 282.03,944.04 489.34,944.04 489.34,1091.23" fill="#2196F3" fill-opacity="0.45" stroke="#2196F3" stroke-width="1.5"/>
<text x="385.7" y="1017.6" fill="#fff" font-size="9" text-anchor="middle" dominant-baseline="middle" font-family="Segoe UI, sans-serif" paint-order="stroke" stroke="#000" stroke-width="2" pointer-events="none">SLAB-029</text>
<polygon class="slab-poly" data-slab-id="SLAB-030" points="1246.03,1084.66 1246.03,1372.47 986.56,1372.47 986.56,1291.85 986.56,1084.66 1246.03,1084.66" fill="#2196F3" fill-opacity="0.45" stroke="#2196F3" stroke-width="1.5"/>
<text x="1116.3" y="1228.6" fill="#fff" font-size="9" text-anchor="middle" dominant-baseline="middle" font-family="Segoe UI, sans-serif" paint-order="stroke" stroke="#000" stroke-width="2" pointer-events="none">SLAB-030</text>
<polygon class="slab-poly" data-slab-id="SLAB-031" points="512.46,1084.66 662.78,1084.66 662.78,1164.97 622.48,1164.97 614.19,1165.40 605.98,1166.69 597.92,1168.83 590.11,1171.79 582.60,1175.54 575.48,1180.06 568.81,1185.30 562.66,1191.20 557.08,1197.71 552.13,1204.77 547.86,1212.31 544.31,1220.26 541.52,1228.53 539.50,1237.06 538.28,1245.75 537.87,1254.53 537.87,1311.85 538.28,1320.63 539.50,1329.33 541.52,1337.85 544.31,1346.13 547.86,1354.07 552.13,1361.61 557.08,1368.67 562.66,1375.19 568.81,1381.09 575.48,1386.32 582.60,1390.84 590.11,1394.60 597.92,1397.56 605.98,1399.70 614.19,1400.99 622.48,1401.42 662.88,1401.42 663.19,1408.12 664.41,1416.81 666.43,1425.34 669.22,1433.62 671.38,1438.45 512.46,1438.45 512.46,1431.36 514.49,1425.34 516.51,1416.81 517.73,1408.12 518.13,1399.34 518.13,1226.31 517.73,1217.54 516.51,1208.84 514.49,1200.31 512.46,1194.29 512.46,1084.66" fill="#2196F3" fill-opacity="0.45" stroke="#2196F3" stroke-width="1.5"/>
<text x="572.9" y="1237.8" fill="#fff" font-size="9" text-anchor="middle" dominant-baseline="middle" font-family="Segoe UI, sans-serif" paint-order="stroke" stroke="#000" stroke-width="2" pointer-events="none">SLAB-031</text>
<polygon class="slab-poly" data-slab-id="SLAB-032" points="1689.11,1084.66 1689.11,1504.13 1568.17,1504.13 1570.91,1500.94 1575.85,1493.88 1580.12,1486.34 1583.67,1478.40 1586.47,1470.12 1588.49,1461.60 1589.70,1452.90 1590.11,1444.12 1590.11,1084.66 1689.11,1084.66" fill="#2196F3" fill-opacity="0.45" stroke="#2196F3" stroke-width="1.5"/>
<text x="1639.1" y="1296.3" fill="#fff" font-size="9" text-anchor="middle" dominant-baseline="middle" font-family="Segoe UI, sans-serif" paint-order="stroke" stroke="#000" stroke-width="2" pointer-events="none">SLAB-032</text>
<polygon class="slab-poly" data-slab-id="SLAB-033" points="1682.90,1504.13 1682.90,1084.66 1770.61,1084.66 1770.61,1444.12 1771.02,1452.90 1772.24,1461.60 1774.26,1470.12 1777.05,1478.40 1780.60,1486.34 1784.87,1493.88 1789.82,1500.94 1792.55,1504.13 1682.90,1504.13" fill="#2196F3" fill-opacity="0.45" stroke="#2196F3" stroke-width="1.5"/>
<text x="1727.3" y="1296.6" fill="#fff" font-size="9" text-anchor="middle" dominant-baseline="middle" font-family="Segoe UI, sans-serif" paint-order="stroke" stroke="#000" stroke-width="2" pointer-events="none">SLAB-033</text>
<polygon class="slab-poly" data-slab-id="SLAB-034" points="910.12,1504.13 910.12,1488.48 910.24,1488.47 918.45,1487.18 926.51,1485.05 934.32,1482.09 941.83,1478.33 948.95,1473.81 955.62,1468.58 961.77,1462.67 967.35,1456.16 972.30,1449.10 976.56,1441.56 980.12,1433.62 982.91,1425.34 984.93,1416.81 986.15,1408.12 986.42,1402.33 1246.03,1402.33 1246.03,1444.12 1246.44,1452.90 1247.65,1461.60 1249.67,1470.12 1252.47,1478.40 1256.02,1486.34 1260.29,1493.88 1265.23,1500.94 1267.96,1504.13 910.12,1504.13" fill="#2196F3" fill-opacity="0.45" stroke="#2196F3" stroke-width="1.5"/>
<text x="1103.4" y="1456.3" fill="#fff" font-size="9" text-anchor="middle" dominant-baseline="middle" font-family="Segoe UI, sans-serif" paint-order="stroke" stroke="#000" stroke-width="2" pointer-events="none">SLAB-034</text>
</svg>