<svg xmlns="http://www.w3.org/2000/svg" width="1845" height="1600" viewBox="0 0 1845 1600">
<rect width="100%" height="100%" fill="#121212"/>
<polygon points="-18.58,1542.88 138.67,1542.88 138.67,1549.20 -18.58,1549.20 -18.58,1542.88" fill="#FF9800" fill-opacity="0.12" stroke="#FFB74D" stroke-width="0.6"/>
<polygon points="325.84,1549.20 201.86,1549.20 201.86,1542.88 325.84,1542.88 325.84,1549.20" fill="#FF9800" fill-opacity="0.12" stroke="#FFB74D" stroke-width="0.6"/>
<polygon points="-18.58,1531.82 138.67,1531.82 138.67,1538.14 -18.58,1538.14 -18.58,1531.82" fill="#FF9800" fill-opacity="0.12" stroke="#FFB74D" stroke-width="0.6"/>
<polygon points="201.86,1538.14 201.86,1531.82 325.84,1531.82 325.84,1538.14 201.86,1538.14" fill="#FF9800" fill-opacity="0.12" stroke="#FFB74D" stroke-width="0.6"/>
<polygon points="-37.65,1435.49 -37.65,1432.33 165.52,1432.33 165.52,1435.49 168.68,1435.49 168.68,1535.02 162.36,1535.02 162.36,1438.65 -34.30,1438.65 -28.69,1534.84 -35.00,1535.21 -40.80,1435.68 -37.65,1435.49" fill="#FF9800" fill-opacity="0.12" stroke="#FFB74D" stroke-width="0.6"/>
<polygon points="355.85,1435.49 355.85,1535.02 349.53,1535.02 349.53,1438.65 182.90,1438.65 182.90,1535.02 176.58,1535.02 176.58,1435.49 179.74,1435.49 179.74,1432.33 352.69,1432.33 352.69,1435.49 355.85,1435.49" fill="#FF9800" fill-opacity="0.12" stroke="#FFB74D" stroke-width="0.6"/>
<polygon points="-25.62,1427.60 -38.29,1427.60 -38.29,1424.44 -41.45,1424.62 -50.16,1275.32 -47.00,1275.14 -47.00,1271.98 -25.62,1271.98 -25.62,1275.14 -22.46,1275.14 -22.46,1424.44 -25.62,1424.44 -25.62,1427.60" fill="#FF9800" fill-opacity="0.12" stroke="#FFB74D" stroke-width="0.6"/>
<polygon points="-14.56,1424.44 -17.72,1424.44 -17.72,1275.14 -14.56,1275.14 -14.56,1271.98 126.04,1271.98 126.04,1278.30 -11.40,1278.30 -11.40,1421.28 162.36,1421.28 162.36,1282.25 168.68,1282.25 168.68,1424.44 165.52,1424.44 165.52,1427.60 -14.56,1427.60 -14.56,1424.44" fill="#FF9800" fill-opacity="0.12" stroke="#FFB74D" stroke-width="0.6"/>
<polygon points="-22.46,1260.92 -25.62,1260.92 -25.62,1264.08 -47.83,1264.08 -47.83,1260.92 -50.99,1261.11 -57.52,1149.18 -54.36,1149.00 -54.36,1145.84 -25.62,1145.84 -25.62,1149.00 -22.46,1149.00 -22.46,1260.92" fill="#FF9800" fill-opacity="0.12" stroke="#FFB74D" stroke-width="0.6"/>
<polygon points="266.49,1155.08 272.81,1155.08 272.81,1190.70 266.49,1190.70 266.49,1155.08" fill="#FF9800" fill-opacity="0.12" stroke="#FFB74D" stroke-width="0.6"/>
<polygon points="253.85,1190.70 253.85,1155.08 260.17,1155.08 260.17,1190.70 253.85,1190.70" fill="#FF9800" fill-opacity="0.12" stroke="#FFB74D" stroke-width="0.6"/>
<polygon points="-18.18,1038.41 -15.02,1038.41 -15.02,1035.25 52.91,1035.25 52.91,1027.35 -15.02,1027.35 -15.02,1024.19 -18.18,1024.19 -18.18,927.83 -15.02,927.83 -15.02,924.67 127.16,924.67 127.16,930.98 -11.86,930.98 -11.86,1021.03 52.91,1021.03 52.91,984.15 46.26,989.76 42.18,984.93 54.03,974.93 56.07,977.35 58.11,974.93 69.95,984.93 65.88,989.76 59.23,984.15 59.23,1021.03 127.61,1021.03 127.61,1027.35 59.23,1027.35 59.23,1035.25 127.16,1035.25 127.16,1041.57 59.23,1041.57 59.23,1131.62 127.61,1131.62 127.61,1137.94 59.23,1137.94 59.23,1145.84 127.16,1145.84 127.16,1152.16 59.23,1152.16 59.23,1257.76 125.89,1257.76 125.89,1264.08 -14.56,1264.08 -14.56,1260.92 -17.72,1260.92 -17.72,1149.00 -14.56,1149.00 -14.56,1145.84 52.91,1145.84 52.91,1137.94 -15.02,1137.94 -15.02,1134.78 -18.18,1134.78 -18.18,1038.41" fill="#FF9800" fill-opacity="0.12" stroke="#FFB74D" stroke-width="0.6"/>
<polygon points="-26.08,1134.78 -26.08,1137.94 -55.19,1137.94 -55.19,1134.78 -58.35,1134.96 -63.97,1038.59 -60.81,1038.41 -60.81,1035.25 -26.08,1035.25 -26.08,1038.41 -22.92,1038.41 -22.92,1134.78 -26.08,1134.78" fill="#FF9800" fill-opacity="0.12" stroke="#FFB74D" stroke-width="0.6"/>
<polygon points="373.91,1022.37 458.72,1022.37 458.72,1028.69 373.91,1028.69 373.91,1022.37" fill="#FF9800" fill-opacity="0.12" stroke="#FFB74D" stroke-width="0.6"/>
<polygon points="307.70,1022.37 361.27,1022.37 361.27,1028.69 307.70,1028.69 307.70,1022.37" fill="#FF9800" fill-opacity="0.12" stroke="#FFB74D" stroke-width="0.6"/>
<polygon points="373.91,1012.89 367.59,1012.89 367.59,949.70 373.91,949.70 373.91,1012.89 373.91,1009.74 458.72,1009.74 458.72,1016.05 373.91,1016.05 373.91,1012.89" fill="#FF9800" fill-opacity="0.12" stroke="#FFB74D" stroke-width="0.6"/>
<polygon points="358.11,949.70 364.43,949.70 364.43,1012.89 361.27,1012.89 361.27,1016.05 307.70,1016.05 307.70,1012.89 304.54,1012.82 306.12,949.62 312.44,949.78 310.94,1009.74 358.11,1009.74 358.11,949.70" fill="#FF9800" fill-opacity="0.12" stroke="#FFB74D" stroke-width="0.6"/>
<polygon points="298.53,1012.96 292.22,1012.83 293.48,949.64 299.80,949.77 298.53,1012.96" fill="#FF9800" fill-opacity="0.12" stroke="#FFB74D" stroke-width="0.6"/>
<polygon points="-26.08,1024.19 -26.08,1027.35 -61.64,1027.35 -61.64,1024.19 -64.80,1024.38 -70.42,928.01 -67.27,927.83 -67.27,924.67 -26.08,924.67 -26.08,927.83 -22.92,927.83 -22.92,1024.19 -26.08,1024.19" fill="#FF9800" fill-opacity="0.12" stroke="#FFB74D" stroke-width="0.6"/>
<polygon points="430.91,892.83 430.91,895.99 434.07,895.99 434.07,937.06 427.76,937.06 427.76,899.15 314.02,899.15 314.02,892.83 430.91,892.83" fill="#FF9800" fill-opacity="0.12" stroke="#FFB74D" stroke-width="0.6"/>
<polygon points="143.41,899.15 143.41,892.83 298.22,892.83 298.22,899.15 143.41,899.15" fill="#FF9800" fill-opacity="0.12" stroke="#FFB74D" stroke-width="0.6"/>
<polygon points="-39.12,1545.86 -45.43,1546.23 -121.38,244.37 -115.07,244.00 -39.12,1545.86" fill="#FF9800" fill-opacity="0.12" stroke="#FFB74D" stroke-width="0.6"/>
<polygon points="298.22,883.35 143.41,883.35 143.41,877.03 298.22,877.03 298.22,883.35" fill="#FF9800" fill-opacity="0.12" stroke="#FFB74D" stroke-width="0.6"/>
<polygon points="314.02,877.03 520.96,877.03 520.96,883.35 314.02,883.35 314.02,877.03" fill="#FF9800" fill-opacity="0.12" stroke="#FFB74D" stroke-width="0.6"/>
<polygon points="-15.02,913.61 -18.18,913.61 -18.18,817.24 -15.02,817.24 -15.02,814.08 127.16,814.08 127.16,820.40 -11.86,820.40 -11.86,910.45 127.61,910.45 127.61,916.77 -15.02,916.77 -15.02,913.61" fill="#FF9800" fill-opacity="0.12" stroke="#FFB74D" stroke-width="0.6"/>
<polygon points="-68.10,916.77 -68.10,913.61 -71.25,913.79 -76.87,817.42 -73.72,817.24 -73.72,814.08 -26.08,814.08 -26.08,817.24 -22.92,817.24 -22.92,913.61 -26.08,913.61 -26.08,916.77 -68.10,916.77" fill="#FF9800" fill-opacity="0.12" stroke="#FFB74D" stroke-width="0.6"/>
<polygon points="127.61,799.86 127.61,806.18 -74.53,806.18 -74.53,803.02 -77.70,803.21 -83.32,706.84 -77.01,706.47 -71.57,799.86 127.61,799.86" fill="#FF9800" fill-opacity="0.12" stroke="#FFB74D" stroke-width="0.6"/>
<polygon points="130.77,677.98 124.45,677.98 124.45,606.89 -82.82,606.89 -77.84,692.25 -84.15,692.62 -89.33,603.91 -86.16,603.73 -86.16,600.57 127.61,600.57 127.61,603.73 130.77,603.73 130.77,677.98" fill="#FF9800" fill-opacity="0.12" stroke="#FFB74D" stroke-width="0.6"/>
<polygon points="298.22,606.89 184.46,606.89 184.46,606.89 167.74,606.89 167.74,606.89 146.57,606.89 146.57,677.98 140.25,677.98 140.25,603.73 143.41,603.73 143.41,600.57 298.22,600.57 298.22,606.89" fill="#FF9800" fill-opacity="0.12" stroke="#FFB74D" stroke-width="0.6"/>
<polygon points="524.14,589.94 520.96,590.22 520.96,592.67 314.02,592.67 314.02,586.42 309.07,587.39 271.55,395.77 274.66,395.16 274.66,392.04 503.42,392.04 503.42,395.20 506.57,394.91 524.14,589.94" fill="#FF9800" fill-opacity="0.12" stroke="#FFB74D" stroke-width="0.6"/>
<polygon points="140.25,589.51 140.25,395.20 143.41,395.20 143.41,392.04 260.17,392.04 260.17,395.20 263.28,394.59 301.32,588.90 298.22,589.51 298.22,592.67 143.41,592.67 143.41,589.51 140.25,589.51" fill="#FF9800" fill-opacity="0.12" stroke="#FFB74D" stroke-width="0.6"/>
<polygon points="127.61,392.04 127.61,395.20 130.77,395.20 130.77,589.51 127.61,589.51 127.61,592.67 -87.00,592.67 -87.00,589.51 -90.16,589.70 -110.34,243.72 -107.18,243.54 -107.18,240.38 269.65,240.38 269.65,246.70 -103.84,246.70 -102.82,264.08 56.33,264.08 56.33,267.20 59.49,267.20 59.49,371.50 56.33,371.50 56.33,374.66 -96.37,374.66 -95.36,392.04 127.61,392.04" fill="#FF9800" fill-opacity="0.12" stroke="#FFB74D" stroke-width="0.6"/>
<polygon points="269.65,384.14 269.65,377.82 506.60,377.82 506.60,384.14 269.65,384.14" fill="#FF9800" fill-opacity="0.12" stroke="#FFB74D" stroke-width="0.6"/>
<polygon points="214.54,371.50 211.39,371.50 211.39,267.23 214.54,267.23 214.54,264.08 269.65,264.08 269.65,270.39 217.70,270.39 217.70,368.34 260.17,368.34 260.17,374.66 214.54,374.66 214.54,371.50" fill="#FF9800" fill-opacity="0.12" stroke="#FFB74D" stroke-width="0.6"/>
<polygon points="67.39,371.50 67.39,267.20 70.55,267.20 70.55,264.08 205.07,264.08 205.07,267.23 208.23,267.23 208.23,371.50 205.07,371.50 205.07,374.66 70.55,374.66 70.55,371.50 67.39,371.50" fill="#FF9800" fill-opacity="0.12" stroke="#FFB74D" stroke-width="0.6"/>
<polygon points="506.60,254.60 506.60,260.92 269.65,260.92 269.65,254.60 506.60,254.60" fill="#FF9800" fill-opacity="0.12" stroke="#FFB74D" stroke-width="0.6"/>
<polygon points="506.60,240.38 506.60,246.70 269.65,246.70 269.65,240.38 506.60,240.38" fill="#FF9800" fill-opacity="0.12" stroke="#FFB74D" stroke-width="0.6"/>
<polygon points="73.69,-172.85 275.97,-158.95 275.97,-186.30 279.13,-186.30 279.77,-189.39 457.15,-152.70 456.51,-149.60 457.41,-152.63 484.37,-144.62 523.08,-141.96 522.64,-135.66 492.52,-137.73 491.94,-135.78 483.24,-138.36 282.29,-152.18 282.29,39.75 275.97,39.75 275.97,-152.61 73.69,-166.52 73.69,39.75 67.38,39.75 67.38,-166.95 -86.75,-177.55 -128.31,-172.77 -115.09,53.78 -121.40,54.15 -134.79,-175.38 -131.64,-175.56 -132.00,-178.70 -121.37,-179.93 -139.88,-181.20 -126.17,53.78 -132.48,54.15 -146.39,-184.41 -143.24,-184.60 -143.02,-187.75 -86.89,-183.89 51.22,-199.77 51.94,-193.49 -52.28,-181.51 67.38,-173.29 67.38,-197.31 70.53,-197.31 70.68,-200.47 260.32,-191.86 260.03,-185.55 73.69,-194.00 73.69,-172.85" fill="#FF9800" fill-opacity="0.12" stroke="#FFB74D" stroke-width="0.6"/>
<polygon points="492.24,1542.88 492.24,1549.20 389.02,1549.20 389.02,1542.88 492.24,1542.88" fill="#FF9800" fill-opacity="0.12" stroke="#FFB74D" stroke-width="0.6"/>
<polygon points="650.21,1549.20 555.42,1549.20 555.42,1542.88 650.21,1542.88 650.21,1549.20" fill="#FF9800" fill-opacity="0.12" stroke="#FFB74D" stroke-width="0.6"/>
<polygon points="806.31,1542.88 806.31,1549.20 713.39,1549.20 713.39,1542.88 806.31,1542.88" fill="#FF9800" fill-opacity="0.12" stroke="#FFB74D" stroke-width="0.6"/>
<polygon points="389.02,1531.82 492.24,1531.82 492.24,1538.14 389.02,1538.14 389.02,1531.82" fill="#FF9800" fill-opacity="0.12" stroke="#FFB74D" stroke-width="0.6"/>
<polygon points="650.21,1538.14 555.42,1538.14 555.42,1531.82 650.21,1531.82 650.21,1538.14" fill="#FF9800" fill-opacity="0.12" stroke="#FFB74D" stroke-width="0.6"/>
<polygon points="806.31,1531.82 806.31,1538.14 713.39,1538.14 713.39,1531.82 806.31,1531.82" fill="#FF9800" fill-opacity="0.12" stroke="#FFB74D" stroke-width="0.6"/>
<polygon points="515.93,1535.02 515.93,1438.65 370.07,1438.65 370.07,1535.02 363.75,1535.02 363.75,1435.49 366.91,1435.49 366.91,1432.33 519.09,1432.33 519.09,1435.49 522.25,1435.49 522.25,1535.02 515.93,1535.02" fill="#FF9800" fill-opacity="0.12" stroke="#FFB74D" stroke-width="0.6"/>
<polygon points="533.31,1432.33 677.06,1432.33 677.06,1435.49 680.22,1435.49 680.22,1535.02 673.90,1535.02 673.90,1438.65 536.47,1438.65 536.47,1535.02 530.15,1535.02 530.15,1435.49 533.31,1435.49 533.31,1432.33" fill="#FF9800" fill-opacity="0.12" stroke="#FFB74D" stroke-width="0.6"/>
<polygon points="857.44,1531.12 851.12,1531.12 851.12,1438.65 694.44,1438.65 694.44,1535.02 688.12,1535.02 688.12,1435.49 691.28,1435.49 691.28,1432.33 854.28,1432.33 854.28,1435.49 857.44,1435.49 857.44,1531.12" fill="#FF9800" fill-opacity="0.12" stroke="#FFB74D" stroke-width="0.6"/>
<polygon points="363.75,1356.77 363.75,1282.25 370.07,1282.25 370.07,1356.77 515.93,1356.77 515.93,1282.25 522.25,1282.25 522.25,1356.77 530.15,1356.77 530.15,1282.25 536.47,1282.25 536.47,1356.77 673.90,1356.77 673.90,1282.25 680.22,1282.25 680.22,1356.77 688.12,1356.77 688.12,1282.25 694.44,1282.25 694.44,1356.77 851.12,1356.77 851.12,1282.25 857.44,1282.25 857.44,1356.77 865.33,1356.77 865.33,1282.25 868.49,1282.25 868.49,1279.10 1064.38,1279.10 1064.38,1282.25 1067.54,1282.25 1067.54,1424.44 1064.38,1424.44 1064.38,1427.60 868.49,1427.60 868.49,1424.44 865.33,1424.44 865.33,1363.08 857.44,1363.08 857.44,1424.44 854.28,1424.44 854.28,1427.60 691.28,1427.60 691.28,1424.44 688.12,1424.44 688.12,1363.08 680.22,1363.08 680.22,1424.44 677.06,1424.44 677.06,1427.60 533.31,1427.60 533.31,1424.44 530.15,1424.44 530.15,1363.08 522.25,1363.08 522.25,1424.44 519.09,1424.44 519.09,1427.60 366.91,1427.60 366.91,1424.44 363.75,1424.44 363.75,1363.08 355.85,1363.08 355.85,1424.44 352.69,1424.44 352.69,1427.60 179.74,1427.60 179.74,1424.44 176.58,1424.44 176.58,1282.25 182.90,1282.25 182.90,1350.58 186.73,1346.04 191.56,1350.11 185.95,1356.77 349.53,1356.77 349.53,1282.25 355.85,1282.25 355.85,1356.77 363.75,1356.77" fill="#FF9800" fill-opacity="0.12" stroke="#FFB74D" stroke-width="0.6"/>
<polygon points="454.93,1222.22 517.80,1222.22 517.80,1228.54 454.93,1228.54 454.93,1222.22" fill="#FF9800" fill-opacity="0.12" stroke="#FFB74D" stroke-width="0.6"/>
<polygon points="458.09,1212.74 478.62,1212.74 478.62,1219.06 458.09,1219.06 458.09,1212.74" fill="#FF9800" fill-opacity="0.12" stroke="#FFB74D" stroke-width="0.6"/>
<polygon points="767.39,1114.00 773.71,1114.00 773.71,1165.35 767.39,1165.35 767.39,1114.00" fill="#FF9800" fill-opacity="0.12" stroke="#FFB74D" stroke-width="0.6"/>
<polygon points="776.87,1114.00 783.19,1114.00 783.19,1165.35 776.87,1165.35 776.87,1114.00" fill="#FF9800" fill-opacity="0.12" stroke="#FFB74D" stroke-width="0.6"/>
<polygon points="767.39,1025.53 773.71,1025.53 773.71,1102.07 767.39,1102.07 767.39,1025.53" fill="#FF9800" fill-opacity="0.12" stroke="#FFB74D" stroke-width="0.6"/>
<polygon points="776.87,1025.53 783.19,1025.53 783.19,1102.07 776.87,1102.07 776.87,1025.53" fill="#FF9800" fill-opacity="0.12" stroke="#FFB74D" stroke-width="0.6"/>
<polygon points="561.40,1022.37 561.40,1028.69 471.35,1028.69 471.35,1022.37 561.40,1022.37" fill="#FF9800" fill-opacity="0.12" stroke="#FFB74D" stroke-width="0.6"/>
<polygon points="574.04,1022.37 663.45,1022.37 663.45,1028.69 574.04,1028.69 574.04,1022.37" fill="#FF9800" fill-opacity="0.12" stroke="#FFB74D" stroke-width="0.6"/>
<polygon points="471.35,1009.74 561.40,1009.74 561.40,1016.05 471.35,1016.05 471.35,1009.74" fill="#FF9800" fill-opacity="0.12" stroke="#FFB74D" stroke-width="0.6"/>
<polygon points="664.08,1009.74 664.08,1016.05 574.04,1016.05 574.04,1009.74 664.08,1009.74" fill="#FF9800" fill-opacity="0.12" stroke="#FFB74D" stroke-width="0.6"/>
<polygon points="759.49,908.31 771.18,908.31 771.18,914.63 762.65,914.63 762.65,940.22 756.33,940.22 756.33,911.47 759.49,911.47 759.49,908.31" fill="#FF9800" fill-opacity="0.12" stroke="#FFB74D" stroke-width="0.6"/>
<polygon points="679.56,899.15 449.87,899.15 449.87,937.06 443.55,937.06 443.55,895.99 446.71,895.99 446.71,892.83 679.56,892.83 679.56,899.15" fill="#FF9800" fill-opacity="0.12" stroke="#FFB74D" stroke-width="0.6"/>
<polygon points="753.18,940.22 746.86,940.22 746.86,859.34 753.18,859.34 753.18,940.22" fill="#FF9800" fill-opacity="0.12" stroke="#FFB74D" stroke-width="0.6"/>
<polygon points="636.28,883.35 679.56,883.35 679.56,889.67 636.28,889.67 636.28,883.35" fill="#FF9800" fill-opacity="0.12" stroke="#FFB74D" stroke-width="0.6"/>
<polygon points="756.33,901.99 756.33,859.34 762.65,859.34 762.65,898.83 771.18,898.83 771.18,905.15 759.49,905.15 759.49,901.99 756.33,901.99" fill="#FF9800" fill-opacity="0.12" stroke="#FFB74D" stroke-width="0.6"/>
<polygon points="626.80,877.03 626.80,883.35 536.75,883.35 536.75,877.03 626.80,877.03" fill="#FF9800" fill-opacity="0.12" stroke="#FFB74D" stroke-width="0.6"/>
<polygon points="692.20,849.86 743.70,849.86 743.70,856.18 743.70,862.50 692.20,862.50 692.20,856.18 692.20,849.86" fill="#FF9800" fill-opacity="0.12" stroke="#FFB74D" stroke-width="0.6"/>
<polygon points="806.88,821.74 759.49,821.74 759.49,815.42 806.88,815.42 806.88,821.74" fill="#FF9800" fill-opacity="0.12" stroke="#FFB74D" stroke-width="0.6"/>
<polygon points="626.80,817.00 536.75,817.00 536.75,810.68 626.80,810.68 626.80,817.00" fill="#FF9800" fill-opacity="0.12" stroke="#FFB74D" stroke-width="0.6"/>
<polygon points="759.49,802.78 806.88,802.78 806.88,809.10 759.49,809.10 759.49,802.78" fill="#FF9800" fill-opacity="0.12" stroke="#FFB74D" stroke-width="0.6"/>
<polygon points="536.75,801.20 536.75,794.88 626.80,794.88 626.80,801.20 536.75,801.20" fill="#FF9800" fill-opacity="0.12" stroke="#FFB74D" stroke-width="0.6"/>
<polygon points="743.70,606.89 536.75,606.89 536.75,600.57 743.70,600.57 743.70,606.89" fill="#FF9800" fill-opacity="0.12" stroke="#FFB74D" stroke-width="0.6"/>
<polygon points="520.96,600.57 520.96,606.89 314.02,606.89 314.02,600.57 520.96,600.57" fill="#FF9800" fill-opacity="0.12" stroke="#FFB74D" stroke-width="0.6"/>
<polygon points="759.49,592.67 759.49,586.35 850.45,586.35 792.26,398.36 522.74,398.36 539.67,586.35 743.70,586.35 743.70,592.67 536.75,592.67 536.75,588.80 533.58,589.09 516.13,395.44 519.28,395.16 519.28,392.04 794.58,392.04 794.58,395.20 797.60,394.26 858.40,590.68 855.00,591.73 855.00,592.67 759.49,592.67" fill="#FF9800" fill-opacity="0.12" stroke="#FFB74D" stroke-width="0.6"/>
<polygon points="805.96,257.76 809.12,257.76 809.12,254.60 1041.34,254.60 1041.34,257.76 1044.50,257.76 1044.50,380.98 1041.34,380.98 1041.34,384.14 809.12,384.14 809.12,380.98 805.96,380.98 805.96,379.40 797.26,379.40 797.26,376.24 794.91,376.24 794.91,379.40 568.09,379.40 568.09,376.24 564.93,376.24 564.93,262.50 568.09,262.50 568.09,259.34 794.91,259.34 794.91,262.50 798.07,262.50 798.07,373.08 805.96,373.08 805.96,257.76" fill="#FF9800" fill-opacity="0.12" stroke="#FFB74D" stroke-width="0.6"/>
<polygon points="555.46,265.65 516.09,265.65 516.09,259.34 558.62,259.34 558.62,262.50 561.78,262.50 561.78,376.24 558.62,376.24 558.62,379.40 516.09,379.40 516.09,373.08 555.46,373.08 555.46,265.65" fill="#FF9800" fill-opacity="0.12" stroke="#FFB74D" stroke-width="0.6"/>
<polygon points="797.28,240.38 797.28,246.70 516.09,246.70 516.09,240.38 797.28,240.38" fill="#FF9800" fill-opacity="0.12" stroke="#FFB74D" stroke-width="0.6"/>
<polygon points="854.95,37.12 851.44,42.37 793.26,3.48 660.37,-69.69 663.42,-75.22 792.41,-4.21 685.50,-69.76 688.80,-75.15 884.13,44.63 880.83,50.02 801.24,1.21 854.95,37.12" fill="#FF9800" fill-opacity="0.12" stroke="#FFB74D" stroke-width="0.6"/>
<polygon points="870.61,1535.03 1067.36,1483.87 1068.95,1489.99 872.20,1541.15 870.61,1535.03" fill="#FF9800" fill-opacity="0.12" stroke="#FFB74D" stroke-width="0.6"/>
<polygon points="868.49,1527.42 865.33,1527.42 865.33,1435.49 868.49,1435.49 868.49,1432.33 1064.38,1432.33 1064.38,1435.49 1067.54,1435.49 1067.54,1476.49 1064.38,1476.49 1065.17,1479.55 869.29,1530.48 868.49,1527.42" fill="#FF9800" fill-opacity="0.12" stroke="#FFB74D" stroke-width="0.6"/>
<polygon points="1126.84,1462.34 1192.78,1446.59 1194.24,1452.74 1128.30,1468.49 1126.84,1462.34" fill="#FF9800" fill-opacity="0.12" stroke="#FFB74D" stroke-width="0.6"/>
<polygon points="1190.21,1435.84 1191.68,1441.98 1125.74,1457.73 1124.27,1451.59 1190.21,1435.84" fill="#FF9800" fill-opacity="0.12" stroke="#FFB74D" stroke-width="0.6"/>
<polygon points="1254.67,1425.47 1361.03,1421.25 1361.28,1427.56 1254.92,1431.79 1254.67,1425.47" fill="#FF9800" fill-opacity="0.12" stroke="#FFB74D" stroke-width="0.6"/>
<polygon points="1417.26,1353.48 1419.67,1355.52 1409.68,1367.37 1404.85,1363.29 1410.57,1356.50 1081.75,1356.50 1081.75,1471.39 1075.44,1471.39 1075.44,1356.50 1069.92,1356.50 1069.92,1350.19 1075.44,1350.19 1075.44,1282.25 1081.75,1282.25 1081.75,1350.19 1410.35,1350.19 1404.85,1343.67 1409.68,1339.59 1419.67,1351.44 1417.26,1353.48" fill="#FF9800" fill-opacity="0.12" stroke="#FFB74D" stroke-width="0.6"/>
<polygon points="1064.38,1271.20 868.49,1271.20 868.49,1264.88 1064.38,1264.88 1064.38,1271.20" fill="#FF9800" fill-opacity="0.12" stroke="#FFB74D" stroke-width="0.6"/>
<polygon points="798.99,1171.67 836.90,1171.67 836.90,1177.99 798.99,1177.99 798.99,1171.67" fill="#FF9800" fill-opacity="0.12" stroke="#FFB74D" stroke-width="0.6"/>
<polygon points="1133.88,1177.99 1095.97,1177.99 1095.97,1171.67 1133.88,1171.67 1133.88,1177.99" fill="#FF9800" fill-opacity="0.12" stroke="#FFB74D" stroke-width="0.6"/>
<polygon points="836.90,1162.19 836.90,1168.51 798.99,1168.51 798.99,1162.19 836.90,1162.19" fill="#FF9800" fill-opacity="0.12" stroke="#FFB74D" stroke-width="0.6"/>
<polygon points="1095.97,1168.51 1095.97,1162.19 1133.88,1162.19 1133.88,1168.51 1095.97,1168.51" fill="#FF9800" fill-opacity="0.12" stroke="#FFB74D" stroke-width="0.6"/>
<polygon points="1149.68,1114.00 1156.00,1114.00 1156.00,1165.35 1149.68,1165.35 1149.68,1114.00" fill="#FF9800" fill-opacity="0.12" stroke="#FFB74D" stroke-width="0.6"/>
<polygon points="1159.16,1165.35 1159.16,1114.00 1165.48,1114.00 1165.48,1165.35 1159.16,1165.35" fill="#FF9800" fill-opacity="0.12" stroke="#FFB74D" stroke-width="0.6"/>
<polygon points="1149.68,1102.07 1149.68,1025.53 1156.00,1025.53 1156.00,1102.07 1149.68,1102.07" fill="#FF9800" fill-opacity="0.12" stroke="#FFB74D" stroke-width="0.6"/>
<polygon points="1159.16,1025.53 1165.48,1025.53 1165.48,1102.07 1159.16,1102.07 1159.16,1025.53" fill="#FF9800" fill-opacity="0.12" stroke="#FFB74D" stroke-width="0.6"/>
<polygon points="852.70,1028.69 783.19,1028.69 783.19,1022.37 852.70,1022.37 852.70,1028.69" fill="#FF9800" fill-opacity="0.12" stroke="#FFB74D" stroke-width="0.6"/>
<polygon points="1080.18,1028.69 1080.18,1022.37 1149.68,1022.37 1149.68,1028.69 1080.18,1028.69" fill="#FF9800" fill-opacity="0.12" stroke="#FFB74D" stroke-width="0.6"/>
<polygon points="857.44,1012.89 852.70,1012.89 852.70,1016.05 783.19,1016.05 783.19,1009.74 851.12,1009.74 851.12,949.70 857.44,949.70 857.44,1012.89" fill="#FF9800" fill-opacity="0.12" stroke="#FFB74D" stroke-width="0.6"/>
<polygon points="1075.44,949.70 1081.75,949.70 1081.75,1009.74 1149.68,1009.74 1149.68,1016.05 1080.18,1016.05 1080.18,1012.89 1075.44,1012.89 1075.44,949.70" fill="#FF9800" fill-opacity="0.12" stroke="#FFB74D" stroke-width="0.6"/>
<polygon points="865.33,1012.89 865.33,949.70 868.49,949.70 868.49,946.54 963.50,946.54 963.50,938.64 868.49,938.64 868.49,932.33 963.50,932.33 963.50,714.31 868.49,714.31 868.49,708.00 963.50,708.00 963.50,700.10 868.49,700.10 868.49,693.78 963.50,693.78 963.50,668.98 956.85,674.59 952.78,669.76 964.63,659.77 966.66,662.18 968.70,659.77 980.55,669.76 976.47,674.59 969.82,668.98 969.82,693.78 1064.38,693.78 1064.38,700.10 969.82,700.10 969.82,708.00 1064.38,708.00 1064.38,714.31 969.82,714.31 969.82,932.33 1064.38,932.33 1064.38,938.64 969.82,938.64 969.82,946.54 1064.38,946.54 1064.38,949.70 1067.54,949.70 1067.54,1012.89 1064.38,1012.89 1064.38,1016.05 969.82,1016.05 969.82,1023.95 1064.38,1023.95 1064.38,1030.27 969.82,1030.27 969.82,1258.12 963.50,1258.12 963.50,1030.27 868.49,1030.27 868.49,1023.95 963.50,1023.95 963.50,1016.05 868.49,1016.05 868.49,1012.89 865.33,1012.89" fill="#FF9800" fill-opacity="0.12" stroke="#FFB74D" stroke-width="0.6"/>
<polygon points="780.66,930.74 783.82,930.74 783.82,927.58 855.86,927.58 855.86,930.74 859.02,930.74 859.02,937.06 855.86,937.06 855.86,940.22 783.82,940.22 783.82,937.06 780.66,937.06 780.66,930.74" fill="#FF9800" fill-opacity="0.12" stroke="#FFB74D" stroke-width="0.6"/>
<polygon points="1077.02,937.06 1073.86,937.06 1073.86,930.74 1077.02,930.74 1077.02,927.58 1149.05,927.58 1149.05,930.74 1152.21,930.74 1152.21,937.06 1149.05,937.06 1149.05,940.22 1077.02,940.22 1077.02,937.06" fill="#FF9800" fill-opacity="0.12" stroke="#FFB74D" stroke-width="0.6"/>
<polygon points="1176.54,940.22 1170.22,940.22 1170.22,914.63 1161.69,914.63 1161.69,908.31 1173.38,908.31 1173.38,911.47 1176.54,911.47 1176.54,940.22" fill="#FF9800" fill-opacity="0.12" stroke="#FFB74D" stroke-width="0.6"/>
<polygon points="1186.02,940.22 1179.70,940.22 1179.70,859.34 1186.02,859.34 1186.02,940.22" fill="#FF9800" fill-opacity="0.12" stroke="#FFB74D" stroke-width="0.6"/>
<polygon points="1253.31,883.35 1296.59,883.35 1296.59,889.67 1253.31,889.67 1253.31,883.35" fill="#FF9800" fill-opacity="0.12" stroke="#FFB74D" stroke-width="0.6"/>
<polygon points="1173.38,905.15 1161.69,905.15 1161.69,898.83 1170.22,898.83 1170.22,859.34 1176.54,859.34 1176.54,901.99 1173.38,901.99 1173.38,905.15" fill="#FF9800" fill-opacity="0.12" stroke="#FFB74D" stroke-width="0.6"/>
<polygon points="1189.17,862.50 1189.17,856.18 1189.17,849.86 1240.67,849.86 1240.67,856.18 1240.67,862.50 1189.17,862.50" fill="#FF9800" fill-opacity="0.12" stroke="#FFB74D" stroke-width="0.6"/>
<polygon points="1173.38,815.42 1173.38,821.74 1125.99,821.74 1125.99,815.42 1173.38,815.42" fill="#FF9800" fill-opacity="0.12" stroke="#FFB74D" stroke-width="0.6"/>
<polygon points="1173.38,802.78 1173.38,809.10 1125.99,809.10 1125.99,802.78 1173.38,802.78" fill="#FF9800" fill-opacity="0.12" stroke="#FFB74D" stroke-width="0.6"/>
<polygon points="855.86,600.57 855.86,606.89 759.49,606.89 759.49,600.57 855.86,600.57" fill="#FF9800" fill-opacity="0.12" stroke="#FFB74D" stroke-width="0.6"/>
<polygon points="1173.38,606.89 1077.02,606.89 1077.02,600.57 1173.38,600.57 1173.38,606.89" fill="#FF9800" fill-opacity="0.12" stroke="#FFB74D" stroke-width="0.6"/>
<polygon points="1396.12,600.57 1396.12,606.89 1189.18,606.89 1189.18,600.57 1396.12,600.57" fill="#FF9800" fill-opacity="0.12" stroke="#FFB74D" stroke-width="0.6"/>
<polygon points="868.49,606.89 868.49,600.57 1064.38,600.57 1064.38,606.89 868.49,606.89" fill="#FF9800" fill-opacity="0.12" stroke="#FFB74D" stroke-width="0.6"/>
<polygon points="1077.02,588.79 1075.40,588.97 1053.26,395.52 1056.40,395.16 1056.40,392.04 1173.14,392.04 1173.14,395.20 1176.30,395.19 1176.54,589.51 1173.38,589.51 1173.38,592.67 1077.02,592.67 1077.02,588.79" fill="#FF9800" fill-opacity="0.12" stroke="#FFB74D" stroke-width="0.6"/>
<polygon points="869.35,587.29 865.95,588.34 806.45,396.13 809.47,395.20 809.47,392.04 1040.50,392.04 1040.50,395.20 1043.64,394.84 1065.99,590.05 1064.38,590.23 1064.38,592.67 869.35,592.67 869.35,587.29" fill="#FF9800" fill-opacity="0.12" stroke="#FFB74D" stroke-width="0.6"/>
<polygon points="1189.18,589.51 1186.02,589.52 1185.78,395.20 1188.94,395.20 1188.94,392.04 1395.73,392.04 1395.73,395.20 1398.89,395.19 1399.28,589.50 1396.12,589.51 1396.12,592.67 1189.18,592.67 1189.18,589.51" fill="#FF9800" fill-opacity="0.12" stroke="#FFB74D" stroke-width="0.6"/>
<polygon points="1395.65,359.25 1398.81,359.25 1398.86,380.97 1395.70,380.98 1395.70,384.14 1055.56,384.14 1055.56,380.98 1052.40,380.98 1052.40,257.76 1055.56,257.76 1055.56,254.60 1186.74,254.60 1186.74,257.76 1188.12,254.91 1397.03,356.41 1395.65,359.25" fill="#FF9800" fill-opacity="0.12" stroke="#FFB74D" stroke-width="0.6"/>
<polygon points="806.75,240.38 1043.70,240.38 1043.70,246.70 806.75,246.70 806.75,240.38" fill="#FF9800" fill-opacity="0.12" stroke="#FFB74D" stroke-width="0.6"/>
<polygon points="1361.47,1432.30 1361.72,1438.61 1255.36,1442.84 1255.11,1436.52 1361.47,1432.30" fill="#FF9800" fill-opacity="0.12" stroke="#FFB74D" stroke-width="0.6"/>
<polygon points="1570.69,1438.62 1570.69,1432.30 1742.40,1432.30 1742.40,1438.62 1570.69,1438.62" fill="#FF9800" fill-opacity="0.12" stroke="#FFB74D" stroke-width="0.6"/>
<polygon points="1507.50,1432.30 1507.50,1438.62 1424.56,1438.62 1424.56,1432.30 1507.50,1432.30" fill="#FF9800" fill-opacity="0.12" stroke="#FFB74D" stroke-width="0.6"/>
<polygon points="1742.40,1427.56 1570.69,1427.56 1570.69,1421.24 1742.40,1421.24 1742.40,1427.56" fill="#FF9800" fill-opacity="0.12" stroke="#FFB74D" stroke-width="0.6"/>
<polygon points="1507.50,1421.24 1507.50,1427.56 1424.56,1427.56 1424.56,1421.24 1507.50,1421.24" fill="#FF9800" fill-opacity="0.12" stroke="#FFB74D" stroke-width="0.6"/>
<polygon points="1774.81,1363.29 1780.53,1356.50 1439.87,1356.50 1439.87,1350.19 1780.30,1350.19 1774.81,1343.67 1779.63,1339.59 1787.88,1349.37 1787.88,1282.25 1794.20,1282.25 1794.20,1424.40 1787.88,1424.40 1787.88,1357.59 1779.63,1367.37 1774.81,1363.29" fill="#FF9800" fill-opacity="0.12" stroke="#FFB74D" stroke-width="0.6"/>
<polygon points="1805.26,1264.88 1944.29,1264.88 1944.29,1166.13 1950.61,1166.13 1950.61,1430.62 1947.93,1430.62 1948.03,1433.77 1805.70,1438.62 1805.48,1432.30 1944.29,1427.58 1944.29,1422.84 1805.32,1427.56 1805.21,1424.40 1802.10,1424.40 1802.10,1282.25 1805.26,1282.25 1805.26,1279.10 1944.29,1279.10 1944.29,1271.20 1805.26,1271.20 1805.26,1264.88" fill="#FF9800" fill-opacity="0.12" stroke="#FFB74D" stroke-width="0.6"/>
<polygon points="1477.94,1228.54 1415.07,1228.54 1415.07,1222.22 1477.94,1222.22 1477.94,1228.54" fill="#FF9800" fill-opacity="0.12" stroke="#FFB74D" stroke-width="0.6"/>
<polygon points="1474.78,1219.06 1454.25,1219.06 1454.25,1212.74 1474.78,1212.74 1474.78,1219.06" fill="#FF9800" fill-opacity="0.12" stroke="#FFB74D" stroke-width="0.6"/>
<polygon points="1666.38,1155.08 1666.38,1190.70 1660.06,1190.70 1660.06,1155.08 1666.38,1155.08" fill="#FF9800" fill-opacity="0.12" stroke="#FFB74D" stroke-width="0.6"/>
<polygon points="1679.02,1155.08 1679.02,1190.70 1672.70,1190.70 1672.70,1155.08 1679.02,1155.08" fill="#FF9800" fill-opacity="0.12" stroke="#FFB74D" stroke-width="0.6"/>
<polygon points="1944.29,1151.92 1944.29,1023.95 1950.61,1023.95 1950.61,1151.92 1944.29,1151.92" fill="#FF9800" fill-opacity="0.12" stroke="#FFB74D" stroke-width="0.6"/>
<polygon points="1558.96,1028.69 1474.15,1028.69 1474.15,1022.37 1558.96,1022.37 1558.96,1028.69" fill="#FF9800" fill-opacity="0.12" stroke="#FFB74D" stroke-width="0.6"/>
<polygon points="1371.47,1028.69 1371.47,1022.37 1461.52,1022.37 1461.52,1028.69 1371.47,1028.69" fill="#FF9800" fill-opacity="0.12" stroke="#FFB74D" stroke-width="0.6"/>
<polygon points="1268.79,1028.69 1268.79,1022.37 1358.84,1022.37 1358.84,1028.69 1268.79,1028.69" fill="#FF9800" fill-opacity="0.12" stroke="#FFB74D" stroke-width="0.6"/>
<polygon points="1571.60,1028.69 1571.60,1022.37 1625.17,1022.37 1625.17,1028.69 1571.60,1028.69" fill="#FF9800" fill-opacity="0.12" stroke="#FFB74D" stroke-width="0.6"/>
<polygon points="1268.79,1016.05 1268.79,1009.74 1358.84,1009.74 1358.84,1016.05 1268.79,1016.05" fill="#FF9800" fill-opacity="0.12" stroke="#FFB74D" stroke-width="0.6"/>
<polygon points="1461.52,1016.05 1371.47,1016.05 1371.47,1009.74 1461.52,1009.74 1461.52,1016.05" fill="#FF9800" fill-opacity="0.12" stroke="#FFB74D" stroke-width="0.6"/>
<polygon points="1565.28,949.70 1565.28,1012.89 1558.96,1012.89 1558.96,1016.05 1474.15,1016.05 1474.15,1009.74 1558.96,1009.74 1558.96,949.70 1565.28,949.70" fill="#FF9800" fill-opacity="0.12" stroke="#FFB74D" stroke-width="0.6"/>
<polygon points="1571.60,1016.05 1571.60,1012.89 1568.44,1012.89 1568.44,949.70 1574.76,949.70 1574.76,1009.74 1621.63,1009.74 1620.44,950.02 1626.76,949.89 1628.02,1013.08 1625.17,1013.14 1625.17,1016.05 1571.60,1016.05" fill="#FF9800" fill-opacity="0.12" stroke="#FFB74D" stroke-width="0.6"/>
<polygon points="1639.39,949.64 1640.65,1012.83 1634.34,1012.96 1633.07,949.77 1639.39,949.64" fill="#FF9800" fill-opacity="0.12" stroke="#FFB74D" stroke-width="0.6"/>
<polygon points="1498.80,937.06 1498.80,895.99 1501.96,895.99 1501.96,892.83 1618.86,892.83 1618.86,899.15 1505.12,899.15 1505.12,937.06 1498.80,937.06" fill="#FF9800" fill-opacity="0.12" stroke="#FFB74D" stroke-width="0.6"/>
<polygon points="1486.16,895.99 1489.32,895.99 1489.32,937.06 1483.00,937.06 1483.00,899.15 1253.31,899.15 1253.31,892.83 1486.16,892.83 1486.16,895.99" fill="#FF9800" fill-opacity="0.12" stroke="#FFB74D" stroke-width="0.6"/>
<polygon points="1789.46,892.83 1789.46,899.15 1634.65,899.15 1634.65,892.83 1789.46,892.83" fill="#FF9800" fill-opacity="0.12" stroke="#FFB74D" stroke-width="0.6"/>
<polygon points="1306.07,883.35 1306.07,877.03 1396.12,877.03 1396.12,883.35 1306.07,883.35" fill="#FF9800" fill-opacity="0.12" stroke="#FFB74D" stroke-width="0.6"/>
<polygon points="1411.91,883.35 1411.91,877.03 1618.86,877.03 1618.86,883.35 1411.91,883.35" fill="#FF9800" fill-opacity="0.12" stroke="#FFB74D" stroke-width="0.6"/>
<polygon points="1789.46,877.03 1789.46,883.35 1634.65,883.35 1634.65,877.03 1789.46,877.03" fill="#FF9800" fill-opacity="0.12" stroke="#FFB74D" stroke-width="0.6"/>
<polygon points="1955.35,1430.62 1955.35,523.38 1183.20,246.70 1053.19,246.70 1053.19,240.38 1183.66,240.38 1183.66,243.55 1184.74,240.54 1959.57,518.18 1958.51,521.16 1961.67,521.16 1961.67,1430.62 1955.35,1430.62" fill="#FF9800" fill-opacity="0.12" stroke="#FFB74D" stroke-width="0.6"/>
<polygon points="1396.12,817.00 1307.65,817.00 1307.65,810.68 1396.12,810.68 1396.12,817.00" fill="#FF9800" fill-opacity="0.12" stroke="#FFB74D" stroke-width="0.6"/>
<polygon points="1396.12,794.88 1396.12,801.20 1307.65,801.20 1307.65,794.88 1396.12,794.88" fill="#FF9800" fill-opacity="0.12" stroke="#FFB74D" stroke-width="0.6"/>
<polygon points="1950.61,1009.74 1944.29,1009.74 1944.29,714.31 1885.90,714.31 1891.14,718.74 1887.07,723.57 1880.41,717.95 1880.41,898.11 1874.10,898.11 1874.10,717.95 1867.44,723.57 1863.37,718.74 1868.61,714.31 1805.26,714.31 1805.26,711.15 1802.10,711.15 1802.10,498.55 1805.26,498.55 1805.95,495.47 1948.58,527.29 1947.89,530.37 1950.61,530.37 1950.61,1009.74" fill="#FF9800" fill-opacity="0.12" stroke="#FFB74D" stroke-width="0.6"/>
<polygon points="1791.05,600.57 1791.05,603.73 1794.21,603.73 1794.21,677.98 1787.89,677.98 1787.89,606.89 1634.65,606.89 1634.65,600.57 1791.05,600.57" fill="#FF9800" fill-opacity="0.12" stroke="#FFB74D" stroke-width="0.6"/>
<polygon points="1411.91,606.89 1411.91,600.57 1618.86,600.57 1618.86,606.89 1411.91,606.89" fill="#FF9800" fill-opacity="0.12" stroke="#FFB74D" stroke-width="0.6"/>
<polygon points="1794.21,589.51 1789.46,589.51 1789.46,592.67 1634.65,592.67 1634.65,589.51 1631.49,589.52 1631.21,449.40 1634.37,449.40 1635.25,446.36 1791.93,491.90 1791.05,494.93 1794.21,494.93 1794.21,589.51" fill="#FF9800" fill-opacity="0.12" stroke="#FFB74D" stroke-width="0.6"/>
<polygon points="1408.30,366.05 1411.46,366.04 1412.58,363.09 1619.68,441.27 1618.56,444.22 1621.72,444.22 1622.01,589.50 1618.86,589.51 1618.86,592.67 1411.91,592.67 1411.91,589.51 1408.75,589.52 1408.36,395.20 1411.52,395.20 1411.52,392.04 1471.38,392.04 1447.28,382.94 1447.28,384.14 1411.49,384.14 1411.49,380.98 1408.33,380.99 1408.30,366.05" fill="#FF9800" fill-opacity="0.12" stroke="#FFB74D" stroke-width="0.6"/>
<polygon class="slab-poly" data-slab-id="SLAB-001" points="866.76,52.22 1039.60,52.22 1043.08,52.22 1080.33,52.22 1080.33,245.28 1043.08,245.28 1039.60,245.28 866.76,245.28 866.76,52.22" fill="#2196F3" fill-opacity="0.45" stroke="#2196F3" stroke-width="0.8"/>
<text x="973.5" y="148.7" fill="#fff" font-size="9" text-anchor="middle" dominant-baseline="middle" font-family="Segoe UI, sans-serif" paint-order="stroke" stroke="#000" stroke-width="2" pointer-events="none">SLAB-001</text>
<polygon class="slab-poly" data-slab-id="SLAB-002" points="748.28,52.22 773.55,52.22 777.03,52.22 856.01,52.22 856.01,245.28 777.03,245.28 773.55,245.28 748.28,245.28 748.28,52.22" fill="#2196F3" fill-opacity="0.45" stroke="#2196F3" stroke-width="0.8"/>
<text x="802.1" y="148.7" fill="#fff" font-size="9" text-anchor="middle" dominant-baseline="middle" font-family="Segoe UI, sans-serif" paint-order="stroke" stroke="#000" stroke-width="2" pointer-events="none">SLAB-002</text>
<polygon class="slab-poly" data-slab-id="SLAB-003" points="689.54,245.28 689.54,52.22 751.75,52.22 751.75,245.28 689.54,245.28" fill="#2196F3" fill-opacity="0.45" stroke="#2196F3" stroke-width="0.8"/>
<text x="720.6" y="148.7" fill="#fff" font-size="9" text-anchor="middle" dominant-baseline="middle" font-family="Segoe UI, sans-serif" paint-order="stroke" stroke="#000" stroke-width="2" pointer-events="none">SLAB-003</text>
<polygon class="slab-poly" data-slab-id="SLAB-004" points="517.35,245.28 517.35,52.22 565.09,52.22 565.09,245.28 517.35,245.28" fill="#2196F3" fill-opacity="0.45" stroke="#2196F3" stroke-width="0.8"/>
<polygon class="slab-poly" data-slab-id="SLAB-005" points="360.13,245.28 360.13,52.22 520.83,52.22 520.83,245.28 360.13,245.28" fill="#2196F3" fill-opacity="0.45" stroke="#2196F3" stroke-width="0.8"/>
<text x="440.5" y="148.7" fill="#fff" font-size="9" text-anchor="middle" dominant-baseline="middle" font-family="Segoe UI, sans-serif" paint-order="stroke" stroke="#000" stroke-width="2" pointer-events="none">SLAB-005</text>
<polygon class="slab-poly" data-slab-id="SLAB-006" points="258.44,245.28 258.44,52.22 363.61,52.22 363.61,245.28 258.44,245.28" fill="#2196F3" fill-opacity="0.45" stroke="#2196F3" stroke-width="0.8"/>
<text x="311.0" y="148.7" fill="#fff" font-size="9" text-anchor="middle" dominant-baseline="middle" font-family="Segoe UI, sans-serif" paint-order="stroke" stroke="#000" stroke-width="2" pointer-events="none">SLAB-006</text>
<polygon class="slab-poly" data-slab-id="SLAB-007" points="178.00,245.28 178.00,52.22 261.91,52.22 261.91,245.28 178.00,245.28" fill="#2196F3" fill-opacity="0.45" stroke="#2196F3" stroke-width="0.8"/>
<text x="220.0" y="148.7" fill="#fff" font-size="9" text-anchor="middle" dominant-baseline="middle" font-family="Segoe UI, sans-serif" paint-order="stroke" stroke="#000" stroke-width="2" pointer-events="none">SLAB-007</text>
<polygon class="slab-poly" data-slab-id="SLAB-008" points="125.87,245.28 125.87,52.22 181.48,52.22 181.48,245.28 125.87,245.28" fill="#2196F3" fill-opacity="0.45" stroke="#2196F3" stroke-width="0.8"/>
<polygon class="slab-poly" data-slab-id="SLAB-009" points="52.22,245.28 52.22,52.22 129.35,52.22 129.35,245.28 52.22,245.28" fill="#2196F3" fill-opacity="0.45" stroke="#2196F3" stroke-width="0.8"/>
<text x="90.8" y="148.7" fill="#fff" font-size="9" text-anchor="middle" dominant-baseline="middle" font-family="Segoe UI, sans-serif" paint-order="stroke" stroke="#000" stroke-width="2" pointer-events="none">SLAB-009</text>
<polygon class="slab-poly" data-slab-id="SLAB-010" points="1409.98,245.28 1409.98,52.22 1565.12,52.22 1568.60,52.22 1632.77,52.22 1636.25,52.22 1792.78,52.22 1792.78,245.28 1636.25,245.28 1632.77,245.28 1620.45,245.28 1620.45,396.94 1565.12,396.94 1565.12,245.28 1409.98,245.28" fill="#2196F3" fill-opacity="0.45" stroke="#2196F3" stroke-width="0.8"/>
<text x="1600.5" y="166.3" fill="#fff" font-size="9" text-anchor="middle" dominant-baseline="middle" font-family="Segoe UI, sans-serif" paint-order="stroke" stroke="#000" stroke-width="2" pointer-events="none">SLAB-010</text>
<polygon class="slab-poly" data-slab-id="SLAB-011" points="1397.66,245.28 1397.66,396.94 1184.22,396.94 1184.22,245.28 1159.32,245.28 1155.84,245.28 1076.86,245.28 1076.86,52.22 1155.84,52.22 1159.32,52.22 1184.22,52.22 1187.69,52.22 1397.66,52.22 1397.66,241.80 1397.66,245.28" fill="#2196F3" fill-opacity="0.45" stroke="#2196F3" stroke-width="0.8"/>
<text x="1255.7" y="207.9" fill="#fff" font-size="9" text-anchor="middle" dominant-baseline="middle" font-family="Segoe UI, sans-serif" paint-order="stroke" stroke="#000" stroke-width="2" pointer-events="none">SLAB-011</text>
<polygon class="slab-poly" data-slab-id="SLAB-012" points="561.62,241.80 561.62,52.22 678.80,52.22 678.80,241.80 678.80,245.28 678.80,259.97 678.80,378.77 678.80,396.94 517.35,396.94 517.35,241.80 561.62,241.80" fill="#2196F3" fill-opacity="0.45" stroke="#2196F3" stroke-width="0.8"/>
<text x="608.5" y="238.4" fill="#fff" font-size="9" text-anchor="middle" dominant-baseline="middle" font-family="Segoe UI, sans-serif" paint-order="stroke" stroke="#000" stroke-width="2" pointer-events="none">SLAB-012</text>
<polygon class="slab-poly" data-slab-id="SLAB-013" points="1632.77,396.94 1632.77,241.80 1792.78,241.80 1792.78,396.94 1632.77,396.94" fill="#2196F3" fill-opacity="0.45" stroke="#2196F3" stroke-width="0.8"/>
<text x="1712.8" y="319.4" fill="#fff" font-size="9" text-anchor="middle" dominant-baseline="middle" font-family="Segoe UI, sans-serif" paint-order="stroke" stroke="#000" stroke-width="2" pointer-events="none">SLAB-013</text>
<polygon class="slab-poly" data-slab-id="SLAB-014" points="1409.98,396.94 1409.98,241.80 1568.60,241.80 1568.60,396.94 1409.98,396.94" fill="#2196F3" fill-opacity="0.45" stroke="#2196F3" stroke-width="0.8"/>
<text x="1489.3" y="319.4" fill="#fff" font-size="9" text-anchor="middle" dominant-baseline="middle" font-family="Segoe UI, sans-serif" paint-order="stroke" stroke="#000" stroke-width="2" pointer-events="none">SLAB-014</text>
<polygon class="slab-poly" data-slab-id="SLAB-015" points="1039.60,396.94 1039.60,241.80 1159.32,241.80 1159.32,396.94 1039.60,396.94" fill="#2196F3" fill-opacity="0.45" stroke="#2196F3" stroke-width="0.8"/>
<text x="1099.5" y="319.4" fill="#fff" font-size="9" text-anchor="middle" dominant-baseline="middle" font-family="Segoe UI, sans-serif" paint-order="stroke" stroke="#000" stroke-width="2" pointer-events="none">SLAB-015</text>
<polygon class="slab-poly" data-slab-id="SLAB-016" points="866.76,396.94 866.76,241.80 1043.08,241.80 1043.08,396.94 866.76,396.94" fill="#2196F3" fill-opacity="0.45" stroke="#2196F3" stroke-width="0.8"/>
<text x="954.9" y="319.4" fill="#fff" font-size="9" text-anchor="middle" dominant-baseline="middle" font-family="Segoe UI, sans-serif" paint-order="stroke" stroke="#000" stroke-width="2" pointer-events="none">SLAB-016</text>
<polygon class="slab-poly" data-slab-id="SLAB-017" points="689.54,396.94 689.54,241.80 777.03,241.80 777.03,396.94 689.54,396.94" fill="#2196F3" fill-opacity="0.45" stroke="#2196F3" stroke-width="0.8"/>
<text x="733.3" y="319.4" fill="#fff" font-size="9" text-anchor="middle" dominant-baseline="middle" font-family="Segoe UI, sans-serif" paint-order="stroke" stroke="#000" stroke-width="2" pointer-events="none">SLAB-017</text>
<polygon class="slab-poly" data-slab-id="SLAB-018" points="258.44,378.77 258.44,259.97 363.61,259.97 363.61,378.77 258.44,378.77" fill="#2196F3" fill-opacity="0.45" stroke="#2196F3" stroke-width="0.8"/>
<text x="311.0" y="319.4" fill="#fff" font-size="9" text-anchor="middle" dominant-baseline="middle" font-family="Segoe UI, sans-serif" paint-order="stroke" stroke="#000" stroke-width="2" pointer-events="none">SLAB-018</text>
<polygon class="slab-poly" data-slab-id="SLAB-019" points="178.00,396.94 178.00,241.80 363.61,241.80 363.61,396.94 178.00,396.94" fill="#2196F3" fill-opacity="0.45" stroke="#2196F3" stroke-width="0.8"/>
<text x="270.8" y="319.4" fill="#fff" font-size="9" text-anchor="middle" dominant-baseline="middle" font-family="Segoe UI, sans-serif" paint-order="stroke" stroke="#000" stroke-width="2" pointer-events="none">SLAB-019</text>
<polygon class="slab-poly" data-slab-id="SLAB-020" points="141.67,396.94 141.67,241.80 211.54,241.80 211.54,396.94 141.67,396.94" fill="#2196F3" fill-opacity="0.45" stroke="#2196F3" stroke-width="0.8"/>
<polygon class="slab-poly" data-slab-id="SLAB-021" points="68.81,396.94 68.81,241.80 167.26,241.80 167.26,396.94 68.81,396.94" fill="#2196F3" fill-opacity="0.45" stroke="#2196F3" stroke-width="0.8"/>
<text x="118.0" y="319.4" fill="#fff" font-size="9" text-anchor="middle" dominant-baseline="middle" font-family="Segoe UI, sans-serif" paint-order="stroke" stroke="#000" stroke-width="2" pointer-events="none">SLAB-021</text>
<polygon class="slab-poly" data-slab-id="SLAB-022" points="517.35,396.94 360.13,396.94 360.13,241.80 520.83,241.80 520.83,393.46 565.09,393.46 565.09,591.25 517.35,591.25 517.35,396.94" fill="#2196F3" fill-opacity="0.45" stroke="#2196F3" stroke-width="0.8"/>
<text x="468.1" y="366.9" fill="#fff" font-size="9" text-anchor="middle" dominant-baseline="middle" font-family="Segoe UI, sans-serif" paint-order="stroke" stroke="#000" stroke-width="2" pointer-events="none">SLAB-022</text>
<polygon class="slab-poly" data-slab-id="SLAB-023" points="1632.77,591.25 1632.77,393.46 1792.78,393.46 1792.78,591.25 1632.77,591.25" fill="#2196F3" fill-opacity="0.45" stroke="#2196F3" stroke-width="0.8"/>
<text x="1712.8" y="492.4" fill="#fff" font-size="9" text-anchor="middle" dominant-baseline="middle" font-family="Segoe UI, sans-serif" paint-order="stroke" stroke="#000" stroke-width="2" pointer-events="none">SLAB-023</text>
<polygon class="slab-poly" data-slab-id="SLAB-024" points="1565.12,591.25 1565.12,393.46 1636.25,393.46 1636.25,591.25 1565.12,591.25" fill="#2196F3" fill-opacity="0.45" stroke="#2196F3" stroke-width="0.8"/>
<text x="1600.7" y="492.4" fill="#fff" font-size="9" text-anchor="middle" dominant-baseline="middle" font-family="Segoe UI, sans-serif" paint-order="stroke" stroke="#000" stroke-width="2" pointer-events="none">SLAB-024</text>
<polygon class="slab-poly" data-slab-id="SLAB-025" points="1409.98,591.25 1409.98,393.46 1568.60,393.46 1568.60,591.25 1409.98,591.25" fill="#2196F3" fill-opacity="0.45" stroke="#2196F3" stroke-width="0.8"/>
<text x="1489.3" y="492.4" fill="#fff" font-size="9" text-anchor="middle" dominant-baseline="middle" font-family="Segoe UI, sans-serif" paint-order="stroke" stroke="#000" stroke-width="2" pointer-events="none">SLAB-025</text>
<polygon class="slab-poly" data-slab-id="SLAB-026" points="1184.22,591.25 1184.22,393.46 1397.66,393.46 1397.66,591.25 1184.22,591.25" fill="#2196F3" fill-opacity="0.45" stroke="#2196F3" stroke-width="0.8"/>
<text x="1290.9" y="492.4" fill="#fff" font-size="9" text-anchor="middle" dominant-baseline="middle" font-family="Segoe UI, sans-serif" paint-order="stroke" stroke="#000" stroke-width="2" pointer-events="none">SLAB-026</text>
<polygon class="slab-poly" data-slab-id="SLAB-027" points="1155.84,591.25 1155.84,393.46 1187.69,393.46 1187.69,591.25 1155.84,591.25" fill="#2196F3" fill-opacity="0.45" stroke="#2196F3" stroke-width="0.8"/>
<polygon class="slab-poly" data-slab-id="SLAB-028" points="1076.86,591.25 1076.86,393.46 1159.32,393.46 1159.32,591.25 1076.86,591.25" fill="#2196F3" fill-opacity="0.45" stroke="#2196F3" stroke-width="0.8"/>
<text x="1118.1" y="492.4" fill="#fff" font-size="9" text-anchor="middle" dominant-baseline="middle" font-family="Segoe UI, sans-serif" paint-order="stroke" stroke="#000" stroke-width="2" pointer-events="none">SLAB-028</text>
<polygon class="slab-poly" data-slab-id="SLAB-029" points="1039.60,591.25 1039.60,393.46 1080.33,393.46 1080.33,591.25 1039.60,591.25" fill="#2196F3" fill-opacity="0.45" stroke="#2196F3" stroke-width="0.8"/>
<polygon class="slab-poly" data-slab-id="SLAB-030" points="866.76,591.25 866.76,393.46 1043.08,393.46 1043.08,591.25 866.76,591.25" fill="#2196F3" fill-opacity="0.45" stroke="#2196F3" stroke-width="0.8"/>
<text x="954.9" y="492.4" fill="#fff" font-size="9" text-anchor="middle" dominant-baseline="middle" font-family="Segoe UI, sans-serif" paint-order="stroke" stroke="#000" stroke-width="2" pointer-events="none">SLAB-030</text>
<polygon class="slab-poly" data-slab-id="SLAB-031" points="675.32,591.25 675.32,393.46 751.75,393.46 751.75,591.25 675.32,591.25" fill="#2196F3" fill-opacity="0.45" stroke="#2196F3" stroke-width="0.8"/>
<text x="713.5" y="492.4" fill="#fff" font-size="9" text-anchor="middle" dominant-baseline="middle" font-family="Segoe UI, sans-serif" paint-order="stroke" stroke="#000" stroke-width="2" pointer-events="none">SLAB-031</text>
<polygon class="slab-poly" data-slab-id="SLAB-032" points="561.62,393.46 678.80,393.46 678.80,591.25 561.62,591.25 561.62,393.46" fill="#2196F3" fill-opacity="0.45" stroke="#2196F3" stroke-width="0.8"/>
<text x="620.2" y="492.4" fill="#fff" font-size="9" text-anchor="middle" dominant-baseline="middle" font-family="Segoe UI, sans-serif" paint-order="stroke" stroke="#000" stroke-width="2" pointer-events="none">SLAB-032</text>
<polygon class="slab-poly" data-slab-id="SLAB-033" points="360.13,591.25 360.13,393.46 520.83,393.46 520.83,591.25 360.13,591.25" fill="#2196F3" fill-opacity="0.45" stroke="#2196F3" stroke-width="0.8"/>
<text x="440.5" y="492.4" fill="#fff" font-size="9" text-anchor="middle" dominant-baseline="middle" font-family="Segoe UI, sans-serif" paint-order="stroke" stroke="#000" stroke-width="2" pointer-events="none">SLAB-033</text>
<polygon class="slab-poly" data-slab-id="SLAB-034" points="258.44,591.25 258.44,393.46 363.61,393.46 363.61,591.25 258.44,591.25" fill="#2196F3" fill-opacity="0.45" stroke="#2196F3" stroke-width="0.8"/>
<text x="311.0" y="492.4" fill="#fff" font-size="9" text-anchor="middle" dominant-baseline="middle" font-family="Segoe UI, sans-serif" paint-order="stroke" stroke="#000" stroke-width="2" pointer-events="none">SLAB-034</text>
<polygon class="slab-poly" data-slab-id="SLAB-035" points="208.07,591.25 208.07,393.46 261.91,393.46 261.91,591.25 208.07,591.25" fill="#2196F3" fill-opacity="0.45" stroke="#2196F3" stroke-width="0.8"/>
<polygon class="slab-poly" data-slab-id="SLAB-036" points="141.67,591.25 141.67,393.46 211.54,393.46 211.54,591.25 141.67,591.25" fill="#2196F3" fill-opacity="0.45" stroke="#2196F3" stroke-width="0.8"/>
<text x="176.6" y="492.4" fill="#fff" font-size="9" text-anchor="middle" dominant-baseline="middle" font-family="Segoe UI, sans-serif" paint-order="stroke" stroke="#000" stroke-width="2" pointer-events="none">SLAB-036</text>
<polygon class="slab-poly" data-slab-id="SLAB-037" points="52.22,591.25 52.22,393.46 129.35,393.46 129.35,591.25 52.22,591.25" fill="#2196F3" fill-opacity="0.45" stroke="#2196F3" stroke-width="0.8"/>
<text x="90.8" y="492.4" fill="#fff" font-size="9" text-anchor="middle" dominant-baseline="middle" font-family="Segoe UI, sans-serif" paint-order="stroke" stroke="#000" stroke-width="2" pointer-events="none">SLAB-037</text>
<polygon class="slab-poly" data-slab-id="SLAB-038" points="1632.77,712.89 1632.77,587.77 1792.78,587.77 1792.78,712.89 1632.77,712.89" fill="#2196F3" fill-opacity="0.45" stroke="#2196F3" stroke-width="0.8"/>
<text x="1712.8" y="650.3" fill="#fff" font-size="9" text-anchor="middle" dominant-baseline="middle" font-family="Segoe UI, sans-serif" paint-order="stroke" stroke="#000" stroke-width="2" pointer-events="none">SLAB-038</text>
<polygon class="slab-poly" data-slab-id="SLAB-039" points="1184.22,712.89 1184.22,587.77 1397.66,587.77 1397.66,712.89 1184.22,712.89" fill="#2196F3" fill-opacity="0.45" stroke="#2196F3" stroke-width="0.8"/>
<text x="1290.9" y="650.3" fill="#fff" font-size="9" text-anchor="middle" dominant-baseline="middle" font-family="Segoe UI, sans-serif" paint-order="stroke" stroke="#000" stroke-width="2" pointer-events="none">SLAB-039</text>
<polygon class="slab-poly" data-slab-id="SLAB-040" points="1039.60,587.77 1043.08,587.77 1159.32,587.77 1159.32,712.89 1043.08,712.89 1039.60,712.89 866.76,712.89 866.76,587.77 1039.60,587.77" fill="#2196F3" fill-opacity="0.45" stroke="#2196F3" stroke-width="0.8"/>
<text x="1013.0" y="650.3" fill="#fff" font-size="9" text-anchor="middle" dominant-baseline="middle" font-family="Segoe UI, sans-serif" paint-order="stroke" stroke="#000" stroke-width="2" pointer-events="none">SLAB-040</text>
<polygon class="slab-poly" data-slab-id="SLAB-041" points="1632.77,818.98 1632.77,709.42 1792.78,709.42 1792.78,818.98 1632.77,818.98" fill="#2196F3" fill-opacity="0.45" stroke="#2196F3" stroke-width="0.8"/>
<text x="1712.8" y="764.2" fill="#fff" font-size="9" text-anchor="middle" dominant-baseline="middle" font-family="Segoe UI, sans-serif" paint-order="stroke" stroke="#000" stroke-width="2" pointer-events="none">SLAB-041</text>
<polygon class="slab-poly" data-slab-id="SLAB-042" points="141.67,915.34 141.67,712.89 141.67,709.42 141.67,587.77 208.07,587.77 211.54,587.77 363.61,587.77 363.61,709.42 363.61,712.89 363.61,815.50 363.61,818.98 363.61,951.44 208.07,951.44 208.07,915.34 141.67,915.34" fill="#FF9800" fill-opacity="0.45" stroke="#FF9800" stroke-width="0.8"/>
<text x="255.0" y="764.6" fill="#fff" font-size="9" text-anchor="middle" dominant-baseline="middle" font-family="Segoe UI, sans-serif" paint-order="stroke" stroke="#000" stroke-width="2" pointer-events="none">SLAB-042</text>
<polygon class="slab-poly" data-slab-id="SLAB-043" points="1039.60,709.42 1043.08,709.42 1159.32,709.42 1159.32,915.34 1043.08,915.34 1039.60,915.34 866.76,915.34 866.76,709.42 1039.60,709.42" fill="#2196F3" fill-opacity="0.45" stroke="#2196F3" stroke-width="0.8"/>
<text x="1013.0" y="812.4" fill="#fff" font-size="9" text-anchor="middle" dominant-baseline="middle" font-family="Segoe UI, sans-serif" paint-order="stroke" stroke="#000" stroke-width="2" pointer-events="none">SLAB-043</text>
<polygon class="slab-poly" data-slab-id="SLAB-044" points="52.22,915.34 52.22,709.42 129.35,709.42 129.35,915.34 52.22,915.34" fill="#2196F3" fill-opacity="0.45" stroke="#2196F3" stroke-width="0.8"/>
<text x="90.8" y="812.4" fill="#fff" font-size="9" text-anchor="middle" dominant-baseline="middle" font-family="Segoe UI, sans-serif" paint-order="stroke" stroke="#000" stroke-width="2" pointer-events="none">SLAB-044</text>
<polygon class="slab-poly" data-slab-id="SLAB-045" points="517.35,947.97 517.35,818.98 517.35,815.50 517.35,712.89 517.35,709.42 517.35,587.77 678.80,587.77 678.80,709.42 678.80,712.89 678.80,815.50 678.80,818.98 678.80,947.97 678.80,951.44 678.80,1136.52 517.35,1136.52 517.35,951.44 517.35,947.97" fill="#FF9800" fill-opacity="0.45" stroke="#FF9800" stroke-width="0.8"/>
<text x="598.1" y="862.1" fill="#fff" font-size="9" text-anchor="middle" dominant-baseline="middle" font-family="Segoe UI, sans-serif" paint-order="stroke" stroke="#000" stroke-width="2" pointer-events="none">SLAB-045</text>
<polygon class="slab-poly" data-slab-id="SLAB-046" points="360.13,947.97 360.13,818.98 360.13,815.50 360.13,712.89 360.13,709.42 360.13,587.77 520.83,587.77 520.83,709.42 520.83,712.89 520.83,815.50 520.83,818.98 520.83,947.97 520.83,951.44 520.83,1136.52 360.13,1136.52 360.13,951.44 360.13,947.97" fill="#FF9800" fill-opacity="0.45" stroke="#FF9800" stroke-width="0.8"/>
<text x="440.5" y="862.1" fill="#fff" font-size="9" text-anchor="middle" dominant-baseline="middle" font-family="Segoe UI, sans-serif" paint-order="stroke" stroke="#000" stroke-width="2" pointer-events="none">SLAB-046</text>
<polygon class="slab-poly" data-slab-id="SLAB-047" points="1409.98,947.97 1409.98,818.98 1409.98,815.50 1409.98,712.89 1409.98,709.42 1409.98,587.77 1565.12,587.77 1568.60,587.77 1620.45,587.77 1620.45,709.42 1636.25,709.42 1636.25,915.34 1568.60,915.34 1568.60,947.97 1636.25,947.97 1636.25,1136.52 1568.60,1136.52 1565.12,1136.52 1409.98,1136.52 1409.98,951.44 1409.98,947.97" fill="#FF9800" fill-opacity="0.45" stroke="#FF9800" stroke-width="0.8"/>
<text x="1520.0" y="864.3" fill="#fff" font-size="9" text-anchor="middle" dominant-baseline="middle" font-family="Segoe UI, sans-serif" paint-order="stroke" stroke="#000" stroke-width="2" pointer-events="none">SLAB-047</text>
<polygon class="slab-poly" data-slab-id="SLAB-048" points="1632.77,951.44 1632.77,815.50 1792.78,815.50 1792.78,951.44 1632.77,951.44" fill="#FF9800" fill-opacity="0.45" stroke="#FF9800" stroke-width="0.8"/>
<text x="1712.8" y="883.5" fill="#fff" font-size="9" text-anchor="middle" dominant-baseline="middle" font-family="Segoe UI, sans-serif" paint-order="stroke" stroke="#000" stroke-width="2" pointer-events="none">SLAB-048</text>
<polygon class="slab-poly" data-slab-id="SLAB-049" points="1184.22,947.97 1184.22,915.34 1155.84,915.34 1155.84,709.42 1184.22,709.42 1187.69,709.42 1397.66,709.42 1397.66,894.25 1397.66,897.73 1397.66,947.97 1397.66,951.44 1397.66,1136.52 1184.22,1136.52 1184.22,951.44 1184.22,947.97" fill="#FF9800" fill-opacity="0.45" stroke="#FF9800" stroke-width="0.8"/>
<text x="1283.7" y="916.3" fill="#fff" font-size="9" text-anchor="middle" dominant-baseline="middle" font-family="Segoe UI, sans-serif" paint-order="stroke" stroke="#000" stroke-width="2" pointer-events="none">SLAB-049</text>
<polygon class="slab-poly" data-slab-id="SLAB-050" points="52.22,1136.52 52.22,947.97 129.35,947.97 129.35,993.94 125.24,993.94 120.60,994.17 116.00,994.85 111.49,995.98 107.11,997.54 102.90,999.53 98.91,1001.92 95.18,1004.70 91.73,1007.82 88.61,1011.26 85.84,1015.00 83.45,1018.99 81.46,1023.19 79.89,1027.57 78.76,1032.08 78.08,1036.69 77.85,1041.33 77.85,1136.52 52.22,1136.52" fill="#2196F3" fill-opacity="0.45" stroke="#2196F3" stroke-width="0.8"/>
<polygon class="slab-poly" data-slab-id="SLAB-051" points="208.07,947.97 211.54,947.97 363.61,947.97 363.61,1136.52 211.54,1136.52 208.07,1136.52 190.80,1136.52 190.80,1041.33 190.57,1036.69 189.89,1032.08 188.76,1027.57 187.19,1023.19 185.21,1018.99 182.81,1015.00 180.04,1011.26 176.92,1007.82 173.47,1004.70 169.74,1001.92 165.75,999.53 161.55,997.54 157.17,995.98 152.66,994.85 148.06,994.17 143.41,993.94 125.87,993.94 125.87,947.97 208.07,947.97" fill="#2196F3" fill-opacity="0.45" stroke="#2196F3" stroke-width="0.8"/>
<text x="266.1" y="1035.8" fill="#fff" font-size="9" text-anchor="middle" dominant-baseline="middle" font-family="Segoe UI, sans-serif" paint-order="stroke" stroke="#000" stroke-width="2" pointer-events="none">SLAB-051</text>
<polygon class="slab-poly" data-slab-id="SLAB-052" points="1039.60,947.97 1043.08,947.97 1155.84,947.97 1159.32,947.97 1187.69,947.97 1187.69,1136.52 1159.32,1136.52 1155.84,1136.52 1043.08,1136.52 1039.60,1136.52 866.76,1136.52 866.76,947.97 1039.60,947.97" fill="#2196F3" fill-opacity="0.45" stroke="#2196F3" stroke-width="0.8"/>
<text x="1027.2" y="1042.2" fill="#fff" font-size="9" text-anchor="middle" dominant-baseline="middle" font-family="Segoe UI, sans-serif" paint-order="stroke" stroke="#000" stroke-width="2" pointer-events="none">SLAB-052</text>
<polygon class="slab-poly" data-slab-id="SLAB-053" points="1632.77,1274.51 1632.77,1136.52 1632.77,1133.04 1632.77,947.97 1792.78,947.97 1792.78,993.94 1789.47,993.94 1784.82,994.17 1780.22,994.85 1775.71,995.98 1771.33,997.54 1767.13,999.53 1763.14,1001.92 1759.40,1004.70 1755.96,1007.82 1752.83,1011.26 1750.06,1015.00 1747.67,1018.99 1745.68,1023.19 1744.12,1027.57 1742.99,1032.08 1742.30,1036.69 1742.08,1041.33 1742.08,1133.04 1742.08,1136.52 1742.08,1142.44 1742.30,1147.08 1742.99,1151.68 1744.12,1156.20 1745.68,1160.57 1747.67,1164.78 1750.06,1168.77 1752.83,1172.50 1755.96,1175.95 1759.40,1179.07 1763.14,1181.84 1767.13,1184.23 1771.33,1186.22 1775.71,1187.79 1780.22,1188.92 1784.82,1189.60 1789.47,1189.83 1792.78,1189.83 1792.78,1274.51 1632.77,1274.51" fill="#2196F3" fill-opacity="0.45" stroke="#2196F3" stroke-width="0.8"/>
<text x="1701.1" y="1115.2" fill="#fff" font-size="9" text-anchor="middle" dominant-baseline="middle" font-family="Segoe UI, sans-serif" paint-order="stroke" stroke="#000" stroke-width="2" pointer-events="none">SLAB-053</text>
<polygon class="slab-poly" data-slab-id="SLAB-054" points="1039.60,1133.04 1043.08,1133.04 1159.32,1133.04 1159.32,1274.51 1043.08,1274.51 1039.60,1274.51 866.76,1274.51 866.76,1133.04 1039.60,1133.04" fill="#2196F3" fill-opacity="0.45" stroke="#2196F3" stroke-width="0.8"/>
<text x="1013.0" y="1203.8" fill="#fff" font-size="9" text-anchor="middle" dominant-baseline="middle" font-family="Segoe UI, sans-serif" paint-order="stroke" stroke="#000" stroke-width="2" pointer-events="none">SLAB-054</text>
<polygon class="slab-poly" data-slab-id="SLAB-055" points="360.13,1274.51 360.13,1133.04 520.83,1133.04 520.83,1274.51 360.13,1274.51" fill="#2196F3" fill-opacity="0.45" stroke="#2196F3" stroke-width="0.8"/>
<text x="440.5" y="1203.8" fill="#fff" font-size="9" text-anchor="middle" dominant-baseline="middle" font-family="Segoe UI, sans-serif" paint-order="stroke" stroke="#000" stroke-width="2" pointer-events="none">SLAB-055</text>
<polygon class="slab-poly" data-slab-id="SLAB-056" points="141.67,1274.51 68.81,1274.51 68.81,1133.04 77.85,1133.04 77.85,1142.44 78.08,1147.08 78.76,1151.68 79.89,1156.20 81.46,1160.57 83.45,1164.78 85.84,1168.77 88.61,1172.50 91.73,1175.95 95.18,1179.07 98.91,1181.84 102.90,1184.23 107.11,1186.22 111.49,1187.79 116.00,1188.92 120.60,1189.60 125.24,1189.83 141.67,1189.83 143.41,1189.83 148.06,1189.60 152.66,1188.92 157.17,1187.79 161.55,1186.22 165.75,1184.23 169.74,1181.84 173.47,1179.07 176.92,1175.95 180.04,1172.50 182.81,1168.77 185.21,1164.78 187.19,1160.57 188.76,1156.20 189.89,1151.68 190.57,1147.08 190.80,1142.44 190.80,1133.04 211.54,1133.04 211.54,1274.51 167.26,1274.51 141.67,1274.51" fill="#2196F3" fill-opacity="0.45" stroke="#2196F3" stroke-width="0.8"/>
<text x="142.3" y="1220.6" fill="#fff" font-size="9" text-anchor="middle" dominant-baseline="middle" font-family="Segoe UI, sans-serif" paint-order="stroke" stroke="#000" stroke-width="2" pointer-events="none">SLAB-056</text>
<polygon class="slab-poly" data-slab-id="SLAB-057" points="678.80,1274.51 678.80,1426.14 678.80,1437.20 517.35,1437.20 517.35,1274.51 517.35,1271.04 517.35,1133.04 678.80,1133.04 678.80,1147.26 678.80,1271.04 678.80,1274.51" fill="#2196F3" fill-opacity="0.45" stroke="#2196F3" stroke-width="0.8"/>
<text x="598.1" y="1285.1" fill="#fff" font-size="9" text-anchor="middle" dominant-baseline="middle" font-family="Segoe UI, sans-serif" paint-order="stroke" stroke="#000" stroke-width="2" pointer-events="none">SLAB-057</text>
<polygon class="slab-poly" data-slab-id="SLAB-058" points="178.00,1271.04 178.00,1174.76 180.04,1172.50 182.81,1168.77 185.21,1164.78 187.19,1160.57 188.76,1156.20 189.89,1151.68 190.57,1147.08 190.80,1142.44 190.80,1133.04 363.61,1133.04 363.61,1147.26 363.61,1271.04 363.61,1274.51 363.61,1426.14 363.61,1437.20 211.54,1437.20 178.00,1437.20 141.67,1437.20 141.67,1271.04 178.00,1271.04" fill="#2196F3" fill-opacity="0.45" stroke="#2196F3" stroke-width="0.8"/>
<text x="260.6" y="1292.7" fill="#fff" font-size="9" text-anchor="middle" dominant-baseline="middle" font-family="Segoe UI, sans-serif" paint-order="stroke" stroke="#000" stroke-width="2" pointer-events="none">SLAB-058</text>
<polygon class="slab-poly" data-slab-id="SLAB-059" points="689.54,1274.51 689.54,1271.04 689.54,1133.04 777.03,1133.04 777.03,1271.04 856.01,1271.04 856.01,1437.20 777.03,1437.20 773.55,1437.20 689.54,1437.20 689.54,1274.51" fill="#2196F3" fill-opacity="0.45" stroke="#2196F3" stroke-width="0.8"/>
<text x="760.8" y="1307.9" fill="#fff" font-size="9" text-anchor="middle" dominant-baseline="middle" font-family="Segoe UI, sans-serif" paint-order="stroke" stroke="#000" stroke-width="2" pointer-events="none">SLAB-059</text>
<polygon class="slab-poly" data-slab-id="SLAB-060" points="1397.66,1437.20 1397.66,1547.78 1184.22,1547.78 1184.22,1437.20 1184.22,1433.72 1184.22,1274.51 1184.22,1271.04 1184.22,1133.04 1397.66,1133.04 1397.66,1271.04 1397.66,1274.51 1397.66,1433.72 1397.66,1437.20" fill="#2196F3" fill-opacity="0.45" stroke="#2196F3" stroke-width="0.8"/>
<text x="1290.9" y="1340.4" fill="#fff" font-size="9" text-anchor="middle" dominant-baseline="middle" font-family="Segoe UI, sans-serif" paint-order="stroke" stroke="#000" stroke-width="2" pointer-events="none">SLAB-060</text>
<polygon class="slab-poly" data-slab-id="SLAB-061" points="68.81,1437.20 68.81,1271.04 167.26,1271.04 167.26,1437.20 68.81,1437.20" fill="#2196F3" fill-opacity="0.45" stroke="#2196F3" stroke-width="0.8"/>
<text x="118.0" y="1354.1" fill="#fff" font-size="9" text-anchor="middle" dominant-baseline="middle" font-family="Segoe UI, sans-serif" paint-order="stroke" stroke="#000" stroke-width="2" pointer-events="none">SLAB-061</text>
<polygon class="slab-poly" data-slab-id="SLAB-062" points="1159.32,1437.20 1159.32,1547.78 1043.08,1547.78 1039.60,1547.78 866.76,1547.78 866.76,1437.20 866.76,1433.72 866.76,1271.04 1039.60,1271.04 1043.08,1271.04 1159.32,1271.04 1159.32,1433.72 1159.32,1437.20" fill="#2196F3" fill-opacity="0.45" stroke="#2196F3" stroke-width="0.8"/>
<text x="1013.0" y="1409.4" fill="#fff" font-size="9" text-anchor="middle" dominant-baseline="middle" font-family="Segoe UI, sans-serif" paint-order="stroke" stroke="#000" stroke-width="2" pointer-events="none">SLAB-062</text>
<polygon class="slab-poly" data-slab-id="SLAB-063" points="689.54,1433.72 773.55,1433.72 777.03,1433.72 856.01,1433.72 856.01,1547.78 777.03,1547.78 773.55,1547.78 689.54,1547.78 689.54,1433.72" fill="#2196F3" fill-opacity="0.45" stroke="#2196F3" stroke-width="0.8"/>
<text x="772.8" y="1490.8" fill="#fff" font-size="9" text-anchor="middle" dominant-baseline="middle" font-family="Segoe UI, sans-serif" paint-order="stroke" stroke="#000" stroke-width="2" pointer-events="none">SLAB-063</text>
<polygon class="slab-poly" data-slab-id="SLAB-064" points="517.35,1433.72 561.62,1433.72 678.80,1433.72 678.80,1536.72 678.80,1547.78 517.35,1547.78 517.35,1433.72" fill="#2196F3" fill-opacity="0.45" stroke="#2196F3" stroke-width="0.8"/>
<text x="598.1" y="1490.8" fill="#fff" font-size="9" text-anchor="middle" dominant-baseline="middle" font-family="Segoe UI, sans-serif" paint-order="stroke" stroke="#000" stroke-width="2" pointer-events="none">SLAB-064</text>
<polygon class="slab-poly" data-slab-id="SLAB-065" points="360.13,1547.78 360.13,1433.72 520.83,1433.72 520.83,1547.78 360.13,1547.78" fill="#2196F3" fill-opacity="0.45" stroke="#2196F3" stroke-width="0.8"/>
<text x="440.5" y="1490.8" fill="#fff" font-size="9" text-anchor="middle" dominant-baseline="middle" font-family="Segoe UI, sans-serif" paint-order="stroke" stroke="#000" stroke-width="2" pointer-events="none">SLAB-065</text>
<polygon class="slab-poly" data-slab-id="SLAB-066" points="141.67,1433.72 208.07,1433.72 211.54,1433.72 363.61,1433.72 363.61,1547.78 211.54,1547.78 208.07,1547.78 141.67,1547.78 141.67,1433.72" fill="#2196F3" fill-opacity="0.45" stroke="#2196F3" stroke-width="0.8"/>
<text x="252.6" y="1490.8" fill="#fff" font-size="9" text-anchor="middle" dominant-baseline="middle" font-family="Segoe UI, sans-serif" paint-order="stroke" stroke="#000" stroke-width="2" pointer-events="none">SLAB-066</text>
<polygon class="slab-poly" data-slab-id="SLAB-067" points="68.81,1547.78 68.81,1433.72 129.35,1433.72 129.35,1547.78 68.81,1547.78" fill="#2196F3" fill-opacity="0.45" stroke="#2196F3" stroke-width="0.8"/>
</svg>