<svg xmlns="http://www.w3.org/2000/svg" width="2834" height="1600" viewBox="0 0 2834 1600">
<rect width="100%" height="100%" fill="#121212"/>
<polygon points="640.87,1508.64 666.00,1508.64 666.00,1488.54 676.05,1488.54 676.05,1513.67 671.02,1513.67 671.02,1518.69 635.85,1518.69 635.85,1513.67 630.82,1513.67 630.82,1478.49 635.85,1478.49 635.85,1473.46 671.02,1473.46 671.02,1483.51 640.87,1483.51 640.87,1508.64" fill="#FF9800" fill-opacity="0.12" stroke="#FFB74D" stroke-width="0.6"/>
<polygon points="472.94,1164.82 472.94,1174.87 306.35,1174.87 306.35,1164.82 472.94,1164.82" fill="#FF9800" fill-opacity="0.12" stroke="#FFB74D" stroke-width="0.6"/>
<polygon points="220.93,1265.33 220.93,1260.31 215.90,1260.31 215.90,1184.92 220.93,1184.92 220.93,1179.90 230.98,1179.90 230.98,1179.90 273.69,1179.90 273.69,1179.90 291.27,1179.90 291.27,1184.92 296.30,1184.92 296.34,1260.30 291.27,1260.31 291.28,1265.33 290.23,1265.33 301.32,1265.33 301.32,1184.92 306.35,1184.92 306.35,1179.90 472.94,1179.90 472.94,1189.95 311.37,1189.95 311.37,1270.36 306.35,1270.36 306.35,1275.38 -3.92,1275.38 -3.92,1270.36 -8.95,1270.36 -8.95,982.63 1.10,982.63 1.10,1265.33 11.05,1265.33 11.05,1260.43 6.13,1260.43 6.13,1185.02 11.15,1185.02 11.15,1180.00 90.29,1180.00 210.87,1179.90 210.88,1184.92 215.90,1184.92 215.90,1260.31 210.88,1260.31 210.88,1265.33 220.93,1265.33" fill="#FF9800" fill-opacity="0.12" stroke="#FFB74D" stroke-width="0.6"/>
<polygon points="474.67,1116.31 585.93,1116.31 585.93,1126.37 474.67,1126.37 474.67,1116.31" fill="#FF9800" fill-opacity="0.12" stroke="#FFB74D" stroke-width="0.6"/>
<polygon points="474.67,1106.26 585.94,1106.26 585.94,1116.31 474.67,1116.31 474.67,1106.26" fill="#FF9800" fill-opacity="0.12" stroke="#FFB74D" stroke-width="0.6"/>
<polygon points="601.01,1089.44 703.51,1089.44 703.51,1099.49 601.01,1099.49 601.01,1089.44" fill="#FF9800" fill-opacity="0.12" stroke="#FFB74D" stroke-width="0.6"/>
<polygon points="638.69,1074.36 638.69,1084.41 606.03,1084.41 606.03,1074.36 638.69,1074.36" fill="#FF9800" fill-opacity="0.12" stroke="#FFB74D" stroke-width="0.6"/>
<polygon points="16.18,982.63 16.18,1164.93 82.97,1164.93 82.97,1174.98 11.15,1174.98 11.15,1169.96 6.13,1169.96 6.13,982.63 16.18,982.63" fill="#FF9800" fill-opacity="0.12" stroke="#FFB74D" stroke-width="0.6"/>
<polygon points="296.30,1039.29 291.27,1039.29 291.27,1044.32 291.27,1054.37 220.93,1054.37 220.93,1164.93 291.27,1164.93 291.27,1174.98 136.77,1174.98 136.77,1164.93 181.74,1164.93 181.74,1146.47 186.76,1146.47 186.76,1141.44 200.83,1141.44 200.83,982.63 210.88,982.63 210.88,982.63 215.90,982.63 215.90,977.61 291.27,977.61 291.27,982.63 296.30,982.63 296.30,1039.29" fill="#FF9800" fill-opacity="0.12" stroke="#FFB74D" stroke-width="0.6"/>
<polygon points="585.93,1058.02 585.93,1068.07 474.67,1068.07 474.67,1058.02 585.93,1058.02" fill="#FF9800" fill-opacity="0.12" stroke="#FFB74D" stroke-width="0.6"/>
<polygon points="474.67,1047.97 585.93,1047.97 585.93,1058.02 474.67,1058.02 474.67,1047.97" fill="#FF9800" fill-opacity="0.12" stroke="#FFB74D" stroke-width="0.6"/>
<polygon points="311.37,982.63 311.37,1039.29 301.32,1039.29 301.32,982.63 311.37,982.63" fill="#FF9800" fill-opacity="0.12" stroke="#FFB74D" stroke-width="0.6"/>
<polygon points="291.27,962.53 291.27,972.58 215.90,972.60 215.90,962.55 291.27,962.53" fill="#FF9800" fill-opacity="0.12" stroke="#FFB74D" stroke-width="0.6"/>
<polygon points="101.06,801.71 101.06,801.71 111.11,801.71 111.11,967.56 101.06,967.56 101.06,967.56 91.01,967.56 91.01,801.71 101.06,801.71" fill="#FF9800" fill-opacity="0.12" stroke="#FFB74D" stroke-width="0.6"/>
<polygon points="77.95,781.61 77.95,610.74 88.00,610.74 88.00,781.61 96.04,781.61 96.04,791.66 33.23,791.66 33.23,967.56 23.18,967.56 23.18,786.64 28.20,786.64 28.20,781.61 77.95,781.61" fill="#FF9800" fill-opacity="0.12" stroke="#FFB74D" stroke-width="0.6"/>
<polygon points="369.88,771.56 454.57,771.56 454.57,781.61 369.88,781.61 369.88,771.56" fill="#FF9800" fill-opacity="0.12" stroke="#FFB74D" stroke-width="0.6"/>
<polygon points="609.55,771.56 609.55,781.61 474.67,781.61 474.67,771.56 609.55,771.56" fill="#FF9800" fill-opacity="0.12" stroke="#FFB74D" stroke-width="0.6"/>
<polygon points="772.85,781.61 629.65,781.61 629.65,771.56 772.85,771.56 772.85,781.61" fill="#FF9800" fill-opacity="0.12" stroke="#FFB74D" stroke-width="0.6"/>
<polygon points="772.85,751.46 772.85,761.51 629.65,761.51 629.65,751.46 772.85,751.46" fill="#FF9800" fill-opacity="0.12" stroke="#FFB74D" stroke-width="0.6"/>
<polygon points="609.55,751.46 609.55,761.51 474.67,761.51 474.67,751.46 609.55,751.46" fill="#FF9800" fill-opacity="0.12" stroke="#FFB74D" stroke-width="0.6"/>
<polygon points="369.88,756.48 364.85,756.48 364.85,640.89 374.90,640.89 374.90,751.46 454.57,751.46 454.57,761.51 369.88,761.51 369.88,756.48" fill="#FF9800" fill-opacity="0.12" stroke="#FFB74D" stroke-width="0.6"/>
<polygon points="113.12,650.94 354.22,650.94 354.22,655.97 359.84,655.97 359.84,756.48 349.79,756.48 349.79,661.00 113.12,661.00 113.12,786.64 103.07,786.64 103.07,610.74 113.12,610.74 113.12,635.87 354.82,635.87 354.82,645.92 113.12,645.92 113.12,650.94" fill="#FF9800" fill-opacity="0.12" stroke="#FFB74D" stroke-width="0.6"/>
<polygon points="441.73,565.51 575.38,565.51 575.38,570.54 580.41,570.54 580.41,640.89 570.36,640.89 570.36,575.56 446.75,575.56 446.75,640.89 436.70,640.89 436.70,640.89 426.65,640.89 426.65,575.56 379.42,575.56 379.42,565.51 431.68,565.51 431.68,570.54 436.70,570.54 436.70,570.54 441.73,570.54 441.73,565.51" fill="#FF9800" fill-opacity="0.12" stroke="#FFB74D" stroke-width="0.6"/>
<polygon points="590.45,570.54 590.45,565.51 708.53,565.51 708.53,575.56 595.48,575.56 595.48,640.89 585.43,640.89 585.43,570.54 590.45,570.54" fill="#FF9800" fill-opacity="0.12" stroke="#FFB74D" stroke-width="0.6"/>
<polygon points="108.10,565.46 354.30,565.57 354.30,575.62 108.09,575.51 108.10,565.46" fill="#FF9800" fill-opacity="0.12" stroke="#FFB74D" stroke-width="0.6"/>
<polygon points="108.09,550.46 354.30,550.46 354.30,560.51 108.09,560.51 108.09,550.46" fill="#FF9800" fill-opacity="0.12" stroke="#FFB74D" stroke-width="0.6"/>
<polygon points="708.53,560.48 379.42,560.48 379.42,550.43 708.53,550.43 708.53,560.48" fill="#FF9800" fill-opacity="0.12" stroke="#FFB74D" stroke-width="0.6"/>
<polygon points="88.00,532.82 77.95,532.82 77.95,422.25 88.00,422.25 88.00,532.82" fill="#FF9800" fill-opacity="0.12" stroke="#FFB74D" stroke-width="0.6"/>
<polygon points="113.12,422.25 113.12,532.82 103.07,532.82 103.07,422.25 113.12,422.25" fill="#FF9800" fill-opacity="0.12" stroke="#FFB74D" stroke-width="0.6"/>
<polygon points="359.32,374.03 359.32,422.78 349.27,422.78 349.27,374.03 359.32,374.03" fill="#FF9800" fill-opacity="0.12" stroke="#FFB74D" stroke-width="0.6"/>
<polygon points="384.45,374.03 384.45,422.78 374.40,422.78 374.40,374.03 384.45,374.03" fill="#FF9800" fill-opacity="0.12" stroke="#FFB74D" stroke-width="0.6"/>
<polygon points="356.81,349.16 346.76,349.16 346.76,164.49 356.81,164.49 356.81,349.16" fill="#FF9800" fill-opacity="0.12" stroke="#FFB74D" stroke-width="0.6"/>
<polygon points="384.45,339.71 374.40,339.71 374.40,162.23 384.45,162.23 384.45,339.71" fill="#FF9800" fill-opacity="0.12" stroke="#FFB74D" stroke-width="0.6"/>
<polygon points="713.56,334.33 703.51,334.33 703.51,162.23 713.56,162.23 713.56,334.33" fill="#FF9800" fill-opacity="0.12" stroke="#FFB74D" stroke-width="0.6"/>
<polygon points="108.09,243.87 108.09,233.82 141.76,233.82 141.76,113.21 146.78,113.21 146.78,108.18 354.30,108.18 354.30,118.23 151.81,118.23 151.81,238.85 146.78,238.85 146.78,243.87 108.09,243.87" fill="#FF9800" fill-opacity="0.12" stroke="#FFB74D" stroke-width="0.6"/>
<polygon points="131.71,218.74 131.71,223.77 108.09,223.77 108.09,213.72 126.69,213.72 126.68,118.23 108.09,118.23 108.09,108.18 131.71,108.18 131.71,113.21 136.73,113.21 136.73,218.74 131.71,218.74" fill="#FF9800" fill-opacity="0.12" stroke="#FFB74D" stroke-width="0.6"/>
<polygon points="708.53,108.18 708.53,118.23 379.42,118.23 379.42,108.18 708.53,108.18" fill="#FF9800" fill-opacity="0.12" stroke="#FFB74D" stroke-width="0.6"/>
<polygon points="379.42,78.03 379.42,83.05 379.42,78.03 708.53,78.03 708.53,88.08 379.42,88.08 379.42,88.08 108.09,88.08 108.09,78.03 379.42,78.03" fill="#FF9800" fill-opacity="0.12" stroke="#FFB74D" stroke-width="0.6"/>
<polygon points="822.21,1533.77 822.21,1488.54 832.26,1488.54 832.26,1533.77 822.21,1533.77" fill="#FF9800" fill-opacity="0.12" stroke="#FFB74D" stroke-width="0.6"/>
<polygon points="807.14,1488.54 817.19,1488.54 817.19,1533.77 807.14,1533.77 807.14,1488.54" fill="#FF9800" fill-opacity="0.12" stroke="#FFB74D" stroke-width="0.6"/>
<polygon points="1158.63,1519.84 1153.60,1519.84 1153.60,1490.45 1163.65,1490.45 1163.65,1514.82 1168.68,1514.82 1168.68,1487.18 1178.73,1487.18 1178.73,1519.84 1173.70,1519.84 1173.70,1524.87 1163.65,1524.87 1158.63,1524.87 1158.63,1519.84" fill="#FF9800" fill-opacity="0.12" stroke="#FFB74D" stroke-width="0.6"/>
<polygon points="1012.91,1524.87 1012.91,1519.84 1007.89,1519.84 1007.89,1487.18 1017.94,1487.18 1017.94,1490.45 1027.99,1490.45 1027.99,1519.84 1022.96,1519.84 1022.96,1524.87 1012.91,1524.87" fill="#FF9800" fill-opacity="0.12" stroke="#FFB74D" stroke-width="0.6"/>
<polygon points="940.23,1462.57 947.77,1462.57 947.77,1467.59 952.79,1467.59 952.79,1520.36 947.77,1520.36 947.77,1525.39 917.62,1525.39 917.62,1520.36 912.60,1520.36 912.60,1490.21 922.65,1490.21 922.65,1515.33 942.74,1515.33 942.74,1480.16 935.21,1480.16 935.21,1467.59 940.23,1467.59 940.23,1462.57" fill="#FF9800" fill-opacity="0.12" stroke="#FFB74D" stroke-width="0.6"/>
<polygon points="1153.60,1479.64 1158.63,1479.64 1158.63,1474.61 1163.65,1474.61 1173.70,1474.61 1173.70,1484.67 1163.65,1484.67 1158.63,1484.67 1158.63,1482.91 1153.60,1482.91 1153.60,1479.64" fill="#FF9800" fill-opacity="0.12" stroke="#FFB74D" stroke-width="0.6"/>
<polygon points="1022.96,1474.61 1022.96,1479.64 1027.99,1479.64 1027.99,1482.91 1022.96,1482.91 1022.96,1484.67 1012.91,1484.67 1012.91,1474.61 1022.96,1474.61" fill="#FF9800" fill-opacity="0.12" stroke="#FFB74D" stroke-width="0.6"/>
<polygon points="1210.99,1019.08 1150.70,1019.08 1150.70,1009.03 1210.99,1009.03 1210.99,1019.08" fill="#FF9800" fill-opacity="0.12" stroke="#FFB74D" stroke-width="0.6"/>
<polygon points="1210.99,993.95 1210.99,1004.00 1150.70,1004.00 1150.70,993.95 1210.99,993.95" fill="#FF9800" fill-opacity="0.12" stroke="#FFB74D" stroke-width="0.6"/>
<polygon points="1110.50,917.30 1110.50,998.98 1100.45,998.98 1100.45,917.30 1110.50,917.30" fill="#FF9800" fill-opacity="0.12" stroke="#FFB74D" stroke-width="0.6"/>
<polygon points="1125.57,998.98 1115.52,998.98 1115.52,917.30 1125.57,917.30 1125.57,998.98" fill="#FF9800" fill-opacity="0.12" stroke="#FFB74D" stroke-width="0.6"/>
<polygon points="1115.52,898.33 1115.52,776.58 1125.57,776.58 1125.57,898.33 1115.52,898.33" fill="#FF9800" fill-opacity="0.12" stroke="#FFB74D" stroke-width="0.6"/>
<polygon points="1110.50,776.58 1110.50,898.33 1100.45,898.33 1100.45,776.58 1110.50,776.58" fill="#FF9800" fill-opacity="0.12" stroke="#FFB74D" stroke-width="0.6"/>
<polygon points="936.15,771.56 936.15,781.61 792.95,781.61 792.95,771.56 936.15,771.56" fill="#FF9800" fill-opacity="0.12" stroke="#FFB74D" stroke-width="0.6"/>
<polygon points="1125.57,771.56 1236.11,771.56 1236.11,781.61 1125.57,781.61 1125.57,771.56" fill="#FF9800" fill-opacity="0.12" stroke="#FFB74D" stroke-width="0.6"/>
<polygon points="835.15,751.46 936.15,751.46 936.15,761.51 835.15,761.51 835.15,751.46" fill="#FF9800" fill-opacity="0.12" stroke="#FFB74D" stroke-width="0.6"/>
<polygon points="1125.57,751.46 1236.11,751.46 1236.11,761.51 1125.57,761.51 1125.57,751.46" fill="#FF9800" fill-opacity="0.12" stroke="#FFB74D" stroke-width="0.6"/>
<polygon points="1241.14,756.48 1241.14,655.97 1251.19,655.97 1251.19,756.48 1241.14,756.48" fill="#FF9800" fill-opacity="0.12" stroke="#FFB74D" stroke-width="0.6"/>
<polygon points="1116.53,625.81 1116.53,620.78 1246.16,620.78 1246.16,625.81 1251.19,625.81 1251.19,640.89 1246.16,640.89 1246.16,645.92 1116.53,645.92 1116.53,640.89 1111.50,640.89 1111.50,625.81 1116.53,625.81" fill="#FF9800" fill-opacity="0.12" stroke="#FFB74D" stroke-width="0.6"/>
<polygon points="891.93,565.51 960.77,565.51 960.77,575.56 891.93,575.56 891.93,565.51" fill="#FF9800" fill-opacity="0.12" stroke="#FFB74D" stroke-width="0.6"/>
<polygon points="733.66,565.51 876.86,565.51 876.86,575.56 733.66,575.56 733.66,565.51" fill="#FF9800" fill-opacity="0.12" stroke="#FFB74D" stroke-width="0.6"/>
<polygon points="891.93,550.43 960.77,550.43 960.77,560.48 891.93,560.48 891.93,550.43" fill="#FF9800" fill-opacity="0.12" stroke="#FFB74D" stroke-width="0.6"/>
<polygon points="733.66,550.43 876.86,550.43 876.86,560.48 733.66,560.48 733.66,550.43" fill="#FF9800" fill-opacity="0.12" stroke="#FFB74D" stroke-width="0.6"/>
<polygon points="876.86,507.21 876.86,517.26 733.66,517.26 733.66,507.21 876.86,507.21" fill="#FF9800" fill-opacity="0.12" stroke="#FFB74D" stroke-width="0.6"/>
<polygon points="1173.31,502.19 1173.31,442.38 1183.36,442.38 1183.36,497.16 1241.14,497.16 1241.14,442.38 1251.19,442.38 1251.19,502.19 1246.16,502.19 1246.16,507.21 1246.16,512.24 1251.19,512.24 1251.19,580.08 1241.14,580.08 1241.14,517.26 1087.89,517.26 1087.89,507.21 1087.89,497.16 1158.23,497.16 1158.23,442.38 1168.28,442.38 1168.28,502.19 1163.26,502.19 1163.26,507.21 1178.33,507.21 1178.33,502.19 1173.31,502.19" fill="#FF9800" fill-opacity="0.12" stroke="#FFB74D" stroke-width="0.6"/>
<polygon points="1062.77,507.21 1062.77,517.26 975.84,517.26 975.84,507.21 975.84,497.16 1062.77,497.16 1062.77,507.21" fill="#FF9800" fill-opacity="0.12" stroke="#FFB74D" stroke-width="0.6"/>
<polygon points="876.86,497.16 876.86,507.21 733.66,507.21 733.66,497.16 876.86,497.16" fill="#FF9800" fill-opacity="0.12" stroke="#FFB74D" stroke-width="0.6"/>
<polygon points="876.86,470.53 876.86,480.58 733.66,480.58 733.66,470.53 876.86,470.53" fill="#FF9800" fill-opacity="0.12" stroke="#FFB74D" stroke-width="0.6"/>
<polygon points="733.66,460.47 876.86,460.47 876.86,470.53 733.66,470.53 733.66,460.47" fill="#FF9800" fill-opacity="0.12" stroke="#FFB74D" stroke-width="0.6"/>
<polygon points="876.86,424.79 876.86,434.84 733.66,434.84 733.66,424.79 876.86,424.79" fill="#FF9800" fill-opacity="0.12" stroke="#FFB74D" stroke-width="0.6"/>
<polygon points="876.86,419.77 733.66,419.77 733.66,419.77 733.66,419.77 733.66,414.74 733.66,409.72 733.66,409.72 733.66,409.72 746.22,409.72 746.22,409.72 876.86,409.72 876.86,419.77" fill="#FF9800" fill-opacity="0.12" stroke="#FFB74D" stroke-width="0.6"/>
<polygon points="1241.14,269.00 1241.14,274.03 1251.19,274.03 1251.19,427.31 1241.14,427.31 1241.14,279.05 1092.91,279.05 1092.91,376.55 1082.86,376.55 1082.86,157.18 1092.91,157.18 1092.91,253.92 1241.14,253.92 1241.14,263.97 1092.91,263.97 1092.91,269.00 1241.14,269.00" fill="#FF9800" fill-opacity="0.12" stroke="#FFB74D" stroke-width="0.6"/>
<polygon points="1057.74,376.55 1057.74,157.18 1067.79,157.18 1067.79,376.55 1057.74,376.55" fill="#FF9800" fill-opacity="0.12" stroke="#FFB74D" stroke-width="0.6"/>
<polygon points="728.63,162.23 738.68,162.23 738.68,334.33 728.63,334.33 728.63,162.23" fill="#FF9800" fill-opacity="0.12" stroke="#FFB74D" stroke-width="0.6"/>
<polygon points="1087.88,108.43 1241.13,108.14 1241.15,118.19 1087.90,118.48 1087.88,108.43" fill="#FF9800" fill-opacity="0.12" stroke="#FFB74D" stroke-width="0.6"/>
<polygon points="733.66,108.18 1062.77,108.18 1062.77,118.23 733.66,118.23 733.66,108.18" fill="#FF9800" fill-opacity="0.12" stroke="#FFB74D" stroke-width="0.6"/>
<polygon points="1062.77,88.08 733.66,88.08 733.66,78.03 1062.77,78.03 1062.77,88.08" fill="#FF9800" fill-opacity="0.12" stroke="#FFB74D" stroke-width="0.6"/>
<polygon points="1241.13,77.74 1241.15,87.79 1087.90,88.08 1087.88,78.03 1241.13,77.74" fill="#FF9800" fill-opacity="0.12" stroke="#FFB74D" stroke-width="0.6"/>
<polygon points="1572.76,1220.10 1572.76,1220.10 1572.76,1227.64 1261.24,1227.64 1261.24,1217.59 1261.24,1217.59 1261.24,1210.05 1572.76,1210.05 1572.76,1220.10" fill="#FF9800" fill-opacity="0.12" stroke="#FFB74D" stroke-width="0.6"/>
<polygon points="1261.24,1187.44 1572.76,1187.44 1572.76,1197.49 1261.24,1197.49 1261.24,1187.44" fill="#FF9800" fill-opacity="0.12" stroke="#FFB74D" stroke-width="0.6"/>
<polygon points="1683.30,1019.08 1623.01,1019.08 1623.01,1009.03 1683.30,1009.03 1683.30,1019.08" fill="#FF9800" fill-opacity="0.12" stroke="#FFB74D" stroke-width="0.6"/>
<polygon points="1623.01,1004.00 1623.01,993.95 1683.30,993.95 1683.30,1004.00 1623.01,1004.00" fill="#FF9800" fill-opacity="0.12" stroke="#FFB74D" stroke-width="0.6"/>
<polygon points="1733.55,998.98 1723.50,998.98 1723.50,917.30 1733.55,917.30 1733.55,998.98" fill="#FF9800" fill-opacity="0.12" stroke="#FFB74D" stroke-width="0.6"/>
<polygon points="1718.48,917.30 1718.48,998.98 1708.43,998.98 1708.43,917.30 1718.48,917.30" fill="#FF9800" fill-opacity="0.12" stroke="#FFB74D" stroke-width="0.6"/>
<polygon points="1723.50,898.33 1723.50,776.58 1733.55,776.58 1733.55,898.33 1723.50,898.33" fill="#FF9800" fill-opacity="0.12" stroke="#FFB74D" stroke-width="0.6"/>
<polygon points="1708.43,776.58 1718.48,776.58 1718.48,898.33 1708.43,898.33 1708.43,776.58" fill="#FF9800" fill-opacity="0.12" stroke="#FFB74D" stroke-width="0.6"/>
<polygon points="1256.21,655.97 1261.24,655.97 1261.24,650.94 1572.76,650.94 1572.76,655.97 1577.79,655.97 1577.79,756.48 1572.76,756.48 1572.76,761.51 1572.76,761.51 1572.76,771.56 1432.86,771.56 1432.86,766.53 1432.86,771.56 1432.07,771.56 1432.07,910.27 1572.76,910.27 1572.76,920.32 1572.76,920.32 1572.76,930.37 1560.70,930.37 1560.70,988.66 1572.76,988.66 1572.76,998.72 1572.76,1008.77 1261.24,1008.77 1261.24,998.72 1261.24,988.66 1411.98,988.66 1411.98,771.56 1261.24,771.56 1261.24,761.51 1261.24,761.51 1261.24,756.48 1256.21,756.48 1256.21,655.97" fill="#FF9800" fill-opacity="0.12" stroke="#FFB74D" stroke-width="0.6"/>
<polygon points="1360.22,835.89 1355.20,835.89 1355.20,835.89 1355.20,840.91 1350.17,840.91 1350.17,835.89 1350.17,835.89 1345.15,835.89 1345.15,795.18 1350.17,795.18 1350.17,795.18 1350.17,790.15 1355.20,790.15 1355.20,795.18 1355.20,795.18 1360.22,795.18 1360.22,835.89" fill="#FF9800" fill-opacity="0.12" stroke="#FFB74D" stroke-width="0.6"/>
<polygon points="1898.86,781.61 1898.86,771.56 2041.05,771.56 2041.05,781.61 1898.86,781.61" fill="#FF9800" fill-opacity="0.12" stroke="#FFB74D" stroke-width="0.6"/>
<polygon points="1708.43,781.61 1597.89,781.61 1597.89,771.56 1708.43,771.56 1708.43,781.61" fill="#FF9800" fill-opacity="0.12" stroke="#FFB74D" stroke-width="0.6"/>
<polygon points="1897.85,751.46 2041.05,751.46 2041.05,761.51 1897.85,761.51 1897.85,751.46" fill="#FF9800" fill-opacity="0.12" stroke="#FFB74D" stroke-width="0.6"/>
<polygon points="1597.89,761.51 1597.89,751.46 1708.43,751.46 1708.43,761.51 1597.89,761.51" fill="#FF9800" fill-opacity="0.12" stroke="#FFB74D" stroke-width="0.6"/>
<polygon points="1592.86,756.48 1582.81,756.48 1582.81,655.97 1592.86,655.97 1592.86,756.48" fill="#FF9800" fill-opacity="0.12" stroke="#FFB74D" stroke-width="0.6"/>
<polygon points="1261.24,635.87 1572.76,635.87 1572.76,645.92 1261.24,645.92 1261.24,635.87" fill="#FF9800" fill-opacity="0.12" stroke="#FFB74D" stroke-width="0.6"/>
<polygon points="1587.84,640.89 1582.81,640.89 1582.81,625.81 1587.84,625.81 1587.84,620.78 1717.47,620.78 1717.47,625.81 1722.50,625.81 1722.50,640.89 1717.47,640.89 1717.47,645.92 1587.84,645.92 1587.84,640.89" fill="#FF9800" fill-opacity="0.12" stroke="#FFB74D" stroke-width="0.6"/>
<polygon points="1873.23,575.56 1873.23,565.51 1942.07,565.51 1942.07,575.56 1873.23,575.56" fill="#FF9800" fill-opacity="0.12" stroke="#FFB74D" stroke-width="0.6"/>
<polygon points="1957.14,575.56 1957.14,565.51 2100.34,565.51 2100.34,575.56 1957.14,575.56" fill="#FF9800" fill-opacity="0.12" stroke="#FFB74D" stroke-width="0.6"/>
<polygon points="1873.23,560.48 1873.23,550.43 1942.07,550.43 1942.07,560.48 1873.23,560.48" fill="#FF9800" fill-opacity="0.12" stroke="#FFB74D" stroke-width="0.6"/>
<polygon points="1957.14,560.48 1957.14,550.43 2100.34,550.43 2100.34,560.48 1957.14,560.48" fill="#FF9800" fill-opacity="0.12" stroke="#FFB74D" stroke-width="0.6"/>
<polygon points="1567.74,590.14 1567.74,447.41 1266.26,447.41 1266.26,590.14 1256.21,590.14 1256.21,442.38 1261.24,442.38 1261.24,437.36 1572.76,437.36 1572.76,442.38 1577.79,442.38 1577.79,590.14 1567.74,590.14" fill="#FF9800" fill-opacity="0.12" stroke="#FFB74D" stroke-width="0.6"/>
<polygon points="2100.34,517.26 1957.14,517.26 1957.14,507.21 2100.34,507.21 2100.34,517.26" fill="#FF9800" fill-opacity="0.12" stroke="#FFB74D" stroke-width="0.6"/>
<polygon points="1660.69,502.19 1655.67,502.19 1655.67,507.21 1670.74,507.21 1670.74,502.19 1665.72,502.19 1665.72,442.38 1675.77,442.38 1675.77,497.16 1746.11,497.16 1746.11,507.21 1746.11,517.26 1592.86,517.26 1592.86,580.08 1582.81,580.08 1582.81,512.24 1587.84,512.24 1587.84,507.21 1587.84,502.19 1582.81,502.19 1582.81,442.38 1592.86,442.38 1592.86,497.16 1650.64,497.16 1650.64,442.38 1660.69,442.38 1660.69,502.19" fill="#FF9800" fill-opacity="0.12" stroke="#FFB74D" stroke-width="0.6"/>
<polygon points="1771.23,517.26 1771.23,507.21 1771.23,497.16 1858.16,497.16 1858.16,507.21 1858.16,517.26 1771.23,517.26" fill="#FF9800" fill-opacity="0.12" stroke="#FFB74D" stroke-width="0.6"/>
<polygon points="1957.14,507.21 1957.14,497.16 2100.34,497.16 2100.34,507.21 1957.14,507.21" fill="#FF9800" fill-opacity="0.12" stroke="#FFB74D" stroke-width="0.6"/>
<polygon points="1957.14,480.58 1957.14,470.53 2100.34,470.53 2100.34,480.58 1957.14,480.58" fill="#FF9800" fill-opacity="0.12" stroke="#FFB74D" stroke-width="0.6"/>
<polygon points="1957.14,470.53 1957.14,460.47 2100.34,460.47 2100.34,470.53 1957.14,470.53" fill="#FF9800" fill-opacity="0.12" stroke="#FFB74D" stroke-width="0.6"/>
<polygon points="1577.79,427.31 1572.76,427.31 1572.76,432.33 1261.24,432.33 1261.24,427.31 1256.21,427.31 1256.21,274.03 1261.24,274.03 1261.24,269.00 1572.76,269.00 1572.76,274.03 1577.79,274.03 1577.79,427.31" fill="#FF9800" fill-opacity="0.12" stroke="#FFB74D" stroke-width="0.6"/>
<polygon points="1592.44,253.92 1741.09,253.92 1741.09,157.18 1751.14,157.18 1751.14,376.55 1741.09,376.55 1741.09,279.05 1592.86,279.05 1592.86,427.31 1582.81,427.31 1582.81,274.03 1592.44,274.03 1592.44,269.00 1741.09,269.00 1741.09,263.97 1592.44,263.97 1592.44,253.92" fill="#FF9800" fill-opacity="0.12" stroke="#FFB74D" stroke-width="0.6"/>
<polygon points="1776.26,376.55 1766.21,376.55 1766.21,157.18 1776.26,157.18 1776.26,376.55" fill="#FF9800" fill-opacity="0.12" stroke="#FFB74D" stroke-width="0.6"/>
<polygon points="1572.76,253.92 1572.76,263.97 1261.24,263.97 1261.24,253.92 1572.76,253.92" fill="#FF9800" fill-opacity="0.12" stroke="#FFB74D" stroke-width="0.6"/>
<polygon points="1572.77,122.66 1260.83,123.26 1260.81,113.21 1572.75,112.61 1572.77,122.66" fill="#FF9800" fill-opacity="0.12" stroke="#FFB74D" stroke-width="0.6"/>
<polygon points="1592.85,118.19 1592.87,108.14 1746.12,108.43 1746.10,118.48 1592.85,118.19" fill="#FF9800" fill-opacity="0.12" stroke="#FFB74D" stroke-width="0.6"/>
<polygon points="1771.23,118.23 1771.23,108.18 2100.34,108.18 2100.34,118.23 1771.23,118.23" fill="#FF9800" fill-opacity="0.12" stroke="#FFB74D" stroke-width="0.6"/>
<polygon points="2100.34,88.08 1771.23,88.08 1771.23,78.03 2100.34,78.03 2100.34,88.08" fill="#FF9800" fill-opacity="0.12" stroke="#FFB74D" stroke-width="0.6"/>
<polygon points="1592.85,87.79 1592.87,77.74 1746.12,78.03 1746.10,88.08 1592.85,87.79" fill="#FF9800" fill-opacity="0.12" stroke="#FFB74D" stroke-width="0.6"/>
<polygon points="1572.75,77.43 1572.77,87.48 1260.83,88.08 1260.81,78.03 1572.75,77.43" fill="#FF9800" fill-opacity="0.12" stroke="#FFB74D" stroke-width="0.6"/>
<polygon points="2361.06,1174.87 2361.06,1164.82 2527.65,1164.82 2527.65,1174.87 2361.06,1174.87" fill="#FF9800" fill-opacity="0.12" stroke="#FFB74D" stroke-width="0.6"/>
<polygon points="2542.73,1179.90 2560.31,1179.90 2560.31,1179.90 2603.02,1179.90 2603.02,1179.90 2613.07,1179.90 2613.07,1184.92 2618.10,1184.92 2618.10,1260.31 2613.07,1260.31 2613.07,1265.33 2623.12,1265.33 2623.12,1260.31 2618.10,1260.31 2618.10,1184.92 2623.12,1184.92 2623.13,1179.90 2743.71,1180.00 2822.85,1180.00 2822.85,1185.02 2827.87,1185.02 2827.87,1260.43 2822.95,1260.43 2822.95,1265.33 2832.90,1265.33 2832.90,982.63 2842.95,982.63 2842.95,1270.36 2837.92,1270.36 2837.92,1275.38 2527.65,1275.38 2527.65,1270.36 2522.63,1270.36 2522.63,1189.95 2361.06,1189.95 2361.06,1179.90 2527.65,1179.90 2527.65,1184.92 2532.68,1184.92 2532.68,1265.33 2543.77,1265.33 2542.72,1265.33 2542.73,1260.31 2537.66,1260.30 2537.70,1184.92 2542.73,1184.92 2542.73,1179.90" fill="#FF9800" fill-opacity="0.12" stroke="#FFB74D" stroke-width="0.6"/>
<polygon points="2359.33,1126.37 2248.07,1126.37 2248.07,1116.31 2359.33,1116.31 2359.33,1126.37" fill="#FF9800" fill-opacity="0.12" stroke="#FFB74D" stroke-width="0.6"/>
<polygon points="2359.33,1116.31 2248.06,1116.31 2248.06,1106.26 2359.33,1106.26 2359.33,1116.31" fill="#FF9800" fill-opacity="0.12" stroke="#FFB74D" stroke-width="0.6"/>
<polygon points="2232.99,1099.49 2130.49,1099.49 2130.49,1089.44 2232.99,1089.44 2232.99,1099.49" fill="#FF9800" fill-opacity="0.12" stroke="#FFB74D" stroke-width="0.6"/>
<polygon points="2195.31,1084.41 2195.31,1074.36 2227.97,1074.36 2227.97,1084.41 2195.31,1084.41" fill="#FF9800" fill-opacity="0.12" stroke="#FFB74D" stroke-width="0.6"/>
<polygon points="2827.87,1169.96 2822.85,1169.96 2822.85,1174.98 2751.03,1174.98 2751.03,1164.93 2817.82,1164.93 2817.82,982.63 2827.87,982.63 2827.87,1169.96" fill="#FF9800" fill-opacity="0.12" stroke="#FFB74D" stroke-width="0.6"/>
<polygon points="2537.70,982.63 2542.73,982.63 2542.73,977.61 2618.10,977.61 2618.10,982.63 2623.12,982.63 2623.12,982.63 2633.17,982.63 2633.17,1141.44 2647.24,1141.44 2647.24,1146.47 2652.26,1146.47 2652.26,1164.93 2697.23,1164.93 2697.23,1174.98 2542.73,1174.98 2542.73,1164.93 2613.07,1164.93 2613.07,1054.37 2542.73,1054.37 2542.73,1044.32 2542.73,1039.29 2537.70,1039.29 2537.70,982.63" fill="#FF9800" fill-opacity="0.12" stroke="#FFB74D" stroke-width="0.6"/>
<polygon points="2248.07,1058.02 2359.33,1058.02 2359.33,1068.07 2248.07,1068.07 2248.07,1058.02" fill="#FF9800" fill-opacity="0.12" stroke="#FFB74D" stroke-width="0.6"/>
<polygon points="2359.33,1058.02 2248.07,1058.02 2248.07,1047.97 2359.33,1047.97 2359.33,1058.02" fill="#FF9800" fill-opacity="0.12" stroke="#FFB74D" stroke-width="0.6"/>
<polygon points="2532.68,982.63 2532.68,1039.29 2522.63,1039.29 2522.63,982.63 2532.68,982.63" fill="#FF9800" fill-opacity="0.12" stroke="#FFB74D" stroke-width="0.6"/>
<polygon points="2618.10,972.60 2542.73,972.58 2542.73,962.53 2618.10,962.55 2618.10,972.60" fill="#FF9800" fill-opacity="0.12" stroke="#FFB74D" stroke-width="0.6"/>
<polygon points="2722.89,801.71 2732.94,801.71 2732.94,801.71 2742.99,801.71 2742.99,967.56 2732.94,967.56 2732.94,967.56 2722.89,967.56 2722.89,801.71" fill="#FF9800" fill-opacity="0.12" stroke="#FFB74D" stroke-width="0.6"/>
<polygon points="2737.96,791.66 2737.96,781.61 2746.00,781.61 2746.00,610.74 2756.05,610.74 2756.05,781.61 2805.80,781.61 2805.80,786.64 2810.82,786.64 2810.82,967.56 2800.77,967.56 2800.77,791.66 2737.96,791.66" fill="#FF9800" fill-opacity="0.12" stroke="#FFB74D" stroke-width="0.6"/>
<polygon points="2379.43,781.61 2379.43,771.56 2464.12,771.56 2464.12,781.61 2379.43,781.61" fill="#FF9800" fill-opacity="0.12" stroke="#FFB74D" stroke-width="0.6"/>
<polygon points="2204.35,781.61 2061.15,781.61 2061.15,771.56 2204.35,771.56 2204.35,781.61" fill="#FF9800" fill-opacity="0.12" stroke="#FFB74D" stroke-width="0.6"/>
<polygon points="2359.33,781.61 2224.45,781.61 2224.45,771.56 2359.33,771.56 2359.33,781.61" fill="#FF9800" fill-opacity="0.12" stroke="#FFB74D" stroke-width="0.6"/>
<polygon points="2061.15,751.46 2204.35,751.46 2204.35,761.51 2061.15,761.51 2061.15,751.46" fill="#FF9800" fill-opacity="0.12" stroke="#FFB74D" stroke-width="0.6"/>
<polygon points="2464.12,761.51 2325.45,761.51 2325.45,756.48 2325.45,761.51 2224.45,761.51 2224.45,751.46 2325.45,751.46 2325.45,751.46 2459.10,751.46 2459.10,640.89 2469.15,640.89 2469.15,756.48 2464.12,756.48 2464.12,761.51" fill="#FF9800" fill-opacity="0.12" stroke="#FFB74D" stroke-width="0.6"/>
<polygon points="2720.88,635.87 2720.88,610.74 2730.93,610.74 2730.93,786.64 2720.88,786.64 2720.88,661.00 2484.21,661.00 2484.21,756.48 2474.16,756.48 2474.16,655.97 2479.78,655.97 2479.78,650.94 2720.88,650.94 2720.88,645.92 2479.18,645.92 2479.18,635.87 2720.88,635.87" fill="#FF9800" fill-opacity="0.12" stroke="#FFB74D" stroke-width="0.6"/>
<polygon points="2258.62,565.51 2392.27,565.51 2392.27,570.54 2397.30,570.54 2397.30,570.54 2402.32,570.54 2402.32,565.51 2454.58,565.51 2454.58,575.56 2407.35,575.56 2407.35,640.89 2397.30,640.89 2397.30,640.89 2387.25,640.89 2387.25,575.56 2263.64,575.56 2263.64,640.89 2253.59,640.89 2253.59,570.54 2258.62,570.54 2258.62,565.51" fill="#FF9800" fill-opacity="0.12" stroke="#FFB74D" stroke-width="0.6"/>
<polygon points="2125.47,575.56 2125.47,565.51 2243.55,565.51 2243.55,570.54 2248.57,570.54 2248.57,640.89 2238.52,640.89 2238.52,575.56 2125.47,575.56" fill="#FF9800" fill-opacity="0.12" stroke="#FFB74D" stroke-width="0.6"/>
<polygon points="2479.70,575.62 2479.70,565.57 2725.90,565.46 2725.91,575.51 2479.70,575.62" fill="#FF9800" fill-opacity="0.12" stroke="#FFB74D" stroke-width="0.6"/>
<polygon points="2725.91,560.51 2479.70,560.51 2479.70,550.46 2725.91,550.46 2725.91,560.51" fill="#FF9800" fill-opacity="0.12" stroke="#FFB74D" stroke-width="0.6"/>
<polygon points="2454.58,560.48 2125.47,560.48 2125.47,550.43 2454.58,550.43 2454.58,560.48" fill="#FF9800" fill-opacity="0.12" stroke="#FFB74D" stroke-width="0.6"/>
<polygon points="2756.05,422.25 2756.05,532.82 2746.00,532.82 2746.00,422.25 2756.05,422.25" fill="#FF9800" fill-opacity="0.12" stroke="#FFB74D" stroke-width="0.6"/>
<polygon points="2730.93,532.82 2720.88,532.82 2720.88,422.25 2730.93,422.25 2730.93,532.82" fill="#FF9800" fill-opacity="0.12" stroke="#FFB74D" stroke-width="0.6"/>
<polygon points="1957.14,434.84 1957.14,424.79 2100.34,424.79 2100.34,434.84 1957.14,434.84" fill="#FF9800" fill-opacity="0.12" stroke="#FFB74D" stroke-width="0.6"/>
<polygon points="2100.34,409.72 2100.34,409.72 2100.34,414.74 2100.34,419.77 2100.34,419.77 2100.34,419.77 1957.14,419.77 1957.14,409.72 2087.78,409.72 2087.78,409.72 2100.34,409.72 2100.34,409.72" fill="#FF9800" fill-opacity="0.12" stroke="#FFB74D" stroke-width="0.6"/>
<polygon points="2474.68,422.78 2474.68,374.03 2484.73,374.03 2484.73,422.78 2474.68,422.78" fill="#FF9800" fill-opacity="0.12" stroke="#FFB74D" stroke-width="0.6"/>
<polygon points="2459.60,180.80 2459.60,495.15 2449.55,495.15 2449.55,180.80 2459.60,180.80" fill="#FF9800" fill-opacity="0.12" stroke="#FFB74D" stroke-width="0.6"/>
<polygon points="2477.19,349.16 2477.19,180.80 2487.24,180.80 2487.24,349.16 2477.19,349.16" fill="#FF9800" fill-opacity="0.12" stroke="#FFB74D" stroke-width="0.6"/>
<polygon points="2095.32,180.80 2105.37,180.80 2105.37,334.33 2095.32,334.33 2095.32,180.80" fill="#FF9800" fill-opacity="0.12" stroke="#FFB74D" stroke-width="0.6"/>
<polygon points="2130.49,175.11 2130.49,334.33 2120.44,334.33 2120.44,175.11 2130.49,175.11" fill="#FF9800" fill-opacity="0.12" stroke="#FFB74D" stroke-width="0.6"/>
<polygon points="2725.91,233.82 2725.91,243.87 2687.22,243.87 2687.22,238.85 2682.19,238.85 2682.19,118.23 2479.70,118.23 2479.70,108.18 2687.22,108.18 2687.22,113.21 2692.24,113.21 2692.24,233.82 2725.91,233.82" fill="#FF9800" fill-opacity="0.12" stroke="#FFB74D" stroke-width="0.6"/>
<polygon points="2702.29,223.77 2702.29,218.74 2697.27,218.74 2697.27,113.21 2702.29,113.21 2702.29,108.18 2725.91,108.18 2725.91,118.23 2707.32,118.23 2707.31,213.72 2725.91,213.72 2725.91,223.77 2702.29,223.77" fill="#FF9800" fill-opacity="0.12" stroke="#FFB74D" stroke-width="0.6"/>
<polygon points="2125.47,118.23 2125.47,108.18 2454.58,108.18 2454.58,118.23 2125.47,118.23" fill="#FF9800" fill-opacity="0.12" stroke="#FFB74D" stroke-width="0.6"/>
<polygon points="2454.58,78.03 2725.91,78.03 2725.91,88.08 2454.58,88.08 2454.58,88.08 2125.47,88.08 2125.47,78.03 2454.58,78.03 2454.58,83.05 2454.58,78.03" fill="#FF9800" fill-opacity="0.12" stroke="#FFB74D" stroke-width="0.6"/>
<polygon class="slab-poly" data-slab-id="SLAB-001" points="80.21,116.52 80.21,80.22 110.86,80.22 110.86,116.52 80.21,116.52" fill="#2196F3" fill-opacity="0.45" stroke="#2196F3" stroke-width="0.8"/>
<polygon class="slab-poly" data-slab-id="SLAB-002" points="105.33,116.52 105.33,80.22 134.47,80.22 134.47,116.52 105.33,116.52" fill="#2196F3" fill-opacity="0.45" stroke="#2196F3" stroke-width="0.8"/>
<polygon class="slab-poly" data-slab-id="SLAB-003" points="80.21,263.72 149.55,263.72 149.55,359.32 143.62,355.77 136.94,352.61 129.97,350.12 122.80,348.32 115.48,347.23 108.09,346.87 82.97,346.87 80.21,347.01 80.21,263.72" fill="#FF9800" fill-opacity="0.45" stroke="#FF9800" stroke-width="0.8"/>
<polygon class="slab-poly" data-slab-id="SLAB-004" points="80.21,269.25 80.21,80.22 149.55,80.22 149.55,269.25 80.21,269.25" fill="#2196F3" fill-opacity="0.45" stroke="#2196F3" stroke-width="0.8"/>
<polygon class="slab-poly" data-slab-id="SLAB-005" points="294.51,646.74 294.51,764.27 183.46,764.27 183.46,655.97 183.10,648.58 182.83,646.74 294.51,646.74" fill="#2196F3" fill-opacity="0.45" stroke="#2196F3" stroke-width="0.8"/>
<polygon class="slab-poly" data-slab-id="SLAB-006" points="295.68,557.73 294.87,563.15 294.51,570.54 294.51,652.27 183.28,652.27 183.10,648.58 182.02,641.26 180.22,634.09 177.73,627.12 174.56,620.44 170.76,614.09 166.36,608.15 161.39,602.67 155.91,597.70 151.45,594.39 155.91,591.09 161.39,586.12 166.36,580.64 170.76,574.70 174.56,568.35 177.73,561.66 179.13,557.73 295.68,557.73" fill="#2196F3" fill-opacity="0.45" stroke="#2196F3" stroke-width="0.8"/>
<polygon class="slab-poly" data-slab-id="SLAB-007" points="144.02,263.72 366.74,263.72 366.74,495.31 362.49,495.51 355.17,496.60 348.00,498.40 341.04,500.89 334.35,504.05 328.01,507.86 322.06,512.26 316.58,517.23 311.62,522.71 307.21,528.65 303.41,535.00 300.25,541.69 297.75,548.65 295.96,555.83 294.87,563.15 294.87,563.26 176.97,563.26 177.73,561.66 180.22,554.70 182.01,547.52 183.10,540.21 183.46,532.82 183.46,422.25 183.10,414.86 182.01,407.55 180.22,400.37 177.73,393.41 174.56,386.72 170.76,380.37 166.36,374.43 161.39,368.95 155.91,363.98 149.97,359.57 144.02,356.01 144.02,263.72" fill="#FF9800" fill-opacity="0.45" stroke="#FF9800" stroke-width="0.8"/>
<text x="262.2" y="398.3" fill="#fff" font-size="9" text-anchor="middle" dominant-baseline="middle" font-family="Segoe UI, sans-serif" paint-order="stroke" stroke="#000" stroke-width="2" pointer-events="none">SLAB-007</text>
<polygon class="slab-poly" data-slab-id="SLAB-008" points="144.02,269.25 144.02,80.22 366.74,80.22 366.74,269.25 144.02,269.25" fill="#FF9800" fill-opacity="0.45" stroke="#FF9800" stroke-width="0.8"/>
<text x="255.4" y="174.7" fill="#fff" font-size="9" text-anchor="middle" dominant-baseline="middle" font-family="Segoe UI, sans-serif" paint-order="stroke" stroke="#000" stroke-width="2" pointer-events="none">SLAB-008</text>
<polygon class="slab-poly" data-slab-id="SLAB-009" points="361.21,263.72 711.30,263.72 711.30,495.15 369.88,495.15 362.49,495.51 361.21,495.70 361.21,263.72" fill="#FF9800" fill-opacity="0.45" stroke="#FF9800" stroke-width="0.8"/>
<text x="536.3" y="379.4" fill="#fff" font-size="9" text-anchor="middle" dominant-baseline="middle" font-family="Segoe UI, sans-serif" paint-order="stroke" stroke="#000" stroke-width="2" pointer-events="none">SLAB-009</text>
<polygon class="slab-poly" data-slab-id="SLAB-010" points="361.21,269.25 361.21,80.22 711.30,80.22 711.30,269.25 361.21,269.25" fill="#FF9800" fill-opacity="0.45" stroke="#FF9800" stroke-width="0.8"/>
<text x="536.3" y="174.7" fill="#fff" font-size="9" text-anchor="middle" dominant-baseline="middle" font-family="Segoe UI, sans-serif" paint-order="stroke" stroke="#000" stroke-width="2" pointer-events="none">SLAB-010</text>
<polygon class="slab-poly" data-slab-id="SLAB-011" points="705.77,432.08 736.42,432.08 736.42,495.15 705.77,495.15 705.77,432.08" fill="#2196F3" fill-opacity="0.45" stroke="#2196F3" stroke-width="0.8"/>
<polygon class="slab-poly" data-slab-id="SLAB-012" points="705.77,437.61 705.77,263.72 736.42,263.72 736.42,437.61 705.77,437.61" fill="#2196F3" fill-opacity="0.45" stroke="#2196F3" stroke-width="0.8"/>
<polygon class="slab-poly" data-slab-id="SLAB-013" points="705.77,269.25 705.77,110.99 736.42,110.99 736.42,269.25 705.77,269.25" fill="#2196F3" fill-opacity="0.45" stroke="#2196F3" stroke-width="0.8"/>
<polygon class="slab-poly" data-slab-id="SLAB-014" points="705.77,116.52 705.77,80.22 736.42,80.22 736.42,116.52 705.77,116.52" fill="#2196F3" fill-opacity="0.45" stroke="#2196F3" stroke-width="0.8"/>
<polygon class="slab-poly" data-slab-id="SLAB-015" points="730.89,263.72 1065.53,263.72 1065.53,495.15 730.89,495.15 730.89,263.72" fill="#FF9800" fill-opacity="0.45" stroke="#FF9800" stroke-width="0.8"/>
<text x="898.2" y="379.4" fill="#fff" font-size="9" text-anchor="middle" dominant-baseline="middle" font-family="Segoe UI, sans-serif" paint-order="stroke" stroke="#000" stroke-width="2" pointer-events="none">SLAB-015</text>
<polygon class="slab-poly" data-slab-id="SLAB-016" points="730.89,269.25 730.89,80.22 1065.53,80.22 1065.53,269.25 730.89,269.25" fill="#FF9800" fill-opacity="0.45" stroke="#FF9800" stroke-width="0.8"/>
<text x="898.2" y="174.7" fill="#fff" font-size="9" text-anchor="middle" dominant-baseline="middle" font-family="Segoe UI, sans-serif" paint-order="stroke" stroke="#000" stroke-width="2" pointer-events="none">SLAB-016</text>
<polygon class="slab-poly" data-slab-id="SLAB-017" points="1060.00,432.08 1090.65,432.08 1090.65,495.15 1060.00,495.15 1060.00,432.08" fill="#2196F3" fill-opacity="0.45" stroke="#2196F3" stroke-width="0.8"/>
<polygon class="slab-poly" data-slab-id="SLAB-018" points="1060.00,437.61 1060.00,263.72 1090.65,263.72 1090.65,437.61 1060.00,437.61" fill="#2196F3" fill-opacity="0.45" stroke="#2196F3" stroke-width="0.8"/>
<polygon class="slab-poly" data-slab-id="SLAB-019" points="1060.00,269.25 1060.00,110.99 1090.65,110.99 1090.65,269.25 1060.00,269.25" fill="#2196F3" fill-opacity="0.45" stroke="#2196F3" stroke-width="0.8"/>
<polygon class="slab-poly" data-slab-id="SLAB-020" points="1060.00,116.52 1060.00,80.22 1090.65,80.22 1090.65,116.52 1060.00,116.52" fill="#2196F3" fill-opacity="0.45" stroke="#2196F3" stroke-width="0.8"/>
<polygon class="slab-poly" data-slab-id="SLAB-021" points="1085.12,263.72 1257.97,263.72 1257.97,495.15 1085.12,495.15 1085.12,263.72" fill="#2196F3" fill-opacity="0.45" stroke="#2196F3" stroke-width="0.8"/>
<text x="1171.5" y="379.4" fill="#fff" font-size="9" text-anchor="middle" dominant-baseline="middle" font-family="Segoe UI, sans-serif" paint-order="stroke" stroke="#000" stroke-width="2" pointer-events="none">SLAB-021</text>
<polygon class="slab-poly" data-slab-id="SLAB-022" points="1085.12,269.25 1085.12,80.22 1257.97,80.22 1257.97,269.25 1085.12,269.25" fill="#2196F3" fill-opacity="0.45" stroke="#2196F3" stroke-width="0.8"/>
<text x="1171.5" y="174.7" fill="#fff" font-size="9" text-anchor="middle" dominant-baseline="middle" font-family="Segoe UI, sans-serif" paint-order="stroke" stroke="#000" stroke-width="2" pointer-events="none">SLAB-022</text>
<polygon class="slab-poly" data-slab-id="SLAB-023" points="1252.44,263.72 1581.56,263.72 1581.56,495.15 1252.44,495.15 1252.44,263.72" fill="#2196F3" fill-opacity="0.45" stroke="#2196F3" stroke-width="0.8"/>
<text x="1417.0" y="379.4" fill="#fff" font-size="9" text-anchor="middle" dominant-baseline="middle" font-family="Segoe UI, sans-serif" paint-order="stroke" stroke="#000" stroke-width="2" pointer-events="none">SLAB-023</text>
<polygon class="slab-poly" data-slab-id="SLAB-024" points="1252.44,269.25 1252.44,80.22 1581.56,80.22 1581.56,269.25 1252.44,269.25" fill="#2196F3" fill-opacity="0.45" stroke="#2196F3" stroke-width="0.8"/>
<text x="1417.0" y="174.7" fill="#fff" font-size="9" text-anchor="middle" dominant-baseline="middle" font-family="Segoe UI, sans-serif" paint-order="stroke" stroke="#000" stroke-width="2" pointer-events="none">SLAB-024</text>
<polygon class="slab-poly" data-slab-id="SLAB-025" points="1576.03,263.72 1748.88,263.72 1748.88,495.15 1576.03,495.15 1576.03,263.72" fill="#2196F3" fill-opacity="0.45" stroke="#2196F3" stroke-width="0.8"/>
<text x="1662.5" y="379.4" fill="#fff" font-size="9" text-anchor="middle" dominant-baseline="middle" font-family="Segoe UI, sans-serif" paint-order="stroke" stroke="#000" stroke-width="2" pointer-events="none">SLAB-025</text>
<polygon class="slab-poly" data-slab-id="SLAB-026" points="1576.03,269.25 1576.03,80.22 1748.88,80.22 1748.88,269.25 1576.03,269.25" fill="#2196F3" fill-opacity="0.45" stroke="#2196F3" stroke-width="0.8"/>
<text x="1662.5" y="174.7" fill="#fff" font-size="9" text-anchor="middle" dominant-baseline="middle" font-family="Segoe UI, sans-serif" paint-order="stroke" stroke="#000" stroke-width="2" pointer-events="none">SLAB-026</text>
<polygon class="slab-poly" data-slab-id="SLAB-027" points="1743.35,432.08 1774.00,432.08 1774.00,495.15 1743.35,495.15 1743.35,432.08" fill="#2196F3" fill-opacity="0.45" stroke="#2196F3" stroke-width="0.8"/>
<polygon class="slab-poly" data-slab-id="SLAB-028" points="1743.35,437.61 1743.35,263.72 1774.00,263.72 1774.00,437.61 1743.35,437.61" fill="#2196F3" fill-opacity="0.45" stroke="#2196F3" stroke-width="0.8"/>
<polygon class="slab-poly" data-slab-id="SLAB-029" points="1743.35,269.25 1743.35,110.99 1774.00,110.99 1774.00,269.25 1743.35,269.25" fill="#2196F3" fill-opacity="0.45" stroke="#2196F3" stroke-width="0.8"/>
<polygon class="slab-poly" data-slab-id="SLAB-030" points="1743.35,116.52 1743.35,80.22 1774.00,80.22 1774.00,116.52 1743.35,116.52" fill="#2196F3" fill-opacity="0.45" stroke="#2196F3" stroke-width="0.8"/>
<polygon class="slab-poly" data-slab-id="SLAB-031" points="1768.47,263.72 2103.11,263.72 2103.11,495.15 1768.47,495.15 1768.47,263.72" fill="#FF9800" fill-opacity="0.45" stroke="#FF9800" stroke-width="0.8"/>
<text x="1935.8" y="379.4" fill="#fff" font-size="9" text-anchor="middle" dominant-baseline="middle" font-family="Segoe UI, sans-serif" paint-order="stroke" stroke="#000" stroke-width="2" pointer-events="none">SLAB-031</text>
<polygon class="slab-poly" data-slab-id="SLAB-032" points="1768.47,269.25 1768.47,80.22 2103.11,80.22 2103.11,269.25 1768.47,269.25" fill="#FF9800" fill-opacity="0.45" stroke="#FF9800" stroke-width="0.8"/>
<text x="1935.8" y="174.7" fill="#fff" font-size="9" text-anchor="middle" dominant-baseline="middle" font-family="Segoe UI, sans-serif" paint-order="stroke" stroke="#000" stroke-width="2" pointer-events="none">SLAB-032</text>
<polygon class="slab-poly" data-slab-id="SLAB-033" points="2097.58,432.08 2128.23,432.08 2128.23,495.15 2097.58,495.15 2097.58,432.08" fill="#2196F3" fill-opacity="0.45" stroke="#2196F3" stroke-width="0.8"/>
<polygon class="slab-poly" data-slab-id="SLAB-034" points="2097.58,437.61 2097.58,263.72 2128.23,263.72 2128.23,437.61 2097.58,437.61" fill="#2196F3" fill-opacity="0.45" stroke="#2196F3" stroke-width="0.8"/>
<polygon class="slab-poly" data-slab-id="SLAB-035" points="2097.58,269.25 2097.58,110.99 2128.23,110.99 2128.23,269.25 2097.58,269.25" fill="#2196F3" fill-opacity="0.45" stroke="#2196F3" stroke-width="0.8"/>
<polygon class="slab-poly" data-slab-id="SLAB-036" points="2097.58,116.52 2097.58,80.22 2128.23,80.22 2128.23,116.52 2097.58,116.52" fill="#2196F3" fill-opacity="0.45" stroke="#2196F3" stroke-width="0.8"/>
<polygon class="slab-poly" data-slab-id="SLAB-037" points="2122.70,263.72 2472.79,263.72 2472.79,495.70 2471.51,495.51 2464.12,495.15 2122.70,495.15 2122.70,263.72" fill="#FF9800" fill-opacity="0.45" stroke="#FF9800" stroke-width="0.8"/>
<text x="2297.7" y="379.4" fill="#fff" font-size="9" text-anchor="middle" dominant-baseline="middle" font-family="Segoe UI, sans-serif" paint-order="stroke" stroke="#000" stroke-width="2" pointer-events="none">SLAB-037</text>
<polygon class="slab-poly" data-slab-id="SLAB-038" points="2122.70,269.25 2122.70,80.22 2472.79,80.22 2472.79,269.25 2122.70,269.25" fill="#FF9800" fill-opacity="0.45" stroke="#FF9800" stroke-width="0.8"/>
<text x="2297.7" y="174.7" fill="#fff" font-size="9" text-anchor="middle" dominant-baseline="middle" font-family="Segoe UI, sans-serif" paint-order="stroke" stroke="#000" stroke-width="2" pointer-events="none">SLAB-038</text>
<polygon class="slab-poly" data-slab-id="SLAB-039" points="2651.17,646.74 2650.90,648.58 2650.54,655.97 2650.54,764.27 2539.49,764.27 2539.49,646.74 2651.17,646.74" fill="#2196F3" fill-opacity="0.45" stroke="#2196F3" stroke-width="0.8"/>
<polygon class="slab-poly" data-slab-id="SLAB-040" points="2654.86,557.73 2656.27,561.67 2659.44,568.35 2663.24,574.70 2667.64,580.64 2672.61,586.12 2678.09,591.09 2682.55,594.40 2678.09,597.70 2672.61,602.67 2667.65,608.15 2663.24,614.09 2659.44,620.44 2656.27,627.12 2653.78,634.09 2651.99,641.27 2650.90,648.58 2650.72,652.27 2539.49,652.27 2539.49,570.54 2539.13,563.15 2538.32,557.73 2654.86,557.73" fill="#2196F3" fill-opacity="0.45" stroke="#2196F3" stroke-width="0.8"/>
<polygon class="slab-poly" data-slab-id="SLAB-041" points="2467.26,263.72 2689.98,263.72 2689.98,356.01 2684.03,359.58 2678.09,363.98 2672.61,368.95 2667.64,374.43 2663.24,380.37 2659.44,386.72 2656.27,393.41 2653.78,400.37 2651.98,407.55 2650.90,414.87 2650.54,422.26 2650.54,532.82 2650.90,540.21 2651.98,547.53 2653.78,554.70 2656.27,561.67 2657.03,563.26 2539.13,563.26 2539.13,563.15 2538.04,555.83 2536.25,548.65 2533.75,541.69 2530.59,535.00 2526.79,528.65 2522.38,522.71 2517.42,517.23 2511.94,512.26 2505.99,507.86 2499.65,504.05 2492.96,500.89 2486.00,498.40 2478.83,496.60 2471.51,495.51 2467.26,495.31 2467.26,263.72" fill="#FF9800" fill-opacity="0.45" stroke="#FF9800" stroke-width="0.8"/>
<text x="2571.8" y="398.3" fill="#fff" font-size="9" text-anchor="middle" dominant-baseline="middle" font-family="Segoe UI, sans-serif" paint-order="stroke" stroke="#000" stroke-width="2" pointer-events="none">SLAB-041</text>
<polygon class="slab-poly" data-slab-id="SLAB-042" points="2467.26,269.25 2467.26,80.22 2689.98,80.22 2689.98,269.25 2467.26,269.25" fill="#2196F3" fill-opacity="0.45" stroke="#2196F3" stroke-width="0.8"/>
<text x="2578.6" y="174.7" fill="#fff" font-size="9" text-anchor="middle" dominant-baseline="middle" font-family="Segoe UI, sans-serif" paint-order="stroke" stroke="#000" stroke-width="2" pointer-events="none">SLAB-042</text>
<polygon class="slab-poly" data-slab-id="SLAB-043" points="2699.53,116.52 2699.53,80.22 2728.67,80.22 2728.67,116.52 2699.53,116.52" fill="#2196F3" fill-opacity="0.45" stroke="#2196F3" stroke-width="0.8"/>
<polygon class="slab-poly" data-slab-id="SLAB-044" points="2684.45,263.72 2753.79,263.72 2753.79,347.01 2751.03,346.87 2725.91,346.87 2718.52,347.24 2711.20,348.32 2704.03,350.12 2697.06,352.61 2690.38,355.77 2684.45,359.32 2684.45,263.72" fill="#FF9800" fill-opacity="0.45" stroke="#FF9800" stroke-width="0.8"/>
<polygon class="slab-poly" data-slab-id="SLAB-045" points="2684.45,269.25 2684.45,80.22 2753.79,80.22 2753.79,269.25 2684.45,269.25" fill="#2196F3" fill-opacity="0.45" stroke="#2196F3" stroke-width="0.8"/>
<polygon class="slab-poly" data-slab-id="SLAB-046" points="2723.14,116.52 2723.14,80.22 2753.79,80.22 2753.79,116.52 2723.14,116.52" fill="#2196F3" fill-opacity="0.45" stroke="#2196F3" stroke-width="0.8"/>
<polygon class="slab-poly" data-slab-id="SLAB-047" points="316.65,1260.11 316.65,1519.78 110.14,1519.78 110.14,1335.81 213.77,1335.81 221.15,1335.45 228.47,1334.36 235.64,1332.56 242.61,1330.07 249.29,1326.91 255.64,1323.11 261.58,1318.70 267.06,1313.73 272.03,1308.25 276.43,1302.31 280.24,1295.96 283.40,1289.27 285.89,1282.31 287.69,1275.13 288.77,1267.82 289.13,1260.43 289.13,1260.11 316.65,1260.11" fill="#2196F3" fill-opacity="0.45" stroke="#2196F3" stroke-width="0.8"/>
<text x="219.7" y="1418.0" fill="#fff" font-size="9" text-anchor="middle" dominant-baseline="middle" font-family="Segoe UI, sans-serif" paint-order="stroke" stroke="#000" stroke-width="2" pointer-events="none">SLAB-047</text>
<polygon class="slab-poly" data-slab-id="SLAB-048" points="316.65,1481.25 110.14,1481.25 110.14,1335.81 213.77,1335.81 221.15,1335.45 228.47,1334.36 235.64,1332.56 242.61,1330.07 249.29,1326.91 255.64,1323.11 261.58,1318.70 267.06,1313.73 272.03,1308.25 276.43,1302.31 280.24,1295.96 283.40,1289.27 285.89,1282.31 287.69,1275.13 288.77,1267.82 289.13,1260.43 289.13,1247.46 292.22,1247.46 299.61,1247.10 306.92,1246.02 314.10,1244.22 316.65,1243.30 316.65,1481.25" fill="#2196F3" fill-opacity="0.45" stroke="#2196F3" stroke-width="0.8"/>
<text x="222.1" y="1396.7" fill="#fff" font-size="9" text-anchor="middle" dominant-baseline="middle" font-family="Segoe UI, sans-serif" paint-order="stroke" stroke="#000" stroke-width="2" pointer-events="none">SLAB-048</text>
<polygon class="slab-poly" data-slab-id="SLAB-049" points="316.65,917.55 316.65,978.12 314.10,977.21 306.92,975.41 299.61,974.32 292.22,973.96 215.90,973.96 208.52,974.32 201.20,975.41 194.02,977.21 187.06,979.70 180.37,982.86 174.03,986.66 168.09,991.07 167.33,991.76 168.16,989.44 169.96,982.26 171.04,974.95 171.41,967.56 171.41,917.55 316.65,917.55" fill="#2196F3" fill-opacity="0.45" stroke="#2196F3" stroke-width="0.8"/>
</svg>