<svg xmlns="http://www.w3.org/2000/svg" width="2143" height="1600" viewBox="0 0 2143 1600">
<rect width="100%" height="100%" fill="#121212"/>
<polygon points="261.99,1405.03 468.62,1405.03 468.62,1417.49 261.99,1417.49 261.99,1405.03" fill="#FF9800" fill-opacity="0.12" stroke="#FFB74D" stroke-width="0.6"/>
<polygon points="156.04,1423.73 168.51,1423.73 168.51,1423.73 221.48,1423.73 221.48,1423.73 243.29,1423.73 243.29,1429.96 249.52,1429.96 249.58,1523.45 243.29,1523.45 243.30,1529.68 241.99,1529.68 255.76,1529.68 255.76,1429.96 261.99,1429.96 261.99,1423.73 468.62,1423.73 468.62,1436.19 268.22,1436.19 268.22,1535.92 261.99,1535.92 261.99,1542.15 -122.85,1542.15 -122.85,1535.92 -129.08,1535.92 -129.08,1179.08 -116.61,1179.08 -116.61,1529.68 -104.27,1529.68 -104.27,1523.60 -110.38,1523.60 -110.38,1430.08 -104.15,1430.08 -104.15,1423.85 -6.00,1423.85 143.57,1423.73 143.58,1429.96 149.81,1429.96 149.81,1523.45 149.81,1429.96 156.04,1429.96 156.04,1423.73" fill="#FF9800" fill-opacity="0.12" stroke="#FFB74D" stroke-width="0.6"/>
<polygon points="608.77,1344.87 608.77,1357.34 470.76,1357.34 470.76,1344.87 608.77,1344.87" fill="#FF9800" fill-opacity="0.12" stroke="#FFB74D" stroke-width="0.6"/>
<polygon points="608.77,1332.41 608.77,1344.87 470.76,1344.87 470.76,1332.41 608.77,1332.41" fill="#FF9800" fill-opacity="0.12" stroke="#FFB74D" stroke-width="0.6"/>
<polygon points="627.46,1311.54 754.60,1311.54 754.60,1324.00 627.46,1324.00 627.46,1311.54" fill="#FF9800" fill-opacity="0.12" stroke="#FFB74D" stroke-width="0.6"/>
<polygon points="674.21,1292.84 674.21,1305.31 633.70,1305.31 633.70,1292.84 674.21,1292.84" fill="#FF9800" fill-opacity="0.12" stroke="#FFB74D" stroke-width="0.6"/>
<polygon points="-110.38,1179.08 -97.92,1179.08 -97.92,1405.17 -15.07,1405.17 -15.07,1417.63 -104.15,1417.63 -104.15,1411.40 -110.38,1411.40 -110.38,1179.08" fill="#FF9800" fill-opacity="0.12" stroke="#FFB74D" stroke-width="0.6"/>
<polygon points="243.29,1172.85 243.29,1179.08 249.52,1179.08 249.52,1249.35 243.29,1249.35 243.29,1255.58 243.29,1268.05 156.04,1268.05 156.04,1405.17 243.29,1405.17 243.29,1417.63 51.65,1417.63 51.65,1405.17 107.43,1405.17 107.43,1388.50 53.21,1388.50 53.21,1378.55 53.21,1378.55 53.22,1366.09 131.11,1366.11 131.11,1179.08 143.58,1179.08 143.58,1179.08 149.81,1179.08 149.81,1172.85 243.29,1172.85" fill="#FF9800" fill-opacity="0.12" stroke="#FFB74D" stroke-width="0.6"/>
<polygon points="608.77,1272.57 608.77,1285.04 470.76,1285.04 470.76,1272.57 608.77,1272.57" fill="#FF9800" fill-opacity="0.12" stroke="#FFB74D" stroke-width="0.6"/>
<polygon points="470.76,1260.11 608.77,1260.11 608.77,1272.57 470.76,1272.57 470.76,1260.11" fill="#FF9800" fill-opacity="0.12" stroke="#FFB74D" stroke-width="0.6"/>
<polygon points="268.22,1249.35 255.76,1249.35 255.76,1179.08 268.22,1179.08 268.22,1249.35" fill="#FF9800" fill-opacity="0.12" stroke="#FFB74D" stroke-width="0.6"/>
<polygon points="608.77,1179.08 608.77,1191.55 470.76,1191.55 470.76,1179.08 608.77,1179.08" fill="#FF9800" fill-opacity="0.12" stroke="#FFB74D" stroke-width="0.6"/>
<polygon points="243.29,1154.15 243.29,1166.62 149.81,1166.64 149.81,1154.18 243.29,1154.15" fill="#FF9800" fill-opacity="0.12" stroke="#FFB74D" stroke-width="0.6"/>
<polygon points="470.76,1154.15 608.77,1154.15 608.77,1166.62 470.76,1166.62 470.76,1154.15" fill="#FF9800" fill-opacity="0.12" stroke="#FFB74D" stroke-width="0.6"/>
<polygon points="7.37,954.71 19.83,954.71 19.83,1160.38 7.37,1160.38 7.37,1160.38 -5.10,1160.38 -5.10,954.71 7.37,954.71 7.37,954.71" fill="#FF9800" fill-opacity="0.12" stroke="#FFB74D" stroke-width="0.6"/>
<polygon points="-76.77,942.24 -76.77,1160.38 -89.23,1160.38 -89.23,936.01 -83.00,936.01 -83.00,929.77 -21.30,929.77 -21.30,717.86 -8.84,717.86 -8.84,929.77 1.14,929.77 1.14,942.24 -76.77,942.24" fill="#FF9800" fill-opacity="0.12" stroke="#FFB74D" stroke-width="0.6"/>
<polygon points="445.84,929.77 340.79,929.77 340.79,917.31 445.84,917.31 445.84,929.77" fill="#FF9800" fill-opacity="0.12" stroke="#FFB74D" stroke-width="0.6"/>
<polygon points="638.06,917.31 638.06,929.77 470.76,929.77 470.76,917.31 638.06,917.31" fill="#FF9800" fill-opacity="0.12" stroke="#FFB74D" stroke-width="0.6"/>
<polygon points="512.79,904.84 512.79,898.61 512.79,904.84 340.79,904.84 340.79,898.61 334.56,898.61 334.56,773.96 347.02,773.96 347.02,892.38 512.79,892.38 512.79,892.38 638.06,892.38 638.06,904.84 512.79,904.84" fill="#FF9800" fill-opacity="0.12" stroke="#FFB74D" stroke-width="0.6"/>
<polygon points="22.32,936.01 9.86,936.01 9.86,717.86 22.32,717.86 22.32,749.03 315.88,749.03 315.88,674.30 16.09,674.17 16.09,661.70 321.47,661.84 321.47,668.00 328.34,668.00 328.34,755.26 322.11,755.26 322.11,761.49 22.32,761.49 22.32,767.73 321.36,767.73 321.36,773.96 328.34,773.96 328.34,898.61 315.88,898.61 315.88,780.19 22.32,780.19 22.32,936.01" fill="#FF9800" fill-opacity="0.12" stroke="#FFB74D" stroke-width="0.6"/>
<polygon points="840.60,892.38 840.60,904.84 662.98,904.84 662.98,892.38 820.94,892.38 755.51,674.23 661.11,674.23 661.11,661.77 760.83,661.77 760.83,667.80 766.11,666.21 833.96,892.38 840.60,892.38" fill="#FF9800" fill-opacity="0.12" stroke="#FFB74D" stroke-width="0.6"/>
<polygon points="347.02,668.00 347.04,668.00 347.04,755.26 334.57,755.26 334.57,689.82 334.56,689.82 334.56,668.00 347.02,668.00 347.02,668.00" fill="#FF9800" fill-opacity="0.12" stroke="#FFB74D" stroke-width="0.6"/>
<polygon points="620.61,755.26 608.14,755.26 608.14,668.00 620.61,668.00 620.61,755.26" fill="#FF9800" fill-opacity="0.12" stroke="#FFB74D" stroke-width="0.6"/>
<polygon points="429.90,661.77 595.68,661.77 595.68,668.00 601.91,668.00 601.91,755.26 589.45,755.26 589.45,674.23 436.14,674.23 436.14,755.26 423.67,755.26 423.67,755.26 411.21,755.26 411.21,674.23 352.63,674.23 352.63,661.77 417.44,661.77 417.44,668.00 423.67,668.00 423.67,668.00 429.90,668.00 429.90,661.77" fill="#FF9800" fill-opacity="0.12" stroke="#FFB74D" stroke-width="0.6"/>
<polygon points="321.47,499.72 327.70,499.72 327.70,649.30 321.47,649.30 321.47,655.54 321.47,655.57 16.09,655.57 16.09,643.10 221.75,643.10 221.75,499.72 227.98,499.72 227.98,493.49 321.47,493.49 321.47,499.72" fill="#FF9800" fill-opacity="0.12" stroke="#FFB74D" stroke-width="0.6"/>
<polygon points="452.37,499.72 458.60,499.72 458.60,643.07 760.83,643.07 760.83,655.54 352.63,655.54 352.63,655.54 352.63,655.54 352.63,649.30 352.63,649.30 346.39,649.30 346.39,499.72 352.63,499.72 352.63,493.49 452.37,493.49 452.37,499.72" fill="#FF9800" fill-opacity="0.12" stroke="#FFB74D" stroke-width="0.6"/>
<polygon points="-8.84,621.22 -21.30,621.22 -21.30,484.11 -8.84,484.11 -8.84,621.22" fill="#FF9800" fill-opacity="0.12" stroke="#FFB74D" stroke-width="0.6"/>
<polygon points="22.32,621.22 9.86,621.22 9.86,484.11 22.32,484.11 22.32,621.22" fill="#FF9800" fill-opacity="0.12" stroke="#FFB74D" stroke-width="0.6"/>
<polygon points="327.70,484.76 315.23,484.76 315.23,424.30 327.70,424.30 327.70,484.76" fill="#FF9800" fill-opacity="0.12" stroke="#FFB74D" stroke-width="0.6"/>
<polygon points="358.86,481.02 346.39,481.02 346.39,424.30 358.86,424.30 358.86,481.02" fill="#FF9800" fill-opacity="0.12" stroke="#FFB74D" stroke-width="0.6"/>
<polygon points="324.58,305.88 324.58,362.60 312.12,362.60 312.12,305.88 324.58,305.88" fill="#FF9800" fill-opacity="0.12" stroke="#FFB74D" stroke-width="0.6"/>
<polygon points="358.86,362.60 346.39,362.60 346.39,305.88 358.86,305.88 358.86,362.60" fill="#FF9800" fill-opacity="0.12" stroke="#FFB74D" stroke-width="0.6"/>
<polygon points="57.85,250.41 57.85,100.83 64.08,100.83 64.08,94.60 321.47,94.60 321.47,107.06 70.31,107.06 70.31,250.41 109.57,250.41 109.57,256.65 115.81,256.65 115.81,412.46 109.57,412.46 109.57,418.69 16.09,418.69 16.09,412.46 9.86,412.46 9.86,256.65 16.09,256.65 16.09,250.41 57.85,250.41" fill="#FF9800" fill-opacity="0.12" stroke="#FFB74D" stroke-width="0.6"/>
<polygon points="39.15,107.06 16.09,107.06 16.09,94.60 45.38,94.60 45.38,100.83 51.61,100.83 51.61,231.71 45.38,231.71 45.38,237.95 16.09,237.95 16.09,225.48 39.15,225.48 39.15,107.06" fill="#FF9800" fill-opacity="0.12" stroke="#FFB74D" stroke-width="0.6"/>
<polygon points="760.83,160.04 760.83,166.27 548.94,166.27 548.94,160.04 542.71,160.04 542.71,107.06 352.63,107.06 352.63,94.60 542.71,94.60 542.71,69.66 548.94,69.66 548.94,69.66 352.63,69.66 352.63,69.66 16.09,69.66 16.09,57.20 352.63,57.20 352.63,63.43 352.63,57.20 760.83,57.20 760.83,69.66 767.06,69.66 767.06,160.04 760.83,160.04" fill="#FF9800" fill-opacity="0.12" stroke="#FFB74D" stroke-width="0.6"/>
<polygon points="1832.75,1473.59 1832.75,1473.59 1832.75,1482.94 1446.36,1482.94 1446.36,1470.47 1446.36,1470.47 1446.36,1461.12 1832.75,1461.12 1832.75,1473.59" fill="#FF9800" fill-opacity="0.12" stroke="#FFB74D" stroke-width="0.6"/>
<polygon points="1384.04,1211.82 1384.04,1224.28 1309.26,1224.28 1309.26,1211.82 1384.04,1211.82" fill="#FF9800" fill-opacity="0.12" stroke="#FFB74D" stroke-width="0.6"/>
<polygon points="1309.26,1193.12 1384.04,1193.12 1384.04,1205.58 1309.26,1205.58 1309.26,1193.12" fill="#FF9800" fill-opacity="0.12" stroke="#FFB74D" stroke-width="0.6"/>
<polygon points="1259.40,1199.35 1246.93,1199.35 1246.93,1098.06 1259.40,1098.06 1259.40,1199.35" fill="#FF9800" fill-opacity="0.12" stroke="#FFB74D" stroke-width="0.6"/>
<polygon points="1278.09,1199.35 1265.63,1199.35 1265.63,1098.06 1278.09,1098.06 1278.09,1199.35" fill="#FF9800" fill-opacity="0.12" stroke="#FFB74D" stroke-width="0.6"/>
<polygon points="1246.93,923.54 1259.40,923.54 1259.40,1074.53 1246.93,1074.53 1246.93,923.54" fill="#FF9800" fill-opacity="0.12" stroke="#FFB74D" stroke-width="0.6"/>
<polygon points="1265.63,1074.53 1265.63,923.54 1278.09,923.54 1278.09,1074.53 1265.63,1074.53" fill="#FF9800" fill-opacity="0.12" stroke="#FFB74D" stroke-width="0.6"/>
<polygon points="1446.36,1211.49 1446.36,1199.03 1446.36,1186.56 1633.33,1186.56 1633.33,917.31 1446.36,917.31 1446.36,904.84 1446.36,904.84 1446.36,898.61 1440.13,898.61 1440.13,773.96 1446.36,773.96 1446.36,767.73 1832.75,767.73 1832.75,773.96 1838.98,773.96 1838.98,898.61 1832.75,898.61 1832.75,904.84 1832.75,904.84 1832.75,917.31 1702.54,917.31 1702.54,1042.58 1832.79,1042.58 1832.79,1055.05 1832.79,1055.05 1832.79,1067.52 1702.54,1067.52 1702.54,1089.33 1832.75,1089.33 1832.75,1101.80 1832.75,1114.26 1817.80,1114.26 1817.80,1186.56 1832.75,1186.56 1832.75,1199.03 1832.75,1211.49 1446.36,1211.49" fill="#FF9800" fill-opacity="0.12" stroke="#FFB74D" stroke-width="0.6"/>
<polygon points="662.98,917.31 840.60,917.31 840.60,929.77 662.98,929.77 662.98,917.31" fill="#FF9800" fill-opacity="0.12" stroke="#FFB74D" stroke-width="0.6"/>
<polygon points="1278.10,917.31 1415.20,917.31 1415.20,929.77 1278.10,929.77 1278.10,917.31" fill="#FF9800" fill-opacity="0.12" stroke="#FFB74D" stroke-width="0.6"/>
<polygon points="1043.14,917.31 1043.14,929.77 854.04,929.77 854.04,917.31 1043.14,917.31" fill="#FF9800" fill-opacity="0.12" stroke="#FFB74D" stroke-width="0.6"/>
<polygon points="1043.14,892.38 1043.14,904.84 917.88,904.84 917.88,892.38 1043.14,892.38" fill="#FF9800" fill-opacity="0.12" stroke="#FFB74D" stroke-width="0.6"/>
<polygon points="1278.10,892.38 1408.97,892.38 1408.97,773.96 1421.43,773.96 1421.43,898.61 1415.20,898.61 1415.20,904.84 1278.10,904.84 1278.10,892.38" fill="#FF9800" fill-opacity="0.12" stroke="#FFB74D" stroke-width="0.6"/>
<polygon points="1206.43,898.61 1193.96,898.61 1193.96,773.96 1206.43,773.96 1206.43,898.61" fill="#FF9800" fill-opacity="0.12" stroke="#FFB74D" stroke-width="0.6"/>
<polygon points="1225.12,898.61 1225.12,773.96 1237.59,773.96 1237.59,898.61 1225.12,898.61" fill="#FF9800" fill-opacity="0.12" stroke="#FFB74D" stroke-width="0.6"/>
<polygon points="854.04,894.26 786.71,669.79 791.99,668.21 791.99,661.77 969.60,661.77 969.60,674.23 801.05,674.23 866.49,892.38 916.36,892.38 916.36,904.84 854.04,904.84 854.04,894.26" fill="#FF9800" fill-opacity="0.12" stroke="#FFB74D" stroke-width="0.6"/>
<polygon points="1832.75,749.03 1832.75,761.49 1446.36,761.49 1446.36,749.03 1832.75,749.03" fill="#FF9800" fill-opacity="0.12" stroke="#FFB74D" stroke-width="0.6"/>
<polygon points="1427.67,730.32 1427.67,736.55 1433.90,736.55 1433.90,755.26 1427.67,755.26 1427.67,761.49 1266.88,761.49 1266.88,755.26 1260.64,755.26 1260.64,736.55 1266.88,736.55 1266.88,730.32 1427.67,730.32" fill="#FF9800" fill-opacity="0.12" stroke="#FFB74D" stroke-width="0.6"/>
<polygon points="1073.68,661.77 1073.68,674.23 988.30,674.23 988.30,661.77 1073.68,661.77" fill="#FF9800" fill-opacity="0.12" stroke="#FFB74D" stroke-width="0.6"/>
<polygon points="1193.96,601.94 1092.38,601.94 1092.38,589.47 1092.38,577.01 1200.19,577.01 1200.19,589.47 1200.19,595.70 1206.43,595.70 1206.43,755.26 1193.96,755.26 1193.96,601.94" fill="#FF9800" fill-opacity="0.12" stroke="#FFB74D" stroke-width="0.6"/>
<polygon points="1073.68,643.07 1073.68,655.54 988.30,655.54 988.30,643.07 1073.68,643.07" fill="#FF9800" fill-opacity="0.12" stroke="#FFB74D" stroke-width="0.6"/>
<polygon points="969.60,643.07 969.60,655.54 791.99,655.54 791.99,643.07 969.60,643.07" fill="#FF9800" fill-opacity="0.12" stroke="#FFB74D" stroke-width="0.6"/>
<polygon points="1343.53,515.30 1343.53,577.01 1415.20,577.01 1415.20,509.07 1427.67,509.07 1427.67,583.24 1421.43,583.24 1421.43,589.47 1421.43,589.47 1421.43,595.70 1427.67,595.70 1427.67,679.84 1415.20,679.84 1415.20,601.94 1393.39,601.94 1393.39,679.84 1380.92,679.84 1380.92,679.84 1368.46,679.84 1368.46,601.94 1273.11,601.94 1273.11,679.84 1260.64,679.84 1248.18,679.84 1248.18,601.94 1237.59,601.94 1237.59,755.26 1225.12,755.26 1225.12,595.70 1231.35,595.70 1231.35,589.47 1231.35,577.01 1318.60,577.01 1318.60,515.30 1331.07,515.30 1331.07,583.23 1331.07,515.30 1343.53,515.30" fill="#FF9800" fill-opacity="0.12" stroke="#FFB74D" stroke-width="0.6"/>
<polygon points="1440.13,509.07 1446.36,509.07 1446.36,502.84 1832.75,502.84 1832.75,509.07 1838.98,509.07 1838.98,692.31 1826.52,692.31 1826.52,515.30 1452.59,515.30 1452.59,692.31 1440.13,692.31 1440.13,509.07" fill="#FF9800" fill-opacity="0.12" stroke="#FFB74D" stroke-width="0.6"/>
<polygon points="969.60,589.47 969.60,601.93 791.99,601.94 791.99,589.47 969.60,589.47" fill="#FF9800" fill-opacity="0.12" stroke="#FFB74D" stroke-width="0.6"/>
<polygon points="791.99,577.00 969.60,577.00 969.60,589.47 791.99,589.47 791.99,577.00" fill="#FF9800" fill-opacity="0.12" stroke="#FFB74D" stroke-width="0.6"/>
<polygon points="969.60,543.97 969.60,556.44 791.99,556.44 791.99,543.97 969.60,543.97" fill="#FF9800" fill-opacity="0.12" stroke="#FFB74D" stroke-width="0.6"/>
<polygon points="969.60,531.51 969.60,543.97 791.99,543.97 791.99,531.51 969.60,531.51" fill="#FF9800" fill-opacity="0.12" stroke="#FFB74D" stroke-width="0.6"/>
<polygon points="969.60,487.25 969.60,499.72 791.99,499.72 791.99,487.25 969.60,487.25" fill="#FF9800" fill-opacity="0.12" stroke="#FFB74D" stroke-width="0.6"/>
<polygon points="791.99,474.79 791.99,468.56 791.99,468.56 791.99,468.56 807.57,468.56 807.57,468.56 969.60,468.56 969.60,481.02 791.99,481.02 791.99,481.02 791.99,481.02 791.99,474.79" fill="#FF9800" fill-opacity="0.12" stroke="#FFB74D" stroke-width="0.6"/>
<polygon points="1237.59,421.19 1318.60,421.19 1318.60,306.51 1231.35,306.51 1231.35,294.04 1231.35,294.04 1231.35,281.58 1421.43,281.58 1421.43,294.04 1421.43,294.04 1421.43,300.28 1427.67,300.28 1427.67,484.14 1440.13,484.14 1440.13,300.28 1446.36,300.28 1446.36,294.04 1446.36,294.04 1446.36,281.58 1832.75,281.58 1832.75,294.04 1832.75,294.04 1832.75,300.28 1838.98,300.28 1838.98,490.37 1832.75,490.37 1832.75,496.60 1754.85,496.60 1754.85,490.37 1748.62,490.37 1748.62,490.37 1742.39,490.37 1742.39,496.60 1536.73,496.60 1536.73,490.37 1530.50,490.37 1530.50,490.37 1524.26,490.37 1524.26,496.60 1421.43,496.60 1421.43,490.37 1415.20,490.37 1415.20,306.51 1343.53,306.51 1343.53,490.37 1331.07,490.37 1331.07,490.37 1318.60,490.37 1318.60,446.12 1231.35,446.12 1231.35,433.65 1231.35,433.65 1231.35,427.42 1225.12,427.42 1225.12,347.02 1237.59,347.02 1237.59,421.19" fill="#FF9800" fill-opacity="0.12" stroke="#FFB74D" stroke-width="0.6"/>
<polygon points="1193.96,427.42 1193.96,347.02 1206.43,347.02 1206.43,427.42 1193.96,427.42" fill="#FF9800" fill-opacity="0.12" stroke="#FFB74D" stroke-width="0.6"/>
<polygon points="1200.19,153.81 1200.19,160.04 988.30,160.04 988.30,153.81 982.07,153.81 982.07,107.06 791.99,107.06 791.99,94.60 982.07,94.60 982.07,69.66 791.99,69.66 791.99,57.20 1200.19,57.20 1200.19,69.66 1200.19,69.66 1200.19,69.66 1206.43,69.66 1206.43,153.81 1200.19,153.81" fill="#FF9800" fill-opacity="0.12" stroke="#FFB74D" stroke-width="0.6"/>
<polygon points="1231.34,94.91 1421.42,94.55 1421.45,107.01 1231.37,107.37 1231.34,94.91" fill="#FF9800" fill-opacity="0.12" stroke="#FFB74D" stroke-width="0.6"/>
<polygon points="1421.42,56.84 1421.45,69.30 1231.37,69.67 1231.34,57.20 1421.42,56.84" fill="#FF9800" fill-opacity="0.12" stroke="#FFB74D" stroke-width="0.6"/>
<polygon points="1832.75,1433.08 1832.75,1445.54 1446.36,1445.54 1446.36,1433.08 1832.75,1433.08" fill="#FF9800" fill-opacity="0.12" stroke="#FFB74D" stroke-width="0.6"/>
<polygon points="2651.65,1324.00 2524.52,1324.00 2524.52,1311.54 2651.65,1311.54 2651.65,1324.00" fill="#FF9800" fill-opacity="0.12" stroke="#FFB74D" stroke-width="0.6"/>
<polygon points="2604.91,1305.31 2604.91,1292.84 2645.42,1292.84 2645.42,1305.31 2604.91,1305.31" fill="#FF9800" fill-opacity="0.12" stroke="#FFB74D" stroke-width="0.6"/>
<polygon points="1895.07,1224.28 1895.07,1211.82 1969.86,1211.82 1969.86,1224.28 1895.07,1224.28" fill="#FF9800" fill-opacity="0.12" stroke="#FFB74D" stroke-width="0.6"/>
<polygon points="1895.07,1205.58 1895.07,1193.12 1969.86,1193.12 1969.86,1205.58 1895.07,1205.58" fill="#FF9800" fill-opacity="0.12" stroke="#FFB74D" stroke-width="0.6"/>
<polygon points="2032.18,1098.06 2032.18,1199.35 2019.72,1199.35 2019.72,1098.06 2032.18,1098.06" fill="#FF9800" fill-opacity="0.12" stroke="#FFB74D" stroke-width="0.6"/>
<polygon points="2013.48,1199.35 2001.02,1199.35 2001.02,1098.06 2013.48,1098.06 2013.48,1199.35" fill="#FF9800" fill-opacity="0.12" stroke="#FFB74D" stroke-width="0.6"/>
<polygon points="2001.02,1074.53 2001.02,923.54 2013.48,923.54 2013.48,1074.53 2001.02,1074.53" fill="#FF9800" fill-opacity="0.12" stroke="#FFB74D" stroke-width="0.6"/>
<polygon points="2019.72,923.54 2032.18,923.54 2032.18,1074.53 2019.72,1074.53 2019.72,923.54" fill="#FF9800" fill-opacity="0.12" stroke="#FFB74D" stroke-width="0.6"/>
<polygon points="1863.91,929.77 1863.91,917.31 2001.02,917.31 2001.02,929.77 1863.91,929.77" fill="#FF9800" fill-opacity="0.12" stroke="#FFB74D" stroke-width="0.6"/>
<polygon points="2237.22,929.77 2237.22,917.31 2413.59,917.31 2413.59,929.77 2237.22,929.77" fill="#FF9800" fill-opacity="0.12" stroke="#FFB74D" stroke-width="0.6"/>
<polygon points="2438.51,929.77 2438.51,917.31 2616.13,917.31 2616.13,929.77 2438.51,929.77" fill="#FF9800" fill-opacity="0.12" stroke="#FFB74D" stroke-width="0.6"/>
<polygon points="2361.24,904.84 2235.97,904.84 2235.97,892.38 2361.24,892.38 2361.24,904.84" fill="#FF9800" fill-opacity="0.12" stroke="#FFB74D" stroke-width="0.6"/>
<polygon points="1870.15,892.38 2001.02,892.38 2001.02,904.84 1863.91,904.84 1863.91,898.61 1857.68,898.61 1857.68,773.96 1870.15,773.96 1870.15,892.38" fill="#FF9800" fill-opacity="0.12" stroke="#FFB74D" stroke-width="0.6"/>
<polygon points="2041.53,898.61 2041.53,773.96 2053.99,773.96 2053.99,898.61 2041.53,898.61" fill="#FF9800" fill-opacity="0.12" stroke="#FFB74D" stroke-width="0.6"/>
<polygon points="2085.15,773.96 2085.15,898.61 2072.69,898.61 2072.69,773.96 2085.15,773.96" fill="#FF9800" fill-opacity="0.12" stroke="#FFB74D" stroke-width="0.6"/>
<polygon points="2492.41,669.79 2425.08,894.26 2425.08,904.84 2362.75,904.84 2362.75,892.38 2412.63,892.38 2478.06,674.23 2309.51,674.23 2309.51,661.77 2487.12,661.77 2487.12,668.21 2492.41,669.79" fill="#FF9800" fill-opacity="0.12" stroke="#FFB74D" stroke-width="0.6"/>
<polygon points="2438.51,904.84 2438.51,892.38 2445.16,892.38 2513.00,666.21 2518.29,667.80 2518.29,661.77 2618.00,661.77 2618.00,674.23 2523.61,674.23 2458.17,892.38 2616.13,892.38 2616.13,904.84 2438.51,904.84" fill="#FF9800" fill-opacity="0.12" stroke="#FFB74D" stroke-width="0.6"/>
<polygon points="1851.45,761.49 1851.45,755.26 1845.22,755.26 1845.22,736.55 1851.45,736.55 1851.45,730.32 2012.24,730.32 2012.24,736.55 2018.47,736.55 2018.47,755.26 2012.24,755.26 2012.24,761.49 1851.45,761.49" fill="#FF9800" fill-opacity="0.12" stroke="#FFB74D" stroke-width="0.6"/>
<polygon points="2205.43,674.23 2205.43,661.77 2290.81,661.77 2290.81,674.23 2205.43,674.23" fill="#FF9800" fill-opacity="0.12" stroke="#FFB74D" stroke-width="0.6"/>
<polygon points="2072.69,595.70 2078.92,595.70 2078.92,589.47 2078.92,577.01 2186.74,577.01 2186.74,589.47 2186.74,601.94 2085.15,601.94 2085.15,755.26 2072.69,755.26 2072.69,595.70" fill="#FF9800" fill-opacity="0.12" stroke="#FFB74D" stroke-width="0.6"/>
<polygon points="2205.43,655.54 2205.43,643.07 2290.81,643.07 2290.81,655.54 2205.43,655.54" fill="#FF9800" fill-opacity="0.12" stroke="#FFB74D" stroke-width="0.6"/>
<polygon points="2487.12,655.54 2309.51,655.54 2309.51,643.07 2487.12,643.07 2487.12,655.54" fill="#FF9800" fill-opacity="0.12" stroke="#FFB74D" stroke-width="0.6"/>
<polygon points="1863.91,509.07 1863.91,577.01 1935.58,577.01 1935.58,515.30 1948.05,515.30 1948.05,583.23 1948.05,515.30 1960.51,515.30 1960.51,577.01 2047.76,577.01 2047.76,589.47 2047.76,595.70 2053.99,595.70 2053.99,755.26 2041.53,755.26 2041.53,601.94 2030.93,601.94 2030.93,679.84 2018.47,679.84 2018.47,679.84 2006.01,679.84 2006.01,601.94 1910.65,601.94 1910.65,679.84 1898.19,679.84 1898.19,679.84 1885.73,679.84 1885.73,601.94 1863.91,601.94 1863.91,679.84 1851.45,679.84 1851.45,595.70 1857.68,595.70 1857.68,589.47 1857.68,589.47 1857.68,583.24 1851.45,583.24 1851.45,509.07 1863.91,509.07" fill="#FF9800" fill-opacity="0.12" stroke="#FFB74D" stroke-width="0.6"/>
<polygon points="2309.51,601.93 2309.51,589.47 2487.12,589.47 2487.12,601.94 2309.51,601.93" fill="#FF9800" fill-opacity="0.12" stroke="#FFB74D" stroke-width="0.6"/>
<polygon points="2309.51,589.47 2309.51,577.00 2487.12,577.00 2487.12,589.47 2309.51,589.47" fill="#FF9800" fill-opacity="0.12" stroke="#FFB74D" stroke-width="0.6"/>
<polygon points="2309.51,556.44 2309.51,543.97 2487.12,543.97 2487.12,556.44 2309.51,556.44" fill="#FF9800" fill-opacity="0.12" stroke="#FFB74D" stroke-width="0.6"/>
<polygon points="2487.12,543.97 2309.51,543.97 2309.51,531.51 2487.12,531.51 2487.12,543.97" fill="#FF9800" fill-opacity="0.12" stroke="#FFB74D" stroke-width="0.6"/>
<polygon points="2487.12,499.72 2309.51,499.72 2309.51,487.25 2487.12,487.25 2487.12,499.72" fill="#FF9800" fill-opacity="0.12" stroke="#FFB74D" stroke-width="0.6"/>
<polygon points="2309.51,481.02 2309.51,468.56 2487.12,468.56 2487.12,481.02 2309.51,481.02" fill="#FF9800" fill-opacity="0.12" stroke="#FFB74D" stroke-width="0.6"/>
<polygon points="2085.15,427.42 2072.69,427.42 2072.69,347.02 2085.15,347.02 2085.15,427.42" fill="#FF9800" fill-opacity="0.12" stroke="#FFB74D" stroke-width="0.6"/>
<polygon points="1960.51,306.51 1960.51,421.19 2041.53,421.19 2041.53,347.02 2053.99,347.02 2053.99,427.42 2047.76,427.42 2047.76,433.65 2047.76,433.65 2047.76,446.12 1960.51,446.12 1960.51,490.37 1948.05,490.37 1948.05,490.37 1935.58,490.37 1935.58,306.51 1863.91,306.51 1863.91,490.37 1851.45,490.37 1851.45,300.28 1857.68,300.28 1857.68,294.04 1857.68,294.04 1857.68,281.58 2047.76,281.58 2047.76,294.04 2047.76,294.04 2047.76,306.51 1960.51,306.51" fill="#FF9800" fill-opacity="0.12" stroke="#FFB74D" stroke-width="0.6"/>
<polygon points="2487.12,57.20 2487.12,69.66 2290.81,69.66 2290.81,69.66 2297.05,69.66 2297.05,94.60 2487.13,94.60 2487.13,107.06 2297.05,107.06 2297.05,153.81 2290.81,153.81 2290.81,160.04 2078.92,160.04 2078.92,153.81 2072.69,153.81 2072.69,69.66 2078.92,69.66 2078.92,69.66 2078.92,69.66 2078.92,64.91 2078.92,63.43 2078.92,63.43 2078.92,63.43 2078.92,63.43 2078.92,63.43 2078.92,57.20 2487.12,57.20" fill="#FF9800" fill-opacity="0.12" stroke="#FFB74D" stroke-width="0.6"/>
<polygon points="1857.67,107.01 1857.69,94.55 2047.77,94.91 2047.75,107.37 1857.67,107.01" fill="#FF9800" fill-opacity="0.12" stroke="#FFB74D" stroke-width="0.6"/>
<polygon points="1857.67,69.30 1857.69,56.84 2047.77,57.20 2047.75,69.67 1857.67,69.30" fill="#FF9800" fill-opacity="0.12" stroke="#FFB74D" stroke-width="0.6"/>
<polygon points="3017.12,1417.49 2810.49,1417.49 2810.49,1405.03 3017.12,1405.03 3017.12,1417.49" fill="#FF9800" fill-opacity="0.12" stroke="#FFB74D" stroke-width="0.6"/>
<polygon points="3035.82,1523.45 3029.54,1523.45 3029.59,1429.96 3035.82,1429.96 3035.82,1423.73 3057.63,1423.73 3057.63,1423.73 3110.61,1423.73 3110.61,1423.73 3123.07,1423.73 3123.07,1429.96 3129.30,1429.96 3129.30,1523.45 3123.07,1523.45 3123.07,1529.68 3135.53,1529.68 3135.54,1523.45 3129.30,1523.45 3129.30,1429.96 3135.54,1429.96 3135.54,1423.73 3285.11,1423.85 3383.26,1423.85 3383.26,1430.08 3389.50,1430.08 3389.50,1523.60 3383.39,1523.60 3383.39,1529.68 3395.73,1529.68 3395.73,1179.08 3408.19,1179.08 3408.19,1535.92 3401.96,1535.92 3401.96,1542.15 3017.13,1542.15 3017.13,1535.92 3010.89,1535.92 3010.89,1436.19 2810.49,1436.19 2810.49,1423.73 3017.12,1423.73 3017.12,1429.96 3023.36,1429.96 3023.36,1529.68 3037.12,1529.68 3035.82,1529.68 3035.82,1523.45" fill="#FF9800" fill-opacity="0.12" stroke="#FFB74D" stroke-width="0.6"/>
<polygon points="2670.35,1357.34 2670.35,1344.87 2808.35,1344.87 2808.35,1357.34 2670.35,1357.34" fill="#FF9800" fill-opacity="0.12" stroke="#FFB74D" stroke-width="0.6"/>
<polygon points="2670.35,1344.87 2670.35,1332.41 2808.35,1332.41 2808.35,1344.87 2670.35,1344.87" fill="#FF9800" fill-opacity="0.12" stroke="#FFB74D" stroke-width="0.6"/>
<polygon points="3377.03,1405.17 3377.03,1179.08 3389.50,1179.08 3389.50,1411.40 3383.26,1411.40 3383.26,1417.63 3294.18,1417.63 3294.18,1405.17 3377.03,1405.17" fill="#FF9800" fill-opacity="0.12" stroke="#FFB74D" stroke-width="0.6"/>
<polygon points="3129.30,1179.08 3135.54,1179.08 3148.00,1179.08 3148.00,1376.03 3165.45,1376.03 3165.45,1382.27 3171.68,1382.27 3171.68,1405.17 3227.46,1405.17 3227.46,1417.63 3035.82,1417.63 3035.82,1405.17 3123.07,1405.17 3123.07,1268.05 3035.82,1268.05 3035.82,1255.58 3035.82,1249.35 3029.59,1249.35 3029.59,1179.08 3035.82,1179.08 3035.82,1172.85 3129.30,1172.85 3129.30,1179.08" fill="#FF9800" fill-opacity="0.12" stroke="#FFB74D" stroke-width="0.6"/>
<polygon points="2670.35,1285.04 2670.35,1272.57 2808.35,1272.57 2808.35,1285.04 2670.35,1285.04" fill="#FF9800" fill-opacity="0.12" stroke="#FFB74D" stroke-width="0.6"/>
<polygon points="2808.35,1272.57 2670.35,1272.57 2670.35,1260.11 2808.35,1260.11 2808.35,1272.57" fill="#FF9800" fill-opacity="0.12" stroke="#FFB74D" stroke-width="0.6"/>
<polygon points="3023.36,1249.35 3010.89,1249.35 3010.89,1179.08 3023.36,1179.08 3023.36,1249.35" fill="#FF9800" fill-opacity="0.12" stroke="#FFB74D" stroke-width="0.6"/>
<polygon points="2670.35,1191.55 2670.35,1179.08 2808.35,1179.08 2808.35,1191.55 2670.35,1191.55" fill="#FF9800" fill-opacity="0.12" stroke="#FFB74D" stroke-width="0.6"/>
<polygon points="3035.82,1166.62 3035.82,1154.15 3129.31,1154.18 3129.30,1166.64 3035.82,1166.62" fill="#FF9800" fill-opacity="0.12" stroke="#FFB74D" stroke-width="0.6"/>
<polygon points="2670.35,1166.62 2670.35,1154.15 2808.35,1154.15 2808.35,1166.62 2670.35,1166.62" fill="#FF9800" fill-opacity="0.12" stroke="#FFB74D" stroke-width="0.6"/>
<polygon points="3271.75,1160.38 3271.75,1160.38 3259.28,1160.38 3259.28,954.71 3271.75,954.71 3271.75,954.71 3284.21,954.71 3284.21,1160.38 3271.75,1160.38" fill="#FF9800" fill-opacity="0.12" stroke="#FFB74D" stroke-width="0.6"/>
<polygon points="3277.98,942.24 3277.98,929.77 3287.95,929.77 3287.95,717.86 3300.42,717.86 3300.42,929.77 3362.11,929.77 3362.11,936.01 3368.35,936.01 3368.35,1160.38 3355.88,1160.38 3355.88,942.24 3277.98,942.24" fill="#FF9800" fill-opacity="0.12" stroke="#FFB74D" stroke-width="0.6"/>
<polygon points="2938.33,929.77 2833.28,929.77 2833.28,917.31 2938.33,917.31 2938.33,929.77" fill="#FF9800" fill-opacity="0.12" stroke="#FFB74D" stroke-width="0.6"/>
<polygon points="2641.06,929.77 2641.06,917.31 2808.35,917.31 2808.35,929.77 2641.06,929.77" fill="#FF9800" fill-opacity="0.12" stroke="#FFB74D" stroke-width="0.6"/>
<polygon points="2766.32,904.84 2641.06,904.84 2641.06,892.38 2766.32,892.38 2766.32,892.38 2932.09,892.38 2932.09,773.96 2944.56,773.96 2944.56,898.61 2938.33,898.61 2938.33,904.84 2766.32,904.84 2766.32,898.61 2766.32,904.84" fill="#FF9800" fill-opacity="0.12" stroke="#FFB74D" stroke-width="0.6"/>
<polygon points="2950.77,755.26 2950.77,668.00 2957.65,668.00 2957.65,661.84 3263.02,661.70 3263.03,674.17 2963.24,674.30 2963.24,749.03 3256.79,749.03 3256.79,717.86 3269.26,717.86 3269.26,936.01 3256.79,936.01 3256.79,780.19 2963.24,780.19 2963.24,898.61 2950.77,898.61 2950.77,773.96 2957.75,773.96 2957.75,767.73 3256.79,767.73 3256.79,761.49 2957.01,761.49 2957.01,755.26 2950.77,755.26" fill="#FF9800" fill-opacity="0.12" stroke="#FFB74D" stroke-width="0.6"/>
<polygon points="2944.56,689.82 2944.54,689.82 2944.54,755.26 2932.08,755.26 2932.08,668.00 2932.09,668.00 2932.09,668.00 2944.56,668.00 2944.56,689.82" fill="#FF9800" fill-opacity="0.12" stroke="#FFB74D" stroke-width="0.6"/>
<polygon points="2670.97,668.00 2670.97,755.26 2658.51,755.26 2658.51,668.00 2670.97,668.00" fill="#FF9800" fill-opacity="0.12" stroke="#FFB74D" stroke-width="0.6"/>
<polygon points="2689.67,755.26 2677.20,755.26 2677.20,668.00 2683.44,668.00 2683.44,661.77 2849.21,661.77 2849.21,668.00 2855.44,668.00 2855.44,668.00 2861.67,668.00 2861.67,661.77 2926.49,661.77 2926.49,674.23 2867.91,674.23 2867.91,755.26 2855.44,755.26 2855.44,755.26 2842.98,755.26 2842.98,674.23 2689.67,674.23 2689.67,755.26" fill="#FF9800" fill-opacity="0.12" stroke="#FFB74D" stroke-width="0.6"/>
<polygon points="3263.02,655.57 2957.65,655.57 2957.65,655.54 2957.65,649.30 2951.42,649.30 2951.42,499.72 2957.65,499.72 2957.65,493.49 3051.13,493.49 3051.13,499.72 3057.36,499.72 3057.36,643.10 3263.02,643.10 3263.02,655.57" fill="#FF9800" fill-opacity="0.12" stroke="#FFB74D" stroke-width="0.6"/>
<polygon points="2926.49,649.30 2926.49,649.30 2926.49,655.54 2926.49,655.54 2926.49,655.54 2518.29,655.54 2518.29,643.07 2820.52,643.07 2820.52,499.72 2826.75,499.72 2826.75,493.49 2926.49,493.49 2926.49,499.72 2932.72,499.72 2932.72,649.30 2926.49,649.30" fill="#FF9800" fill-opacity="0.12" stroke="#FFB74D" stroke-width="0.6"/>
<polygon points="3300.42,621.22 3287.95,621.22 3287.95,484.11 3300.42,484.11 3300.42,621.22" fill="#FF9800" fill-opacity="0.12" stroke="#FFB74D" stroke-width="0.6"/>
<polygon points="3269.26,621.22 3256.79,621.22 3256.79,484.11 3269.26,484.11 3269.26,621.22" fill="#FF9800" fill-opacity="0.12" stroke="#FFB74D" stroke-width="0.6"/>
<polygon points="2963.88,484.76 2951.42,484.76 2951.42,424.30 2963.88,424.30 2963.88,484.76" fill="#FF9800" fill-opacity="0.12" stroke="#FFB74D" stroke-width="0.6"/>
<polygon points="2932.72,424.30 2932.72,481.02 2920.26,481.02 2920.26,424.30 2932.72,424.30" fill="#FF9800" fill-opacity="0.12" stroke="#FFB74D" stroke-width="0.6"/>
<polygon points="2932.72,362.60 2920.26,362.60 2920.26,305.88 2932.72,305.88 2932.72,362.60" fill="#FF9800" fill-opacity="0.12" stroke="#FFB74D" stroke-width="0.6"/>
<polygon points="2967.00,362.60 2954.53,362.60 2954.53,305.88 2967.00,305.88 2967.00,362.60" fill="#FF9800" fill-opacity="0.12" stroke="#FFB74D" stroke-width="0.6"/>
<polygon points="3221.27,250.41 3263.02,250.41 3263.02,256.65 3269.26,256.65 3269.26,412.46 3263.02,412.46 3263.02,418.69 3169.54,418.69 3169.54,412.46 3163.31,412.46 3163.31,256.65 3169.54,256.65 3169.54,250.41 3208.80,250.41 3208.80,107.06 2957.65,107.06 2957.65,94.60 3215.04,94.60 3215.04,100.83 3221.27,100.83 3221.27,250.41" fill="#FF9800" fill-opacity="0.12" stroke="#FFB74D" stroke-width="0.6"/>
<polygon points="3233.73,231.71 3227.50,231.71 3227.50,100.83 3233.73,100.83 3233.73,94.60 3263.02,94.60 3263.02,107.06 3239.96,107.06 3239.96,225.48 3263.03,225.48 3263.02,237.95 3233.73,237.95 3233.73,231.71" fill="#FF9800" fill-opacity="0.12" stroke="#FFB74D" stroke-width="0.6"/>
<polygon points="2926.49,69.66 2730.18,69.66 2730.18,69.66 2736.41,69.66 2736.41,94.60 2926.49,94.60 2926.49,107.06 2736.41,107.06 2736.41,160.04 2730.18,160.04 2730.18,166.27 2518.29,166.27 2518.29,160.04 2512.06,160.04 2512.06,69.66 2518.29,69.66 2518.29,69.66 2518.29,69.66 2518.29,57.20 2926.49,57.20 2926.49,63.43 2926.49,57.20 3263.02,57.20 3263.02,69.66 2926.49,69.66 2926.49,69.66" fill="#FF9800" fill-opacity="0.12" stroke="#FFB74D" stroke-width="0.6"/>
<polygon class="slab-poly" data-slab-id="SLAB-001" points="60.65,60.66 334.88,60.66 334.88,294.35 203.05,294.35 203.05,256.65 202.60,247.48 201.26,238.41 199.03,229.51 195.94,220.87 192.02,212.57 187.30,204.70 181.84,197.34 175.67,190.54 168.88,184.38 161.51,178.91 153.64,174.19 145.35,170.27 136.71,167.18 127.81,164.95 118.74,163.61 109.57,163.15 60.65,163.15 60.65,60.66" fill="#2196F3" fill-opacity="0.45" stroke="#2196F3" stroke-width="1.5"/>
<text x="223.2" y="157.5" fill="#fff" font-size="9" text-anchor="middle" dominant-baseline="middle" font-family="Segoe UI, sans-serif" paint-order="stroke" stroke="#000" stroke-width="2" pointer-events="none">SLAB-001</text>
<polygon class="slab-poly" data-slab-id="SLAB-002" points="1686.65,294.35 1686.65,60.66 1836.18,60.66 1836.18,294.35 1754.85,294.35 1754.85,287.81 1742.39,287.81 1742.39,294.35 1686.65,294.35" fill="#2196F3" fill-opacity="0.45" stroke="#2196F3" stroke-width="1.5"/>
<text x="1761.4" y="177.2" fill="#fff" font-size="9" text-anchor="middle" dominant-baseline="middle" font-family="Segoe UI, sans-serif" paint-order="stroke" stroke="#000" stroke-width="2" pointer-events="none">SLAB-002</text>
<polygon class="slab-poly" data-slab-id="SLAB-003" points="1442.93,294.35 1442.93,60.66 1649.22,60.66 1649.22,294.35 1536.73,294.35 1536.73,287.81 1524.26,287.81 1524.26,294.35 1442.93,294.35" fill="#2196F3" fill-opacity="0.45" stroke="#2196F3" stroke-width="1.5"/>
<text x="1546.1" y="177.3" fill="#fff" font-size="9" text-anchor="middle" dominant-baseline="middle" font-family="Segoe UI, sans-serif" paint-order="stroke" stroke="#000" stroke-width="2" pointer-events="none">SLAB-003</text>
<polygon class="slab-poly" data-slab-id="SLAB-004" points="1421.74,60.66 1421.74,294.35 1196.77,294.35 1196.77,247.30 1200.19,247.30 1209.36,246.85 1218.43,245.50 1227.33,243.27 1235.97,240.18 1244.26,236.26 1252.13,231.54 1259.50,226.08 1266.29,219.91 1272.46,213.12 1277.92,205.75 1282.64,197.88 1286.56,189.58 1289.65,180.94 1291.88,172.05 1293.22,162.97 1293.67,153.81 1293.67,69.66 1293.23,60.66 1421.74,60.66" fill="#2196F3" fill-opacity="0.45" stroke="#2196F3" stroke-width="1.5"/>
<text x="1339.2" y="191.7" fill="#fff" font-size="9" text-anchor="middle" dominant-baseline="middle" font-family="Segoe UI, sans-serif" paint-order="stroke" stroke="#000" stroke-width="2" pointer-events="none">SLAB-004</text>
<polygon class="slab-poly" data-slab-id="SLAB-005" points="1203.62,294.35 328.02,294.35 328.02,97.43 455.62,97.43 455.46,100.83 455.46,160.04 455.91,169.20 457.25,178.28 459.48,187.18 462.57,195.82 466.49,204.11 471.21,211.98 476.67,219.35 482.84,226.15 489.63,232.31 497.00,237.77 504.87,242.49 513.16,246.41 521.80,249.50 530.70,251.73 539.77,253.08 548.94,253.53 760.83,253.53 769.99,253.08 779.06,251.73 787.96,249.50 796.60,246.41 804.89,242.49 812.76,237.77 820.13,232.31 826.93,226.15 833.09,219.35 838.55,211.98 843.27,204.11 847.19,195.82 850.28,187.18 852.51,178.28 853.86,169.20 854.31,160.04 854.31,100.83 854.14,97.43 894.82,97.43 894.82,153.81 895.27,162.97 896.62,172.05 898.84,180.94 901.94,189.58 905.86,197.88 910.57,205.75 916.04,213.12 922.20,219.91 929.00,226.08 936.37,231.54 944.23,236.26 952.53,240.18 961.16,243.27 970.06,245.50 979.14,246.85 988.30,247.30 1200.19,247.30 1203.62,247.13 1203.62,294.35" fill="#607D8B" fill-opacity="0.45" stroke="#B0BEC5" stroke-width="1.5"/>
<text x="674.6" y="232.6" fill="#fff" font-size="9" text-anchor="middle" dominant-baseline="middle" font-family="Segoe UI, sans-serif" paint-order="stroke" stroke="#000" stroke-width="2" pointer-events="none">SLAB-005</text>
<polygon class="slab-poly" data-slab-id="SLAB-006" points="328.02,287.50 1203.62,287.50 1203.62,493.80 545.56,493.80 545.40,490.56 544.05,481.48 541.82,472.58 538.73,463.94 534.81,455.65 530.09,447.78 524.63,440.41 518.47,433.61 511.67,427.45 504.30,421.99 496.43,417.27 488.14,413.35 479.50,410.26 470.60,408.03 461.53,406.68 452.37,406.23 352.63,406.23 343.46,406.68 337.05,407.63 330.63,406.68 328.02,406.55 328.02,287.50" fill="#2196F3" fill-opacity="0.45" stroke="#2196F3" stroke-width="1.5"/>
<text x="801.4" y="384.1" fill="#fff" font-size="9" text-anchor="middle" dominant-baseline="middle" font-family="Segoe UI, sans-serif" paint-order="stroke" stroke="#000" stroke-width="2" pointer-events="none">SLAB-006</text>
<polygon class="slab-poly" data-slab-id="SLAB-007" points="1196.77,512.50 1196.77,287.50 1421.74,287.50 1421.74,512.50 1417.16,512.50 1410.47,509.33 1401.83,506.24 1392.93,504.01 1383.86,502.66 1374.69,502.21 1266.88,502.21 1257.71,502.66 1248.64,504.01 1239.74,506.24 1231.10,509.33 1224.41,512.50 1196.77,512.50" fill="#2196F3" fill-opacity="0.45" stroke="#2196F3" stroke-width="1.5"/>
<text x="1308.9" y="396.3" fill="#fff" font-size="9" text-anchor="middle" dominant-baseline="middle" font-family="Segoe UI, sans-serif" paint-order="stroke" stroke="#000" stroke-width="2" pointer-events="none">SLAB-007</text>
<polygon class="slab-poly" data-slab-id="SLAB-008" points="1686.65,512.50 1686.65,287.50 1836.18,287.50 1836.18,512.50 1686.65,512.50" fill="#2196F3" fill-opacity="0.45" stroke="#2196F3" stroke-width="1.5"/>
<text x="1761.5" y="397.3" fill="#fff" font-size="9" text-anchor="middle" dominant-baseline="middle" font-family="Segoe UI, sans-serif" paint-order="stroke" stroke="#000" stroke-width="2" pointer-events="none">SLAB-008</text>
<polygon class="slab-poly" data-slab-id="SLAB-009" points="1442.93,512.50 1442.93,287.50 1649.22,287.50 1649.22,512.50 1442.93,512.50" fill="#2196F3" fill-opacity="0.45" stroke="#2196F3" stroke-width="1.5"/>
<text x="1548.4" y="398.1" fill="#fff" font-size="9" text-anchor="middle" dominant-baseline="middle" font-family="Segoe UI, sans-serif" paint-order="stroke" stroke="#000" stroke-width="2" pointer-events="none">SLAB-009</text>
<polygon class="slab-poly" data-slab-id="SLAB-010" points="1203.62,486.94 1203.62,527.02 1200.78,529.60 1194.61,536.39 1189.15,543.76 1184.43,551.63 1180.51,559.93 1177.42,568.56 1175.19,577.46 1173.85,586.54 1173.40,595.70 1173.40,658.98 694.95,658.98 694.94,658.84 693.60,649.76 691.37,640.86 688.28,632.22 684.35,623.93 679.64,616.06 674.17,608.69 668.01,601.89 661.21,595.73 653.85,590.27 645.98,585.55 637.68,581.63 629.05,578.54 620.15,576.31 611.07,574.96 601.91,574.51 545.85,574.51 545.85,499.72 545.40,490.56 544.86,486.94 1203.62,486.94" fill="#2196F3" fill-opacity="0.45" stroke="#2196F3" stroke-width="1.5"/>
<text x="892.7" y="566.8" fill="#fff" font-size="9" text-anchor="middle" dominant-baseline="middle" font-family="Segoe UI, sans-serif" paint-order="stroke" stroke="#000" stroke-width="2" pointer-events="none">SLAB-010</text>
<polygon class="slab-poly" data-slab-id="SLAB-011" points="1686.65,658.98 1686.65,505.64 1836.18,505.64 1836.18,531.96 1832.16,536.39 1826.69,543.76 1821.98,551.63 1818.06,559.93 1814.97,568.56 1812.74,577.46 1811.39,586.54 1810.94,595.70 1810.94,658.98 1686.65,658.98" fill="#2196F3" fill-opacity="0.45" stroke="#2196F3" stroke-width="1.5"/>
<text x="1753.0" y="579.4" fill="#fff" font-size="9" text-anchor="middle" dominant-baseline="middle" font-family="Segoe UI, sans-serif" paint-order="stroke" stroke="#000" stroke-width="2" pointer-events="none">SLAB-011</text>
<polygon class="slab-poly" data-slab-id="SLAB-012" points="1442.93,505.64 1649.22,505.64 1649.22,658.98 1468.17,658.98 1468.17,595.70 1467.72,586.54 1466.38,577.46 1464.15,568.56 1461.06,559.93 1457.14,551.63 1452.42,543.76 1446.95,536.39 1442.93,531.96 1442.93,505.64" fill="#2196F3" fill-opacity="0.45" stroke="#2196F3" stroke-width="1.5"/>
<text x="1554.6" y="580.2" fill="#fff" font-size="9" text-anchor="middle" dominant-baseline="middle" font-family="Segoe UI, sans-serif" paint-order="stroke" stroke="#000" stroke-width="2" pointer-events="none">SLAB-012</text>
<polygon class="slab-poly" data-slab-id="SLAB-013" points="1203.62,768.04 694.41,768.04 694.94,764.42 695.39,755.26 695.39,668.00 694.94,658.84 693.95,652.12 1173.40,652.12 1173.40,679.84 1173.85,689.01 1175.19,698.08 1177.42,706.98 1180.51,715.62 1184.43,723.92 1189.15,731.78 1194.61,739.15 1200.78,745.95 1203.62,748.53 1203.62,768.04" fill="#2196F3" fill-opacity="0.45" stroke="#2196F3" stroke-width="1.5"/>
<text x="939.8" y="710.8" fill="#fff" font-size="9" text-anchor="middle" dominant-baseline="middle" font-family="Segoe UI, sans-serif" paint-order="stroke" stroke="#000" stroke-width="2" pointer-events="none">SLAB-013</text>
<polygon class="slab-poly" data-slab-id="SLAB-014" points="1649.22,652.12 1649.22,768.04 1442.93,768.04 1442.93,743.59 1446.95,739.15 1452.42,731.78 1457.14,723.92 1461.06,715.62 1464.15,706.98 1466.38,698.08 1467.72,689.01 1468.17,679.84 1468.17,652.12 1649.22,652.12" fill="#2196F3" fill-opacity="0.45" stroke="#2196F3" stroke-width="1.5"/>
<text x="1553.6" y="711.8" fill="#fff" font-size="9" text-anchor="middle" dominant-baseline="middle" font-family="Segoe UI, sans-serif" paint-order="stroke" stroke="#000" stroke-width="2" pointer-events="none">SLAB-014</text>
<polygon class="slab-poly" data-slab-id="SLAB-015" points="1442.93,914.50 1442.93,761.18 1649.22,761.18 1649.22,830.45 1644.74,833.10 1637.35,838.53 1630.52,844.66 1624.33,851.43 1618.83,858.77 1614.07,866.62 1610.11,874.90 1606.98,883.52 1604.71,892.41 1603.32,901.48 1602.83,910.64 1603.00,914.50 1442.93,914.50" fill="#2196F3" fill-opacity="0.45" stroke="#2196F3" stroke-width="1.5"/>
<text x="1537.9" y="833.6" fill="#fff" font-size="9" text-anchor="middle" dominant-baseline="middle" font-family="Segoe UI, sans-serif" paint-order="stroke" stroke="#000" stroke-width="2" pointer-events="none">SLAB-015</text>
<polygon class="slab-poly" data-slab-id="SLAB-016" points="2082.35,761.18 2082.35,914.50 1926.06,914.50 1926.24,910.64 1925.74,901.48 1924.35,892.41 1922.08,883.52 1918.95,874.90 1914.99,866.62 1910.24,858.77 1904.74,851.43 1898.55,844.66 1891.72,838.53 1884.33,833.10 1876.43,828.42 1868.12,824.54 1859.47,821.49 1857.37,820.97 1857.37,761.18 1858.50,761.18 1860.36,762.30 1868.65,766.22 1877.29,769.31 1886.18,771.54 1895.26,772.88 1904.42,773.33 2012.24,773.33 2021.40,772.88 2030.48,771.54 2039.37,769.31 2048.01,766.22 2056.30,762.30 2058.16,761.18 2082.35,761.18" fill="#2196F3" fill-opacity="0.45" stroke="#2196F3" stroke-width="1.5"/>
<text x="1985.3" y="836.4" fill="#fff" font-size="9" text-anchor="middle" dominant-baseline="middle" font-family="Segoe UI, sans-serif" paint-order="stroke" stroke="#000" stroke-width="2" pointer-events="none">SLAB-016</text>
<polygon class="slab-poly" data-slab-id="SLAB-017" points="334.88,914.50 109.58,914.50 109.58,773.96 109.13,764.79 108.59,761.18 330.45,761.18 330.61,764.42 331.95,773.50 334.18,782.40 334.88,784.33 334.88,914.50" fill="#2196F3" fill-opacity="0.45" stroke="#2196F3" stroke-width="1.5"/>
<text x="222.0" y="838.0" fill="#fff" font-size="9" text-anchor="middle" dominant-baseline="middle" font-family="Segoe UI, sans-serif" paint-order="stroke" stroke="#000" stroke-width="2" pointer-events="none">SLAB-017</text>
<polygon class="slab-poly" data-slab-id="SLAB-018" points="1421.74,761.18 1421.74,914.50 1196.77,914.50 1196.77,761.18 1220.95,761.18 1222.81,762.30 1231.10,766.22 1239.74,769.31 1248.64,771.54 1257.71,772.88 1266.88,773.33 1374.69,773.33 1383.86,772.88 1392.93,771.54 1401.83,769.31 1410.47,766.22 1418.76,762.30 1420.62,761.18 1421.74,761.18" fill="#2196F3" fill-opacity="0.45" stroke="#2196F3" stroke-width="1.5"/>
<text x="1308.5" y="842.4" fill="#fff" font-size="9" text-anchor="middle" dominant-baseline="middle" font-family="Segoe UI, sans-serif" paint-order="stroke" stroke="#000" stroke-width="2" pointer-events="none">SLAB-018</text>
<polygon class="slab-poly" data-slab-id="SLAB-019" points="1203.62,761.18 1203.62,914.50 328.02,914.50 328.02,761.18 330.45,761.18 330.61,764.42 331.95,773.50 334.18,782.40 337.27,791.04 341.20,799.33 345.91,807.20 351.38,814.57 357.54,821.37 364.34,827.53 371.70,832.99 379.57,837.71 387.87,841.63 396.50,844.72 405.40,846.95 414.48,848.30 423.64,848.75 601.91,848.75 611.07,848.30 620.15,846.95 629.05,844.72 637.68,841.63 645.98,837.71 653.85,832.99 661.21,827.53 668.01,821.37 674.17,814.57 679.64,807.20 684.35,799.33 688.28,791.04 691.37,782.40 693.60,773.50 694.94,764.42 695.10,761.18 1203.62,761.18" fill="#2196F3" fill-opacity="0.45" stroke="#2196F3" stroke-width="1.5"/>
<text x="833.1" y="847.4" fill="#fff" font-size="9" text-anchor="middle" dominant-baseline="middle" font-family="Segoe UI, sans-serif" paint-order="stroke" stroke="#000" stroke-width="2" pointer-events="none">SLAB-019</text>
<polygon class="slab-poly" data-slab-id="SLAB-020" points="1442.93,1202.46 1442.93,907.65 1602.99,907.65 1602.83,910.64 1603.24,919.81 1604.54,928.89 1606.73,937.80 1609.78,946.45 1613.66,954.76 1618.34,962.65 1623.77,970.05 1629.90,976.87 1632.94,979.95 1629.90,983.02 1623.77,989.85 1618.34,997.24 1613.66,1005.13 1609.78,1013.45 1606.73,1022.10 1605.52,1027.04 1600.09,1030.30 1592.72,1035.76 1585.92,1041.92 1579.76,1048.72 1574.29,1056.09 1569.58,1063.96 1565.66,1072.25 1562.57,1080.89 1560.34,1089.79 1558.99,1098.87 1558.54,1108.03 1558.54,1192.79 1558.99,1201.96 1559.06,1202.46 1442.93,1202.46" fill="#2196F3" fill-opacity="0.45" stroke="#2196F3" stroke-width="1.5"/>
<text x="1516.1" y="1041.4" fill="#fff" font-size="9" text-anchor="middle" dominant-baseline="middle" font-family="Segoe UI, sans-serif" paint-order="stroke" stroke="#000" stroke-width="2" pointer-events="none">SLAB-020</text>
<polygon class="slab-poly" data-slab-id="SLAB-021" points="140.15,907.65 334.88,907.65 334.88,1202.46 316.68,1202.46 310.57,1195.71 303.77,1189.55 296.40,1184.08 288.53,1179.36 280.24,1175.44 271.60,1172.35 262.70,1170.12 253.63,1168.77 244.46,1168.32 149.81,1168.32 140.65,1168.77 140.15,1168.85 140.15,907.65" fill="#2196F3" fill-opacity="0.45" stroke="#2196F3" stroke-width="1.5"/>
<text x="239.5" y="1041.8" fill="#fff" font-size="9" text-anchor="middle" dominant-baseline="middle" font-family="Segoe UI, sans-serif" paint-order="stroke" stroke="#000" stroke-width="2" pointer-events="none">SLAB-021</text>
<polygon class="slab-poly" data-slab-id="SLAB-022" points="328.02,1202.46 328.02,907.65 1203.62,907.65 1203.62,1202.46 662.57,1202.46 660.70,1201.07 652.84,1196.35 644.54,1192.43 635.90,1189.34 627.01,1187.11 617.93,1185.76 608.77,1185.31 470.76,1185.31 461.60,1185.76 452.53,1187.11 443.63,1189.34 434.99,1192.43 426.70,1196.35 418.83,1201.07 416.96,1202.46 328.02,1202.46" fill="#2196F3" fill-opacity="0.45" stroke="#2196F3" stroke-width="1.5"/>
<text x="769.0" y="1053.1" fill="#fff" font-size="9" text-anchor="middle" dominant-baseline="middle" font-family="Segoe UI, sans-serif" paint-order="stroke" stroke="#000" stroke-width="2" pointer-events="none">SLAB-022</text>
<polygon class="slab-poly" data-slab-id="SLAB-023" points="1259.09,1202.46 1259.09,907.65 1421.74,907.65 1421.74,1202.46 1259.09,1202.46" fill="#2196F3" fill-opacity="0.45" stroke="#2196F3" stroke-width="1.5"/>
<text x="1340.4" y="1055.1" fill="#fff" font-size="9" text-anchor="middle" dominant-baseline="middle" font-family="Segoe UI, sans-serif" paint-order="stroke" stroke="#000" stroke-width="2" pointer-events="none">SLAB-023</text>
<polygon class="slab-poly" data-slab-id="SLAB-024" points="1196.77,1202.46 1196.77,907.65 1265.94,907.65 1265.94,1202.46 1196.77,1202.46" fill="#2196F3" fill-opacity="0.45" stroke="#2196F3" stroke-width="1.5"/>
<text x="1231.4" y="1055.1" fill="#fff" font-size="9" text-anchor="middle" dominant-baseline="middle" font-family="Segoe UI, sans-serif" paint-order="stroke" stroke="#000" stroke-width="2" pointer-events="none">SLAB-024</text>
<polygon class="slab-poly" data-slab-id="SLAB-025" points="2020.03,907.65 2020.03,1202.46 1892.06,1202.46 1892.13,1201.96 1892.58,1192.79 1892.58,1120.59 1898.55,1115.23 1904.74,1108.46 1910.24,1101.12 1914.99,1093.27 1918.95,1085.00 1922.09,1076.37 1924.36,1067.48 1925.74,1058.42 1926.24,1049.25 1925.83,1040.09 1924.53,1031.01 1922.34,1022.10 1919.29,1013.44 1915.41,1005.13 1910.73,997.24 1905.30,989.85 1899.17,983.02 1896.12,979.95 1899.17,976.87 1905.29,970.05 1910.72,962.65 1915.40,954.76 1919.29,946.45 1922.34,937.80 1924.52,928.89 1925.83,919.80 1926.24,910.64 1926.07,907.65 2020.03,907.65" fill="#2196F3" fill-opacity="0.45" stroke="#2196F3" stroke-width="1.5"/>
<text x="1964.2" y="1062.2" fill="#fff" font-size="9" text-anchor="middle" dominant-baseline="middle" font-family="Segoe UI, sans-serif" paint-order="stroke" stroke="#000" stroke-width="2" pointer-events="none">SLAB-025</text>
<polygon class="slab-poly" data-slab-id="SLAB-026" points="1203.62,1195.60 1203.62,1424.08 646.52,1424.08 652.84,1421.09 660.70,1416.37 668.07,1410.91 674.87,1404.75 681.03,1397.95 686.50,1390.58 691.21,1382.71 695.13,1374.42 698.22,1365.78 700.45,1356.88 701.80,1347.80 702.25,1338.64 702.25,1278.80 701.80,1269.64 700.45,1260.57 698.22,1251.67 695.13,1243.03 691.21,1234.73 686.50,1226.86 681.03,1219.50 674.87,1212.70 668.07,1206.54 660.70,1201.07 652.84,1196.35 651.24,1195.60 1203.62,1195.60" fill="#2196F3" fill-opacity="0.45" stroke="#2196F3" stroke-width="1.5"/>
<text x="947.1" y="1309.9" fill="#fff" font-size="9" text-anchor="middle" dominant-baseline="middle" font-family="Segoe UI, sans-serif" paint-order="stroke" stroke="#000" stroke-width="2" pointer-events="none">SLAB-026</text>
<polygon class="slab-poly" data-slab-id="SLAB-027" points="1196.77,1539.34 1196.77,1195.60 1421.74,1195.60 1421.74,1539.34 1196.77,1539.34" fill="#2196F3" fill-opacity="0.45" stroke="#2196F3" stroke-width="1.5"/>
<text x="1309.3" y="1367.5" fill="#fff" font-size="9" text-anchor="middle" dominant-baseline="middle" font-family="Segoe UI, sans-serif" paint-order="stroke" stroke="#000" stroke-width="2" pointer-events="none">SLAB-027</text>
<polygon class="slab-poly" data-slab-id="SLAB-028" points="2082.35,1195.60 2082.35,1539.34 1857.37,1539.34 1857.37,1265.83 1858.40,1265.06 1865.20,1258.90 1871.36,1252.10 1876.83,1244.74 1881.54,1236.87 1885.47,1228.57 1888.56,1219.93 1890.78,1211.03 1892.13,1201.96 1892.44,1195.60 2082.35,1195.60" fill="#2196F3" fill-opacity="0.45" stroke="#2196F3" stroke-width="1.5"/>
<text x="1972.1" y="1370.7" fill="#fff" font-size="9" text-anchor="middle" dominant-baseline="middle" font-family="Segoe UI, sans-serif" paint-order="stroke" stroke="#000" stroke-width="2" pointer-events="none">SLAB-028</text>
<polygon class="slab-poly" data-slab-id="SLAB-029" points="1649.22,1539.34 1442.93,1539.34 1442.93,1195.60 1558.68,1195.60 1558.99,1201.96 1560.34,1211.03 1562.57,1219.93 1565.66,1228.57 1569.58,1236.87 1574.29,1244.74 1579.76,1252.10 1585.92,1258.90 1592.72,1265.06 1600.09,1270.53 1607.95,1275.25 1616.25,1279.17 1624.89,1282.26 1633.78,1284.49 1642.86,1285.83 1649.22,1286.15 1649.22,1539.34" fill="#2196F3" fill-opacity="0.45" stroke="#2196F3" stroke-width="1.5"/>
<text x="1539.7" y="1380.6" fill="#fff" font-size="9" text-anchor="middle" dominant-baseline="middle" font-family="Segoe UI, sans-serif" paint-order="stroke" stroke="#000" stroke-width="2" pointer-events="none">SLAB-029</text>
<polygon class="slab-poly" data-slab-id="SLAB-030" points="1836.18,1539.34 1686.65,1539.34 1686.65,1286.28 1799.10,1286.28 1808.26,1285.83 1817.34,1284.49 1826.24,1282.26 1834.87,1279.17 1836.18,1278.55 1836.18,1539.34" fill="#2196F3" fill-opacity="0.45" stroke="#2196F3" stroke-width="1.5"/>
<text x="1761.6" y="1412.5" fill="#fff" font-size="9" text-anchor="middle" dominant-baseline="middle" font-family="Segoe UI, sans-serif" paint-order="stroke" stroke="#000" stroke-width="2" pointer-events="none">SLAB-030</text>
<polygon class="slab-poly" data-slab-id="SLAB-031" points="1203.62,1417.22 1203.62,1539.34 328.02,1539.34 328.02,1455.75 330.83,1449.81 333.92,1441.17 336.15,1432.27 337.50,1423.19 337.79,1417.22 420.25,1417.22 426.70,1421.09 434.99,1425.01 443.63,1428.10 452.53,1430.33 461.60,1431.68 470.76,1432.13 608.77,1432.13 617.93,1431.68 627.01,1430.33 635.90,1428.10 644.54,1425.01 652.84,1421.09 659.29,1417.22 1203.62,1417.22" fill="#2196F3" fill-opacity="0.45" stroke="#2196F3" stroke-width="1.5"/>
<text x="773.6" y="1480.0" fill="#fff" font-size="9" text-anchor="middle" dominant-baseline="middle" font-family="Segoe UI, sans-serif" paint-order="stroke" stroke="#000" stroke-width="2" pointer-events="none">SLAB-031</text>
</svg>