<svg xmlns="http://www.w3.org/2000/svg" width="3200" height="1600" viewBox="0 0 3200 1600">
<rect width="100%" height="100%" fill="#121212"/>
<polygon points="503.48,748.58 503.48,738.97 646.99,738.97 646.99,748.58 652.97,748.58 652.97,748.58 658.95,748.58 658.95,738.97 741.17,738.97 741.17,748.58 747.15,748.58 747.15,748.58 753.13,748.58 753.13,738.97 901.13,738.97 901.13,748.58 907.11,748.58 907.11,1319.65 901.13,1319.65 901.13,1329.25 753.13,1329.25 753.13,1319.65 747.15,1319.65 747.15,1319.65 741.17,1319.65 741.17,1329.25 658.95,1329.25 658.95,1319.65 652.97,1319.65 652.97,1319.65 646.99,1319.65 646.99,1329.25 503.48,1329.25 503.48,1319.65 497.50,1319.65 497.50,923.60 500.49,923.60 500.49,909.41 641.01,909.41 500.49,909.41 500.49,904.39 497.50,904.39 497.50,748.58 503.48,748.58" fill="#FF9800" fill-opacity="0.12" stroke="#FFB74D" stroke-width="0.6"/>
<polygon points="289.70,748.58 295.68,748.58 295.68,738.97 485.54,738.97 485.54,748.58 491.52,748.58 491.52,1319.65 485.54,1319.65 485.54,1329.25 295.68,1329.25 295.68,1319.65 289.70,1319.65 283.72,1319.65 283.72,1329.25 93.87,1329.25 93.87,1319.65 87.89,1319.65 87.89,748.58 93.87,748.58 93.87,738.97 283.72,738.97 283.72,748.58 289.70,748.58" fill="#FF9800" fill-opacity="0.12" stroke="#FFB74D" stroke-width="0.6"/>
<polygon points="1665.03,1233.74 1665.03,1243.35 1337.64,1243.35 1337.64,1233.75 1331.66,1233.75 1331.66,748.58 1337.64,748.58 1337.64,738.97 1665.03,738.97 1665.03,748.58 1671.00,748.58 1671.00,1233.74 1665.03,1233.74" fill="#FF9800" fill-opacity="0.12" stroke="#FFB74D" stroke-width="0.6"/>
<polygon points="31.03,1239.96 37.01,1239.96 37.01,1230.36 69.95,1230.36 69.95,1073.86 37.01,1073.86 37.01,1064.26 31.03,1064.26 31.03,1045.06 37.01,1045.06 37.01,1035.45 69.95,1035.45 69.95,959.59 37.01,959.59 37.01,949.99 31.03,949.99 31.03,930.79 37.01,930.79 37.01,921.19 69.95,921.19 69.95,863.79 36.95,863.79 36.95,854.19 30.97,854.18 31.06,719.76 37.04,719.77 37.04,710.17 69.95,710.17 69.95,556.35 37.01,556.35 37.01,546.75 31.03,546.75 31.03,527.55 37.01,527.55 37.01,517.94 69.95,517.94 69.95,466.58 36.99,466.58 36.99,456.98 31.01,456.98 31.01,437.77 36.99,437.77 36.99,428.17 69.95,428.17 69.95,314.87 36.97,314.87 36.97,305.27 30.99,305.27 30.99,286.06 36.97,286.06 36.97,276.46 69.95,276.46 69.95,214.05 36.97,214.05 36.97,204.45 30.99,204.45 30.99,185.25 36.97,185.25 36.97,175.65 69.95,175.65 69.95,19.15 36.97,19.15 36.97,9.55 30.99,9.55 30.99,-9.66 36.97,-9.66 36.97,-19.26 69.95,-19.26 69.95,-58.23 36.91,-58.23 36.91,-67.83 31.01,-67.83 31.01,-182.67 36.99,-182.67 36.99,-192.27 75.93,-192.27 75.93,-173.07 75.87,-173.07 75.87,-163.62 81.85,-163.62 81.85,-87.03 75.87,-87.03 75.87,-77.43 48.88,-77.43 48.88,-87.03 42.97,-87.04 42.97,-77.43 75.87,-77.43 75.87,-67.83 81.91,-67.83 81.91,-9.66 75.93,-9.66 75.93,-0.05 75.93,-0.05 75.93,9.55 81.91,9.55 81.91,185.25 75.93,185.25 75.93,194.85 75.93,194.85 75.93,204.45 81.91,204.45 81.91,286.06 75.93,286.06 75.93,295.67 75.93,295.67 75.93,305.27 81.91,305.27 81.91,437.77 75.95,437.77 75.95,447.37 75.95,447.37 75.95,456.98 81.91,456.98 81.91,527.54 75.97,527.54 75.97,537.15 75.97,537.15 75.97,546.75 81.91,546.75 81.91,719.77 75.93,719.77 75.93,729.37 75.93,729.37 75.93,738.97 81.91,738.97 81.91,796.38 69.95,796.38 69.95,748.58 54.96,748.58 54.90,825.39 69.95,825.39 69.95,815.59 81.91,815.59 81.91,930.79 75.98,930.79 75.98,940.39 75.98,940.39 75.98,949.99 81.91,949.99 81.91,1045.06 75.98,1045.06 75.98,1054.66 75.98,1054.66 75.98,1064.26 81.91,1064.26 81.91,1239.96 75.98,1239.96 75.98,1249.56 75.98,1249.56 75.98,1259.16 81.91,1259.16 81.91,1334.27 75.93,1334.27 75.93,1343.87 43.15,1343.87 43.15,1353.49 48.93,1353.48 48.93,1343.87 75.93,1343.87 75.93,1353.48 81.91,1353.48 81.91,1430.06 75.93,1430.06 75.93,1439.67 48.98,1439.67 48.98,1430.06 43.15,1430.08 43.15,1439.67 87.89,1439.67 87.89,1353.25 93.87,1353.25 93.87,1343.65 154.30,1343.65 154.30,1353.25 160.28,1353.25 160.28,1353.63 160.28,1353.25 166.26,1353.25 166.26,1343.65 413.22,1343.65 413.22,1353.25 419.20,1353.25 419.20,1439.66 425.19,1439.66 425.20,1430.27 419.22,1430.27 419.22,1353.46 425.18,1353.46 425.18,1343.65 485.54,1343.65 485.54,1353.25 491.52,1353.25 491.52,1439.66 503.48,1439.66 503.48,1430.06 497.50,1430.06 497.50,1353.25 503.48,1353.25 503.48,1343.65 560.29,1343.65 560.29,1353.25 566.27,1353.25 566.27,1353.25 572.25,1353.25 572.25,1343.65 643.17,1343.65 643.17,1353.25 649.15,1353.25 649.15,1353.63 649.15,1353.25 655.13,1353.25 655.13,1343.65 738.18,1343.65 738.18,1353.25 744.16,1353.25 750.14,1353.25 750.14,1343.65 901.12,1343.65 901.12,1353.25 907.10,1353.25 907.10,1430.06 901.12,1430.06 901.12,1439.66 753.77,1439.66 984.84,1439.66 984.84,1430.06 978.86,1430.06 978.86,1439.66 919.06,1439.66 919.06,1430.06 913.08,1430.06 913.08,1353.25 919.06,1353.25 919.06,1343.65 919.06,1343.65 919.06,1334.05 913.08,1334.05 913.08,753.38 919.06,753.38 919.06,743.78 1182.17,743.78 1182.17,753.38 1188.15,753.38 1188.15,753.38 1194.13,753.38 1194.13,743.78 1319.70,743.78 1319.70,753.38 1325.68,753.38 1325.68,921.20 1319.70,921.20 1319.70,930.80 1319.70,940.40 1325.68,940.40 1325.68,1238.37 1319.70,1238.37 1319.70,1247.97 1194.13,1247.98 1194.13,1238.37 1188.15,1238.37 1188.15,942.87 1188.15,1267.35 1194.13,1267.35 1194.13,1257.75 1253.92,1257.75 1253.92,1267.35 1259.90,1267.35 1259.90,1267.35 1265.88,1267.35 1265.88,1257.75 1330.20,1257.75 1330.20,1267.35 1336.18,1267.35 1336.18,1267.40 1336.18,1267.35 1342.15,1267.35 1342.15,1257.75 1589.12,1257.75 1589.12,1267.35 1595.09,1267.35 1595.09,1267.40 1595.09,1267.35 1601.07,1267.35 1601.07,1257.75 1665.03,1257.75 1665.03,1267.35 1671.01,1267.35 1671.01,1439.76 1682.97,1439.76 1682.97,1430.16 1676.99,1430.16 1676.99,1353.25 1682.97,1353.25 1682.97,1343.65 1736.78,1343.65 1736.78,1353.25 1742.76,1353.25 1748.74,1353.25 1748.74,1343.65 1818.74,1343.65 1818.74,1353.25 1824.72,1353.25 1824.72,1353.32 1824.72,1353.25 1830.70,1353.25 1830.70,1343.65 1972.98,1343.65 1972.98,1353.25 1978.96,1353.25 1984.94,1353.25 1984.94,1343.65 2074.64,1343.65 2074.64,1353.25 2080.62,1353.25 2080.62,1430.06 2074.64,1430.06 2074.64,1439.66 1984.94,1439.66 1984.94,1430.06 1978.96,1430.06 1978.96,1439.66 2174.11,1439.66 2092.58,1439.66 2092.58,1430.06 2086.60,1430.06 2086.60,1353.25 2092.58,1353.25 2092.58,1343.65 2182.27,1343.65 2182.27,1353.25 2188.25,1353.25 2188.25,1353.25 2194.23,1353.25 2194.23,1343.65 2336.28,1343.65 2336.28,1353.25 2342.26,1353.25 2342.26,1353.32 2342.26,1353.25 2348.24,1353.25 2348.24,1343.65 2418.47,1343.65 2418.47,1353.25 2424.45,1353.25 2424.45,1353.25 2430.43,1353.25 2430.43,1343.65 2487.23,1343.65 2487.23,1353.25 2493.21,1353.25 2493.21,1430.06 2487.23,1430.06 2487.23,1439.66 2430.43,1439.66 2430.43,1430.06 2424.45,1430.06 2424.45,1439.74 2499.19,1439.81 2499.19,1353.25 2505.17,1353.25 2505.17,1343.65 2565.66,1343.65 2565.66,1353.25 2571.64,1353.25 2571.64,1430.06 2565.66,1430.06 2565.68,1439.66 2519.24,1439.82 2571.64,1439.87 2571.64,1353.25 2577.62,1353.25 2577.62,1343.65 2824.58,1343.65 2824.58,1353.25 2830.56,1353.25 2830.56,1353.32 2830.56,1353.25 2836.54,1353.25 2836.54,1343.86 2895.86,1343.86 2895.86,1363.07 2842.52,1363.07 2842.52,1439.70 2896.84,1439.70 2896.84,1458.90 2836.54,1458.90 2824.58,1458.90 2824.58,1449.30 2818.60,1449.30 2818.60,1362.85 2583.60,1362.85 2583.60,1449.30 2577.64,1449.30 2577.63,1459.08 2336.28,1458.86 2336.28,1449.26 2330.30,1449.26 2330.30,1362.85 2200.21,1362.85 2200.21,1449.26 2194.23,1449.26 2194.23,1458.86 1972.98,1458.86 1972.98,1449.26 1967.00,1449.26 1967.00,1362.85 1836.68,1362.85 1836.68,1449.36 1830.70,1449.36 1830.70,1458.96 1665.03,1458.96 1665.03,1449.36 1659.05,1449.36 1659.05,1276.95 1607.05,1276.95 1607.05,1353.82 1601.07,1353.82 1601.07,1363.42 1589.12,1363.42 1589.12,1353.82 1583.14,1353.82 1583.14,1276.95 1348.13,1276.95 1348.13,1353.82 1342.15,1353.82 1342.15,1363.42 1330.20,1363.42 1330.20,1353.82 1324.22,1353.82 1324.22,1276.95 1271.86,1276.95 1271.86,1449.27 1265.88,1449.27 1265.88,1458.87 1073.14,1458.87 1073.14,1449.27 1067.16,1449.27 1067.16,1362.85 996.80,1362.85 996.80,1449.26 990.82,1449.26 990.82,1458.86 738.18,1458.86 738.18,1449.26 732.20,1449.26 732.20,1362.85 661.11,1362.85 661.11,1449.26 655.13,1449.26 655.13,1458.86 413.22,1458.86 413.22,1449.26 407.24,1449.26 407.24,1362.85 172.24,1362.85 172.24,1449.26 166.26,1449.26 166.26,1458.86 37.17,1458.87 37.17,1449.27 31.19,1449.27 31.19,1334.27 37.10,1334.27 37.10,1324.67 69.95,1324.67 69.95,1268.77 37.01,1268.77 37.01,1259.16 31.03,1259.16 31.03,1239.96" fill="#FF9800" fill-opacity="0.12" stroke="#FFB74D" stroke-width="0.6"/>
<polygon points="485.54,719.77 485.54,729.37 359.97,729.37 359.97,719.77 353.99,719.77 353.99,489.14 359.97,489.14 359.97,479.54 485.54,479.54 485.54,489.14 491.52,489.14 491.52,719.77 485.54,719.77" fill="#FF9800" fill-opacity="0.12" stroke="#FFB74D" stroke-width="0.6"/>
<polygon points="907.11,489.14 907.11,719.77 901.13,719.77 901.13,729.37 503.48,729.37 503.48,719.77 497.50,719.77 497.50,489.14 503.48,489.14 503.48,479.54 901.13,479.54 901.13,489.14 907.11,489.14" fill="#FF9800" fill-opacity="0.12" stroke="#FFB74D" stroke-width="0.6"/>
<polygon points="1319.70,719.77 1319.70,729.37 919.06,729.37 919.06,719.77 913.08,719.77 913.08,489.14 919.06,489.14 919.06,479.54 1319.70,479.54 1319.70,489.14 1325.68,489.14 1325.68,719.77 1319.70,719.77" fill="#FF9800" fill-opacity="0.12" stroke="#FFB74D" stroke-width="0.6"/>
<polygon points="1331.66,489.14 1337.64,489.14 1337.64,479.54 1665.03,479.54 1665.03,489.14 1671.00,489.14 1671.00,719.77 1665.03,719.77 1665.03,729.37 1337.64,729.37 1337.64,719.77 1331.66,719.77 1331.66,489.14" fill="#FF9800" fill-opacity="0.12" stroke="#FFB74D" stroke-width="0.6"/>
<polygon points="93.81,-53.33 87.83,-53.36 87.89,-87.06 93.87,-87.03 93.87,-96.63 177.54,-96.59 177.54,-240.39 183.52,-240.39 183.52,-249.99 195.48,-249.99 195.48,-240.39 201.46,-240.39 201.46,-96.57 328.56,-96.34 328.52,-182.75 334.50,-182.76 334.50,-192.36 346.46,-192.36 346.46,-182.76 352.44,-182.76 352.47,-96.33 410.80,-96.33 410.81,-182.82 416.79,-182.82 416.79,-192.42 485.61,-192.42 485.61,-173.22 422.77,-173.22 422.76,-163.61 428.73,-163.61 428.73,-173.22 485.54,-173.22 485.54,-163.77 491.52,-163.77 491.52,-87.22 485.54,-87.22 485.54,-77.21 428.75,-77.13 428.75,-86.73 422.77,-86.73 422.76,-128.00 422.75,-86.85 416.79,-86.85 416.79,-77.13 346.50,-77.13 346.50,-86.73 340.52,-86.72 340.52,-86.74 334.54,-86.73 334.53,-77.13 195.47,-77.38 195.48,-86.98 189.50,-86.98 189.50,-86.98 183.52,-86.98 183.52,-77.38 99.83,-77.43 99.81,-62.93 342.03,-62.93 342.03,-53.33 348.01,-53.33 348.01,553.47 342.03,553.47 342.03,563.07 342.01,563.07 342.03,563.07 342.03,572.67 348.01,572.67 348.01,719.77 342.03,719.77 342.03,729.37 225.76,729.37 225.76,719.77 219.78,719.77 213.80,719.77 213.80,729.37 93.87,729.37 93.87,719.77 87.89,719.77 87.89,572.67 93.87,572.67 93.87,563.07 93.87,563.07 93.87,553.47 87.89,553.47 87.83,-53.33 93.81,-53.33" fill="#FF9800" fill-opacity="0.12" stroke="#FFB74D" stroke-width="0.6"/>
<polygon points="1507.31,-53.12 1507.31,-62.73 1665.04,-62.73 1665.04,-53.12 1671.02,-53.12 1671.00,460.33 1665.03,460.33 1665.03,469.94 1507.31,469.94 1507.31,460.33 1501.33,460.33 1501.33,460.33 1495.35,460.33 1495.35,469.94 1337.64,469.94 1337.64,460.33 1331.66,460.33 1331.66,-53.12 1337.64,-53.12 1337.64,-62.73 1495.35,-62.73 1495.35,-53.12 1501.33,-53.12 1501.33,-53.12 1507.31,-53.12" fill="#FF9800" fill-opacity="0.12" stroke="#FFB74D" stroke-width="0.6"/>
<polygon points="485.54,-62.92 485.54,-53.32 491.52,-53.32 491.52,460.33 485.54,460.33 485.54,469.94 359.97,469.94 359.97,460.33 353.99,460.33 353.99,-53.32 359.97,-53.32 359.97,-62.92 485.54,-62.92" fill="#FF9800" fill-opacity="0.12" stroke="#FFB74D" stroke-width="0.6"/>
<polygon points="503.48,-53.32 503.48,-62.93 528.37,-62.93 528.37,-53.33 534.35,-53.33 534.35,-53.33 540.33,-53.33 540.33,-62.93 717.75,-62.73 717.74,-53.12 723.72,-53.12 723.71,459.93 723.72,-53.13 729.70,-53.12 729.70,-62.73 901.13,-62.73 901.13,-53.12 907.11,-53.12 907.11,460.33 901.13,460.33 901.13,469.94 729.69,469.94 729.69,460.33 723.71,460.33 723.71,460.33 717.73,460.33 717.73,469.94 540.33,469.94 540.33,460.33 534.35,460.33 534.35,460.33 528.37,460.33 528.37,469.94 503.48,469.94 503.48,460.33 497.50,460.33 497.50,-53.32 503.48,-53.32" fill="#FF9800" fill-opacity="0.12" stroke="#FFB74D" stroke-width="0.6"/>
<polygon points="919.08,-53.12 919.08,-62.73 1113.41,-62.73 1113.41,-53.12 1119.39,-53.12 1119.39,-53.38 1125.37,-53.38 1125.38,-62.98 1319.72,-62.73 1319.71,-53.12 1325.69,-53.12 1325.68,460.33 1319.70,460.33 1319.70,469.94 1119.38,469.94 1119.38,450.73 1119.39,450.73 1119.39,364.32 1107.44,364.32 1107.44,-43.52 925.06,-43.52 925.04,354.72 1107.42,354.72 1107.42,373.92 1107.42,373.92 1107.42,383.52 1113.40,383.52 1113.40,460.33 1107.42,460.33 1107.42,469.94 984.83,469.94 984.83,460.33 978.85,460.33 978.85,460.33 972.87,460.33 972.87,469.94 919.06,469.94 919.06,460.33 913.08,460.33 913.08,383.52 919.06,383.52 919.06,373.92 919.06,373.92 919.06,364.32 913.08,364.32 913.10,-53.13 919.08,-53.12" fill="#FF9800" fill-opacity="0.12" stroke="#FFB74D" stroke-width="0.6"/>
<polygon points="1229.99,-77.13 1229.99,-86.73 1224.01,-86.73 1224.01,-163.61 1229.99,-163.61 1229.99,-173.21 1319.78,-173.21 1319.78,-163.79 1325.68,-163.79 1325.68,-87.22 1319.78,-87.22 1319.78,-77.13 1229.99,-77.13" fill="#FF9800" fill-opacity="0.12" stroke="#FFB74D" stroke-width="0.6"/>
<polygon points="503.48,-163.77 503.48,-173.21 560.29,-173.21 560.29,-163.61 566.27,-163.61 566.27,-173.21 503.47,-173.21 503.47,-192.42 572.25,-192.42 572.25,-182.81 578.22,-182.81 578.22,-96.33 645.85,-96.33 645.85,-182.76 651.83,-182.76 651.83,-192.36 663.79,-192.36 663.79,-182.76 669.77,-182.76 669.77,-96.33 793.47,-96.33 793.47,-182.97 799.45,-182.97 799.45,-192.58 990.83,-192.58 990.83,-182.97 996.81,-182.97 996.81,-96.62 1064.41,-96.62 1064.41,-182.97 1070.38,-182.97 1070.38,-192.57 1082.34,-192.57 1082.34,-182.97 1088.32,-182.97 1088.32,-96.33 1212.05,-96.33 1212.05,-182.71 1217.95,-182.71 1217.95,-192.42 1313.72,-192.41 1313.72,-240.60 1319.70,-240.60 1319.70,-250.20 1331.66,-250.20 1331.66,-240.60 1337.64,-240.60 1337.64,-183.07 1325.68,-183.07 1325.68,-183.07 1319.70,-183.07 1319.70,-173.21 1224.01,-173.21 1224.01,-86.73 1218.03,-86.73 1218.03,-77.13 1082.42,-77.13 1082.42,-87.02 1076.36,-87.02 1076.36,-87.27 1076.36,-87.02 1070.38,-87.02 1070.38,-77.42 990.82,-77.42 990.82,-87.02 984.85,-87.02 984.85,-173.37 978.86,-173.37 978.86,-163.77 984.84,-163.77 984.84,-87.02 978.86,-87.02 978.86,-77.42 919.00,-77.42 919.00,-87.22 913.08,-87.22 913.08,-163.77 919.06,-163.77 919.06,-173.37 901.13,-173.37 901.13,-163.77 907.11,-163.77 907.11,-87.22 907.10,-87.22 907.10,-87.22 901.13,-87.22 901.13,-77.13 811.40,-77.13 811.40,-87.22 805.43,-87.22 805.43,-86.73 799.45,-86.73 799.45,-77.13 663.79,-77.13 663.79,-86.73 657.81,-86.73 657.81,-135.02 657.81,-87.27 651.75,-87.27 651.75,-77.13 572.25,-77.13 572.25,-86.73 566.27,-86.73 566.27,-87.22 560.29,-87.22 560.29,-77.13 503.48,-77.13 503.48,-87.22 497.50,-87.22 497.50,-163.77 503.48,-163.77" fill="#FF9800" fill-opacity="0.12" stroke="#FFB74D" stroke-width="0.6"/>
<polygon points="2914.78,1420.69 2935.72,1420.69 2935.73,1363.08 2914.80,1363.09 2914.80,1343.88 2914.80,1343.88 2914.79,1334.28 2908.82,1334.29 2908.80,835.31 2914.78,835.31 2914.78,825.53 2932.13,825.53 2914.73,825.53 2914.73,815.79 2908.80,815.79 2908.80,748.58 2920.76,748.58 2920.76,806.33 2935.64,806.33 2935.64,748.72 2947.60,748.72 2947.60,815.93 2941.62,815.93 2941.62,825.53 2947.68,825.53 2947.62,748.74 2959.58,748.71 2959.64,835.12 2953.66,835.14 2953.66,844.74 2920.76,844.74 2920.77,1324.68 2953.67,1324.67 2953.67,1334.27 2959.65,1334.27 2959.64,1449.28 2953.66,1449.28 2953.66,1458.88 2914.78,1458.88 2914.78,1439.89 2914.78,1439.68 2914.78,1420.69" fill="#FF9800" fill-opacity="0.12" stroke="#FFB74D" stroke-width="0.6"/>
<polygon points="2505.17,748.58 2505.17,738.97 2565.01,738.97 2565.01,748.58 2570.99,748.58 2570.99,748.58 2576.97,748.58 2576.97,738.97 2893.85,738.97 2893.85,748.58 2899.83,748.58 2899.83,1041.19 2893.85,1041.19 2893.85,1050.79 2893.85,1060.39 2899.83,1060.39 2899.83,1319.65 2893.85,1319.65 2893.85,1329.25 2505.17,1329.25 2505.17,1319.65 2499.19,1319.65 2499.19,1060.39 2505.17,1060.39 2505.17,1050.79 2505.17,1041.19 2499.19,1041.19 2499.19,834.79 2505.17,834.79 2505.17,825.19 2505.17,815.58 2499.19,815.58 2499.19,748.58 2505.17,748.58" fill="#FF9800" fill-opacity="0.12" stroke="#FFB74D" stroke-width="0.6"/>
<polygon points="1787.61,748.58 1793.59,748.58 1793.59,748.58 1799.57,748.58 1799.57,738.97 2074.64,738.97 2074.64,748.58 2080.62,748.58 2080.62,1319.65 2074.64,1319.65 2074.64,1329.25 1799.57,1329.25 1799.57,1319.65 1793.59,1319.65 1793.59,1319.65 1787.61,1319.65 1787.61,1329.25 1682.96,1329.25 1682.96,1319.65 1676.98,1319.65 1676.98,901.99 1682.96,901.99 1682.96,892.39 1682.96,892.39 1682.96,882.79 1676.98,882.79 1676.98,748.58 1682.96,748.58 1682.96,738.97 1787.61,738.97 1787.61,748.58" fill="#FF9800" fill-opacity="0.12" stroke="#FFB74D" stroke-width="0.6"/>
<polygon points="2289.90,748.58 2289.90,748.58 2295.88,748.58 2295.88,738.97 2487.23,738.97 2487.23,748.58 2493.21,748.58 2493.21,1319.65 2487.23,1319.65 2487.23,1329.25 2295.88,1329.25 2295.88,1319.65 2289.90,1319.65 2289.90,1319.65 2283.93,1319.65 2283.93,1329.25 2092.57,1329.25 2092.57,1319.65 2086.60,1319.65 2086.60,748.58 2092.57,748.58 2092.57,738.97 2283.93,738.97 2283.93,748.58 2289.90,748.58" fill="#FF9800" fill-opacity="0.12" stroke="#FFB74D" stroke-width="0.6"/>
<polygon points="3127.05,815.89 3127.05,825.49 3112.11,825.49 3112.11,806.28 3121.07,806.28 3121.07,748.71 3112.04,748.71 3112.04,729.51 3127.05,729.51 3127.05,739.11 3133.03,739.11 3133.03,815.89 3127.05,815.89" fill="#FF9800" fill-opacity="0.12" stroke="#FFB74D" stroke-width="0.6"/>
<polygon points="2074.64,729.37 1682.96,729.37 1682.96,719.77 1676.98,719.77 1676.98,489.14 1682.96,489.14 1682.96,479.54 2074.64,479.54 2074.64,489.14 2080.62,489.14 2080.62,719.77 2074.64,719.77 2074.64,729.37" fill="#FF9800" fill-opacity="0.12" stroke="#FFB74D" stroke-width="0.6"/>
<polygon points="2493.21,489.14 2493.21,719.77 2487.23,719.77 2487.23,729.37 2092.57,729.37 2092.57,719.77 2086.60,719.77 2086.60,489.14 2092.57,489.14 2092.57,479.54 2487.23,479.54 2487.23,489.14 2493.21,489.14" fill="#FF9800" fill-opacity="0.12" stroke="#FFB74D" stroke-width="0.6"/>
<polygon points="2893.85,729.37 2505.17,729.37 2505.17,719.77 2499.19,719.77 2499.19,489.14 2505.17,489.14 2505.17,479.54 2893.85,479.54 2893.85,489.14 2899.83,489.14 2899.83,719.77 2893.85,719.77 2893.85,729.37" fill="#FF9800" fill-opacity="0.12" stroke="#FFB74D" stroke-width="0.6"/>
<polygon points="3112.12,301.90 3112.12,292.30 3133.05,292.30 3133.05,292.24 3112.13,292.29 3112.12,282.69 3106.15,282.69 3106.15,163.00 3112.15,163.00 3112.15,153.09 3133.05,153.09 3133.05,153.03 3112.14,153.09 3112.12,133.89 3139.02,133.81 3139.03,143.41 3145.01,143.41 3145.01,162.69 3139.03,162.69 3139.03,172.29 3118.10,172.29 3118.10,273.07 3139.02,273.02 3139.03,282.62 3145.01,282.62 3145.01,301.90 3139.03,301.90 3139.03,311.51 3118.10,311.51 3118.10,710.28 3139.01,710.28 3139.01,719.88 3144.99,719.88 3144.99,835.09 3139.01,835.09 3139.01,844.69 3100.18,844.69 3100.18,835.09 3094.21,835.09 3094.21,815.89 3106.16,815.89 3106.16,825.49 3133.03,825.49 3133.03,729.48 3112.11,729.48 3112.11,719.88 3106.15,719.88 3106.15,301.90 3112.12,301.90" fill="#FF9800" fill-opacity="0.12" stroke="#FFB74D" stroke-width="0.6"/>
<polygon points="2914.78,162.70 2914.78,153.10 3100.15,153.10 3100.15,163.00 3106.15,163.00 3106.15,719.88 3100.16,719.88 3100.16,729.52 3100.16,748.72 2986.64,748.72 2986.64,729.52 2986.64,710.32 3094.19,710.32 3094.19,172.31 2920.76,172.31 2920.76,714.77 2908.80,714.77 2908.80,162.70 2914.78,162.70" fill="#FF9800" fill-opacity="0.12" stroke="#FFB74D" stroke-width="0.6"/>
<polygon points="1787.62,316.31 1682.96,316.31 1682.96,306.71 1676.98,306.71 1676.98,-53.13 1682.96,-53.13 1682.96,-62.73 1787.61,-62.94 1787.62,-53.34 1793.60,-53.34 1793.60,-53.12 1799.58,-53.12 1799.57,-62.73 2074.57,-62.94 2074.57,-53.32 2080.62,-53.32 2080.62,460.33 2074.64,460.33 2074.64,469.94 1799.58,469.94 1799.58,460.33 1793.60,460.33 1793.60,460.33 1787.62,460.33 1787.62,469.94 1682.96,469.94 1682.96,460.33 1676.98,460.33 1676.98,325.91 1682.96,325.91 1682.96,316.31 1787.62,316.31 1787.62,325.81 1793.60,325.81 1793.60,306.71 1787.62,306.71 1787.62,316.31" fill="#FF9800" fill-opacity="0.12" stroke="#FFB74D" stroke-width="0.6"/>
<polygon points="2295.88,-53.39 2295.88,-62.99 2487.23,-63.03 2487.23,-53.32 2493.21,-53.32 2493.21,460.33 2487.23,460.33 2487.23,469.94 2370.63,469.94 2370.63,450.73 2481.25,450.73 2481.25,-43.83 2301.86,-43.79 2301.86,450.73 2358.67,450.73 2358.67,469.94 2295.88,469.94 2295.88,460.33 2289.90,460.33 2289.90,460.33 2283.93,460.33 2283.93,469.94 2092.57,469.94 2092.57,460.33 2086.60,460.33 2086.60,-53.31 2092.52,-53.31 2092.51,-62.94 2283.92,-62.98 2283.93,-53.38 2289.90,-53.38 2289.90,203.47 2289.90,-53.39 2295.88,-53.39" fill="#FF9800" fill-opacity="0.12" stroke="#FFB74D" stroke-width="0.6"/>
<polygon points="2695.03,-63.05 2695.03,-53.45 2701.01,-53.45 2701.01,296.36 2701.01,-53.45 2706.99,-53.45 2706.99,-63.05 2893.85,-63.05 2893.85,-53.45 2899.83,-53.45 2899.83,460.33 2893.85,460.33 2893.85,469.94 2706.99,469.94 2706.99,460.33 2701.01,460.33 2701.01,460.33 2695.03,460.33 2695.03,469.94 2633.74,469.94 2633.74,450.73 2689.05,450.73 2689.05,-43.84 2511.15,-43.84 2511.15,450.73 2621.78,450.73 2621.78,469.94 2505.17,469.94 2505.17,460.33 2499.19,460.33 2499.19,-53.32 2505.17,-53.32 2505.17,-63.04 2695.03,-63.05" fill="#FF9800" fill-opacity="0.12" stroke="#FFB74D" stroke-width="0.6"/>
<polygon points="1659.05,-240.60 1665.03,-240.60 1665.03,-250.20 1676.99,-250.20 1676.99,-240.60 1682.97,-240.60 1682.97,-192.58 1748.74,-192.58 1748.74,-182.98 1754.72,-182.98 1754.72,-96.62 1813.06,-96.62 1813.06,-182.95 1819.04,-182.95 1819.04,-192.55 1831.00,-192.55 1831.00,-182.95 1836.98,-182.95 1836.98,-96.61 1966.99,-96.34 1966.97,-182.96 1972.95,-182.96 1972.95,-192.56 2194.20,-192.57 2194.20,-182.97 2200.18,-182.97 2200.19,-96.33 2313.57,-96.33 2313.56,-182.93 2319.54,-182.94 2319.54,-192.54 2331.50,-192.54 2331.50,-182.94 2337.48,-182.94 2337.49,-96.33 2412.50,-96.33 2412.49,-182.97 2418.47,-182.97 2418.47,-192.57 2573.94,-192.57 2573.94,-182.97 2579.92,-182.97 2579.92,-96.62 2638.25,-96.62 2638.25,-182.76 2644.23,-182.76 2644.23,-192.36 2656.19,-192.36 2656.19,-182.76 2662.17,-182.76 2662.17,-96.62 2789.18,-96.62 2789.18,-182.80 2795.16,-182.80 2795.16,-192.40 2953.68,-192.40 2953.68,-182.80 2959.66,-182.80 2959.66,-67.51 2953.68,-67.51 2953.68,-57.91 2920.76,-57.91 2920.76,129.09 3100.15,129.09 3100.15,148.29 2914.78,148.29 2914.78,138.69 2908.80,138.69 2908.80,-67.51 2914.78,-67.51 2914.78,-77.11 2939.94,-77.11 2914.77,-77.15 2914.78,-86.75 2908.80,-86.75 2908.80,-163.52 2914.78,-163.52 2914.78,-173.12 2941.72,-173.12 2941.72,-163.52 2947.70,-163.52 2947.70,-125.15 2947.70,-173.20 2896.84,-173.20 2896.84,-163.62 2902.82,-163.62 2902.82,-87.22 2902.82,-87.22 2902.82,-87.02 2896.84,-87.02 2896.84,-77.42 2807.12,-77.42 2807.12,-87.02 2801.14,-87.02 2801.14,-87.02 2795.16,-87.02 2795.16,-77.42 2656.19,-77.42 2656.19,-87.02 2650.21,-87.02 2650.21,-87.24 2650.21,-87.02 2644.23,-87.02 2644.23,-77.42 2573.94,-77.42 2573.94,-87.02 2567.96,-87.02 2567.96,-87.02 2561.98,-87.02 2561.98,-77.42 2505.17,-77.42 2505.17,-87.22 2499.19,-87.22 2499.19,-163.77 2505.17,-163.77 2505.17,-173.15 2561.98,-173.15 2561.98,-163.55 2567.96,-163.55 2567.96,-173.37 2424.45,-173.37 2424.45,-163.76 2430.43,-163.77 2430.44,-173.37 2487.22,-173.15 2487.21,-163.77 2493.21,-163.77 2493.21,-87.22 2487.21,-87.22 2487.21,-77.13 2430.44,-77.13 2430.44,-86.73 2424.46,-86.73 2424.46,-86.73 2418.48,-86.73 2418.48,-77.13 2331.52,-77.12 2331.52,-86.72 2325.54,-86.72 2325.54,-86.73 2319.56,-86.73 2319.56,-77.13 2194.22,-77.13 2194.22,-86.73 2188.24,-86.73 2188.24,-86.73 2182.26,-86.73 2182.24,-77.13 2092.56,-77.62 2092.58,-87.22 2086.60,-87.22 2086.60,-163.77 2092.58,-163.77 2092.58,-173.36 2174.09,-173.37 1993.48,-173.36 2074.64,-173.36 2074.64,-163.77 2080.62,-163.77 2080.62,-87.22 2074.57,-87.22 2074.59,-77.42 1984.94,-77.13 1984.93,-86.73 1978.95,-86.73 1978.95,-86.73 1972.97,-86.73 1972.96,-77.13 1830.99,-77.42 1831.00,-87.02 1825.02,-87.02 1825.02,-87.25 1825.02,-87.02 1819.04,-87.02 1819.04,-77.42 1748.74,-77.42 1748.74,-87.02 1742.76,-87.02 1736.78,-87.02 1736.78,-77.42 1682.90,-77.42 1682.90,-87.22 1676.99,-87.22 1676.99,-163.87 1682.97,-163.87 1682.97,-173.38 1682.97,-173.47 1682.97,-183.07 1671.01,-183.07 1671.01,-183.07 1664.94,-183.07 1664.94,-173.08 1664.92,-173.08 1664.96,-154.01 1653.15,-153.96 1653.20,-96.62 1664.97,-96.62 1664.97,-77.42 1337.58,-77.42 1337.58,-96.62 1629.22,-96.62 1629.22,-182.68 1635.20,-182.68 1635.20,-192.28 1659.05,-192.28 1659.05,-240.60" fill="#FF9800" fill-opacity="0.12" stroke="#FFB74D" stroke-width="0.6"/>
<polygon class="slab-poly" data-slab-id="SLAB-001" points="906.81,145.42 1191.44,145.42 1191.44,610.29 1185.75,609.47 1176.95,609.60 1168.20,611.12 1159.58,614.00 1151.18,618.23 1143.08,623.75 1135.36,630.53 1128.09,638.49 1121.33,647.56 1118.54,652.13 1110.79,646.25 1085.93,631.96 1060.31,621.66 1034.19,615.44 1007.82,613.36 981.44,615.44 955.32,621.66 955.18,621.72 950.06,618.23 941.66,614.00 933.04,611.12 924.29,609.60 915.49,609.47 906.81,610.72 906.81,602.88 913.80,604.10 922.61,604.24 931.37,602.99 940.02,600.36 945.97,597.56 951.92,600.36 960.57,602.99 969.34,604.24 978.14,604.10 986.89,602.58 995.51,599.69 1003.91,595.46 1012.00,589.92 1019.73,583.14 1027.00,575.17 1033.75,566.10 1039.91,556.01 1045.43,545.00 1050.25,533.18 1054.33,520.65 1057.62,507.54 1060.09,493.98 1061.72,480.09 1062.50,466.01 1062.42,451.88 1061.47,437.83 1059.67,423.99 1059.27,421.93 1059.67,419.86 1061.47,406.03 1062.42,391.97 1062.50,377.84 1061.72,363.76 1060.09,349.88 1057.62,336.31 1054.33,323.20 1050.25,310.68 1045.43,298.85 1039.91,287.84 1033.75,277.75 1027.00,268.68 1019.73,260.71 1012.00,253.93 1003.91,248.40 995.51,244.16 986.89,241.27 978.14,239.75 969.34,239.62 960.57,240.87 951.92,243.49 945.97,246.29 940.02,243.49 931.37,240.87 922.61,239.62 913.80,239.75 906.81,240.97 906.81,145.42" fill="#66BB6A" fill-opacity="0.45" stroke="#66BB6A" stroke-width="1.5"/>
<text x="1092.9" y="359.9" fill="#fff" font-size="9" text-anchor="middle" dominant-baseline="middle" font-family="Segoe UI, sans-serif" paint-order="stroke" stroke="#000" stroke-width="2" pointer-events="none">SLAB-001</text>
<polygon class="slab-poly" data-slab-id="SLAB-002" points="1184.86,145.42 1331.96,145.42 1331.96,695.55 1318.17,687.63 1292.56,677.32 1266.44,671.10 1255.29,670.22 1253.73,666.53 1248.08,655.68 1241.80,645.78 1234.94,636.92 1227.58,629.17 1219.78,622.63 1211.62,617.34 1203.17,613.36 1194.52,610.73 1185.75,609.47 1184.86,609.48 1184.86,145.42" fill="#66BB6A" fill-opacity="0.45" stroke="#66BB6A" stroke-width="1.5"/>
<text x="1260.7" y="401.0" fill="#fff" font-size="9" text-anchor="middle" dominant-baseline="middle" font-family="Segoe UI, sans-serif" paint-order="stroke" stroke="#000" stroke-width="2" pointer-events="none">SLAB-002</text>
<polygon class="slab-poly" data-slab-id="SLAB-003" points="2704.30,739.85 2654.44,739.85 2654.09,731.61 2652.62,717.67 2650.32,704.03 2647.19,690.82 2643.26,678.17 2638.59,666.19 2633.21,655.01 2627.17,644.73 2620.53,635.45 2613.35,627.26 2605.72,620.23 2597.69,614.45 2589.34,609.95 2580.76,606.79 2572.03,605.00 2563.23,604.58 2554.45,605.56 2545.77,607.91 2537.28,611.62 2535.10,612.95 2532.92,611.62 2528.81,609.82 2528.81,145.42 2704.30,145.42 2704.30,343.01 2700.75,365.75 2696.87,407.69 2695.58,450.04 2695.58,450.09 2695.58,450.15 2696.87,492.50 2700.75,534.44 2704.30,557.18 2704.30,739.85" fill="#66BB6A" fill-opacity="0.45" stroke="#66BB6A" stroke-width="1.5"/>
<text x="2620.6" y="404.9" fill="#fff" font-size="9" text-anchor="middle" dominant-baseline="middle" font-family="Segoe UI, sans-serif" paint-order="stroke" stroke="#000" stroke-width="2" pointer-events="none">SLAB-003</text>
<polygon class="slab-poly" data-slab-id="SLAB-004" points="2286.62,739.85 2286.62,145.42 2500.77,145.42 2500.77,604.87 2498.17,605.00 2489.44,606.79 2480.86,609.95 2472.51,614.45 2464.48,620.23 2456.84,627.26 2449.67,635.45 2443.03,644.73 2436.99,655.01 2431.61,666.19 2426.93,678.17 2423.01,690.82 2419.88,704.03 2417.57,717.67 2416.11,731.61 2415.75,739.85 2286.62,739.85" fill="#66BB6A" fill-opacity="0.45" stroke="#66BB6A" stroke-width="1.5"/>
<text x="2388.4" y="424.9" fill="#fff" font-size="9" text-anchor="middle" dominant-baseline="middle" font-family="Segoe UI, sans-serif" paint-order="stroke" stroke="#000" stroke-width="2" pointer-events="none">SLAB-004</text>
<polygon class="slab-poly" data-slab-id="SLAB-005" points="90.57,145.42 357.27,145.42 357.27,739.85 165.55,739.85 165.43,729.36 164.41,715.32 162.54,701.51 159.84,688.06 156.33,675.10 152.04,662.76 147.02,651.15 141.32,640.38 134.98,630.57 128.08,621.79 120.68,614.15 112.84,607.71 104.65,602.54 96.18,598.67 90.57,597.04 90.57,145.42" fill="#66BB6A" fill-opacity="0.45" stroke="#66BB6A" stroke-width="1.5"/>
<text x="229.4" y="429.8" fill="#fff" font-size="9" text-anchor="middle" dominant-baseline="middle" font-family="Segoe UI, sans-serif" paint-order="stroke" stroke="#000" stroke-width="2" pointer-events="none">SLAB-005</text>
<polygon class="slab-poly" data-slab-id="SLAB-006" points="913.39,609.77 906.72,610.73 898.07,613.36 889.63,617.34 881.47,622.63 873.66,629.17 866.30,636.92 859.45,645.78 853.17,655.68 847.52,666.53 842.56,678.21 838.34,690.61 834.90,703.62 832.27,717.10 832.05,718.80 817.58,739.85 649.68,739.85 649.68,145.42 913.39,145.42 913.39,239.82 905.05,241.27 896.44,244.16 888.04,248.40 879.94,253.93 872.22,260.71 864.94,268.68 858.19,277.75 852.03,287.84 846.51,298.85 841.69,310.68 837.62,323.20 834.33,336.31 831.85,349.88 830.22,363.76 829.44,377.84 829.53,391.97 830.47,406.03 832.27,419.86 832.68,421.93 832.27,423.99 830.47,437.83 829.53,451.88 829.44,466.01 830.22,480.09 831.85,493.98 834.33,507.54 837.62,520.65 841.69,533.18 846.51,545.00 852.03,556.01 858.19,566.10 864.94,575.17 872.22,583.14 879.94,589.92 888.04,595.46 896.44,599.69 905.05,602.58 913.39,604.03 913.39,609.77" fill="#66BB6A" fill-opacity="0.45" stroke="#66BB6A" stroke-width="1.5"/>
<text x="755.8" y="430.4" fill="#fff" font-size="9" text-anchor="middle" dominant-baseline="middle" font-family="Segoe UI, sans-serif" paint-order="stroke" stroke="#000" stroke-width="2" pointer-events="none">SLAB-006</text>
<polygon class="slab-poly" data-slab-id="SLAB-007" points="1325.38,145.42 1504.62,145.42 1504.62,739.85 1387.50,739.85 1366.91,720.04 1343.03,701.91 1325.38,691.77 1325.38,145.42" fill="#66BB6A" fill-opacity="0.45" stroke="#66BB6A" stroke-width="1.5"/>
<text x="1416.1" y="438.2" fill="#fff" font-size="9" text-anchor="middle" dominant-baseline="middle" font-family="Segoe UI, sans-serif" paint-order="stroke" stroke="#000" stroke-width="2" pointer-events="none">SLAB-007</text>
<polygon class="slab-poly" data-slab-id="SLAB-008" points="2080.32,739.85 2080.32,145.42 2293.19,145.42 2293.19,739.85 2080.32,739.85" fill="#66BB6A" fill-opacity="0.45" stroke="#66BB6A" stroke-width="1.5"/>
<text x="2186.8" y="442.6" fill="#fff" font-size="9" text-anchor="middle" dominant-baseline="middle" font-family="Segoe UI, sans-serif" paint-order="stroke" stroke="#000" stroke-width="2" pointer-events="none">SLAB-008</text>
<polygon class="slab-poly" data-slab-id="SLAB-009" points="1790.30,739.85 1790.30,145.42 2086.89,145.42 2086.89,739.85 1790.30,739.85" fill="#66BB6A" fill-opacity="0.45" stroke="#66BB6A" stroke-width="1.5"/>
<text x="1938.6" y="442.6" fill="#fff" font-size="9" text-anchor="middle" dominant-baseline="middle" font-family="Segoe UI, sans-serif" paint-order="stroke" stroke="#000" stroke-width="2" pointer-events="none">SLAB-009</text>
<polygon class="slab-poly" data-slab-id="SLAB-010" points="1498.04,739.85 1498.04,145.42 1796.88,145.42 1796.88,739.85 1498.04,739.85" fill="#66BB6A" fill-opacity="0.45" stroke="#66BB6A" stroke-width="1.5"/>
<text x="1647.5" y="442.6" fill="#fff" font-size="9" text-anchor="middle" dominant-baseline="middle" font-family="Segoe UI, sans-serif" paint-order="stroke" stroke="#000" stroke-width="2" pointer-events="none">SLAB-010</text>
<polygon class="slab-poly" data-slab-id="SLAB-011" points="350.70,739.85 350.70,145.42 656.26,145.42 656.26,739.85 350.70,739.85" fill="#66BB6A" fill-opacity="0.45" stroke="#66BB6A" stroke-width="1.5"/>
<text x="503.5" y="442.6" fill="#fff" font-size="9" text-anchor="middle" dominant-baseline="middle" font-family="Segoe UI, sans-serif" paint-order="stroke" stroke="#000" stroke-width="2" pointer-events="none">SLAB-011</text>
<polygon class="slab-poly" data-slab-id="SLAB-012" points="1498.04,729.29 1677.29,729.29 1677.29,1056.07 1507.60,1056.07 1503.98,1016.79 1498.04,978.77 1498.04,729.29" fill="#66BB6A" fill-opacity="0.45" stroke="#66BB6A" stroke-width="1.5"/>
<text x="1588.3" y="891.7" fill="#fff" font-size="9" text-anchor="middle" dominant-baseline="middle" font-family="Segoe UI, sans-serif" paint-order="stroke" stroke="#000" stroke-width="2" pointer-events="none">SLAB-012</text>
<polygon class="slab-poly" data-slab-id="SLAB-013" points="493.01,1056.07 493.01,729.29 656.26,729.29 656.26,1056.07 493.01,1056.07" fill="#66BB6A" fill-opacity="0.45" stroke="#66BB6A" stroke-width="1.5"/>
<text x="574.6" y="892.7" fill="#fff" font-size="9" text-anchor="middle" dominant-baseline="middle" font-family="Segoe UI, sans-serif" paint-order="stroke" stroke="#000" stroke-width="2" pointer-events="none">SLAB-013</text>
<polygon class="slab-poly" data-slab-id="SLAB-014" points="350.70,729.29 656.26,729.29 656.26,1330.93 648.79,1330.93 648.04,1323.43 645.80,1309.76 642.73,1296.51 638.87,1283.81 634.26,1271.78 628.93,1260.53 622.94,1250.18 616.34,1240.81 609.21,1232.53 601.60,1225.42 593.60,1219.53 585.28,1214.93 576.71,1211.66 567.99,1209.76 559.20,1209.24 550.41,1210.11 541.72,1212.35 533.21,1215.95 532.03,1216.65 530.63,1215.81 522.12,1212.19 513.43,1209.93 504.64,1209.04 495.85,1209.55 493.89,1209.97 486.77,1209.24 477.98,1209.74 469.25,1211.62 460.68,1214.86 455.17,1217.89 449.73,1214.93 441.16,1211.74 432.43,1209.91 423.63,1209.46 414.85,1210.40 406.17,1212.72 397.67,1216.40 389.43,1221.39 381.54,1227.65 374.07,1235.13 367.10,1243.75 360.68,1253.42 354.88,1264.06 350.70,1273.46 350.70,729.29" fill="#66BB6A" fill-opacity="0.45" stroke="#66BB6A" stroke-width="1.5"/>
<text x="505.2" y="978.7" fill="#fff" font-size="9" text-anchor="middle" dominant-baseline="middle" font-family="Segoe UI, sans-serif" paint-order="stroke" stroke="#000" stroke-width="2" pointer-events="none">SLAB-014</text>
<polygon class="slab-poly" data-slab-id="SLAB-015" points="1498.04,729.29 1796.88,729.29 1796.88,1246.53 1790.91,1238.50 1783.64,1230.54 1775.92,1223.76 1767.82,1218.22 1759.42,1213.99 1750.80,1211.10 1742.05,1209.58 1733.25,1209.44 1724.48,1210.69 1715.83,1213.32 1710.09,1216.02 1704.05,1213.16 1695.40,1210.52 1686.63,1209.25 1677.83,1209.37 1669.08,1210.87 1660.46,1213.74 1652.06,1217.96 1643.95,1223.47 1636.23,1230.24 1628.95,1238.19 1622.19,1247.25 1616.02,1257.32 1610.49,1268.32 1605.66,1280.14 1601.58,1292.66 1598.28,1305.76 1595.79,1319.32 1594.42,1330.93 1498.04,1330.93 1498.04,1223.50 1503.98,1185.48 1507.85,1143.54 1509.15,1101.19 1509.14,1101.13 1509.15,1101.08 1507.85,1058.73 1503.98,1016.79 1498.04,978.77 1498.04,729.29" fill="#66BB6A" fill-opacity="0.45" stroke="#66BB6A" stroke-width="1.5"/>
<text x="1641.6" y="996.1" fill="#fff" font-size="9" text-anchor="middle" dominant-baseline="middle" font-family="Segoe UI, sans-serif" paint-order="stroke" stroke="#000" stroke-width="2" pointer-events="none">SLAB-015</text>
<polygon class="slab-poly" data-slab-id="SLAB-016" points="2500.77,1209.79 2496.54,1210.22 2494.84,1209.85 2486.04,1209.34 2477.26,1210.22 2468.57,1212.48 2460.06,1216.10 2458.92,1216.78 2457.61,1216.00 2449.10,1212.38 2440.41,1210.12 2431.63,1209.24 2422.83,1209.75 2414.11,1211.64 2405.54,1214.89 2397.21,1219.47 2389.21,1225.34 2381.60,1232.45 2374.46,1240.71 2367.86,1250.06 2361.86,1260.41 2356.52,1271.65 2351.90,1283.67 2348.03,1296.37 2344.95,1309.61 2342.70,1323.27 2341.93,1330.93 2286.62,1330.93 2286.62,729.29 2416.35,729.29 2416.11,731.61 2415.50,745.71 2415.76,759.83 2416.87,773.85 2418.05,782.08 2416.87,790.31 2415.76,804.33 2415.50,818.45 2416.11,832.55 2417.57,846.49 2419.88,860.13 2423.01,873.34 2426.93,885.99 2431.61,897.97 2436.99,909.15 2443.03,919.43 2449.67,928.71 2456.84,936.90 2464.48,943.93 2472.51,949.71 2480.86,954.21 2489.44,957.37 2498.17,959.16 2500.77,959.29 2500.77,1209.79" fill="#66BB6A" fill-opacity="0.45" stroke="#66BB6A" stroke-width="1.5"/>
<text x="2375.3" y="1022.6" fill="#fff" font-size="9" text-anchor="middle" dominant-baseline="middle" font-family="Segoe UI, sans-serif" paint-order="stroke" stroke="#000" stroke-width="2" pointer-events="none">SLAB-016</text>
<polygon class="slab-poly" data-slab-id="SLAB-017" points="649.68,1330.93 649.68,729.29 824.84,729.29 817.54,739.91 799.81,771.32 784.08,805.38 770.50,841.75 759.21,880.08 750.32,920.00 743.90,961.13 740.03,1003.07 738.73,1045.42 738.73,1045.47 738.73,1045.53 740.03,1087.87 743.90,1129.82 750.32,1170.95 759.21,1210.87 770.50,1249.20 784.08,1285.56 799.81,1319.62 806.19,1330.93 649.68,1330.93" fill="#66BB6A" fill-opacity="0.45" stroke="#66BB6A" stroke-width="1.5"/>
<text x="708.5" y="1023.0" fill="#fff" font-size="9" text-anchor="middle" dominant-baseline="middle" font-family="Segoe UI, sans-serif" paint-order="stroke" stroke="#000" stroke-width="2" pointer-events="none">SLAB-017</text>
<polygon class="slab-poly" data-slab-id="SLAB-018" points="1790.30,729.29 2086.89,729.29 2086.89,1330.93 1825.32,1330.93 1824.00,1319.70 1821.53,1306.14 1818.24,1293.03 1814.16,1280.50 1809.34,1268.67 1803.83,1257.66 1797.66,1247.57 1790.91,1238.50 1790.30,1237.84 1790.30,729.29" fill="#66BB6A" fill-opacity="0.45" stroke="#66BB6A" stroke-width="1.5"/>
<text x="1940.2" y="1026.9" fill="#fff" font-size="9" text-anchor="middle" dominant-baseline="middle" font-family="Segoe UI, sans-serif" paint-order="stroke" stroke="#000" stroke-width="2" pointer-events="none">SLAB-018</text>
<polygon class="slab-poly" data-slab-id="SLAB-019" points="2080.32,1330.93 2080.32,729.29 2293.19,729.29 2293.19,1330.93 2080.32,1330.93" fill="#66BB6A" fill-opacity="0.45" stroke="#66BB6A" stroke-width="1.5"/>
<text x="2186.8" y="1030.1" fill="#fff" font-size="9" text-anchor="middle" dominant-baseline="middle" font-family="Segoe UI, sans-serif" paint-order="stroke" stroke="#000" stroke-width="2" pointer-events="none">SLAB-019</text>
<polygon class="slab-poly" data-slab-id="SLAB-020" points="357.27,729.29 357.27,1259.67 354.88,1264.06 349.76,1275.55 345.37,1287.80 341.75,1300.68 338.93,1314.07 336.94,1327.84 336.69,1330.93 164.46,1330.93 164.29,1328.63 162.34,1314.84 159.57,1301.43 155.99,1288.52 151.64,1276.23 146.56,1264.69 140.80,1254.00 134.41,1244.27 127.47,1235.60 120.02,1228.05 112.15,1221.72 103.94,1216.65 95.45,1212.91 90.57,1211.56 90.57,976.90 95.98,975.34 104.45,971.50 112.64,966.35 120.49,959.93 127.90,952.31 134.81,943.55 141.15,933.76 146.87,923.01 151.90,911.41 156.20,899.08 159.72,886.13 162.44,872.68 164.33,858.88 165.36,844.84 165.53,830.71 164.84,816.62 163.29,802.71 160.90,789.11 160.41,787.12 160.91,785.08 163.32,771.49 164.88,757.58 165.59,743.49 165.43,729.36 165.43,729.29 357.27,729.29" fill="#66BB6A" fill-opacity="0.45" stroke="#66BB6A" stroke-width="1.5"/>
<text x="239.3" y="1038.6" fill="#fff" font-size="9" text-anchor="middle" dominant-baseline="middle" font-family="Segoe UI, sans-serif" paint-order="stroke" stroke="#000" stroke-width="2" pointer-events="none">SLAB-020</text>
<polygon class="slab-poly" data-slab-id="SLAB-021" points="2704.30,729.29 2704.30,1330.93 2654.19,1330.93 2653.94,1327.78 2651.95,1314.01 2649.14,1300.62 2645.52,1287.74 2641.13,1275.49 2636.01,1263.99 2630.22,1253.35 2623.80,1243.67 2616.83,1235.05 2609.36,1227.57 2601.47,1221.30 2593.24,1216.30 2584.74,1212.62 2576.05,1210.30 2567.27,1209.35 2558.47,1209.79 2549.74,1211.62 2541.17,1214.81 2535.34,1217.97 2530.09,1215.08 2528.81,1214.59 2528.81,954.34 2532.92,952.54 2535.10,951.21 2537.28,952.54 2545.77,956.25 2554.45,958.60 2563.23,959.58 2572.03,959.16 2580.76,957.37 2589.34,954.21 2597.69,949.71 2605.72,943.93 2613.35,936.90 2620.53,928.71 2627.17,919.43 2633.21,909.15 2638.59,897.97 2643.26,885.99 2647.19,873.34 2650.32,860.13 2652.62,846.49 2654.09,832.55 2654.70,818.45 2654.44,804.33 2653.32,790.31 2652.15,782.08 2653.32,773.85 2654.44,759.83 2654.70,745.71 2654.09,731.61 2653.85,729.29 2704.30,729.29" fill="#66BB6A" fill-opacity="0.45" stroke="#66BB6A" stroke-width="1.5"/>
<text x="2634.1" y="1059.8" fill="#fff" font-size="9" text-anchor="middle" dominant-baseline="middle" font-family="Segoe UI, sans-serif" paint-order="stroke" stroke="#000" stroke-width="2" pointer-events="none">SLAB-021</text>
<polygon class="slab-poly" data-slab-id="SLAB-022" points="2897.14,1330.93 2697.72,1330.93 2697.72,729.29 2759.51,729.29 2774.39,755.66 2793.96,784.13 2815.17,809.39 2825.09,818.94 2825.62,832.10 2827.04,846.04 2829.31,859.70 2832.40,872.93 2836.28,885.61 2840.92,897.62 2846.28,908.85 2852.29,919.17 2858.90,928.50 2866.05,936.75 2873.66,943.83 2881.68,949.68 2890.01,954.23 2897.14,956.92 2897.14,1330.93" fill="#66BB6A" fill-opacity="0.45" stroke="#66BB6A" stroke-width="1.5"/>
<text x="2788.3" y="1065.9" fill="#fff" font-size="9" text-anchor="middle" dominant-baseline="middle" font-family="Segoe UI, sans-serif" paint-order="stroke" stroke="#000" stroke-width="2" pointer-events="none">SLAB-022</text>
<polygon class="slab-poly" data-slab-id="SLAB-023" points="3109.43,1330.93 2911.49,1330.93 2911.49,959.55 2916.10,959.80 2924.89,958.89 2928.22,958.01 2931.31,958.84 2940.09,959.79 2948.89,959.35 2957.62,957.53 2966.20,954.35 2974.54,949.83 2982.56,944.03 2990.19,936.98 2997.36,928.77 3003.99,919.47 3010.02,909.18 3015.39,897.98 3020.05,885.99 3023.96,873.33 3024.52,870.94 3028.83,869.21 3028.99,869.94 3032.69,882.77 3037.16,894.95 3042.35,906.37 3048.21,916.91 3054.68,926.49 3061.71,935.00 3069.22,942.36 3077.15,948.50 3085.41,953.37 3093.93,956.91 3102.63,959.10 3109.43,959.72 3109.43,1330.93" fill="#66BB6A" fill-opacity="0.45" stroke="#66BB6A" stroke-width="1.5"/>
<text x="3011.4" y="1133.1" fill="#fff" font-size="9" text-anchor="middle" dominant-baseline="middle" font-family="Segoe UI, sans-serif" paint-order="stroke" stroke="#000" stroke-width="2" pointer-events="none">SLAB-023</text>
<polygon class="slab-poly" data-slab-id="SLAB-024" points="2086.89,1320.37 2086.89,1454.58 1825.09,1454.58 1825.62,1450.10 1826.41,1436.03 1826.34,1421.89 1825.40,1407.84 1823.61,1394.00 1823.18,1391.77 1823.58,1389.69 1825.38,1375.85 1826.33,1361.80 1826.42,1347.67 1825.64,1333.59 1824.08,1320.37 2086.89,1320.37" fill="#66BB6A" fill-opacity="0.45" stroke="#66BB6A" stroke-width="1.5"/>
<text x="1956.2" y="1387.5" fill="#fff" font-size="9" text-anchor="middle" dominant-baseline="middle" font-family="Segoe UI, sans-serif" paint-order="stroke" stroke="#000" stroke-width="2" pointer-events="none">SLAB-024</text>
</svg>