<svg xmlns="http://www.w3.org/2000/svg" width="3200" height="1600" viewBox="0 0 3200 1600">
<rect width="100%" height="100%" fill="#121212"/>
<polygon points="620.08,1102.53 626.06,1102.53 626.06,1102.53 632.04,1102.53 632.04,1094.05 901.12,1094.05 901.12,1102.53 907.10,1102.53 907.10,1356.82 901.12,1356.82 901.12,1365.29 632.04,1365.29 632.04,1356.82 626.06,1356.82 626.06,1356.82 620.08,1356.82 620.08,1365.29 503.47,1365.29 503.47,1356.82 497.49,1356.82 497.49,1102.53 503.47,1102.53 503.47,1094.05 620.08,1094.05 620.08,1102.53" fill="#FF9800" fill-opacity="0.12" stroke="#FFB74D" stroke-width="0.6"/>
<polygon points="93.85,848.41 93.85,839.94 356.96,839.94 356.96,848.41 362.94,848.41 368.92,848.41 368.92,839.94 485.53,839.94 485.53,848.41 491.51,848.41 491.51,954.18 485.53,954.18 485.53,962.66 485.53,962.66 485.53,971.14 491.51,971.14 491.51,1051.67 485.53,1051.67 485.53,1060.15 485.53,1068.62 491.51,1068.62 491.51,1356.82 485.53,1356.82 485.53,1365.29 93.85,1365.29 93.85,1356.82 87.88,1356.82 87.88,1068.62 93.85,1068.62 93.85,1060.15 93.85,1051.67 87.88,1051.67 87.88,848.41 93.85,848.41" fill="#FF9800" fill-opacity="0.12" stroke="#FFB74D" stroke-width="0.6"/>
<polygon points="503.47,839.94 620.08,839.94 620.08,848.41 626.06,848.41 626.06,848.41 632.04,848.41 632.04,839.94 901.12,839.94 901.12,848.41 907.10,848.41 907.10,1085.58 901.12,1085.58 901.12,1094.05 632.04,1094.05 632.04,1085.58 626.06,1085.58 626.06,996.63 626.06,1085.58 620.08,1085.58 620.08,1094.05 503.47,1094.05 503.47,1085.58 497.49,1085.58 497.49,848.41 503.47,848.41 503.47,839.94" fill="#FF9800" fill-opacity="0.12" stroke="#FFB74D" stroke-width="0.6"/>
<polygon points="1080.51,907.57 1080.51,907.59 1080.51,916.05 1020.71,916.05 1020.71,907.57 1014.73,907.57 1014.73,852.65 1020.71,852.65 1020.71,844.18 1080.51,844.18 1080.51,852.64 1080.51,852.65 1086.49,852.65 1086.49,907.57 1080.51,907.57" fill="#FF9800" fill-opacity="0.12" stroke="#FFB74D" stroke-width="0.6"/>
<polygon points="166.28,1373.77 413.24,1373.77 413.24,1382.25 419.22,1382.25 419.22,1382.59 419.22,1382.25 425.20,1382.25 425.20,1373.77 485.53,1373.77 485.53,1382.24 489.25,1388.88 465.07,1416.13 489.29,1443.28 485.58,1449.94 485.58,1458.40 425.20,1458.40 425.20,1450.21 425.04,1449.93 419.22,1449.93 419.22,1458.52 566.26,1458.52 566.26,1382.25 566.26,1450.05 560.28,1450.05 560.28,1450.06 560.28,1458.52 503.47,1458.52 503.47,1450.12 503.42,1450.05 497.49,1450.05 497.49,1382.25 503.32,1382.25 503.47,1381.99 503.47,1373.77 560.28,1373.77 560.28,1382.24 560.28,1382.25 566.26,1382.25 566.26,1382.25 572.24,1382.25 572.24,1373.77 643.19,1373.77 643.19,1382.25 649.17,1382.25 649.17,1382.59 649.17,1382.25 655.15,1382.25 655.15,1373.77 738.17,1373.77 738.17,1382.24 744.15,1382.24 750.13,1382.24 750.13,1373.77 901.12,1373.77 901.12,1382.24 907.10,1382.24 907.10,1450.05 901.12,1450.05 901.12,1458.52 754.11,1458.52 984.83,1458.52 984.83,1450.05 978.86,1450.05 978.85,1450.06 978.85,1458.52 919.06,1458.52 919.06,1450.05 913.08,1450.05 913.08,1382.24 918.96,1382.24 919.06,1382.08 919.06,1373.77 978.85,1373.77 978.85,1382.24 978.86,1382.24 984.83,1382.24 984.83,1382.24 990.81,1382.24 990.81,1373.77 1073.16,1373.77 1073.16,1382.25 1079.14,1382.25 1079.14,1382.59 1079.14,1382.25 1085.12,1382.25 1085.12,1373.77 1182.17,1373.77 1182.17,1390.72 1091.10,1390.72 1091.10,1458.45 1194.12,1458.45 1194.12,1449.98 1188.15,1449.98 1188.15,1365.29 1182.17,1365.29 1182.17,1365.30 1182.17,1373.77 919.06,1373.77 919.06,1365.29 913.08,1365.29 913.08,852.65 919.06,852.65 919.06,844.18 1008.75,844.18 1008.75,852.65 1014.73,852.65 1014.73,916.05 1086.49,916.05 1086.49,852.65 1092.47,852.65 1092.47,844.18 1182.17,844.18 1182.17,852.65 1182.17,852.65 1188.15,852.65 1188.15,852.65 1194.13,852.65 1194.13,844.18 1319.70,844.18 1319.70,852.65 1325.68,852.65 1325.68,1000.82 1319.70,1000.82 1319.70,1009.29 1319.70,1017.76 1319.70,1017.77 1325.68,1017.77 1325.68,1281.02 1319.70,1281.02 1319.70,1281.02 1319.70,1289.50 1194.13,1289.50 1194.13,1281.02 1188.15,1281.02 1188.15,1297.97 1193.91,1297.97 1194.12,1297.80 1194.12,1289.50 1253.92,1289.50 1253.92,1297.97 1253.93,1297.97 1259.90,1297.97 1259.90,1297.97 1265.88,1297.97 1265.88,1289.50 1330.22,1289.50 1330.22,1297.97 1336.20,1297.97 1336.20,1298.02 1336.20,1297.97 1342.18,1297.97 1342.18,1289.50 1589.14,1289.50 1589.14,1297.97 1595.12,1297.97 1595.12,1298.02 1595.12,1297.97 1601.10,1297.97 1601.10,1289.50 1665.03,1289.49 1665.03,1297.97 1671.01,1297.97 1671.01,1458.53 1682.97,1458.53 1682.97,1450.05 1676.99,1450.05 1676.99,1382.25 1682.92,1382.25 1682.97,1382.18 1682.97,1373.77 1736.79,1373.77 1736.79,1382.25 1742.77,1382.25 1748.75,1382.25 1748.75,1373.77 1818.71,1373.77 1818.71,1382.25 1824.69,1382.25 1824.69,1382.31 1824.69,1382.25 1830.67,1382.25 1830.67,1373.77 1972.99,1373.77 1972.99,1382.29 1978.97,1382.29 1978.97,1382.25 1984.95,1382.25 1984.95,1373.77 2074.64,1373.77 2074.64,1382.25 2080.62,1382.25 2080.62,1449.96 2074.64,1449.96 2074.64,1458.44 1984.95,1458.44 1984.95,1449.96 1978.97,1449.96 1978.97,1458.48 2188.26,1458.48 2188.26,1449.96 2182.28,1449.96 2182.28,1458.44 2092.58,1458.44 2092.58,1449.96 2086.60,1449.96 2086.60,1382.25 2092.58,1382.25 2092.58,1373.77 2182.28,1373.77 2182.28,1382.25 2188.26,1382.25 2188.26,1382.29 2194.24,1382.29 2194.24,1373.81 2336.32,1373.79 2336.32,1382.25 2342.30,1382.25 2342.30,1382.31 2342.30,1382.25 2348.28,1382.25 2348.28,1373.78 2418.48,1373.77 2418.48,1382.25 2424.46,1382.25 2430.44,1382.25 2430.44,1373.77 2487.24,1373.77 2487.24,1382.25 2493.22,1382.25 2493.22,1449.96 2487.30,1449.96 2487.24,1450.06 2487.24,1458.44 2499.20,1458.44 2499.20,1382.25 2505.18,1382.25 2505.18,1373.77 2565.70,1373.77 2565.70,1382.24 2565.71,1382.25 2571.68,1382.25 2571.68,1382.31 2571.68,1382.25 2577.66,1382.25 2577.66,1373.77 2824.62,1373.77 2824.62,1382.25 2830.60,1382.25 2830.60,1382.31 2830.60,1382.25 2836.58,1382.25 2836.58,1373.77 2908.81,1373.77 2908.81,924.52 2914.79,924.52 2914.79,916.05 2914.79,916.04 2914.79,907.57 2908.81,907.57 2908.81,839.94 2920.77,839.94 2920.77,839.94 2941.70,839.94 2941.70,848.41 2941.71,848.42 2947.68,848.42 2947.68,907.57 2941.71,907.57 2941.70,907.58 2941.70,916.04 2947.70,916.04 2947.70,848.42 2953.68,848.42 2959.66,848.42 2959.66,924.52 2953.68,924.52 2953.68,932.99 2920.77,932.99 2920.77,1356.83 2953.67,1356.88 2953.67,1365.30 2959.57,1365.30 2959.57,1467.01 2953.59,1467.01 2953.59,1475.48 2896.86,1475.48 2896.86,1475.52 2836.58,1475.52 2824.62,1475.52 2824.62,1467.04 2818.65,1467.04 2818.65,1390.72 2583.64,1390.72 2583.64,1466.92 2577.66,1466.92 2577.66,1475.39 2336.32,1475.39 2336.32,1466.92 2330.34,1466.92 2330.34,1390.74 2200.22,1390.76 2200.22,1466.96 2194.24,1466.96 2194.24,1475.44 1972.99,1475.44 1972.99,1466.96 1967.01,1466.96 1967.01,1390.72 1836.65,1390.72 1836.65,1467.00 1830.67,1467.00 1830.67,1475.48 1665.03,1475.48 1665.03,1467.00 1659.05,1467.00 1659.05,1306.45 1607.08,1306.45 1607.08,1382.75 1601.10,1382.75 1601.10,1391.23 1589.14,1391.23 1589.14,1382.75 1583.16,1382.75 1583.16,1306.45 1348.16,1306.45 1348.16,1382.75 1342.18,1382.75 1342.18,1391.23 1330.22,1391.23 1330.22,1382.75 1324.24,1382.75 1324.24,1306.45 1271.86,1306.45 1271.86,1466.93 1265.88,1466.93 1265.88,1475.41 1073.16,1475.41 1073.16,1466.93 1067.18,1466.93 1067.18,1390.72 996.79,1390.72 996.79,1467.00 990.81,1467.00 990.81,1475.47 738.17,1475.47 738.17,1467.00 732.19,1467.00 732.19,1390.72 661.13,1390.72 661.13,1467.00 655.15,1467.00 655.15,1475.48 413.24,1475.48 413.24,1467.00 407.26,1467.00 407.26,1390.72 172.26,1390.72 172.26,1467.00 166.28,1467.00 166.28,1475.48 37.13,1475.48 37.13,1467.00 31.15,1467.00 31.15,1365.29 37.05,1365.29 37.04,1356.87 69.94,1356.82 69.94,1307.67 37.00,1307.67 37.00,1299.19 31.02,1299.19 31.02,1282.24 37.00,1282.24 37.00,1273.76 69.94,1273.76 69.94,1135.59 37.00,1135.59 37.00,1127.11 31.02,1127.11 31.02,1110.16 37.00,1110.16 37.00,1101.68 69.94,1101.68 69.94,1034.72 37.00,1034.72 37.00,1026.24 31.02,1026.24 31.02,1009.29 37.00,1009.29 37.00,1000.81 69.94,1000.81 69.94,949.94 37.01,949.94 37.01,941.46 31.03,941.45 31.12,822.98 37.09,822.99 37.09,814.51 69.94,814.51 69.94,678.72 37.00,678.72 37.00,670.24 31.02,670.24 31.02,653.29 37.00,653.29 37.00,644.81 69.94,644.81 69.94,599.46 36.97,599.46 36.97,590.98 30.99,590.98 30.99,574.03 36.97,574.03 36.97,565.56 69.94,565.56 69.94,465.53 36.95,465.53 36.95,457.05 30.97,457.05 30.97,440.10 36.95,440.10 36.95,431.62 69.94,431.62 69.94,376.52 36.95,376.52 36.95,368.05 30.97,368.05 30.97,351.10 36.95,351.10 36.95,342.62 69.94,342.62 69.94,204.45 36.95,204.45 36.95,195.98 30.97,195.98 30.97,179.02 36.95,179.02 36.95,170.55 69.94,170.55 69.94,140.28 81.90,140.28 81.90,179.02 75.92,179.02 75.92,187.50 75.92,187.50 75.92,195.98 81.90,195.98 81.90,351.10 75.92,351.10 75.92,359.57 75.92,359.57 75.92,368.05 81.90,368.05 81.90,440.10 75.92,440.10 75.92,448.57 75.92,448.57 75.92,457.05 81.90,457.05 81.90,574.03 75.93,574.03 75.93,582.51 75.93,582.51 75.93,590.98 81.90,590.98 81.90,653.29 75.96,653.29 75.96,661.76 75.96,661.76 75.96,670.24 81.90,670.24 81.90,822.99 75.92,822.99 75.92,831.46 43.07,831.46 43.06,839.93 49.04,839.94 49.04,831.46 75.92,831.46 75.92,839.94 75.92,839.94 81.90,839.94 81.90,890.62 71.74,890.62 77.13,907.57 81.90,907.57 81.90,1009.29 75.96,1009.29 75.96,1017.76 75.96,1017.76 75.96,1026.24 81.90,1026.24 81.90,1110.16 75.96,1110.16 75.96,1118.64 75.96,1118.64 75.96,1127.11 81.90,1127.11 81.90,1282.24 75.96,1282.24 75.96,1290.71 75.96,1290.71 75.96,1299.19 81.90,1299.19 81.90,1365.29 75.92,1365.29 75.92,1373.77 72.15,1373.77 75.92,1373.77 75.92,1382.25 81.90,1382.25 81.90,1450.05 75.92,1450.05 75.92,1458.53 49.03,1458.53 49.03,1450.09 48.98,1450.05 43.11,1450.06 43.11,1458.53 87.88,1458.53 87.88,1382.25 93.85,1382.25 93.85,1373.77 154.32,1373.77 154.32,1382.25 160.30,1382.25 160.30,1382.59 160.30,1382.25 166.28,1382.25 166.28,1373.77" fill="#FF9800" fill-opacity="0.12" stroke="#FFB74D" stroke-width="0.6"/>
<polygon points="491.51,822.99 485.53,822.99 485.53,831.46 93.85,831.46 93.85,822.99 87.88,822.99 87.88,670.23 93.85,670.23 93.85,661.76 485.53,661.76 485.53,670.23 491.51,670.23 491.51,822.99" fill="#FF9800" fill-opacity="0.12" stroke="#FFB74D" stroke-width="0.6"/>
<polygon points="901.12,670.23 907.10,670.23 907.10,822.99 901.12,822.99 901.12,831.46 503.47,831.46 503.47,822.99 497.49,822.99 497.49,670.23 503.47,670.23 503.47,661.76 901.12,661.76 901.12,670.23" fill="#FF9800" fill-opacity="0.12" stroke="#FFB74D" stroke-width="0.6"/>
<polygon points="1319.70,831.46 919.06,831.46 919.06,822.99 913.08,822.99 913.08,670.23 919.06,670.23 919.06,661.76 1319.70,661.76 1319.70,670.23 1325.68,670.23 1325.68,822.99 1319.70,822.99 1319.70,831.46" fill="#FF9800" fill-opacity="0.12" stroke="#FFB74D" stroke-width="0.6"/>
<polygon points="368.92,407.46 368.92,398.99 485.53,398.99 485.53,407.46 491.51,407.46 491.51,644.80 485.53,644.80 485.53,653.28 368.92,653.28 368.92,644.80 362.94,644.80 356.96,644.80 356.96,653.28 93.85,653.28 93.85,644.80 87.88,644.80 87.88,407.46 93.85,407.46 93.85,398.99 356.96,398.99 356.96,407.46 362.94,407.46 368.92,407.46" fill="#FF9800" fill-opacity="0.12" stroke="#FFB74D" stroke-width="0.6"/>
<polygon points="497.49,390.51 497.49,136.22 503.47,136.22 503.47,127.74 620.08,127.74 620.08,136.22 626.06,136.22 626.06,136.22 632.04,136.22 632.04,127.74 901.12,127.74 901.12,136.22 907.10,136.22 907.10,390.51 901.12,390.51 901.12,398.99 632.04,398.99 632.04,390.51 626.06,390.51 626.06,390.51 620.08,390.51 620.08,398.99 503.47,398.99 620.08,398.99 620.08,407.37 626.06,407.37 626.06,423.74 626.06,407.37 632.04,407.37 632.04,398.99 901.12,398.99 901.12,407.46 907.10,407.46 907.10,644.80 901.12,644.80 901.12,653.28 632.04,653.28 632.04,644.80 626.06,644.80 626.06,644.80 620.08,644.80 620.08,653.28 503.47,653.28 503.47,644.80 497.49,644.80 497.49,407.46 503.47,407.46 503.47,398.99 503.47,398.99 503.47,390.51 497.49,390.51" fill="#FF9800" fill-opacity="0.12" stroke="#FFB74D" stroke-width="0.6"/>
<polygon points="919.06,534.60 913.08,534.60 913.08,407.46 919.06,407.46 919.06,398.99 1038.65,398.99 1038.65,407.46 1044.63,407.46 1050.61,407.46 1050.61,398.99 1319.70,398.99 1050.61,398.99 1050.61,390.51 1044.63,390.51 1044.63,390.51 1038.65,390.51 1038.65,398.99 919.06,398.99 919.06,390.51 913.08,390.51 913.08,136.22 919.06,136.22 919.06,127.74 1038.65,127.74 1038.65,136.22 1044.63,136.22 1050.61,136.22 1050.61,127.74 1319.70,127.74 1319.70,136.22 1325.68,136.22 1325.68,390.51 1319.70,390.51 1319.70,398.99 1319.70,398.99 1319.70,407.46 1325.68,407.46 1325.68,644.80 1319.70,644.80 1319.70,653.28 1050.61,653.28 1050.61,644.80 1044.63,644.80 1044.63,644.80 1038.65,644.80 1038.65,653.28 981.84,653.28 981.84,644.80 975.86,644.80 975.86,644.80 969.88,644.80 969.88,644.80 969.88,653.28 919.06,653.28 919.06,644.80 913.08,644.80 913.08,551.56 919.06,551.56 919.06,543.08 919.06,543.08 919.06,534.60" fill="#FF9800" fill-opacity="0.12" stroke="#FFB74D" stroke-width="0.6"/>
<polygon points="491.51,390.51 485.53,390.51 485.53,398.99 368.92,398.99 368.92,390.51 362.94,390.51 362.94,136.22 368.92,136.22 368.92,127.74 485.53,127.74 485.53,136.22 491.51,136.22 491.51,390.51" fill="#FF9800" fill-opacity="0.12" stroke="#FFB74D" stroke-width="0.6"/>
<polygon points="362.94,390.51 362.94,390.51 356.96,390.51 356.96,398.99 93.85,398.99 93.85,390.51 87.88,390.51 87.88,136.22 93.85,136.22 93.85,127.74 356.96,127.74 356.96,136.22 362.94,136.22 362.94,390.51" fill="#FF9800" fill-opacity="0.12" stroke="#FFB74D" stroke-width="0.6"/>
<polygon points="2499.20,907.57 2499.20,848.41 2505.18,848.41 2505.18,839.94 2565.04,839.94 2565.04,848.40 2565.05,848.41 2571.02,848.41 2577.00,848.41 2577.00,839.94 2696.53,839.94 2696.53,848.41 2702.51,848.41 2702.51,848.41 2708.49,848.41 2708.49,839.94 2896.85,839.94 2896.85,848.41 2902.83,848.41 2902.83,1356.82 2896.85,1356.82 2896.85,1365.29 2708.49,1365.29 2708.49,1356.82 2702.51,1356.82 2702.51,1356.82 2696.53,1356.82 2696.53,1365.29 2505.18,1365.29 2505.18,1356.82 2499.20,1356.82 2499.20,924.53 2505.18,924.53 2505.18,916.05 2505.18,907.57 2499.20,907.57" fill="#FF9800" fill-opacity="0.12" stroke="#FFB74D" stroke-width="0.6"/>
<polygon points="1676.99,1085.58 1676.99,848.41 1682.97,848.41 1682.97,839.94 1796.58,839.94 1796.58,848.41 1802.56,848.41 1808.54,848.41 1808.54,839.94 2074.64,839.94 2074.64,848.41 2080.62,848.41 2080.62,1085.58 2074.64,1085.58 2074.64,1094.05 1808.54,1094.05 1808.54,1085.58 1802.56,1085.58 1796.58,1085.58 1796.58,1094.05 1796.58,1094.05 1796.58,1102.53 1802.56,1102.53 1802.56,1102.53 1808.54,1102.53 1808.54,1094.05 2074.64,1094.05 2074.64,1102.53 2080.62,1102.53 2080.62,1356.82 2074.64,1356.82 2074.64,1365.29 1808.54,1365.29 1808.54,1356.82 1802.56,1356.82 1802.56,1356.82 1796.58,1356.82 1796.58,1365.29 1682.97,1365.29 1682.97,1356.82 1676.99,1356.82 1676.99,1102.53 1682.97,1102.53 1682.97,1094.05 1682.97,1094.05 1682.97,1085.58 1676.99,1085.58" fill="#FF9800" fill-opacity="0.12" stroke="#FFB74D" stroke-width="0.6"/>
<polygon points="2086.60,1085.58 2086.60,848.41 2092.58,848.41 2092.58,839.94 2358.68,839.94 2358.68,848.41 2364.66,848.41 2370.64,848.41 2370.64,839.94 2487.24,839.94 2487.24,848.41 2493.22,848.41 2493.22,1085.58 2487.24,1085.58 2487.24,1094.05 2480.38,1094.05 2487.24,1094.05 2487.24,1102.53 2493.22,1102.53 2493.22,1356.82 2487.24,1356.82 2487.24,1365.29 2370.64,1365.29 2370.64,1356.82 2364.66,1356.82 2364.66,1356.82 2358.68,1356.82 2358.68,1365.29 2092.58,1365.29 2092.58,1356.82 2086.60,1356.82 2086.60,1102.53 2092.58,1102.53 2092.58,1094.05 2229.66,1094.05 2092.58,1094.05 2092.58,1085.58 2086.60,1085.58" fill="#FF9800" fill-opacity="0.12" stroke="#FFB74D" stroke-width="0.6"/>
<polygon points="1671.01,1272.54 1665.03,1272.54 1665.03,1281.02 1337.64,1281.02 1337.64,1272.54 1331.66,1272.54 1331.66,848.41 1337.64,848.41 1337.64,839.94 1665.03,839.94 1665.03,848.41 1671.01,848.41 1671.01,1272.54" fill="#FF9800" fill-opacity="0.12" stroke="#FFB74D" stroke-width="0.6"/>
<polygon points="1665.03,822.99 1665.03,831.46 1337.64,831.46 1337.64,822.99 1331.66,822.99 1331.66,670.23 1337.64,670.23 1337.64,661.76 1665.03,661.76 1665.03,670.23 1671.01,670.23 1671.01,822.99 1665.03,822.99" fill="#FF9800" fill-opacity="0.12" stroke="#FFB74D" stroke-width="0.6"/>
<polygon points="2074.64,822.99 2074.64,831.46 1682.97,831.46 1682.97,822.99 1676.99,822.99 1676.99,670.23 1682.97,670.23 1682.97,661.76 2074.64,661.76 2074.64,670.23 2080.62,670.23 2080.62,822.99 2074.64,822.99" fill="#FF9800" fill-opacity="0.12" stroke="#FFB74D" stroke-width="0.6"/>
<polygon points="2487.24,661.76 2487.24,670.23 2493.22,670.23 2493.22,822.99 2487.24,822.99 2487.24,831.46 2092.58,831.46 2092.58,822.99 2086.60,822.99 2086.60,670.23 2092.58,670.23 2092.58,661.76 2487.24,661.76" fill="#FF9800" fill-opacity="0.12" stroke="#FFB74D" stroke-width="0.6"/>
<polygon points="2896.85,822.99 2896.85,831.46 2505.18,831.46 2505.18,822.99 2499.20,822.99 2499.20,670.23 2505.18,670.23 2505.18,661.76 2896.85,661.76 2896.85,670.23 2902.83,670.23 2902.83,822.99 2896.85,822.99" fill="#FF9800" fill-opacity="0.12" stroke="#FFB74D" stroke-width="0.6"/>
<polygon points="328.50,25.83 334.48,25.83 334.48,17.36 346.44,17.36 346.44,25.83 352.42,25.83 352.42,102.31 410.78,102.31 410.78,26.01 416.76,26.01 416.76,17.53 572.24,17.53 572.24,26.01 578.21,26.01 578.21,102.31 645.79,102.31 645.79,25.83 651.77,25.83 651.77,17.35 663.73,17.35 663.73,25.83 669.71,25.83 669.71,102.31 793.48,102.30 793.48,26.01 799.46,26.01 799.46,17.54 990.81,17.54 990.81,26.01 996.79,26.01 996.79,102.31 1064.43,102.31 1064.43,25.83 1070.41,25.83 1070.41,17.35 1082.37,17.35 1082.37,25.83 1088.35,25.83 1088.35,102.31 1212.06,102.31 1212.06,26.01 1218.04,26.01 1218.04,17.53 1337.64,17.53 1337.64,26.01 1343.62,26.01 1343.62,102.31 1659.05,102.31 1659.05,25.92 1665.03,25.92 1665.03,17.45 1748.75,17.45 1748.75,25.92 1754.73,25.92 1754.73,102.31 1813.09,102.31 1813.09,25.85 1819.07,25.85 1819.07,17.37 1831.03,17.37 1831.03,25.85 1837.01,25.85 1837.01,102.31 1967.01,102.30 1967.01,26.01 1972.99,26.01 1972.99,17.53 2194.24,17.53 2194.24,26.01 2200.22,26.01 2200.22,102.31 2313.60,102.31 2313.60,25.86 2319.58,25.86 2319.58,17.38 2331.54,17.38 2331.54,25.86 2337.52,25.86 2337.52,102.31 2412.50,102.31 2412.50,26.01 2418.48,26.01 2418.48,17.53 2573.95,17.53 2573.95,26.01 2579.93,26.01 2579.93,102.31 2638.29,102.31 2638.29,25.86 2644.27,25.86 2644.27,17.38 2656.23,17.38 2656.23,25.86 2662.21,25.86 2662.21,102.31 2789.19,102.30 2789.19,25.99 2795.20,25.99 2795.20,17.45 2914.79,17.45 2914.79,25.92 2914.84,25.92 2914.84,17.53 2953.68,17.57 2953.68,26.04 2959.66,26.04 2959.66,127.75 2953.68,127.75 2953.68,136.23 2920.77,136.23 2920.77,305.75 3094.18,305.75 3094.18,246.43 3100.17,246.43 3100.17,237.93 3112.13,237.93 3112.13,246.41 3118.10,246.41 3118.10,305.75 3139.08,305.75 3139.08,314.22 3145.06,314.21 3145.08,331.16 3139.10,331.18 3139.10,339.65 3118.10,339.65 3118.10,428.65 3139.08,428.65 3139.08,437.12 3145.06,437.11 3145.08,454.06 3139.10,454.07 3139.10,462.55 3118.10,462.55 3118.11,814.33 3139.02,814.33 3139.02,822.81 3145.00,822.81 3145.00,924.52 3139.02,924.52 3139.02,933.00 3100.17,932.99 3100.17,924.51 3094.19,924.51 3094.19,907.75 3100.17,907.75 3100.17,907.57 3094.19,907.57 3094.19,848.42 2953.68,848.42 2953.68,831.46 3100.17,831.46 3100.17,839.94 3106.15,839.94 3106.15,899.10 3106.15,899.10 3106.14,454.07 3112.12,454.07 3112.12,445.60 3112.12,445.60 3112.12,437.12 3106.14,437.12 3106.14,331.18 3112.12,331.18 3112.12,322.70 3112.12,322.70 3112.12,314.22 3106.14,314.22 3106.14,254.89 3106.14,254.89 3106.14,314.22 3100.17,314.22 3100.17,322.70 3100.17,331.17 3100.17,331.18 3106.14,331.18 3106.15,822.99 3100.17,822.99 3100.17,831.45 2914.79,831.45 2914.79,822.81 2908.81,822.81 2908.81,331.18 2914.79,331.18 2914.79,322.70 2914.79,314.22 2908.81,314.22 2908.81,34.40 2896.86,34.40 2896.86,42.88 2902.83,42.88 2902.83,110.79 2896.86,110.79 2896.86,119.27 2807.16,119.27 2807.16,110.79 2801.18,110.79 2801.18,42.88 2807.16,42.88 2807.16,34.41 2801.15,34.41 2801.15,110.86 2795.17,110.86 2795.17,119.25 2656.23,119.26 2656.23,110.79 2650.25,110.79 2650.25,110.59 2650.25,110.79 2644.27,110.79 2644.27,119.26 2573.95,119.27 2573.95,110.79 2567.97,110.79 2567.97,110.79 2562.05,110.79 2561.99,110.89 2561.99,119.27 2505.18,119.27 2505.18,110.79 2499.20,110.79 2499.20,42.96 2505.18,42.96 2505.18,42.96 2505.18,34.49 2487.24,34.49 2487.24,42.95 2487.25,42.96 2493.22,42.96 2493.22,110.79 2487.30,110.79 2487.24,110.89 2487.24,119.27 2430.44,119.27 2430.44,110.87 2430.39,110.79 2424.46,110.79 2418.48,110.79 2418.48,119.27 2331.54,119.27 2331.54,110.79 2325.56,110.79 2325.56,110.59 2325.56,110.79 2319.58,110.79 2319.58,119.27 2194.24,119.27 2194.24,110.79 2188.26,110.79 2188.26,110.79 2182.28,110.79 2182.28,119.27 2092.58,119.27 2092.58,110.79 2086.60,110.79 2086.60,42.96 2092.58,42.96 2092.58,34.49 2174.12,34.49 1978.97,34.49 1978.97,42.96 1984.95,42.96 1984.95,34.49 2074.64,34.49 2074.64,42.96 2080.62,42.96 2080.62,110.79 2074.64,110.79 2074.64,119.27 1984.95,119.27 1984.95,110.79 1978.97,110.79 1972.99,110.79 1972.99,119.25 1831.03,119.26 1831.03,110.79 1825.05,110.79 1825.05,110.58 1825.05,110.79 1819.07,110.79 1819.07,119.26 1748.75,119.27 1748.75,110.79 1742.77,110.79 1736.85,110.79 1736.79,110.89 1736.79,119.27 1682.97,119.27 1682.97,110.87 1682.92,110.79 1676.99,110.79 1676.99,42.88 1682.97,42.88 1682.97,34.40 1671.01,34.40 1671.01,110.79 1665.03,110.79 1665.03,119.27 1337.64,119.27 1337.64,110.79 1331.66,110.79 1331.66,34.49 1319.70,34.49 1319.70,42.96 1325.68,42.96 1325.68,110.79 1319.70,110.79 1319.70,119.27 1230.00,119.27 1230.00,110.79 1224.02,110.79 1218.04,110.79 1218.04,119.27 1082.37,119.27 1082.37,110.79 1076.39,110.79 1076.39,110.56 1076.39,110.79 1070.41,110.79 1070.41,119.27 990.81,119.27 990.81,110.79 984.83,110.79 978.91,110.79 978.85,110.89 978.85,119.27 919.06,119.27 919.06,110.87 919.01,110.79 913.08,110.79 913.08,42.96 919.06,42.96 919.06,34.49 976.03,34.49 805.44,34.49 805.44,42.96 811.42,42.96 811.42,34.49 901.12,34.49 901.12,42.96 907.10,42.96 907.10,110.79 901.12,110.79 901.12,119.27 811.42,119.27 811.42,110.79 805.44,110.79 799.46,110.79 799.46,119.25 663.73,119.26 663.73,110.79 657.75,110.79 657.75,110.56 657.75,110.79 651.77,110.79 651.77,119.26 572.24,119.27 572.24,110.79 566.26,110.79 566.26,110.79 560.36,110.79 560.28,110.94 560.28,119.27 503.47,119.27 503.47,111.11 503.28,110.79 497.49,110.79 497.49,42.96 503.23,42.96 503.47,42.56 503.47,34.49 485.53,34.49 485.53,42.96 491.51,42.96 491.51,110.79 485.62,110.79 485.53,110.94 485.53,119.27 428.72,119.27 428.72,110.79 422.74,110.79 416.76,110.79 416.76,119.27 346.44,119.27 346.44,110.90 340.46,110.90 340.46,110.57 340.46,110.90 334.48,110.90 334.48,119.27 195.52,119.27 195.52,110.79 189.59,110.80 189.59,110.70 189.59,110.78 183.56,110.79 183.56,119.27 93.85,119.27 93.85,110.79 87.88,110.79 87.88,42.96 93.85,42.96 93.85,34.48 177.59,34.48 177.59,51.44 99.83,51.44 99.83,102.31 177.63,102.31 177.59,42.97 189.55,42.95 189.54,34.48 43.03,34.42 43.03,42.95 49.01,42.96 49.01,34.48 75.92,34.48 75.92,42.96 75.92,42.96 81.90,42.96 81.91,110.76 75.93,110.77 75.93,119.24 75.85,119.24 75.85,119.24 75.84,136.19 36.97,136.14 36.97,127.72 31.07,127.72 31.07,26.02 37.02,26.02 37.03,17.47 195.52,17.53 195.52,26.01 201.50,26.00 201.55,102.31 328.50,102.31 328.50,25.83" fill="#FF9800" fill-opacity="0.12" stroke="#FFB74D" stroke-width="0.6"/>
<polygon points="1665.03,653.28 1337.64,653.28 1337.64,644.80 1331.66,644.80 1331.66,136.22 1337.64,136.22 1337.64,127.74 1665.03,127.74 1665.03,136.22 1671.01,136.22 1671.01,644.80 1665.03,644.80 1665.03,653.28" fill="#FF9800" fill-opacity="0.12" stroke="#FFB74D" stroke-width="0.6"/>
<polygon points="1808.55,398.99 2074.64,398.99 1808.55,398.99 1808.55,390.51 1802.57,390.51 1802.57,390.51 1796.59,390.51 1796.59,398.99 1682.97,398.99 1682.97,390.51 1676.99,390.51 1676.99,136.22 1682.97,136.22 1682.97,127.74 1796.59,127.74 1796.59,136.22 1802.57,136.22 1808.55,136.22 1808.55,127.74 2074.64,127.74 2074.64,136.22 2080.62,136.22 2080.62,390.51 2074.64,390.51 2074.64,398.99 2074.64,398.99 2074.64,407.46 2080.62,407.46 2080.62,644.80 2074.64,644.80 2074.64,653.28 1808.55,653.28 1808.55,644.80 1802.57,644.80 1802.57,644.80 1796.59,644.80 1796.59,653.28 1682.97,653.28 1682.97,644.80 1676.99,644.80 1676.99,407.46 1682.97,407.46 1682.97,398.99 1796.59,398.99 1796.59,407.37 1802.57,407.37 1802.57,407.37 1808.55,407.37 1808.55,398.99" fill="#FF9800" fill-opacity="0.12" stroke="#FFB74D" stroke-width="0.6"/>
<polygon points="2092.58,136.22 2092.58,127.74 2358.68,127.74 2358.68,136.22 2364.66,136.22 2370.64,136.22 2370.64,127.74 2487.24,127.74 2487.24,136.22 2493.22,136.22 2493.22,390.51 2487.24,390.51 2487.24,398.99 2370.64,398.99 2370.64,390.51 2364.66,390.51 2358.68,390.51 2358.68,398.99 2092.58,398.99 2358.68,398.99 2358.68,407.46 2364.66,407.46 2370.64,407.46 2370.64,398.99 2487.24,398.99 2487.24,407.46 2493.22,407.46 2493.22,644.80 2487.24,644.80 2487.24,653.28 2370.64,653.28 2370.64,644.80 2364.66,644.80 2358.68,644.80 2358.68,653.28 2092.58,653.28 2092.58,644.80 2086.60,644.80 2086.60,407.46 2092.58,407.46 2092.58,398.99 2092.58,398.99 2092.58,390.51 2086.60,390.51 2086.60,136.22 2092.58,136.22" fill="#FF9800" fill-opacity="0.12" stroke="#FFB74D" stroke-width="0.6"/>
<polygon points="2621.79,407.37 2627.77,407.37 2627.77,407.37 2633.75,407.37 2633.75,398.99 2896.85,398.99 2633.75,398.99 2633.75,390.51 2627.77,390.51 2627.77,390.51 2621.79,390.51 2621.79,398.99 2505.18,398.99 2505.18,390.51 2499.20,390.51 2499.20,136.22 2505.18,136.22 2505.18,127.74 2621.79,127.74 2621.79,136.22 2627.77,136.22 2633.75,136.22 2633.75,127.74 2896.85,127.74 2896.85,136.22 2902.83,136.22 2902.83,390.51 2896.85,390.51 2896.85,398.99 2896.85,398.99 2896.85,407.46 2902.83,407.46 2902.83,644.80 2896.85,644.80 2896.85,653.28 2633.75,653.28 2633.75,644.80 2627.77,644.80 2627.77,644.80 2621.79,644.80 2621.79,653.28 2505.18,653.28 2505.18,644.80 2499.20,644.80 2499.20,407.46 2505.18,407.46 2505.18,398.99 2621.79,398.99 2621.79,407.37" fill="#FF9800" fill-opacity="0.12" stroke="#FFB74D" stroke-width="0.6"/>
<polygon class="slab-poly" data-slab-id="SLAB-001" points="337.47,1356.39 336.93,1359.71 335.79,1372.08 335.52,1384.55 336.11,1397.00 337.56,1409.31 338.88,1416.23 337.51,1423.48 336.09,1435.79 335.52,1448.24 335.81,1460.71 336.83,1471.62 164.23,1471.62 165.28,1459.92 165.53,1447.44 164.92,1435.00 163.45,1422.70 162.19,1416.15 163.44,1409.65 164.91,1397.35 165.53,1384.90 165.28,1372.43 164.17,1360.05 163.58,1356.39 337.47,1356.39" fill="#AD1457" fill-opacity="0.5" stroke="#F48FB1" stroke-width="0.8" stroke-dasharray="6 3"/>
<polygon class="slab-poly" data-slab-id="SLAB-002" points="365.04,1080.92 365.04,1288.12 360.64,1293.98 354.85,1303.38 349.73,1313.54 345.34,1324.35 341.73,1335.73 338.91,1347.55 336.93,1359.71 336.38,1365.72 164.68,1365.72 164.17,1360.05 162.21,1347.89 159.42,1336.05 155.82,1324.66 151.46,1313.83 146.36,1303.66 140.59,1294.24 134.19,1285.67 127.23,1278.03 119.78,1271.39 111.90,1265.82 103.67,1261.37 96.84,1258.73 96.84,1080.92 365.04,1080.92" fill="#F9A825" fill-opacity="0.55" stroke="#FFE082" stroke-width="0.8"/>
<text x="236.3" y="1213.6" fill="#fff" font-size="9" text-anchor="middle" dominant-baseline="middle" font-family="Segoe UI, sans-serif" paint-order="stroke" stroke="#000" stroke-width="2" pointer-events="none">S13</text>
<polygon class="slab-poly" data-slab-id="SLAB-003" points="365.04,828.92 365.04,1090.24 96.84,1090.24 96.84,1068.62 96.83,1068.21 96.79,1067.80 96.72,1067.39 96.62,1067.00 96.49,1066.63 96.34,1066.27 96.17,1065.94 95.97,1065.63 95.75,1065.35 95.52,1065.10 95.26,1064.89 95.00,1064.71 94.72,1064.57 94.44,1064.47 94.15,1064.41 93.85,1064.39 93.56,1064.41 93.27,1064.47 92.99,1064.57 92.71,1064.71 92.45,1064.89 92.19,1065.10 91.96,1065.35 91.74,1065.63 91.54,1065.94 91.37,1066.27 91.22,1066.63 91.09,1067.00 90.99,1067.39 90.92,1067.80 90.88,1068.21 90.87,1068.62 90.87,1090.24 90.57,1090.24 90.57,1049.49 90.87,1049.41 90.87,1051.67 90.88,1052.09 90.92,1052.50 90.99,1052.90 91.09,1053.29 91.22,1053.67 91.37,1054.03 91.54,1054.36 91.74,1054.67 91.96,1054.95 92.19,1055.20 92.45,1055.41 92.71,1055.59 92.99,1055.73 93.27,1055.83 93.56,1055.89 93.85,1055.91 94.15,1055.89 94.44,1055.83 94.72,1055.73 95.00,1055.59 95.26,1055.41 95.52,1055.20 95.75,1054.95 95.97,1054.67 96.17,1054.36 96.34,1054.03 96.49,1053.67 96.62,1053.29 96.72,1052.90 96.79,1052.50 96.83,1052.09 96.84,1051.67 96.84,1047.77 104.50,1044.69 112.69,1040.13 120.53,1034.46 127.94,1027.72 134.85,1019.98 141.18,1011.33 146.89,1001.83 151.92,991.58 156.21,980.69 159.73,969.25 162.44,957.38 164.32,945.19 165.34,932.80 165.51,920.32 164.81,907.89 163.25,895.61 160.85,883.60 160.46,882.20 160.91,880.60 163.31,868.59 164.87,856.31 165.57,843.87 165.41,831.40 165.21,828.92 365.04,828.92" fill="#F9A825" fill-opacity="0.55" stroke="#FFE082" stroke-width="0.8"/>
<polygon class="slab-poly" data-slab-id="SLAB-004" points="90.57,652.86 365.04,652.86 365.04,838.24 165.50,838.24 165.41,831.40 164.39,819.01 162.52,806.81 159.81,794.94 156.30,783.50 152.01,772.61 146.99,762.36 141.28,752.86 134.94,744.20 128.04,736.46 120.63,729.71 112.79,724.03 104.60,719.47 96.84,716.35 96.84,670.23 96.83,669.82 96.79,669.41 96.72,669.00 96.62,668.61 96.49,668.23 96.34,667.88 96.17,667.54 95.97,667.24 95.75,666.96 95.52,666.71 95.26,666.49 95.00,666.32 94.72,666.18 94.44,666.08 94.15,666.01 93.85,665.99 93.56,666.01 93.27,666.08 92.99,666.18 92.71,666.32 92.45,666.49 92.19,666.71 91.96,666.96 91.74,667.24 91.54,667.54 91.37,667.88 91.22,668.23 91.09,668.61 90.99,669.00 90.92,669.41 90.88,669.82 90.87,670.23 90.87,714.72 90.57,714.64 90.57,652.86" fill="#AD1457" fill-opacity="0.5" stroke="#F48FB1" stroke-width="0.8" stroke-dasharray="6 3"/>
<polygon class="slab-poly" data-slab-id="SLAB-005" points="365.04,394.32 365.04,662.18 90.57,662.18 90.57,394.32 92.56,394.32 92.71,394.43 92.99,394.57 93.27,394.67 93.56,394.73 93.85,394.75 94.15,394.73 94.44,394.67 94.72,394.57 95.00,394.43 95.15,394.32 365.04,394.32" fill="#F9A825" fill-opacity="0.55" stroke="#FFE082" stroke-width="0.8"/>
<text x="230.5" y="528.3" fill="#fff" font-size="9" text-anchor="middle" dominant-baseline="middle" font-family="Segoe UI, sans-serif" paint-order="stroke" stroke="#000" stroke-width="2" pointer-events="none">S17</text>
<polygon class="slab-poly" data-slab-id="SLAB-006" points="365.04,403.65 95.15,403.65 95.00,403.55 94.72,403.41 94.44,403.31 94.15,403.25 93.85,403.23 93.56,403.25 93.27,403.31 92.99,403.41 92.71,403.55 92.56,403.65 90.57,403.65 90.57,236.04 90.87,235.96 90.87,390.51 90.88,390.93 90.92,391.34 90.99,391.74 91.09,392.13 91.22,392.51 91.37,392.87 91.54,393.20 91.74,393.51 91.96,393.79 92.19,394.03 92.45,394.25 92.71,394.43 92.99,394.57 93.27,394.67 93.56,394.73 93.85,394.75 94.15,394.73 94.44,394.67 94.72,394.57 95.00,394.43 95.26,394.25 95.52,394.03 95.75,393.79 95.97,393.51 96.17,393.20 96.34,392.87 96.49,392.51 96.62,392.13 96.72,391.74 96.79,391.34 96.83,390.93 96.84,390.51 96.84,234.28 103.64,231.66 111.86,227.21 119.74,221.65 127.20,215.02 134.16,207.38 140.56,198.82 146.34,189.40 151.44,179.23 155.81,168.40 159.41,157.01 162.20,145.18 164.16,133.02 164.58,128.38 339.98,128.38 340.98,137.14 343.22,149.21 346.29,160.90 350.15,172.12 354.77,182.74 360.10,192.67 365.04,200.19 365.04,403.65" fill="#2E7D32" fill-opacity="0.55" stroke="#A5D6A7" stroke-width="0.8"/>
<text x="236.7" y="275.2" fill="#fff" font-size="9" text-anchor="middle" dominant-baseline="middle" font-family="Segoe UI, sans-serif" paint-order="stroke" stroke="#000" stroke-width="2" pointer-events="none">S1</text>
<polygon class="slab-poly" data-slab-id="SLAB-007" points="629.34,1100.69 629.27,1100.91 629.17,1101.30 629.10,1101.70 629.06,1102.12 629.05,1102.53 629.05,1300.63 628.92,1300.40 623.07,1291.46 623.07,1102.53 623.05,1102.12 623.01,1101.70 622.94,1101.30 622.84,1100.91 622.71,1100.53 622.56,1100.18 622.39,1099.84 622.19,1099.53 621.97,1099.25 621.74,1099.01 621.49,1098.79 621.22,1098.62 620.94,1098.47 620.66,1098.37 620.37,1098.31 620.08,1098.29 619.78,1098.31 619.49,1098.37 619.21,1098.47 618.93,1098.62 618.67,1098.79 618.42,1099.01 618.18,1099.25 617.96,1099.53 617.77,1099.84 617.59,1100.18 617.44,1100.53 617.31,1100.91 617.22,1101.30 617.14,1101.70 617.10,1102.12 617.09,1102.53 617.09,1283.93 616.34,1282.99 609.20,1275.68 601.60,1269.39 593.60,1264.20 585.27,1260.14 576.71,1257.25 567.99,1255.57 559.19,1255.11 550.41,1255.87 541.72,1257.85 533.20,1261.03 532.02,1261.65 530.61,1260.90 522.10,1257.71 513.41,1255.71 506.46,1255.10 506.46,1102.53 506.44,1102.12 506.40,1101.70 506.33,1101.30 506.23,1100.91 506.10,1100.53 505.95,1100.18 505.78,1099.84 505.58,1099.53 505.36,1099.25 505.13,1099.01 504.88,1098.79 504.61,1098.62 504.33,1098.47 504.05,1098.37 503.76,1098.31 503.47,1098.29 503.17,1098.31 502.88,1098.37 502.60,1098.47 502.32,1098.62 502.06,1098.79 501.81,1099.01 501.57,1099.25 501.35,1099.53 501.16,1099.84 500.98,1100.18 500.83,1100.53 500.70,1100.91 500.61,1101.30 500.53,1101.70 500.49,1102.12 500.48,1102.53 500.48,1255.14 495.83,1255.38 493.87,1255.75 488.52,1255.26 488.52,1080.92 500.48,1080.92 500.48,1085.58 500.49,1085.99 500.53,1086.40 500.61,1086.81 500.70,1087.20 500.83,1087.58 500.98,1087.93 501.16,1088.27 501.35,1088.57 501.57,1088.85 501.81,1089.10 502.06,1089.32 502.32,1089.49 502.60,1089.63 502.88,1089.73 503.17,1089.80 503.47,1089.82 503.76,1089.80 504.05,1089.73 504.33,1089.63 504.61,1089.49 504.88,1089.32 505.13,1089.10 505.36,1088.85 505.58,1088.57 505.78,1088.27 505.95,1087.93 506.10,1087.58 506.23,1087.20 506.33,1086.81 506.40,1086.40 506.44,1085.99 506.46,1085.58 506.46,1080.92 617.09,1080.92 617.09,1085.58 617.10,1085.99 617.14,1086.40 617.22,1086.81 617.31,1087.20 617.44,1087.58 617.59,1087.93 617.77,1088.27 617.96,1088.57 618.18,1088.85 618.42,1089.10 618.67,1089.32 618.93,1089.49 619.21,1089.63 619.49,1089.73 619.78,1089.80 620.08,1089.82 620.37,1089.80 620.66,1089.73 620.94,1089.63 621.22,1089.49 621.49,1089.32 621.74,1089.10 621.97,1088.85 622.19,1088.57 622.39,1088.27 622.56,1087.93 622.71,1087.58 622.84,1087.20 622.94,1086.81 623.01,1086.40 623.05,1085.99 623.07,1085.58 623.07,1080.92 629.05,1080.92 629.05,1085.58 629.06,1085.99 629.10,1086.40 629.17,1086.81 629.27,1087.20 629.34,1087.41 629.34,1100.69" fill="#F9A825" fill-opacity="0.55" stroke="#FFE082" stroke-width="0.8"/>
<polygon class="slab-poly" data-slab-id="SLAB-008" points="629.34,1090.24 488.52,1090.24 488.52,1068.62 488.50,1068.21 488.46,1067.80 488.39,1067.39 488.29,1067.00 488.16,1066.63 488.01,1066.27 487.84,1065.94 487.64,1065.63 487.42,1065.35 487.19,1065.10 486.94,1064.89 486.67,1064.71 486.40,1064.57 486.11,1064.47 485.82,1064.41 485.53,1064.39 485.23,1064.41 484.94,1064.47 484.66,1064.57 484.38,1064.71 484.12,1064.89 483.87,1065.10 483.63,1065.35 483.41,1065.63 483.22,1065.94 483.04,1066.27 482.89,1066.63 482.76,1067.00 482.67,1067.39 482.59,1067.80 482.55,1068.21 482.54,1068.62 482.54,1090.24 358.46,1090.24 358.46,1055.34 358.63,1055.20 358.86,1054.95 359.08,1054.67 359.28,1054.36 359.45,1054.03 359.60,1053.67 359.73,1053.29 359.83,1052.90 359.90,1052.50 359.94,1052.09 359.95,1051.67 359.95,848.41 359.94,848.00 359.90,847.59 359.83,847.18 359.73,846.79 359.60,846.42 359.45,846.06 359.28,845.73 359.08,845.42 358.86,845.14 358.63,844.89 358.46,844.75 358.46,828.92 629.34,828.92 629.34,846.58 629.27,846.79 629.17,847.18 629.10,847.59 629.06,848.00 629.05,848.41 629.05,1085.58 629.06,1085.99 629.10,1086.40 629.17,1086.81 629.27,1087.20 629.34,1087.41 629.34,1090.24" fill="#2E7D32" fill-opacity="0.55" stroke="#A5D6A7" stroke-width="0.8"/>
<text x="495.8" y="959.3" fill="#fff" font-size="9" text-anchor="middle" dominant-baseline="middle" font-family="Segoe UI, sans-serif" paint-order="stroke" stroke="#000" stroke-width="2" pointer-events="none">S10</text>
<polygon class="slab-poly" data-slab-id="SLAB-009" points="358.46,838.24 358.46,652.86 629.34,652.86 629.34,838.24 358.46,838.24" fill="#F9A825" fill-opacity="0.55" stroke="#FFE082" stroke-width="0.8"/>
<polygon class="slab-poly" data-slab-id="SLAB-010" points="629.34,394.32 629.34,662.18 358.46,662.18 358.46,394.32 484.23,394.32 484.38,394.43 484.66,394.57 484.94,394.67 485.23,394.73 485.53,394.75 485.82,394.73 486.11,394.67 486.40,394.57 486.67,394.43 486.82,394.32 502.17,394.32 502.32,394.43 502.60,394.57 502.88,394.67 503.17,394.73 503.47,394.75 503.76,394.73 504.05,394.67 504.33,394.57 504.61,394.43 504.76,394.32 629.34,394.32" fill="#2E7D32" fill-opacity="0.55" stroke="#A5D6A7" stroke-width="0.8"/>
<text x="493.9" y="528.3" fill="#fff" font-size="9" text-anchor="middle" dominant-baseline="middle" font-family="Segoe UI, sans-serif" paint-order="stroke" stroke="#000" stroke-width="2" pointer-events="none">S6</text>
<polygon class="slab-poly" data-slab-id="SLAB-011" points="629.34,403.65 504.76,403.65 504.61,403.55 504.33,403.41 504.05,403.31 503.76,403.25 503.47,403.23 503.17,403.25 502.88,403.31 502.60,403.41 502.32,403.55 502.17,403.65 486.82,403.65 486.67,403.55 486.40,403.41 486.11,403.31 485.82,403.25 485.53,403.23 485.23,403.25 484.94,403.31 484.66,403.41 484.38,403.55 484.23,403.65 358.46,403.65 358.46,189.61 360.10,192.67 366.10,201.81 372.69,210.07 379.82,217.38 387.43,223.66 395.43,228.85 403.76,232.91 412.32,235.79 421.04,237.47 429.84,237.93 438.63,237.16 447.32,235.18 455.83,231.99 456.99,231.38 458.31,232.08 466.82,235.28 475.51,237.28 482.54,237.91 482.54,390.51 482.55,390.93 482.59,391.34 482.67,391.74 482.76,392.13 482.89,392.51 483.04,392.87 483.22,393.20 483.41,393.51 483.63,393.79 483.87,394.03 484.12,394.25 484.38,394.43 484.66,394.57 484.94,394.67 485.23,394.73 485.53,394.75 485.82,394.73 486.11,394.67 486.40,394.57 486.67,394.43 486.94,394.25 487.19,394.03 487.42,393.79 487.64,393.51 487.84,393.20 488.01,392.87 488.16,392.51 488.29,392.13 488.39,391.74 488.46,391.34 488.50,390.93 488.52,390.51 488.52,237.85 493.09,237.62 494.73,237.31 495.44,237.45 500.48,237.72 500.48,390.51 500.49,390.93 500.53,391.34 500.61,391.74 500.70,392.13 500.83,392.51 500.98,392.87 501.16,393.20 501.35,393.51 501.57,393.79 501.81,394.03 502.06,394.25 502.32,394.43 502.60,394.57 502.88,394.67 503.17,394.73 503.47,394.75 503.76,394.73 504.05,394.67 504.33,394.57 504.61,394.43 504.88,394.25 505.13,394.03 505.36,393.79 505.58,393.51 505.78,393.20 505.95,392.87 506.10,392.51 506.23,392.13 506.33,391.74 506.40,391.34 506.44,390.93 506.46,390.51 506.46,237.74 513.03,237.18 521.72,235.22 530.23,232.06 531.64,231.32 533.15,232.12 541.66,235.31 550.35,237.30 559.14,238.07 567.93,237.61 576.66,235.94 585.22,233.06 593.55,229.01 601.55,223.82 609.16,217.54 616.29,210.24 622.89,201.98 628.89,192.84 629.34,191.98 629.34,403.65" fill="#F9A825" fill-opacity="0.55" stroke="#FFE082" stroke-width="0.8"/>
<polygon class="slab-poly" data-slab-id="SLAB-012" points="703.45,1080.92 717.85,1108.97 701.47,1140.89 687.00,1172.20 674.77,1205.38 664.88,1240.09 657.45,1276.01 652.54,1312.79 650.19,1350.07 650.29,1365.72 649.14,1365.72 648.03,1355.93 645.79,1343.86 642.73,1332.17 638.87,1320.95 635.03,1312.11 635.03,1102.53 635.01,1102.12 634.97,1101.70 634.90,1101.30 634.80,1100.91 634.67,1100.53 634.52,1100.18 634.35,1099.84 634.15,1099.53 633.93,1099.25 633.70,1099.01 633.45,1098.79 633.18,1098.62 632.90,1098.47 632.62,1098.37 632.33,1098.31 632.04,1098.29 631.74,1098.31 631.45,1098.37 631.17,1098.47 630.89,1098.62 630.63,1098.79 630.37,1099.01 630.14,1099.25 629.92,1099.53 629.72,1099.84 629.55,1100.18 629.40,1100.53 629.27,1100.91 629.17,1101.30 629.10,1101.70 629.06,1102.12 629.05,1102.53 629.05,1300.63 628.92,1300.40 623.07,1291.46 623.07,1102.53 623.05,1102.12 623.01,1101.70 622.94,1101.30 622.84,1100.91 622.77,1100.69 622.77,1087.41 622.84,1087.20 622.94,1086.81 623.01,1086.40 623.05,1085.99 623.07,1085.58 623.07,1080.92 629.05,1080.92 629.05,1085.58 629.06,1085.99 629.10,1086.40 629.17,1086.81 629.27,1087.20 629.40,1087.58 629.55,1087.93 629.72,1088.27 629.92,1088.57 630.14,1088.85 630.37,1089.10 630.63,1089.32 630.89,1089.49 631.17,1089.63 631.45,1089.73 631.74,1089.80 632.04,1089.82 632.33,1089.80 632.62,1089.73 632.90,1089.63 633.18,1089.49 633.45,1089.32 633.70,1089.10 633.93,1088.85 634.15,1088.57 634.35,1088.27 634.52,1087.93 634.67,1087.58 634.80,1087.20 634.90,1086.81 634.97,1086.40 635.01,1085.99 635.03,1085.58 635.03,1080.92 703.45,1080.92" fill="#2E7D32" fill-opacity="0.55" stroke="#A5D6A7" stroke-width="0.8"/>
<polygon class="slab-poly" data-slab-id="SLAB-013" points="622.77,828.92 650.55,828.92 650.43,830.44 650.19,867.88 652.54,905.16 657.45,941.94 664.88,977.86 674.77,1012.57 687.00,1045.74 701.47,1077.06 708.23,1090.24 622.77,1090.24 622.77,1087.41 622.84,1087.20 622.94,1086.81 623.01,1086.40 623.05,1085.99 623.07,1085.58 623.07,848.41 623.05,848.00 623.01,847.59 622.94,847.18 622.84,846.79 622.77,846.58 622.77,828.92" fill="#F9A825" fill-opacity="0.55" stroke="#FFE082" stroke-width="0.8"/>
<polygon class="slab-poly" data-slab-id="SLAB-014" points="622.77,838.24 622.77,652.86 689.88,652.86 689.54,653.56 676.88,686.41 666.55,720.86 658.65,756.58 653.26,793.23 650.43,830.44 650.38,838.24 622.77,838.24" fill="#AD1457" fill-opacity="0.5" stroke="#F48FB1" stroke-width="0.8" stroke-dasharray="6 3"/>
<polygon class="slab-poly" data-slab-id="SLAB-015" points="910.39,394.32 910.39,425.13 904.15,426.18 904.11,426.19 904.11,407.46 904.09,407.05 904.05,406.64 903.98,406.23 903.88,405.84 903.76,405.47 903.60,405.11 903.43,404.77 903.23,404.47 903.02,404.19 902.78,403.94 902.53,403.73 902.26,403.55 901.99,403.41 901.70,403.31 901.41,403.25 901.12,403.23 900.83,403.25 900.54,403.31 900.25,403.41 899.97,403.55 899.71,403.73 899.46,403.94 899.22,404.19 899.00,404.47 898.81,404.77 898.63,405.11 898.48,405.47 898.36,405.84 898.26,406.23 898.19,406.64 898.14,407.05 898.13,407.46 898.13,428.05 895.55,428.86 887.18,432.71 879.12,437.71 871.44,443.81 864.22,450.95 857.52,459.05 851.42,468.05 845.98,477.85 841.44,487.90 830.74,492.35 806.25,506.36 782.85,523.70 760.76,544.21 740.19,567.69 721.35,593.91 704.41,622.63 689.54,653.56 686.22,662.18 622.77,662.18 622.77,394.32 899.82,394.32 899.97,394.43 900.25,394.57 900.54,394.67 900.83,394.73 901.12,394.75 901.41,394.73 901.70,394.67 901.99,394.57 902.26,394.43 902.41,394.32 910.39,394.32" fill="#AD1457" fill-opacity="0.5" stroke="#F48FB1" stroke-width="0.8" stroke-dasharray="6 3"/>
<polygon class="slab-poly" data-slab-id="SLAB-016" points="910.39,403.65 902.41,403.65 902.26,403.55 901.99,403.41 901.70,403.31 901.41,403.25 901.12,403.23 900.83,403.25 900.54,403.31 900.25,403.41 899.97,403.55 899.82,403.65 622.77,403.65 622.77,202.13 622.89,201.98 628.89,192.84 634.22,182.91 638.84,172.29 642.70,161.08 645.78,149.39 648.02,137.32 649.04,128.38 830.33,128.38 830.89,134.22 832.93,146.36 835.80,158.16 839.47,169.50 843.90,180.27 849.06,190.38 854.90,199.73 861.35,208.21 868.36,215.76 875.86,222.30 883.77,227.77 892.02,232.11 898.13,234.39 898.13,390.51 898.14,390.93 898.19,391.34 898.26,391.74 898.36,392.13 898.48,392.51 898.63,392.87 898.81,393.20 899.00,393.51 899.22,393.79 899.46,394.03 899.71,394.25 899.97,394.43 900.25,394.57 900.54,394.67 900.83,394.73 901.12,394.75 901.41,394.73 901.70,394.67 901.99,394.57 902.26,394.43 902.53,394.25 902.78,394.03 903.02,393.79 903.23,393.51 903.43,393.20 903.60,392.87 903.76,392.51 903.88,392.13 903.98,391.74 904.05,391.34 904.09,390.93 904.11,390.51 904.11,236.10 909.22,237.26 910.39,237.36 910.39,403.65" fill="#2E7D32" fill-opacity="0.55" stroke="#A5D6A7" stroke-width="0.8"/>
<text x="757.0" y="275.8" fill="#fff" font-size="9" text-anchor="middle" dominant-baseline="middle" font-family="Segoe UI, sans-serif" paint-order="stroke" stroke="#000" stroke-width="2" pointer-events="none">S16</text>
<polygon class="slab-poly" data-slab-id="SLAB-017" points="1191.43,394.32 1191.43,471.54 1166.50,471.86 1140.25,475.87 1114.40,483.51 1089.20,494.70 1064.90,509.35 1055.95,516.27 1054.92,511.10 1051.71,499.48 1047.72,488.36 1042.97,477.85 1037.53,468.05 1031.43,459.05 1024.73,450.95 1017.51,443.81 1009.83,437.71 1001.77,432.71 993.40,428.86 984.80,426.18 976.06,424.71 967.26,424.47 958.48,425.44 949.82,427.64 944.47,429.77 939.13,427.64 930.47,425.44 922.05,424.51 922.05,407.46 922.03,407.05 921.99,406.64 921.92,406.23 921.82,405.84 921.69,405.47 921.54,405.11 921.37,404.77 921.17,404.47 920.95,404.19 920.72,403.94 920.47,403.73 920.20,403.55 919.93,403.41 919.64,403.31 919.35,403.25 919.06,403.23 918.76,403.25 918.47,403.31 918.19,403.41 917.91,403.55 917.65,403.73 917.40,403.94 917.16,404.19 916.94,404.47 916.75,404.77 916.57,405.11 916.42,405.47 916.30,405.84 916.20,406.23 916.13,406.64 916.08,407.05 916.07,407.46 916.07,424.62 912.89,424.71 904.15,426.18 904.11,426.19 904.11,407.46 904.09,407.05 904.05,406.64 903.98,406.23 903.88,405.84 903.81,405.63 903.81,394.32 917.76,394.32 917.91,394.43 918.19,394.57 918.47,394.67 918.76,394.73 919.06,394.75 919.35,394.73 919.64,394.67 919.93,394.57 920.20,394.43 920.35,394.32 1191.43,394.32" fill="#AD1457" fill-opacity="0.5" stroke="#F48FB1" stroke-width="0.8" stroke-dasharray="6 3"/>
<polygon class="slab-poly" data-slab-id="SLAB-018" points="1191.43,403.65 920.35,403.65 920.20,403.55 919.93,403.41 919.64,403.31 919.35,403.25 919.06,403.23 918.76,403.25 918.47,403.31 918.19,403.41 917.91,403.55 917.76,403.65 903.81,403.65 903.81,392.35 903.88,392.13 903.98,391.74 904.05,391.34 904.09,390.93 904.11,390.51 904.11,236.10 909.22,237.26 916.07,237.85 916.07,390.51 916.08,390.93 916.13,391.34 916.20,391.74 916.30,392.13 916.42,392.51 916.57,392.87 916.75,393.20 916.94,393.51 917.16,393.79 917.40,394.03 917.65,394.25 917.91,394.43 918.19,394.57 918.47,394.67 918.76,394.73 919.06,394.75 919.35,394.73 919.64,394.67 919.93,394.57 920.20,394.43 920.47,394.25 920.72,394.03 920.95,393.79 921.17,393.51 921.37,393.20 921.54,392.87 921.69,392.51 921.82,392.13 921.92,391.74 921.99,391.34 922.03,390.93 922.05,390.51 922.05,237.80 926.81,237.55 935.53,235.87 944.09,232.98 948.96,230.60 953.83,232.98 962.39,235.87 971.11,237.55 979.91,238.02 988.70,237.26 997.39,235.28 1005.90,232.11 1014.15,227.77 1022.07,222.30 1029.56,215.76 1036.57,208.21 1043.02,199.73 1048.86,190.38 1054.02,180.27 1058.45,169.50 1062.12,158.16 1064.99,146.36 1067.03,134.22 1067.59,128.38 1174.08,128.38 1175.44,136.02 1184.33,171.27 1191.43,192.56 1191.43,403.65" fill="#2E7D32" fill-opacity="0.55" stroke="#A5D6A7" stroke-width="0.8"/>
<text x="1065.9" y="288.1" fill="#fff" font-size="9" text-anchor="middle" dominant-baseline="middle" font-family="Segoe UI, sans-serif" paint-order="stroke" stroke="#000" stroke-width="2" pointer-events="none">S7</text>
<polygon class="slab-poly" data-slab-id="SLAB-019" points="1330.16,534.63 1322.69,527.69 1322.69,407.46 1322.67,407.05 1322.63,406.64 1322.56,406.23 1322.46,405.84 1322.33,405.47 1322.18,405.11 1322.01,404.77 1321.81,404.47 1321.59,404.19 1321.36,403.94 1321.11,403.73 1320.84,403.55 1320.57,403.41 1320.28,403.31 1319.99,403.25 1319.70,403.23 1319.40,403.25 1319.11,403.31 1318.83,403.41 1318.55,403.55 1318.29,403.73 1318.04,403.94 1317.80,404.19 1317.58,404.47 1317.39,404.77 1317.21,405.11 1317.06,405.47 1316.94,405.84 1316.84,406.23 1316.77,406.64 1316.72,407.05 1316.71,407.46 1316.71,522.45 1294.99,506.36 1270.50,492.35 1245.16,481.81 1219.21,474.85 1192.91,471.52 1184.86,471.62 1184.86,318.04 1260.58,318.04 1262.23,320.15 1283.44,342.45 1306.09,361.70 1316.71,368.82 1316.71,390.51 1316.72,390.93 1316.77,391.34 1316.84,391.74 1316.94,392.13 1317.06,392.51 1317.21,392.87 1317.39,393.20 1317.58,393.51 1317.80,393.79 1318.04,394.03 1318.29,394.25 1318.55,394.43 1318.83,394.57 1319.11,394.67 1319.40,394.73 1319.70,394.75 1319.99,394.73 1320.28,394.67 1320.57,394.57 1320.84,394.43 1321.11,394.25 1321.36,394.03 1321.59,393.79 1321.81,393.51 1322.01,393.20 1322.18,392.87 1322.33,392.51 1322.46,392.13 1322.56,391.74 1322.63,391.34 1322.67,390.93 1322.69,390.51 1322.69,372.82 1329.96,377.70 1330.16,377.80 1330.16,534.63" fill="#F9A825" fill-opacity="0.55" stroke="#FFE082" stroke-width="0.8"/>
<polygon class="slab-poly" data-slab-id="SLAB-020" points="1184.86,327.36 1184.86,172.84 1195.62,205.11 1209.20,237.21 1224.93,267.28 1242.66,295.01 1262.23,320.15 1269.09,327.36 1184.86,327.36" fill="#2E7D32" fill-opacity="0.55" stroke="#A5D6A7" stroke-width="0.8"/>
<polygon class="slab-poly" data-slab-id="SLAB-021" points="1552.43,1471.62 1557.71,1458.98 1568.87,1425.05 1577.63,1389.74 1583.91,1353.38 1586.15,1331.04 1586.15,1382.75 1586.17,1383.17 1586.21,1383.58 1586.28,1383.98 1586.38,1384.37 1586.51,1384.75 1586.66,1385.11 1586.83,1385.44 1587.03,1385.75 1587.25,1386.03 1587.48,1386.28 1587.73,1386.49 1588.00,1386.67 1588.28,1386.81 1588.56,1386.91 1588.85,1386.97 1589.14,1386.99 1593.42,1386.99 1593.43,1389.54 1594.38,1401.95 1596.17,1414.16 1596.60,1416.10 1596.20,1417.89 1594.39,1430.10 1593.44,1442.50 1593.35,1454.98 1594.12,1467.41 1594.68,1471.62 1552.43,1471.62" fill="#AD1457" fill-opacity="0.5" stroke="#F48FB1" stroke-width="0.8" stroke-dasharray="6 3"/>
<polygon class="slab-poly" data-slab-id="SLAB-022" points="1680.27,1100.69 1680.20,1100.91 1680.10,1101.30 1680.03,1101.70 1679.99,1102.12 1679.98,1102.53 1679.98,1255.20 1677.77,1255.23 1669.02,1256.56 1660.40,1259.10 1652.00,1262.83 1643.90,1267.71 1636.17,1273.69 1632.54,1277.20 1588.72,1277.20 1587.35,1241.55 1583.33,1204.55 1576.77,1168.29 1571.92,1149.39 1576.70,1130.81 1583.28,1094.56 1584.77,1080.92 1679.98,1080.92 1679.98,1085.58 1679.99,1085.99 1680.03,1086.40 1680.10,1086.81 1680.20,1087.20 1680.27,1087.41 1680.27,1100.69" fill="#2E7D32" fill-opacity="0.55" stroke="#A5D6A7" stroke-width="0.8"/>
<polygon class="slab-poly" data-slab-id="SLAB-023" points="1680.27,1090.24 1583.75,1090.24 1587.32,1057.57 1588.79,1020.20 1587.66,982.80 1583.95,945.74 1577.70,909.37 1568.96,874.04 1557.82,840.10 1553.16,828.92 1680.27,828.92 1680.27,846.58 1680.20,846.79 1680.10,847.18 1680.03,847.59 1679.99,848.00 1679.98,848.41 1679.98,1085.58 1679.99,1085.99 1680.03,1086.40 1680.10,1086.81 1680.20,1087.20 1680.27,1087.41 1680.27,1090.24" fill="#F9A825" fill-opacity="0.55" stroke="#FFE082" stroke-width="0.8"/>
<polygon class="slab-poly" data-slab-id="SLAB-024" points="1680.27,838.24 1557.04,838.24 1544.39,807.87 1528.79,777.67 1511.18,749.77 1491.73,724.46 1470.62,701.97 1448.06,682.52 1424.26,666.30 1414.70,661.36 1411.70,653.56 1411.36,652.86 1680.27,652.86 1680.27,668.40 1680.20,668.61 1680.10,669.00 1680.03,669.41 1679.99,669.82 1679.98,670.23 1679.98,822.99 1679.99,823.40 1680.03,823.81 1680.10,824.22 1680.20,824.61 1680.27,824.82 1680.27,838.24" fill="#F9A825" fill-opacity="0.55" stroke="#FFE082" stroke-width="0.8"/>
<polygon class="slab-poly" data-slab-id="SLAB-025" points="1680.27,662.18 1416.29,662.18 1414.70,661.36 1411.70,653.56 1396.83,622.63 1379.89,593.91 1361.04,567.69 1340.63,544.38 1340.63,394.32 1366.13,394.32 1380.44,399.41 1406.56,404.90 1432.94,406.74 1459.31,404.90 1485.43,399.41 1499.74,394.32 1680.27,394.32 1680.27,405.63 1680.20,405.84 1680.10,406.23 1680.03,406.64 1679.99,407.05 1679.98,407.46 1679.98,644.80 1679.99,645.22 1680.03,645.63 1680.10,646.03 1680.20,646.43 1680.27,646.64 1680.27,662.18" fill="#F9A825" fill-opacity="0.55" stroke="#FFE082" stroke-width="0.8"/>
<text x="1519.7" y="524.5" fill="#fff" font-size="9" text-anchor="middle" dominant-baseline="middle" font-family="Segoe UI, sans-serif" paint-order="stroke" stroke="#000" stroke-width="2" pointer-events="none">S52-PL</text>
<polygon class="slab-poly" data-slab-id="SLAB-026" points="1680.27,403.65 1465.26,403.65 1485.43,399.41 1511.05,390.31 1535.91,377.70 1559.78,361.70 1582.43,342.45 1603.64,320.15 1605.29,318.04 1679.98,318.04 1679.98,390.51 1679.99,390.93 1680.03,391.34 1680.10,391.74 1680.20,392.13 1680.27,392.35 1680.27,403.65" fill="#F9A825" fill-opacity="0.55" stroke="#FFE082" stroke-width="0.8"/>
<polygon class="slab-poly" data-slab-id="SLAB-027" points="1596.79,327.36 1603.64,320.15 1623.21,295.01 1640.94,267.28 1656.67,237.21 1658.43,233.06 1660.40,233.93 1669.02,236.48 1677.77,237.81 1679.98,237.84 1679.98,327.36 1596.79,327.36" fill="#AD1457" fill-opacity="0.5" stroke="#F48FB1" stroke-width="0.8" stroke-dasharray="6 3"/>
<polygon class="slab-poly" data-slab-id="SLAB-028" points="1805.85,1080.92 1805.85,1301.42 1803.87,1297.92 1799.57,1291.71 1799.57,1102.53 1799.56,1102.12 1799.52,1101.70 1799.45,1101.30 1799.35,1100.91 1799.22,1100.53 1799.07,1100.18 1798.90,1099.84 1798.70,1099.53 1798.48,1099.25 1798.25,1099.01 1797.99,1098.79 1797.73,1098.62 1797.45,1098.47 1797.17,1098.37 1796.88,1098.31 1796.58,1098.29 1796.29,1098.31 1796.00,1098.37 1795.72,1098.47 1795.44,1098.62 1795.17,1098.79 1794.92,1099.01 1794.69,1099.25 1794.47,1099.53 1794.27,1099.84 1794.10,1100.18 1793.95,1100.53 1793.82,1100.91 1793.72,1101.30 1793.65,1101.70 1793.61,1102.12 1793.59,1102.53 1793.59,1284.12 1790.96,1281.00 1783.70,1273.96 1775.98,1267.96 1767.88,1263.07 1759.48,1259.32 1750.87,1256.76 1742.12,1255.41 1733.31,1255.28 1724.55,1256.38 1715.90,1258.69 1710.09,1261.09 1703.99,1258.55 1695.34,1256.22 1686.57,1255.11 1685.96,1255.12 1685.96,1102.53 1685.94,1102.12 1685.90,1101.70 1685.83,1101.30 1685.73,1100.91 1685.60,1100.53 1685.45,1100.18 1685.28,1099.84 1685.08,1099.53 1684.86,1099.25 1684.63,1099.01 1684.37,1098.79 1684.11,1098.62 1683.83,1098.47 1683.55,1098.37 1683.26,1098.31 1682.97,1098.29 1682.67,1098.31 1682.38,1098.37 1682.10,1098.47 1681.82,1098.62 1681.56,1098.79 1681.30,1099.01 1681.07,1099.25 1680.85,1099.53 1680.65,1099.84 1680.48,1100.18 1680.33,1100.53 1680.20,1100.91 1680.10,1101.30 1680.03,1101.70 1679.99,1102.12 1679.98,1102.53 1679.98,1255.20 1677.77,1255.23 1673.70,1255.85 1673.70,1080.92 1679.98,1080.92 1679.98,1085.58 1679.99,1085.99 1680.03,1086.40 1680.10,1086.81 1680.20,1087.20 1680.33,1087.58 1680.48,1087.93 1680.65,1088.27 1680.85,1088.57 1681.07,1088.85 1681.30,1089.10 1681.56,1089.32 1681.82,1089.49 1682.10,1089.63 1682.38,1089.73 1682.67,1089.80 1682.97,1089.82 1683.26,1089.80 1683.55,1089.73 1683.83,1089.63 1684.11,1089.49 1684.37,1089.32 1684.63,1089.10 1684.86,1088.85 1685.08,1088.57 1685.28,1088.27 1685.45,1087.93 1685.60,1087.58 1685.73,1087.20 1685.83,1086.81 1685.90,1086.40 1685.94,1085.99 1685.96,1085.58 1685.96,1080.92 1793.59,1080.92 1793.59,1085.58 1793.61,1085.99 1793.65,1086.40 1793.72,1086.81 1793.82,1087.20 1793.95,1087.58 1794.10,1087.93 1794.27,1088.27 1794.47,1088.57 1794.69,1088.85 1794.92,1089.10 1795.17,1089.32 1795.44,1089.49 1795.72,1089.63 1796.00,1089.73 1796.29,1089.80 1796.58,1089.82 1796.88,1089.80 1797.17,1089.73 1797.45,1089.63 1797.73,1089.49 1797.99,1089.32 1798.25,1089.10 1798.48,1088.85 1798.70,1088.57 1798.90,1088.27 1799.07,1087.93 1799.22,1087.58 1799.35,1087.20 1799.45,1086.81 1799.52,1086.40 1799.56,1085.99 1799.57,1085.58 1799.57,1080.92 1805.85,1080.92" fill="#F9A825" fill-opacity="0.55" stroke="#FFE082" stroke-width="0.8"/>
<polygon class="slab-poly" data-slab-id="SLAB-029" points="1673.70,1090.24 1673.70,652.86 1805.85,652.86 1805.85,1090.24 1673.70,1090.24" fill="#F9A825" fill-opacity="0.55" stroke="#FFE082" stroke-width="0.8"/>
<polygon class="slab-poly" data-slab-id="SLAB-030" points="1805.85,318.04 1805.85,662.18 1673.70,662.18 1673.70,318.04 1679.98,318.04 1679.98,390.51 1679.99,390.93 1680.03,391.34 1680.10,391.74 1680.20,392.13 1680.33,392.51 1680.48,392.87 1680.65,393.20 1680.85,393.51 1681.07,393.79 1681.30,394.03 1681.56,394.25 1681.82,394.43 1682.10,394.57 1682.38,394.67 1682.67,394.73 1682.97,394.75 1683.26,394.73 1683.55,394.67 1683.83,394.57 1684.11,394.43 1684.37,394.25 1684.63,394.03 1684.86,393.79 1685.08,393.51 1685.28,393.20 1685.45,392.87 1685.60,392.51 1685.73,392.13 1685.83,391.74 1685.90,391.34 1685.94,390.93 1685.96,390.51 1685.96,318.04 1805.85,318.04" fill="#AD1457" fill-opacity="0.5" stroke="#F48FB1" stroke-width="0.8" stroke-dasharray="6 3"/>
<polygon class="slab-poly" data-slab-id="SLAB-031" points="1805.85,327.36 1685.96,327.36 1685.96,237.92 1686.57,237.92 1695.34,236.81 1703.99,234.49 1709.88,232.03 1715.77,234.49 1724.42,236.81 1733.19,237.92 1741.99,237.81 1750.74,236.48 1759.36,233.93 1767.76,230.21 1775.86,225.33 1783.59,219.35 1790.86,212.32 1797.62,204.32 1803.79,195.42 1805.85,191.78 1805.85,327.36" fill="#AD1457" fill-opacity="0.5" stroke="#F48FB1" stroke-width="0.8" stroke-dasharray="6 3"/>
<polygon class="slab-poly" data-slab-id="SLAB-032" points="2086.90,1471.62 1825.09,1471.62 1825.63,1467.57 1826.42,1455.15 1826.34,1442.67 1825.39,1430.26 1823.60,1418.05 1823.19,1416.20 1823.57,1414.50 1825.38,1402.29 1826.33,1389.88 1826.42,1377.41 1825.65,1364.98 1824.51,1356.39 2071.65,1356.39 2071.65,1356.82 2071.67,1357.23 2071.71,1357.64 2071.78,1358.05 2071.88,1358.44 2072.00,1358.81 2072.16,1359.17 2072.33,1359.51 2072.53,1359.81 2072.74,1360.09 2072.98,1360.34 2073.23,1360.55 2073.50,1360.73 2073.77,1360.87 2074.06,1360.97 2074.35,1361.03 2074.64,1361.06 2074.93,1361.03 2075.22,1360.97 2075.51,1360.87 2075.79,1360.73 2076.05,1360.55 2076.30,1360.34 2076.54,1360.09 2076.76,1359.81 2076.95,1359.51 2077.13,1359.17 2077.28,1358.81 2077.40,1358.44 2077.50,1358.05 2077.57,1357.64 2077.62,1357.23 2077.63,1356.82 2077.63,1356.39 2086.90,1356.39 2086.90,1462.72 1975.98,1462.72 1975.98,1382.29 1975.97,1381.87 1975.92,1381.46 1975.85,1381.06 1975.75,1380.67 1975.63,1380.29 1975.48,1379.93 1975.30,1379.60 1975.11,1379.29 1974.89,1379.01 1974.65,1378.76 1974.40,1378.55 1974.14,1378.37 1973.86,1378.23 1973.57,1378.13 1973.28,1378.07 1972.99,1378.05 1972.70,1378.07 1972.41,1378.13 1972.12,1378.23 1971.85,1378.37 1971.58,1378.55 1971.33,1378.76 1971.09,1379.01 1970.88,1379.29 1970.68,1379.60 1970.51,1379.93 1970.35,1380.29 1970.23,1380.67 1970.13,1381.06 1970.06,1381.46 1970.02,1381.87 1970.00,1382.29 1970.00,1466.96 1970.02,1467.37 1970.06,1467.79 1970.13,1468.19 1970.23,1468.58 1970.35,1468.96 1970.51,1469.31 1970.68,1469.65 1970.88,1469.96 1971.09,1470.24 1971.33,1470.48 1971.58,1470.70 1971.85,1470.87 1972.12,1471.02 1972.41,1471.12 1972.70,1471.18 1972.99,1471.20 2086.90,1471.20 2086.90,1471.62" fill="#2E7D32" fill-opacity="0.55" stroke="#A5D6A7" stroke-width="0.8"/>
<polygon class="slab-poly" data-slab-id="SLAB-033" points="2086.90,1080.92 2086.90,1365.72 1825.69,1365.72 1825.65,1364.98 1824.02,1352.71 1821.55,1340.74 1818.27,1329.16 1814.20,1318.10 1809.38,1307.65 1803.87,1297.92 1799.57,1291.71 1799.57,1102.53 1799.56,1102.12 1799.52,1101.70 1799.45,1101.30 1799.35,1100.91 1799.28,1100.70 1799.28,1087.41 1799.35,1087.20 1799.45,1086.81 1799.52,1086.40 1799.56,1085.99 1799.57,1085.58 1799.57,1080.92 2071.65,1080.92 2071.65,1085.58 2071.67,1085.99 2071.71,1086.40 2071.78,1086.81 2071.88,1087.20 2072.00,1087.58 2072.16,1087.93 2072.33,1088.27 2072.53,1088.57 2072.74,1088.85 2072.98,1089.10 2073.23,1089.32 2073.50,1089.49 2073.77,1089.63 2074.06,1089.73 2074.35,1089.80 2074.64,1089.82 2074.93,1089.80 2075.22,1089.73 2075.51,1089.63 2075.79,1089.49 2076.05,1089.32 2076.30,1089.10 2076.54,1088.85 2076.76,1088.57 2076.95,1088.27 2077.13,1087.93 2077.28,1087.58 2077.40,1087.20 2077.50,1086.81 2077.57,1086.40 2077.62,1085.99 2077.63,1085.58 2077.63,1080.92 2086.90,1080.92" fill="#AD1457" fill-opacity="0.5" stroke="#F48FB1" stroke-width="0.8" stroke-dasharray="6 3"/>
<text x="1942.6" y="1221.5" fill="#fff" font-size="9" text-anchor="middle" dominant-baseline="middle" font-family="Segoe UI, sans-serif" paint-order="stroke" stroke="#000" stroke-width="2" pointer-events="none">SLAB-033</text>
<polygon class="slab-poly" data-slab-id="SLAB-034" points="1799.28,828.92 2086.90,828.92 2086.90,1090.24 1799.28,1090.24 1799.28,1087.41 1799.35,1087.20 1799.45,1086.81 1799.52,1086.40 1799.56,1085.99 1799.57,1085.58 1799.57,848.41 1799.56,848.00 1799.52,847.59 1799.45,847.18 1799.35,846.79 1799.28,846.58 1799.28,828.92" fill="#F9A825" fill-opacity="0.55" stroke="#FFE082" stroke-width="0.8"/>
<text x="1940.6" y="959.4" fill="#fff" font-size="9" text-anchor="middle" dominant-baseline="middle" font-family="Segoe UI, sans-serif" paint-order="stroke" stroke="#000" stroke-width="2" pointer-events="none">S38</text>
<polygon class="slab-poly" data-slab-id="SLAB-035" points="1799.28,838.24 1799.28,652.86 2086.90,652.86 2086.90,838.24 1799.28,838.24" fill="#F9A825" fill-opacity="0.55" stroke="#FFE082" stroke-width="0.8"/>
<polygon class="slab-poly" data-slab-id="SLAB-036" points="2086.90,394.32 2086.90,662.18 1799.28,662.18 1799.28,394.32 2073.35,394.32 2073.50,394.43 2073.77,394.57 2074.06,394.67 2074.35,394.73 2074.64,394.75 2074.93,394.73 2075.22,394.67 2075.51,394.57 2075.79,394.43 2075.94,394.32 2086.90,394.32" fill="#F9A825" fill-opacity="0.55" stroke="#FFE082" stroke-width="0.8"/>
<text x="1940.5" y="528.3" fill="#fff" font-size="9" text-anchor="middle" dominant-baseline="middle" font-family="Segoe UI, sans-serif" paint-order="stroke" stroke="#000" stroke-width="2" pointer-events="none">S49</text>
<polygon class="slab-poly" data-slab-id="SLAB-037" points="2086.90,128.38 2086.90,403.65 2075.94,403.65 2075.79,403.55 2075.51,403.41 2075.22,403.31 2074.93,403.25 2074.64,403.23 2074.35,403.25 2074.06,403.31 2073.77,403.41 2073.50,403.55 2073.35,403.65 1799.28,403.65 1799.28,201.93 1803.79,195.42 1809.31,185.71 1814.13,175.27 1818.21,164.21 1821.51,152.64 1823.99,140.67 1825.63,128.41 1825.63,128.38 2086.90,128.38" fill="#F9A825" fill-opacity="0.55" stroke="#FFE082" stroke-width="0.8"/>
<text x="1942.6" y="267.8" fill="#fff" font-size="9" text-anchor="middle" dominant-baseline="middle" font-family="Segoe UI, sans-serif" paint-order="stroke" stroke="#000" stroke-width="2" pointer-events="none">S50</text>
<polygon class="slab-poly" data-slab-id="SLAB-038" points="2342.64,1356.39 2341.30,1368.18 2340.75,1380.64 2341.07,1393.11 2342.25,1405.47 2344.05,1416.19 2342.25,1426.92 2341.07,1439.28 2340.75,1451.75 2341.30,1464.20 2342.14,1471.62 2080.32,1471.62 2080.32,1471.20 2194.24,1471.20 2194.53,1471.18 2194.82,1471.12 2195.11,1471.02 2195.38,1470.87 2195.65,1470.70 2195.90,1470.48 2196.13,1470.24 2196.35,1469.96 2196.55,1469.65 2196.72,1469.31 2196.87,1468.96 2197.00,1468.58 2197.10,1468.19 2197.17,1467.79 2197.21,1467.37 2197.23,1466.96 2197.23,1382.29 2197.21,1381.87 2197.17,1381.46 2197.10,1381.06 2197.00,1380.67 2196.87,1380.29 2196.72,1379.93 2196.55,1379.60 2196.35,1379.29 2196.13,1379.01 2195.90,1378.76 2195.65,1378.55 2195.38,1378.37 2195.11,1378.23 2194.82,1378.13 2194.53,1378.07 2194.24,1378.05 2193.94,1378.07 2193.65,1378.13 2193.37,1378.23 2193.09,1378.37 2192.83,1378.55 2192.58,1378.76 2192.34,1379.01 2192.12,1379.29 2191.93,1379.60 2191.75,1379.93 2191.60,1380.29 2191.48,1380.67 2191.38,1381.06 2191.31,1381.46 2191.26,1381.87 2191.25,1382.29 2191.25,1462.72 2092.98,1462.72 2092.87,1462.70 2092.58,1462.68 2092.29,1462.70 2092.18,1462.72 2080.32,1462.72 2080.32,1356.39 2089.59,1356.39 2089.59,1356.82 2089.60,1357.23 2089.65,1357.64 2089.72,1358.05 2089.82,1358.44 2089.94,1358.81 2090.09,1359.17 2090.27,1359.51 2090.47,1359.81 2090.68,1360.09 2090.92,1360.34 2091.17,1360.55 2091.44,1360.73 2091.71,1360.87 2092.00,1360.97 2092.29,1361.03 2092.58,1361.06 2092.87,1361.03 2093.16,1360.97 2093.45,1360.87 2093.72,1360.73 2093.99,1360.55 2094.24,1360.34 2094.48,1360.09 2094.69,1359.81 2094.89,1359.51 2095.07,1359.17 2095.22,1358.81 2095.34,1358.44 2095.44,1358.05 2095.51,1357.64 2095.56,1357.23 2095.57,1356.82 2095.57,1356.39 2342.64,1356.39" fill="#2E7D32" fill-opacity="0.55" stroke="#A5D6A7" stroke-width="0.8"/>
<polygon class="slab-poly" data-slab-id="SLAB-039" points="2367.95,1080.92 2367.95,1291.05 2367.82,1291.21 2361.83,1300.35 2356.50,1310.28 2351.88,1320.90 2348.01,1332.11 2344.94,1343.80 2342.70,1355.87 2341.58,1365.72 2080.32,1365.72 2080.32,1080.92 2089.59,1080.92 2089.59,1085.58 2089.60,1085.99 2089.65,1086.40 2089.72,1086.81 2089.82,1087.20 2089.94,1087.58 2090.09,1087.93 2090.27,1088.27 2090.47,1088.57 2090.68,1088.85 2090.92,1089.10 2091.17,1089.32 2091.44,1089.49 2091.71,1089.63 2092.00,1089.73 2092.29,1089.80 2092.58,1089.82 2092.87,1089.80 2093.16,1089.73 2093.45,1089.63 2093.72,1089.49 2093.99,1089.32 2094.24,1089.10 2094.48,1088.85 2094.69,1088.57 2094.89,1088.27 2095.07,1087.93 2095.22,1087.58 2095.34,1087.20 2095.44,1086.81 2095.51,1086.40 2095.56,1085.99 2095.57,1085.58 2095.57,1080.92 2367.95,1080.92" fill="#F9A825" fill-opacity="0.55" stroke="#FFE082" stroke-width="0.8"/>
<text x="2224.7" y="1221.4" fill="#fff" font-size="9" text-anchor="middle" dominant-baseline="middle" font-family="Segoe UI, sans-serif" paint-order="stroke" stroke="#000" stroke-width="2" pointer-events="none">S53</text>
<polygon class="slab-poly" data-slab-id="SLAB-040" points="2080.32,1090.24 2080.32,828.92 2367.95,828.92 2367.95,1090.24 2080.32,1090.24" fill="#F9A825" fill-opacity="0.55" stroke="#FFE082" stroke-width="0.8"/>
<text x="2226.7" y="959.4" fill="#fff" font-size="9" text-anchor="middle" dominant-baseline="middle" font-family="Segoe UI, sans-serif" paint-order="stroke" stroke="#000" stroke-width="2" pointer-events="none">S41</text>
<polygon class="slab-poly" data-slab-id="SLAB-041" points="2080.32,838.24 2080.32,652.86 2367.95,652.86 2367.95,838.24 2080.32,838.24" fill="#F9A825" fill-opacity="0.55" stroke="#FFE082" stroke-width="0.8"/>
<polygon class="slab-poly" data-slab-id="SLAB-042" points="2367.95,662.18 2080.32,662.18 2080.32,394.32 2091.29,394.32 2091.44,394.43 2091.71,394.57 2092.00,394.67 2092.29,394.73 2092.58,394.75 2092.87,394.73 2093.16,394.67 2093.45,394.57 2093.72,394.43 2093.88,394.32 2357.38,394.32 2357.53,394.43 2357.81,394.57 2358.10,394.67 2358.39,394.73 2358.68,394.75 2358.97,394.73 2359.26,394.67 2359.55,394.57 2359.82,394.43 2359.97,394.32 2367.95,394.32 2367.95,405.63 2367.88,405.84 2367.78,406.23 2367.71,406.64 2367.66,407.05 2367.65,407.46 2367.65,644.80 2367.66,645.22 2367.71,645.63 2367.78,646.03 2367.88,646.43 2367.95,646.64 2367.95,662.18" fill="#F9A825" fill-opacity="0.55" stroke="#FFE082" stroke-width="0.8"/>
<text x="2223.9" y="528.3" fill="#fff" font-size="9" text-anchor="middle" dominant-baseline="middle" font-family="Segoe UI, sans-serif" paint-order="stroke" stroke="#000" stroke-width="2" pointer-events="none">S45</text>
<polygon class="slab-poly" data-slab-id="SLAB-043" points="2367.95,403.65 2359.97,403.65 2359.82,403.55 2359.55,403.41 2359.26,403.31 2358.97,403.25 2358.68,403.23 2358.39,403.25 2358.10,403.31 2357.81,403.41 2357.53,403.55 2357.38,403.65 2093.88,403.65 2093.72,403.55 2093.45,403.41 2093.16,403.31 2092.87,403.25 2092.58,403.23 2092.29,403.25 2092.00,403.31 2091.71,403.41 2091.44,403.55 2091.29,403.65 2080.32,403.65 2080.32,128.38 2341.69,128.38 2342.71,137.36 2344.96,149.42 2348.04,161.11 2351.91,172.32 2355.69,180.98 2355.69,390.51 2355.70,390.93 2355.75,391.34 2355.82,391.74 2355.92,392.13 2356.04,392.51 2356.19,392.87 2356.37,393.20 2356.56,393.51 2356.78,393.79 2357.02,394.03 2357.27,394.25 2357.53,394.43 2357.81,394.57 2358.10,394.67 2358.39,394.73 2358.68,394.75 2358.97,394.73 2359.26,394.67 2359.55,394.57 2359.82,394.43 2360.09,394.25 2360.34,394.03 2360.58,393.79 2360.79,393.51 2360.99,393.20 2361.17,392.87 2361.32,392.51 2361.44,392.13 2361.54,391.74 2361.61,391.34 2361.65,390.93 2361.67,390.51 2361.67,192.47 2361.88,192.85 2367.87,201.98 2367.95,202.08 2367.95,403.65" fill="#F9A825" fill-opacity="0.55" stroke="#FFE082" stroke-width="0.8"/>
<text x="2222.5" y="267.5" fill="#fff" font-size="9" text-anchor="middle" dominant-baseline="middle" font-family="Segoe UI, sans-serif" paint-order="stroke" stroke="#000" stroke-width="2" pointer-events="none">S46</text>
<polygon class="slab-poly" data-slab-id="SLAB-044" points="2502.19,1080.92 2502.19,1255.26 2495.95,1255.85 2494.91,1255.65 2490.23,1255.41 2490.23,1102.53 2490.22,1102.12 2490.18,1101.70 2490.10,1101.30 2490.00,1100.91 2489.88,1100.53 2489.73,1100.18 2489.55,1099.84 2489.36,1099.53 2489.14,1099.25 2488.90,1099.01 2488.65,1098.79 2488.39,1098.62 2488.11,1098.47 2487.83,1098.37 2487.54,1098.31 2487.24,1098.29 2486.95,1098.31 2486.66,1098.37 2486.37,1098.47 2486.10,1098.62 2485.83,1098.79 2485.58,1099.01 2485.35,1099.25 2485.13,1099.53 2484.93,1099.84 2484.76,1100.18 2484.61,1100.53 2484.48,1100.91 2484.38,1101.30 2484.31,1101.70 2484.27,1102.12 2484.25,1102.53 2484.25,1255.36 2477.33,1255.97 2468.64,1257.95 2460.13,1261.14 2458.93,1261.77 2457.56,1261.05 2449.05,1257.87 2440.36,1255.88 2431.58,1255.11 2422.78,1255.56 2414.06,1257.24 2405.49,1260.12 2397.17,1264.17 2389.16,1269.36 2381.56,1275.64 2374.42,1282.95 2367.82,1291.21 2361.83,1300.35 2361.37,1301.21 2361.37,1080.92 2484.25,1080.92 2484.25,1085.58 2484.27,1085.99 2484.31,1086.40 2484.38,1086.81 2484.48,1087.20 2484.61,1087.58 2484.76,1087.93 2484.93,1088.27 2485.13,1088.57 2485.35,1088.85 2485.58,1089.10 2485.83,1089.32 2486.10,1089.49 2486.37,1089.63 2486.66,1089.73 2486.95,1089.80 2487.24,1089.82 2487.54,1089.80 2487.83,1089.73 2488.11,1089.63 2488.39,1089.49 2488.65,1089.32 2488.90,1089.10 2489.14,1088.85 2489.36,1088.57 2489.55,1088.27 2489.73,1087.93 2489.88,1087.58 2490.00,1087.20 2490.10,1086.81 2490.18,1086.40 2490.22,1085.99 2490.23,1085.58 2490.23,1080.92 2502.19,1080.92" fill="#F9A825" fill-opacity="0.55" stroke="#FFE082" stroke-width="0.8"/>
<polygon class="slab-poly" data-slab-id="SLAB-045" points="2361.37,1090.24 2361.37,828.92 2416.67,828.92 2416.13,833.43 2415.53,845.88 2415.78,858.35 2416.90,870.73 2418.08,877.99 2416.90,885.26 2415.78,897.63 2415.53,910.11 2416.13,922.55 2417.60,934.86 2419.91,946.90 2423.04,958.56 2426.96,969.73 2431.63,980.30 2437.02,990.18 2443.06,999.25 2449.69,1007.45 2456.87,1014.68 2464.51,1020.88 2472.54,1025.99 2480.88,1029.96 2484.25,1031.05 2484.25,1085.58 2484.27,1085.99 2484.31,1086.40 2484.38,1086.81 2484.48,1087.20 2484.61,1087.58 2484.76,1087.93 2484.93,1088.27 2485.13,1088.57 2485.35,1088.85 2485.58,1089.10 2485.83,1089.32 2486.10,1089.49 2486.37,1089.63 2486.66,1089.73 2486.95,1089.80 2487.24,1089.82 2487.54,1089.80 2487.83,1089.73 2488.11,1089.63 2488.39,1089.49 2488.65,1089.32 2488.90,1089.10 2489.14,1088.85 2489.36,1088.57 2489.55,1088.27 2489.73,1087.93 2489.88,1087.58 2490.00,1087.20 2490.10,1086.81 2490.18,1086.40 2490.22,1085.99 2490.23,1085.58 2490.23,1032.89 2498.19,1034.33 2502.19,1034.50 2502.19,1090.24 2361.37,1090.24" fill="#AD1457" fill-opacity="0.5" stroke="#F48FB1" stroke-width="0.8" stroke-dasharray="6 3"/>
<polygon class="slab-poly" data-slab-id="SLAB-046" points="2361.37,838.24 2361.37,652.86 2631.06,652.86 2631.06,762.54 2627.19,756.74 2620.56,748.54 2613.38,741.31 2605.74,735.11 2597.71,730.00 2589.37,726.03 2580.79,723.24 2572.06,721.66 2563.26,721.29 2554.48,722.15 2545.80,724.23 2537.30,727.50 2535.12,728.68 2532.95,727.50 2524.45,724.23 2515.77,722.15 2508.17,721.41 2508.17,670.23 2508.16,669.82 2508.11,669.41 2508.04,669.00 2507.94,668.61 2507.82,668.23 2507.67,667.88 2507.49,667.54 2507.30,667.24 2507.08,666.96 2506.84,666.71 2506.59,666.49 2506.33,666.32 2506.05,666.18 2505.77,666.08 2505.47,666.01 2505.18,665.99 2504.89,666.01 2504.60,666.08 2504.31,666.18 2504.04,666.32 2503.77,666.49 2503.52,666.71 2503.29,666.96 2503.07,667.24 2502.87,667.54 2502.70,667.88 2502.54,668.23 2502.42,668.61 2502.32,669.00 2502.25,669.41 2502.21,669.82 2502.19,670.23 2502.19,721.49 2498.19,721.66 2490.23,723.10 2490.23,670.23 2490.22,669.82 2490.18,669.41 2490.10,669.00 2490.00,668.61 2489.88,668.23 2489.73,667.88 2489.55,667.54 2489.36,667.24 2489.14,666.96 2488.90,666.71 2488.65,666.49 2488.39,666.32 2488.11,666.18 2487.83,666.08 2487.54,666.01 2487.24,665.99 2486.95,666.01 2486.66,666.08 2486.37,666.18 2486.10,666.32 2485.83,666.49 2485.58,666.71 2485.35,666.96 2485.13,667.24 2484.93,667.54 2484.76,667.88 2484.61,668.23 2484.48,668.61 2484.38,669.00 2484.31,669.41 2484.27,669.82 2484.25,670.23 2484.25,724.94 2480.88,726.03 2472.54,730.00 2464.51,735.11 2456.87,741.31 2449.69,748.54 2443.06,756.74 2437.02,765.81 2431.63,775.68 2426.96,786.26 2423.04,797.43 2419.91,809.09 2417.60,821.13 2416.13,833.43 2415.90,838.24 2361.37,838.24" fill="#F9A825" fill-opacity="0.55" stroke="#FFE082" stroke-width="0.8"/>
<polygon class="slab-poly" data-slab-id="SLAB-047" points="2631.06,394.32 2631.06,662.18 2361.37,662.18 2361.37,646.64 2361.44,646.43 2361.54,646.03 2361.61,645.63 2361.65,645.22 2361.67,644.80 2361.67,407.46 2361.65,407.05 2361.61,406.64 2361.54,406.23 2361.44,405.84 2361.37,405.63 2361.37,394.32 2485.95,394.32 2486.10,394.43 2486.37,394.57 2486.66,394.67 2486.95,394.73 2487.24,394.75 2487.54,394.73 2487.83,394.67 2488.11,394.57 2488.39,394.43 2488.54,394.32 2503.89,394.32 2504.04,394.43 2504.31,394.57 2504.60,394.67 2504.89,394.73 2505.18,394.75 2505.47,394.73 2505.77,394.67 2506.05,394.57 2506.33,394.43 2506.48,394.32 2631.06,394.32" fill="#2E7D32" fill-opacity="0.55" stroke="#A5D6A7" stroke-width="0.8"/>
<text x="2499.1" y="528.4" fill="#fff" font-size="9" text-anchor="middle" dominant-baseline="middle" font-family="Segoe UI, sans-serif" paint-order="stroke" stroke="#000" stroke-width="2" pointer-events="none">S4</text>
<polygon class="slab-poly" data-slab-id="SLAB-048" points="2631.06,403.65 2506.48,403.65 2506.33,403.55 2506.05,403.41 2505.77,403.31 2505.47,403.25 2505.18,403.23 2504.89,403.25 2504.60,403.31 2504.31,403.41 2504.04,403.55 2503.89,403.65 2488.54,403.65 2488.39,403.55 2488.11,403.41 2487.83,403.31 2487.54,403.25 2487.24,403.23 2486.95,403.25 2486.66,403.31 2486.37,403.41 2486.10,403.55 2485.95,403.65 2371.93,403.65 2371.78,403.55 2371.51,403.41 2371.22,403.31 2370.93,403.25 2370.64,403.23 2370.35,403.25 2370.06,403.31 2369.77,403.41 2369.49,403.55 2369.34,403.65 2361.37,403.65 2361.37,392.35 2361.44,392.13 2361.54,391.74 2361.61,391.34 2361.65,390.93 2361.67,390.51 2361.67,192.47 2361.88,192.85 2367.87,201.98 2374.48,210.24 2381.61,217.54 2389.23,223.81 2397.23,228.99 2405.56,233.04 2414.13,235.90 2422.85,237.57 2431.65,238.01 2440.43,237.23 2449.12,235.24 2457.63,232.04 2458.84,231.40 2460.06,232.04 2468.57,235.24 2477.26,237.23 2484.25,237.86 2484.25,390.51 2484.27,390.93 2484.31,391.34 2484.38,391.74 2484.48,392.13 2484.61,392.51 2484.76,392.87 2484.93,393.20 2485.13,393.51 2485.35,393.79 2485.58,394.03 2485.83,394.25 2486.10,394.43 2486.37,394.57 2486.66,394.67 2486.95,394.73 2487.24,394.75 2487.54,394.73 2487.83,394.67 2488.11,394.57 2488.39,394.43 2488.65,394.25 2488.90,394.03 2489.14,393.79 2489.36,393.51 2489.55,393.20 2489.73,392.87 2489.88,392.51 2490.00,392.13 2490.10,391.74 2490.18,391.34 2490.22,390.93 2490.23,390.51 2490.23,237.80 2494.84,237.57 2496.48,237.26 2497.65,237.48 2502.19,237.71 2502.19,390.51 2502.21,390.93 2502.25,391.34 2502.32,391.74 2502.42,392.13 2502.54,392.51 2502.70,392.87 2502.87,393.20 2503.07,393.51 2503.29,393.79 2503.52,394.03 2503.77,394.25 2504.04,394.43 2504.31,394.57 2504.60,394.67 2504.89,394.73 2505.18,394.75 2505.47,394.73 2505.77,394.67 2506.05,394.57 2506.33,394.43 2506.59,394.25 2506.84,394.03 2507.08,393.79 2507.30,393.51 2507.49,393.20 2507.67,392.87 2507.82,392.51 2507.94,392.13 2508.04,391.74 2508.11,391.34 2508.16,390.93 2508.17,390.51 2508.17,237.77 2515.23,237.15 2523.92,235.15 2532.43,231.96 2533.67,231.31 2534.98,232.00 2543.49,235.17 2552.18,237.15 2560.97,237.92 2569.77,237.46 2578.49,235.78 2587.05,232.89 2595.37,228.83 2603.38,223.63 2610.98,217.35 2618.11,210.04 2624.71,201.77 2630.70,192.63 2631.06,191.95 2631.06,403.65" fill="#F9A825" fill-opacity="0.55" stroke="#FFE082" stroke-width="0.8"/>
<polygon class="slab-poly" data-slab-id="SLAB-049" points="2827.10,1356.39 2826.52,1360.01 2825.40,1372.39 2825.15,1384.86 2825.76,1397.31 2827.23,1409.61 2828.51,1416.26 2827.28,1422.70 2825.81,1435.00 2825.19,1447.45 2825.45,1459.92 2826.50,1471.62 2654.07,1471.62 2655.12,1460.24 2655.39,1447.77 2654.80,1435.32 2653.35,1423.01 2652.05,1416.15 2653.36,1409.21 2654.81,1396.90 2655.39,1384.45 2655.11,1371.98 2653.97,1359.61 2653.44,1356.39 2827.10,1356.39" fill="#AD1457" fill-opacity="0.5" stroke="#F48FB1" stroke-width="0.8" stroke-dasharray="6 3"/>
<polygon class="slab-poly" data-slab-id="SLAB-050" points="2624.48,1080.92 2717.10,1080.92 2724.53,1092.53 2744.10,1117.67 2765.31,1139.97 2787.96,1159.21 2811.83,1175.22 2836.69,1187.83 2862.31,1196.92 2888.43,1202.41 2893.86,1202.79 2893.86,1258.73 2887.04,1261.36 2878.81,1265.81 2870.93,1271.37 2863.48,1278.00 2856.52,1285.64 2850.12,1294.21 2844.34,1303.62 2839.24,1313.80 2834.87,1324.63 2831.27,1336.01 2828.48,1347.85 2826.52,1360.01 2826.00,1365.72 2654.53,1365.72 2653.97,1359.61 2651.98,1347.45 2649.16,1335.63 2645.53,1324.26 2641.14,1313.45 2636.02,1303.30 2630.22,1293.91 2624.48,1286.28 2624.48,1080.92" fill="#F9A825" fill-opacity="0.55" stroke="#FFE082" stroke-width="0.8"/>
<polygon class="slab-poly" data-slab-id="SLAB-051" points="2624.48,1090.24 2624.48,1002.60 2627.19,999.25 2633.23,990.18 2638.62,980.30 2643.29,969.73 2647.21,958.56 2650.34,946.90 2652.65,934.86 2654.12,922.55 2654.39,917.05 2657.30,933.54 2666.20,968.79 2677.49,1002.63 2691.06,1034.73 2706.80,1064.80 2723.06,1090.24 2624.48,1090.24" fill="#AD1457" fill-opacity="0.5" stroke="#F48FB1" stroke-width="0.8" stroke-dasharray="6 3"/>
<polygon class="slab-poly" data-slab-id="SLAB-052" points="2624.48,652.86 2674.20,652.86 2666.19,676.85 2657.30,712.09 2650.88,748.40 2647.01,785.43 2646.65,795.81 2643.29,786.26 2638.62,775.68 2633.23,765.81 2627.19,756.74 2624.48,753.39 2624.48,652.86" fill="#AD1457" fill-opacity="0.5" stroke="#F48FB1" stroke-width="0.8" stroke-dasharray="6 3"/>
<polygon class="slab-poly" data-slab-id="SLAB-053" points="2624.48,662.18 2624.48,394.32 2649.70,394.32 2650.88,405.58 2657.30,441.89 2666.19,477.14 2677.48,510.98 2696.41,561.18 2695.59,584.86 2695.59,584.90 2695.59,584.95 2695.91,594.14 2677.48,643.01 2671.09,662.18 2624.48,662.18" fill="#F9A825" fill-opacity="0.55" stroke="#FFE082" stroke-width="0.8"/>
<polygon class="slab-poly" data-slab-id="SLAB-054" points="2687.20,128.38 2677.49,151.36 2666.20,185.20 2657.30,220.44 2650.88,256.75 2647.01,293.78 2645.71,331.17 2647.01,368.55 2650.68,403.65 2624.48,403.65 2624.48,202.05 2624.71,201.77 2630.70,192.63 2636.03,182.70 2640.64,172.07 2644.50,160.86 2647.57,149.16 2649.81,137.09 2650.80,128.38 2687.20,128.38" fill="#AD1457" fill-opacity="0.5" stroke="#F48FB1" stroke-width="0.8" stroke-dasharray="6 3"/>
<polygon class="slab-poly" data-slab-id="SLAB-055" points="3109.43,1471.62 3030.04,1471.62 3031.09,1459.92 3031.35,1447.45 3030.73,1435.00 3029.26,1422.70 3028.03,1416.26 3029.31,1409.61 3030.78,1397.31 3031.39,1384.86 3031.14,1372.39 3030.02,1360.01 3028.06,1347.85 3025.27,1336.01 3021.67,1324.63 3017.30,1313.80 3012.20,1303.62 3006.42,1294.21 3000.02,1285.64 2993.06,1278.00 2985.61,1271.37 2977.73,1265.81 2969.50,1261.36 2961.01,1258.08 2952.33,1256.00 2943.55,1255.13 2934.75,1255.49 2928.27,1256.66 2921.79,1255.49 2917.78,1255.33 2917.78,1204.04 2941.18,1202.41 2967.30,1196.92 2992.92,1187.82 3007.49,1180.43 3022.05,1187.82 3047.67,1196.92 3073.79,1202.41 3100.16,1204.25 3109.43,1203.60 3109.43,1471.62" fill="#2E7D32" fill-opacity="0.55" stroke="#A5D6A7" stroke-width="0.8"/>
</svg>