<svg xmlns="http://www.w3.org/2000/svg" width="3200" height="1600" viewBox="0 0 3200 1600">
<rect width="100%" height="100%" fill="#121212"/>
<polygon points="614.89,1102.63 620.88,1102.63 620.88,1102.63 626.87,1102.63 626.87,1094.15 896.52,1094.15 896.52,1102.63 902.51,1102.63 902.51,1357.00 896.52,1357.00 896.52,1365.48 626.87,1365.48 626.87,1357.00 620.88,1357.00 620.88,1357.00 614.89,1357.00 614.89,1365.48 498.04,1365.48 498.04,1357.00 492.04,1357.00 492.04,1102.63 498.04,1102.63 498.04,1094.15 614.89,1094.15 614.89,1102.63" fill="#FF9800" fill-opacity="0.12" stroke="#FFB74D" stroke-width="0.6"/>
<polygon points="87.57,848.43 87.57,839.95 351.23,839.95 351.23,848.43 357.22,848.43 363.21,848.43 363.21,839.95 480.06,839.95 480.06,848.43 486.05,848.43 486.05,954.24 480.06,954.24 480.06,962.72 480.06,962.72 480.06,971.19 486.05,971.19 486.05,1051.76 480.06,1051.76 480.06,1060.24 480.06,1068.71 486.05,1068.71 486.05,1357.00 480.06,1357.00 480.06,1365.48 87.57,1365.48 87.57,1357.00 81.58,1357.00 81.58,1068.71 87.57,1068.71 87.57,1060.24 87.57,1051.76 81.58,1051.76 81.58,848.43 87.57,848.43" fill="#FF9800" fill-opacity="0.12" stroke="#FFB74D" stroke-width="0.6"/>
<polygon points="498.04,839.95 614.89,839.95 614.89,848.43 620.88,848.43 620.88,848.43 626.87,848.43 626.87,839.95 896.52,839.95 896.52,848.43 902.51,848.43 902.51,1085.67 896.52,1085.67 896.52,1094.15 626.87,1094.15 626.87,1085.67 620.88,1085.67 620.88,996.69 620.88,1085.67 614.89,1085.67 614.89,1094.15 498.04,1094.15 498.04,1085.67 492.04,1085.67 492.04,848.43 498.04,848.43 498.04,839.95" fill="#FF9800" fill-opacity="0.12" stroke="#FFB74D" stroke-width="0.6"/>
<polygon points="1076.29,907.61 1076.28,907.62 1076.28,916.09 1016.36,916.09 1016.36,907.61 1010.36,907.61 1010.36,852.67 1016.36,852.67 1016.36,844.19 1076.28,844.19 1076.28,852.66 1076.29,852.67 1082.27,852.67 1082.27,907.61 1076.29,907.61" fill="#FF9800" fill-opacity="0.12" stroke="#FFB74D" stroke-width="0.6"/>
<polygon points="160.14,1373.96 407.62,1373.96 407.62,1382.44 413.61,1382.44 413.61,1382.78 413.61,1382.44 419.60,1382.44 419.60,1373.96 480.06,1373.96 480.06,1382.43 483.79,1389.08 459.56,1416.34 483.83,1443.49 480.11,1450.15 480.11,1458.62 419.60,1458.62 419.60,1450.43 419.44,1450.14 413.61,1450.14 413.61,1458.74 560.95,1458.74 560.95,1382.44 560.95,1450.26 554.97,1450.26 554.96,1450.27 554.96,1458.74 498.04,1458.74 498.04,1450.34 497.99,1450.26 492.04,1450.26 492.04,1382.44 497.88,1382.44 498.04,1382.19 498.04,1373.96 554.96,1373.96 554.96,1382.43 554.97,1382.44 560.95,1382.44 560.95,1382.44 566.95,1382.44 566.95,1373.96 638.05,1373.96 638.05,1382.44 644.04,1382.44 644.04,1382.78 644.04,1382.44 650.03,1382.44 650.03,1373.96 733.23,1373.96 733.23,1382.44 739.22,1382.44 745.21,1382.44 745.21,1373.96 896.52,1373.96 896.52,1382.44 902.51,1382.44 902.51,1450.26 896.52,1450.26 896.52,1458.74 749.20,1458.74 980.40,1458.74 980.40,1450.26 974.42,1450.26 974.41,1450.27 974.41,1458.74 914.49,1458.74 914.49,1450.26 908.50,1450.26 908.50,1382.44 914.40,1382.44 914.49,1382.27 914.49,1373.96 974.41,1373.96 974.41,1382.43 974.42,1382.44 980.40,1382.44 980.40,1382.44 986.40,1382.44 986.40,1373.96 1068.92,1373.96 1068.92,1382.44 1074.91,1382.44 1074.91,1382.78 1074.91,1382.44 1080.90,1382.44 1080.90,1373.96 1178.15,1373.96 1178.15,1390.92 1086.90,1390.92 1086.90,1458.67 1190.13,1458.67 1190.13,1450.19 1184.14,1450.19 1184.14,1365.48 1178.15,1365.48 1178.15,1365.49 1178.15,1373.96 914.49,1373.96 914.49,1365.48 908.50,1365.48 908.50,852.67 914.49,852.67 914.49,844.19 1004.37,844.19 1004.37,852.67 1010.36,852.67 1010.36,916.09 1082.27,916.09 1082.27,852.67 1088.26,852.67 1088.26,844.19 1178.15,844.19 1178.15,852.67 1178.15,852.67 1184.14,852.67 1184.14,852.67 1190.13,852.67 1190.13,844.19 1315.97,844.19 1315.97,852.67 1321.96,852.67 1321.96,1000.88 1315.97,1000.88 1315.97,1009.36 1315.97,1017.84 1315.97,1017.84 1321.96,1017.84 1321.96,1281.18 1315.97,1281.18 1315.97,1281.19 1315.97,1289.66 1190.13,1289.66 1190.13,1281.18 1184.14,1281.18 1184.14,1298.14 1189.91,1298.14 1190.13,1297.97 1190.13,1289.66 1250.05,1289.66 1250.05,1298.14 1250.06,1298.14 1256.05,1298.14 1256.05,1298.14 1262.04,1298.14 1262.04,1289.66 1326.51,1289.66 1326.51,1298.14 1332.51,1298.14 1332.51,1298.18 1332.51,1298.14 1338.50,1298.14 1338.50,1289.66 1585.98,1289.66 1585.98,1298.14 1591.97,1298.14 1591.97,1298.18 1591.97,1298.14 1597.96,1298.14 1597.96,1289.66 1662.02,1289.66 1662.02,1298.14 1668.01,1298.14 1668.01,1458.75 1679.99,1458.75 1679.99,1450.27 1674.00,1450.27 1674.00,1382.44 1679.95,1382.44 1679.99,1382.37 1679.99,1373.96 1733.93,1373.96 1733.93,1382.44 1739.92,1382.44 1745.91,1382.44 1745.91,1373.96 1816.02,1373.96 1816.02,1382.44 1822.01,1382.44 1822.01,1382.50 1822.01,1382.44 1828.00,1382.44 1828.00,1373.96 1970.62,1373.96 1970.62,1382.48 1976.62,1382.48 1976.62,1382.44 1982.61,1382.44 1982.61,1373.96 2072.49,1373.96 2072.49,1382.44 2078.48,1382.44 2078.48,1450.18 2072.49,1450.18 2072.49,1458.66 1982.61,1458.66 1982.61,1450.18 1976.62,1450.18 1976.62,1458.70 2186.34,1458.70 2186.34,1450.18 2180.35,1450.18 2180.35,1458.66 2090.46,1458.66 2090.46,1450.18 2084.47,1450.18 2084.47,1382.44 2090.46,1382.44 2090.46,1373.96 2180.35,1373.96 2180.35,1382.44 2186.34,1382.44 2186.34,1382.48 2192.33,1382.48 2192.33,1374.00 2334.71,1373.98 2334.71,1382.44 2340.70,1382.44 2340.70,1382.50 2340.70,1382.44 2346.69,1382.44 2346.69,1373.97 2417.04,1373.96 2417.04,1382.44 2423.03,1382.44 2429.02,1382.44 2429.02,1373.96 2485.94,1373.96 2485.94,1382.44 2491.94,1382.44 2491.94,1450.18 2486.00,1450.18 2485.94,1450.28 2485.94,1458.66 2497.93,1458.66 2497.93,1382.44 2503.92,1382.44 2503.92,1373.96 2564.57,1373.96 2564.57,1382.43 2564.57,1382.44 2570.56,1382.44 2570.56,1382.50 2570.56,1382.44 2576.55,1382.44 2576.55,1373.96 2824.03,1373.96 2824.03,1382.44 2830.02,1382.44 2830.02,1382.50 2830.02,1382.44 2836.02,1382.44 2836.02,1373.96 2908.39,1373.96 2908.39,924.56 2914.39,924.56 2914.39,916.08 2914.39,916.08 2914.39,907.60 2908.39,907.60 2908.39,839.95 2920.38,839.95 2920.38,839.95 2941.35,839.95 2941.35,848.43 2941.36,848.43 2947.35,848.43 2947.35,907.60 2941.36,907.60 2941.35,907.61 2941.35,916.08 2947.36,916.08 2947.36,848.43 2953.35,848.43 2959.35,848.43 2959.35,924.56 2953.35,924.56 2953.35,933.04 2920.38,933.04 2920.38,1357.01 2953.35,1357.06 2953.34,1365.48 2959.25,1365.48 2959.25,1467.23 2953.26,1467.23 2953.26,1475.71 2896.42,1475.71 2896.42,1475.74 2836.02,1475.74 2824.03,1475.74 2824.03,1467.26 2818.04,1467.26 2818.04,1390.92 2582.55,1390.92 2582.55,1467.14 2576.55,1467.14 2576.55,1475.62 2334.71,1475.62 2334.71,1467.14 2328.71,1467.14 2328.71,1390.94 2198.32,1390.96 2198.32,1467.18 2192.33,1467.18 2192.33,1475.66 1970.62,1475.66 1970.62,1467.18 1964.63,1467.18 1964.63,1390.92 1833.99,1390.92 1833.99,1467.23 1828.00,1467.23 1828.00,1475.71 1662.02,1475.71 1662.02,1467.23 1656.03,1467.23 1656.03,1306.62 1603.95,1306.62 1603.95,1382.95 1597.96,1382.95 1597.96,1391.43 1585.98,1391.43 1585.98,1382.95 1579.98,1382.95 1579.98,1306.62 1344.49,1306.62 1344.49,1382.95 1338.50,1382.95 1338.50,1391.43 1326.51,1391.43 1326.51,1382.95 1320.52,1382.95 1320.52,1306.62 1268.03,1306.62 1268.03,1467.15 1262.04,1467.15 1262.04,1475.63 1068.92,1475.63 1068.92,1467.15 1062.93,1467.15 1062.93,1390.92 992.39,1390.92 992.39,1467.22 986.40,1467.22 986.40,1475.70 733.23,1475.70 733.23,1467.22 727.24,1467.22 727.24,1390.92 656.03,1390.92 656.03,1467.22 650.03,1467.22 650.03,1475.70 407.62,1475.70 407.62,1467.22 401.63,1467.22 401.63,1390.92 166.13,1390.92 166.13,1467.23 160.14,1467.23 160.14,1475.71 30.72,1475.71 30.72,1467.23 24.73,1467.23 24.73,1365.48 30.64,1365.48 30.64,1357.06 63.60,1357.01 63.60,1307.84 30.59,1307.84 30.59,1299.36 24.60,1299.36 24.60,1282.40 30.59,1282.40 30.59,1273.92 63.60,1273.92 63.60,1135.70 30.59,1135.70 30.59,1127.22 24.60,1127.22 24.60,1110.26 30.59,1110.26 30.59,1101.78 63.60,1101.78 63.60,1034.80 30.59,1034.80 30.59,1026.32 24.60,1026.32 24.60,1009.36 30.59,1009.36 30.59,1000.88 63.60,1000.88 63.60,949.99 30.60,949.99 30.60,941.51 24.61,941.50 24.70,822.98 30.69,822.99 30.69,814.51 63.60,814.51 63.60,678.68 30.59,678.68 30.59,670.20 24.60,670.20 24.60,653.24 30.59,653.24 30.59,644.76 63.60,644.76 63.60,599.39 30.57,599.39 30.57,590.91 24.58,590.91 24.58,573.96 30.57,573.96 30.57,565.48 63.60,565.48 63.60,465.42 30.55,465.42 30.55,456.94 24.56,456.94 24.56,439.98 30.55,439.98 30.55,431.50 63.60,431.50 63.60,376.38 30.55,376.38 30.55,367.90 24.56,367.90 24.56,350.95 30.55,350.95 30.55,342.47 63.60,342.47 63.60,204.25 30.55,204.25 30.55,195.77 24.56,195.77 24.56,178.82 30.55,178.82 30.55,170.34 63.60,170.34 63.60,140.06 75.59,140.06 75.59,178.82 69.59,178.82 69.59,187.30 69.59,187.30 69.59,195.77 75.59,195.77 75.59,350.95 69.59,350.95 69.59,359.42 69.59,359.42 69.59,367.90 75.59,367.90 75.59,439.98 69.59,439.98 69.59,448.46 69.59,448.46 69.59,456.94 75.59,456.94 75.59,573.96 69.61,573.96 69.61,582.44 69.61,582.44 69.61,590.91 75.59,590.91 75.59,653.24 69.64,653.24 69.64,661.72 69.64,661.72 69.64,670.20 75.59,670.20 75.59,822.99 69.59,822.99 69.59,831.47 36.68,831.47 36.67,839.95 42.66,839.95 42.66,831.47 69.59,831.47 69.59,839.95 69.60,839.95 75.59,839.95 75.59,890.65 65.41,890.65 70.81,907.61 75.59,907.61 75.59,1009.36 69.64,1009.36 69.64,1017.84 69.64,1017.84 69.64,1026.32 75.59,1026.32 75.59,1110.26 69.64,1110.26 69.64,1118.74 69.64,1118.74 69.64,1127.22 75.59,1127.22 75.59,1282.40 69.64,1282.40 69.64,1290.88 69.64,1290.88 69.64,1299.36 75.59,1299.36 75.59,1365.48 69.59,1365.48 69.60,1373.96 65.82,1373.97 69.59,1373.97 69.59,1382.44 75.59,1382.44 75.59,1450.27 69.59,1450.27 69.59,1458.75 42.66,1458.75 42.66,1450.31 42.60,1450.27 36.71,1450.28 36.71,1458.75 81.58,1458.75 81.58,1382.44 87.57,1382.44 87.57,1373.96 148.16,1373.96 148.16,1382.44 154.15,1382.44 154.15,1382.78 154.15,1382.44 160.14,1382.44 160.14,1373.96" fill="#FF9800" fill-opacity="0.12" stroke="#FFB74D" stroke-width="0.6"/>
<polygon points="486.05,822.99 480.06,822.99 480.06,831.47 87.57,831.47 87.57,822.99 81.58,822.99 81.58,670.19 87.57,670.19 87.57,661.71 480.06,661.71 480.06,670.19 486.05,670.19 486.05,822.99" fill="#FF9800" fill-opacity="0.12" stroke="#FFB74D" stroke-width="0.6"/>
<polygon points="896.52,670.19 902.51,670.19 902.51,822.99 896.52,822.99 896.52,831.47 498.04,831.47 498.04,822.99 492.04,822.99 492.04,670.19 498.04,670.19 498.04,661.71 896.52,661.71 896.52,670.19" fill="#FF9800" fill-opacity="0.12" stroke="#FFB74D" stroke-width="0.6"/>
<polygon points="1315.97,831.47 914.49,831.47 914.49,822.99 908.50,822.99 908.50,670.19 914.49,670.19 914.49,661.71 1315.97,661.71 1315.97,670.19 1321.96,670.19 1321.96,822.99 1315.97,822.99 1315.97,831.47" fill="#FF9800" fill-opacity="0.12" stroke="#FFB74D" stroke-width="0.6"/>
<polygon points="363.21,407.33 363.21,398.85 480.06,398.85 480.06,407.33 486.05,407.33 486.05,644.75 480.06,644.75 480.06,653.23 363.21,653.23 363.21,644.75 357.22,644.75 351.23,644.75 351.23,653.23 87.57,653.23 87.57,644.75 81.58,644.75 81.58,407.33 87.57,407.33 87.57,398.85 351.23,398.85 351.23,407.33 357.22,407.33 363.21,407.33" fill="#FF9800" fill-opacity="0.12" stroke="#FFB74D" stroke-width="0.6"/>
<polygon points="492.04,390.37 492.04,136.00 498.04,136.00 498.04,127.52 614.89,127.52 614.89,136.00 620.88,136.00 620.88,136.00 626.87,136.00 626.87,127.52 896.52,127.52 896.52,136.00 902.51,136.00 902.51,390.37 896.52,390.37 896.52,398.85 626.87,398.85 626.87,390.37 620.88,390.37 620.88,390.37 614.89,390.37 614.89,398.85 498.04,398.85 614.89,398.85 614.89,407.24 620.88,407.24 620.88,423.62 620.88,407.24 626.87,407.24 626.87,398.85 896.52,398.85 896.52,407.33 902.51,407.33 902.51,644.75 896.52,644.75 896.52,653.23 626.87,653.23 626.87,644.75 620.88,644.75 620.88,644.75 614.89,644.75 614.89,653.23 498.04,653.23 498.04,644.75 492.04,644.75 492.04,407.33 498.04,407.33 498.04,398.85 498.04,398.85 498.04,390.37 492.04,390.37" fill="#FF9800" fill-opacity="0.12" stroke="#FFB74D" stroke-width="0.6"/>
<polygon points="914.49,534.52 908.50,534.52 908.50,407.33 914.49,407.33 914.49,398.85 1034.34,398.85 1034.34,407.33 1040.33,407.33 1046.32,407.33 1046.32,398.85 1315.97,398.85 1046.32,398.85 1046.32,390.37 1040.33,390.37 1040.33,390.37 1034.34,390.37 1034.34,398.85 914.49,398.85 914.49,390.37 908.50,390.37 908.50,136.00 914.49,136.00 914.49,127.52 1034.34,127.52 1034.34,136.00 1040.33,136.00 1046.32,136.00 1046.32,127.52 1315.97,127.52 1315.97,136.00 1321.96,136.00 1321.96,390.37 1315.97,390.37 1315.97,398.85 1315.97,398.85 1315.97,407.33 1321.96,407.33 1321.96,644.75 1315.97,644.75 1315.97,653.23 1046.32,653.23 1046.32,644.75 1040.33,644.75 1040.33,644.75 1034.34,644.75 1034.34,653.23 977.41,653.23 977.41,644.75 971.42,644.75 971.42,644.75 965.42,644.75 965.42,644.75 965.42,653.23 914.49,653.23 914.49,644.75 908.50,644.75 908.50,551.47 914.49,551.47 914.49,543.00 914.49,543.00 914.49,534.52" fill="#FF9800" fill-opacity="0.12" stroke="#FFB74D" stroke-width="0.6"/>
<polygon points="486.05,390.37 480.06,390.37 480.06,398.85 363.21,398.85 363.21,390.37 357.22,390.37 357.22,136.00 363.21,136.00 363.21,127.52 480.06,127.52 480.06,136.00 486.05,136.00 486.05,390.37" fill="#FF9800" fill-opacity="0.12" stroke="#FFB74D" stroke-width="0.6"/>
<polygon points="357.22,390.37 357.22,390.37 351.23,390.37 351.23,398.85 87.57,398.85 87.57,390.37 81.58,390.37 81.58,136.00 87.57,136.00 87.57,127.52 351.23,127.52 351.23,136.00 357.22,136.00 357.22,390.37" fill="#FF9800" fill-opacity="0.12" stroke="#FFB74D" stroke-width="0.6"/>
<polygon points="2497.93,907.61 2497.93,848.43 2503.92,848.43 2503.92,839.95 2563.91,839.95 2563.91,848.42 2563.91,848.43 2569.90,848.43 2575.89,848.43 2575.89,839.95 2695.67,839.95 2695.67,848.43 2701.67,848.43 2701.67,848.43 2707.66,848.43 2707.66,839.95 2896.41,839.95 2896.41,848.43 2902.40,848.43 2902.40,1357.00 2896.41,1357.00 2896.41,1365.48 2707.66,1365.48 2707.66,1357.00 2701.67,1357.00 2701.67,1357.00 2695.67,1357.00 2695.67,1365.48 2503.92,1365.48 2503.92,1357.00 2497.93,1357.00 2497.93,924.57 2503.92,924.57 2503.92,916.09 2503.92,907.61 2497.93,907.61" fill="#FF9800" fill-opacity="0.12" stroke="#FFB74D" stroke-width="0.6"/>
<polygon points="1674.00,1085.67 1674.00,848.43 1679.99,848.43 1679.99,839.95 1793.85,839.95 1793.85,848.43 1799.84,848.43 1805.83,848.43 1805.83,839.95 2072.48,839.95 2072.48,848.43 2078.48,848.43 2078.48,1085.67 2072.48,1085.67 2072.48,1094.15 1805.83,1094.15 1805.83,1085.67 1799.84,1085.67 1793.85,1085.67 1793.85,1094.15 1793.85,1094.15 1793.85,1102.63 1799.84,1102.63 1799.84,1102.63 1805.83,1102.63 1805.83,1094.15 2072.48,1094.15 2072.48,1102.63 2078.48,1102.63 2078.48,1357.00 2072.48,1357.00 2072.48,1365.48 1805.83,1365.48 1805.83,1357.00 1799.84,1357.00 1799.84,1357.00 1793.85,1357.00 1793.85,1365.48 1679.99,1365.48 1679.99,1357.00 1674.00,1357.00 1674.00,1102.63 1679.99,1102.63 1679.99,1094.15 1679.99,1094.15 1679.99,1085.67 1674.00,1085.67" fill="#FF9800" fill-opacity="0.12" stroke="#FFB74D" stroke-width="0.6"/>
<polygon points="2084.47,1085.67 2084.47,848.43 2090.46,848.43 2090.46,839.95 2357.11,839.95 2357.11,848.43 2363.11,848.43 2369.10,848.43 2369.10,839.95 2485.95,839.95 2485.95,848.43 2491.94,848.43 2491.94,1085.67 2485.95,1085.67 2485.95,1094.15 2479.07,1094.15 2485.95,1094.15 2485.95,1102.63 2491.94,1102.63 2491.94,1357.00 2485.95,1357.00 2485.95,1365.48 2369.10,1365.48 2369.10,1357.00 2363.11,1357.00 2363.11,1357.00 2357.11,1357.00 2357.11,1365.48 2090.46,1365.48 2090.46,1357.00 2084.47,1357.00 2084.47,1102.63 2090.46,1102.63 2090.46,1094.15 2227.83,1094.15 2090.46,1094.15 2090.46,1085.67 2084.47,1085.67" fill="#FF9800" fill-opacity="0.12" stroke="#FFB74D" stroke-width="0.6"/>
<polygon points="1668.01,1272.70 1662.02,1272.70 1662.02,1281.18 1333.94,1281.18 1333.94,1272.70 1327.95,1272.70 1327.95,848.43 1333.94,848.43 1333.94,839.95 1662.02,839.95 1662.02,848.43 1668.01,848.43 1668.01,1272.70" fill="#FF9800" fill-opacity="0.12" stroke="#FFB74D" stroke-width="0.6"/>
<polygon points="1662.02,822.99 1662.02,831.47 1333.94,831.47 1333.94,822.99 1327.95,822.99 1327.95,670.19 1333.94,670.19 1333.94,661.71 1662.02,661.71 1662.02,670.19 1668.01,670.19 1668.01,822.99 1662.02,822.99" fill="#FF9800" fill-opacity="0.12" stroke="#FFB74D" stroke-width="0.6"/>
<polygon points="2072.48,822.99 2072.48,831.47 1679.99,831.47 1679.99,822.99 1674.00,822.99 1674.00,670.19 1679.99,670.19 1679.99,661.71 2072.48,661.71 2072.48,670.19 2078.48,670.19 2078.48,822.99 2072.48,822.99" fill="#FF9800" fill-opacity="0.12" stroke="#FFB74D" stroke-width="0.6"/>
<polygon points="2485.95,661.71 2485.95,670.19 2491.94,670.19 2491.94,822.99 2485.95,822.99 2485.95,831.47 2090.46,831.47 2090.46,822.99 2084.47,822.99 2084.47,670.19 2090.46,670.19 2090.46,661.71 2485.95,661.71" fill="#FF9800" fill-opacity="0.12" stroke="#FFB74D" stroke-width="0.6"/>
<polygon points="2896.41,822.99 2896.41,831.47 2503.92,831.47 2503.92,822.99 2497.93,822.99 2497.93,670.19 2503.92,670.19 2503.92,661.71 2896.41,661.71 2896.41,670.19 2902.40,670.19 2902.40,822.99 2896.41,822.99" fill="#FF9800" fill-opacity="0.12" stroke="#FFB74D" stroke-width="0.6"/>
<polygon points="322.70,25.57 328.70,25.57 328.70,17.09 340.68,17.09 340.68,25.57 346.67,25.57 346.67,102.08 405.16,102.08 405.16,25.75 411.15,25.75 411.15,17.27 566.95,17.27 566.95,25.75 572.94,25.75 572.94,102.08 640.66,102.08 640.66,25.57 646.65,25.57 646.65,17.09 658.63,17.09 658.63,25.57 664.62,25.57 664.62,102.08 788.66,102.07 788.66,25.75 794.65,25.75 794.65,17.27 986.40,17.27 986.40,25.75 992.39,25.75 992.39,102.08 1060.17,102.08 1060.17,25.57 1066.16,25.57 1066.16,17.09 1078.14,17.09 1078.14,25.57 1084.14,25.57 1084.14,102.08 1208.11,102.08 1208.11,25.75 1214.10,25.75 1214.10,17.27 1333.95,17.27 1333.95,25.75 1339.94,25.75 1339.94,102.08 1656.03,102.08 1656.03,25.66 1662.02,25.66 1662.02,17.18 1745.91,17.18 1745.91,25.66 1751.90,25.66 1751.90,102.08 1810.39,102.08 1810.39,25.59 1816.38,25.59 1816.38,17.11 1828.37,17.11 1828.37,25.59 1834.36,25.59 1834.36,102.08 1964.63,102.07 1964.63,25.75 1970.62,25.75 1970.62,17.27 2192.33,17.27 2192.33,25.75 2198.32,25.75 2198.32,102.08 2311.94,102.08 2311.94,25.60 2317.93,25.60 2317.93,17.12 2329.92,17.12 2329.92,25.60 2335.91,25.60 2335.91,102.08 2411.04,102.08 2411.04,25.75 2417.04,25.75 2417.04,17.27 2572.83,17.27 2572.83,25.75 2578.83,25.75 2578.83,102.08 2637.31,102.08 2637.31,25.60 2643.30,25.60 2643.30,17.12 2655.29,17.12 2655.29,25.60 2661.28,25.60 2661.28,102.08 2788.53,102.07 2788.53,25.73 2794.55,25.73 2794.55,17.19 2914.39,17.18 2914.39,25.66 2914.43,25.66 2914.44,17.27 2953.36,17.30 2953.35,25.78 2959.35,25.78 2959.35,127.52 2953.35,127.52 2953.35,136.00 2920.38,136.00 2920.38,305.58 3094.15,305.58 3094.15,246.24 3100.15,246.24 3100.15,237.75 3112.13,237.75 3112.13,246.23 3118.12,246.23 3118.12,305.58 3139.14,305.58 3139.14,314.06 3145.13,314.04 3145.15,331.00 3139.16,331.02 3139.16,339.50 3118.12,339.50 3118.12,428.52 3139.14,428.52 3139.14,437.00 3145.13,436.98 3145.15,453.94 3139.16,453.96 3139.16,462.44 3118.12,462.44 3118.12,814.34 3139.09,814.34 3139.09,822.81 3145.08,822.81 3145.08,924.56 3139.08,924.56 3139.08,933.04 3100.15,933.04 3100.15,924.56 3094.16,924.56 3094.16,907.79 3100.15,907.79 3100.15,907.61 3094.15,907.61 3094.15,848.43 2953.35,848.43 2953.35,831.47 3100.15,831.47 3100.15,839.95 3106.14,839.95 3106.14,899.13 3106.14,899.13 3106.14,453.96 3112.13,453.96 3112.13,445.48 3112.13,445.48 3112.13,437.00 3106.14,437.00 3106.14,331.02 3112.13,331.02 3112.13,322.54 3112.13,322.54 3112.13,314.06 3106.14,314.06 3106.14,254.71 3106.14,254.71 3106.14,314.06 3100.15,314.06 3100.15,322.54 3100.15,331.02 3100.15,331.02 3106.14,331.02 3106.14,822.99 3100.15,822.99 3100.15,831.46 2914.39,831.46 2914.39,822.82 2908.39,822.82 2908.39,331.02 2914.39,331.02 2914.39,322.54 2914.39,314.06 2908.39,314.06 2908.39,34.14 2896.41,34.14 2896.41,42.62 2902.40,42.62 2902.40,110.56 2896.41,110.56 2896.41,119.04 2806.53,119.04 2806.53,110.56 2800.54,110.56 2800.54,42.62 2806.53,42.62 2806.53,34.15 2800.51,34.15 2800.51,110.63 2794.52,110.63 2794.52,119.03 2655.29,119.03 2655.29,110.56 2649.30,110.56 2649.30,110.36 2649.30,110.56 2643.30,110.56 2643.30,119.04 2572.83,119.04 2572.83,110.56 2566.84,110.56 2566.84,110.56 2560.91,110.56 2560.85,110.66 2560.85,119.04 2503.92,119.04 2503.92,110.56 2497.93,110.56 2497.93,42.71 2503.92,42.71 2503.92,42.71 2503.92,34.23 2485.94,34.23 2485.94,42.70 2485.95,42.71 2491.94,42.71 2491.94,110.56 2486.00,110.56 2485.94,110.66 2485.94,119.04 2429.02,119.04 2429.02,110.64 2428.97,110.56 2423.03,110.56 2417.04,110.56 2417.04,119.04 2329.92,119.04 2329.92,110.56 2323.92,110.56 2323.92,110.36 2323.92,110.56 2317.93,110.56 2317.93,119.04 2192.33,119.04 2192.33,110.56 2186.34,110.56 2186.34,110.56 2180.35,110.56 2180.35,119.04 2090.46,119.04 2090.46,110.56 2084.47,110.56 2084.47,42.71 2090.46,42.71 2090.46,34.23 2172.17,34.23 1976.61,34.23 1976.61,42.71 1982.60,42.71 1982.60,34.23 2072.49,34.23 2072.49,42.71 2078.48,42.71 2078.48,110.56 2072.49,110.56 2072.49,119.04 1982.60,119.04 1982.60,110.56 1976.61,110.56 1970.62,110.56 1970.62,119.03 1828.37,119.03 1828.37,110.56 1822.37,110.56 1822.37,110.35 1822.37,110.56 1816.38,110.56 1816.38,119.04 1745.91,119.04 1745.91,110.56 1739.92,110.56 1733.99,110.56 1733.93,110.66 1733.93,119.04 1679.99,119.04 1679.99,110.64 1679.94,110.56 1674.00,110.56 1674.00,42.62 1679.99,42.62 1679.99,34.14 1668.01,34.14 1668.01,110.56 1662.02,110.56 1662.02,119.04 1333.95,119.04 1333.95,110.56 1327.95,110.56 1327.95,34.23 1315.97,34.23 1315.97,42.71 1321.96,42.71 1321.96,110.56 1315.97,110.56 1315.97,119.04 1226.08,119.04 1226.08,110.56 1220.09,110.56 1214.10,110.56 1214.10,119.04 1078.14,119.04 1078.14,110.56 1072.15,110.56 1072.15,110.33 1072.15,110.56 1066.16,110.56 1066.16,119.04 986.40,119.04 986.40,110.56 980.40,110.56 974.47,110.56 974.41,110.66 974.41,119.04 914.49,119.04 914.49,110.64 914.45,110.56 908.50,110.56 908.50,42.71 914.49,42.71 914.49,34.23 971.59,34.23 800.64,34.23 800.64,42.71 806.63,42.71 806.63,34.23 896.52,34.23 896.52,42.71 902.51,42.71 902.51,110.56 896.52,110.56 896.52,119.04 806.63,119.04 806.63,110.56 800.64,110.56 794.65,110.56 794.65,119.03 658.63,119.03 658.63,110.55 652.64,110.55 652.64,110.33 652.64,110.56 646.65,110.56 646.65,119.03 566.95,119.04 566.95,110.56 560.95,110.56 560.95,110.56 555.05,110.56 554.96,110.71 554.96,119.04 498.04,119.04 498.04,110.88 497.85,110.56 492.04,110.56 492.04,42.71 497.79,42.71 498.04,42.30 498.04,34.23 480.06,34.23 480.06,42.71 486.05,42.71 486.05,110.56 480.15,110.56 480.06,110.71 480.06,119.04 423.13,119.04 423.13,110.56 417.14,110.56 411.15,110.56 411.15,119.04 340.68,119.04 340.68,110.67 334.69,110.67 334.69,110.34 334.69,110.67 328.70,110.67 328.70,119.04 189.44,119.04 189.44,110.56 183.51,110.57 183.51,110.47 183.51,110.55 177.46,110.56 177.46,119.04 87.57,119.04 87.57,110.56 81.58,110.56 81.58,42.71 87.57,42.71 87.57,34.23 171.48,34.23 171.48,51.19 93.56,51.19 93.56,102.08 171.52,102.08 171.48,42.71 183.46,42.70 183.46,34.23 36.64,34.17 36.64,42.70 42.63,42.71 42.63,34.23 69.59,34.23 69.59,42.70 69.60,42.71 75.59,42.70 75.60,110.53 69.61,110.54 69.61,119.01 69.52,119.01 69.53,119.01 69.52,135.97 30.56,135.91 30.57,127.49 24.65,127.49 24.65,25.76 30.62,25.76 30.62,17.21 189.45,17.27 189.44,25.75 195.44,25.74 195.49,102.08 322.70,102.08 322.70,25.57" fill="#FF9800" fill-opacity="0.12" stroke="#FFB74D" stroke-width="0.6"/>
<polygon points="1662.02,653.23 1333.94,653.23 1333.94,644.75 1327.95,644.75 1327.95,136.00 1333.94,136.00 1333.94,127.52 1662.02,127.52 1662.02,136.00 1668.01,136.00 1668.01,644.75 1662.02,644.75 1662.02,653.23" fill="#FF9800" fill-opacity="0.12" stroke="#FFB74D" stroke-width="0.6"/>
<polygon points="1805.84,398.85 2072.48,398.85 1805.84,398.85 1805.84,390.37 1799.84,390.37 1799.84,390.37 1793.85,390.37 1793.85,398.85 1679.99,398.85 1679.99,390.37 1674.00,390.37 1674.00,136.00 1679.99,136.00 1679.99,127.52 1793.85,127.52 1793.85,136.00 1799.84,136.00 1805.84,136.00 1805.84,127.52 2072.48,127.52 2072.48,136.00 2078.48,136.00 2078.48,390.37 2072.48,390.37 2072.48,398.85 2072.48,398.85 2072.48,407.33 2078.48,407.33 2078.48,644.75 2072.48,644.75 2072.48,653.23 1805.84,653.23 1805.84,644.75 1799.84,644.75 1799.84,644.75 1793.85,644.75 1793.85,653.23 1679.99,653.23 1679.99,644.75 1674.00,644.75 1674.00,407.33 1679.99,407.33 1679.99,398.85 1793.85,398.85 1793.85,407.24 1799.84,407.24 1799.84,407.24 1805.84,407.24 1805.84,398.85" fill="#FF9800" fill-opacity="0.12" stroke="#FFB74D" stroke-width="0.6"/>
<polygon points="2090.46,136.00 2090.46,127.52 2357.11,127.52 2357.11,136.00 2363.11,136.00 2369.10,136.00 2369.10,127.52 2485.95,127.52 2485.95,136.00 2491.94,136.00 2491.94,390.37 2485.95,390.37 2485.95,398.85 2369.10,398.85 2369.10,390.37 2363.11,390.37 2357.11,390.37 2357.11,398.85 2090.46,398.85 2357.11,398.85 2357.11,407.33 2363.11,407.33 2369.10,407.33 2369.10,398.85 2485.95,398.85 2485.95,407.33 2491.94,407.33 2491.94,644.75 2485.95,644.75 2485.95,653.23 2369.10,653.23 2369.10,644.75 2363.11,644.75 2357.11,644.75 2357.11,653.23 2090.46,653.23 2090.46,644.75 2084.47,644.75 2084.47,407.33 2090.46,407.33 2090.46,398.85 2090.46,398.85 2090.46,390.37 2084.47,390.37 2084.47,136.00 2090.46,136.00" fill="#FF9800" fill-opacity="0.12" stroke="#FFB74D" stroke-width="0.6"/>
<polygon points="2620.77,407.24 2626.77,407.24 2626.77,407.24 2632.76,407.24 2632.76,398.85 2896.41,398.85 2632.76,398.85 2632.76,390.37 2626.77,390.37 2626.77,390.37 2620.77,390.37 2620.77,398.85 2503.92,398.85 2503.92,390.37 2497.93,390.37 2497.93,136.00 2503.92,136.00 2503.92,127.52 2620.77,127.52 2620.77,136.00 2626.77,136.00 2632.76,136.00 2632.76,127.52 2896.41,127.52 2896.41,136.00 2902.40,136.00 2902.40,390.37 2896.41,390.37 2896.41,398.85 2896.41,398.85 2896.41,407.33 2902.40,407.33 2902.40,644.75 2896.41,644.75 2896.41,653.23 2632.76,653.23 2632.76,644.75 2626.77,644.75 2626.77,644.75 2620.77,644.75 2620.77,653.23 2503.92,653.23 2503.92,644.75 2497.93,644.75 2497.93,407.33 2503.92,407.33 2503.92,398.85 2620.77,398.85 2620.77,407.24" fill="#FF9800" fill-opacity="0.12" stroke="#FFB74D" stroke-width="0.6"/>
<polygon class="slab-poly" data-slab-id="SLAB-001" points="158.09,1471.84 158.12,1471.47 160.14,1471.47 160.44,1471.45 160.73,1471.38 161.01,1471.28 161.29,1471.14 161.55,1470.97 161.81,1470.75 162.04,1470.50 162.26,1470.22 162.46,1469.92 162.63,1469.58 162.78,1469.22 162.91,1468.85 163.01,1468.46 163.08,1468.05 163.12,1467.64 163.14,1467.23 163.14,1386.68 329.83,1386.68 330.33,1397.20 331.79,1409.51 333.11,1416.44 331.74,1423.68 330.31,1436.00 329.74,1448.46 330.03,1460.93 331.05,1471.84 158.09,1471.84" fill="#AD1457" fill-opacity="0.5" stroke="#F48FB1" stroke-width="0.8" stroke-dasharray="6 3"/>
<polygon class="slab-poly" data-slab-id="SLAB-002" points="359.32,1081.01 359.32,1288.29 354.91,1294.15 349.11,1303.55 343.98,1313.71 339.58,1324.53 335.96,1335.91 333.14,1347.73 332.31,1352.76 156.83,1352.76 156.07,1348.07 153.27,1336.23 149.67,1324.84 145.29,1314.00 140.18,1303.82 134.40,1294.40 127.99,1285.83 121.01,1278.19 113.54,1271.55 105.65,1265.98 97.41,1261.53 90.57,1258.89 90.57,1081.01 359.32,1081.01" fill="#2E7D32" fill-opacity="0.55" stroke="#A5D6A7" stroke-width="0.8"/>
<text x="229.8" y="1208.8" fill="#fff" font-size="9" text-anchor="middle" dominant-baseline="middle" font-family="Segoe UI, sans-serif" paint-order="stroke" stroke="#000" stroke-width="2" pointer-events="none">S1</text>
<polygon class="slab-poly" data-slab-id="SLAB-003" points="157.11,895.64 154.71,883.63 154.32,882.23 154.76,880.62 157.17,868.61 158.73,856.33 158.94,852.67 348.23,852.67 348.23,1047.52 91.40,1047.52 98.24,1044.78 106.45,1040.21 114.30,1034.54 121.72,1027.80 128.65,1020.06 135.00,1011.40 140.72,1001.90 145.75,991.65 150.06,980.75 153.58,969.31 156.30,957.44 158.18,945.24 159.21,932.84 159.37,920.36 158.67,907.92 157.11,895.64" fill="#AD1457" fill-opacity="0.5" stroke="#F48FB1" stroke-width="0.8" stroke-dasharray="6 3"/>
<polygon class="slab-poly" data-slab-id="SLAB-004" points="359.32,818.75 158.22,818.75 156.38,806.82 153.66,794.94 150.14,783.50 145.84,772.60 140.81,762.35 135.09,752.84 128.74,744.18 121.82,736.44 114.40,729.69 106.55,724.01 98.34,719.44 90.57,716.32 90.57,674.43 359.32,674.43 359.32,818.75" fill="#F9A825" fill-opacity="0.55" stroke="#FFE082" stroke-width="0.8"/>
<polygon class="slab-poly" data-slab-id="SLAB-005" points="90.57,640.51 90.57,411.57 348.23,411.57 348.23,640.51 90.57,640.51" fill="#F9A825" fill-opacity="0.55" stroke="#FFE082" stroke-width="0.8"/>
<polygon class="slab-poly" data-slab-id="SLAB-006" points="140.16,189.20 145.27,179.02 149.65,168.19 153.26,156.80 156.06,144.96 156.82,140.24 335.83,140.24 337.46,148.99 340.53,160.69 344.40,171.91 348.23,180.70 348.23,386.13 90.57,386.13 90.57,234.09 97.37,231.47 105.62,227.02 113.51,221.46 120.98,214.82 127.96,207.18 134.37,198.61 140.16,189.20" fill="#F9A825" fill-opacity="0.55" stroke="#FFE082" stroke-width="0.8"/>
<polygon class="slab-poly" data-slab-id="SLAB-007" points="352.73,1081.01 477.06,1081.01 477.06,1255.48 472.65,1255.68 463.91,1257.32 455.32,1260.17 449.84,1262.80 444.14,1260.08 435.54,1257.27 426.80,1255.66 417.98,1255.27 409.18,1256.11 400.48,1258.17 391.96,1261.42 383.71,1265.84 375.81,1271.38 368.33,1277.99 361.34,1285.60 354.91,1294.15 352.73,1297.69 352.73,1081.01" fill="#F9A825" fill-opacity="0.55" stroke="#FFE082" stroke-width="0.8"/>
<polygon class="slab-poly" data-slab-id="SLAB-008" points="611.89,852.67 611.89,1081.43 501.03,1081.43 501.03,852.67 611.89,852.67" fill="#F9A825" fill-opacity="0.55" stroke="#FFE082" stroke-width="0.8"/>
<polygon class="slab-poly" data-slab-id="SLAB-009" points="352.73,674.43 477.06,674.43 477.06,818.75 352.73,818.75 352.73,674.43" fill="#2E7D32" fill-opacity="0.55" stroke="#A5D6A7" stroke-width="0.8"/>
<polygon class="slab-poly" data-slab-id="SLAB-010" points="611.89,411.57 611.89,640.51 501.03,640.51 501.03,411.57 611.89,411.57" fill="#F9A825" fill-opacity="0.55" stroke="#FFE082" stroke-width="0.8"/>
<polygon class="slab-poly" data-slab-id="SLAB-011" points="441.77,234.99 450.30,231.80 451.46,231.19 452.79,231.89 461.31,235.09 470.02,237.09 477.06,237.72 477.06,386.13 366.21,386.13 366.21,208.90 366.99,209.87 374.14,217.18 381.76,223.47 389.78,228.66 398.12,232.72 406.70,235.60 415.44,237.28 424.26,237.74 433.06,236.97 441.77,234.99" fill="#AD1457" fill-opacity="0.5" stroke="#F48FB1" stroke-width="0.8" stroke-dasharray="6 3"/>
<polygon class="slab-poly" data-slab-id="SLAB-012" points="643.44,1471.84 643.49,1471.46 650.03,1471.46 650.33,1471.44 650.62,1471.38 650.90,1471.28 651.18,1471.14 651.45,1470.96 651.70,1470.75 651.94,1470.50 652.15,1470.22 652.35,1469.91 652.53,1469.58 652.68,1469.22 652.80,1468.84 652.90,1468.45 652.97,1468.05 653.02,1467.64 653.03,1467.22 653.03,1386.68 730.23,1386.68 730.23,1467.22 730.25,1467.64 730.29,1468.05 730.36,1468.45 730.46,1468.84 730.59,1469.22 730.74,1469.58 730.91,1469.91 731.11,1470.22 731.33,1470.50 731.56,1470.75 731.82,1470.96 732.08,1471.14 732.36,1471.28 732.64,1471.38 732.94,1471.44 733.23,1471.46 825.93,1471.46 825.97,1471.84 643.44,1471.84" fill="#F9A825" fill-opacity="0.55" stroke="#FFE082" stroke-width="0.8"/>
<polygon class="slab-poly" data-slab-id="SLAB-013" points="795.00,1352.76 642.28,1352.76 640.66,1344.05 637.59,1332.34 633.72,1321.13 629.87,1312.29 629.87,1106.87 733.91,1106.87 733.78,1110.58 733.78,1110.63 733.78,1110.68 735.08,1148.08 738.96,1185.12 745.39,1221.44 754.31,1256.70 765.62,1290.55 779.22,1322.67 794.99,1352.74 795.00,1352.76" fill="#2E7D32" fill-opacity="0.55" stroke="#A5D6A7" stroke-width="0.8"/>
<polygon class="slab-poly" data-slab-id="SLAB-014" points="805.14,852.67 794.99,868.52 779.22,898.60 765.62,930.71 754.31,964.56 745.39,999.82 738.96,1036.14 735.08,1073.18 734.79,1081.43 629.87,1081.43 629.87,852.67 805.14,852.67" fill="#2E7D32" fill-opacity="0.55" stroke="#A5D6A7" stroke-width="0.8"/>
<polygon class="slab-poly" data-slab-id="SLAB-015" points="617.58,674.43 827.14,674.43 829.29,685.22 832.50,696.85 836.50,707.97 841.26,718.48 846.72,728.28 852.83,737.28 859.54,745.39 862.86,748.67 861.62,749.82 854.75,757.65 848.46,766.40 842.80,775.97 837.83,786.29 833.60,797.24 830.15,808.73 827.93,818.75 617.58,818.75 617.58,674.43" fill="#F9A825" fill-opacity="0.55" stroke="#FFE082" stroke-width="0.8"/>
<polygon class="slab-poly" data-slab-id="SLAB-016" points="825.86,572.62 827.75,584.81 830.48,596.68 830.92,598.11 830.48,599.54 827.75,611.41 825.86,623.60 824.83,636.00 824.76,640.51 629.87,640.51 629.87,411.57 893.52,411.57 893.52,427.93 890.94,428.73 882.55,432.59 874.47,437.59 866.77,443.69 859.54,450.83 852.83,458.94 846.72,467.94 841.26,477.74 836.50,488.25 832.50,499.38 829.29,511.00 826.89,523.01 825.34,535.30 824.65,547.74 824.83,560.22 825.86,572.62" fill="#F9A825" fill-opacity="0.55" stroke="#FFE082" stroke-width="0.8"/>
<polygon class="slab-poly" data-slab-id="SLAB-017" points="629.87,386.13 629.87,180.85 633.69,172.08 637.56,160.87 640.64,149.17 642.31,140.24 827.19,140.24 828.18,146.14 831.06,157.94 834.74,169.29 839.18,180.07 844.35,190.18 850.20,199.53 856.67,208.02 863.69,215.57 871.20,222.11 879.13,227.58 887.40,231.92 893.52,234.20 893.52,386.13 629.87,386.13" fill="#F9A825" fill-opacity="0.55" stroke="#FFE082" stroke-width="0.8"/>
<polygon class="slab-poly" data-slab-id="SLAB-018" points="1187.44,726.30 1181.74,725.58 1172.92,725.70 1164.15,727.03 1155.52,729.58 1147.10,733.31 1138.98,738.20 1131.24,744.18 1127.31,747.97 1127.27,747.93 1119.77,741.36 1111.85,735.86 1103.59,731.49 1095.06,728.29 1086.36,726.28 1077.56,725.49 1068.74,725.93 1060.00,727.59 1051.41,730.45 1046.32,732.91 1041.24,730.45 1033.45,727.85 1038.67,718.48 1043.42,707.97 1047.43,696.85 1050.64,685.22 1052.79,674.43 1187.44,674.43 1187.44,726.30" fill="#AD1457" fill-opacity="0.5" stroke="#F48FB1" stroke-width="0.8" stroke-dasharray="6 3"/>
<polygon class="slab-poly" data-slab-id="SLAB-019" points="1187.44,640.51 1055.16,640.51 1055.10,636.00 1054.06,623.60 1052.17,611.41 1049.44,599.54 1049.32,599.14 1049.32,597.09 1049.44,596.68 1052.17,584.81 1054.06,572.62 1055.10,560.22 1055.27,547.74 1054.58,535.30 1053.03,523.01 1050.64,511.00 1049.32,506.22 1049.32,411.57 1187.44,411.57 1187.44,640.51" fill="#F9A825" fill-opacity="0.55" stroke="#FFE082" stroke-width="0.8"/>
<polygon class="slab-poly" data-slab-id="SLAB-020" points="1187.44,386.13 1049.32,386.13 1049.32,180.88 1049.73,180.07 1054.18,169.29 1057.86,157.94 1060.73,146.14 1061.72,140.24 1172.53,140.24 1180.32,171.06 1187.44,192.35 1187.44,386.13" fill="#F9A825" fill-opacity="0.55" stroke="#FFE082" stroke-width="0.8"/>
<polygon class="slab-poly" data-slab-id="SLAB-021" points="1180.85,674.43 1312.97,674.43 1312.97,794.08 1288.77,785.51 1262.59,780.01 1251.43,779.23 1249.86,775.97 1244.20,766.40 1237.90,757.65 1231.03,749.82 1223.65,742.98 1215.84,737.20 1207.66,732.53 1199.19,729.02 1190.53,726.69 1181.74,725.58 1180.85,725.59 1180.85,674.43" fill="#AD1457" fill-opacity="0.5" stroke="#F48FB1" stroke-width="0.8" stroke-dasharray="6 3"/>
<polygon class="slab-poly" data-slab-id="SLAB-022" points="1180.85,411.57 1312.97,411.57 1312.97,640.51 1180.85,640.51 1180.85,411.57" fill="#2E7D32" fill-opacity="0.55" stroke="#A5D6A7" stroke-width="0.8"/>
<polygon class="slab-poly" data-slab-id="SLAB-023" points="1180.85,327.20 1180.85,172.63 1191.63,204.91 1205.24,237.02 1221.00,267.10 1238.77,294.85 1258.38,319.99 1265.25,327.20 1180.85,327.20" fill="#2E7D32" fill-opacity="0.55" stroke="#A5D6A7" stroke-width="0.8"/>
<polygon class="slab-poly" data-slab-id="SLAB-024" points="1390.97,1471.84 1407.22,1454.79 1426.83,1429.64 1444.60,1401.90 1460.37,1371.82 1473.97,1339.70 1485.28,1305.85 1486.16,1302.38 1582.98,1302.38 1582.98,1382.95 1582.99,1383.36 1583.04,1383.77 1583.11,1384.18 1583.21,1384.57 1583.33,1384.95 1583.48,1385.30 1583.66,1385.64 1583.86,1385.94 1584.07,1386.22 1584.31,1386.47 1584.56,1386.69 1584.83,1386.86 1585.11,1387.00 1585.39,1387.11 1585.68,1387.17 1585.98,1387.19 1590.26,1387.19 1590.27,1389.74 1591.22,1402.15 1593.02,1414.37 1593.44,1416.30 1593.05,1418.09 1591.24,1430.31 1590.28,1442.72 1590.19,1455.20 1590.96,1467.63 1591.52,1471.84 1390.97,1471.84" fill="#F9A825" fill-opacity="0.55" stroke="#FFE082" stroke-width="0.8"/>
<polygon class="slab-poly" data-slab-id="SLAB-025" points="1659.02,1081.01 1659.02,1258.77 1657.38,1259.26 1648.96,1262.99 1640.84,1267.87 1640.08,1268.46 1494.58,1268.46 1500.63,1234.28 1504.51,1197.24 1505.81,1159.84 1505.81,1159.79 1505.81,1159.74 1504.51,1122.34 1500.63,1085.30 1499.87,1081.01 1659.02,1081.01" fill="#F9A825" fill-opacity="0.55" stroke="#FFE082" stroke-width="0.8"/>
<polygon class="slab-poly" data-slab-id="SLAB-026" points="1501.16,1090.34 1500.63,1085.30 1494.20,1048.98 1485.28,1013.72 1473.97,979.87 1460.37,947.75 1444.60,917.68 1426.83,889.93 1407.22,864.79 1395.68,852.67 1659.02,852.67 1659.02,1090.34 1501.16,1090.34" fill="#F9A825" fill-opacity="0.55" stroke="#FFE082" stroke-width="0.8"/>
<polygon class="slab-poly" data-slab-id="SLAB-027" points="1356.59,818.75 1339.35,807.22 1336.94,806.00 1336.94,674.43 1659.02,674.43 1659.02,818.75 1356.59,818.75" fill="#F9A825" fill-opacity="0.55" stroke="#FFE082" stroke-width="0.8"/>
<polygon class="slab-poly" data-slab-id="SLAB-028" points="1659.02,394.19 1659.02,640.51 1336.94,640.51 1336.94,394.19 1362.50,394.19 1376.84,399.27 1403.01,404.77 1429.44,406.60 1455.87,404.77 1482.05,399.27 1496.39,394.19 1659.02,394.19" fill="#F9A825" fill-opacity="0.55" stroke="#FFE082" stroke-width="0.8"/>
<text x="1498.9" y="519.0" fill="#fff" font-size="9" text-anchor="middle" dominant-baseline="middle" font-family="Segoe UI, sans-serif" paint-order="stroke" stroke="#000" stroke-width="2" pointer-events="none">S41</text>
<polygon class="slab-poly" data-slab-id="SLAB-029" points="1659.02,317.88 1659.02,403.52 1461.83,403.52 1482.05,399.27 1507.72,390.17 1532.63,377.56 1556.55,361.55 1579.25,342.30 1600.51,319.99 1602.16,317.88 1659.02,317.88" fill="#2E7D32" fill-opacity="0.55" stroke="#A5D6A7" stroke-width="0.8"/>
<polygon class="slab-poly" data-slab-id="SLAB-030" points="1593.63,327.20 1600.51,319.99 1620.11,294.85 1637.88,267.10 1653.65,237.02 1655.41,232.87 1657.38,233.75 1659.02,234.23 1659.02,327.20 1593.63,327.20" fill="#AD1457" fill-opacity="0.5" stroke="#F48FB1" stroke-width="0.8" stroke-dasharray="6 3"/>
<polygon class="slab-poly" data-slab-id="SLAB-031" points="1739.27,1255.56 1730.45,1255.44 1721.66,1256.53 1712.99,1258.84 1707.18,1261.24 1701.06,1258.70 1692.39,1256.38 1683.61,1255.26 1682.99,1255.27 1682.99,1106.87 1790.85,1106.87 1790.85,1284.28 1788.22,1281.16 1780.93,1274.12 1773.20,1268.12 1765.08,1263.22 1756.67,1259.48 1748.04,1256.92 1739.27,1255.56" fill="#AD1457" fill-opacity="0.5" stroke="#F48FB1" stroke-width="0.8" stroke-dasharray="6 3"/>
<polygon class="slab-poly" data-slab-id="SLAB-032" points="1790.85,852.67 1790.85,1081.43 1682.99,1081.43 1682.99,852.67 1790.85,852.67" fill="#F9A825" fill-opacity="0.55" stroke="#FFE082" stroke-width="0.8"/>
<polygon class="slab-poly" data-slab-id="SLAB-033" points="1790.86,411.57 1790.86,640.51 1682.99,640.51 1682.99,411.57 1790.86,411.57" fill="#F9A825" fill-opacity="0.55" stroke="#FFE082" stroke-width="0.8"/>
<polygon class="slab-poly" data-slab-id="SLAB-034" points="1682.99,327.20 1682.99,237.73 1683.61,237.74 1692.39,236.62 1701.06,234.30 1706.97,231.84 1712.87,234.30 1721.54,236.62 1730.32,237.74 1739.14,237.62 1747.91,236.29 1756.55,233.75 1764.97,230.02 1773.08,225.14 1780.83,219.15 1788.12,212.13 1790.86,208.89 1790.86,327.20 1682.99,327.20" fill="#2E7D32" fill-opacity="0.55" stroke="#A5D6A7" stroke-width="0.8"/>
<polygon class="slab-poly" data-slab-id="SLAB-035" points="2084.77,1471.84 1822.41,1471.84 1822.46,1471.47 1828.00,1471.47 1828.29,1471.45 1828.59,1471.39 1828.87,1471.28 1829.15,1471.14 1829.41,1470.97 1829.67,1470.75 1829.90,1470.50 1830.12,1470.23 1830.32,1469.92 1830.49,1469.58 1830.64,1469.23 1830.77,1468.85 1830.87,1468.46 1830.94,1468.05 1830.98,1467.64 1831.00,1467.23 1831.00,1386.68 1967.63,1386.68 1967.63,1467.18 1967.64,1467.60 1967.68,1468.01 1967.76,1468.41 1967.86,1468.80 1967.98,1469.18 1968.13,1469.54 1968.31,1469.87 1968.50,1470.18 1968.72,1470.46 1968.96,1470.71 1969.21,1470.92 1969.48,1471.10 1969.75,1471.24 1970.04,1471.34 1970.33,1471.40 1970.62,1471.42 2084.77,1471.42 2084.77,1471.84" fill="#F9A825" fill-opacity="0.55" stroke="#FFE082" stroke-width="0.8"/>
<polygon class="slab-poly" data-slab-id="SLAB-036" points="1821.31,1352.76 1818.87,1340.92 1815.58,1329.34 1811.50,1318.27 1808.83,1312.49 1808.83,1106.87 2069.49,1106.87 2069.49,1352.76 1821.31,1352.76" fill="#F9A825" fill-opacity="0.55" stroke="#FFE082" stroke-width="0.8"/>
<text x="1939.7" y="1229.3" fill="#fff" font-size="9" text-anchor="middle" dominant-baseline="middle" font-family="Segoe UI, sans-serif" paint-order="stroke" stroke="#000" stroke-width="2" pointer-events="none">S4</text>
<polygon class="slab-poly" data-slab-id="SLAB-037" points="1808.83,1081.43 1808.83,852.67 2069.49,852.67 2069.49,1081.43 1808.83,1081.43" fill="#F9A825" fill-opacity="0.55" stroke="#FFE082" stroke-width="0.8"/>
<polygon class="slab-poly" data-slab-id="SLAB-038" points="1796.55,674.43 2069.49,674.43 2069.49,818.75 1796.55,818.75 1796.55,674.43" fill="#AD1457" fill-opacity="0.5" stroke="#F48FB1" stroke-width="0.8" stroke-dasharray="6 3"/>
<polygon class="slab-poly" data-slab-id="SLAB-039" points="1808.83,640.51 1808.83,411.57 2069.49,411.57 2069.49,640.51 1808.83,640.51" fill="#F9A825" fill-opacity="0.55" stroke="#FFE082" stroke-width="0.8"/>
<polygon class="slab-poly" data-slab-id="SLAB-040" points="1808.83,180.68 1811.44,175.06 1815.52,164.00 1818.83,152.43 1821.31,140.45 1821.34,140.24 2069.49,140.24 2069.49,386.13 1808.83,386.13 1808.83,180.68" fill="#2E7D32" fill-opacity="0.55" stroke="#A5D6A7" stroke-width="0.8"/>
<text x="1939.7" y="263.7" fill="#fff" font-size="9" text-anchor="middle" dominant-baseline="middle" font-family="Segoe UI, sans-serif" paint-order="stroke" stroke="#000" stroke-width="2" pointer-events="none">S7</text>
<polygon class="slab-poly" data-slab-id="SLAB-041" points="2078.18,1471.84 2078.18,1471.42 2192.33,1471.42 2192.62,1471.40 2192.92,1471.34 2193.20,1471.24 2193.48,1471.10 2193.74,1470.92 2194.00,1470.71 2194.23,1470.46 2194.45,1470.18 2194.65,1469.87 2194.82,1469.54 2194.97,1469.18 2195.10,1468.80 2195.20,1468.41 2195.27,1468.01 2195.31,1467.60 2195.33,1467.18 2195.33,1386.72 2331.71,1386.70 2331.71,1467.14 2331.72,1467.35 2331.72,1467.56 2331.72,1467.56 2331.72,1467.56 2331.75,1467.76 2331.77,1467.97 2331.77,1467.97 2331.77,1467.97 2331.80,1468.17 2331.84,1468.37 2331.84,1468.37 2331.84,1468.37 2331.89,1468.57 2331.94,1468.76 2331.94,1468.76 2331.94,1468.76 2332.00,1468.95 2332.06,1469.14 2332.06,1469.14 2332.06,1469.14 2332.14,1469.32 2332.22,1469.49 2332.22,1469.49 2332.22,1469.49 2332.30,1469.66 2332.39,1469.83 2332.39,1469.83 2332.39,1469.83 2332.49,1469.98 2332.59,1470.14 2332.59,1470.14 2332.59,1470.14 2332.70,1470.28 2332.81,1470.42 2332.81,1470.42 2332.81,1470.42 2332.92,1470.54 2333.04,1470.66 2333.04,1470.66 2333.04,1470.66 2333.17,1470.77 2333.29,1470.88 2333.29,1470.88 2333.29,1470.88 2333.43,1470.97 2333.56,1471.06 2333.56,1471.06 2333.56,1471.06 2333.70,1471.13 2333.84,1471.20 2333.84,1471.20 2333.84,1471.20 2333.98,1471.25 2334.12,1471.30 2334.12,1471.30 2334.12,1471.30 2334.27,1471.33 2334.41,1471.36 2334.41,1471.36 2334.41,1471.36 2334.56,1471.37 2334.71,1471.38 2340.49,1471.38 2340.54,1471.84 2078.18,1471.84" fill="#AD1457" fill-opacity="0.5" stroke="#F48FB1" stroke-width="0.8" stroke-dasharray="6 3"/>
<polygon class="slab-poly" data-slab-id="SLAB-042" points="2354.12,1312.31 2350.30,1321.07 2346.43,1332.29 2343.35,1343.98 2341.71,1352.76 2093.46,1352.76 2093.46,1106.87 2354.12,1106.87 2354.12,1312.31" fill="#F9A825" fill-opacity="0.55" stroke="#FFE082" stroke-width="0.8"/>
<text x="2223.2" y="1229.3" fill="#fff" font-size="9" text-anchor="middle" dominant-baseline="middle" font-family="Segoe UI, sans-serif" paint-order="stroke" stroke="#000" stroke-width="2" pointer-events="none">S6</text>
<polygon class="slab-poly" data-slab-id="SLAB-043" points="2093.46,1081.43 2093.46,852.67 2354.12,852.67 2354.12,1081.43 2093.46,1081.43" fill="#2E7D32" fill-opacity="0.55" stroke="#A5D6A7" stroke-width="0.8"/>
<polygon class="slab-poly" data-slab-id="SLAB-044" points="2366.40,818.75 2093.46,818.75 2093.46,674.43 2366.40,674.43 2366.40,818.75" fill="#AD1457" fill-opacity="0.5" stroke="#F48FB1" stroke-width="0.8" stroke-dasharray="6 3"/>
<polygon class="slab-poly" data-slab-id="SLAB-045" points="2093.46,411.57 2354.12,411.57 2354.12,640.51 2093.46,640.51 2093.46,411.57" fill="#F9A825" fill-opacity="0.55" stroke="#FFE082" stroke-width="0.8"/>
<polygon class="slab-poly" data-slab-id="SLAB-046" points="2341.69,140.24 2343.37,149.20 2346.45,160.90 2350.33,172.11 2354.12,180.78 2354.12,386.13 2093.46,386.13 2093.46,140.24 2341.69,140.24" fill="#2E7D32" fill-opacity="0.55" stroke="#A5D6A7" stroke-width="0.8"/>
<text x="2223.2" y="263.7" fill="#fff" font-size="9" text-anchor="middle" dominant-baseline="middle" font-family="Segoe UI, sans-serif" paint-order="stroke" stroke="#000" stroke-width="2" pointer-events="none">S10</text>
<polygon class="slab-poly" data-slab-id="SLAB-047" points="2630.06,1081.01 2630.06,1295.43 2629.22,1294.08 2622.79,1285.54 2615.80,1277.93 2608.31,1271.33 2600.41,1265.79 2592.15,1261.39 2583.64,1258.14 2574.93,1256.10 2566.13,1255.27 2557.32,1255.67 2548.57,1257.28 2539.98,1260.11 2534.28,1262.84 2528.52,1260.08 2519.93,1257.27 2511.18,1255.66 2506.92,1255.47 2506.92,1081.01 2630.06,1081.01" fill="#AD1457" fill-opacity="0.5" stroke="#F48FB1" stroke-width="0.8" stroke-dasharray="6 3"/>
<polygon class="slab-poly" data-slab-id="SLAB-048" points="2479.57,1030.03 2482.95,1031.13 2482.95,1081.43 2372.09,1081.43 2372.09,852.67 2414.22,852.67 2414.34,858.37 2415.46,870.75 2416.64,878.02 2415.46,885.29 2414.34,897.67 2414.08,910.14 2414.69,922.59 2416.16,934.90 2418.47,946.95 2421.61,958.61 2425.54,969.79 2430.22,980.36 2435.61,990.24 2441.67,999.32 2448.32,1007.52 2455.51,1014.75 2463.16,1020.95 2471.21,1026.06 2479.57,1030.03" fill="#AD1457" fill-opacity="0.5" stroke="#F48FB1" stroke-width="0.8" stroke-dasharray="6 3"/>
<polygon class="slab-poly" data-slab-id="SLAB-049" points="2359.81,674.43 2482.95,674.43 2482.95,724.91 2479.57,726.01 2471.21,729.98 2463.16,735.09 2455.51,741.29 2448.32,748.52 2441.67,756.72 2435.61,765.80 2430.22,775.68 2425.54,786.25 2421.61,797.43 2418.47,809.09 2416.61,818.75 2359.81,818.75 2359.81,674.43" fill="#AD1457" fill-opacity="0.5" stroke="#F48FB1" stroke-width="0.8" stroke-dasharray="6 3"/>
<polygon class="slab-poly" data-slab-id="SLAB-050" points="2617.78,640.51 2506.92,640.51 2506.92,411.57 2617.78,411.57 2617.78,640.51" fill="#F9A825" fill-opacity="0.55" stroke="#FFE082" stroke-width="0.8"/>
<polygon class="slab-poly" data-slab-id="SLAB-051" points="2617.78,386.13 2506.92,386.13 2506.92,237.59 2513.99,236.96 2522.70,234.96 2531.23,231.77 2532.47,231.12 2533.78,231.81 2542.31,234.99 2551.02,236.97 2559.83,237.73 2568.64,237.27 2577.38,235.59 2585.96,232.70 2594.30,228.64 2602.32,223.44 2609.94,217.15 2617.09,209.84 2617.78,208.98 2617.78,386.13" fill="#AD1457" fill-opacity="0.5" stroke="#F48FB1" stroke-width="0.8" stroke-dasharray="6 3"/>
<polygon class="slab-poly" data-slab-id="SLAB-052" points="2653.12,1471.84 2654.17,1460.46 2654.44,1447.98 2653.85,1435.53 2652.40,1423.22 2651.09,1416.36 2652.41,1409.41 2653.86,1397.10 2654.35,1386.68 2821.04,1386.68 2821.04,1467.26 2821.04,1467.47 2821.05,1467.68 2821.05,1467.68 2821.05,1467.68 2821.07,1467.88 2821.09,1468.09 2821.09,1468.09 2821.09,1468.09 2821.13,1468.29 2821.16,1468.49 2821.16,1468.49 2821.16,1468.49 2821.21,1468.69 2821.26,1468.89 2821.26,1468.89 2821.26,1468.89 2821.33,1469.07 2821.39,1469.26 2821.39,1469.26 2821.39,1469.26 2821.46,1469.44 2821.54,1469.62 2821.54,1469.62 2821.54,1469.62 2821.63,1469.79 2821.72,1469.95 2821.72,1469.95 2821.72,1469.95 2821.81,1470.11 2821.91,1470.26 2821.91,1470.26 2821.91,1470.26 2822.02,1470.40 2822.13,1470.54 2822.13,1470.54 2822.13,1470.54 2822.25,1470.66 2822.37,1470.79 2822.37,1470.79 2822.37,1470.79 2822.49,1470.90 2822.62,1471.00 2822.62,1471.00 2822.62,1471.00 2822.75,1471.09 2822.88,1471.18 2822.88,1471.18 2822.88,1471.18 2823.02,1471.25 2823.16,1471.32 2823.16,1471.32 2823.16,1471.32 2823.30,1471.37 2823.45,1471.42 2823.45,1471.42 2823.45,1471.42 2823.59,1471.45 2823.74,1471.48 2823.74,1471.48 2823.74,1471.48 2823.88,1471.49 2824.03,1471.50 2825.88,1471.50 2825.91,1471.84 2653.12,1471.84" fill="#AD1457" fill-opacity="0.5" stroke="#F48FB1" stroke-width="0.8" stroke-dasharray="6 3"/>
<polygon class="slab-poly" data-slab-id="SLAB-053" points="2893.41,1081.01 2893.41,1258.88 2886.57,1261.52 2878.33,1265.96 2870.44,1271.53 2862.97,1278.16 2855.99,1285.80 2849.58,1294.37 2843.79,1303.79 2838.68,1313.97 2834.30,1324.80 2830.69,1336.19 2827.89,1348.03 2827.13,1352.76 2710.65,1352.76 2710.65,1081.01 2893.41,1081.01" fill="#AD1457" fill-opacity="0.5" stroke="#F48FB1" stroke-width="0.8" stroke-dasharray="6 3"/>
<polygon class="slab-poly" data-slab-id="SLAB-054" points="2710.65,1090.34 2710.65,852.67 2772.41,852.67 2773.71,854.69 2793.31,879.83 2814.57,902.14 2824.59,910.64 2825.12,922.15 2826.56,934.47 2828.85,946.52 2831.95,958.20 2835.86,969.40 2840.52,979.99 2845.89,989.90 2851.92,999.00 2858.55,1007.23 2865.72,1014.50 2873.36,1020.74 2881.40,1025.89 2889.75,1029.90 2893.41,1031.11 2893.41,1090.34 2710.65,1090.34" fill="#F9A825" fill-opacity="0.55" stroke="#FFE082" stroke-width="0.8"/>
<polygon class="slab-poly" data-slab-id="SLAB-055" points="2623.47,674.43 2702.58,674.43 2706.34,695.64 2715.25,730.90 2726.57,764.75 2740.17,796.87 2751.64,818.75 2651.24,818.75 2649.39,809.09 2646.25,797.43 2642.32,786.25 2637.64,775.68 2632.24,765.80 2626.19,756.72 2623.47,753.37 2623.47,674.43" fill="#AD1457" fill-opacity="0.5" stroke="#F48FB1" stroke-width="0.8" stroke-dasharray="6 3"/>
<polygon class="slab-poly" data-slab-id="SLAB-056" points="2694.73,584.83 2694.73,584.88 2696.03,622.28 2697.94,640.51 2635.75,640.51 2635.75,411.57 2724.34,411.57 2715.25,438.76 2706.34,474.02 2699.91,510.34 2696.03,547.38 2694.73,584.78 2694.73,584.83" fill="#2E7D32" fill-opacity="0.55" stroke="#A5D6A7" stroke-width="0.8"/>
<polygon class="slab-poly" data-slab-id="SLAB-057" points="2635.75,386.13 2635.75,180.85 2639.67,171.86 2643.53,160.64 2646.61,148.94 2648.23,140.24 2827.27,140.24 2828.08,145.20 2830.89,157.03 2834.51,168.41 2838.90,179.24 2844.02,189.40 2849.82,198.81 2856.25,207.36 2863.23,214.99 2869.76,220.77 2864.46,225.26 2857.37,232.70 2853.93,237.12 2837.26,248.27 2814.57,267.52 2793.31,289.83 2773.71,314.98 2755.93,342.72 2740.17,372.80 2734.52,386.13 2635.75,386.13" fill="#AD1457" fill-opacity="0.5" stroke="#F48FB1" stroke-width="0.8" stroke-dasharray="6 3"/>
<polygon class="slab-poly" data-slab-id="SLAB-058" points="3109.43,1081.01 3109.43,1471.84 3029.88,1471.84 3030.93,1460.14 3031.18,1447.66 3030.57,1435.21 3029.10,1422.91 3027.86,1416.47 3029.14,1409.81 3030.61,1397.51 3031.23,1385.05 3030.97,1372.58 3029.86,1360.20 3027.89,1348.03 3025.09,1336.19 3021.48,1324.80 3017.10,1313.97 3012.00,1303.79 3006.21,1294.37 2999.79,1285.80 2992.82,1278.16 2985.35,1271.53 2977.45,1265.96 2969.21,1261.52 2960.70,1258.24 2952.00,1256.15 2943.20,1255.29 2934.39,1255.64 2927.89,1256.81 2921.40,1255.64 2917.38,1255.48 2917.38,1081.01 3109.43,1081.01" fill="#F9A825" fill-opacity="0.55" stroke="#FFE082" stroke-width="0.8"/>
<polygon class="slab-poly" data-slab-id="SLAB-059" points="3109.43,1090.34 2917.38,1090.34 2917.38,1034.63 2924.70,1033.95 2927.85,1033.21 2931.09,1033.96 2939.89,1034.78 2948.71,1034.37 2957.45,1032.74 2966.04,1029.91 2974.39,1025.90 2982.43,1020.74 2990.07,1014.50 2997.24,1007.23 3003.87,999.00 3009.90,989.89 3015.27,979.99 3019.92,969.39 3023.83,958.19 3024.27,956.53 3028.93,954.88 3029.17,955.82 3032.91,967.12 3037.41,977.85 3042.64,987.91 3048.54,997.19 3055.05,1005.61 3062.11,1013.09 3069.66,1019.55 3077.62,1024.93 3085.91,1029.18 3094.46,1032.26 3103.18,1034.14 3109.43,1034.61 3109.43,1090.34" fill="#AD1457" fill-opacity="0.5" stroke="#F48FB1" stroke-width="0.8" stroke-dasharray="6 3"/>
<polygon class="slab-poly" data-slab-id="SLAB-060" points="3109.43,128.16 3109.43,204.54 3108.96,204.44 3100.15,203.83 3091.34,204.44 3082.61,206.27 3074.06,209.31 3065.75,213.51 3057.78,218.85 3051.54,224.15 3042.65,219.65 3016.98,210.55 2999.98,206.98 3006.20,198.68 3011.99,189.26 3017.10,179.09 3021.48,168.26 3025.09,156.87 3027.89,145.04 3029.86,132.87 3030.29,128.16 3109.43,128.16" fill="#AD1457" fill-opacity="0.5" stroke="#F48FB1" stroke-width="0.8" stroke-dasharray="6 3"/>
</svg>