<svg xmlns="http://www.w3.org/2000/svg" width="3200" height="1600" viewBox="0 0 3200 1600">
<rect width="100%" height="100%" fill="#121212"/>
<polygon points="620.08,1102.53 626.06,1102.53 626.06,1102.53 632.04,1102.53 632.04,1094.05 901.12,1094.05 901.12,1102.53 907.10,1102.53 907.10,1356.82 901.12,1356.82 901.12,1365.29 632.04,1365.29 632.04,1356.82 626.06,1356.82 626.06,1356.82 620.08,1356.82 620.08,1365.29 503.47,1365.29 503.47,1356.82 497.49,1356.82 497.49,1102.53 503.47,1102.53 503.47,1094.05 620.08,1094.05 620.08,1102.53" fill="#FF9800" fill-opacity="0.12" stroke="#FFB74D" stroke-width="0.6"/>
<polygon points="93.85,848.41 93.85,839.94 356.96,839.94 356.96,848.41 362.94,848.41 368.92,848.41 368.92,839.94 485.53,839.94 485.53,848.41 491.51,848.41 491.51,954.18 485.53,954.18 485.53,962.66 485.53,962.66 485.53,971.14 491.51,971.14 491.51,1051.67 485.53,1051.67 485.53,1060.15 485.53,1068.62 491.51,1068.62 491.51,1356.82 485.53,1356.82 485.53,1365.29 93.85,1365.29 93.85,1356.82 87.88,1356.82 87.88,1068.62 93.85,1068.62 93.85,1060.15 93.85,1051.67 87.88,1051.67 87.88,848.41 93.85,848.41" fill="#FF9800" fill-opacity="0.12" stroke="#FFB74D" stroke-width="0.6"/>
<polygon points="503.47,839.94 620.08,839.94 620.08,848.41 626.06,848.41 626.06,848.41 632.04,848.41 632.04,839.94 901.12,839.94 901.12,848.41 907.10,848.41 907.10,1085.58 901.12,1085.58 901.12,1094.05 632.04,1094.05 632.04,1085.58 626.06,1085.58 626.06,996.63 626.06,1085.58 620.08,1085.58 620.08,1094.05 503.47,1094.05 503.47,1085.58 497.49,1085.58 497.49,848.41 503.47,848.41 503.47,839.94" fill="#FF9800" fill-opacity="0.12" stroke="#FFB74D" stroke-width="0.6"/>
<polygon points="1080.51,907.57 1080.51,907.59 1080.51,916.05 1020.71,916.05 1020.71,907.57 1014.73,907.57 1014.73,852.65 1020.71,852.65 1020.71,844.18 1080.51,844.18 1080.51,852.64 1080.51,852.65 1086.49,852.65 1086.49,907.57 1080.51,907.57" fill="#FF9800" fill-opacity="0.12" stroke="#FFB74D" stroke-width="0.6"/>
<polygon points="166.28,1373.77 413.24,1373.77 413.24,1382.25 419.22,1382.25 419.22,1382.59 419.22,1382.25 425.20,1382.25 425.20,1373.77 485.53,1373.77 485.53,1382.24 489.25,1388.88 465.07,1416.13 489.29,1443.28 485.58,1449.94 485.58,1458.40 425.20,1458.40 425.20,1450.21 425.04,1449.93 419.22,1449.93 419.22,1458.52 566.26,1458.52 566.26,1382.25 566.26,1450.05 560.28,1450.05 560.28,1450.06 560.28,1458.52 503.47,1458.52 503.47,1450.12 503.42,1450.05 497.49,1450.05 497.49,1382.25 503.32,1382.25 503.47,1381.99 503.47,1373.77 560.28,1373.77 560.28,1382.24 560.28,1382.25 566.26,1382.25 566.26,1382.25 572.24,1382.25 572.24,1373.77 643.19,1373.77 643.19,1382.25 649.17,1382.25 649.17,1382.59 649.17,1382.25 655.15,1382.25 655.15,1373.77 738.17,1373.77 738.17,1382.24 744.15,1382.24 750.13,1382.24 750.13,1373.77 901.12,1373.77 901.12,1382.24 907.10,1382.24 907.10,1450.05 901.12,1450.05 901.12,1458.52 754.11,1458.52 984.83,1458.52 984.83,1450.05 978.86,1450.05 978.85,1450.06 978.85,1458.52 919.06,1458.52 919.06,1450.05 913.08,1450.05 913.08,1382.24 918.96,1382.24 919.06,1382.08 919.06,1373.77 978.85,1373.77 978.85,1382.24 978.86,1382.24 984.83,1382.24 984.83,1382.24 990.81,1382.24 990.81,1373.77 1073.16,1373.77 1073.16,1382.25 1079.14,1382.25 1079.14,1382.59 1079.14,1382.25 1085.12,1382.25 1085.12,1373.77 1182.17,1373.77 1182.17,1390.72 1091.10,1390.72 1091.10,1458.45 1194.12,1458.45 1194.12,1449.98 1188.15,1449.98 1188.15,1365.29 1182.17,1365.29 1182.17,1365.30 1182.17,1373.77 919.06,1373.77 919.06,1365.29 913.08,1365.29 913.08,852.65 919.06,852.65 919.06,844.18 1008.75,844.18 1008.75,852.65 1014.73,852.65 1014.73,916.05 1086.49,916.05 1086.49,852.65 1092.47,852.65 1092.47,844.18 1182.17,844.18 1182.17,852.65 1182.17,852.65 1188.15,852.65 1188.15,852.65 1194.13,852.65 1194.13,844.18 1319.70,844.18 1319.70,852.65 1325.68,852.65 1325.68,1000.82 1319.70,1000.82 1319.70,1009.29 1319.70,1017.76 1319.70,1017.77 1325.68,1017.77 1325.68,1281.02 1319.70,1281.02 1319.70,1281.02 1319.70,1289.50 1194.13,1289.50 1194.13,1281.02 1188.15,1281.02 1188.15,1297.97 1193.91,1297.97 1194.12,1297.80 1194.12,1289.50 1253.92,1289.50 1253.92,1297.97 1253.93,1297.97 1259.90,1297.97 1259.90,1297.97 1265.88,1297.97 1265.88,1289.50 1330.22,1289.50 1330.22,1297.97 1336.20,1297.97 1336.20,1298.02 1336.20,1297.97 1342.18,1297.97 1342.18,1289.50 1589.14,1289.50 1589.14,1297.97 1595.12,1297.97 1595.12,1298.02 1595.12,1297.97 1601.10,1297.97 1601.10,1289.50 1665.03,1289.49 1665.03,1297.97 1671.01,1297.97 1671.01,1458.53 1682.97,1458.53 1682.97,1450.05 1676.99,1450.05 1676.99,1382.25 1682.92,1382.25 1682.97,1382.18 1682.97,1373.77 1736.79,1373.77 1736.79,1382.25 1742.77,1382.25 1748.75,1382.25 1748.75,1373.77 1818.71,1373.77 1818.71,1382.25 1824.69,1382.25 1824.69,1382.31 1824.69,1382.25 1830.67,1382.25 1830.67,1373.77 1972.99,1373.77 1972.99,1382.29 1978.97,1382.29 1978.97,1382.25 1984.95,1382.25 1984.95,1373.77 2074.64,1373.77 2074.64,1382.25 2080.62,1382.25 2080.62,1449.96 2074.64,1449.96 2074.64,1458.44 1984.95,1458.44 1984.95,1449.96 1978.97,1449.96 1978.97,1458.48 2188.26,1458.48 2188.26,1449.96 2182.28,1449.96 2182.28,1458.44 2092.58,1458.44 2092.58,1449.96 2086.60,1449.96 2086.60,1382.25 2092.58,1382.25 2092.58,1373.77 2182.28,1373.77 2182.28,1382.25 2188.26,1382.25 2188.26,1382.29 2194.24,1382.29 2194.24,1373.81 2336.32,1373.79 2336.32,1382.25 2342.30,1382.25 2342.30,1382.31 2342.30,1382.25 2348.28,1382.25 2348.28,1373.78 2418.48,1373.77 2418.48,1382.25 2424.46,1382.25 2430.44,1382.25 2430.44,1373.77 2487.24,1373.77 2487.24,1382.25 2493.22,1382.25 2493.22,1449.96 2487.30,1449.96 2487.24,1450.06 2487.24,1458.44 2499.20,1458.44 2499.20,1382.25 2505.18,1382.25 2505.18,1373.77 2565.70,1373.77 2565.70,1382.24 2565.71,1382.25 2571.68,1382.25 2571.68,1382.31 2571.68,1382.25 2577.66,1382.25 2577.66,1373.77 2824.62,1373.77 2824.62,1382.25 2830.60,1382.25 2830.60,1382.31 2830.60,1382.25 2836.58,1382.25 2836.58,1373.77 2908.81,1373.77 2908.81,924.52 2914.79,924.52 2914.79,916.05 2914.79,916.04 2914.79,907.57 2908.81,907.57 2908.81,839.94 2920.77,839.94 2920.77,839.94 2941.70,839.94 2941.70,848.41 2941.71,848.42 2947.68,848.42 2947.68,907.57 2941.71,907.57 2941.70,907.58 2941.70,916.04 2947.70,916.04 2947.70,848.42 2953.68,848.42 2959.66,848.42 2959.66,924.52 2953.68,924.52 2953.68,932.99 2920.77,932.99 2920.77,1356.83 2953.67,1356.88 2953.67,1365.30 2959.57,1365.30 2959.57,1467.01 2953.59,1467.01 2953.59,1475.48 2896.86,1475.48 2896.86,1475.52 2836.58,1475.52 2824.62,1475.52 2824.62,1467.04 2818.65,1467.04 2818.65,1390.72 2583.64,1390.72 2583.64,1466.92 2577.66,1466.92 2577.66,1475.39 2336.32,1475.39 2336.32,1466.92 2330.34,1466.92 2330.34,1390.74 2200.22,1390.76 2200.22,1466.96 2194.24,1466.96 2194.24,1475.44 1972.99,1475.44 1972.99,1466.96 1967.01,1466.96 1967.01,1390.72 1836.65,1390.72 1836.65,1467.00 1830.67,1467.00 1830.67,1475.48 1665.03,1475.48 1665.03,1467.00 1659.05,1467.00 1659.05,1306.45 1607.08,1306.45 1607.08,1382.75 1601.10,1382.75 1601.10,1391.23 1589.14,1391.23 1589.14,1382.75 1583.16,1382.75 1583.16,1306.45 1348.16,1306.45 1348.16,1382.75 1342.18,1382.75 1342.18,1391.23 1330.22,1391.23 1330.22,1382.75 1324.24,1382.75 1324.24,1306.45 1271.86,1306.45 1271.86,1466.93 1265.88,1466.93 1265.88,1475.41 1073.16,1475.41 1073.16,1466.93 1067.18,1466.93 1067.18,1390.72 996.79,1390.72 996.79,1467.00 990.81,1467.00 990.81,1475.47 738.17,1475.47 738.17,1467.00 732.19,1467.00 732.19,1390.72 661.13,1390.72 661.13,1467.00 655.15,1467.00 655.15,1475.48 413.24,1475.48 413.24,1467.00 407.26,1467.00 407.26,1390.72 172.26,1390.72 172.26,1467.00 166.28,1467.00 166.28,1475.48 37.13,1475.48 37.13,1467.00 31.15,1467.00 31.15,1365.29 37.05,1365.29 37.04,1356.87 69.94,1356.82 69.94,1307.67 37.00,1307.67 37.00,1299.19 31.02,1299.19 31.02,1282.24 37.00,1282.24 37.00,1273.76 69.94,1273.76 69.94,1135.59 37.00,1135.59 37.00,1127.11 31.02,1127.11 31.02,1110.16 37.00,1110.16 37.00,1101.68 69.94,1101.68 69.94,1034.72 37.00,1034.72 37.00,1026.24 31.02,1026.24 31.02,1009.29 37.00,1009.29 37.00,1000.81 69.94,1000.81 69.94,949.94 37.01,949.94 37.01,941.46 31.03,941.45 31.12,822.98 37.09,822.99 37.09,814.51 69.94,814.51 69.94,678.72 37.00,678.72 37.00,670.24 31.02,670.24 31.02,653.29 37.00,653.29 37.00,644.81 69.94,644.81 69.94,599.46 36.97,599.46 36.97,590.98 30.99,590.98 30.99,574.03 36.97,574.03 36.97,565.56 69.94,565.56 69.94,465.53 36.95,465.53 36.95,457.05 30.97,457.05 30.97,440.10 36.95,440.10 36.95,431.62 69.94,431.62 69.94,376.52 36.95,376.52 36.95,368.05 30.97,368.05 30.97,351.10 36.95,351.10 36.95,342.62 69.94,342.62 69.94,204.45 36.95,204.45 36.95,195.98 30.97,195.98 30.97,179.02 36.95,179.02 36.95,170.55 69.94,170.55 69.94,140.28 81.90,140.28 81.90,179.02 75.92,179.02 75.92,187.50 75.92,187.50 75.92,195.98 81.90,195.98 81.90,351.10 75.92,351.10 75.92,359.57 75.92,359.57 75.92,368.05 81.90,368.05 81.90,440.10 75.92,440.10 75.92,448.57 75.92,448.57 75.92,457.05 81.90,457.05 81.90,574.03 75.93,574.03 75.93,582.51 75.93,582.51 75.93,590.98 81.90,590.98 81.90,653.29 75.96,653.29 75.96,661.76 75.96,661.76 75.96,670.24 81.90,670.24 81.90,822.99 75.92,822.99 75.92,831.46 43.07,831.46 43.06,839.93 49.04,839.94 49.04,831.46 75.92,831.46 75.92,839.94 75.92,839.94 81.90,839.94 81.90,890.62 71.74,890.62 77.13,907.57 81.90,907.57 81.90,1009.29 75.96,1009.29 75.96,1017.76 75.96,1017.76 75.96,1026.24 81.90,1026.24 81.90,1110.16 75.96,1110.16 75.96,1118.64 75.96,1118.64 75.96,1127.11 81.90,1127.11 81.90,1282.24 75.96,1282.24 75.96,1290.71 75.96,1290.71 75.96,1299.19 81.90,1299.19 81.90,1365.29 75.92,1365.29 75.92,1373.77 72.15,1373.77 75.92,1373.77 75.92,1382.25 81.90,1382.25 81.90,1450.05 75.92,1450.05 75.92,1458.53 49.03,1458.53 49.03,1450.09 48.98,1450.05 43.11,1450.06 43.11,1458.53 87.88,1458.53 87.88,1382.25 93.85,1382.25 93.85,1373.77 154.32,1373.77 154.32,1382.25 160.30,1382.25 160.30,1382.59 160.30,1382.25 166.28,1382.25 166.28,1373.77" fill="#FF9800" fill-opacity="0.12" stroke="#FFB74D" stroke-width="0.6"/>
<polygon points="491.51,822.99 485.53,822.99 485.53,831.46 93.85,831.46 93.85,822.99 87.88,822.99 87.88,670.23 93.85,670.23 93.85,661.76 485.53,661.76 485.53,670.23 491.51,670.23 491.51,822.99" fill="#FF9800" fill-opacity="0.12" stroke="#FFB74D" stroke-width="0.6"/>
<polygon points="901.12,670.23 907.10,670.23 907.10,822.99 901.12,822.99 901.12,831.46 503.47,831.46 503.47,822.99 497.49,822.99 497.49,670.23 503.47,670.23 503.47,661.76 901.12,661.76 901.12,670.23" fill="#FF9800" fill-opacity="0.12" stroke="#FFB74D" stroke-width="0.6"/>
<polygon points="1319.70,831.46 919.06,831.46 919.06,822.99 913.08,822.99 913.08,670.23 919.06,670.23 919.06,661.76 1319.70,661.76 1319.70,670.23 1325.68,670.23 1325.68,822.99 1319.70,822.99 1319.70,831.46" fill="#FF9800" fill-opacity="0.12" stroke="#FFB74D" stroke-width="0.6"/>
<polygon points="368.92,407.46 368.92,398.99 485.53,398.99 485.53,407.46 491.51,407.46 491.51,644.80 485.53,644.80 485.53,653.28 368.92,653.28 368.92,644.80 362.94,644.80 356.96,644.80 356.96,653.28 93.85,653.28 93.85,644.80 87.88,644.80 87.88,407.46 93.85,407.46 93.85,398.99 356.96,398.99 356.96,407.46 362.94,407.46 368.92,407.46" fill="#FF9800" fill-opacity="0.12" stroke="#FFB74D" stroke-width="0.6"/>
<polygon points="497.49,390.51 497.49,136.22 503.47,136.22 503.47,127.74 620.08,127.74 620.08,136.22 626.06,136.22 626.06,136.22 632.04,136.22 632.04,127.74 901.12,127.74 901.12,136.22 907.10,136.22 907.10,390.51 901.12,390.51 901.12,398.99 632.04,398.99 632.04,390.51 626.06,390.51 626.06,390.51 620.08,390.51 620.08,398.99 503.47,398.99 620.08,398.99 620.08,407.37 626.06,407.37 626.06,423.74 626.06,407.37 632.04,407.37 632.04,398.99 901.12,398.99 901.12,407.46 907.10,407.46 907.10,644.80 901.12,644.80 901.12,653.28 632.04,653.28 632.04,644.80 626.06,644.80 626.06,644.80 620.08,644.80 620.08,653.28 503.47,653.28 503.47,644.80 497.49,644.80 497.49,407.46 503.47,407.46 503.47,398.99 503.47,398.99 503.47,390.51 497.49,390.51" fill="#FF9800" fill-opacity="0.12" stroke="#FFB74D" stroke-width="0.6"/>
<polygon points="919.06,534.60 913.08,534.60 913.08,407.46 919.06,407.46 919.06,398.99 1038.65,398.99 1038.65,407.46 1044.63,407.46 1050.61,407.46 1050.61,398.99 1319.70,398.99 1050.61,398.99 1050.61,390.51 1044.63,390.51 1044.63,390.51 1038.65,390.51 1038.65,398.99 919.06,398.99 919.06,390.51 913.08,390.51 913.08,136.22 919.06,136.22 919.06,127.74 1038.65,127.74 1038.65,136.22 1044.63,136.22 1050.61,136.22 1050.61,127.74 1319.70,127.74 1319.70,136.22 1325.68,136.22 1325.68,390.51 1319.70,390.51 1319.70,398.99 1319.70,398.99 1319.70,407.46 1325.68,407.46 1325.68,644.80 1319.70,644.80 1319.70,653.28 1050.61,653.28 1050.61,644.80 1044.63,644.80 1044.63,644.80 1038.65,644.80 1038.65,653.28 981.84,653.28 981.84,644.80 975.86,644.80 975.86,644.80 969.88,644.80 969.88,644.80 969.88,653.28 919.06,653.28 919.06,644.80 913.08,644.80 913.08,551.56 919.06,551.56 919.06,543.08 919.06,543.08 919.06,534.60" fill="#FF9800" fill-opacity="0.12" stroke="#FFB74D" stroke-width="0.6"/>
<polygon points="491.51,390.51 485.53,390.51 485.53,398.99 368.92,398.99 368.92,390.51 362.94,390.51 362.94,136.22 368.92,136.22 368.92,127.74 485.53,127.74 485.53,136.22 491.51,136.22 491.51,390.51" fill="#FF9800" fill-opacity="0.12" stroke="#FFB74D" stroke-width="0.6"/>
<polygon points="362.94,390.51 362.94,390.51 356.96,390.51 356.96,398.99 93.85,398.99 93.85,390.51 87.88,390.51 87.88,136.22 93.85,136.22 93.85,127.74 356.96,127.74 356.96,136.22 362.94,136.22 362.94,390.51" fill="#FF9800" fill-opacity="0.12" stroke="#FFB74D" stroke-width="0.6"/>
<polygon points="2499.20,907.57 2499.20,848.41 2505.18,848.41 2505.18,839.94 2565.04,839.94 2565.04,848.40 2565.05,848.41 2571.02,848.41 2577.00,848.41 2577.00,839.94 2696.53,839.94 2696.53,848.41 2702.51,848.41 2702.51,848.41 2708.49,848.41 2708.49,839.94 2896.85,839.94 2896.85,848.41 2902.83,848.41 2902.83,1356.82 2896.85,1356.82 2896.85,1365.29 2708.49,1365.29 2708.49,1356.82 2702.51,1356.82 2702.51,1356.82 2696.53,1356.82 2696.53,1365.29 2505.18,1365.29 2505.18,1356.82 2499.20,1356.82 2499.20,924.53 2505.18,924.53 2505.18,916.05 2505.18,907.57 2499.20,907.57" fill="#FF9800" fill-opacity="0.12" stroke="#FFB74D" stroke-width="0.6"/>
<polygon points="1676.99,1085.58 1676.99,848.41 1682.97,848.41 1682.97,839.94 1796.58,839.94 1796.58,848.41 1802.56,848.41 1808.54,848.41 1808.54,839.94 2074.64,839.94 2074.64,848.41 2080.62,848.41 2080.62,1085.58 2074.64,1085.58 2074.64,1094.05 1808.54,1094.05 1808.54,1085.58 1802.56,1085.58 1796.58,1085.58 1796.58,1094.05 1796.58,1094.05 1796.58,1102.53 1802.56,1102.53 1802.56,1102.53 1808.54,1102.53 1808.54,1094.05 2074.64,1094.05 2074.64,1102.53 2080.62,1102.53 2080.62,1356.82 2074.64,1356.82 2074.64,1365.29 1808.54,1365.29 1808.54,1356.82 1802.56,1356.82 1802.56,1356.82 1796.58,1356.82 1796.58,1365.29 1682.97,1365.29 1682.97,1356.82 1676.99,1356.82 1676.99,1102.53 1682.97,1102.53 1682.97,1094.05 1682.97,1094.05 1682.97,1085.58 1676.99,1085.58" fill="#FF9800" fill-opacity="0.12" stroke="#FFB74D" stroke-width="0.6"/>
<polygon points="2086.60,1085.58 2086.60,848.41 2092.58,848.41 2092.58,839.94 2358.68,839.94 2358.68,848.41 2364.66,848.41 2370.64,848.41 2370.64,839.94 2487.24,839.94 2487.24,848.41 2493.22,848.41 2493.22,1085.58 2487.24,1085.58 2487.24,1094.05 2480.38,1094.05 2487.24,1094.05 2487.24,1102.53 2493.22,1102.53 2493.22,1356.82 2487.24,1356.82 2487.24,1365.29 2370.64,1365.29 2370.64,1356.82 2364.66,1356.82 2364.66,1356.82 2358.68,1356.82 2358.68,1365.29 2092.58,1365.29 2092.58,1356.82 2086.60,1356.82 2086.60,1102.53 2092.58,1102.53 2092.58,1094.05 2229.66,1094.05 2092.58,1094.05 2092.58,1085.58 2086.60,1085.58" fill="#FF9800" fill-opacity="0.12" stroke="#FFB74D" stroke-width="0.6"/>
<polygon points="1671.01,1272.54 1665.03,1272.54 1665.03,1281.02 1337.64,1281.02 1337.64,1272.54 1331.66,1272.54 1331.66,848.41 1337.64,848.41 1337.64,839.94 1665.03,839.94 1665.03,848.41 1671.01,848.41 1671.01,1272.54" fill="#FF9800" fill-opacity="0.12" stroke="#FFB74D" stroke-width="0.6"/>
<polygon points="1665.03,822.99 1665.03,831.46 1337.64,831.46 1337.64,822.99 1331.66,822.99 1331.66,670.23 1337.64,670.23 1337.64,661.76 1665.03,661.76 1665.03,670.23 1671.01,670.23 1671.01,822.99 1665.03,822.99" fill="#FF9800" fill-opacity="0.12" stroke="#FFB74D" stroke-width="0.6"/>
<polygon points="2074.64,822.99 2074.64,831.46 1682.97,831.46 1682.97,822.99 1676.99,822.99 1676.99,670.23 1682.97,670.23 1682.97,661.76 2074.64,661.76 2074.64,670.23 2080.62,670.23 2080.62,822.99 2074.64,822.99" fill="#FF9800" fill-opacity="0.12" stroke="#FFB74D" stroke-width="0.6"/>
<polygon points="2487.24,661.76 2487.24,670.23 2493.22,670.23 2493.22,822.99 2487.24,822.99 2487.24,831.46 2092.58,831.46 2092.58,822.99 2086.60,822.99 2086.60,670.23 2092.58,670.23 2092.58,661.76 2487.24,661.76" fill="#FF9800" fill-opacity="0.12" stroke="#FFB74D" stroke-width="0.6"/>
<polygon points="2896.85,822.99 2896.85,831.46 2505.18,831.46 2505.18,822.99 2499.20,822.99 2499.20,670.23 2505.18,670.23 2505.18,661.76 2896.85,661.76 2896.85,670.23 2902.83,670.23 2902.83,822.99 2896.85,822.99" fill="#FF9800" fill-opacity="0.12" stroke="#FFB74D" stroke-width="0.6"/>
<polygon points="328.50,25.83 334.48,25.83 334.48,17.36 346.44,17.36 346.44,25.83 352.42,25.83 352.42,102.31 410.78,102.31 410.78,26.01 416.76,26.01 416.76,17.53 572.24,17.53 572.24,26.01 578.21,26.01 578.21,102.31 645.79,102.31 645.79,25.83 651.77,25.83 651.77,17.35 663.73,17.35 663.73,25.83 669.71,25.83 669.71,102.31 793.48,102.30 793.48,26.01 799.46,26.01 799.46,17.54 990.81,17.54 990.81,26.01 996.79,26.01 996.79,102.31 1064.43,102.31 1064.43,25.83 1070.41,25.83 1070.41,17.35 1082.37,17.35 1082.37,25.83 1088.35,25.83 1088.35,102.31 1212.06,102.31 1212.06,26.01 1218.04,26.01 1218.04,17.53 1337.64,17.53 1337.64,26.01 1343.62,26.01 1343.62,102.31 1659.05,102.31 1659.05,25.92 1665.03,25.92 1665.03,17.45 1748.75,17.45 1748.75,25.92 1754.73,25.92 1754.73,102.31 1813.09,102.31 1813.09,25.85 1819.07,25.85 1819.07,17.37 1831.03,17.37 1831.03,25.85 1837.01,25.85 1837.01,102.31 1967.01,102.30 1967.01,26.01 1972.99,26.01 1972.99,17.53 2194.24,17.53 2194.24,26.01 2200.22,26.01 2200.22,102.31 2313.60,102.31 2313.60,25.86 2319.58,25.86 2319.58,17.38 2331.54,17.38 2331.54,25.86 2337.52,25.86 2337.52,102.31 2412.50,102.31 2412.50,26.01 2418.48,26.01 2418.48,17.53 2573.95,17.53 2573.95,26.01 2579.93,26.01 2579.93,102.31 2638.29,102.31 2638.29,25.86 2644.27,25.86 2644.27,17.38 2656.23,17.38 2656.23,25.86 2662.21,25.86 2662.21,102.31 2789.19,102.30 2789.19,25.99 2795.20,25.99 2795.20,17.45 2914.79,17.45 2914.79,25.92 2914.84,25.92 2914.84,17.53 2953.68,17.57 2953.68,26.04 2959.66,26.04 2959.66,127.75 2953.68,127.75 2953.68,136.23 2920.77,136.23 2920.77,305.75 3094.18,305.75 3094.18,246.43 3100.17,246.43 3100.17,237.93 3112.13,237.93 3112.13,246.41 3118.10,246.41 3118.10,305.75 3139.08,305.75 3139.08,314.22 3145.06,314.21 3145.08,331.16 3139.10,331.18 3139.10,339.65 3118.10,339.65 3118.10,428.65 3139.08,428.65 3139.08,437.12 3145.06,437.11 3145.08,454.06 3139.10,454.07 3139.10,462.55 3118.10,462.55 3118.11,814.33 3139.02,814.33 3139.02,822.81 3145.00,822.81 3145.00,924.52 3139.02,924.52 3139.02,933.00 3100.17,932.99 3100.17,924.51 3094.19,924.51 3094.19,907.75 3100.17,907.75 3100.17,907.57 3094.19,907.57 3094.19,848.42 2953.68,848.42 2953.68,831.46 3100.17,831.46 3100.17,839.94 3106.15,839.94 3106.15,899.10 3106.15,899.10 3106.14,454.07 3112.12,454.07 3112.12,445.60 3112.12,445.60 3112.12,437.12 3106.14,437.12 3106.14,331.18 3112.12,331.18 3112.12,322.70 3112.12,322.70 3112.12,314.22 3106.14,314.22 3106.14,254.89 3106.14,254.89 3106.14,314.22 3100.17,314.22 3100.17,322.70 3100.17,331.17 3100.17,331.18 3106.14,331.18 3106.15,822.99 3100.17,822.99 3100.17,831.45 2914.79,831.45 2914.79,822.81 2908.81,822.81 2908.81,331.18 2914.79,331.18 2914.79,322.70 2914.79,314.22 2908.81,314.22 2908.81,34.40 2896.86,34.40 2896.86,42.88 2902.83,42.88 2902.83,110.79 2896.86,110.79 2896.86,119.27 2807.16,119.27 2807.16,110.79 2801.18,110.79 2801.18,42.88 2807.16,42.88 2807.16,34.41 2801.15,34.41 2801.15,110.86 2795.17,110.86 2795.17,119.25 2656.23,119.26 2656.23,110.79 2650.25,110.79 2650.25,110.59 2650.25,110.79 2644.27,110.79 2644.27,119.26 2573.95,119.27 2573.95,110.79 2567.97,110.79 2567.97,110.79 2562.05,110.79 2561.99,110.89 2561.99,119.27 2505.18,119.27 2505.18,110.79 2499.20,110.79 2499.20,42.96 2505.18,42.96 2505.18,42.96 2505.18,34.49 2487.24,34.49 2487.24,42.95 2487.25,42.96 2493.22,42.96 2493.22,110.79 2487.30,110.79 2487.24,110.89 2487.24,119.27 2430.44,119.27 2430.44,110.87 2430.39,110.79 2424.46,110.79 2418.48,110.79 2418.48,119.27 2331.54,119.27 2331.54,110.79 2325.56,110.79 2325.56,110.59 2325.56,110.79 2319.58,110.79 2319.58,119.27 2194.24,119.27 2194.24,110.79 2188.26,110.79 2188.26,110.79 2182.28,110.79 2182.28,119.27 2092.58,119.27 2092.58,110.79 2086.60,110.79 2086.60,42.96 2092.58,42.96 2092.58,34.49 2174.12,34.49 1978.97,34.49 1978.97,42.96 1984.95,42.96 1984.95,34.49 2074.64,34.49 2074.64,42.96 2080.62,42.96 2080.62,110.79 2074.64,110.79 2074.64,119.27 1984.95,119.27 1984.95,110.79 1978.97,110.79 1972.99,110.79 1972.99,119.25 1831.03,119.26 1831.03,110.79 1825.05,110.79 1825.05,110.58 1825.05,110.79 1819.07,110.79 1819.07,119.26 1748.75,119.27 1748.75,110.79 1742.77,110.79 1736.85,110.79 1736.79,110.89 1736.79,119.27 1682.97,119.27 1682.97,110.87 1682.92,110.79 1676.99,110.79 1676.99,42.88 1682.97,42.88 1682.97,34.40 1671.01,34.40 1671.01,110.79 1665.03,110.79 1665.03,119.27 1337.64,119.27 1337.64,110.79 1331.66,110.79 1331.66,34.49 1319.70,34.49 1319.70,42.96 1325.68,42.96 1325.68,110.79 1319.70,110.79 1319.70,119.27 1230.00,119.27 1230.00,110.79 1224.02,110.79 1218.04,110.79 1218.04,119.27 1082.37,119.27 1082.37,110.79 1076.39,110.79 1076.39,110.56 1076.39,110.79 1070.41,110.79 1070.41,119.27 990.81,119.27 990.81,110.79 984.83,110.79 978.91,110.79 978.85,110.89 978.85,119.27 919.06,119.27 919.06,110.87 919.01,110.79 913.08,110.79 913.08,42.96 919.06,42.96 919.06,34.49 976.03,34.49 805.44,34.49 805.44,42.96 811.42,42.96 811.42,34.49 901.12,34.49 901.12,42.96 907.10,42.96 907.10,110.79 901.12,110.79 901.12,119.27 811.42,119.27 811.42,110.79 805.44,110.79 799.46,110.79 799.46,119.25 663.73,119.26 663.73,110.79 657.75,110.79 657.75,110.56 657.75,110.79 651.77,110.79 651.77,119.26 572.24,119.27 572.24,110.79 566.26,110.79 566.26,110.79 560.36,110.79 560.28,110.94 560.28,119.27 503.47,119.27 503.47,111.11 503.28,110.79 497.49,110.79 497.49,42.96 503.23,42.96 503.47,42.56 503.47,34.49 485.53,34.49 485.53,42.96 491.51,42.96 491.51,110.79 485.62,110.79 485.53,110.94 485.53,119.27 428.72,119.27 428.72,110.79 422.74,110.79 416.76,110.79 416.76,119.27 346.44,119.27 346.44,110.90 340.46,110.90 340.46,110.57 340.46,110.90 334.48,110.90 334.48,119.27 195.52,119.27 195.52,110.79 189.59,110.80 189.59,110.70 189.59,110.78 183.56,110.79 183.56,119.27 93.85,119.27 93.85,110.79 87.88,110.79 87.88,42.96 93.85,42.96 93.85,34.48 177.59,34.48 177.59,51.44 99.83,51.44 99.83,102.31 177.63,102.31 177.59,42.97 189.55,42.95 189.54,34.48 43.03,34.42 43.03,42.95 49.01,42.96 49.01,34.48 75.92,34.48 75.92,42.96 75.92,42.96 81.90,42.96 81.91,110.76 75.93,110.77 75.93,119.24 75.85,119.24 75.85,119.24 75.84,136.19 36.97,136.14 36.97,127.72 31.07,127.72 31.07,26.02 37.02,26.02 37.03,17.47 195.52,17.53 195.52,26.01 201.50,26.00 201.55,102.31 328.50,102.31 328.50,25.83" fill="#FF9800" fill-opacity="0.12" stroke="#FFB74D" stroke-width="0.6"/>
<polygon points="1665.03,653.28 1337.64,653.28 1337.64,644.80 1331.66,644.80 1331.66,136.22 1337.64,136.22 1337.64,127.74 1665.03,127.74 1665.03,136.22 1671.01,136.22 1671.01,644.80 1665.03,644.80 1665.03,653.28" fill="#FF9800" fill-opacity="0.12" stroke="#FFB74D" stroke-width="0.6"/>
<polygon points="1808.55,398.99 2074.64,398.99 1808.55,398.99 1808.55,390.51 1802.57,390.51 1802.57,390.51 1796.59,390.51 1796.59,398.99 1682.97,398.99 1682.97,390.51 1676.99,390.51 1676.99,136.22 1682.97,136.22 1682.97,127.74 1796.59,127.74 1796.59,136.22 1802.57,136.22 1808.55,136.22 1808.55,127.74 2074.64,127.74 2074.64,136.22 2080.62,136.22 2080.62,390.51 2074.64,390.51 2074.64,398.99 2074.64,398.99 2074.64,407.46 2080.62,407.46 2080.62,644.80 2074.64,644.80 2074.64,653.28 1808.55,653.28 1808.55,644.80 1802.57,644.80 1802.57,644.80 1796.59,644.80 1796.59,653.28 1682.97,653.28 1682.97,644.80 1676.99,644.80 1676.99,407.46 1682.97,407.46 1682.97,398.99 1796.59,398.99 1796.59,407.37 1802.57,407.37 1802.57,407.37 1808.55,407.37 1808.55,398.99" fill="#FF9800" fill-opacity="0.12" stroke="#FFB74D" stroke-width="0.6"/>
<polygon points="2092.58,136.22 2092.58,127.74 2358.68,127.74 2358.68,136.22 2364.66,136.22 2370.64,136.22 2370.64,127.74 2487.24,127.74 2487.24,136.22 2493.22,136.22 2493.22,390.51 2487.24,390.51 2487.24,398.99 2370.64,398.99 2370.64,390.51 2364.66,390.51 2358.68,390.51 2358.68,398.99 2092.58,398.99 2358.68,398.99 2358.68,407.46 2364.66,407.46 2370.64,407.46 2370.64,398.99 2487.24,398.99 2487.24,407.46 2493.22,407.46 2493.22,644.80 2487.24,644.80 2487.24,653.28 2370.64,653.28 2370.64,644.80 2364.66,644.80 2358.68,644.80 2358.68,653.28 2092.58,653.28 2092.58,644.80 2086.60,644.80 2086.60,407.46 2092.58,407.46 2092.58,398.99 2092.58,398.99 2092.58,390.51 2086.60,390.51 2086.60,136.22 2092.58,136.22" fill="#FF9800" fill-opacity="0.12" stroke="#FFB74D" stroke-width="0.6"/>
<polygon points="2621.79,407.37 2627.77,407.37 2627.77,407.37 2633.75,407.37 2633.75,398.99 2896.85,398.99 2633.75,398.99 2633.75,390.51 2627.77,390.51 2627.77,390.51 2621.79,390.51 2621.79,398.99 2505.18,398.99 2505.18,390.51 2499.20,390.51 2499.20,136.22 2505.18,136.22 2505.18,127.74 2621.79,127.74 2621.79,136.22 2627.77,136.22 2633.75,136.22 2633.75,127.74 2896.85,127.74 2896.85,136.22 2902.83,136.22 2902.83,390.51 2896.85,390.51 2896.85,398.99 2896.85,398.99 2896.85,407.46 2902.83,407.46 2902.83,644.80 2896.85,644.80 2896.85,653.28 2633.75,653.28 2633.75,644.80 2627.77,644.80 2627.77,644.80 2621.79,644.80 2621.79,653.28 2505.18,653.28 2505.18,644.80 2499.20,644.80 2499.20,407.46 2505.18,407.46 2505.18,398.99 2621.79,398.99 2621.79,407.37" fill="#FF9800" fill-opacity="0.12" stroke="#FFB74D" stroke-width="0.6"/>
<polygon class="slab-poly" data-slab-id="SLAB-001" points="365.04,1471.62 365.04,1356.39 90.57,1356.39 90.57,1471.62 365.04,1471.62" fill="#F9A825" fill-opacity="0.55" stroke="#FFE082" stroke-width="0.8"/>
<polygon class="slab-poly" data-slab-id="SLAB-002" points="365.04,1365.72 365.04,1080.92 90.57,1080.92 90.57,1365.72 365.04,1365.72" fill="#AD1457" fill-opacity="0.5" stroke="#F48FB1" stroke-width="0.8" stroke-dasharray="6 3"/>
<text x="227.8" y="1223.3" fill="#fff" font-size="9" text-anchor="middle" dominant-baseline="middle" font-family="Segoe UI, sans-serif" paint-order="stroke" stroke="#000" stroke-width="2" pointer-events="none">SLAB-002</text>
<polygon class="slab-poly" data-slab-id="SLAB-003" points="365.04,1090.24 365.04,828.92 90.57,828.92 90.57,1090.24 365.04,1090.24" fill="#2E7D32" fill-opacity="0.55" stroke="#A5D6A7" stroke-width="0.8"/>
<text x="227.8" y="959.6" fill="#fff" font-size="9" text-anchor="middle" dominant-baseline="middle" font-family="Segoe UI, sans-serif" paint-order="stroke" stroke="#000" stroke-width="2" pointer-events="none">S6</text>
<polygon class="slab-poly" data-slab-id="SLAB-004" points="365.04,838.24 365.04,652.86 90.57,652.86 90.57,838.24 365.04,838.24" fill="#AD1457" fill-opacity="0.5" stroke="#F48FB1" stroke-width="0.8" stroke-dasharray="6 3"/>
<polygon class="slab-poly" data-slab-id="SLAB-005" points="365.04,662.18 365.04,394.32 90.57,394.32 90.57,662.18 365.04,662.18" fill="#2E7D32" fill-opacity="0.55" stroke="#A5D6A7" stroke-width="0.8"/>
<text x="227.8" y="528.3" fill="#fff" font-size="9" text-anchor="middle" dominant-baseline="middle" font-family="Segoe UI, sans-serif" paint-order="stroke" stroke="#000" stroke-width="2" pointer-events="none">S17</text>
<polygon class="slab-poly" data-slab-id="SLAB-006" points="365.04,403.65 365.04,128.38 90.57,128.38 90.57,403.65 365.04,403.65" fill="#F9A825" fill-opacity="0.55" stroke="#FFE082" stroke-width="0.8"/>
<text x="227.8" y="266.0" fill="#fff" font-size="9" text-anchor="middle" dominant-baseline="middle" font-family="Segoe UI, sans-serif" paint-order="stroke" stroke="#000" stroke-width="2" pointer-events="none">S50</text>
<polygon class="slab-poly" data-slab-id="SLAB-007" points="629.34,1471.62 629.34,1356.39 358.46,1356.39 358.46,1471.62 629.34,1471.62" fill="#F9A825" fill-opacity="0.55" stroke="#FFE082" stroke-width="0.8"/>
<polygon class="slab-poly" data-slab-id="SLAB-008" points="629.34,1365.72 629.34,1080.92 358.46,1080.92 358.46,1365.72 629.34,1365.72" fill="#AD1457" fill-opacity="0.5" stroke="#F48FB1" stroke-width="0.8" stroke-dasharray="6 3"/>
<text x="493.9" y="1223.3" fill="#fff" font-size="9" text-anchor="middle" dominant-baseline="middle" font-family="Segoe UI, sans-serif" paint-order="stroke" stroke="#000" stroke-width="2" pointer-events="none">SLAB-008</text>
<polygon class="slab-poly" data-slab-id="SLAB-009" points="629.34,1090.24 629.34,828.92 358.46,828.92 358.46,1090.24 629.34,1090.24" fill="#2E7D32" fill-opacity="0.55" stroke="#A5D6A7" stroke-width="0.8"/>
<text x="493.9" y="959.6" fill="#fff" font-size="9" text-anchor="middle" dominant-baseline="middle" font-family="Segoe UI, sans-serif" paint-order="stroke" stroke="#000" stroke-width="2" pointer-events="none">S4</text>
<polygon class="slab-poly" data-slab-id="SLAB-010" points="629.34,838.24 629.34,652.86 358.46,652.86 358.46,838.24 629.34,838.24" fill="#AD1457" fill-opacity="0.5" stroke="#F48FB1" stroke-width="0.8" stroke-dasharray="6 3"/>
<polygon class="slab-poly" data-slab-id="SLAB-011" points="629.34,662.18 629.34,394.32 358.46,394.32 358.46,662.18 629.34,662.18" fill="#2E7D32" fill-opacity="0.55" stroke="#A5D6A7" stroke-width="0.8"/>
<text x="493.9" y="528.3" fill="#fff" font-size="9" text-anchor="middle" dominant-baseline="middle" font-family="Segoe UI, sans-serif" paint-order="stroke" stroke="#000" stroke-width="2" pointer-events="none">S16</text>
<polygon class="slab-poly" data-slab-id="SLAB-012" points="629.34,403.65 629.34,128.38 358.46,128.38 358.46,403.65 629.34,403.65" fill="#F9A825" fill-opacity="0.55" stroke="#FFE082" stroke-width="0.8"/>
<text x="493.9" y="266.0" fill="#fff" font-size="9" text-anchor="middle" dominant-baseline="middle" font-family="Segoe UI, sans-serif" paint-order="stroke" stroke="#000" stroke-width="2" pointer-events="none">S49</text>
<polygon class="slab-poly" data-slab-id="SLAB-013" points="910.39,1471.62 910.39,1356.39 622.77,1356.39 622.77,1471.62 910.39,1471.62" fill="#F9A825" fill-opacity="0.55" stroke="#FFE082" stroke-width="0.8"/>
<polygon class="slab-poly" data-slab-id="SLAB-014" points="910.39,1365.72 910.39,1080.92 622.77,1080.92 622.77,1365.72 910.39,1365.72" fill="#AD1457" fill-opacity="0.5" stroke="#F48FB1" stroke-width="0.8" stroke-dasharray="6 3"/>
<text x="766.6" y="1223.3" fill="#fff" font-size="9" text-anchor="middle" dominant-baseline="middle" font-family="Segoe UI, sans-serif" paint-order="stroke" stroke="#000" stroke-width="2" pointer-events="none">SLAB-014</text>
<polygon class="slab-poly" data-slab-id="SLAB-015" points="910.39,1090.24 910.39,828.92 622.77,828.92 622.77,1090.24 910.39,1090.24" fill="#F9A825" fill-opacity="0.55" stroke="#FFE082" stroke-width="0.8"/>
<text x="766.6" y="959.6" fill="#fff" font-size="9" text-anchor="middle" dominant-baseline="middle" font-family="Segoe UI, sans-serif" paint-order="stroke" stroke="#000" stroke-width="2" pointer-events="none">S13</text>
<polygon class="slab-poly" data-slab-id="SLAB-016" points="910.39,838.24 910.39,652.86 622.77,652.86 622.77,838.24 910.39,838.24" fill="#AD1457" fill-opacity="0.5" stroke="#F48FB1" stroke-width="0.8" stroke-dasharray="6 3"/>
<polygon class="slab-poly" data-slab-id="SLAB-017" points="910.39,662.18 910.39,394.32 622.77,394.32 622.77,662.18 910.39,662.18" fill="#F9A825" fill-opacity="0.55" stroke="#FFE082" stroke-width="0.8"/>
<text x="766.6" y="528.3" fill="#fff" font-size="9" text-anchor="middle" dominant-baseline="middle" font-family="Segoe UI, sans-serif" paint-order="stroke" stroke="#000" stroke-width="2" pointer-events="none">S26</text>
<polygon class="slab-poly" data-slab-id="SLAB-018" points="910.39,403.65 910.39,128.38 622.77,128.38 622.77,403.65 910.39,403.65" fill="#AD1457" fill-opacity="0.5" stroke="#F48FB1" stroke-width="0.8" stroke-dasharray="6 3"/>
<text x="766.6" y="266.0" fill="#fff" font-size="9" text-anchor="middle" dominant-baseline="middle" font-family="Segoe UI, sans-serif" paint-order="stroke" stroke="#000" stroke-width="2" pointer-events="none">SLAB-018</text>
<polygon class="slab-poly" data-slab-id="SLAB-019" points="1191.43,1471.62 1191.43,1356.39 903.81,1356.39 903.81,1471.62 1191.43,1471.62" fill="#F9A825" fill-opacity="0.55" stroke="#FFE082" stroke-width="0.8"/>
<polygon class="slab-poly" data-slab-id="SLAB-020" points="1191.43,838.24 1191.43,652.86 903.81,652.86 903.81,838.24 1191.43,838.24" fill="#F9A825" fill-opacity="0.55" stroke="#FFE082" stroke-width="0.8"/>
<polygon class="slab-poly" data-slab-id="SLAB-021" points="1191.43,662.18 1191.43,394.32 903.81,394.32 903.81,662.18 1191.43,662.18" fill="#F9A825" fill-opacity="0.55" stroke="#FFE082" stroke-width="0.8"/>
<text x="1047.6" y="528.3" fill="#fff" font-size="9" text-anchor="middle" dominant-baseline="middle" font-family="Segoe UI, sans-serif" paint-order="stroke" stroke="#000" stroke-width="2" pointer-events="none">S38</text>
<polygon class="slab-poly" data-slab-id="SLAB-022" points="1191.43,403.65 1191.43,128.38 903.81,128.38 903.81,403.65 1191.43,403.65" fill="#AD1457" fill-opacity="0.5" stroke="#F48FB1" stroke-width="0.8" stroke-dasharray="6 3"/>
<text x="1047.6" y="266.0" fill="#fff" font-size="9" text-anchor="middle" dominant-baseline="middle" font-family="Segoe UI, sans-serif" paint-order="stroke" stroke="#000" stroke-width="2" pointer-events="none">SLAB-022</text>
<polygon class="slab-poly" data-slab-id="SLAB-023" points="1330.16,662.18 1330.16,318.04 1184.86,318.04 1184.86,662.18 1330.16,662.18" fill="#F9A825" fill-opacity="0.55" stroke="#FFE082" stroke-width="0.8"/>
<polygon class="slab-poly" data-slab-id="SLAB-024" points="1330.16,327.36 1330.16,128.38 1184.86,128.38 1184.86,327.36 1330.16,327.36" fill="#2E7D32" fill-opacity="0.55" stroke="#A5D6A7" stroke-width="0.8"/>
<polygon class="slab-poly" data-slab-id="SLAB-025" points="1680.27,1471.62 1680.27,1267.88 1323.58,1267.88 1323.58,1471.62 1680.27,1471.62" fill="#66BB6A" fill-opacity="0.45" stroke="#66BB6A" stroke-width="0.8"/>
<text x="1501.9" y="1369.8" fill="#fff" font-size="9" text-anchor="middle" dominant-baseline="middle" font-family="Segoe UI, sans-serif" paint-order="stroke" stroke="#000" stroke-width="2" pointer-events="none">S14</text>
<polygon class="slab-poly" data-slab-id="SLAB-026" points="1680.27,1277.20 1680.27,1080.92 1323.58,1080.92 1323.58,1277.20 1680.27,1277.20" fill="#F9A825" fill-opacity="0.55" stroke="#FFE082" stroke-width="0.8"/>
<text x="1501.9" y="1179.1" fill="#fff" font-size="9" text-anchor="middle" dominant-baseline="middle" font-family="Segoe UI, sans-serif" paint-order="stroke" stroke="#000" stroke-width="2" pointer-events="none">S29</text>
<polygon class="slab-poly" data-slab-id="SLAB-027" points="1680.27,1090.24 1680.27,828.92 1323.58,828.92 1323.58,1090.24 1680.27,1090.24" fill="#2E7D32" fill-opacity="0.55" stroke="#A5D6A7" stroke-width="0.8"/>
<text x="1501.9" y="959.6" fill="#fff" font-size="9" text-anchor="middle" dominant-baseline="middle" font-family="Segoe UI, sans-serif" paint-order="stroke" stroke="#000" stroke-width="2" pointer-events="none">S53</text>
<polygon class="slab-poly" data-slab-id="SLAB-028" points="1680.27,838.24 1680.27,652.86 1323.58,652.86 1323.58,838.24 1680.27,838.24" fill="#F9A825" fill-opacity="0.55" stroke="#FFE082" stroke-width="0.8"/>
<text x="1501.9" y="745.5" fill="#fff" font-size="9" text-anchor="middle" dominant-baseline="middle" font-family="Segoe UI, sans-serif" paint-order="stroke" stroke="#000" stroke-width="2" pointer-events="none">S28</text>
<polygon class="slab-poly" data-slab-id="SLAB-029" points="1680.27,662.18 1680.27,394.32 1323.58,394.32 1323.58,662.18 1680.27,662.18" fill="#F9A825" fill-opacity="0.55" stroke="#FFE082" stroke-width="0.8"/>
<text x="1501.9" y="528.3" fill="#fff" font-size="9" text-anchor="middle" dominant-baseline="middle" font-family="Segoe UI, sans-serif" paint-order="stroke" stroke="#000" stroke-width="2" pointer-events="none">S39</text>
<polygon class="slab-poly" data-slab-id="SLAB-030" points="1680.27,403.65 1680.27,318.04 1323.58,318.04 1323.58,403.65 1680.27,403.65" fill="#F9A825" fill-opacity="0.55" stroke="#FFE082" stroke-width="0.8"/>
<polygon class="slab-poly" data-slab-id="SLAB-031" points="1805.85,1471.62 1805.85,1080.92 1673.70,1080.92 1673.70,1471.62 1805.85,1471.62" fill="#2E7D32" fill-opacity="0.55" stroke="#A5D6A7" stroke-width="0.8"/>
<polygon class="slab-poly" data-slab-id="SLAB-032" points="1805.85,1090.24 1805.85,652.86 1673.70,652.86 1673.70,1090.24 1805.85,1090.24" fill="#2E7D32" fill-opacity="0.55" stroke="#A5D6A7" stroke-width="0.8"/>
<polygon class="slab-poly" data-slab-id="SLAB-033" points="1805.85,662.18 1805.85,318.04 1673.70,318.04 1673.70,662.18 1805.85,662.18" fill="#AD1457" fill-opacity="0.5" stroke="#F48FB1" stroke-width="0.8" stroke-dasharray="6 3"/>
<polygon class="slab-poly" data-slab-id="SLAB-034" points="1805.85,327.36 1805.85,128.38 1673.70,128.38 1673.70,327.36 1805.85,327.36" fill="#F9A825" fill-opacity="0.55" stroke="#FFE082" stroke-width="0.8"/>
<polygon class="slab-poly" data-slab-id="SLAB-035" points="2086.90,1471.62 2086.90,1356.39 1799.28,1356.39 1799.28,1471.62 2086.90,1471.62" fill="#F9A825" fill-opacity="0.55" stroke="#FFE082" stroke-width="0.8"/>
<polygon class="slab-poly" data-slab-id="SLAB-036" points="2086.90,1365.72 2086.90,1080.92 1799.28,1080.92 1799.28,1365.72 2086.90,1365.72" fill="#AD1457" fill-opacity="0.5" stroke="#F48FB1" stroke-width="0.8" stroke-dasharray="6 3"/>
<text x="1943.1" y="1223.3" fill="#fff" font-size="9" text-anchor="middle" dominant-baseline="middle" font-family="Segoe UI, sans-serif" paint-order="stroke" stroke="#000" stroke-width="2" pointer-events="none">SLAB-036</text>
<polygon class="slab-poly" data-slab-id="SLAB-037" points="2086.90,1090.24 2086.90,828.92 1799.28,828.92 1799.28,1090.24 2086.90,1090.24" fill="#F9A825" fill-opacity="0.55" stroke="#FFE082" stroke-width="0.8"/>
<text x="1943.1" y="959.6" fill="#fff" font-size="9" text-anchor="middle" dominant-baseline="middle" font-family="Segoe UI, sans-serif" paint-order="stroke" stroke="#000" stroke-width="2" pointer-events="none">S20</text>
<polygon class="slab-poly" data-slab-id="SLAB-038" points="2086.90,838.24 2086.90,652.86 1799.28,652.86 1799.28,838.24 2086.90,838.24" fill="#F9A825" fill-opacity="0.55" stroke="#FFE082" stroke-width="0.8"/>
<polygon class="slab-poly" data-slab-id="SLAB-039" points="2086.90,662.18 2086.90,394.32 1799.28,394.32 1799.28,662.18 2086.90,662.18" fill="#F9A825" fill-opacity="0.55" stroke="#FFE082" stroke-width="0.8"/>
<text x="1943.1" y="528.3" fill="#fff" font-size="9" text-anchor="middle" dominant-baseline="middle" font-family="Segoe UI, sans-serif" paint-order="stroke" stroke="#000" stroke-width="2" pointer-events="none">S45</text>
<polygon class="slab-poly" data-slab-id="SLAB-040" points="2086.90,403.65 2086.90,128.38 1799.28,128.38 1799.28,403.65 2086.90,403.65" fill="#AD1457" fill-opacity="0.5" stroke="#F48FB1" stroke-width="0.8" stroke-dasharray="6 3"/>
<text x="1943.1" y="266.0" fill="#fff" font-size="9" text-anchor="middle" dominant-baseline="middle" font-family="Segoe UI, sans-serif" paint-order="stroke" stroke="#000" stroke-width="2" pointer-events="none">SLAB-040</text>
<polygon class="slab-poly" data-slab-id="SLAB-041" points="2367.95,1471.62 2367.95,1356.39 2080.32,1356.39 2080.32,1471.62 2367.95,1471.62" fill="#F9A825" fill-opacity="0.55" stroke="#FFE082" stroke-width="0.8"/>
<polygon class="slab-poly" data-slab-id="SLAB-042" points="2367.95,1365.72 2367.95,1080.92 2080.32,1080.92 2080.32,1365.72 2367.95,1365.72" fill="#66BB6A" fill-opacity="0.45" stroke="#66BB6A" stroke-width="0.8"/>
<text x="2224.1" y="1223.3" fill="#fff" font-size="9" text-anchor="middle" dominant-baseline="middle" font-family="Segoe UI, sans-serif" paint-order="stroke" stroke="#000" stroke-width="2" pointer-events="none">S43</text>
<polygon class="slab-poly" data-slab-id="SLAB-043" points="2367.95,1090.24 2367.95,828.92 2080.32,828.92 2080.32,1090.24 2367.95,1090.24" fill="#F9A825" fill-opacity="0.55" stroke="#FFE082" stroke-width="0.8"/>
<text x="2224.1" y="959.6" fill="#fff" font-size="9" text-anchor="middle" dominant-baseline="middle" font-family="Segoe UI, sans-serif" paint-order="stroke" stroke="#000" stroke-width="2" pointer-events="none">S22</text>
<polygon class="slab-poly" data-slab-id="SLAB-044" points="2367.95,838.24 2367.95,652.86 2080.32,652.86 2080.32,838.24 2367.95,838.24" fill="#F9A825" fill-opacity="0.55" stroke="#FFE082" stroke-width="0.8"/>
<polygon class="slab-poly" data-slab-id="SLAB-045" points="2367.95,662.18 2367.95,394.32 2080.32,394.32 2080.32,662.18 2367.95,662.18" fill="#F9A825" fill-opacity="0.55" stroke="#FFE082" stroke-width="0.8"/>
<text x="2224.1" y="528.3" fill="#fff" font-size="9" text-anchor="middle" dominant-baseline="middle" font-family="Segoe UI, sans-serif" paint-order="stroke" stroke="#000" stroke-width="2" pointer-events="none">S46</text>
<polygon class="slab-poly" data-slab-id="SLAB-046" points="2367.95,403.65 2367.95,128.38 2080.32,128.38 2080.32,403.65 2367.95,403.65" fill="#AD1457" fill-opacity="0.5" stroke="#F48FB1" stroke-width="0.8" stroke-dasharray="6 3"/>
<text x="2224.1" y="266.0" fill="#fff" font-size="9" text-anchor="middle" dominant-baseline="middle" font-family="Segoe UI, sans-serif" paint-order="stroke" stroke="#000" stroke-width="2" pointer-events="none">SLAB-046</text>
<polygon class="slab-poly" data-slab-id="SLAB-047" points="2631.06,1471.62 2631.06,1356.39 2361.37,1356.39 2361.37,1471.62 2631.06,1471.62" fill="#2E7D32" fill-opacity="0.55" stroke="#A5D6A7" stroke-width="0.8"/>
<polygon class="slab-poly" data-slab-id="SLAB-048" points="2631.06,1365.72 2631.06,1080.92 2361.37,1080.92 2361.37,1365.72 2631.06,1365.72" fill="#AD1457" fill-opacity="0.5" stroke="#F48FB1" stroke-width="0.8" stroke-dasharray="6 3"/>
<text x="2496.2" y="1223.3" fill="#fff" font-size="9" text-anchor="middle" dominant-baseline="middle" font-family="Segoe UI, sans-serif" paint-order="stroke" stroke="#000" stroke-width="2" pointer-events="none">SLAB-048</text>
<polygon class="slab-poly" data-slab-id="SLAB-049" points="2631.06,1090.24 2631.06,828.92 2361.37,828.92 2361.37,1090.24 2631.06,1090.24" fill="#2E7D32" fill-opacity="0.55" stroke="#A5D6A7" stroke-width="0.8"/>
<text x="2496.2" y="959.6" fill="#fff" font-size="9" text-anchor="middle" dominant-baseline="middle" font-family="Segoe UI, sans-serif" paint-order="stroke" stroke="#000" stroke-width="2" pointer-events="none">S1</text>
<polygon class="slab-poly" data-slab-id="SLAB-050" points="2631.06,838.24 2631.06,652.86 2361.37,652.86 2361.37,838.24 2631.06,838.24" fill="#2E7D32" fill-opacity="0.55" stroke="#A5D6A7" stroke-width="0.8"/>
<polygon class="slab-poly" data-slab-id="SLAB-051" points="2631.06,662.18 2631.06,394.32 2361.37,394.32 2361.37,662.18 2631.06,662.18" fill="#F9A825" fill-opacity="0.55" stroke="#FFE082" stroke-width="0.8"/>
<text x="2496.2" y="528.3" fill="#fff" font-size="9" text-anchor="middle" dominant-baseline="middle" font-family="Segoe UI, sans-serif" paint-order="stroke" stroke="#000" stroke-width="2" pointer-events="none">S10</text>
<polygon class="slab-poly" data-slab-id="SLAB-052" points="2631.06,403.65 2631.06,128.38 2361.37,128.38 2361.37,403.65 2631.06,403.65" fill="#2E7D32" fill-opacity="0.55" stroke="#A5D6A7" stroke-width="0.8"/>
<text x="2496.2" y="266.0" fill="#fff" font-size="9" text-anchor="middle" dominant-baseline="middle" font-family="Segoe UI, sans-serif" paint-order="stroke" stroke="#000" stroke-width="2" pointer-events="none">S41</text>
<polygon class="slab-poly" data-slab-id="SLAB-053" points="2909.11,1471.62 2909.11,1356.39 2624.48,1356.39 2624.48,1471.62 2909.11,1471.62" fill="#F9A825" fill-opacity="0.55" stroke="#FFE082" stroke-width="0.8"/>
<polygon class="slab-poly" data-slab-id="SLAB-054" points="2909.11,1365.72 2909.11,1080.92 2624.48,1080.92 2624.48,1365.72 2909.11,1365.72" fill="#AD1457" fill-opacity="0.5" stroke="#F48FB1" stroke-width="0.8" stroke-dasharray="6 3"/>
<text x="2766.8" y="1223.3" fill="#fff" font-size="9" text-anchor="middle" dominant-baseline="middle" font-family="Segoe UI, sans-serif" paint-order="stroke" stroke="#000" stroke-width="2" pointer-events="none">SLAB-054</text>
<polygon class="slab-poly" data-slab-id="SLAB-055" points="2909.11,1090.24 2909.11,828.92 2624.48,828.92 2624.48,1090.24 2909.11,1090.24" fill="#F9A825" fill-opacity="0.55" stroke="#FFE082" stroke-width="0.8"/>
<text x="2766.8" y="959.6" fill="#fff" font-size="9" text-anchor="middle" dominant-baseline="middle" font-family="Segoe UI, sans-serif" paint-order="stroke" stroke="#000" stroke-width="2" pointer-events="none">S7</text>
<polygon class="slab-poly" data-slab-id="SLAB-056" points="2909.11,838.24 2909.11,652.86 2624.48,652.86 2624.48,838.24 2909.11,838.24" fill="#66BB6A" fill-opacity="0.45" stroke="#66BB6A" stroke-width="0.8"/>
<polygon class="slab-poly" data-slab-id="SLAB-057" points="2909.11,403.65 2909.11,128.38 2624.48,128.38 2624.48,403.65 2909.11,403.65" fill="#AD1457" fill-opacity="0.5" stroke="#F48FB1" stroke-width="0.8" stroke-dasharray="6 3"/>
<text x="2766.8" y="266.0" fill="#fff" font-size="9" text-anchor="middle" dominant-baseline="middle" font-family="Segoe UI, sans-serif" paint-order="stroke" stroke="#000" stroke-width="2" pointer-events="none">SLAB-057</text>
<polygon class="slab-poly" data-slab-id="SLAB-058" points="3109.43,1471.62 3109.43,1080.92 2902.53,1080.92 2902.53,1471.62 3109.43,1471.62" fill="#F9A825" fill-opacity="0.55" stroke="#FFE082" stroke-width="0.8"/>
<text x="3006.0" y="1276.3" fill="#fff" font-size="9" text-anchor="middle" dominant-baseline="middle" font-family="Segoe UI, sans-serif" paint-order="stroke" stroke="#000" stroke-width="2" pointer-events="none">S52-PL</text>
<polygon class="slab-poly" data-slab-id="SLAB-059" points="3109.43,1090.24 3109.43,828.92 2902.53,828.92 2902.53,1090.24 3109.43,1090.24" fill="#66BB6A" fill-opacity="0.45" stroke="#66BB6A" stroke-width="0.8"/>
<polygon class="slab-poly" data-slab-id="SLAB-060" points="3109.43,327.36 3109.43,128.38 2902.53,128.38 2902.53,327.36 3109.43,327.36" fill="#66BB6A" fill-opacity="0.45" stroke="#66BB6A" stroke-width="0.8"/>
</svg>