<svg xmlns="http://www.w3.org/2000/svg" width="3200" height="1600" viewBox="0 0 3200 1600">
<rect width="100%" height="100%" fill="#121212"/>
<polygon points="598.16,1378.38 598.16,1390.25 419.04,1390.25 419.04,1378.38 598.16,1378.38" fill="#FF9800" fill-opacity="0.12" stroke="#FFB74D" stroke-width="0.6"/>
<polygon points="327.19,1390.25 338.00,1390.25 338.00,1390.25 383.92,1390.25 383.92,1390.25 402.83,1390.25 402.83,1396.19 408.23,1396.19 408.28,1485.28 402.83,1485.29 402.83,1491.22 401.70,1491.23 413.63,1491.23 413.63,1396.19 419.04,1396.19 419.04,1390.25 598.16,1390.25 598.16,1402.13 424.44,1402.13 424.44,1497.17 419.04,1497.17 419.04,1503.10 85.43,1503.10 85.43,1497.17 80.03,1497.17 80.03,1157.12 90.84,1157.12 90.84,1329.36 96.24,1329.36 96.24,1157.12 107.04,1157.12 107.04,1335.30 175.92,1335.30 175.92,1341.24 181.33,1341.24 181.33,1350.74 175.92,1350.74 175.92,1356.68 107.04,1356.68 107.04,1372.57 178.86,1372.57 178.86,1384.45 101.64,1384.45 101.64,1378.51 96.24,1378.51 96.24,1356.68 90.84,1356.68 90.84,1491.23 101.53,1491.23 101.53,1485.43 96.24,1485.43 96.24,1396.31 101.64,1396.31 101.64,1390.37 186.73,1390.37 316.39,1390.25 316.39,1396.19 321.79,1396.19 321.79,1485.29 321.79,1396.19 327.19,1396.19 327.19,1390.25" fill="#FF9800" fill-opacity="0.12" stroke="#FFB74D" stroke-width="0.6"/>
<polygon points="600.02,1315.11 719.65,1315.11 719.65,1326.99 600.02,1326.99 600.02,1315.11" fill="#FF9800" fill-opacity="0.12" stroke="#FFB74D" stroke-width="0.6"/>
<polygon points="600.02,1303.23 719.65,1303.23 719.65,1315.11 600.02,1315.11 600.02,1303.23" fill="#FF9800" fill-opacity="0.12" stroke="#FFB74D" stroke-width="0.6"/>
<polygon points="735.86,1283.34 846.07,1283.34 846.07,1295.22 735.86,1295.22 735.86,1283.34" fill="#FF9800" fill-opacity="0.12" stroke="#FFB74D" stroke-width="0.6"/>
<polygon points="776.38,1265.53 776.38,1277.40 741.26,1277.40 741.26,1265.53 776.38,1265.53" fill="#FF9800" fill-opacity="0.12" stroke="#FFB74D" stroke-width="0.6"/>
<polygon points="321.79,1157.12 321.79,1151.18 402.83,1151.18 402.83,1157.12 408.23,1157.12 408.23,1224.08 402.83,1224.08 402.83,1230.02 402.83,1241.90 327.19,1241.90 327.19,1372.57 402.83,1372.57 402.83,1384.45 236.70,1384.45 236.70,1372.57 276.41,1372.57 276.41,1341.24 281.81,1341.24 281.81,1335.30 305.58,1335.30 305.58,1157.12 316.39,1157.12 316.39,1157.12 321.79,1157.12" fill="#FF9800" fill-opacity="0.12" stroke="#FFB74D" stroke-width="0.6"/>
<polygon points="719.65,1246.21 719.65,1258.09 600.02,1258.09 600.02,1246.21 719.65,1246.21" fill="#FF9800" fill-opacity="0.12" stroke="#FFB74D" stroke-width="0.6"/>
<polygon points="600.02,1234.33 719.65,1234.33 719.65,1246.21 600.02,1246.21 600.02,1234.33" fill="#FF9800" fill-opacity="0.12" stroke="#FFB74D" stroke-width="0.6"/>
<polygon points="424.44,1157.12 424.44,1224.08 413.64,1224.08 413.63,1157.12 424.44,1157.12" fill="#FF9800" fill-opacity="0.12" stroke="#FFB74D" stroke-width="0.6"/>
<polygon points="321.79,1133.38 402.83,1133.36 402.83,1145.24 321.79,1145.26 321.79,1133.38" fill="#FF9800" fill-opacity="0.12" stroke="#FFB74D" stroke-width="0.6"/>
<polygon points="198.31,943.30 209.12,943.30 209.12,1139.30 198.31,1139.30 198.31,1139.30 187.51,1139.30 187.51,943.30 198.31,943.30 198.31,943.30" fill="#FF9800" fill-opacity="0.12" stroke="#FFB74D" stroke-width="0.6"/>
<polygon points="578.41,907.66 578.41,919.54 487.35,919.54 487.35,907.66 578.41,907.66" fill="#FF9800" fill-opacity="0.12" stroke="#FFB74D" stroke-width="0.6"/>
<polygon points="920.62,907.66 920.62,919.54 766.65,919.54 766.65,907.66 920.62,907.66" fill="#FF9800" fill-opacity="0.12" stroke="#FFB74D" stroke-width="0.6"/>
<polygon points="600.02,907.66 745.04,907.66 745.04,919.54 600.02,919.54 600.02,907.66" fill="#FF9800" fill-opacity="0.12" stroke="#FFB74D" stroke-width="0.6"/>
<polygon points="920.62,883.90 920.62,895.78 766.65,895.78 766.65,883.90 920.62,883.90" fill="#FF9800" fill-opacity="0.12" stroke="#FFB74D" stroke-width="0.6"/>
<polygon points="745.04,895.78 600.02,895.78 600.02,883.90 745.04,883.90 745.04,895.78" fill="#FF9800" fill-opacity="0.12" stroke="#FFB74D" stroke-width="0.6"/>
<polygon points="184.26,925.48 173.46,925.48 173.46,771.05 184.26,771.05 184.26,925.48" fill="#FF9800" fill-opacity="0.12" stroke="#FFB74D" stroke-width="0.6"/>
<polygon points="205.87,771.05 205.87,765.11 470.51,765.11 470.51,771.05 476.56,771.05 476.56,889.84 465.75,889.84 465.75,776.99 211.28,776.99 211.28,925.48 200.47,925.48 200.47,771.05 205.87,771.05" fill="#FF9800" fill-opacity="0.12" stroke="#FFB74D" stroke-width="0.6"/>
<polygon points="492.75,883.90 578.41,883.90 578.41,895.78 487.35,895.78 487.35,889.84 481.94,889.84 481.94,771.05 492.75,771.05 492.75,883.90" fill="#FF9800" fill-opacity="0.12" stroke="#FFB74D" stroke-width="0.6"/>
<polygon points="205.87,747.29 471.15,747.29 471.15,759.17 205.87,759.17 205.87,747.29" fill="#FF9800" fill-opacity="0.12" stroke="#FFB74D" stroke-width="0.6"/>
<polygon points="702.90,753.23 702.90,676.02 570.00,676.02 570.00,753.23 559.20,753.23 559.20,753.23 548.39,753.23 548.39,676.02 503.03,676.02 503.03,676.02 497.61,676.02 497.61,676.02 497.61,670.08 492.21,670.08 492.21,652.26 497.61,652.26 497.61,646.32 497.61,646.32 497.61,646.32 503.03,646.32 503.03,646.32 540.84,646.32 540.84,646.32 627.27,646.32 627.27,646.32 851.47,646.32 851.47,658.20 770.43,658.20 770.43,664.14 851.47,664.14 851.47,676.02 729.91,676.02 729.91,753.23 729.91,753.23 724.51,753.23 724.51,759.17 713.71,759.17 713.71,753.23 708.30,753.23 708.30,753.23 702.90,753.23" fill="#FF9800" fill-opacity="0.12" stroke="#FFB74D" stroke-width="0.6"/>
<polygon points="878.48,664.14 1032.45,664.14 1032.45,676.02 878.48,676.02 878.48,664.14" fill="#FF9800" fill-opacity="0.12" stroke="#FFB74D" stroke-width="0.6"/>
<polygon points="1032.45,646.32 1032.45,658.20 878.48,658.20 878.48,646.32 1032.45,646.32" fill="#FF9800" fill-opacity="0.12" stroke="#FFB74D" stroke-width="0.6"/>
<polygon points="184.26,625.50 173.46,625.50 173.46,494.84 184.26,494.84 184.26,625.50" fill="#FF9800" fill-opacity="0.12" stroke="#FFB74D" stroke-width="0.6"/>
<polygon points="211.28,625.50 200.47,625.50 200.47,494.84 211.28,494.84 211.28,625.50" fill="#FF9800" fill-opacity="0.12" stroke="#FFB74D" stroke-width="0.6"/>
<polygon points="1032.45,497.84 1032.45,509.72 878.48,509.72 878.48,497.84 1032.45,497.84" fill="#FF9800" fill-opacity="0.12" stroke="#FFB74D" stroke-width="0.6"/>
<polygon points="1032.45,491.90 878.48,491.90 878.48,491.90 878.48,491.90 878.48,485.96 878.48,480.02 878.48,480.02 878.48,480.02 891.99,480.02 891.99,480.02 1032.45,480.02 1032.45,491.90" fill="#FF9800" fill-opacity="0.12" stroke="#FFB74D" stroke-width="0.6"/>
<polygon points="462.49,187.53 473.30,187.53 473.30,652.26 470.60,652.26 470.60,652.26 476.00,652.26 476.00,670.15 470.60,670.15 470.60,676.09 430.08,676.09 430.08,676.07 205.87,675.96 205.87,670.02 200.53,670.02 200.53,652.20 205.87,652.20 205.87,646.36 205.94,646.36 205.94,646.26 395.48,646.26 395.48,646.36 430.08,646.36 430.08,646.32 462.49,646.32 462.49,187.53" fill="#FF9800" fill-opacity="0.12" stroke="#FFB74D" stroke-width="0.6"/>
<polygon points="503.01,580.99 492.21,580.99 492.21,187.53 503.01,187.53 503.01,580.99" fill="#FF9800" fill-opacity="0.12" stroke="#FFB74D" stroke-width="0.6"/>
<polygon points="856.87,187.53 856.87,390.93 846.07,390.93 846.07,187.53 856.87,187.53" fill="#FF9800" fill-opacity="0.12" stroke="#FFB74D" stroke-width="0.6"/>
<polygon points="873.08,185.13 883.89,185.13 883.88,390.93 873.08,390.93 873.08,185.13" fill="#FF9800" fill-opacity="0.12" stroke="#FFB74D" stroke-width="0.6"/>
<polygon points="205.87,284.02 205.87,272.14 242.07,272.14 242.07,111.77 247.47,111.77 247.47,105.83 467.89,105.83 467.89,117.71 252.88,117.71 252.88,278.08 247.47,278.08 247.47,284.02 205.87,284.02" fill="#FF9800" fill-opacity="0.12" stroke="#FFB74D" stroke-width="0.6"/>
<polygon points="231.27,260.26 205.87,260.26 205.87,248.38 225.86,248.38 225.86,117.71 205.87,117.71 205.87,105.83 231.27,105.83 231.27,111.77 236.67,111.77 236.67,254.32 231.27,254.32 231.27,260.26" fill="#FF9800" fill-opacity="0.12" stroke="#FFB74D" stroke-width="0.6"/>
<polygon points="851.47,117.71 497.61,117.71 497.61,105.83 851.47,105.83 851.47,117.71" fill="#FF9800" fill-opacity="0.12" stroke="#FFB74D" stroke-width="0.6"/>
<polygon points="205.87,88.01 497.61,88.01 497.61,93.95 497.61,88.01 851.47,88.01 851.47,99.89 497.61,99.89 497.61,99.89 205.87,99.89 205.87,88.01" fill="#FF9800" fill-opacity="0.12" stroke="#FFB74D" stroke-width="0.6"/>
<polygon points="1326.89,1188.31 1391.72,1188.31 1391.72,1200.19 1326.89,1200.19 1326.89,1188.31" fill="#FF9800" fill-opacity="0.12" stroke="#FFB74D" stroke-width="0.6"/>
<polygon points="1326.89,1170.49 1391.72,1170.49 1391.72,1182.37 1326.89,1182.37 1326.89,1170.49" fill="#FF9800" fill-opacity="0.12" stroke="#FFB74D" stroke-width="0.6"/>
<polygon points="1283.67,1176.43 1272.86,1176.43 1272.86,1079.91 1283.67,1079.91 1283.67,1176.43" fill="#FF9800" fill-opacity="0.12" stroke="#FFB74D" stroke-width="0.6"/>
<polygon points="1299.88,1079.91 1299.88,1176.43 1289.07,1176.43 1289.07,1079.91 1299.88,1079.91" fill="#FF9800" fill-opacity="0.12" stroke="#FFB74D" stroke-width="0.6"/>
<polygon points="1272.86,913.60 1283.67,913.60 1283.67,1057.48 1272.86,1057.48 1272.86,913.60" fill="#FF9800" fill-opacity="0.12" stroke="#FFB74D" stroke-width="0.6"/>
<polygon points="1289.07,1057.48 1289.07,913.60 1299.88,913.60 1299.88,1057.48 1289.07,1057.48" fill="#FF9800" fill-opacity="0.12" stroke="#FFB74D" stroke-width="0.6"/>
<polygon points="1445.74,765.11 1780.70,765.11 1780.70,771.05 1786.10,771.05 1786.10,889.84 1780.70,889.84 1780.70,895.78 1780.70,895.78 1780.70,907.66 1630.27,907.66 1630.27,901.72 1630.27,907.66 1629.43,907.66 1629.43,1071.59 1780.70,1071.59 1780.70,1083.47 1751.52,1083.47 1751.52,1089.41 1756.93,1089.41 1756.93,1170.19 1751.52,1170.19 1751.52,1176.13 1762.78,1176.13 1762.78,1170.19 1757.38,1170.19 1757.38,1089.41 1762.78,1089.41 1762.78,1083.47 1781.15,1083.47 1781.15,1095.35 1768.18,1095.35 1768.18,1164.25 1781.15,1164.25 1781.15,1176.13 1780.70,1176.13 1780.70,1188.00 1445.74,1188.00 1445.74,1176.13 1445.74,1164.25 1607.82,1164.25 1607.82,907.66 1445.74,907.66 1445.74,895.78 1445.74,895.78 1445.74,889.84 1440.34,889.84 1440.34,771.05 1445.74,771.05 1445.74,765.11" fill="#FF9800" fill-opacity="0.12" stroke="#FFB74D" stroke-width="0.6"/>
<polygon points="1095.12,919.54 942.23,919.54 942.23,907.66 1095.12,907.66 1095.12,919.54" fill="#FF9800" fill-opacity="0.12" stroke="#FFB74D" stroke-width="0.6"/>
<polygon points="1418.73,907.66 1418.73,919.54 1299.88,919.54 1299.88,907.66 1418.73,907.66" fill="#FF9800" fill-opacity="0.12" stroke="#FFB74D" stroke-width="0.6"/>
<polygon points="1096.20,883.90 1096.20,895.78 942.23,895.78 942.23,883.90 1096.20,883.90" fill="#FF9800" fill-opacity="0.12" stroke="#FFB74D" stroke-width="0.6"/>
<polygon points="1299.88,883.90 1418.73,883.90 1418.73,895.78 1299.88,895.78 1299.88,883.90" fill="#FF9800" fill-opacity="0.12" stroke="#FFB74D" stroke-width="0.6"/>
<polygon points="1434.94,771.05 1434.94,889.84 1424.13,889.84 1424.13,771.05 1434.94,771.05" fill="#FF9800" fill-opacity="0.12" stroke="#FFB74D" stroke-width="0.6"/>
<polygon points="1445.74,747.30 1780.70,747.30 1780.70,747.30 1780.70,759.17 1780.70,759.17 1445.74,759.17 1445.74,759.17 1445.74,747.30 1445.74,747.30" fill="#FF9800" fill-opacity="0.12" stroke="#FFB74D" stroke-width="0.6"/>
<polygon points="1290.15,759.17 1290.15,753.23 1284.75,753.23 1284.75,735.41 1290.15,735.41 1290.15,729.47 1429.54,729.47 1429.54,735.41 1434.94,735.41 1434.94,753.23 1429.54,753.23 1429.54,759.17 1290.15,759.17" fill="#FF9800" fill-opacity="0.12" stroke="#FFB74D" stroke-width="0.6"/>
<polygon points="1122.67,664.14 1122.67,676.02 1048.66,676.02 1048.66,664.14 1122.67,664.14" fill="#FF9800" fill-opacity="0.12" stroke="#FFB74D" stroke-width="0.6"/>
<polygon points="1122.67,658.20 1048.66,658.20 1048.66,646.32 1122.67,646.32 1122.67,658.20" fill="#FF9800" fill-opacity="0.12" stroke="#FFB74D" stroke-width="0.6"/>
<polygon points="1440.34,598.81 1445.74,598.81 1445.74,592.87 1780.25,592.87 1780.25,598.81 1786.10,598.81 1786.10,693.25 1775.29,693.25 1775.29,604.75 1451.15,604.75 1451.15,693.25 1440.34,693.25 1440.34,598.81" fill="#FF9800" fill-opacity="0.12" stroke="#FFB74D" stroke-width="0.6"/>
<polygon points="1424.13,604.75 1259.36,604.75 1259.36,592.87 1429.54,592.87 1429.54,598.81 1434.94,598.81 1434.94,681.37 1424.13,681.37 1424.13,604.75" fill="#FF9800" fill-opacity="0.12" stroke="#FFB74D" stroke-width="0.6"/>
<polygon points="1122.68,595.25 1122.68,607.13 1051.36,607.13 1051.36,595.25 1122.68,595.25" fill="#FF9800" fill-opacity="0.12" stroke="#FFB74D" stroke-width="0.6"/>
<polygon points="878.48,595.24 1032.45,595.24 1032.45,607.12 878.48,607.12 878.48,595.24" fill="#FF9800" fill-opacity="0.12" stroke="#FFB74D" stroke-width="0.6"/>
<polygon points="1138.88,595.24 1051.36,595.24 1051.36,583.37 1138.88,583.37 1138.88,583.37 1232.35,583.37 1232.35,583.37 1232.80,583.37 1232.80,595.24 1232.35,595.24 1232.35,607.12 1138.88,607.12 1138.88,595.24" fill="#FF9800" fill-opacity="0.12" stroke="#FFB74D" stroke-width="0.6"/>
<polygon points="1032.45,583.36 1032.45,595.24 878.48,595.24 878.48,583.36 1032.45,583.36" fill="#FF9800" fill-opacity="0.12" stroke="#FFB74D" stroke-width="0.6"/>
<polygon points="1032.45,551.89 1032.45,563.76 878.48,563.77 878.48,551.89 1032.45,551.89" fill="#FF9800" fill-opacity="0.12" stroke="#FFB74D" stroke-width="0.6"/>
<polygon points="878.48,540.01 1032.45,540.01 1032.45,551.89 878.48,551.89 878.48,540.01" fill="#FF9800" fill-opacity="0.12" stroke="#FFB74D" stroke-width="0.6"/>
<polygon points="1424.12,159.26 1424.14,171.14 1259.37,171.48 1259.35,159.61 1424.12,159.26" fill="#FF9800" fill-opacity="0.12" stroke="#FFB74D" stroke-width="0.6"/>
<polygon points="1232.35,159.29 1232.35,171.17 878.48,171.17 878.48,159.29 1232.35,159.29" fill="#FF9800" fill-opacity="0.12" stroke="#FFB74D" stroke-width="0.6"/>
<polygon points="1780.69,158.88 1780.71,170.76 1445.30,171.47 1445.28,159.59 1780.69,158.88" fill="#FF9800" fill-opacity="0.12" stroke="#FFB74D" stroke-width="0.6"/>
<polygon points="1232.35,141.47 1232.35,153.35 878.48,153.35 878.48,141.47 1232.35,141.47" fill="#FF9800" fill-opacity="0.12" stroke="#FFB74D" stroke-width="0.6"/>
<polygon points="1259.35,141.49 1424.12,141.14 1424.14,153.02 1259.37,153.37 1259.35,141.49" fill="#FF9800" fill-opacity="0.12" stroke="#FFB74D" stroke-width="0.6"/>
<polygon points="1780.69,140.77 1780.71,152.65 1445.30,153.35 1445.28,141.47 1780.69,140.77" fill="#FF9800" fill-opacity="0.12" stroke="#FFB74D" stroke-width="0.6"/>
<polygon points="1424.12,105.78 1424.14,117.66 1259.37,118.01 1259.35,106.13 1424.12,105.78" fill="#FF9800" fill-opacity="0.12" stroke="#FFB74D" stroke-width="0.6"/>
<polygon points="878.48,105.83 1232.35,105.83 1232.35,117.71 878.48,117.71 878.48,105.83" fill="#FF9800" fill-opacity="0.12" stroke="#FFB74D" stroke-width="0.6"/>
<polygon points="1780.69,105.43 1780.71,117.31 1445.30,118.01 1445.28,106.13 1780.69,105.43" fill="#FF9800" fill-opacity="0.12" stroke="#FFB74D" stroke-width="0.6"/>
<polygon points="1232.35,99.89 878.48,99.89 878.48,88.01 1232.35,88.01 1232.35,99.89" fill="#FF9800" fill-opacity="0.12" stroke="#FFB74D" stroke-width="0.6"/>
<polygon points="1424.12,87.67 1424.14,99.55 1259.37,99.89 1259.35,88.01 1424.12,87.67" fill="#FF9800" fill-opacity="0.12" stroke="#FFB74D" stroke-width="0.6"/>
<polygon points="1445.28,88.01 1780.69,87.31 1780.71,99.19 1445.30,99.89 1445.28,88.01" fill="#FF9800" fill-opacity="0.12" stroke="#FFB74D" stroke-width="0.6"/>
<polygon points="1780.70,1434.80 1780.70,1446.68 1445.74,1446.68 1445.74,1434.80 1780.70,1434.80" fill="#FF9800" fill-opacity="0.12" stroke="#FFB74D" stroke-width="0.6"/>
<polygon points="1780.70,1416.98 1780.70,1428.86 1445.74,1428.86 1445.74,1416.98 1780.70,1416.98" fill="#FF9800" fill-opacity="0.12" stroke="#FFB74D" stroke-width="0.6"/>
<polygon points="1834.72,1200.19 1834.72,1188.31 1899.55,1188.31 1899.55,1200.19 1834.72,1200.19" fill="#FF9800" fill-opacity="0.12" stroke="#FFB74D" stroke-width="0.6"/>
<polygon points="1834.72,1182.37 1834.72,1170.49 1899.55,1170.49 1899.55,1182.37 1834.72,1182.37" fill="#FF9800" fill-opacity="0.12" stroke="#FFB74D" stroke-width="0.6"/>
<polygon points="1953.58,1079.91 1953.58,1176.43 1942.77,1176.43 1942.77,1079.91 1953.58,1079.91" fill="#FF9800" fill-opacity="0.12" stroke="#FFB74D" stroke-width="0.6"/>
<polygon points="1937.37,1079.91 1937.37,1176.43 1926.56,1176.43 1926.56,1079.91 1937.37,1079.91" fill="#FF9800" fill-opacity="0.12" stroke="#FFB74D" stroke-width="0.6"/>
<polygon points="1926.56,913.60 1937.37,913.60 1937.37,1057.48 1926.56,1057.48 1926.56,913.60" fill="#FF9800" fill-opacity="0.12" stroke="#FFB74D" stroke-width="0.6"/>
<polygon points="1942.77,913.60 1953.58,913.60 1953.58,1057.48 1942.77,1057.48 1942.77,913.60" fill="#FF9800" fill-opacity="0.12" stroke="#FFB74D" stroke-width="0.6"/>
<polygon points="1926.56,919.54 1807.71,919.54 1807.71,907.66 1926.56,907.66 1926.56,919.54" fill="#FF9800" fill-opacity="0.12" stroke="#FFB74D" stroke-width="0.6"/>
<polygon points="2131.32,919.54 2131.32,907.66 2284.21,907.66 2284.21,919.54 2131.32,919.54" fill="#FF9800" fill-opacity="0.12" stroke="#FFB74D" stroke-width="0.6"/>
<polygon points="1926.56,895.78 1807.71,895.78 1807.71,883.90 1926.56,883.90 1926.56,895.78" fill="#FF9800" fill-opacity="0.12" stroke="#FFB74D" stroke-width="0.6"/>
<polygon points="2130.24,895.78 2130.24,883.90 2284.21,883.90 2284.21,895.78 2130.24,895.78" fill="#FF9800" fill-opacity="0.12" stroke="#FFB74D" stroke-width="0.6"/>
<polygon points="1802.31,889.84 1791.50,889.84 1791.50,771.05 1802.31,771.05 1802.31,889.84" fill="#FF9800" fill-opacity="0.12" stroke="#FFB74D" stroke-width="0.6"/>
<polygon points="1796.90,753.23 1796.90,735.41 1802.31,735.41 1802.31,729.47 1930.89,729.47 1930.89,735.41 1936.29,735.41 1936.29,753.23 1930.89,753.23 1930.89,759.17 1802.31,759.17 1802.31,753.23 1796.90,753.23" fill="#FF9800" fill-opacity="0.12" stroke="#FFB74D" stroke-width="0.6"/>
<polygon points="2103.76,676.02 2103.76,664.14 2177.78,664.14 2177.78,676.02 2103.76,676.02" fill="#FF9800" fill-opacity="0.12" stroke="#FFB74D" stroke-width="0.6"/>
<polygon points="2193.99,676.02 2193.99,664.14 2347.96,664.14 2347.96,676.02 2193.99,676.02" fill="#FF9800" fill-opacity="0.12" stroke="#FFB74D" stroke-width="0.6"/>
<polygon points="2177.78,658.20 2103.76,658.20 2103.76,646.32 2177.78,646.32 2177.78,658.20" fill="#FF9800" fill-opacity="0.12" stroke="#FFB74D" stroke-width="0.6"/>
<polygon points="2193.99,658.20 2193.99,646.32 2347.96,646.32 2347.96,658.20 2193.99,658.20" fill="#FF9800" fill-opacity="0.12" stroke="#FFB74D" stroke-width="0.6"/>
<polygon points="1967.53,592.87 1967.53,604.75 1802.31,604.75 1802.31,681.37 1791.50,681.37 1791.50,598.81 1796.90,598.81 1796.90,592.87 1967.53,592.87" fill="#FF9800" fill-opacity="0.12" stroke="#FFB74D" stroke-width="0.6"/>
<polygon points="2104.21,607.13 2104.21,595.25 2175.08,595.25 2175.08,607.13 2104.21,607.13" fill="#FF9800" fill-opacity="0.12" stroke="#FFB74D" stroke-width="0.6"/>
<polygon points="1994.54,607.12 1994.54,595.24 2088.01,595.24 2088.01,607.12 1994.54,607.12" fill="#FF9800" fill-opacity="0.12" stroke="#FFB74D" stroke-width="0.6"/>
<polygon points="2347.96,607.12 2193.99,607.12 2193.99,595.24 2347.96,595.24 2347.96,607.12" fill="#FF9800" fill-opacity="0.12" stroke="#FFB74D" stroke-width="0.6"/>
<polygon points="1994.09,595.24 1994.09,583.37 2175.08,583.37 2175.08,595.24 1994.09,595.24" fill="#FF9800" fill-opacity="0.12" stroke="#FFB74D" stroke-width="0.6"/>
<polygon points="2193.99,595.24 2193.99,583.36 2347.96,583.36 2347.96,595.24 2193.99,595.24" fill="#FF9800" fill-opacity="0.12" stroke="#FFB74D" stroke-width="0.6"/>
<polygon points="1967.53,575.05 1967.53,586.93 1259.36,586.93 1259.36,575.05 1967.53,575.05" fill="#FF9800" fill-opacity="0.12" stroke="#FFB74D" stroke-width="0.6"/>
<polygon points="2347.96,563.77 2193.99,563.76 2193.99,551.89 2347.96,551.89 2347.96,563.77" fill="#FF9800" fill-opacity="0.12" stroke="#FFB74D" stroke-width="0.6"/>
<polygon points="2193.99,551.89 2193.99,540.01 2347.96,540.01 2347.96,551.89 2193.99,551.89" fill="#FF9800" fill-opacity="0.12" stroke="#FFB74D" stroke-width="0.6"/>
<polygon points="2193.99,509.72 2193.99,497.84 2347.96,497.84 2347.96,509.72 2193.99,509.72" fill="#FF9800" fill-opacity="0.12" stroke="#FFB74D" stroke-width="0.6"/>
<polygon points="1802.30,171.76 1802.32,159.88 1967.09,160.23 1967.07,172.10 1802.30,171.76" fill="#FF9800" fill-opacity="0.12" stroke="#FFB74D" stroke-width="0.6"/>
<polygon points="2347.96,171.17 1994.09,171.17 1994.09,159.29 2347.96,159.29 2347.96,171.17" fill="#FF9800" fill-opacity="0.12" stroke="#FFB74D" stroke-width="0.6"/>
<polygon points="2347.96,153.35 1994.09,153.35 1994.09,141.47 2347.96,141.47 2347.96,153.35" fill="#FF9800" fill-opacity="0.12" stroke="#FFB74D" stroke-width="0.6"/>
<polygon points="1967.07,153.35 1802.30,153.00 1802.32,141.13 1967.09,141.47 1967.07,153.35" fill="#FF9800" fill-opacity="0.12" stroke="#FFB74D" stroke-width="0.6"/>
<polygon points="1802.32,105.78 1967.09,106.13 1967.07,118.01 1802.30,117.66 1802.32,105.78" fill="#FF9800" fill-opacity="0.12" stroke="#FFB74D" stroke-width="0.6"/>
<polygon points="1994.09,105.83 2347.96,105.83 2347.96,117.71 1994.09,117.71 1994.09,105.83" fill="#FF9800" fill-opacity="0.12" stroke="#FFB74D" stroke-width="0.6"/>
<polygon points="2347.96,99.89 1994.09,99.89 1994.09,88.01 2347.96,88.01 2347.96,99.89" fill="#FF9800" fill-opacity="0.12" stroke="#FFB74D" stroke-width="0.6"/>
<polygon points="1802.30,99.55 1802.32,87.67 1967.09,88.01 1967.07,99.89 1802.30,99.55" fill="#FF9800" fill-opacity="0.12" stroke="#FFB74D" stroke-width="0.6"/>
<polygon points="2807.40,1390.25 2628.28,1390.25 2628.28,1378.38 2807.40,1378.38 2807.40,1390.25" fill="#FF9800" fill-opacity="0.12" stroke="#FFB74D" stroke-width="0.6"/>
<polygon points="2904.65,1396.19 2904.65,1485.29 2904.65,1396.19 2910.05,1396.19 2910.05,1390.25 3039.71,1390.37 3124.80,1390.37 3124.80,1396.31 3130.20,1396.31 3130.20,1485.43 3124.91,1485.43 3124.91,1491.23 3135.60,1491.23 3135.60,1356.68 3130.20,1356.68 3130.20,1378.51 3124.80,1378.51 3124.80,1384.45 3047.58,1384.45 3047.58,1372.57 3119.40,1372.57 3119.40,1356.68 3050.51,1356.68 3050.51,1350.74 3045.11,1350.74 3045.11,1341.24 3050.51,1341.24 3050.51,1335.30 3119.40,1335.30 3119.40,1157.12 3130.20,1157.12 3130.20,1329.36 3135.60,1329.36 3135.60,1157.12 3146.41,1157.12 3146.41,1497.17 3141.01,1497.17 3141.01,1503.10 2807.40,1503.10 2807.40,1497.17 2802.00,1497.17 2802.00,1402.13 2628.28,1402.13 2628.28,1390.25 2807.40,1390.25 2807.40,1396.19 2812.80,1396.19 2812.80,1491.23 2824.73,1491.23 2823.61,1491.22 2823.61,1485.29 2818.16,1485.28 2818.21,1396.19 2823.61,1396.19 2823.61,1390.25 2842.52,1390.25 2842.52,1390.25 2888.44,1390.25 2888.44,1390.25 2899.24,1390.25 2899.24,1396.19 2904.65,1396.19" fill="#FF9800" fill-opacity="0.12" stroke="#FFB74D" stroke-width="0.6"/>
<polygon points="2506.79,1326.99 2506.79,1315.11 2626.42,1315.11 2626.42,1326.99 2506.79,1326.99" fill="#FF9800" fill-opacity="0.12" stroke="#FFB74D" stroke-width="0.6"/>
<polygon points="2506.79,1315.11 2506.79,1303.23 2626.42,1303.23 2626.42,1315.11 2506.79,1315.11" fill="#FF9800" fill-opacity="0.12" stroke="#FFB74D" stroke-width="0.6"/>
<polygon points="2490.58,1295.22 2380.37,1295.22 2380.37,1283.34 2490.58,1283.34 2490.58,1295.22" fill="#FF9800" fill-opacity="0.12" stroke="#FFB74D" stroke-width="0.6"/>
<polygon points="2450.06,1277.40 2450.06,1265.53 2485.18,1265.53 2485.18,1277.40 2450.06,1277.40" fill="#FF9800" fill-opacity="0.12" stroke="#FFB74D" stroke-width="0.6"/>
<polygon points="2910.05,1157.12 2910.05,1157.12 2920.85,1157.12 2920.85,1335.30 2944.62,1335.30 2944.62,1341.24 2950.03,1341.24 2950.03,1372.57 2989.74,1372.57 2989.74,1384.45 2823.61,1384.45 2823.61,1372.57 2899.24,1372.57 2899.24,1241.90 2823.61,1241.90 2823.61,1230.02 2823.61,1224.08 2818.21,1224.08 2818.21,1157.12 2823.61,1157.12 2823.61,1151.18 2904.65,1151.18 2904.65,1157.12 2910.05,1157.12" fill="#FF9800" fill-opacity="0.12" stroke="#FFB74D" stroke-width="0.6"/>
<polygon points="2506.79,1258.09 2506.79,1246.21 2626.42,1246.21 2626.42,1258.09 2506.79,1258.09" fill="#FF9800" fill-opacity="0.12" stroke="#FFB74D" stroke-width="0.6"/>
<polygon points="2506.79,1246.21 2506.79,1234.33 2626.42,1234.33 2626.42,1246.21 2506.79,1246.21" fill="#FF9800" fill-opacity="0.12" stroke="#FFB74D" stroke-width="0.6"/>
<polygon points="2812.80,1224.08 2802.00,1224.08 2802.00,1157.12 2812.80,1157.12 2812.80,1224.08" fill="#FF9800" fill-opacity="0.12" stroke="#FFB74D" stroke-width="0.6"/>
<polygon points="2904.65,1145.26 2823.61,1145.24 2823.61,1133.36 2904.65,1133.38 2904.65,1145.26" fill="#FF9800" fill-opacity="0.12" stroke="#FFB74D" stroke-width="0.6"/>
<polygon points="3017.32,1139.30 3017.32,943.30 3028.13,943.30 3028.13,943.30 3038.93,943.30 3038.93,1139.30 3028.13,1139.30 3028.13,1139.30 3017.32,1139.30" fill="#FF9800" fill-opacity="0.12" stroke="#FFB74D" stroke-width="0.6"/>
<polygon points="3101.06,925.48 3111.87,925.48 3111.87,1139.30 3101.06,1139.30 3101.06,925.48" fill="#FF9800" fill-opacity="0.12" stroke="#FFB74D" stroke-width="0.6"/>
<polygon points="2648.03,919.54 2648.03,907.66 2739.09,907.66 2739.09,919.54 2648.03,919.54" fill="#FF9800" fill-opacity="0.12" stroke="#FFB74D" stroke-width="0.6"/>
<polygon points="2305.82,907.66 2459.79,907.66 2459.79,919.54 2305.82,919.54 2305.82,907.66" fill="#FF9800" fill-opacity="0.12" stroke="#FFB74D" stroke-width="0.6"/>
<polygon points="2481.40,907.66 2626.42,907.66 2626.42,919.54 2481.40,919.54 2481.40,907.66" fill="#FF9800" fill-opacity="0.12" stroke="#FFB74D" stroke-width="0.6"/>
<polygon points="2305.82,895.78 2305.82,883.90 2459.79,883.90 2459.79,895.78 2305.82,895.78" fill="#FF9800" fill-opacity="0.12" stroke="#FFB74D" stroke-width="0.6"/>
<polygon points="2481.40,895.78 2481.40,883.90 2626.42,883.90 2626.42,895.78 2481.40,895.78" fill="#FF9800" fill-opacity="0.12" stroke="#FFB74D" stroke-width="0.6"/>
<polygon points="3052.98,771.05 3052.98,925.48 3042.17,925.48 3042.17,771.05 3052.98,771.05" fill="#FF9800" fill-opacity="0.12" stroke="#FFB74D" stroke-width="0.6"/>
<polygon points="3015.16,776.99 2760.69,776.99 2760.69,889.84 2749.88,889.84 2749.88,771.05 2755.93,771.05 2755.93,765.11 3020.56,765.11 3020.56,771.05 3025.97,771.05 3025.97,925.48 3015.16,925.48 3015.16,776.99" fill="#FF9800" fill-opacity="0.12" stroke="#FFB74D" stroke-width="0.6"/>
<polygon points="2739.09,895.78 2648.03,895.78 2648.03,883.90 2733.69,883.90 2733.69,771.05 2744.50,771.05 2744.50,889.84 2739.09,889.84 2739.09,895.78" fill="#FF9800" fill-opacity="0.12" stroke="#FFB74D" stroke-width="0.6"/>
<polygon points="3020.61,759.17 2755.28,759.17 2755.28,747.29 3020.61,747.29 3020.61,759.17" fill="#FF9800" fill-opacity="0.12" stroke="#FFB74D" stroke-width="0.6"/>
<polygon points="2374.97,676.02 2374.97,664.14 2456.01,664.14 2456.01,658.20 2374.97,658.20 2374.97,646.32 2599.17,646.32 2599.17,646.32 2689.37,646.32 2689.37,646.32 2723.41,646.32 2723.41,646.32 2728.83,646.32 2728.83,652.26 2734.23,652.26 2734.23,670.08 2728.83,670.08 2728.83,676.02 2728.83,676.02 2728.83,676.02 2728.82,676.02 2723.41,676.02 2723.41,676.02 2678.05,676.02 2678.05,753.23 2667.24,753.23 2667.24,753.23 2656.44,753.23 2656.44,676.02 2523.54,676.02 2523.54,753.23 2518.13,753.23 2518.13,753.23 2512.73,753.23 2512.73,759.17 2501.93,759.17 2501.93,753.23 2496.52,753.23 2496.52,753.23 2496.52,753.23 2496.52,751.52 2496.52,676.02 2374.97,676.02" fill="#FF9800" fill-opacity="0.12" stroke="#FFB74D" stroke-width="0.6"/>
<polygon points="3042.17,625.50 3042.17,494.84 3052.98,494.84 3052.98,625.50 3042.17,625.50" fill="#FF9800" fill-opacity="0.12" stroke="#FFB74D" stroke-width="0.6"/>
<polygon points="3015.16,625.50 3015.16,494.84 3025.97,494.84 3025.97,625.50 3015.16,625.50" fill="#FF9800" fill-opacity="0.12" stroke="#FFB74D" stroke-width="0.6"/>
<polygon points="2347.96,480.02 2347.96,480.02 2347.96,480.02 2347.96,485.96 2347.96,491.90 2347.96,491.90 2347.96,491.90 2193.99,491.90 2193.99,480.02 2334.45,480.02 2334.45,480.02 2347.96,480.02" fill="#FF9800" fill-opacity="0.12" stroke="#FFB74D" stroke-width="0.6"/>
<polygon points="2763.95,646.32 2797.47,646.32 2797.47,646.36 2831.50,646.36 2831.50,646.26 3020.50,646.26 3020.50,646.36 3020.56,646.36 3020.56,652.20 3025.90,652.20 3025.90,670.02 3020.56,670.02 3020.57,675.96 2797.47,676.07 2797.47,676.09 2755.84,676.09 2755.84,670.15 2755.84,670.15 2750.44,670.15 2750.44,652.26 2753.14,652.26 2753.14,187.53 2763.95,187.53 2763.95,646.32" fill="#FF9800" fill-opacity="0.12" stroke="#FFB74D" stroke-width="0.6"/>
<polygon points="2734.23,580.99 2723.43,580.99 2723.43,187.53 2734.23,187.53 2734.23,580.99" fill="#FF9800" fill-opacity="0.12" stroke="#FFB74D" stroke-width="0.6"/>
<polygon points="2380.37,187.53 2380.37,390.93 2369.57,390.93 2369.57,187.53 2380.37,187.53" fill="#FF9800" fill-opacity="0.12" stroke="#FFB74D" stroke-width="0.6"/>
<polygon points="2342.55,183.73 2353.36,183.73 2353.36,390.93 2342.56,390.93 2342.55,183.73" fill="#FF9800" fill-opacity="0.12" stroke="#FFB74D" stroke-width="0.6"/>
<polygon points="2755.84,117.71 2755.84,105.83 2978.97,105.83 2978.97,111.77 2984.37,111.77 2984.37,272.14 3020.56,272.14 3020.56,284.02 2978.97,284.02 2978.97,278.08 2973.56,278.08 2973.56,117.71 2755.84,117.71" fill="#FF9800" fill-opacity="0.12" stroke="#FFB74D" stroke-width="0.6"/>
<polygon points="2995.17,260.26 2995.17,254.32 2989.77,254.32 2989.77,111.77 2995.17,111.77 2995.17,105.83 3020.57,105.83 3020.57,117.71 3000.58,117.71 3000.58,248.38 3020.57,248.38 3020.57,260.26 2995.17,260.26" fill="#FF9800" fill-opacity="0.12" stroke="#FFB74D" stroke-width="0.6"/>
<polygon points="2374.97,117.71 2374.97,105.83 2728.83,105.83 2728.83,117.71 2374.97,117.71" fill="#FF9800" fill-opacity="0.12" stroke="#FFB74D" stroke-width="0.6"/>
<polygon points="2728.83,88.01 3020.57,88.01 3020.57,99.89 2728.83,99.89 2728.83,99.89 2374.97,99.89 2374.97,88.01 2728.83,88.01 2728.83,93.95 2728.83,88.01" fill="#FF9800" fill-opacity="0.12" stroke="#FFB74D" stroke-width="0.6"/>
<polygon class="slab-poly" data-slab-id="SLAB-001" points="2728.83,99.57 2728.83,159.60 2374.97,159.60 2374.97,99.57 2728.83,99.57" fill="#2196F3" fill-opacity="0.45" stroke="#2196F3" stroke-width="0.8"/>
<polygon class="slab-poly" data-slab-id="SLAB-002" points="1151.31,99.57 1151.31,159.60 878.48,159.60 878.48,99.57 1151.31,99.57" fill="#2196F3" fill-opacity="0.45" stroke="#2196F3" stroke-width="0.8"/>
<polygon class="slab-poly" data-slab-id="SLAB-003" points="851.47,99.57 851.47,159.60 500.31,159.60 500.31,99.57 851.47,99.57" fill="#2196F3" fill-opacity="0.45" stroke="#2196F3" stroke-width="0.8"/>
<polygon class="slab-poly" data-slab-id="SLAB-004" points="854.44,390.93 851.47,390.93 851.47,595.94 758.63,595.94 751.91,591.51 744.72,587.77 737.23,584.83 729.52,582.70 721.65,581.42 713.71,580.99 559.17,580.99 551.23,581.42 543.36,582.70 535.65,584.83 528.16,587.77 520.97,591.51 514.25,595.94 500.31,595.94 500.31,580.99 500.30,580.70 500.26,580.41 500.20,580.13 500.11,579.85 499.99,579.59 499.86,579.34 499.70,579.11 499.52,578.89 499.32,578.69 499.11,578.52 498.88,578.37 498.64,578.25 498.39,578.15 498.14,578.08 497.88,578.03 497.61,578.02 497.61,578.02 478.03,578.02 478.03,190.50 497.61,190.50 497.87,190.48 498.14,190.44 498.39,190.37 498.64,190.27 498.88,190.15 499.11,190.00 499.32,189.82 499.52,189.63 499.70,189.41 499.85,189.18 499.99,188.93 500.10,188.66 500.19,188.39 500.26,188.11 500.30,187.82 500.31,187.53 500.31,153.07 851.47,153.07 851.47,187.53 854.44,187.53 854.44,390.93" fill="#2196F3" fill-opacity="0.45" stroke="#2196F3" stroke-width="0.8"/>
<text x="667.4" y="370.4" fill="#fff" font-size="9" text-anchor="middle" dominant-baseline="middle" font-family="Segoe UI, sans-serif" paint-order="stroke" stroke="#000" stroke-width="2" pointer-events="none">SLAB-004</text>
<polygon class="slab-poly" data-slab-id="SLAB-005" points="2748.41,595.94 2712.19,595.94 2705.47,591.51 2698.28,587.77 2690.79,584.83 2683.08,582.70 2675.21,581.42 2667.27,580.99 2512.73,580.99 2504.79,581.42 2496.92,582.70 2489.21,584.83 2481.72,587.77 2474.53,591.51 2467.81,595.94 2374.97,595.94 2374.97,390.93 2372.00,390.93 2372.00,187.53 2374.97,187.53 2374.97,153.07 2728.83,153.07 2728.83,187.53 2748.41,187.53 2748.41,595.94" fill="#2196F3" fill-opacity="0.45" stroke="#2196F3" stroke-width="0.8"/>
<text x="2559.7" y="370.8" fill="#fff" font-size="9" text-anchor="middle" dominant-baseline="middle" font-family="Segoe UI, sans-serif" paint-order="stroke" stroke="#000" stroke-width="2" pointer-events="none">SLAB-005</text>
<polygon class="slab-poly" data-slab-id="SLAB-006" points="244.50,595.94 244.50,153.07 319.36,153.07 319.36,595.94 244.50,595.94" fill="#2196F3" fill-opacity="0.45" stroke="#2196F3" stroke-width="0.8"/>
<polygon class="slab-poly" data-slab-id="SLAB-007" points="483.97,578.02 470.60,578.02 470.33,578.03 470.07,578.08 469.81,578.15 469.56,578.25 469.32,578.37 469.10,578.52 468.88,578.69 468.69,578.89 468.51,579.11 468.35,579.34 468.21,579.59 468.10,579.85 468.01,580.13 467.95,580.41 467.91,580.70 467.89,580.99 467.89,595.94 313.42,595.94 313.42,153.07 465.19,153.07 465.19,187.53 465.21,187.82 465.25,188.11 465.31,188.39 465.40,188.66 465.51,188.93 465.65,189.18 465.81,189.41 465.98,189.63 466.18,189.82 466.39,190.00 466.62,190.15 466.86,190.27 467.11,190.37 467.37,190.44 467.63,190.48 467.89,190.50 483.97,190.50 483.97,578.02" fill="#2196F3" fill-opacity="0.45" stroke="#2196F3" stroke-width="0.8"/>
<text x="397.7" y="375.6" fill="#fff" font-size="9" text-anchor="middle" dominant-baseline="middle" font-family="Segoe UI, sans-serif" paint-order="stroke" stroke="#000" stroke-width="2" pointer-events="none">SLAB-007</text>
<polygon class="slab-poly" data-slab-id="SLAB-008" points="2913.02,153.07 2913.02,595.94 2742.47,595.94 2742.47,187.53 2758.54,187.53 2758.54,153.07 2913.02,153.07" fill="#2196F3" fill-opacity="0.45" stroke="#2196F3" stroke-width="0.8"/>
<text x="2828.3" y="376.0" fill="#fff" font-size="9" text-anchor="middle" dominant-baseline="middle" font-family="Segoe UI, sans-serif" paint-order="stroke" stroke="#000" stroke-width="2" pointer-events="none">SLAB-008</text>
<polygon class="slab-poly" data-slab-id="SLAB-009" points="197.32,595.94 90.57,595.94 90.57,153.07 178.86,153.07 178.86,257.24 178.60,257.26 178.34,257.30 178.08,257.37 177.83,257.47 177.59,257.59 177.36,257.74 177.15,257.92 176.95,258.11 176.77,258.33 176.62,258.56 176.48,258.81 176.37,259.08 176.28,259.35 176.21,259.63 176.17,259.92 176.16,260.21 176.16,494.84 176.17,495.13 176.21,495.42 176.28,495.70 176.37,495.97 176.48,496.24 176.62,496.49 176.77,496.72 176.95,496.94 177.15,497.13 177.36,497.31 177.59,497.45 177.83,497.58 178.08,497.68 178.34,497.75 178.60,497.79 178.86,497.81 197.32,497.81 197.32,595.94" fill="#2196F3" fill-opacity="0.45" stroke="#2196F3" stroke-width="0.8"/>
<text x="136.4" y="382.2" fill="#fff" font-size="9" text-anchor="middle" dominant-baseline="middle" font-family="Segoe UI, sans-serif" paint-order="stroke" stroke="#000" stroke-width="2" pointer-events="none">SLAB-009</text>
<polygon class="slab-poly" data-slab-id="SLAB-010" points="1289.34,595.94 1262.06,595.94 1262.06,580.99 1262.05,580.70 1262.01,580.41 1261.94,580.13 1261.85,579.86 1261.74,579.59 1261.60,579.34 1261.45,579.11 1261.27,578.89 1261.07,578.70 1260.86,578.52 1260.63,578.37 1260.39,578.25 1260.14,578.15 1259.88,578.08 1259.62,578.04 1259.36,578.02 1232.35,578.02 1232.08,578.04 1231.82,578.08 1231.56,578.15 1231.31,578.25 1231.07,578.37 1230.84,578.52 1230.63,578.70 1230.43,578.89 1230.26,579.11 1230.10,579.34 1229.96,579.59 1229.85,579.86 1229.76,580.13 1229.70,580.41 1229.66,580.70 1229.64,580.99 1229.64,595.94 1141.58,595.94 1141.58,589.31 1141.57,589.01 1141.53,588.73 1141.47,588.44 1141.38,588.17 1141.26,587.91 1141.13,587.66 1140.97,587.42 1140.79,587.21 1140.60,587.01 1140.38,586.84 1140.16,586.69 1139.92,586.56 1139.67,586.46 1139.41,586.39 1139.15,586.35 1138.88,586.34 1122.67,586.34 1122.41,586.35 1122.15,586.39 1121.89,586.46 1121.64,586.56 1121.40,586.69 1121.17,586.84 1120.96,587.01 1120.76,587.21 1120.59,587.42 1120.43,587.66 1120.29,587.91 1120.18,588.17 1120.09,588.44 1120.03,588.73 1119.99,589.01 1119.97,589.31 1119.97,595.94 1051.36,595.94 1051.36,485.96 1051.36,485.96 1051.35,485.67 1051.31,485.38 1051.25,485.10 1051.16,484.82 1051.04,484.56 1050.91,484.31 1050.75,484.07 1050.57,483.86 1050.37,483.66 1050.16,483.49 1049.93,483.34 1049.69,483.21 1049.44,483.12 1049.19,483.05 1048.93,483.00 1048.66,482.99 1032.45,482.99 1032.45,482.99 1032.19,483.00 1031.93,483.05 1031.67,483.12 1031.42,483.21 1031.18,483.34 1030.95,483.49 1030.74,483.66 1030.54,483.86 1030.37,484.07 1030.21,484.31 1030.07,484.56 1029.96,484.82 1029.87,485.10 1029.80,485.38 1029.77,485.67 1029.75,485.96 1029.75,595.94 878.48,595.94 878.48,390.93 875.51,390.93 875.51,187.53 878.48,187.53 878.48,153.07 1151.31,153.07 1151.31,181.56 1151.70,190.29 1152.86,198.94 1154.80,207.42 1157.48,215.65 1160.88,223.56 1164.97,231.06 1169.70,238.08 1175.04,244.56 1180.94,250.43 1187.32,255.64 1194.14,260.13 1201.33,263.87 1208.82,266.82 1216.54,268.94 1224.40,270.22 1232.35,270.65 1259.36,270.65 1267.30,270.22 1275.17,268.94 1282.88,266.82 1289.34,264.27 1289.34,595.94" fill="#2196F3" fill-opacity="0.45" stroke="#2196F3" stroke-width="0.8"/>
<text x="1070.6" y="385.5" fill="#fff" font-size="9" text-anchor="middle" dominant-baseline="middle" font-family="Segoe UI, sans-serif" paint-order="stroke" stroke="#000" stroke-width="2" pointer-events="none">SLAB-010</text>
<polygon class="slab-poly" data-slab-id="SLAB-011" points="2350.93,390.93 2347.96,390.93 2347.96,595.94 2196.69,595.94 2196.69,485.96 2196.67,485.67 2196.64,485.38 2196.57,485.10 2196.48,484.82 2196.37,484.56 2196.23,484.31 2196.07,484.07 2195.90,483.86 2195.70,483.66 2195.49,483.49 2195.26,483.34 2195.02,483.21 2194.77,483.12 2194.51,483.05 2194.25,483.00 2193.99,482.99 2193.99,482.99 2177.78,482.99 2177.51,483.00 2177.25,483.05 2176.99,483.12 2176.74,483.21 2176.51,483.34 2176.28,483.49 2176.06,483.66 2175.87,483.86 2175.69,484.07 2175.53,484.31 2175.40,484.56 2175.28,484.82 2175.19,485.10 2175.13,485.38 2175.09,485.67 2175.08,485.96 2175.08,485.96 2175.08,595.94 2103.76,595.94 2103.76,589.31 2087.56,589.31 2087.56,595.94 1994.09,595.94 1994.09,580.99 1967.08,580.99 1967.08,595.94 1937.10,595.94 1937.10,264.27 1943.56,266.82 1951.27,268.94 1959.14,270.22 1967.08,270.65 1994.09,270.65 2002.04,270.22 2009.90,268.94 2017.62,266.82 2025.11,263.87 2032.29,260.13 2039.12,255.64 2045.50,250.43 2051.40,244.56 2056.74,238.08 2061.47,231.06 2065.56,223.56 2068.96,215.65 2071.64,207.42 2073.57,198.94 2074.74,190.29 2075.13,181.56 2075.13,153.07 2347.96,153.07 2347.96,187.53 2350.93,187.53 2350.93,390.93" fill="#2196F3" fill-opacity="0.45" stroke="#2196F3" stroke-width="0.8"/>
<text x="2155.6" y="385.9" fill="#fff" font-size="9" text-anchor="middle" dominant-baseline="middle" font-family="Segoe UI, sans-serif" paint-order="stroke" stroke="#000" stroke-width="2" pointer-events="none">SLAB-011</text>
<polygon class="slab-poly" data-slab-id="SLAB-012" points="250.45,153.07 250.45,595.94 191.38,595.94 191.38,497.81 205.87,497.81 206.14,497.79 206.40,497.75 206.66,497.68 206.91,497.58 207.15,497.45 207.37,497.31 207.59,497.13 207.78,496.94 207.96,496.72 208.12,496.49 208.26,496.24 208.37,495.97 208.46,495.70 208.52,495.42 208.56,495.13 208.57,494.84 208.57,260.21 208.56,259.92 208.52,259.63 208.46,259.35 208.37,259.08 208.26,258.81 208.12,258.56 207.96,258.33 207.78,258.11 207.59,257.92 207.37,257.74 207.15,257.59 206.91,257.47 206.66,257.37 206.40,257.30 206.14,257.26 205.87,257.24 205.87,153.07 250.45,153.07" fill="#2196F3" fill-opacity="0.45" stroke="#2196F3" stroke-width="0.8"/>
<polygon class="slab-poly" data-slab-id="SLAB-013" points="3109.43,153.07 3109.43,595.94 2992.20,595.94 2992.20,153.07 3017.86,153.07 3017.86,260.21 3017.86,260.23 3017.86,494.84 3017.88,495.13 3017.92,495.42 3017.98,495.70 3018.07,495.97 3018.18,496.24 3018.32,496.49 3018.48,496.72 3018.66,496.94 3018.85,497.13 3019.06,497.31 3019.29,497.45 3019.53,497.58 3019.78,497.68 3020.04,497.75 3020.30,497.79 3020.57,497.81 3047.58,497.81 3047.84,497.79 3048.10,497.75 3048.36,497.68 3048.61,497.58 3048.85,497.45 3049.08,497.31 3049.29,497.13 3049.49,496.94 3049.67,496.72 3049.82,496.49 3049.96,496.24 3050.07,495.97 3050.16,495.70 3050.23,495.42 3050.27,495.13 3050.28,494.84 3050.28,260.22 3050.28,260.21 3050.28,153.07 3109.43,153.07" fill="#2196F3" fill-opacity="0.45" stroke="#2196F3" stroke-width="0.8"/>
<text x="3055.4" y="388.0" fill="#fff" font-size="9" text-anchor="middle" dominant-baseline="middle" font-family="Segoe UI, sans-serif" paint-order="stroke" stroke="#000" stroke-width="2" pointer-events="none">SLAB-013</text>
<polygon class="slab-poly" data-slab-id="SLAB-014" points="1621.59,153.07 1621.59,595.94 1434.67,595.94 1434.67,270.65 1445.74,270.65 1453.69,270.22 1461.55,268.94 1469.27,266.82 1476.75,263.87 1483.94,260.13 1490.76,255.64 1497.15,250.43 1503.04,244.56 1508.39,238.08 1513.12,231.06 1517.21,223.56 1520.61,215.65 1523.29,207.42 1525.22,198.94 1526.39,190.29 1526.78,181.56 1526.78,153.07 1621.59,153.07" fill="#2196F3" fill-opacity="0.45" stroke="#2196F3" stroke-width="0.8"/>
<text x="1534.7" y="395.8" fill="#fff" font-size="9" text-anchor="middle" dominant-baseline="middle" font-family="Segoe UI, sans-serif" paint-order="stroke" stroke="#000" stroke-width="2" pointer-events="none">SLAB-014</text>
<polygon class="slab-poly" data-slab-id="SLAB-015" points="1791.77,595.94 1615.65,595.94 1615.65,153.07 1699.66,153.07 1699.66,181.56 1700.05,190.29 1701.22,198.94 1703.15,207.42 1705.83,215.65 1709.23,223.56 1713.32,231.06 1718.05,238.08 1723.39,244.56 1729.29,250.43 1735.67,255.64 1742.50,260.13 1749.68,263.87 1757.17,266.82 1764.89,268.94 1772.75,270.22 1780.70,270.65 1791.77,270.65 1791.77,595.94" fill="#2196F3" fill-opacity="0.45" stroke="#2196F3" stroke-width="0.8"/>
<text x="1697.4" y="397.3" fill="#fff" font-size="9" text-anchor="middle" dominant-baseline="middle" font-family="Segoe UI, sans-serif" paint-order="stroke" stroke="#000" stroke-width="2" pointer-events="none">SLAB-015</text>
<polygon class="slab-poly" data-slab-id="SLAB-016" points="1440.61,595.94 1283.40,595.94 1283.40,266.61 1290.37,263.87 1297.56,260.13 1304.38,255.64 1310.77,250.43 1316.66,244.56 1322.00,238.08 1326.74,231.06 1330.83,223.56 1334.23,215.65 1336.91,207.42 1338.84,198.94 1340.00,190.29 1340.39,181.56 1340.39,153.07 1343.10,153.07 1343.10,181.56 1343.49,190.29 1344.65,198.94 1346.59,207.42 1349.26,215.65 1352.66,223.56 1356.75,231.06 1361.49,238.08 1366.83,244.56 1372.72,250.43 1379.11,255.64 1385.93,260.13 1393.12,263.87 1400.61,266.82 1408.32,268.94 1416.19,270.22 1424.13,270.65 1440.61,270.65 1440.61,595.94" fill="#2196F3" fill-opacity="0.45" stroke="#2196F3" stroke-width="0.8"/>
<text x="1360.8" y="421.7" fill="#fff" font-size="9" text-anchor="middle" dominant-baseline="middle" font-family="Segoe UI, sans-serif" paint-order="stroke" stroke="#000" stroke-width="2" pointer-events="none">SLAB-016</text>
<polygon class="slab-poly" data-slab-id="SLAB-017" points="2992.20,765.41 2992.20,589.41 3109.43,589.41 3109.43,765.41 3047.58,765.41 3047.58,625.50 3020.56,625.50 3020.56,765.41 2992.20,765.41" fill="#2196F3" fill-opacity="0.45" stroke="#2196F3" stroke-width="0.8"/>
<polygon class="slab-poly" data-slab-id="SLAB-018" points="90.57,765.41 90.57,589.41 234.24,589.41 234.24,765.41 208.58,765.41 208.58,625.50 208.56,625.21 208.52,624.93 208.46,624.64 208.37,624.37 208.26,624.10 208.12,623.85 207.96,623.62 207.78,623.40 207.59,623.21 207.38,623.04 207.15,622.89 206.91,622.76 206.66,622.66 206.40,622.59 206.14,622.55 205.87,622.53 178.86,622.53 178.60,622.55 178.34,622.59 178.08,622.66 177.83,622.76 177.59,622.89 177.36,623.04 177.15,623.21 176.95,623.40 176.77,623.62 176.62,623.85 176.48,624.10 176.37,624.37 176.28,624.64 176.21,624.93 176.17,625.21 176.16,625.50 176.16,765.41 90.57,765.41" fill="#2196F3" fill-opacity="0.45" stroke="#2196F3" stroke-width="0.8"/>
<polygon class="slab-poly" data-slab-id="SLAB-019" points="1434.67,589.41 1621.59,589.41 1621.59,765.41 1445.74,765.41 1445.74,756.20 1446.01,756.19 1446.27,756.15 1446.53,756.08 1446.78,755.98 1447.02,755.85 1447.24,755.70 1447.46,755.53 1447.65,755.33 1447.83,755.12 1447.99,754.88 1448.13,754.63 1448.24,754.37 1448.33,754.10 1448.39,753.81 1448.43,753.53 1448.44,753.23 1448.44,681.37 1448.43,681.08 1448.39,680.79 1448.33,680.51 1448.24,680.23 1448.13,679.97 1447.99,679.72 1447.83,679.48 1447.65,679.27 1447.46,679.07 1447.24,678.90 1447.02,678.75 1446.78,678.62 1446.53,678.53 1446.27,678.45 1446.01,678.41 1445.74,678.40 1434.67,678.40 1434.67,589.41" fill="#2196F3" fill-opacity="0.45" stroke="#2196F3" stroke-width="0.8"/>
<polygon class="slab-poly" data-slab-id="SLAB-020" points="1615.65,765.41 1615.65,589.41 1791.77,589.41 1791.77,681.37 1780.70,681.37 1780.70,765.41 1615.65,765.41" fill="#2196F3" fill-opacity="0.45" stroke="#2196F3" stroke-width="0.8"/>
<polygon class="slab-poly" data-slab-id="SLAB-021" points="2742.47,589.41 2981.94,589.41 2981.94,765.41 2757.99,765.41 2757.99,753.23 2757.97,752.94 2757.93,752.65 2757.87,752.37 2757.78,752.10 2757.67,751.83 2757.53,751.58 2757.37,751.35 2757.20,751.13 2757.00,750.94 2756.79,750.76 2756.56,750.61 2756.32,750.49 2756.07,750.39 2755.81,750.32 2755.55,750.28 2755.29,750.26 2755.02,750.28 2754.76,750.32 2754.50,750.39 2754.25,750.49 2754.01,750.61 2753.78,750.76 2753.57,750.94 2753.38,751.13 2753.20,751.35 2753.04,751.58 2752.90,751.83 2752.79,752.10 2752.70,752.37 2752.64,752.65 2752.60,752.94 2752.58,753.23 2752.58,765.41 2747.45,765.41 2747.92,761.97 2748.31,753.23 2748.31,670.08 2747.92,661.35 2746.75,652.70 2744.82,644.22 2742.47,637.00 2742.47,589.41" fill="#2196F3" fill-opacity="0.45" stroke="#2196F3" stroke-width="0.8"/>
<text x="2864.3" y="676.8" fill="#fff" font-size="9" text-anchor="middle" dominant-baseline="middle" font-family="Segoe UI, sans-serif" paint-order="stroke" stroke="#000" stroke-width="2" pointer-events="none">SLAB-021</text>
<polygon class="slab-poly" data-slab-id="SLAB-022" points="244.50,765.41 244.50,589.41 467.89,589.41 467.89,649.32 430.08,649.32 429.81,649.34 429.55,649.38 429.29,649.45 429.04,649.55 428.80,649.68 428.58,649.83 428.36,650.00 428.17,650.19 427.99,650.41 427.83,650.64 427.70,650.89 427.58,651.16 427.49,651.43 427.43,651.72 427.39,652.00 427.38,652.29 427.38,670.14 427.39,670.44 427.43,670.72 427.49,671.01 427.58,671.28 427.70,671.54 427.83,671.79 427.99,672.03 428.17,672.24 428.36,672.44 428.58,672.61 428.80,672.76 429.04,672.89 429.29,672.99 429.55,673.06 429.81,673.10 430.08,673.11 470.60,673.11 470.86,673.10 471.12,673.06 471.14,673.05 478.13,673.05 478.13,753.23 478.52,761.97 478.99,765.41 473.86,765.41 473.86,753.23 473.84,752.94 473.80,752.65 473.74,752.37 473.65,752.10 473.54,751.83 473.40,751.58 473.24,751.35 473.06,751.13 472.87,750.94 472.65,750.76 472.43,750.61 472.19,750.49 471.94,750.39 471.68,750.32 471.42,750.28 471.15,750.26 470.89,750.28 470.63,750.32 470.37,750.39 470.12,750.49 469.88,750.61 469.65,750.76 469.44,750.94 469.24,751.13 469.07,751.35 468.91,751.58 468.77,751.83 468.66,752.10 468.57,752.37 468.50,752.65 468.47,752.94 468.45,753.23 468.45,765.41 244.50,765.41" fill="#2196F3" fill-opacity="0.45" stroke="#2196F3" stroke-width="0.8"/>
<text x="356.6" y="678.7" fill="#fff" font-size="9" text-anchor="middle" dominant-baseline="middle" font-family="Segoe UI, sans-serif" paint-order="stroke" stroke="#000" stroke-width="2" pointer-events="none">SLAB-022</text>
<polygon class="slab-poly" data-slab-id="SLAB-023" points="2350.93,765.41 2103.76,765.41 2103.76,589.41 2175.08,589.41 2175.08,670.08 2175.09,670.37 2175.13,670.66 2175.19,670.94 2175.28,671.22 2175.40,671.48 2175.53,671.73 2175.69,671.97 2175.87,672.18 2176.06,672.38 2176.28,672.55 2176.51,672.70 2176.74,672.83 2176.99,672.92 2177.25,672.99 2177.51,673.04 2177.78,673.05 2177.78,673.05 2193.99,673.05 2194.25,673.04 2194.25,673.04 2194.25,673.04 2194.34,673.02 2194.51,672.99 2194.51,672.99 2194.51,672.99 2194.62,672.97 2194.77,672.92 2194.77,672.92 2194.77,672.92 2194.88,672.88 2195.02,672.83 2195.02,672.83 2195.02,672.83 2195.13,672.77 2195.26,672.70 2195.26,672.70 2195.26,672.70 2195.36,672.63 2195.49,672.55 2195.49,672.55 2195.49,672.55 2195.58,672.47 2195.70,672.38 2195.70,672.38 2195.70,672.38 2195.79,672.29 2195.90,672.18 2195.90,672.18 2195.90,672.18 2195.98,672.08 2196.07,671.97 2196.07,671.97 2196.07,671.97 2196.15,671.85 2196.23,671.73 2196.23,671.73 2196.23,671.73 2196.30,671.61 2196.37,671.48 2196.37,671.48 2196.37,671.48 2196.42,671.36 2196.48,671.22 2196.48,671.22 2196.48,671.22 2196.52,671.09 2196.57,670.94 2196.57,670.94 2196.57,670.94 2196.60,670.81 2196.64,670.66 2196.64,670.66 2196.64,670.66 2196.65,670.52 2196.67,670.37 2196.67,670.37 2196.67,670.37 2196.68,670.23 2196.69,670.08 2196.69,670.08 2196.69,589.41 2347.96,589.41 2347.96,670.08 2350.93,670.08 2350.93,765.41" fill="#2196F3" fill-opacity="0.45" stroke="#2196F3" stroke-width="0.8"/>
<text x="2228.4" y="679.7" fill="#fff" font-size="9" text-anchor="middle" dominant-baseline="middle" font-family="Segoe UI, sans-serif" paint-order="stroke" stroke="#000" stroke-width="2" pointer-events="none">SLAB-023</text>
<polygon class="slab-poly" data-slab-id="SLAB-024" points="1119.97,589.41 1119.97,765.41 875.51,765.41 875.51,670.08 878.48,670.08 878.48,589.41 1029.75,589.41 1029.75,670.08 1029.75,670.08 1029.76,670.23 1029.77,670.37 1029.77,670.37 1029.77,670.37 1029.79,670.52 1029.80,670.66 1029.80,670.66 1029.80,670.66 1029.84,670.81 1029.87,670.94 1029.87,670.94 1029.87,670.94 1029.91,671.09 1029.96,671.22 1029.96,671.22 1029.96,671.22 1030.02,671.36 1030.07,671.48 1030.07,671.48 1030.07,671.48 1030.14,671.61 1030.21,671.73 1030.21,671.73 1030.21,671.73 1030.29,671.85 1030.37,671.97 1030.37,671.97 1030.37,671.97 1030.46,672.08 1030.54,672.18 1030.54,672.18 1030.54,672.18 1030.65,672.29 1030.74,672.38 1030.74,672.38 1030.74,672.38 1030.85,672.47 1030.95,672.55 1030.95,672.55 1030.95,672.55 1031.08,672.63 1031.18,672.70 1031.18,672.70 1031.18,672.70 1031.31,672.77 1031.42,672.83 1031.42,672.83 1031.42,672.83 1031.56,672.88 1031.67,672.92 1031.67,672.92 1031.67,672.92 1031.82,672.97 1031.93,672.99 1031.93,672.99 1031.93,672.99 1032.10,673.02 1032.19,673.04 1032.19,673.04 1032.19,673.04 1032.45,673.05 1048.66,673.05 1048.66,673.05 1048.93,673.04 1049.19,672.99 1049.44,672.92 1049.69,672.83 1049.93,672.70 1050.16,672.55 1050.37,672.38 1050.57,672.18 1050.75,671.97 1050.91,671.73 1051.04,671.48 1051.16,671.22 1051.25,670.94 1051.31,670.66 1051.35,670.37 1051.36,670.08 1051.36,589.41 1119.97,589.41" fill="#2196F3" fill-opacity="0.45" stroke="#2196F3" stroke-width="0.8"/>
<text x="996.6" y="679.7" fill="#fff" font-size="9" text-anchor="middle" dominant-baseline="middle" font-family="Segoe UI, sans-serif" paint-order="stroke" stroke="#000" stroke-width="2" pointer-events="none">SLAB-024</text>
<polygon class="slab-poly" data-slab-id="SLAB-025" points="2350.93,758.88 2350.93,886.87 2305.82,886.87 2305.78,886.87 2284.21,886.87 2284.21,886.87 2284.19,886.87 2284.17,886.87 2238.79,886.87 2238.53,886.89 2238.26,886.93 2238.01,887.00 2237.76,887.10 2237.52,887.22 2237.29,887.37 2237.08,887.55 2236.88,887.74 2236.70,887.96 2236.55,888.19 2236.41,888.44 2236.30,888.71 2236.21,888.98 2236.14,889.26 2236.10,889.55 2236.09,889.84 2236.09,899.05 2178.28,899.05 2178.28,889.84 2178.27,889.55 2178.23,889.26 2178.17,888.98 2178.08,888.71 2177.96,888.44 2177.83,888.19 2177.67,887.96 2177.49,887.74 2177.30,887.55 2177.08,887.37 2176.86,887.22 2176.62,887.10 2176.37,887.00 2176.11,886.93 2175.85,886.89 2175.58,886.87 2130.24,886.87 2130.20,886.87 1937.10,886.87 1937.10,771.05 2103.76,771.05 2103.76,758.88 2350.93,758.88" fill="#2196F3" fill-opacity="0.45" stroke="#2196F3" stroke-width="0.8"/>
<text x="2149.7" y="826.1" fill="#fff" font-size="9" text-anchor="middle" dominant-baseline="middle" font-family="Segoe UI, sans-serif" paint-order="stroke" stroke="#000" stroke-width="2" pointer-events="none">SLAB-025</text>
<polygon class="slab-poly" data-slab-id="SLAB-026" points="1289.34,886.87 1096.24,886.87 1096.20,886.87 1050.86,886.87 1050.59,886.89 1050.33,886.93 1050.07,887.00 1049.82,887.10 1049.58,887.22 1049.36,887.37 1049.14,887.55 1048.95,887.74 1048.77,887.96 1048.61,888.19 1048.47,888.44 1048.36,888.71 1048.27,888.98 1048.21,889.26 1048.17,889.55 1048.16,889.84 1048.16,899.05 990.35,899.05 990.35,889.84 990.34,889.55 990.30,889.26 990.23,888.98 990.14,888.71 990.03,888.44 989.89,888.19 989.74,887.96 989.56,887.74 989.36,887.55 989.15,887.37 988.92,887.22 988.68,887.10 988.43,887.00 988.17,886.93 987.91,886.89 987.65,886.87 987.65,886.87 942.27,886.87 942.23,886.87 920.62,886.87 875.51,886.87 875.51,758.88 1119.97,758.88 1119.97,771.05 1119.99,771.34 1120.03,771.63 1120.09,771.92 1120.18,772.19 1120.29,772.45 1120.43,772.70 1120.59,772.94 1120.76,773.15 1120.96,773.35 1121.17,773.52 1121.40,773.67 1121.64,773.80 1121.89,773.89 1122.15,773.97 1122.41,774.01 1122.67,774.02 1138.88,774.02 1139.15,774.01 1139.41,773.97 1139.67,773.89 1139.92,773.80 1140.16,773.67 1140.38,773.52 1140.60,773.35 1140.79,773.15 1140.97,772.94 1141.13,772.70 1141.26,772.45 1141.38,772.19 1141.47,771.92 1141.53,771.63 1141.57,771.34 1141.58,771.05 1289.34,771.05 1289.34,886.87" fill="#2196F3" fill-opacity="0.45" stroke="#2196F3" stroke-width="0.8"/>
<text x="1076.6" y="826.2" fill="#fff" font-size="9" text-anchor="middle" dominant-baseline="middle" font-family="Segoe UI, sans-serif" paint-order="stroke" stroke="#000" stroke-width="2" pointer-events="none">SLAB-026</text>
<polygon class="slab-poly" data-slab-id="SLAB-027" points="483.97,886.87 471.15,886.87 470.89,886.89 470.63,886.93 470.37,887.00 470.12,887.10 469.88,887.22 469.65,887.37 469.44,887.55 469.24,887.74 469.07,887.96 468.91,888.19 468.77,888.44 468.66,888.71 468.57,888.98 468.50,889.26 468.47,889.55 468.45,889.84 468.45,899.05 270.27,899.05 267.78,891.39 264.38,883.48 260.29,875.98 255.55,868.96 250.21,862.48 244.50,856.79 244.50,758.88 468.45,758.88 468.45,771.05 468.47,771.34 468.50,771.63 468.57,771.92 468.66,772.19 468.77,772.45 468.91,772.70 469.07,772.94 469.24,773.15 469.44,773.35 469.65,773.52 469.88,773.67 470.12,773.80 470.37,773.89 470.63,773.97 470.89,774.01 471.15,774.02 471.42,774.01 471.68,773.97 471.94,773.89 472.19,773.80 472.43,773.67 472.65,773.52 472.87,773.35 473.06,773.15 473.24,772.94 473.40,772.70 473.54,772.45 473.65,772.19 473.74,771.92 473.80,771.63 473.84,771.34 473.86,771.05 473.86,758.88 478.38,758.88 478.52,761.97 479.69,770.61 481.62,779.10 483.97,786.32 483.97,886.87" fill="#2196F3" fill-opacity="0.45" stroke="#2196F3" stroke-width="0.8"/>
<polygon class="slab-poly" data-slab-id="SLAB-028" points="2981.94,758.88 2981.94,856.79 2976.23,862.48 2970.89,868.96 2966.15,875.98 2962.06,883.48 2958.66,891.39 2956.17,899.05 2755.29,899.05 2755.29,889.84 2742.47,889.84 2742.47,786.32 2744.82,779.10 2746.75,770.61 2747.92,761.97 2748.06,758.88 2752.58,758.88 2752.58,771.05 2752.60,771.34 2752.64,771.63 2752.70,771.92 2752.79,772.19 2752.90,772.45 2753.04,772.70 2753.20,772.94 2753.38,773.15 2753.57,773.35 2753.78,773.52 2754.01,773.67 2754.25,773.80 2754.50,773.89 2754.76,773.97 2755.02,774.01 2755.29,774.02 2755.55,774.01 2755.81,773.97 2756.07,773.89 2756.32,773.80 2756.56,773.67 2756.79,773.52 2757.00,773.35 2757.20,773.15 2757.37,772.94 2757.53,772.70 2757.67,772.45 2757.78,772.19 2757.87,771.92 2757.93,771.63 2757.97,771.34 2757.99,771.05 2757.99,758.88 2981.94,758.88" fill="#2196F3" fill-opacity="0.45" stroke="#2196F3" stroke-width="0.8"/>
<polygon class="slab-poly" data-slab-id="SLAB-029" points="1621.59,758.88 1621.59,899.05 1434.67,899.05 1434.67,771.05 1445.74,771.05 1445.74,758.88 1621.59,758.88" fill="#2196F3" fill-opacity="0.45" stroke="#2196F3" stroke-width="0.8"/>
<polygon class="slab-poly" data-slab-id="SLAB-030" points="1791.77,899.05 1615.65,899.05 1615.65,758.88 1780.70,758.88 1780.70,771.05 1791.77,771.05 1791.77,899.05" fill="#2196F3" fill-opacity="0.45" stroke="#2196F3" stroke-width="0.8"/>
<polygon class="slab-poly" data-slab-id="SLAB-031" points="1440.61,899.05 1302.58,899.05 1302.58,889.84 1302.57,889.55 1302.53,889.26 1302.46,888.98 1302.37,888.71 1302.26,888.44 1302.12,888.19 1301.97,887.96 1301.79,887.74 1301.59,887.55 1301.38,887.37 1301.15,887.22 1300.91,887.10 1300.66,887.00 1300.40,886.93 1300.14,886.89 1299.88,886.87 1283.40,886.87 1283.40,771.05 1440.61,771.05 1440.61,899.05" fill="#2196F3" fill-opacity="0.45" stroke="#2196F3" stroke-width="0.8"/>
<polygon class="slab-poly" data-slab-id="SLAB-032" points="2748.41,758.88 2748.41,889.84 2739.09,889.84 2739.09,899.05 2650.73,899.05 2650.73,889.84 2650.72,889.55 2650.68,889.26 2650.61,888.98 2650.52,888.71 2650.41,888.44 2650.28,888.19 2650.12,887.96 2649.94,887.74 2649.74,887.55 2649.53,887.37 2649.30,887.22 2649.06,887.10 2648.81,887.00 2648.56,886.93 2648.29,886.89 2648.03,886.87 2626.42,886.87 2585.50,886.87 2585.23,886.89 2584.97,886.93 2584.71,887.00 2584.46,887.10 2584.22,887.22 2583.99,887.37 2583.78,887.55 2583.59,887.74 2583.41,887.96 2583.25,888.19 2583.11,888.44 2583.00,888.71 2582.91,888.98 2582.85,889.26 2582.81,889.55 2582.79,889.84 2582.79,899.05 2524.99,899.05 2524.99,889.84 2524.97,889.55 2524.94,889.26 2524.87,888.98 2524.78,888.71 2524.67,888.44 2524.53,888.19 2524.37,887.96 2524.20,887.74 2524.00,887.55 2523.79,887.37 2523.56,887.22 2523.32,887.10 2523.07,887.00 2522.81,886.93 2522.55,886.89 2522.29,886.87 2481.40,886.87 2481.40,886.87 2459.79,886.87 2414.37,886.87 2414.11,886.89 2413.85,886.93 2413.59,887.00 2413.34,887.10 2413.10,887.22 2412.87,887.37 2412.66,887.55 2412.46,887.74 2412.28,887.96 2412.13,888.19 2411.99,888.44 2411.88,888.71 2411.79,888.98 2411.72,889.26 2411.68,889.55 2411.67,889.84 2411.67,899.05 2372.00,899.05 2372.00,758.88 2431.95,758.88 2432.08,761.97 2433.25,770.61 2435.18,779.10 2437.86,787.33 2441.26,795.23 2445.35,802.73 2450.09,809.75 2455.43,816.23 2461.32,822.10 2467.71,827.31 2474.53,831.81 2481.72,835.54 2489.21,838.49 2496.92,840.61 2504.79,841.90 2512.73,842.33 2667.27,842.33 2675.21,841.90 2683.08,840.61 2690.79,838.49 2698.28,835.54 2705.47,831.81 2712.29,827.31 2718.68,822.10 2724.57,816.23 2729.91,809.75 2734.65,802.73 2738.74,795.23 2742.14,787.33 2744.82,779.10 2746.75,770.61 2747.92,761.97 2748.06,758.88 2748.41,758.88" fill="#2196F3" fill-opacity="0.45" stroke="#2196F3" stroke-width="0.8"/>
<polygon class="slab-poly" data-slab-id="SLAB-033" points="854.44,758.88 854.44,899.05 769.35,899.05 769.35,892.81 812.07,892.81 812.33,892.80 812.59,892.76 812.85,892.68 813.10,892.59 813.34,892.46 813.57,892.31 813.78,892.14 813.98,891.94 814.16,891.73 814.31,891.49 814.45,891.24 814.56,890.98 814.65,890.70 814.72,890.42 814.76,890.13 814.77,889.84 814.76,889.55 814.72,889.26 814.65,888.98 814.56,888.71 814.45,888.44 814.31,888.19 814.16,887.96 813.98,887.74 813.78,887.55 813.57,887.37 813.34,887.22 813.10,887.10 812.85,887.00 812.59,886.93 812.33,886.89 812.07,886.87 766.65,886.87 745.04,886.87 704.15,886.87 703.89,886.89 703.63,886.93 703.37,887.00 703.12,887.10 702.88,887.22 702.65,887.37 702.44,887.55 702.24,887.74 702.06,887.96 701.91,888.19 701.77,888.44 701.66,888.71 701.57,888.98 701.50,889.26 701.46,889.55 701.45,889.84 701.46,890.13 701.50,890.42 701.57,890.70 701.66,890.98 701.77,891.24 701.91,891.49 702.06,891.73 702.24,891.94 702.44,892.14 702.65,892.31 702.88,892.46 703.12,892.59 703.37,892.68 703.63,892.76 703.89,892.80 704.15,892.81 742.34,892.81 742.34,899.05 602.72,899.05 602.72,892.81 640.94,892.81 641.21,892.80 641.47,892.76 641.73,892.68 641.98,892.59 642.22,892.46 642.44,892.31 642.66,892.14 642.85,891.94 643.03,891.73 643.19,891.49 643.33,891.24 643.44,890.98 643.53,890.70 643.59,890.42 643.63,890.13 643.64,889.84 643.63,889.55 643.59,889.26 643.53,888.98 643.44,888.71 643.33,888.44 643.19,888.19 643.03,887.96 642.85,887.74 642.66,887.55 642.44,887.37 642.22,887.22 641.98,887.10 641.73,887.00 641.47,886.93 641.21,886.89 640.94,886.87 600.02,886.87 578.41,886.87 558.69,886.87 558.43,886.89 558.16,886.93 557.91,887.00 557.66,887.10 557.42,887.22 557.19,887.37 556.98,887.55 556.78,887.74 556.60,887.96 556.44,888.19 556.31,888.44 556.20,888.71 556.11,888.98 556.04,889.26 556.00,889.55 555.99,889.84 555.99,899.05 490.05,899.05 490.05,889.84 490.03,889.55 490.00,889.26 489.93,888.98 489.84,888.71 489.73,888.44 489.59,888.19 489.43,887.96 489.26,887.74 489.06,887.55 488.85,887.37 488.62,887.22 488.38,887.10 488.13,887.00 487.87,886.93 487.61,886.89 487.35,886.87 478.03,886.87 478.03,758.88 478.38,758.88 478.52,761.97 479.69,770.61 481.62,779.10 484.30,787.33 487.70,795.23 491.79,802.73 496.53,809.75 501.87,816.23 507.76,822.10 514.15,827.31 520.97,831.81 528.16,835.54 535.65,838.49 543.36,840.61 551.23,841.90 559.17,842.33 713.71,842.33 721.65,841.90 729.52,840.61 737.23,838.49 744.72,835.54 751.91,831.81 758.73,827.31 765.12,822.10 771.01,816.23 776.35,809.75 781.09,802.73 785.18,795.23 788.58,787.33 791.26,779.10 793.19,770.61 794.35,761.97 794.49,758.88 854.44,758.88" fill="#2196F3" fill-opacity="0.45" stroke="#2196F3" stroke-width="0.8"/>
<polygon class="slab-poly" data-slab-id="SLAB-034" points="1615.65,892.52 1791.77,892.52 1791.77,1012.19 1789.72,1010.84 1782.53,1007.10 1775.05,1004.15 1767.33,1002.03 1759.47,1000.75 1751.52,1000.32 1624.02,1000.32 1616.08,1000.75 1615.65,1000.82 1615.65,892.52" fill="#2196F3" fill-opacity="0.45" stroke="#2196F3" stroke-width="0.8"/>
<polygon class="slab-poly" data-slab-id="SLAB-035" points="1434.67,1179.39 1434.67,892.52 1621.59,892.52 1621.59,1000.45 1616.08,1000.75 1608.21,1002.03 1600.50,1004.15 1593.01,1007.10 1585.82,1010.84 1579.00,1015.33 1572.62,1020.54 1566.72,1026.41 1561.38,1032.89 1556.64,1039.91 1552.56,1047.41 1549.16,1055.32 1546.48,1063.55 1544.54,1072.03 1543.38,1080.68 1542.99,1089.41 1542.99,1170.19 1543.38,1178.92 1543.44,1179.39 1434.67,1179.39" fill="#2196F3" fill-opacity="0.45" stroke="#2196F3" stroke-width="0.8"/>
<text x="1510.8" y="1016.9" fill="#fff" font-size="9" text-anchor="middle" dominant-baseline="middle" font-family="Segoe UI, sans-serif" paint-order="stroke" stroke="#000" stroke-width="2" pointer-events="none">SLAB-035</text>
<polygon class="slab-poly" data-slab-id="SLAB-036" points="1943.04,1179.39 1832.11,1179.39 1832.17,1178.92 1832.56,1170.19 1832.56,1089.41 1832.17,1080.68 1831.00,1072.03 1829.07,1063.55 1826.39,1055.32 1822.99,1047.41 1818.90,1039.91 1814.17,1032.89 1808.82,1026.41 1802.93,1020.54 1796.54,1015.33 1789.72,1010.84 1785.83,1008.81 1785.83,892.52 1923.86,892.52 1923.86,913.60 1923.87,913.89 1923.91,914.18 1923.98,914.46 1924.07,914.74 1924.18,915.00 1924.32,915.25 1924.47,915.48 1924.65,915.70 1924.85,915.90 1925.06,916.07 1925.29,916.22 1925.53,916.34 1925.78,916.44 1926.04,916.51 1926.30,916.56 1926.56,916.57 1929.26,916.57 1929.26,1079.91 1929.28,1080.20 1929.32,1080.48 1929.38,1080.77 1929.47,1081.04 1929.58,1081.31 1929.72,1081.56 1929.88,1081.79 1930.06,1082.01 1930.25,1082.20 1930.46,1082.37 1930.69,1082.52 1930.93,1082.65 1931.18,1082.75 1931.44,1082.82 1931.70,1082.86 1931.97,1082.88 1931.97,1082.88 1943.04,1082.88 1943.04,1179.39" fill="#2196F3" fill-opacity="0.45" stroke="#2196F3" stroke-width="0.8"/>
<polygon class="slab-poly" data-slab-id="SLAB-037" points="1440.61,892.52 1440.61,1179.39 1424.35,1179.39 1424.40,1179.39 1424.66,1179.35 1424.92,1179.28 1425.17,1179.18 1425.41,1179.05 1425.63,1178.90 1425.85,1178.73 1426.04,1178.53 1426.22,1178.32 1426.38,1178.08 1426.52,1177.83 1426.63,1177.57 1426.72,1177.30 1426.78,1177.01 1426.82,1176.73 1426.83,1176.43 1426.82,1176.14 1426.78,1175.85 1426.72,1175.57 1426.63,1175.30 1426.52,1175.03 1426.38,1174.78 1426.22,1174.55 1426.04,1174.33 1425.85,1174.14 1425.63,1173.96 1425.41,1173.82 1425.17,1173.69 1424.92,1173.59 1424.66,1173.52 1424.40,1173.48 1424.13,1173.46 1391.72,1173.46 1391.45,1173.48 1391.19,1173.52 1390.93,1173.59 1390.68,1173.69 1390.44,1173.81 1390.22,1173.96 1390.00,1174.14 1389.81,1174.33 1389.63,1174.55 1389.47,1174.78 1389.34,1175.03 1389.22,1175.30 1389.13,1175.57 1389.07,1175.85 1389.03,1176.14 1389.02,1176.43 1389.02,1179.39 1329.59,1179.39 1329.59,1176.43 1329.58,1176.14 1329.54,1175.85 1329.47,1175.57 1329.38,1175.30 1329.27,1175.03 1329.13,1174.78 1328.98,1174.55 1328.80,1174.33 1328.60,1174.14 1328.39,1173.96 1328.16,1173.81 1327.92,1173.69 1327.67,1173.59 1327.42,1173.52 1327.15,1173.48 1326.89,1173.46 1283.40,1173.46 1283.40,1082.88 1294.47,1082.88 1294.74,1082.86 1295.00,1082.82 1295.26,1082.75 1295.51,1082.65 1295.75,1082.52 1295.97,1082.37 1296.19,1082.20 1296.38,1082.01 1296.56,1081.79 1296.72,1081.56 1296.86,1081.31 1296.97,1081.04 1297.06,1080.77 1297.12,1080.48 1297.16,1080.20 1297.17,1079.91 1297.17,1057.48 1297.16,1057.19 1297.12,1056.90 1297.06,1056.62 1296.97,1056.35 1296.86,1056.08 1296.72,1055.83 1296.56,1055.60 1296.38,1055.38 1296.19,1055.19 1295.97,1055.01 1295.75,1054.86 1295.51,1054.74 1295.26,1054.64 1295.00,1054.57 1294.74,1054.53 1294.47,1054.51 1283.40,1054.51 1283.40,1004.33 1294.47,1004.33 1294.74,1004.31 1295.00,1004.27 1295.26,1004.20 1295.51,1004.10 1295.75,1003.98 1295.97,1003.83 1296.19,1003.65 1296.38,1003.46 1296.56,1003.24 1296.72,1003.01 1296.86,1002.76 1296.97,1002.49 1297.06,1002.22 1297.12,1001.94 1297.16,1001.65 1297.17,1001.36 1297.17,959.63 1297.16,959.34 1297.12,959.05 1297.06,958.77 1296.97,958.49 1296.86,958.23 1296.72,957.98 1296.56,957.75 1296.38,957.53 1296.19,957.34 1295.97,957.16 1295.75,957.01 1295.51,956.89 1295.26,956.79 1295.00,956.72 1294.74,956.68 1294.47,956.66 1283.40,956.66 1283.40,935.87 1294.47,935.87 1294.74,935.86 1295.00,935.82 1295.26,935.75 1295.51,935.65 1295.75,935.52 1295.97,935.37 1296.19,935.20 1296.38,935.00 1296.56,934.79 1296.72,934.55 1296.86,934.30 1296.97,934.04 1297.06,933.77 1297.12,933.48 1297.16,933.19 1297.17,932.90 1297.17,916.57 1299.88,916.57 1300.14,916.56 1300.40,916.51 1300.66,916.44 1300.91,916.34 1301.15,916.22 1301.38,916.07 1301.59,915.90 1301.79,915.70 1301.97,915.48 1302.12,915.25 1302.26,915.00 1302.37,914.74 1302.46,914.46 1302.53,914.18 1302.57,913.89 1302.58,913.60 1302.58,892.52 1440.61,892.52" fill="#2196F3" fill-opacity="0.45" stroke="#2196F3" stroke-width="0.8"/>
<text x="1365.0" y="1037.0" fill="#fff" font-size="9" text-anchor="middle" dominant-baseline="middle" font-family="Segoe UI, sans-serif" paint-order="stroke" stroke="#000" stroke-width="2" pointer-events="none">SLAB-037</text>
<polygon class="slab-poly" data-slab-id="SLAB-038" points="483.97,1136.33 402.83,1136.33 402.56,1136.34 402.30,1136.39 402.05,1136.46 401.80,1136.56 401.56,1136.68 401.33,1136.83 401.12,1137.00 400.92,1137.20 400.74,1137.42 400.58,1137.65 400.45,1137.90 400.33,1138.16 400.24,1138.44 400.18,1138.72 400.14,1139.01 400.13,1139.30 400.13,1146.87 321.79,1146.87 321.79,1139.30 313.42,1139.30 313.42,943.30 483.97,943.30 483.97,1136.33" fill="#2196F3" fill-opacity="0.45" stroke="#2196F3" stroke-width="0.8"/>
<polygon class="slab-poly" data-slab-id="SLAB-039" points="2913.02,1139.30 2904.65,1139.30 2904.65,1146.87 2904.65,1146.87 2822.59,1146.87 2814.65,1147.30 2806.78,1148.58 2799.07,1150.70 2791.58,1153.65 2784.39,1157.39 2777.57,1161.88 2771.18,1167.09 2765.29,1172.96 2759.99,1179.39 2742.47,1179.39 2742.47,943.30 2913.02,943.30 2913.02,1139.30" fill="#2196F3" fill-opacity="0.45" stroke="#2196F3" stroke-width="0.8"/>
<polygon class="slab-poly" data-slab-id="SLAB-040" points="555.99,892.52 555.99,913.60 556.00,913.89 556.04,914.18 556.11,914.46 556.20,914.74 556.31,915.00 556.44,915.25 556.60,915.48 556.78,915.70 556.98,915.90 557.19,916.07 557.42,916.22 557.66,916.34 557.91,916.44 558.16,916.51 558.43,916.56 558.69,916.57 575.71,916.57 575.71,1079.91 575.72,1080.20 575.76,1080.48 575.83,1080.77 575.91,1081.04 576.03,1081.31 576.16,1081.56 576.32,1081.79 576.50,1082.01 576.70,1082.20 576.91,1082.37 577.14,1082.52 577.38,1082.65 577.63,1082.75 577.88,1082.82 578.15,1082.86 578.41,1082.88 716.95,1082.88 716.95,1163.06 602.72,1163.06 602.72,1139.30 602.71,1139.01 602.67,1138.72 602.60,1138.44 602.52,1138.16 602.40,1137.90 602.27,1137.65 602.11,1137.42 601.93,1137.20 601.73,1137.00 601.52,1136.83 601.29,1136.68 601.05,1136.56 600.80,1136.46 600.55,1136.39 600.28,1136.34 600.02,1136.33 478.03,1136.33 478.03,943.30 487.35,943.30 487.35,928.45 487.61,928.43 487.87,928.39 488.13,928.32 488.38,928.22 488.62,928.10 488.85,927.95 489.06,927.77 489.26,927.58 489.43,927.36 489.59,927.13 489.73,926.88 489.84,926.62 489.93,926.34 490.00,926.06 490.03,925.77 490.05,925.48 490.05,892.52 555.99,892.52" fill="#2196F3" fill-opacity="0.45" stroke="#2196F3" stroke-width="0.8"/>
<polygon class="slab-poly" data-slab-id="SLAB-041" points="2748.41,1179.39 2673.06,1179.39 2671.44,1178.07 2664.62,1173.58 2657.43,1169.84 2649.94,1166.89 2642.23,1164.77 2634.36,1163.49 2626.42,1163.06 2506.79,1163.06 2498.84,1163.49 2490.98,1164.77 2486.41,1166.03 2380.37,1166.03 2380.11,1166.04 2379.84,1166.08 2379.59,1166.16 2379.34,1166.25 2379.10,1166.38 2378.87,1166.53 2378.66,1166.70 2378.46,1166.90 2378.28,1167.11 2378.13,1167.35 2377.99,1167.60 2377.88,1167.86 2377.79,1168.14 2377.72,1168.42 2377.68,1168.71 2377.67,1169.00 2377.67,1179.39 2372.00,1179.39 2372.00,1082.88 2648.03,1082.88 2648.29,1082.86 2648.56,1082.82 2648.81,1082.75 2649.06,1082.65 2649.30,1082.52 2649.53,1082.37 2649.74,1082.20 2649.94,1082.01 2650.12,1081.79 2650.28,1081.56 2650.41,1081.31 2650.52,1081.04 2650.61,1080.77 2650.68,1080.48 2650.72,1080.20 2650.73,1079.91 2650.73,892.52 2739.09,892.52 2739.09,925.48 2739.09,943.30 2748.41,943.30 2748.41,1179.39" fill="#2196F3" fill-opacity="0.45" stroke="#2196F3" stroke-width="0.8"/>
<text x="2613.1" y="1076.6" fill="#fff" font-size="9" text-anchor="middle" dominant-baseline="middle" font-family="Segoe UI, sans-serif" paint-order="stroke" stroke="#000" stroke-width="2" pointer-events="none">SLAB-041</text>
<polygon class="slab-poly" data-slab-id="SLAB-042" points="1289.34,1173.46 1278.27,1173.46 1278.27,1173.46 1278.27,1173.46 1278.13,1173.47 1278.00,1173.48 1278.00,1173.48 1278.00,1173.48 1277.87,1173.50 1277.74,1173.52 1277.74,1173.52 1277.74,1173.52 1277.61,1173.56 1277.48,1173.59 1277.48,1173.59 1277.48,1173.59 1277.36,1173.64 1277.23,1173.69 1277.23,1173.69 1277.23,1173.69 1277.11,1173.75 1276.99,1173.81 1276.99,1173.81 1276.99,1173.81 1276.88,1173.89 1276.77,1173.96 1276.77,1173.96 1276.77,1173.96 1276.66,1174.05 1276.55,1174.14 1276.55,1174.14 1276.55,1174.14 1276.45,1174.24 1276.36,1174.33 1276.36,1174.33 1276.36,1174.33 1276.27,1174.44 1276.18,1174.55 1276.18,1174.55 1276.18,1174.55 1276.10,1174.67 1276.02,1174.78 1276.02,1174.78 1276.02,1174.78 1275.95,1174.91 1275.88,1175.03 1275.88,1175.03 1275.88,1175.03 1275.83,1175.17 1275.77,1175.30 1275.77,1175.30 1275.77,1175.30 1275.73,1175.43 1275.68,1175.57 1275.68,1175.57 1275.68,1175.57 1275.65,1175.71 1275.62,1175.85 1275.62,1175.85 1275.62,1175.85 1275.60,1176.00 1275.58,1176.14 1275.58,1176.14 1275.58,1176.14 1275.57,1176.29 1275.56,1176.43 1275.56,1176.43 1275.56,1176.43 1275.56,1179.39 875.51,1179.39 875.51,1082.88 1289.34,1082.88 1289.34,1173.46" fill="#2196F3" fill-opacity="0.45" stroke="#2196F3" stroke-width="0.8"/>
<text x="1082.0" y="1131.0" fill="#fff" font-size="9" text-anchor="middle" dominant-baseline="middle" font-family="Segoe UI, sans-serif" paint-order="stroke" stroke="#000" stroke-width="2" pointer-events="none">SLAB-042</text>
<polygon class="slab-poly" data-slab-id="SLAB-043" points="2350.93,1179.39 1937.10,1179.39 1937.10,1082.88 2181.56,1082.88 2350.93,1082.88 2350.93,1179.39" fill="#2196F3" fill-opacity="0.45" stroke="#2196F3" stroke-width="0.8"/>
<text x="2144.0" y="1131.1" fill="#fff" font-size="9" text-anchor="middle" dominant-baseline="middle" font-family="Segoe UI, sans-serif" paint-order="stroke" stroke="#000" stroke-width="2" pointer-events="none">SLAB-043</text>
<polygon class="slab-poly" data-slab-id="SLAB-044" points="1937.10,1435.10 1937.10,1172.86 2350.93,1172.86 2350.93,1435.10 1937.10,1435.10" fill="#2196F3" fill-opacity="0.45" stroke="#2196F3" stroke-width="0.8"/>
<text x="2144.0" y="1304.0" fill="#fff" font-size="9" text-anchor="middle" dominant-baseline="middle" font-family="Segoe UI, sans-serif" paint-order="stroke" stroke="#000" stroke-width="2" pointer-events="none">SLAB-044</text>
<polygon class="slab-poly" data-slab-id="SLAB-045" points="1289.34,1435.10 875.51,1435.10 875.51,1172.86 1289.34,1172.86 1289.34,1173.46 1278.27,1173.46 1278.27,1173.46 1278.27,1173.46 1278.13,1173.47 1278.00,1173.48 1278.00,1173.48 1278.00,1173.48 1277.87,1173.50 1277.74,1173.52 1277.74,1173.52 1277.74,1173.52 1277.61,1173.56 1277.48,1173.59 1277.48,1173.59 1277.48,1173.59 1277.36,1173.64 1277.23,1173.69 1277.23,1173.69 1277.23,1173.69 1277.11,1173.75 1276.99,1173.81 1276.99,1173.81 1276.99,1173.81 1276.88,1173.89 1276.77,1173.96 1276.77,1173.96 1276.77,1173.96 1276.66,1174.05 1276.55,1174.14 1276.55,1174.14 1276.55,1174.14 1276.45,1174.24 1276.36,1174.33 1276.36,1174.33 1276.36,1174.33 1276.27,1174.44 1276.18,1174.55 1276.18,1174.55 1276.18,1174.55 1276.10,1174.67 1276.02,1174.78 1276.02,1174.78 1276.02,1174.78 1275.95,1174.91 1275.88,1175.03 1275.88,1175.03 1275.88,1175.03 1275.83,1175.17 1275.77,1175.30 1275.77,1175.30 1275.77,1175.30 1275.73,1175.43 1275.68,1175.57 1275.68,1175.57 1275.68,1175.57 1275.65,1175.71 1275.62,1175.85 1275.62,1175.85 1275.62,1175.85 1275.60,1176.00 1275.58,1176.14 1275.58,1176.14 1275.58,1176.14 1275.57,1176.29 1275.56,1176.43 1275.56,1176.43 1275.56,1176.43 1275.56,1372.44 1275.58,1372.73 1275.62,1373.01 1275.68,1373.30 1275.77,1373.57 1275.88,1373.84 1276.02,1374.09 1276.18,1374.32 1276.36,1374.54 1276.55,1374.73 1276.77,1374.90 1276.99,1375.05 1277.23,1375.18 1277.48,1375.28 1277.74,1375.35 1278.00,1375.39 1278.27,1375.41 1278.53,1375.39 1278.79,1375.35 1279.05,1375.28 1279.30,1375.18 1279.54,1375.05 1279.77,1374.90 1279.98,1374.73 1280.18,1374.54 1280.35,1374.32 1280.51,1374.09 1280.65,1373.84 1280.76,1373.57 1280.85,1373.30 1280.92,1373.01 1280.95,1372.73 1280.97,1372.44 1280.97,1179.40 1289.34,1179.40 1289.34,1435.10" fill="#2196F3" fill-opacity="0.45" stroke="#2196F3" stroke-width="0.8"/>
<text x="1080.4" y="1304.3" fill="#fff" font-size="9" text-anchor="middle" dominant-baseline="middle" font-family="Segoe UI, sans-serif" paint-order="stroke" stroke="#000" stroke-width="2" pointer-events="none">SLAB-045</text>
<polygon class="slab-poly" data-slab-id="SLAB-046" points="1440.61,1500.43 1283.40,1500.43 1283.40,1179.40 1291.77,1179.40 1291.77,1372.44 1291.79,1372.73 1291.82,1373.01 1291.89,1373.30 1291.98,1373.57 1292.09,1373.84 1292.23,1374.09 1292.39,1374.32 1292.56,1374.54 1292.76,1374.73 1292.97,1374.90 1293.20,1375.05 1293.44,1375.18 1293.69,1375.28 1293.95,1375.35 1294.21,1375.39 1294.47,1375.41 1294.74,1375.39 1295.00,1375.35 1295.26,1375.28 1295.51,1375.18 1295.75,1375.05 1295.97,1374.90 1296.19,1374.73 1296.38,1374.54 1296.56,1374.32 1296.72,1374.09 1296.86,1373.84 1296.97,1373.57 1297.06,1373.30 1297.12,1373.01 1297.16,1372.73 1297.17,1372.44 1297.17,1197.22 1326.89,1197.22 1327.15,1197.21 1327.42,1197.16 1327.67,1197.09 1327.92,1197.00 1328.16,1196.87 1328.39,1196.72 1328.60,1196.55 1328.80,1196.35 1328.98,1196.14 1329.13,1195.90 1329.27,1195.65 1329.38,1195.39 1329.47,1195.11 1329.54,1194.83 1329.58,1194.54 1329.59,1194.25 1329.59,1176.43 1329.58,1176.14 1329.54,1175.85 1329.47,1175.57 1329.38,1175.30 1329.27,1175.03 1329.13,1174.78 1328.98,1174.55 1328.80,1174.33 1328.60,1174.14 1328.39,1173.96 1328.16,1173.81 1327.92,1173.69 1327.67,1173.59 1327.42,1173.52 1327.15,1173.48 1326.89,1173.46 1283.40,1173.46 1283.40,1172.86 1440.61,1172.86 1440.61,1437.77 1426.83,1437.77 1426.83,1396.19 1426.82,1395.90 1426.78,1395.61 1426.72,1395.33 1426.63,1395.06 1426.52,1394.79 1426.38,1394.54 1426.22,1394.31 1426.04,1394.09 1425.85,1393.90 1425.63,1393.72 1425.41,1393.58 1425.17,1393.45 1424.92,1393.35 1424.66,1393.28 1424.40,1393.24 1424.13,1393.22 1423.87,1393.24 1423.61,1393.28 1423.35,1393.35 1423.10,1393.45 1422.86,1393.58 1422.63,1393.72 1422.42,1393.90 1422.22,1394.09 1422.04,1394.31 1421.89,1394.54 1421.75,1394.79 1421.64,1395.06 1421.55,1395.33 1421.48,1395.61 1421.44,1395.90 1421.43,1396.19 1421.43,1440.74 1421.44,1441.03 1421.48,1441.32 1421.55,1441.60 1421.64,1441.88 1421.75,1442.14 1421.89,1442.39 1422.04,1442.62 1422.22,1442.84 1422.42,1443.04 1422.63,1443.21 1422.86,1443.36 1423.10,1443.48 1423.35,1443.58 1423.61,1443.65 1423.87,1443.70 1424.13,1443.71 1440.61,1443.71 1440.61,1500.43" fill="#2196F3" fill-opacity="0.45" stroke="#2196F3" stroke-width="0.8"/>
<text x="1363.4" y="1341.5" fill="#fff" font-size="9" text-anchor="middle" dominant-baseline="middle" font-family="Segoe UI, sans-serif" paint-order="stroke" stroke="#000" stroke-width="2" pointer-events="none">SLAB-046</text>
<polygon class="slab-poly" data-slab-id="SLAB-047" points="1943.04,1172.86 1943.04,1500.43 1785.83,1500.43 1785.83,1250.78 1789.72,1248.76 1796.54,1244.26 1802.93,1239.06 1808.82,1233.18 1814.17,1226.71 1818.90,1219.68 1822.99,1212.18 1826.39,1204.28 1829.07,1196.05 1831.00,1187.57 1832.17,1178.92 1832.44,1172.86 1943.04,1172.86" fill="#2196F3" fill-opacity="0.45" stroke="#2196F3" stroke-width="0.8"/>
<text x="1867.6" y="1343.7" fill="#fff" font-size="9" text-anchor="middle" dominant-baseline="middle" font-family="Segoe UI, sans-serif" paint-order="stroke" stroke="#000" stroke-width="2" pointer-events="none">SLAB-047</text>
<polygon class="slab-poly" data-slab-id="SLAB-048" points="1621.59,1500.43 1434.67,1500.43 1434.67,1443.71 1445.74,1443.71 1446.01,1443.70 1446.27,1443.65 1446.53,1443.58 1446.78,1443.48 1447.02,1443.36 1447.24,1443.21 1447.46,1443.04 1447.65,1442.84 1447.83,1442.62 1447.99,1442.39 1448.13,1442.14 1448.24,1441.88 1448.33,1441.60 1448.39,1441.32 1448.43,1441.03 1448.44,1440.74 1448.44,1372.44 1448.43,1372.15 1448.39,1371.86 1448.33,1371.57 1448.24,1371.30 1448.13,1371.04 1447.99,1370.79 1447.83,1370.55 1447.65,1370.34 1447.46,1370.14 1447.24,1369.97 1447.02,1369.82 1446.78,1369.69 1446.53,1369.60 1446.27,1369.52 1446.01,1369.48 1445.74,1369.47 1445.48,1369.48 1445.22,1369.52 1444.96,1369.60 1444.71,1369.69 1444.47,1369.82 1444.24,1369.97 1444.03,1370.14 1443.83,1370.34 1443.65,1370.55 1443.50,1370.79 1443.36,1371.04 1443.25,1371.30 1443.16,1371.57 1443.09,1371.86 1443.05,1372.15 1443.04,1372.44 1443.04,1437.77 1434.67,1437.77 1434.67,1172.86 1543.11,1172.86 1543.38,1178.92 1544.54,1187.57 1546.48,1196.05 1549.16,1204.28 1552.56,1212.18 1556.64,1219.68 1561.38,1226.71 1566.72,1233.18 1572.62,1239.06 1579.00,1244.26 1585.82,1248.76 1593.01,1252.50 1600.50,1255.44 1608.21,1257.57 1616.08,1258.85 1621.59,1259.15 1621.59,1500.43" fill="#2196F3" fill-opacity="0.45" stroke="#2196F3" stroke-width="0.8"/>
<text x="1523.1" y="1348.1" fill="#fff" font-size="9" text-anchor="middle" dominant-baseline="middle" font-family="Segoe UI, sans-serif" paint-order="stroke" stroke="#000" stroke-width="2" pointer-events="none">SLAB-048</text>
<polygon class="slab-poly" data-slab-id="SLAB-049" points="1791.77,1500.43 1615.65,1500.43 1615.65,1258.78 1616.08,1258.85 1624.02,1259.28 1751.52,1259.28 1759.47,1258.85 1767.33,1257.57 1775.05,1255.44 1782.53,1252.50 1789.72,1248.76 1791.77,1247.41 1791.77,1500.43" fill="#2196F3" fill-opacity="0.45" stroke="#2196F3" stroke-width="0.8"/>
<text x="1704.0" y="1379.4" fill="#fff" font-size="9" text-anchor="middle" dominant-baseline="middle" font-family="Segoe UI, sans-serif" paint-order="stroke" stroke="#000" stroke-width="2" pointer-events="none">SLAB-049</text>
<polygon class="slab-poly" data-slab-id="SLAB-050" points="2748.41,1500.43 2372.00,1500.43 2372.00,1372.44 2380.37,1372.44 2380.37,1339.77 2372.00,1339.77 2372.00,1172.86 2377.67,1172.86 2377.67,1186.82 2377.68,1187.11 2377.72,1187.40 2377.79,1187.68 2377.88,1187.95 2377.99,1188.22 2378.13,1188.47 2378.28,1188.70 2378.46,1188.92 2378.66,1189.11 2378.87,1189.29 2379.10,1189.44 2379.34,1189.56 2379.59,1189.66 2379.84,1189.73 2380.11,1189.77 2380.37,1189.79 2448.96,1189.79 2444.14,1195.63 2439.41,1202.65 2435.32,1210.15 2431.92,1218.06 2429.24,1226.29 2427.31,1234.77 2426.14,1243.42 2425.75,1252.15 2425.75,1268.50 2380.37,1268.50 2380.37,1268.50 2380.11,1268.51 2379.84,1268.55 2379.59,1268.62 2379.34,1268.72 2379.10,1268.85 2378.87,1269.00 2378.66,1269.17 2378.46,1269.37 2378.28,1269.58 2378.13,1269.82 2377.99,1270.07 2377.88,1270.33 2377.79,1270.60 2377.72,1270.89 2377.68,1271.17 2377.67,1271.47 2377.67,1271.47 2377.67,1283.34 2377.67,1283.34 2377.68,1283.63 2377.68,1283.63 2377.68,1283.64 2377.72,1283.92 2377.79,1284.21 2377.88,1284.48 2377.99,1284.74 2378.13,1284.99 2378.28,1285.23 2378.46,1285.44 2378.66,1285.64 2378.87,1285.81 2379.10,1285.96 2379.34,1286.09 2379.59,1286.19 2379.84,1286.26 2380.11,1286.30 2380.37,1286.31 2425.75,1286.31 2425.75,1309.17 2426.14,1317.90 2427.31,1326.55 2429.24,1335.03 2431.92,1343.26 2435.32,1351.17 2439.41,1358.67 2444.14,1365.69 2449.48,1372.17 2455.38,1378.04 2461.76,1383.25 2468.59,1387.74 2475.77,1391.48 2483.26,1394.42 2490.98,1396.55 2498.84,1397.83 2506.79,1398.26 2626.42,1398.26 2634.36,1397.83 2642.23,1396.55 2649.94,1394.42 2657.43,1391.48 2664.62,1387.74 2671.44,1383.25 2677.83,1378.04 2683.72,1372.17 2689.06,1365.69 2693.80,1358.67 2697.89,1351.17 2701.29,1343.26 2703.97,1335.03 2705.90,1326.55 2707.07,1317.90 2707.46,1309.17 2707.46,1252.15 2707.07,1243.42 2705.90,1234.77 2703.97,1226.29 2701.29,1218.06 2697.89,1210.15 2693.80,1202.65 2689.06,1195.63 2683.72,1189.15 2677.83,1183.28 2671.44,1178.07 2664.62,1173.58 2663.24,1172.86 2748.41,1172.86 2748.41,1200.27 2747.72,1201.87 2745.05,1210.10 2743.11,1218.58 2741.95,1227.23 2741.56,1235.96 2741.56,1381.01 2741.95,1389.75 2743.11,1398.40 2745.05,1406.88 2747.72,1415.11 2748.41,1416.70 2748.41,1500.43" fill="#2196F3" fill-opacity="0.45" stroke="#2196F3" stroke-width="0.8"/>
<text x="2556.3" y="1391.9" fill="#fff" font-size="9" text-anchor="middle" dominant-baseline="middle" font-family="Segoe UI, sans-serif" paint-order="stroke" stroke="#000" stroke-width="2" pointer-events="none">SLAB-050</text>
<polygon class="slab-poly" data-slab-id="SLAB-051" points="854.44,1500.43 478.03,1500.43 478.03,1416.70 478.71,1415.11 481.39,1406.88 483.33,1398.40 484.49,1389.75 484.88,1381.01 484.88,1235.96 484.49,1227.23 483.33,1218.58 481.39,1210.10 478.71,1201.87 478.03,1200.27 478.03,1172.86 563.20,1172.86 561.82,1173.58 555.00,1178.07 548.61,1183.28 542.72,1189.15 537.38,1195.63 532.64,1202.65 528.55,1210.15 525.15,1218.06 522.47,1226.29 520.54,1234.77 519.37,1243.42 518.98,1252.15 518.98,1309.17 519.37,1317.90 520.54,1326.55 522.47,1335.03 525.15,1343.26 528.55,1351.17 532.64,1358.67 537.38,1365.69 542.72,1372.17 548.61,1378.04 555.00,1383.25 561.82,1387.74 569.01,1391.48 576.50,1394.42 581.11,1395.70 581.11,1396.19 581.12,1396.49 581.16,1396.77 581.23,1397.06 581.32,1397.33 581.43,1397.59 581.57,1397.84 581.72,1398.08 581.90,1398.29 582.10,1398.49 582.31,1398.66 582.54,1398.81 582.78,1398.94 583.03,1399.04 583.29,1399.11 583.55,1399.15 583.81,1399.16 600.02,1399.16 600.28,1399.15 600.55,1399.11 600.80,1399.04 601.05,1398.94 601.29,1398.81 601.52,1398.66 601.73,1398.49 601.93,1398.29 601.96,1398.26 717.72,1398.26 717.74,1398.29 717.94,1398.49 718.15,1398.66 718.38,1398.81 718.62,1398.94 718.87,1399.04 719.13,1399.11 719.39,1399.15 719.65,1399.16 735.86,1399.16 846.07,1399.16 854.44,1399.16 854.44,1500.43" fill="#2196F3" fill-opacity="0.45" stroke="#2196F3" stroke-width="0.8"/>
<text x="632.3" y="1414.7" fill="#fff" font-size="9" text-anchor="middle" dominant-baseline="middle" font-family="Segoe UI, sans-serif" paint-order="stroke" stroke="#000" stroke-width="2" pointer-events="none">SLAB-051</text>
<polygon class="slab-poly" data-slab-id="SLAB-052" points="875.51,1500.43 875.51,1428.56 1289.34,1428.56 1289.34,1500.43 875.51,1500.43" fill="#2196F3" fill-opacity="0.45" stroke="#2196F3" stroke-width="0.8"/>
</svg>