<svg xmlns="http://www.w3.org/2000/svg" width="3200" height="1600" viewBox="0 0 3200 1600">
<rect width="100%" height="100%" fill="#121212"/>
<polygon points="598.16,1372.44 598.16,1384.32 419.04,1384.32 419.04,1372.44 598.16,1372.44" fill="#FF9800" fill-opacity="0.12" stroke="#FFB74D" stroke-width="0.6"/>
<polygon points="327.19,1390.25 338.00,1390.25 338.00,1390.25 383.92,1390.25 383.92,1390.25 402.83,1390.25 402.83,1396.19 408.23,1396.19 408.28,1485.28 402.83,1485.29 402.83,1491.22 401.70,1491.23 413.63,1491.23 413.63,1396.19 419.04,1396.19 419.04,1390.25 598.16,1390.25 598.16,1402.13 424.44,1402.13 424.44,1497.17 419.04,1497.17 419.04,1503.10 85.43,1503.10 85.43,1497.17 80.03,1497.17 80.03,1157.12 90.84,1157.12 90.84,1329.36 96.24,1329.36 96.24,1157.12 107.04,1157.12 107.04,1335.30 175.92,1335.30 175.92,1341.24 181.33,1341.24 181.33,1350.74 175.92,1350.74 175.92,1356.68 107.04,1356.68 107.04,1372.57 178.86,1372.57 178.86,1384.45 101.64,1384.45 101.64,1378.51 96.24,1378.51 96.24,1356.68 90.84,1356.68 90.84,1491.23 101.53,1491.23 101.53,1485.43 96.24,1485.43 96.24,1396.31 101.64,1396.31 101.64,1390.37 186.73,1390.37 316.39,1390.25 316.39,1396.19 321.79,1396.19 321.79,1485.29 321.79,1396.19 327.19,1396.19 327.19,1390.25" fill="#FF9800" fill-opacity="0.12" stroke="#FFB74D" stroke-width="0.6"/>
<polygon points="719.65,1315.11 719.65,1326.99 600.02,1326.99 600.02,1315.11 719.65,1315.11" fill="#FF9800" fill-opacity="0.12" stroke="#FFB74D" stroke-width="0.6"/>
<polygon points="600.02,1303.23 719.65,1303.23 719.65,1315.11 600.02,1315.11 600.02,1303.23" fill="#FF9800" fill-opacity="0.12" stroke="#FFB74D" stroke-width="0.6"/>
<polygon points="735.86,1283.34 846.07,1283.34 846.07,1295.22 735.86,1295.22 735.86,1283.34" fill="#FF9800" fill-opacity="0.12" stroke="#FFB74D" stroke-width="0.6"/>
<polygon points="741.26,1265.53 776.38,1265.53 776.38,1277.40 741.26,1277.40 741.26,1265.53" fill="#FF9800" fill-opacity="0.12" stroke="#FFB74D" stroke-width="0.6"/>
<polygon points="316.39,1157.12 316.39,1157.12 321.79,1157.12 321.79,1151.18 402.83,1151.18 402.83,1157.12 408.23,1157.12 408.23,1224.08 402.83,1224.08 402.83,1230.02 402.83,1230.02 402.83,1241.90 327.19,1241.90 327.19,1372.57 402.83,1372.57 402.83,1384.45 236.70,1384.45 236.70,1372.57 276.41,1372.57 276.41,1341.24 281.81,1341.24 281.81,1335.30 305.58,1335.30 305.58,1157.12 316.39,1157.12" fill="#FF9800" fill-opacity="0.12" stroke="#FFB74D" stroke-width="0.6"/>
<polygon points="719.65,1258.09 600.02,1258.09 600.02,1246.21 719.65,1246.21 719.65,1258.09" fill="#FF9800" fill-opacity="0.12" stroke="#FFB74D" stroke-width="0.6"/>
<polygon points="719.65,1246.21 600.02,1246.21 600.02,1234.33 719.65,1234.33 719.65,1246.21" fill="#FF9800" fill-opacity="0.12" stroke="#FFB74D" stroke-width="0.6"/>
<polygon points="424.44,1224.08 413.64,1224.08 413.63,1157.12 424.44,1157.12 424.44,1224.08" fill="#FF9800" fill-opacity="0.12" stroke="#FFB74D" stroke-width="0.6"/>
<polygon points="321.79,1133.38 402.83,1133.36 402.83,1145.24 321.79,1145.26 321.79,1133.38" fill="#FF9800" fill-opacity="0.12" stroke="#FFB74D" stroke-width="0.6"/>
<polygon points="198.31,943.30 209.12,943.30 209.12,1139.30 198.31,1139.30 198.31,1139.30 187.51,1139.30 187.51,943.30 198.31,943.30 198.31,943.30" fill="#FF9800" fill-opacity="0.12" stroke="#FFB74D" stroke-width="0.6"/>
<polygon points="578.41,907.66 578.41,919.54 487.35,919.54 487.35,907.66 578.41,907.66" fill="#FF9800" fill-opacity="0.12" stroke="#FFB74D" stroke-width="0.6"/>
<polygon points="766.65,907.66 920.62,907.66 920.62,919.54 766.65,919.54 766.65,907.66" fill="#FF9800" fill-opacity="0.12" stroke="#FFB74D" stroke-width="0.6"/>
<polygon points="745.04,907.66 745.04,919.54 600.02,919.54 600.02,907.66 745.04,907.66" fill="#FF9800" fill-opacity="0.12" stroke="#FFB74D" stroke-width="0.6"/>
<polygon points="766.65,883.90 920.62,883.90 920.62,895.78 766.65,895.78 766.65,883.90" fill="#FF9800" fill-opacity="0.12" stroke="#FFB74D" stroke-width="0.6"/>
<polygon points="745.04,883.90 745.04,895.78 600.02,895.78 600.02,883.90 745.04,883.90" fill="#FF9800" fill-opacity="0.12" stroke="#FFB74D" stroke-width="0.6"/>
<polygon points="173.46,925.48 173.46,771.05 184.26,771.05 184.26,925.48 173.46,925.48" fill="#FF9800" fill-opacity="0.12" stroke="#FFB74D" stroke-width="0.6"/>
<polygon points="205.87,771.05 205.87,765.11 470.51,765.11 470.51,771.05 476.56,771.05 476.56,889.84 465.75,889.84 465.75,776.99 211.28,776.99 211.28,925.48 200.47,925.48 200.47,771.05 205.87,771.05" fill="#FF9800" fill-opacity="0.12" stroke="#FFB74D" stroke-width="0.6"/>
<polygon points="481.94,889.84 481.94,771.05 492.75,771.05 492.75,883.90 578.41,883.90 578.41,895.78 487.35,895.78 487.35,889.84 481.94,889.84" fill="#FF9800" fill-opacity="0.12" stroke="#FFB74D" stroke-width="0.6"/>
<polygon points="205.87,747.29 471.15,747.29 471.15,759.17 205.87,759.17 205.87,747.29" fill="#FF9800" fill-opacity="0.12" stroke="#FFB74D" stroke-width="0.6"/>
<polygon points="503.03,676.02 503.03,676.02 497.61,676.02 497.61,676.02 497.61,670.08 492.21,670.08 492.21,652.26 497.61,652.26 497.61,646.32 497.61,646.32 497.61,646.32 503.03,646.32 503.03,646.32 540.84,646.32 540.84,646.32 627.27,646.32 627.27,646.32 851.47,646.32 851.47,658.20 770.43,658.20 770.43,664.14 851.47,664.14 851.47,676.02 729.91,676.02 729.91,753.23 729.91,753.23 724.51,753.23 724.51,759.17 713.71,759.17 713.71,753.23 708.30,753.23 708.30,753.23 702.90,753.23 702.90,676.02 570.00,676.02 570.00,753.23 559.20,753.23 559.20,753.23 548.39,753.23 548.39,676.02 503.03,676.02" fill="#FF9800" fill-opacity="0.12" stroke="#FFB74D" stroke-width="0.6"/>
<polygon points="878.48,664.14 1032.45,664.14 1032.45,676.02 878.48,676.02 878.48,664.14" fill="#FF9800" fill-opacity="0.12" stroke="#FFB74D" stroke-width="0.6"/>
<polygon points="1032.45,646.32 1032.45,658.20 878.48,658.20 878.48,646.32 1032.45,646.32" fill="#FF9800" fill-opacity="0.12" stroke="#FFB74D" stroke-width="0.6"/>
<polygon points="1032.45,595.24 1032.45,607.12 878.48,607.12 878.48,595.24 1032.45,595.24" fill="#FF9800" fill-opacity="0.12" stroke="#FFB74D" stroke-width="0.6"/>
<polygon points="173.46,625.50 173.46,494.84 184.26,494.84 184.26,625.50 173.46,625.50" fill="#FF9800" fill-opacity="0.12" stroke="#FFB74D" stroke-width="0.6"/>
<polygon points="200.47,625.50 200.47,494.84 211.28,494.84 211.28,625.50 200.47,625.50" fill="#FF9800" fill-opacity="0.12" stroke="#FFB74D" stroke-width="0.6"/>
<polygon points="878.48,497.84 1032.45,497.84 1032.45,509.72 878.48,509.72 878.48,497.84" fill="#FF9800" fill-opacity="0.12" stroke="#FFB74D" stroke-width="0.6"/>
<polygon points="878.48,480.02 878.48,480.02 891.99,480.02 891.99,480.02 1032.45,480.02 1032.45,491.90 878.48,491.90 878.48,491.90 878.48,491.90 878.48,485.96 878.48,480.02 878.48,480.02" fill="#FF9800" fill-opacity="0.12" stroke="#FFB74D" stroke-width="0.6"/>
<polygon points="462.49,187.53 473.30,187.53 473.30,652.26 470.60,652.26 470.60,652.26 476.00,652.26 476.00,670.15 470.60,670.15 470.60,676.09 430.08,676.09 430.08,676.07 205.87,675.96 205.87,670.02 200.53,670.02 200.53,652.20 205.87,652.20 205.87,646.36 205.94,646.36 205.94,646.26 395.48,646.26 395.48,646.36 430.08,646.36 430.08,646.32 462.49,646.32 462.49,187.53" fill="#FF9800" fill-opacity="0.12" stroke="#FFB74D" stroke-width="0.6"/>
<polygon points="503.01,580.99 492.21,580.99 492.21,187.53 503.01,187.53 503.01,580.99" fill="#FF9800" fill-opacity="0.12" stroke="#FFB74D" stroke-width="0.6"/>
<polygon points="856.87,390.93 846.07,390.93 846.07,187.53 856.87,187.53 856.87,390.93" fill="#FF9800" fill-opacity="0.12" stroke="#FFB74D" stroke-width="0.6"/>
<polygon points="873.08,390.93 873.08,185.13 883.89,185.13 883.88,390.93 873.08,390.93" fill="#FF9800" fill-opacity="0.12" stroke="#FFB74D" stroke-width="0.6"/>
<polygon points="242.07,111.77 247.47,111.77 247.47,105.83 467.89,105.83 467.89,117.71 252.88,117.71 252.88,278.08 247.47,278.08 247.47,284.02 205.87,284.02 205.87,272.14 242.07,272.14 242.07,111.77" fill="#FF9800" fill-opacity="0.12" stroke="#FFB74D" stroke-width="0.6"/>
<polygon points="231.27,260.26 205.87,260.26 205.87,248.38 225.86,248.38 225.86,117.71 205.87,117.71 205.87,105.83 231.27,105.83 231.27,111.77 236.67,111.77 236.67,254.32 231.27,254.32 231.27,260.26" fill="#FF9800" fill-opacity="0.12" stroke="#FFB74D" stroke-width="0.6"/>
<polygon points="851.47,117.71 497.61,117.71 497.61,105.83 851.47,105.83 851.47,117.71" fill="#FF9800" fill-opacity="0.12" stroke="#FFB74D" stroke-width="0.6"/>
<polygon points="205.87,88.01 497.61,88.01 497.61,93.95 497.61,88.01 851.47,88.01 851.47,99.89 497.61,99.89 497.61,99.89 205.87,99.89 205.87,88.01" fill="#FF9800" fill-opacity="0.12" stroke="#FFB74D" stroke-width="0.6"/>
<polygon points="1391.72,1188.31 1391.72,1200.19 1326.89,1200.19 1326.89,1188.31 1391.72,1188.31" fill="#FF9800" fill-opacity="0.12" stroke="#FFB74D" stroke-width="0.6"/>
<polygon points="1326.89,1170.49 1391.72,1170.49 1391.72,1182.37 1326.89,1182.37 1326.89,1170.49" fill="#FF9800" fill-opacity="0.12" stroke="#FFB74D" stroke-width="0.6"/>
<polygon points="1283.67,1176.43 1272.86,1176.43 1272.86,1079.91 1283.67,1079.91 1283.67,1176.43" fill="#FF9800" fill-opacity="0.12" stroke="#FFB74D" stroke-width="0.6"/>
<polygon points="1299.88,1176.43 1289.07,1176.43 1289.07,1079.91 1299.88,1079.91 1299.88,1176.43" fill="#FF9800" fill-opacity="0.12" stroke="#FFB74D" stroke-width="0.6"/>
<polygon points="1272.86,1057.48 1272.86,913.60 1283.67,913.60 1283.67,1057.48 1272.86,1057.48" fill="#FF9800" fill-opacity="0.12" stroke="#FFB74D" stroke-width="0.6"/>
<polygon points="1289.07,913.60 1299.88,913.60 1299.88,1057.48 1289.07,1057.48 1289.07,913.60" fill="#FF9800" fill-opacity="0.12" stroke="#FFB74D" stroke-width="0.6"/>
<polygon points="1768.18,1095.35 1768.18,1164.25 1781.15,1164.25 1781.15,1176.13 1780.70,1176.13 1780.70,1188.00 1445.74,1188.00 1445.74,1176.13 1445.74,1164.25 1607.82,1164.25 1607.82,907.66 1445.74,907.66 1445.74,895.78 1445.74,895.78 1445.74,889.84 1440.34,889.84 1440.34,771.05 1445.74,771.05 1445.74,765.11 1780.70,765.11 1780.70,771.05 1786.10,771.05 1786.10,889.84 1780.70,889.84 1780.70,895.78 1780.70,895.78 1780.70,907.66 1630.27,907.66 1630.27,901.72 1630.27,907.66 1629.43,907.66 1629.43,1071.59 1780.70,1071.59 1780.70,1083.47 1751.52,1083.47 1751.52,1089.41 1756.93,1089.41 1756.93,1170.19 1751.52,1170.19 1751.52,1176.13 1762.78,1176.13 1762.78,1170.19 1757.38,1170.19 1757.38,1089.41 1762.78,1089.41 1762.78,1083.47 1781.15,1083.47 1781.15,1095.35 1768.18,1095.35" fill="#FF9800" fill-opacity="0.12" stroke="#FFB74D" stroke-width="0.6"/>
<polygon points="1418.73,907.66 1418.73,919.54 1299.88,919.54 1299.88,907.66 1418.73,907.66" fill="#FF9800" fill-opacity="0.12" stroke="#FFB74D" stroke-width="0.6"/>
<polygon points="1095.12,907.66 1095.12,919.54 942.23,919.54 942.23,907.66 1095.12,907.66" fill="#FF9800" fill-opacity="0.12" stroke="#FFB74D" stroke-width="0.6"/>
<polygon points="942.23,883.90 1096.20,883.90 1096.20,895.78 942.23,895.78 942.23,883.90" fill="#FF9800" fill-opacity="0.12" stroke="#FFB74D" stroke-width="0.6"/>
<polygon points="1299.88,883.90 1418.73,883.90 1418.73,895.78 1299.88,895.78 1299.88,883.90" fill="#FF9800" fill-opacity="0.12" stroke="#FFB74D" stroke-width="0.6"/>
<polygon points="1434.94,889.84 1424.13,889.84 1424.13,771.05 1434.94,771.05 1434.94,889.84" fill="#FF9800" fill-opacity="0.12" stroke="#FFB74D" stroke-width="0.6"/>
<polygon points="1445.74,747.30 1780.70,747.30 1780.70,747.30 1780.70,759.17 1780.70,759.17 1445.74,759.17 1445.74,759.17 1445.74,747.30 1445.74,747.30" fill="#FF9800" fill-opacity="0.12" stroke="#FFB74D" stroke-width="0.6"/>
<polygon points="1290.15,759.17 1290.15,753.23 1284.75,753.23 1284.75,735.41 1290.15,735.41 1290.15,729.47 1424.13,729.47 1424.13,735.41 1429.54,735.41 1429.54,753.23 1424.13,753.23 1424.13,759.17 1290.15,759.17" fill="#FF9800" fill-opacity="0.12" stroke="#FFB74D" stroke-width="0.6"/>
<polygon points="1048.66,664.14 1122.67,664.14 1122.67,676.02 1048.66,676.02 1048.66,664.14" fill="#FF9800" fill-opacity="0.12" stroke="#FFB74D" stroke-width="0.6"/>
<polygon points="1122.67,658.20 1048.66,658.20 1048.66,646.32 1122.67,646.32 1122.67,658.20" fill="#FF9800" fill-opacity="0.12" stroke="#FFB74D" stroke-width="0.6"/>
<polygon points="1440.34,598.81 1445.74,598.81 1445.74,592.87 1780.25,592.87 1780.25,598.81 1786.10,598.81 1786.10,693.25 1775.29,693.25 1775.29,604.75 1451.15,604.75 1451.15,693.25 1440.34,693.25 1440.34,598.81" fill="#FF9800" fill-opacity="0.12" stroke="#FFB74D" stroke-width="0.6"/>
<polygon points="1418.73,604.75 1259.36,604.75 1259.36,592.87 1424.13,592.87 1424.13,598.81 1429.54,598.81 1429.54,681.37 1418.73,681.37 1418.73,604.75" fill="#FF9800" fill-opacity="0.12" stroke="#FFB74D" stroke-width="0.6"/>
<polygon points="1122.68,595.25 1122.68,607.13 1051.36,607.13 1051.36,595.25 1122.68,595.25" fill="#FF9800" fill-opacity="0.12" stroke="#FFB74D" stroke-width="0.6"/>
<polygon points="1232.80,595.24 1232.35,595.24 1232.35,607.12 1138.88,607.12 1138.88,595.24 1051.36,595.24 1051.36,583.37 1138.88,583.37 1138.88,583.37 1232.35,583.37 1232.35,583.37 1232.80,583.37 1232.80,595.24" fill="#FF9800" fill-opacity="0.12" stroke="#FFB74D" stroke-width="0.6"/>
<polygon points="1032.45,583.36 1032.45,595.24 878.48,595.24 878.48,583.36 1032.45,583.36" fill="#FF9800" fill-opacity="0.12" stroke="#FFB74D" stroke-width="0.6"/>
<polygon points="1032.45,551.89 1032.45,563.76 878.48,563.77 878.48,551.89 1032.45,551.89" fill="#FF9800" fill-opacity="0.12" stroke="#FFB74D" stroke-width="0.6"/>
<polygon points="878.48,540.01 1032.45,540.01 1032.45,551.89 878.48,551.89 878.48,540.01" fill="#FF9800" fill-opacity="0.12" stroke="#FFB74D" stroke-width="0.6"/>
<polygon points="1253.96,181.56 1264.76,181.56 1264.76,440.82 1253.95,440.82 1253.96,181.56" fill="#FF9800" fill-opacity="0.12" stroke="#FFB74D" stroke-width="0.6"/>
<polygon points="1226.94,440.82 1226.94,181.56 1237.75,181.56 1237.75,440.82 1226.94,440.82" fill="#FF9800" fill-opacity="0.12" stroke="#FFB74D" stroke-width="0.6"/>
<polygon points="1424.12,159.26 1424.14,171.14 1259.37,171.48 1259.35,159.61 1424.12,159.26" fill="#FF9800" fill-opacity="0.12" stroke="#FFB74D" stroke-width="0.6"/>
<polygon points="878.48,159.29 1232.35,159.29 1232.35,171.17 878.48,171.17 878.48,159.29" fill="#FF9800" fill-opacity="0.12" stroke="#FFB74D" stroke-width="0.6"/>
<polygon points="1445.28,159.59 1780.69,158.88 1780.71,170.76 1445.30,171.47 1445.28,159.59" fill="#FF9800" fill-opacity="0.12" stroke="#FFB74D" stroke-width="0.6"/>
<polygon points="1232.35,141.47 1232.35,153.35 878.48,153.35 878.48,141.47 1232.35,141.47" fill="#FF9800" fill-opacity="0.12" stroke="#FFB74D" stroke-width="0.6"/>
<polygon points="1424.12,141.14 1424.14,153.02 1259.37,153.37 1259.35,141.49 1424.12,141.14" fill="#FF9800" fill-opacity="0.12" stroke="#FFB74D" stroke-width="0.6"/>
<polygon points="1445.28,141.47 1780.69,140.77 1780.71,152.65 1445.30,153.35 1445.28,141.47" fill="#FF9800" fill-opacity="0.12" stroke="#FFB74D" stroke-width="0.6"/>
<polygon points="1424.12,105.78 1424.14,117.66 1259.37,118.01 1259.35,106.13 1424.12,105.78" fill="#FF9800" fill-opacity="0.12" stroke="#FFB74D" stroke-width="0.6"/>
<polygon points="1232.35,105.83 1232.35,117.71 878.48,117.71 878.48,105.83 1232.35,105.83" fill="#FF9800" fill-opacity="0.12" stroke="#FFB74D" stroke-width="0.6"/>
<polygon points="1780.69,105.43 1780.71,117.31 1445.30,118.01 1445.28,106.13 1780.69,105.43" fill="#FF9800" fill-opacity="0.12" stroke="#FFB74D" stroke-width="0.6"/>
<polygon points="1232.35,99.89 878.48,99.89 878.48,88.01 1232.35,88.01 1232.35,99.89" fill="#FF9800" fill-opacity="0.12" stroke="#FFB74D" stroke-width="0.6"/>
<polygon points="1424.12,87.67 1424.14,99.55 1259.37,99.89 1259.35,88.01 1424.12,87.67" fill="#FF9800" fill-opacity="0.12" stroke="#FFB74D" stroke-width="0.6"/>
<polygon points="1445.28,88.01 1780.69,87.31 1780.71,99.19 1445.30,99.89 1445.28,88.01" fill="#FF9800" fill-opacity="0.12" stroke="#FFB74D" stroke-width="0.6"/>
<polygon points="1445.74,1434.80 1780.70,1434.80 1780.70,1446.68 1445.74,1446.68 1445.74,1434.80" fill="#FF9800" fill-opacity="0.12" stroke="#FFB74D" stroke-width="0.6"/>
<polygon points="1780.70,1416.98 1780.70,1428.86 1445.74,1428.86 1445.74,1416.98 1780.70,1416.98" fill="#FF9800" fill-opacity="0.12" stroke="#FFB74D" stroke-width="0.6"/>
<polygon points="1899.55,1200.19 1834.72,1200.19 1834.72,1188.31 1899.55,1188.31 1899.55,1200.19" fill="#FF9800" fill-opacity="0.12" stroke="#FFB74D" stroke-width="0.6"/>
<polygon points="1899.55,1182.37 1834.72,1182.37 1834.72,1170.49 1899.55,1170.49 1899.55,1182.37" fill="#FF9800" fill-opacity="0.12" stroke="#FFB74D" stroke-width="0.6"/>
<polygon points="1953.58,1079.91 1953.58,1176.43 1942.77,1176.43 1942.77,1079.91 1953.58,1079.91" fill="#FF9800" fill-opacity="0.12" stroke="#FFB74D" stroke-width="0.6"/>
<polygon points="1926.56,1176.43 1926.56,1079.91 1937.37,1079.91 1937.37,1176.43 1926.56,1176.43" fill="#FF9800" fill-opacity="0.12" stroke="#FFB74D" stroke-width="0.6"/>
<polygon points="1937.37,913.60 1937.37,1057.48 1926.56,1057.48 1926.56,913.60 1937.37,913.60" fill="#FF9800" fill-opacity="0.12" stroke="#FFB74D" stroke-width="0.6"/>
<polygon points="1942.77,1057.48 1942.77,913.60 1953.58,913.60 1953.58,1057.48 1942.77,1057.48" fill="#FF9800" fill-opacity="0.12" stroke="#FFB74D" stroke-width="0.6"/>
<polygon points="1807.71,919.54 1807.71,907.66 1926.56,907.66 1926.56,919.54 1807.71,919.54" fill="#FF9800" fill-opacity="0.12" stroke="#FFB74D" stroke-width="0.6"/>
<polygon points="2131.32,919.54 2131.32,907.66 2284.21,907.66 2284.21,919.54 2131.32,919.54" fill="#FF9800" fill-opacity="0.12" stroke="#FFB74D" stroke-width="0.6"/>
<polygon points="1807.71,895.78 1807.71,883.90 1926.56,883.90 1926.56,895.78 1807.71,895.78" fill="#FF9800" fill-opacity="0.12" stroke="#FFB74D" stroke-width="0.6"/>
<polygon points="2284.21,895.78 2130.24,895.78 2130.24,883.90 2284.21,883.90 2284.21,895.78" fill="#FF9800" fill-opacity="0.12" stroke="#FFB74D" stroke-width="0.6"/>
<polygon points="1802.31,771.05 1802.31,889.84 1791.50,889.84 1791.50,771.05 1802.31,771.05" fill="#FF9800" fill-opacity="0.12" stroke="#FFB74D" stroke-width="0.6"/>
<polygon points="1941.69,735.41 1941.69,753.23 1936.29,753.23 1936.29,759.17 1802.31,759.17 1802.31,753.23 1796.90,753.23 1796.90,735.41 1802.31,735.41 1802.31,729.47 1936.29,729.47 1936.29,735.41 1941.69,735.41" fill="#FF9800" fill-opacity="0.12" stroke="#FFB74D" stroke-width="0.6"/>
<polygon points="2103.76,664.14 2177.78,664.14 2177.78,676.02 2103.76,676.02 2103.76,664.14" fill="#FF9800" fill-opacity="0.12" stroke="#FFB74D" stroke-width="0.6"/>
<polygon points="2193.99,676.02 2193.99,664.14 2347.96,664.14 2347.96,676.02 2193.99,676.02" fill="#FF9800" fill-opacity="0.12" stroke="#FFB74D" stroke-width="0.6"/>
<polygon points="2103.76,658.20 2103.76,646.32 2177.78,646.32 2177.78,658.20 2103.76,658.20" fill="#FF9800" fill-opacity="0.12" stroke="#FFB74D" stroke-width="0.6"/>
<polygon points="2193.99,658.20 2193.99,646.32 2347.96,646.32 2347.96,658.20 2193.99,658.20" fill="#FF9800" fill-opacity="0.12" stroke="#FFB74D" stroke-width="0.6"/>
<polygon points="1967.53,592.87 1967.53,604.75 1807.71,604.75 1807.71,681.37 1796.90,681.37 1796.90,598.81 1802.31,598.81 1802.31,592.87 1967.53,592.87" fill="#FF9800" fill-opacity="0.12" stroke="#FFB74D" stroke-width="0.6"/>
<polygon points="2175.08,607.13 2104.21,607.13 2104.21,595.25 2175.08,595.25 2175.08,607.13" fill="#FF9800" fill-opacity="0.12" stroke="#FFB74D" stroke-width="0.6"/>
<polygon points="1994.54,607.12 1994.54,595.24 2088.01,595.24 2088.01,607.12 1994.54,607.12" fill="#FF9800" fill-opacity="0.12" stroke="#FFB74D" stroke-width="0.6"/>
<polygon points="2193.99,607.12 2193.99,595.24 2347.96,595.24 2347.96,607.12 2193.99,607.12" fill="#FF9800" fill-opacity="0.12" stroke="#FFB74D" stroke-width="0.6"/>
<polygon points="1994.09,595.24 1994.09,583.37 2175.08,583.37 2175.08,595.24 1994.09,595.24" fill="#FF9800" fill-opacity="0.12" stroke="#FFB74D" stroke-width="0.6"/>
<polygon points="2193.99,583.36 2347.96,583.36 2347.96,595.24 2193.99,595.24 2193.99,583.36" fill="#FF9800" fill-opacity="0.12" stroke="#FFB74D" stroke-width="0.6"/>
<polygon points="2193.99,551.89 2347.96,551.89 2347.96,563.77 2193.99,563.76 2193.99,551.89" fill="#FF9800" fill-opacity="0.12" stroke="#FFB74D" stroke-width="0.6"/>
<polygon points="2193.99,551.89 2193.99,540.01 2347.96,540.01 2347.96,551.89 2193.99,551.89" fill="#FF9800" fill-opacity="0.12" stroke="#FFB74D" stroke-width="0.6"/>
<polygon points="2347.96,509.72 2193.99,509.72 2193.99,497.84 2347.96,497.84 2347.96,509.72" fill="#FF9800" fill-opacity="0.12" stroke="#FFB74D" stroke-width="0.6"/>
<polygon points="1796.90,575.05 1796.90,181.56 1807.71,181.56 1807.71,575.05 1967.53,575.05 1967.53,586.93 1259.36,586.93 1259.36,575.05 1418.73,575.05 1418.73,181.56 1429.54,181.56 1429.54,575.05 1440.34,575.05 1440.34,181.56 1451.15,181.56 1451.15,575.05 1775.29,575.05 1775.29,181.56 1786.10,181.56 1786.10,575.05 1796.90,575.05" fill="#FF9800" fill-opacity="0.12" stroke="#FFB74D" stroke-width="0.6"/>
<polygon points="1961.68,440.82 1961.68,181.56 1972.48,181.56 1972.48,440.82 1961.68,440.82" fill="#FF9800" fill-opacity="0.12" stroke="#FFB74D" stroke-width="0.6"/>
<polygon points="1999.50,440.82 1988.69,440.82 1988.69,165.23 1994.09,165.23 1994.09,159.29 2347.96,159.29 2347.96,171.17 1999.50,171.17 1999.50,440.82" fill="#FF9800" fill-opacity="0.12" stroke="#FFB74D" stroke-width="0.6"/>
<polygon points="1967.07,172.10 1802.30,171.76 1802.32,159.88 1967.09,160.23 1967.07,172.10" fill="#FF9800" fill-opacity="0.12" stroke="#FFB74D" stroke-width="0.6"/>
<polygon points="1994.09,153.35 1994.09,141.47 2347.96,141.47 2347.96,153.35 1994.09,153.35" fill="#FF9800" fill-opacity="0.12" stroke="#FFB74D" stroke-width="0.6"/>
<polygon points="1802.30,153.00 1802.32,141.13 1967.09,141.47 1967.07,153.35 1802.30,153.00" fill="#FF9800" fill-opacity="0.12" stroke="#FFB74D" stroke-width="0.6"/>
<polygon points="1802.30,117.66 1802.32,105.78 1967.09,106.13 1967.07,118.01 1802.30,117.66" fill="#FF9800" fill-opacity="0.12" stroke="#FFB74D" stroke-width="0.6"/>
<polygon points="2347.96,117.71 1994.09,117.71 1994.09,105.83 2347.96,105.83 2347.96,117.71" fill="#FF9800" fill-opacity="0.12" stroke="#FFB74D" stroke-width="0.6"/>
<polygon points="1994.09,99.89 1994.09,88.01 2347.96,88.01 2347.96,99.89 1994.09,99.89" fill="#FF9800" fill-opacity="0.12" stroke="#FFB74D" stroke-width="0.6"/>
<polygon points="1802.30,99.55 1802.32,87.67 1967.09,88.01 1967.07,99.89 1802.30,99.55" fill="#FF9800" fill-opacity="0.12" stroke="#FFB74D" stroke-width="0.6"/>
<polygon points="2628.28,1384.32 2628.28,1372.44 2807.40,1372.44 2807.40,1384.32 2628.28,1384.32" fill="#FF9800" fill-opacity="0.12" stroke="#FFB74D" stroke-width="0.6"/>
<polygon points="3124.91,1485.43 3124.91,1491.23 3135.60,1491.23 3135.60,1356.68 3130.20,1356.68 3130.20,1378.51 3124.80,1378.51 3124.80,1384.45 3047.58,1384.45 3047.58,1372.57 3119.40,1372.57 3119.40,1356.68 3050.51,1356.68 3050.51,1350.74 3045.11,1350.74 3045.11,1341.24 3050.51,1341.24 3050.51,1335.30 3119.40,1335.30 3119.40,1157.12 3130.20,1157.12 3130.20,1329.36 3135.60,1329.36 3135.60,1157.12 3146.41,1157.12 3146.41,1497.17 3141.01,1497.17 3141.01,1503.10 2807.40,1503.10 2807.40,1497.17 2802.00,1497.17 2802.00,1402.13 2628.28,1402.13 2628.28,1390.25 2807.40,1390.25 2807.40,1396.19 2812.80,1396.19 2812.80,1491.23 2824.73,1491.23 2823.61,1491.22 2823.61,1485.29 2818.16,1485.28 2818.21,1396.19 2823.61,1396.19 2823.61,1390.25 2842.52,1390.25 2842.52,1390.25 2888.44,1390.25 2888.44,1390.25 2899.24,1390.25 2899.24,1396.19 2904.65,1396.19 2904.65,1485.29 2904.65,1396.19 2910.05,1396.19 2910.05,1390.25 3039.71,1390.37 3124.80,1390.37 3124.80,1396.31 3130.20,1396.31 3130.20,1485.43 3124.91,1485.43" fill="#FF9800" fill-opacity="0.12" stroke="#FFB74D" stroke-width="0.6"/>
<polygon points="2626.42,1326.99 2506.79,1326.99 2506.79,1315.11 2626.42,1315.11 2626.42,1326.99" fill="#FF9800" fill-opacity="0.12" stroke="#FFB74D" stroke-width="0.6"/>
<polygon points="2626.42,1315.11 2506.79,1315.11 2506.79,1303.23 2626.42,1303.23 2626.42,1315.11" fill="#FF9800" fill-opacity="0.12" stroke="#FFB74D" stroke-width="0.6"/>
<polygon points="2380.37,1295.22 2380.37,1283.34 2490.58,1283.34 2490.58,1295.22 2380.37,1295.22" fill="#FF9800" fill-opacity="0.12" stroke="#FFB74D" stroke-width="0.6"/>
<polygon points="2450.06,1265.53 2485.18,1265.53 2485.18,1277.40 2450.06,1277.40 2450.06,1265.53" fill="#FF9800" fill-opacity="0.12" stroke="#FFB74D" stroke-width="0.6"/>
<polygon points="2904.65,1157.12 2910.05,1157.12 2910.05,1157.12 2920.85,1157.12 2920.85,1335.30 2944.63,1335.30 2944.63,1341.24 2950.03,1341.24 2950.03,1372.57 2989.74,1372.57 2989.74,1384.45 2823.61,1384.45 2823.61,1372.57 2899.24,1372.57 2899.24,1241.90 2823.61,1241.90 2823.61,1230.02 2823.61,1224.08 2818.21,1224.08 2818.21,1157.12 2823.61,1157.12 2823.61,1151.18 2904.65,1151.18 2904.65,1157.12" fill="#FF9800" fill-opacity="0.12" stroke="#FFB74D" stroke-width="0.6"/>
<polygon points="2506.79,1258.09 2506.79,1246.21 2626.42,1246.21 2626.42,1258.09 2506.79,1258.09" fill="#FF9800" fill-opacity="0.12" stroke="#FFB74D" stroke-width="0.6"/>
<polygon points="2626.42,1246.21 2506.79,1246.21 2506.79,1234.33 2626.42,1234.33 2626.42,1246.21" fill="#FF9800" fill-opacity="0.12" stroke="#FFB74D" stroke-width="0.6"/>
<polygon points="2812.80,1157.12 2812.80,1224.08 2802.00,1224.08 2802.00,1157.12 2812.80,1157.12" fill="#FF9800" fill-opacity="0.12" stroke="#FFB74D" stroke-width="0.6"/>
<polygon points="2823.61,1145.24 2823.61,1133.36 2904.65,1133.38 2904.65,1145.26 2823.61,1145.24" fill="#FF9800" fill-opacity="0.12" stroke="#FFB74D" stroke-width="0.6"/>
<polygon points="3017.32,1139.30 3017.32,943.30 3028.13,943.30 3028.13,943.30 3038.93,943.30 3038.93,1139.30 3028.13,1139.30 3028.13,1139.30 3017.32,1139.30" fill="#FF9800" fill-opacity="0.12" stroke="#FFB74D" stroke-width="0.6"/>
<polygon points="3101.06,925.48 3111.87,925.48 3111.87,1139.30 3101.06,1139.30 3101.06,925.48" fill="#FF9800" fill-opacity="0.12" stroke="#FFB74D" stroke-width="0.6"/>
<polygon points="2648.03,919.54 2648.03,907.66 2739.09,907.66 2739.09,919.54 2648.03,919.54" fill="#FF9800" fill-opacity="0.12" stroke="#FFB74D" stroke-width="0.6"/>
<polygon points="2305.82,919.54 2305.82,907.66 2459.79,907.66 2459.79,919.54 2305.82,919.54" fill="#FF9800" fill-opacity="0.12" stroke="#FFB74D" stroke-width="0.6"/>
<polygon points="2626.42,919.54 2481.40,919.54 2481.40,907.66 2626.42,907.66 2626.42,919.54" fill="#FF9800" fill-opacity="0.12" stroke="#FFB74D" stroke-width="0.6"/>
<polygon points="2305.82,895.78 2305.82,883.90 2459.79,883.90 2459.79,895.78 2305.82,895.78" fill="#FF9800" fill-opacity="0.12" stroke="#FFB74D" stroke-width="0.6"/>
<polygon points="2626.42,895.78 2481.40,895.78 2481.40,883.90 2626.42,883.90 2626.42,895.78" fill="#FF9800" fill-opacity="0.12" stroke="#FFB74D" stroke-width="0.6"/>
<polygon points="3052.98,925.48 3042.17,925.48 3042.17,771.05 3052.98,771.05 3052.98,925.48" fill="#FF9800" fill-opacity="0.12" stroke="#FFB74D" stroke-width="0.6"/>
<polygon points="3015.16,776.99 2760.69,776.99 2760.69,889.84 2749.88,889.84 2749.88,771.05 2755.93,771.05 2755.93,765.11 3020.56,765.11 3020.56,771.05 3025.97,771.05 3025.97,925.48 3015.16,925.48 3015.16,776.99" fill="#FF9800" fill-opacity="0.12" stroke="#FFB74D" stroke-width="0.6"/>
<polygon points="2744.50,771.05 2744.50,889.84 2739.09,889.84 2739.09,895.78 2648.03,895.78 2648.03,883.90 2733.69,883.90 2733.69,771.05 2744.50,771.05" fill="#FF9800" fill-opacity="0.12" stroke="#FFB74D" stroke-width="0.6"/>
<polygon points="2755.28,759.17 2755.28,747.29 3020.61,747.29 3020.61,759.17 2755.28,759.17" fill="#FF9800" fill-opacity="0.12" stroke="#FFB74D" stroke-width="0.6"/>
<polygon points="2456.01,658.20 2374.97,658.20 2374.97,646.32 2599.17,646.32 2599.17,646.32 2689.37,646.32 2689.37,646.32 2723.41,646.32 2723.41,646.32 2728.83,646.32 2728.83,652.26 2734.23,652.26 2734.23,670.08 2728.83,670.08 2728.83,676.02 2728.83,676.02 2728.83,676.02 2728.82,676.02 2723.41,676.02 2723.41,676.02 2678.05,676.02 2678.05,753.23 2667.24,753.23 2667.24,753.23 2656.44,753.23 2656.44,676.02 2523.54,676.02 2523.54,753.23 2518.13,753.23 2518.13,753.23 2512.73,753.23 2512.73,759.17 2501.93,759.17 2501.93,753.23 2496.52,753.23 2496.52,753.23 2496.52,753.23 2496.52,751.52 2496.52,676.02 2374.97,676.02 2374.97,664.14 2456.01,664.14 2456.01,658.20" fill="#FF9800" fill-opacity="0.12" stroke="#FFB74D" stroke-width="0.6"/>
<polygon points="3052.98,625.50 3042.17,625.50 3042.17,494.84 3052.98,494.84 3052.98,625.50" fill="#FF9800" fill-opacity="0.12" stroke="#FFB74D" stroke-width="0.6"/>
<polygon points="3025.97,625.50 3015.16,625.50 3015.16,494.84 3025.97,494.84 3025.97,625.50" fill="#FF9800" fill-opacity="0.12" stroke="#FFB74D" stroke-width="0.6"/>
<polygon points="2347.96,480.02 2347.96,480.02 2347.96,480.02 2347.96,485.96 2347.96,491.90 2347.96,491.90 2347.96,491.90 2193.99,491.90 2193.99,480.02 2334.45,480.02 2334.45,480.02 2347.96,480.02" fill="#FF9800" fill-opacity="0.12" stroke="#FFB74D" stroke-width="0.6"/>
<polygon points="2797.47,646.36 2831.50,646.36 2831.50,646.26 3020.50,646.26 3020.50,646.36 3020.56,646.36 3020.56,652.20 3025.90,652.20 3025.90,670.02 3020.56,670.02 3020.57,675.96 2797.47,676.07 2797.47,676.09 2755.84,676.09 2755.84,670.15 2755.84,670.15 2750.44,670.15 2750.44,652.26 2753.14,652.26 2753.14,187.53 2763.95,187.53 2763.95,646.32 2797.47,646.32 2797.47,646.36" fill="#FF9800" fill-opacity="0.12" stroke="#FFB74D" stroke-width="0.6"/>
<polygon points="2734.23,580.99 2723.43,580.99 2723.43,187.53 2734.23,187.53 2734.23,580.99" fill="#FF9800" fill-opacity="0.12" stroke="#FFB74D" stroke-width="0.6"/>
<polygon points="2369.57,390.93 2369.57,187.53 2380.37,187.53 2380.37,390.93 2369.57,390.93" fill="#FF9800" fill-opacity="0.12" stroke="#FFB74D" stroke-width="0.6"/>
<polygon points="2342.55,183.73 2353.36,183.73 2353.36,390.93 2342.56,390.93 2342.55,183.73" fill="#FF9800" fill-opacity="0.12" stroke="#FFB74D" stroke-width="0.6"/>
<polygon points="3020.56,272.14 3020.56,284.02 2978.97,284.02 2978.97,278.08 2973.56,278.08 2973.56,117.71 2755.84,117.71 2755.84,105.83 2978.97,105.83 2978.97,111.77 2984.37,111.77 2984.37,272.14 3020.56,272.14" fill="#FF9800" fill-opacity="0.12" stroke="#FFB74D" stroke-width="0.6"/>
<polygon points="2989.77,111.77 2995.17,111.77 2995.17,105.83 3020.57,105.83 3020.57,117.71 3000.58,117.71 3000.58,248.38 3020.57,248.38 3020.57,260.26 2995.17,260.26 2995.17,254.32 2989.77,254.32 2989.77,111.77" fill="#FF9800" fill-opacity="0.12" stroke="#FFB74D" stroke-width="0.6"/>
<polygon points="2374.97,105.83 2728.83,105.83 2728.83,117.71 2374.97,117.71 2374.97,105.83" fill="#FF9800" fill-opacity="0.12" stroke="#FFB74D" stroke-width="0.6"/>
<polygon points="2728.83,93.95 2728.83,88.01 3020.57,88.01 3020.57,99.89 2728.83,99.89 2728.83,99.89 2374.97,99.89 2374.97,88.01 2728.83,88.01 2728.83,93.95" fill="#FF9800" fill-opacity="0.12" stroke="#FFB74D" stroke-width="0.6"/>
<polygon class="slab-poly" data-slab-id="SLAB-001" points="851.47,99.57 851.47,159.60 497.61,159.60 497.61,99.57 851.47,99.57" fill="#2196F3" fill-opacity="0.45" stroke="#2196F3" stroke-width="0.8"/>
<polygon class="slab-poly" data-slab-id="SLAB-002" points="1943.04,153.07 1943.04,355.77 1936.07,358.51 1928.88,362.25 1922.06,366.74 1915.67,371.95 1909.78,377.82 1904.44,384.30 1899.70,391.32 1895.61,398.82 1892.21,406.72 1889.53,414.96 1887.60,423.44 1886.43,432.09 1886.04,440.82 1886.04,595.94 1787.18,595.94 1787.18,181.56 1802.31,181.56 1802.31,153.07 1943.04,153.07" fill="#607D8B" fill-opacity="0.45" stroke="#B0BEC5" stroke-width="0.8"/>
<text x="1854.4" y="351.4" fill="#fff" font-size="9" text-anchor="middle" dominant-baseline="middle" font-family="Segoe UI, sans-serif" paint-order="stroke" stroke="#000" stroke-width="2" pointer-events="none">SLAB-002</text>
<polygon class="slab-poly" data-slab-id="SLAB-003" points="1439.26,595.94 1340.39,595.94 1340.39,440.82 1340.00,432.09 1338.84,423.44 1336.91,414.96 1334.23,406.72 1330.83,398.82 1326.74,391.32 1322.00,384.30 1316.66,377.82 1310.77,371.95 1304.38,366.74 1297.56,362.25 1290.37,358.51 1283.40,355.77 1283.40,153.07 1421.43,153.07 1421.43,181.56 1421.44,181.85 1421.48,182.14 1421.55,182.42 1421.64,182.70 1421.75,182.96 1421.89,183.21 1422.04,183.44 1422.22,183.66 1422.42,183.86 1422.63,184.03 1422.86,184.18 1423.10,184.30 1423.35,184.40 1423.61,184.47 1423.87,184.52 1424.13,184.53 1439.26,184.53 1439.26,595.94" fill="#607D8B" fill-opacity="0.45" stroke="#B0BEC5" stroke-width="0.8"/>
<text x="1371.9" y="351.8" fill="#fff" font-size="9" text-anchor="middle" dominant-baseline="middle" font-family="Segoe UI, sans-serif" paint-order="stroke" stroke="#000" stroke-width="2" pointer-events="none">SLAB-003</text>
<polygon class="slab-poly" data-slab-id="SLAB-004" points="1235.32,351.73 1232.35,351.73 1224.40,352.16 1216.54,353.44 1208.82,355.56 1201.33,358.51 1194.14,362.25 1187.32,366.74 1180.94,371.95 1175.04,377.82 1169.70,384.30 1164.97,391.32 1160.88,398.82 1157.48,406.72 1154.80,414.96 1152.86,423.44 1151.70,432.09 1151.31,440.82 1151.31,595.94 1138.88,595.94 1138.88,589.31 1122.67,589.31 1122.67,595.94 1051.36,595.94 1051.36,485.96 1051.35,485.67 1051.31,485.38 1051.25,485.10 1051.16,484.82 1051.04,484.56 1050.91,484.31 1050.75,484.07 1050.57,483.86 1050.37,483.66 1050.16,483.49 1049.93,483.34 1049.69,483.21 1049.44,483.12 1049.19,483.05 1048.93,483.00 1048.66,482.99 1032.45,482.99 1032.19,483.00 1031.93,483.05 1031.67,483.12 1031.42,483.21 1031.18,483.34 1030.95,483.49 1030.74,483.66 1030.54,483.86 1030.37,484.07 1030.21,484.31 1030.07,484.56 1029.96,484.82 1029.87,485.10 1029.80,485.38 1029.77,485.67 1029.75,485.96 1029.75,595.94 878.48,595.94 878.48,390.93 875.51,390.93 875.51,187.53 878.48,187.53 878.48,153.07 1232.35,153.07 1232.35,181.56 1235.32,181.56 1235.32,351.73" fill="#607D8B" fill-opacity="0.45" stroke="#B0BEC5" stroke-width="0.8"/>
<text x="1037.1" y="356.2" fill="#fff" font-size="9" text-anchor="middle" dominant-baseline="middle" font-family="Segoe UI, sans-serif" paint-order="stroke" stroke="#000" stroke-width="2" pointer-events="none">SLAB-004</text>
<polygon class="slab-poly" data-slab-id="SLAB-005" points="854.44,390.93 851.47,390.93 851.47,595.94 758.63,595.94 751.91,591.51 744.72,587.77 737.23,584.83 729.52,582.70 721.65,581.42 713.71,580.99 559.17,580.99 551.23,581.42 543.36,582.70 535.65,584.83 528.16,587.77 520.97,591.51 514.25,595.94 500.31,595.94 500.31,580.99 500.30,580.70 500.26,580.41 500.20,580.13 500.11,579.85 499.99,579.59 499.86,579.34 499.70,579.11 499.52,578.89 499.32,578.69 499.11,578.52 498.88,578.37 498.64,578.25 498.39,578.15 498.14,578.08 497.88,578.03 497.61,578.02 478.03,578.02 478.03,187.53 497.61,187.53 497.61,153.07 851.47,153.07 851.47,187.53 854.44,187.53 854.44,390.93" fill="#2196F3" fill-opacity="0.45" stroke="#2196F3" stroke-width="0.8"/>
<text x="667.2" y="370.3" fill="#fff" font-size="9" text-anchor="middle" dominant-baseline="middle" font-family="Segoe UI, sans-serif" paint-order="stroke" stroke="#000" stroke-width="2" pointer-events="none">SLAB-005</text>
<polygon class="slab-poly" data-slab-id="SLAB-006" points="2748.41,595.94 2712.19,595.94 2705.47,591.51 2698.28,587.77 2690.79,584.83 2683.08,582.70 2675.21,581.42 2667.27,580.99 2512.73,580.99 2504.79,581.42 2496.92,582.70 2489.21,584.83 2481.72,587.77 2474.53,591.51 2467.81,595.94 2374.97,595.94 2374.97,390.93 2372.00,390.93 2372.00,187.53 2374.97,187.53 2374.97,153.07 2728.83,153.07 2728.83,187.53 2748.41,187.53 2748.41,595.94" fill="#2196F3" fill-opacity="0.45" stroke="#2196F3" stroke-width="0.8"/>
<text x="2559.7" y="370.8" fill="#fff" font-size="9" text-anchor="middle" dominant-baseline="middle" font-family="Segoe UI, sans-serif" paint-order="stroke" stroke="#000" stroke-width="2" pointer-events="none">SLAB-006</text>
<polygon class="slab-poly" data-slab-id="SLAB-007" points="244.50,595.94 244.50,153.07 319.36,153.07 319.36,595.94 244.50,595.94" fill="#2196F3" fill-opacity="0.45" stroke="#2196F3" stroke-width="0.8"/>
<polygon class="slab-poly" data-slab-id="SLAB-008" points="483.97,578.02 470.60,578.02 470.33,578.03 470.07,578.08 469.81,578.15 469.56,578.25 469.32,578.37 469.10,578.52 468.88,578.69 468.69,578.89 468.51,579.11 468.35,579.34 468.21,579.59 468.10,579.85 468.01,580.13 467.95,580.41 467.91,580.70 467.89,580.99 467.89,595.94 313.42,595.94 313.42,153.07 467.89,153.07 467.89,187.53 483.97,187.53 483.97,578.02" fill="#2196F3" fill-opacity="0.45" stroke="#2196F3" stroke-width="0.8"/>
<text x="397.8" y="375.2" fill="#fff" font-size="9" text-anchor="middle" dominant-baseline="middle" font-family="Segoe UI, sans-serif" paint-order="stroke" stroke="#000" stroke-width="2" pointer-events="none">SLAB-008</text>
<polygon class="slab-poly" data-slab-id="SLAB-009" points="1793.12,595.94 1615.65,595.94 1615.65,153.07 1780.70,153.07 1780.70,181.56 1793.12,181.56 1793.12,595.94" fill="#607D8B" fill-opacity="0.45" stroke="#B0BEC5" stroke-width="0.8"/>
<text x="1704.0" y="375.4" fill="#fff" font-size="9" text-anchor="middle" dominant-baseline="middle" font-family="Segoe UI, sans-serif" paint-order="stroke" stroke="#000" stroke-width="2" pointer-events="none">SLAB-009</text>
<polygon class="slab-poly" data-slab-id="SLAB-010" points="1621.59,153.07 1621.59,595.94 1433.32,595.94 1433.32,184.53 1445.74,184.53 1446.01,184.52 1446.27,184.47 1446.53,184.40 1446.78,184.30 1447.02,184.18 1447.24,184.03 1447.46,183.86 1447.65,183.66 1447.83,183.44 1447.99,183.21 1448.13,182.96 1448.24,182.70 1448.33,182.42 1448.39,182.14 1448.43,181.85 1448.44,181.56 1448.44,153.07 1621.59,153.07" fill="#607D8B" fill-opacity="0.45" stroke="#B0BEC5" stroke-width="0.8"/>
<text x="1528.0" y="375.7" fill="#fff" font-size="9" text-anchor="middle" dominant-baseline="middle" font-family="Segoe UI, sans-serif" paint-order="stroke" stroke="#000" stroke-width="2" pointer-events="none">SLAB-010</text>
<polygon class="slab-poly" data-slab-id="SLAB-011" points="2913.02,153.07 2913.02,595.94 2742.47,595.94 2742.47,187.53 2758.54,187.53 2758.54,153.07 2913.02,153.07" fill="#2196F3" fill-opacity="0.45" stroke="#2196F3" stroke-width="0.8"/>
<text x="2828.3" y="376.0" fill="#fff" font-size="9" text-anchor="middle" dominant-baseline="middle" font-family="Segoe UI, sans-serif" paint-order="stroke" stroke="#000" stroke-width="2" pointer-events="none">SLAB-011</text>
<polygon class="slab-poly" data-slab-id="SLAB-012" points="197.32,595.94 90.57,595.94 90.57,153.07 176.16,153.07 176.16,260.21 176.16,260.22 176.16,494.84 176.17,495.13 176.21,495.42 176.28,495.70 176.37,495.97 176.48,496.24 176.62,496.49 176.77,496.72 176.95,496.94 177.15,497.13 177.36,497.31 177.59,497.45 177.83,497.58 178.08,497.68 178.34,497.75 178.60,497.79 178.86,497.81 197.32,497.81 197.32,595.94" fill="#2196F3" fill-opacity="0.45" stroke="#2196F3" stroke-width="0.8"/>
<text x="136.1" y="383.5" fill="#fff" font-size="9" text-anchor="middle" dominant-baseline="middle" font-family="Segoe UI, sans-serif" paint-order="stroke" stroke="#000" stroke-width="2" pointer-events="none">SLAB-012</text>
<polygon class="slab-poly" data-slab-id="SLAB-013" points="3109.43,153.07 3109.43,595.94 2992.20,595.94 2992.20,153.07 3017.86,153.07 3017.86,260.21 3017.86,260.23 3017.86,494.84 3017.88,495.13 3017.92,495.42 3017.98,495.70 3018.07,495.97 3018.18,496.24 3018.32,496.49 3018.48,496.72 3018.66,496.94 3018.85,497.13 3019.06,497.31 3019.29,497.45 3019.53,497.58 3019.78,497.68 3020.04,497.75 3020.30,497.79 3020.57,497.81 3047.58,497.81 3047.84,497.79 3048.10,497.75 3048.36,497.68 3048.61,497.58 3048.85,497.45 3049.08,497.31 3049.29,497.13 3049.49,496.94 3049.67,496.72 3049.82,496.49 3049.96,496.24 3050.07,495.97 3050.16,495.70 3050.23,495.42 3050.27,495.13 3050.28,494.84 3050.28,260.22 3050.28,260.21 3050.28,153.07 3109.43,153.07" fill="#2196F3" fill-opacity="0.45" stroke="#2196F3" stroke-width="0.8"/>
<text x="3055.4" y="388.0" fill="#fff" font-size="9" text-anchor="middle" dominant-baseline="middle" font-family="Segoe UI, sans-serif" paint-order="stroke" stroke="#000" stroke-width="2" pointer-events="none">SLAB-013</text>
<polygon class="slab-poly" data-slab-id="SLAB-014" points="250.45,153.07 250.45,595.94 191.38,595.94 191.38,497.81 205.87,497.81 206.14,497.79 206.40,497.75 206.66,497.68 206.91,497.58 207.15,497.45 207.37,497.31 207.59,497.13 207.78,496.94 207.96,496.72 208.12,496.49 208.26,496.24 208.37,495.97 208.46,495.70 208.52,495.42 208.56,495.13 208.57,494.84 208.57,260.23 208.58,260.21 208.58,153.07 250.45,153.07" fill="#2196F3" fill-opacity="0.45" stroke="#2196F3" stroke-width="0.8"/>
<polygon class="slab-poly" data-slab-id="SLAB-015" points="2992.20,765.41 2992.20,589.41 3109.43,589.41 3109.43,765.41 3047.58,765.41 3047.58,625.50 3020.56,625.50 3020.56,765.41 2992.20,765.41" fill="#2196F3" fill-opacity="0.45" stroke="#2196F3" stroke-width="0.8"/>
<polygon class="slab-poly" data-slab-id="SLAB-016" points="90.57,765.41 90.57,589.41 234.24,589.41 234.24,765.41 205.87,765.41 205.87,625.50 178.86,625.50 178.86,765.41 90.57,765.41" fill="#2196F3" fill-opacity="0.45" stroke="#2196F3" stroke-width="0.8"/>
<polygon class="slab-poly" data-slab-id="SLAB-017" points="1615.65,765.41 1615.65,589.41 1793.12,589.41 1793.12,678.40 1780.70,678.40 1780.43,678.41 1780.17,678.45 1779.91,678.53 1779.66,678.62 1779.42,678.75 1779.20,678.90 1778.98,679.07 1778.79,679.27 1778.61,679.48 1778.45,679.72 1778.31,679.97 1778.20,680.23 1778.11,680.51 1778.05,680.79 1778.01,681.08 1778.00,681.37 1778.00,753.23 1778.01,753.53 1778.05,753.81 1778.11,754.10 1778.20,754.37 1778.31,754.63 1778.45,754.88 1778.61,755.12 1778.79,755.33 1778.98,755.53 1779.20,755.70 1779.42,755.85 1779.66,755.98 1779.91,756.08 1780.17,756.15 1780.43,756.19 1780.70,756.20 1780.70,765.41 1615.65,765.41" fill="#2196F3" fill-opacity="0.45" stroke="#2196F3" stroke-width="0.8"/>
<polygon class="slab-poly" data-slab-id="SLAB-018" points="1433.32,589.41 1621.59,589.41 1621.59,765.41 1448.44,765.41 1448.44,681.37 1448.43,681.08 1448.39,680.79 1448.33,680.51 1448.24,680.23 1448.13,679.97 1447.99,679.72 1447.83,679.48 1447.65,679.27 1447.46,679.07 1447.24,678.90 1447.02,678.75 1446.78,678.62 1446.53,678.53 1446.27,678.45 1446.01,678.41 1445.74,678.40 1433.32,678.40 1433.32,589.41" fill="#2196F3" fill-opacity="0.45" stroke="#2196F3" stroke-width="0.8"/>
<polygon class="slab-poly" data-slab-id="SLAB-019" points="2742.47,589.41 2981.94,589.41 2981.94,765.41 2757.99,765.41 2757.99,753.23 2757.97,752.94 2757.93,752.65 2757.87,752.37 2757.78,752.10 2757.67,751.83 2757.53,751.58 2757.37,751.35 2757.20,751.13 2757.00,750.94 2756.79,750.76 2756.56,750.61 2756.32,750.49 2756.07,750.39 2755.81,750.32 2755.55,750.28 2755.29,750.26 2748.31,750.26 2748.31,670.08 2747.92,661.35 2746.75,652.70 2744.82,644.22 2742.47,637.00 2742.47,589.41" fill="#2196F3" fill-opacity="0.45" stroke="#2196F3" stroke-width="0.8"/>
<text x="2864.5" y="676.6" fill="#fff" font-size="9" text-anchor="middle" dominant-baseline="middle" font-family="Segoe UI, sans-serif" paint-order="stroke" stroke="#000" stroke-width="2" pointer-events="none">SLAB-019</text>
<polygon class="slab-poly" data-slab-id="SLAB-020" points="244.50,765.41 244.50,589.41 467.89,589.41 467.89,670.08 467.91,670.37 467.95,670.66 468.01,670.94 468.10,671.22 468.21,671.48 468.35,671.73 468.51,671.97 468.69,672.18 468.88,672.38 469.10,672.55 469.32,672.70 469.56,672.83 469.81,672.92 470.07,672.99 470.33,673.04 470.60,673.05 478.13,673.05 478.13,753.23 478.52,761.97 478.99,765.41 473.86,765.41 473.86,753.23 473.84,752.94 473.80,752.65 473.74,752.37 473.65,752.10 473.54,751.83 473.40,751.58 473.24,751.35 473.06,751.13 472.87,750.94 472.65,750.76 472.43,750.61 472.19,750.49 471.94,750.39 471.68,750.32 471.42,750.28 471.15,750.26 470.89,750.28 470.63,750.32 470.37,750.39 470.12,750.49 469.88,750.61 469.65,750.76 469.44,750.94 469.24,751.13 469.07,751.35 468.91,751.58 468.77,751.83 468.66,752.10 468.57,752.37 468.50,752.65 468.47,752.94 468.45,753.23 468.45,765.41 244.50,765.41" fill="#2196F3" fill-opacity="0.45" stroke="#2196F3" stroke-width="0.8"/>
<text x="358.7" y="678.2" fill="#fff" font-size="9" text-anchor="middle" dominant-baseline="middle" font-family="Segoe UI, sans-serif" paint-order="stroke" stroke="#000" stroke-width="2" pointer-events="none">SLAB-020</text>
<polygon class="slab-poly" data-slab-id="SLAB-021" points="1122.67,589.41 1122.67,765.41 875.51,765.41 875.51,670.08 878.48,670.08 878.48,589.41 1029.75,589.41 1029.75,670.08 1029.77,670.37 1029.80,670.66 1029.87,670.94 1029.96,671.22 1030.07,671.48 1030.21,671.73 1030.37,671.97 1030.54,672.18 1030.74,672.38 1030.95,672.55 1031.18,672.70 1031.42,672.83 1031.67,672.92 1031.93,672.99 1032.19,673.04 1032.45,673.05 1048.66,673.05 1048.93,673.04 1049.19,672.99 1049.44,672.92 1049.69,672.83 1049.93,672.70 1050.16,672.55 1050.37,672.38 1050.57,672.18 1050.75,671.97 1050.91,671.73 1051.04,671.48 1051.16,671.22 1051.25,670.94 1051.31,670.66 1051.35,670.37 1051.36,670.08 1051.36,589.41 1122.67,589.41" fill="#2196F3" fill-opacity="0.45" stroke="#2196F3" stroke-width="0.8"/>
<text x="998.0" y="679.7" fill="#fff" font-size="9" text-anchor="middle" dominant-baseline="middle" font-family="Segoe UI, sans-serif" paint-order="stroke" stroke="#000" stroke-width="2" pointer-events="none">SLAB-021</text>
<polygon class="slab-poly" data-slab-id="SLAB-022" points="2350.93,758.88 2350.93,886.87 2305.82,886.87 2305.78,886.87 2284.21,886.87 2284.21,886.87 2284.19,886.87 2284.17,886.87 2238.79,886.87 2238.53,886.89 2238.26,886.93 2238.01,887.00 2237.76,887.10 2237.52,887.22 2237.29,887.37 2237.08,887.55 2236.88,887.74 2236.70,887.96 2236.55,888.19 2236.41,888.44 2236.30,888.71 2236.21,888.98 2236.14,889.26 2236.10,889.55 2236.09,889.84 2236.09,899.05 2178.28,899.05 2178.28,889.84 2178.27,889.55 2178.23,889.26 2178.17,888.98 2178.08,888.71 2177.96,888.44 2177.83,888.19 2177.67,887.96 2177.49,887.74 2177.30,887.55 2177.08,887.37 2176.86,887.22 2176.62,887.10 2176.37,887.00 2176.11,886.93 2175.85,886.89 2175.58,886.87 2130.24,886.87 2130.20,886.87 1991.12,886.87 1991.12,771.05 2103.76,771.05 2103.76,758.88 2350.93,758.88" fill="#2196F3" fill-opacity="0.45" stroke="#2196F3" stroke-width="0.8"/>
<text x="2175.3" y="825.7" fill="#fff" font-size="9" text-anchor="middle" dominant-baseline="middle" font-family="Segoe UI, sans-serif" paint-order="stroke" stroke="#000" stroke-width="2" pointer-events="none">SLAB-022</text>
<polygon class="slab-poly" data-slab-id="SLAB-023" points="1235.32,886.87 1096.20,886.87 1050.86,886.87 1050.59,886.89 1050.33,886.93 1050.07,887.00 1049.82,887.10 1049.58,887.22 1049.36,887.37 1049.14,887.55 1048.95,887.74 1048.77,887.96 1048.61,888.19 1048.47,888.44 1048.36,888.71 1048.27,888.98 1048.21,889.26 1048.17,889.55 1048.16,889.84 1048.17,890.13 1048.21,890.42 1048.27,890.70 1048.36,890.98 1048.47,891.24 1048.61,891.49 1048.77,891.73 1048.95,891.94 1049.14,892.14 1049.36,892.31 1049.58,892.46 1049.82,892.59 1050.07,892.68 1050.33,892.76 1050.59,892.80 1050.86,892.81 1093.50,892.81 1093.50,899.05 944.93,899.05 944.93,892.81 987.65,892.81 987.91,892.80 988.17,892.76 988.43,892.68 988.68,892.59 988.92,892.46 989.15,892.31 989.36,892.14 989.56,891.94 989.74,891.73 989.89,891.49 990.03,891.24 990.14,890.98 990.23,890.70 990.30,890.42 990.34,890.13 990.35,889.84 990.34,889.55 990.30,889.26 990.23,888.98 990.14,888.71 990.03,888.44 989.89,888.19 989.74,887.96 989.56,887.74 989.36,887.55 989.15,887.37 988.92,887.22 988.68,887.10 988.43,887.00 988.17,886.93 987.91,886.89 987.65,886.87 942.23,886.87 942.23,886.87 920.62,886.87 875.51,886.87 875.51,758.88 1122.67,758.88 1122.67,771.05 1235.32,771.05 1235.32,886.87" fill="#2196F3" fill-opacity="0.45" stroke="#2196F3" stroke-width="0.8"/>
<text x="1050.7" y="826.6" fill="#fff" font-size="9" text-anchor="middle" dominant-baseline="middle" font-family="Segoe UI, sans-serif" paint-order="stroke" stroke="#000" stroke-width="2" pointer-events="none">SLAB-023</text>
<polygon class="slab-poly" data-slab-id="SLAB-024" points="483.97,886.87 471.15,886.87 470.89,886.89 470.63,886.93 470.37,887.00 470.12,887.10 469.88,887.22 469.65,887.37 469.44,887.55 469.24,887.74 469.07,887.96 468.91,888.19 468.77,888.44 468.66,888.71 468.57,888.98 468.50,889.26 468.47,889.55 468.45,889.84 468.45,899.05 270.27,899.05 267.78,891.39 264.38,883.48 260.29,875.98 255.55,868.96 250.21,862.48 244.50,856.79 244.50,758.88 468.45,758.88 468.45,771.05 468.47,771.34 468.50,771.63 468.57,771.92 468.66,772.19 468.77,772.45 468.91,772.70 469.07,772.94 469.24,773.15 469.44,773.35 469.65,773.52 469.88,773.67 470.12,773.80 470.37,773.89 470.63,773.97 470.89,774.01 471.15,774.02 471.42,774.01 471.68,773.97 471.94,773.89 472.19,773.80 472.43,773.67 472.65,773.52 472.87,773.35 473.06,773.15 473.24,772.94 473.40,772.70 473.54,772.45 473.65,772.19 473.74,771.92 473.80,771.63 473.84,771.34 473.86,771.05 473.86,758.88 478.38,758.88 478.52,761.97 479.69,770.61 481.62,779.10 483.97,786.32 483.97,886.87" fill="#2196F3" fill-opacity="0.45" stroke="#2196F3" stroke-width="0.8"/>
<polygon class="slab-poly" data-slab-id="SLAB-025" points="1793.12,886.87 1780.70,886.87 1780.43,886.89 1780.17,886.93 1779.91,887.00 1779.66,887.10 1779.42,887.22 1779.20,887.37 1778.98,887.55 1778.79,887.74 1778.61,887.96 1778.45,888.19 1778.31,888.44 1778.20,888.71 1778.11,888.98 1778.05,889.26 1778.01,889.55 1778.00,889.84 1778.00,899.05 1615.65,899.05 1615.65,758.88 1780.70,758.88 1780.70,771.05 1793.12,771.05 1793.12,886.87" fill="#2196F3" fill-opacity="0.45" stroke="#2196F3" stroke-width="0.8"/>
<polygon class="slab-poly" data-slab-id="SLAB-026" points="1997.06,886.87 1926.56,886.87 1926.56,886.87 1787.18,886.87 1787.18,771.05 1997.06,771.05 1997.06,886.87" fill="#2196F3" fill-opacity="0.45" stroke="#2196F3" stroke-width="0.8"/>
<polygon class="slab-poly" data-slab-id="SLAB-027" points="1621.59,758.88 1621.59,899.05 1433.32,899.05 1433.32,774.02 1445.74,774.02 1446.01,774.01 1446.27,773.97 1446.53,773.89 1446.78,773.80 1447.02,773.67 1447.24,773.52 1447.46,773.35 1447.65,773.15 1447.83,772.94 1447.99,772.70 1448.13,772.45 1448.24,772.19 1448.33,771.92 1448.39,771.63 1448.43,771.34 1448.44,771.05 1448.44,758.88 1621.59,758.88" fill="#2196F3" fill-opacity="0.45" stroke="#2196F3" stroke-width="0.8"/>
<polygon class="slab-poly" data-slab-id="SLAB-028" points="1439.26,899.05 1302.58,899.05 1302.58,889.84 1302.57,889.55 1302.53,889.26 1302.46,888.98 1302.37,888.71 1302.26,888.44 1302.12,888.19 1301.97,887.96 1301.79,887.74 1301.59,887.55 1301.38,887.37 1301.15,887.22 1300.91,887.10 1300.66,887.00 1300.40,886.93 1300.14,886.89 1299.88,886.87 1229.37,886.87 1229.37,771.05 1276.65,771.05 1276.66,771.34 1276.70,771.63 1276.76,771.92 1276.85,772.19 1276.96,772.45 1277.10,772.70 1277.26,772.94 1277.44,773.15 1277.63,773.35 1277.85,773.52 1278.07,773.67 1278.31,773.80 1278.56,773.89 1278.82,773.97 1279.08,774.01 1279.35,774.02 1439.26,774.02 1439.26,899.05" fill="#2196F3" fill-opacity="0.45" stroke="#2196F3" stroke-width="0.8"/>
<polygon class="slab-poly" data-slab-id="SLAB-029" points="2748.41,889.84 2741.79,889.84 2741.79,889.84 2741.78,889.55 2741.74,889.26 2741.68,888.98 2741.59,888.71 2741.47,888.44 2741.34,888.19 2741.18,887.96 2741.00,887.74 2740.81,887.55 2740.59,887.37 2740.37,887.22 2740.13,887.10 2739.88,887.00 2739.62,886.93 2739.36,886.89 2739.09,886.87 2739.06,886.87 2728.26,886.87 2727.99,886.89 2727.73,886.93 2727.47,887.00 2727.22,887.10 2726.98,887.22 2726.76,887.37 2726.54,887.55 2726.35,887.74 2726.17,887.96 2726.01,888.19 2725.87,888.44 2725.76,888.71 2725.67,888.98 2725.61,889.26 2725.57,889.55 2725.55,889.84 2725.55,899.05 2670.45,899.05 2670.45,889.84 2670.44,889.55 2670.40,889.26 2670.33,888.98 2670.24,888.71 2670.13,888.44 2669.99,888.19 2669.84,887.96 2669.66,887.74 2669.46,887.55 2669.25,887.37 2669.02,887.22 2668.78,887.10 2668.53,887.00 2668.28,886.93 2668.01,886.89 2667.75,886.87 2648.03,886.87 2626.42,886.87 2585.50,886.87 2585.49,886.87 2522.29,886.87 2522.29,886.87 2481.40,886.87 2481.40,886.87 2459.79,886.87 2414.37,886.87 2414.37,886.87 2414.37,886.87 2372.00,886.87 2372.00,758.88 2431.95,758.88 2432.08,761.97 2433.25,770.61 2435.18,779.10 2437.86,787.33 2441.26,795.23 2445.35,802.73 2450.09,809.75 2455.43,816.23 2461.32,822.10 2467.71,827.31 2474.53,831.81 2481.72,835.54 2489.21,838.49 2496.92,840.61 2504.79,841.90 2512.73,842.33 2667.27,842.33 2675.21,841.90 2683.08,840.61 2690.79,838.49 2698.28,835.54 2705.47,831.81 2712.29,827.31 2718.68,822.10 2724.57,816.23 2729.91,809.75 2734.65,802.73 2738.74,795.23 2742.14,787.33 2744.82,779.10 2745.97,774.02 2748.41,774.02 2748.41,889.84" fill="#2196F3" fill-opacity="0.45" stroke="#2196F3" stroke-width="0.8"/>
<polygon class="slab-poly" data-slab-id="SLAB-030" points="854.44,758.88 854.44,899.05 769.35,899.05 769.35,889.84 769.34,889.55 769.30,889.26 769.24,888.98 769.15,888.71 769.03,888.44 768.90,888.19 768.74,887.96 768.56,887.74 768.37,887.55 768.15,887.37 767.92,887.22 767.69,887.10 767.44,887.00 767.18,886.93 766.92,886.89 766.65,886.87 745.04,886.87 745.04,886.87 744.78,886.89 744.51,886.93 744.26,887.00 744.01,887.10 743.77,887.22 743.54,887.37 743.33,887.55 743.13,887.74 742.95,887.96 742.80,888.19 742.66,888.44 742.55,888.71 742.46,888.98 742.39,889.26 742.35,889.55 742.34,889.84 742.34,899.05 602.72,899.05 602.72,889.84 602.71,889.55 602.67,889.26 602.60,888.98 602.52,888.71 602.40,888.44 602.27,888.19 602.11,887.96 601.93,887.74 601.73,887.55 601.52,887.37 601.29,887.22 601.05,887.10 600.80,887.00 600.55,886.93 600.28,886.89 600.02,886.87 578.41,886.87 578.15,886.89 577.88,886.93 577.63,887.00 577.38,887.10 577.14,887.22 576.91,887.37 576.70,887.55 576.50,887.74 576.32,887.96 576.16,888.19 576.03,888.44 575.91,888.71 575.83,888.98 575.76,889.26 575.72,889.55 575.71,889.84 575.71,899.05 490.05,899.05 490.05,889.84 490.03,889.55 490.00,889.26 489.93,888.98 489.84,888.71 489.73,888.44 489.59,888.19 489.43,887.96 489.26,887.74 489.06,887.55 488.85,887.37 488.62,887.22 488.38,887.10 488.13,887.00 487.87,886.93 487.61,886.89 487.35,886.87 478.03,886.87 478.03,758.88 478.38,758.88 478.52,761.97 479.69,770.61 481.62,779.10 484.30,787.33 487.70,795.23 491.79,802.73 496.53,809.75 501.87,816.23 507.76,822.10 514.15,827.31 520.97,831.81 528.16,835.54 535.65,838.49 543.36,840.61 551.23,841.90 559.17,842.33 713.71,842.33 721.65,841.90 729.52,840.61 737.23,838.49 744.72,835.54 751.91,831.81 758.73,827.31 765.12,822.10 771.01,816.23 776.35,809.75 781.09,802.73 785.18,795.23 788.58,787.33 791.26,779.10 793.19,770.61 794.35,761.97 794.49,758.88 854.44,758.88" fill="#2196F3" fill-opacity="0.45" stroke="#2196F3" stroke-width="0.8"/>
<polygon class="slab-poly" data-slab-id="SLAB-031" points="1615.65,892.52 1778.00,892.52 1778.00,1005.31 1775.05,1004.15 1767.33,1002.03 1759.47,1000.75 1751.52,1000.32 1624.02,1000.32 1616.08,1000.75 1615.65,1000.82 1615.65,892.52" fill="#2196F3" fill-opacity="0.45" stroke="#2196F3" stroke-width="0.8"/>
<polygon class="slab-poly" data-slab-id="SLAB-032" points="1433.32,1179.39 1433.32,892.52 1621.59,892.52 1621.59,1000.45 1616.08,1000.75 1608.21,1002.03 1600.50,1004.15 1593.01,1007.10 1585.82,1010.84 1579.00,1015.33 1572.62,1020.54 1566.72,1026.41 1561.38,1032.89 1556.64,1039.91 1552.56,1047.41 1549.16,1055.32 1546.48,1063.55 1544.54,1072.03 1543.38,1080.68 1542.99,1089.41 1542.99,1170.19 1543.38,1178.92 1543.44,1179.39 1433.32,1179.39" fill="#2196F3" fill-opacity="0.45" stroke="#2196F3" stroke-width="0.8"/>
<text x="1510.1" y="1017.1" fill="#fff" font-size="9" text-anchor="middle" dominant-baseline="middle" font-family="Segoe UI, sans-serif" paint-order="stroke" stroke="#000" stroke-width="2" pointer-events="none">SLAB-032</text>
<polygon class="slab-poly" data-slab-id="SLAB-033" points="1439.26,892.52 1439.26,1179.39 1297.17,1179.39 1297.17,1176.43 1297.16,1176.14 1297.12,1175.85 1297.06,1175.57 1296.97,1175.30 1296.86,1175.03 1296.72,1174.78 1296.56,1174.55 1296.38,1174.33 1296.19,1174.14 1295.97,1173.96 1295.75,1173.81 1295.51,1173.69 1295.26,1173.59 1295.00,1173.52 1294.74,1173.48 1294.47,1173.46 1294.21,1173.48 1293.95,1173.52 1293.69,1173.59 1293.44,1173.69 1293.20,1173.81 1292.97,1173.96 1292.76,1174.14 1292.56,1174.33 1292.39,1174.55 1292.23,1174.78 1292.09,1175.03 1291.98,1175.30 1291.89,1175.57 1291.82,1175.85 1291.79,1176.14 1291.77,1176.43 1291.77,1179.39 1283.40,1179.39 1283.40,1082.88 1294.47,1082.88 1294.47,1082.88 1294.74,1082.86 1295.00,1082.82 1295.26,1082.75 1295.51,1082.65 1295.75,1082.52 1295.97,1082.37 1296.19,1082.20 1296.38,1082.01 1296.56,1081.79 1296.72,1081.56 1296.86,1081.31 1296.97,1081.04 1297.06,1080.77 1297.12,1080.48 1297.16,1080.20 1297.17,1079.91 1297.17,916.57 1299.88,916.57 1300.14,916.56 1300.40,916.51 1300.66,916.44 1300.91,916.34 1301.15,916.22 1301.38,916.07 1301.59,915.90 1301.79,915.70 1301.97,915.48 1302.12,915.25 1302.26,915.00 1302.37,914.74 1302.46,914.46 1302.53,914.18 1302.57,913.89 1302.58,913.60 1302.58,892.52 1439.26,892.52" fill="#2196F3" fill-opacity="0.45" stroke="#2196F3" stroke-width="0.8"/>
<text x="1366.0" y="1039.3" fill="#fff" font-size="9" text-anchor="middle" dominant-baseline="middle" font-family="Segoe UI, sans-serif" paint-order="stroke" stroke="#000" stroke-width="2" pointer-events="none">SLAB-033</text>
<polygon class="slab-poly" data-slab-id="SLAB-034" points="483.97,1136.33 402.83,1136.33 402.56,1136.34 402.30,1136.39 402.05,1136.46 401.80,1136.56 401.56,1136.68 401.33,1136.83 401.12,1137.00 400.92,1137.20 400.74,1137.42 400.58,1137.65 400.45,1137.90 400.33,1138.16 400.24,1138.44 400.18,1138.72 400.14,1139.01 400.13,1139.30 400.13,1146.87 321.79,1146.87 321.79,1139.30 313.42,1139.30 313.42,943.30 483.97,943.30 483.97,1136.33" fill="#2196F3" fill-opacity="0.45" stroke="#2196F3" stroke-width="0.8"/>
<polygon class="slab-poly" data-slab-id="SLAB-035" points="2913.02,1139.30 2904.65,1139.30 2904.65,1146.87 2904.65,1146.87 2822.59,1146.87 2814.65,1147.30 2806.78,1148.58 2799.07,1150.70 2791.58,1153.65 2784.39,1157.39 2777.57,1161.88 2771.18,1167.09 2765.29,1172.96 2759.99,1179.39 2742.47,1179.39 2742.47,943.30 2913.02,943.30 2913.02,1139.30" fill="#2196F3" fill-opacity="0.45" stroke="#2196F3" stroke-width="0.8"/>
<polygon class="slab-poly" data-slab-id="SLAB-036" points="2748.41,1179.39 2673.06,1179.39 2671.44,1178.07 2664.62,1173.58 2657.43,1169.84 2649.94,1166.89 2642.23,1164.77 2634.36,1163.49 2626.42,1163.06 2509.49,1163.06 2509.49,1082.88 2648.03,1082.88 2648.29,1082.86 2648.56,1082.82 2648.81,1082.75 2649.06,1082.65 2649.30,1082.52 2649.53,1082.37 2649.74,1082.20 2649.94,1082.01 2650.12,1081.79 2650.28,1081.56 2650.41,1081.31 2650.52,1081.04 2650.61,1080.77 2650.68,1080.48 2650.72,1080.20 2650.73,1079.91 2650.73,916.57 2667.75,916.57 2668.01,916.56 2668.28,916.51 2668.53,916.44 2668.78,916.34 2669.02,916.22 2669.25,916.07 2669.46,915.90 2669.66,915.70 2669.84,915.48 2669.99,915.25 2670.13,915.00 2670.24,914.74 2670.33,914.46 2670.40,914.18 2670.44,913.89 2670.45,913.60 2670.45,892.52 2725.55,892.52 2725.55,913.60 2725.57,913.89 2725.61,914.18 2725.67,914.46 2725.76,914.74 2725.87,915.00 2726.01,915.25 2726.17,915.48 2726.35,915.70 2726.54,915.90 2726.76,916.07 2726.98,916.22 2727.22,916.34 2727.47,916.44 2727.73,916.51 2727.99,916.56 2728.26,916.57 2739.06,916.57 2739.09,916.57 2739.09,925.48 2739.09,943.30 2748.41,943.30 2748.41,1179.39" fill="#2196F3" fill-opacity="0.45" stroke="#2196F3" stroke-width="0.8"/>
<polygon class="slab-poly" data-slab-id="SLAB-037" points="575.71,892.52 575.71,1079.91 575.72,1080.20 575.76,1080.48 575.83,1080.77 575.91,1081.04 576.03,1081.31 576.16,1081.56 576.32,1081.79 576.50,1082.01 576.70,1082.20 576.91,1082.37 577.14,1082.52 577.38,1082.65 577.63,1082.75 577.88,1082.82 578.15,1082.86 578.41,1082.88 843.37,1082.88 843.37,1166.03 740.03,1166.03 735.46,1164.77 727.60,1163.49 719.65,1163.06 602.72,1163.06 602.72,1139.30 602.71,1139.01 602.67,1138.72 602.60,1138.44 602.52,1138.16 602.40,1137.90 602.27,1137.65 602.11,1137.42 601.93,1137.20 601.73,1137.00 601.52,1136.83 601.29,1136.68 601.05,1136.56 600.80,1136.46 600.55,1136.39 600.28,1136.34 600.02,1136.33 478.03,1136.33 478.03,943.30 487.35,943.30 487.35,928.45 487.61,928.43 487.87,928.39 488.13,928.32 488.38,928.22 488.62,928.10 488.85,927.95 489.06,927.77 489.26,927.58 489.43,927.36 489.59,927.13 489.73,926.88 489.84,926.62 489.93,926.34 490.00,926.06 490.03,925.77 490.05,925.48 490.05,892.52 575.71,892.52" fill="#2196F3" fill-opacity="0.45" stroke="#2196F3" stroke-width="0.8"/>
<text x="616.8" y="1067.2" fill="#fff" font-size="9" text-anchor="middle" dominant-baseline="middle" font-family="Segoe UI, sans-serif" paint-order="stroke" stroke="#000" stroke-width="2" pointer-events="none">SLAB-037</text>
<polygon class="slab-poly" data-slab-id="SLAB-038" points="1235.32,1179.39 875.51,1179.39 875.51,1082.88 920.62,1082.88 1044.88,1082.88 1235.32,1082.88 1235.32,1179.39" fill="#2196F3" fill-opacity="0.45" stroke="#2196F3" stroke-width="0.8"/>
<polygon class="slab-poly" data-slab-id="SLAB-039" points="875.51,1172.86 1235.32,1172.86 1235.32,1369.47 875.51,1369.47 875.51,1172.86" fill="#2196F3" fill-opacity="0.45" stroke="#2196F3" stroke-width="0.8"/>
<text x="1055.4" y="1271.2" fill="#fff" font-size="9" text-anchor="middle" dominant-baseline="middle" font-family="Segoe UI, sans-serif" paint-order="stroke" stroke="#000" stroke-width="2" pointer-events="none">SLAB-039</text>
<polygon class="slab-poly" data-slab-id="SLAB-040" points="1991.12,1500.43 1991.12,1172.86 2350.93,1172.86 2350.93,1500.43 1991.12,1500.43" fill="#2196F3" fill-opacity="0.45" stroke="#2196F3" stroke-width="0.8"/>
<text x="2171.0" y="1336.6" fill="#fff" font-size="9" text-anchor="middle" dominant-baseline="middle" font-family="Segoe UI, sans-serif" paint-order="stroke" stroke="#000" stroke-width="2" pointer-events="none">SLAB-040</text>
<polygon class="slab-poly" data-slab-id="SLAB-041" points="1229.37,1172.86 1439.26,1172.86 1439.26,1500.43 1229.37,1500.43 1229.37,1399.16 1278.27,1399.16 1278.53,1399.15 1278.79,1399.11 1279.05,1399.04 1279.30,1398.94 1279.54,1398.81 1279.77,1398.66 1279.98,1398.49 1280.18,1398.29 1280.35,1398.08 1280.51,1397.84 1280.65,1397.59 1280.76,1397.33 1280.85,1397.06 1280.92,1396.77 1280.95,1396.49 1280.97,1396.19 1280.97,1372.44 1280.97,1372.44 1280.97,1372.44 1280.97,1176.43 1280.95,1176.14 1280.92,1175.85 1280.85,1175.57 1280.76,1175.30 1280.65,1175.03 1280.51,1174.78 1280.35,1174.55 1280.18,1174.33 1279.98,1174.14 1279.77,1173.96 1279.54,1173.81 1279.30,1173.69 1279.05,1173.59 1278.79,1173.52 1278.53,1173.48 1278.27,1173.46 1278.00,1173.48 1277.74,1173.52 1277.48,1173.59 1277.23,1173.69 1276.99,1173.81 1276.77,1173.96 1276.55,1174.14 1276.36,1174.33 1276.18,1174.55 1276.02,1174.78 1275.88,1175.03 1275.77,1175.30 1275.68,1175.57 1275.62,1175.85 1275.58,1176.14 1275.56,1176.43 1275.56,1369.47 1229.37,1369.47 1229.37,1172.86" fill="#2196F3" fill-opacity="0.45" stroke="#2196F3" stroke-width="0.8"/>
<text x="1337.8" y="1337.6" fill="#fff" font-size="9" text-anchor="middle" dominant-baseline="middle" font-family="Segoe UI, sans-serif" paint-order="stroke" stroke="#000" stroke-width="2" pointer-events="none">SLAB-041</text>
<polygon class="slab-poly" data-slab-id="SLAB-042" points="1621.59,1500.43 1433.32,1500.43 1433.32,1172.86 1543.11,1172.86 1543.38,1178.92 1544.54,1187.57 1546.48,1196.05 1549.16,1204.28 1552.56,1212.18 1556.64,1219.68 1561.38,1226.71 1566.72,1233.18 1572.62,1239.06 1579.00,1244.26 1585.82,1248.76 1593.01,1252.50 1600.50,1255.44 1608.21,1257.57 1616.08,1258.85 1621.59,1259.15 1621.59,1500.43" fill="#2196F3" fill-opacity="0.45" stroke="#2196F3" stroke-width="0.8"/>
<text x="1521.8" y="1348.5" fill="#fff" font-size="9" text-anchor="middle" dominant-baseline="middle" font-family="Segoe UI, sans-serif" paint-order="stroke" stroke="#000" stroke-width="2" pointer-events="none">SLAB-042</text>
<polygon class="slab-poly" data-slab-id="SLAB-043" points="1793.12,1500.43 1615.65,1500.43 1615.65,1258.78 1616.08,1258.85 1624.02,1259.28 1751.52,1259.28 1759.47,1258.85 1767.33,1257.57 1775.05,1255.44 1778.00,1254.28 1778.00,1440.74 1778.01,1441.03 1778.05,1441.32 1778.11,1441.60 1778.20,1441.88 1778.31,1442.14 1778.45,1442.39 1778.61,1442.62 1778.79,1442.84 1778.98,1443.04 1779.20,1443.21 1779.42,1443.36 1779.66,1443.48 1779.91,1443.58 1780.17,1443.65 1780.43,1443.70 1780.70,1443.71 1793.12,1443.71 1793.12,1500.43" fill="#2196F3" fill-opacity="0.45" stroke="#2196F3" stroke-width="0.8"/>
<text x="1698.8" y="1381.7" fill="#fff" font-size="9" text-anchor="middle" dominant-baseline="middle" font-family="Segoe UI, sans-serif" paint-order="stroke" stroke="#000" stroke-width="2" pointer-events="none">SLAB-043</text>
<polygon class="slab-poly" data-slab-id="SLAB-044" points="1997.06,1172.86 1997.06,1500.43 1787.18,1500.43 1787.18,1443.71 1948.17,1443.71 1948.44,1443.70 1948.70,1443.65 1948.96,1443.58 1949.21,1443.48 1949.45,1443.36 1949.67,1443.21 1949.89,1443.04 1950.08,1442.84 1950.26,1442.62 1950.42,1442.39 1950.56,1442.14 1950.67,1441.88 1950.76,1441.60 1950.82,1441.32 1950.86,1441.03 1950.87,1440.74 1950.87,1172.86 1997.06,1172.86" fill="#2196F3" fill-opacity="0.45" stroke="#2196F3" stroke-width="0.8"/>
<polygon class="slab-poly" data-slab-id="SLAB-045" points="854.44,1500.43 478.03,1500.43 478.03,1416.70 478.71,1415.11 481.39,1406.88 483.33,1398.40 484.49,1389.75 484.88,1381.01 484.88,1235.96 484.49,1227.23 483.33,1218.58 481.39,1210.10 478.71,1201.87 478.03,1200.27 478.03,1172.86 563.20,1172.86 561.82,1173.58 555.00,1178.07 548.61,1183.28 542.72,1189.15 537.38,1195.63 532.64,1202.65 528.55,1210.15 525.15,1218.06 522.47,1226.29 520.54,1234.77 519.37,1243.42 518.98,1252.15 518.98,1309.17 519.37,1317.90 520.54,1326.55 522.47,1335.03 525.15,1343.26 528.55,1351.17 532.64,1358.67 537.38,1365.69 542.72,1372.17 548.61,1378.04 555.00,1383.25 561.82,1387.74 569.01,1391.48 576.50,1394.42 581.11,1395.70 581.11,1396.19 581.12,1396.49 581.16,1396.77 581.23,1397.06 581.32,1397.33 581.43,1397.59 581.57,1397.84 581.72,1398.08 581.90,1398.29 582.10,1398.49 582.31,1398.66 582.54,1398.81 582.78,1398.94 583.03,1399.04 583.29,1399.11 583.55,1399.15 583.81,1399.16 600.02,1399.16 600.28,1399.15 600.55,1399.11 600.80,1399.04 601.05,1398.94 601.29,1398.81 601.52,1398.66 601.73,1398.49 601.93,1398.29 601.96,1398.26 719.65,1398.26 727.60,1397.83 733.24,1396.91 733.28,1397.06 733.36,1397.33 733.48,1397.59 733.61,1397.84 733.77,1398.08 733.95,1398.29 734.15,1398.49 734.36,1398.66 734.59,1398.81 734.83,1398.94 735.08,1399.04 735.33,1399.11 735.60,1399.15 735.86,1399.16 846.07,1399.16 846.33,1399.15 846.59,1399.11 846.85,1399.04 847.10,1398.94 847.34,1398.81 847.57,1398.66 847.78,1398.49 847.98,1398.29 848.16,1398.08 848.31,1397.84 848.45,1397.59 848.56,1397.33 848.65,1397.06 848.72,1396.77 848.76,1396.49 848.77,1396.19 848.76,1395.90 848.72,1395.61 848.65,1395.33 848.56,1395.06 848.45,1394.79 848.31,1394.54 848.16,1394.31 847.98,1394.09 847.78,1393.90 847.57,1393.72 847.34,1393.58 847.10,1393.45 846.85,1393.35 846.59,1393.28 846.33,1393.24 846.07,1393.22 746.23,1393.22 750.66,1391.48 757.85,1387.74 764.67,1383.25 771.06,1378.04 773.70,1375.41 846.07,1375.41 854.44,1375.41 854.44,1500.43" fill="#2196F3" fill-opacity="0.45" stroke="#2196F3" stroke-width="0.8"/>
<text x="638.3" y="1413.7" fill="#fff" font-size="9" text-anchor="middle" dominant-baseline="middle" font-family="Segoe UI, sans-serif" paint-order="stroke" stroke="#000" stroke-width="2" pointer-events="none">SLAB-045</text>
<polygon class="slab-poly" data-slab-id="SLAB-046" points="2748.41,1500.43 2372.00,1500.43 2372.00,1399.16 2506.79,1399.16 2507.05,1399.15 2507.31,1399.11 2507.57,1399.04 2507.82,1398.94 2508.06,1398.81 2508.29,1398.66 2508.50,1398.49 2508.70,1398.29 2508.72,1398.26 2626.42,1398.26 2634.36,1397.83 2642.23,1396.55 2649.94,1394.42 2657.43,1391.48 2664.62,1387.74 2671.44,1383.25 2677.83,1378.04 2683.72,1372.17 2689.06,1365.69 2693.80,1358.67 2697.89,1351.17 2701.29,1343.26 2703.97,1335.03 2705.90,1326.55 2707.07,1317.90 2707.46,1309.17 2707.46,1252.15 2707.07,1243.42 2705.90,1234.77 2703.97,1226.29 2701.29,1218.06 2697.89,1210.15 2693.80,1202.65 2689.06,1195.63 2683.72,1189.15 2677.83,1183.28 2671.44,1178.07 2664.62,1173.58 2663.24,1172.86 2748.41,1172.86 2748.41,1200.27 2747.72,1201.87 2745.05,1210.10 2743.11,1218.58 2741.95,1227.23 2741.56,1235.96 2741.56,1381.01 2741.95,1389.75 2743.11,1398.40 2745.05,1406.88 2747.72,1415.11 2748.41,1416.70 2748.41,1500.43" fill="#2196F3" fill-opacity="0.45" stroke="#2196F3" stroke-width="0.8"/>
<text x="2594.1" y="1414.7" fill="#fff" font-size="9" text-anchor="middle" dominant-baseline="middle" font-family="Segoe UI, sans-serif" paint-order="stroke" stroke="#000" stroke-width="2" pointer-events="none">SLAB-046</text>
</svg>