<svg xmlns="http://www.w3.org/2000/svg" width="1590" height="1600" viewBox="0 0 1590 1600">
<rect width="100%" height="100%" fill="#121212"/>
<polygon points="107.62,1098.82 107.62,1104.22 -12.41,1104.22 -12.41,1098.82 107.62,1098.82" fill="#FF9800" fill-opacity="0.12" stroke="#FFB74D" stroke-width="0.6"/>
<polygon points="388.40,1056.34 442.08,1056.34 442.08,1061.74 388.40,1061.74 388.40,1056.34" fill="#FF9800" fill-opacity="0.12" stroke="#FFB74D" stroke-width="0.6"/>
<polygon points="391.10,1048.25 408.63,1048.25 408.63,1053.65 391.10,1053.65 391.10,1048.25" fill="#FF9800" fill-opacity="0.12" stroke="#FFB74D" stroke-width="0.6"/>
<polygon points="216.74,1029.43 216.74,999.01 222.13,999.01 222.13,1029.43 216.74,1029.43" fill="#FF9800" fill-opacity="0.12" stroke="#FFB74D" stroke-width="0.6"/>
<polygon points="232.92,1029.43 227.53,1029.43 227.53,999.01 232.92,999.01 232.92,1029.43" fill="#FF9800" fill-opacity="0.12" stroke="#FFB74D" stroke-width="0.6"/>
<polygon points="50.59,879.98 50.59,1086.69 107.50,1086.69 107.50,1092.08 -12.41,1092.08 -12.41,1086.69 45.19,1086.69 45.19,879.98 39.52,884.77 36.04,880.64 46.15,872.11 47.89,874.17 49.63,872.11 59.74,880.64 56.27,884.77 50.59,879.98" fill="#FF9800" fill-opacity="0.12" stroke="#FFB74D" stroke-width="0.6"/>
<polygon points="319.24,885.72 391.64,885.72 391.64,891.11 319.24,891.11 319.24,885.72" fill="#FF9800" fill-opacity="0.12" stroke="#FFB74D" stroke-width="0.6"/>
<polygon points="262.71,885.72 308.45,885.72 308.45,891.11 262.71,891.11 262.71,885.72" fill="#FF9800" fill-opacity="0.12" stroke="#FFB74D" stroke-width="0.6"/>
<polygon points="319.24,880.32 319.24,877.62 313.84,877.62 313.84,823.67 319.24,823.67 319.24,877.62 319.24,874.93 391.64,874.93 391.64,880.32 319.24,880.32" fill="#FF9800" fill-opacity="0.12" stroke="#FFB74D" stroke-width="0.6"/>
<polygon points="311.14,877.62 308.45,877.62 308.45,880.32 262.71,880.32 262.71,877.62 260.01,877.62 260.01,823.67 265.41,823.67 265.41,874.93 305.75,874.93 305.75,823.67 311.14,823.67 311.14,877.62" fill="#FF9800" fill-opacity="0.12" stroke="#FFB74D" stroke-width="0.6"/>
<polygon points="249.22,823.68 254.62,823.66 254.89,877.61 249.49,877.64 249.22,823.68" fill="#FF9800" fill-opacity="0.12" stroke="#FFB74D" stroke-width="0.6"/>
<polygon points="268.11,775.11 367.90,775.11 367.90,777.81 370.60,777.81 370.60,812.88 365.21,812.88 365.21,780.51 268.11,780.51 268.11,775.11" fill="#FF9800" fill-opacity="0.12" stroke="#FFB74D" stroke-width="0.6"/>
<polygon points="122.45,775.11 254.62,775.11 254.62,780.51 122.45,780.51 122.45,775.11" fill="#FF9800" fill-opacity="0.12" stroke="#FFB74D" stroke-width="0.6"/>
<polygon points="122.45,761.63 254.62,761.63 254.62,767.02 122.45,767.02 122.45,761.63" fill="#FF9800" fill-opacity="0.12" stroke="#FFB74D" stroke-width="0.6"/>
<polygon points="268.11,761.63 444.78,761.63 444.78,767.02 268.11,767.02 268.11,761.63" fill="#FF9800" fill-opacity="0.12" stroke="#FFB74D" stroke-width="0.6"/>
<polygon points="108.97,525.59 108.97,528.29 111.66,528.29 111.66,591.68 106.27,591.68 106.27,530.98 -12.40,530.98 -12.40,525.59 108.97,525.59" fill="#FF9800" fill-opacity="0.12" stroke="#FFB74D" stroke-width="0.6"/>
<polygon points="119.76,591.68 119.76,528.29 122.45,528.29 122.45,525.59 254.62,525.59 254.62,530.98 157.50,530.98 157.50,530.98 143.22,530.98 143.22,530.98 125.15,530.98 125.15,591.68 119.76,591.68" fill="#FF9800" fill-opacity="0.12" stroke="#FFB74D" stroke-width="0.6"/>
<polygon points="268.11,525.59 444.78,525.59 444.78,530.98 268.11,530.98 268.11,525.59" fill="#FF9800" fill-opacity="0.12" stroke="#FFB74D" stroke-width="0.6"/>
<polygon points="263.88,514.33 231.85,350.73 234.51,350.21 234.51,347.55 429.80,347.55 429.80,350.24 432.49,350.00 447.49,516.51 444.78,516.75 444.78,518.84 268.11,518.84 268.11,513.51 263.88,514.33" fill="#FF9800" fill-opacity="0.12" stroke="#FFB74D" stroke-width="0.6"/>
<polygon points="122.45,347.55 222.14,347.55 222.14,350.24 224.79,349.73 257.27,515.63 254.62,516.15 254.62,518.84 122.45,518.84 122.45,516.15 119.76,516.15 119.76,350.24 122.45,350.24 122.45,347.55" fill="#FF9800" fill-opacity="0.12" stroke="#FFB74D" stroke-width="0.6"/>
<polygon points="111.66,516.15 108.97,516.15 108.97,518.84 -12.40,518.84 -12.40,513.45 106.27,513.45 106.27,352.94 -83.93,352.94 -83.93,347.55 108.97,347.55 108.97,350.24 111.66,350.24 111.66,516.15" fill="#FF9800" fill-opacity="0.12" stroke="#FFB74D" stroke-width="0.6"/>
<polygon points="432.52,340.80 230.23,340.80 230.23,335.41 432.52,335.41 432.52,340.80" fill="#FF9800" fill-opacity="0.12" stroke="#FFB74D" stroke-width="0.6"/>
<polygon points="232.93,261.22 232.93,309.78 227.53,309.78 227.53,261.22 232.93,261.22" fill="#FF9800" fill-opacity="0.12" stroke="#FFB74D" stroke-width="0.6"/>
<polygon points="224.84,261.22 224.84,309.78 219.44,309.78 219.44,261.22 224.84,261.22" fill="#FF9800" fill-opacity="0.12" stroke="#FFB74D" stroke-width="0.6"/>
<polygon points="-85.11,327.32 45.42,327.32 45.42,243.69 -90.29,243.69 -90.29,238.30 48.11,238.30 48.11,240.96 50.81,240.96 50.81,330.01 48.11,330.01 48.11,332.71 -85.11,332.71 -85.11,327.32" fill="#FF9800" fill-opacity="0.12" stroke="#FFB74D" stroke-width="0.6"/>
<polygon points="60.24,329.98 57.55,329.98 57.55,240.96 60.25,240.96 60.25,238.30 222.13,238.30 222.13,243.69 62.95,243.69 62.95,327.32 222.13,327.32 222.13,332.71 60.24,332.71 60.24,329.98" fill="#FF9800" fill-opacity="0.12" stroke="#FFB74D" stroke-width="0.6"/>
<polygon points="230.23,235.60 230.23,230.20 432.52,230.20 432.52,235.60 230.23,235.60" fill="#FF9800" fill-opacity="0.12" stroke="#FFB74D" stroke-width="0.6"/>
<polygon points="234.28,218.06 381.67,218.06 381.67,223.46 234.28,223.46 234.28,218.06" fill="#FF9800" fill-opacity="0.12" stroke="#FFB74D" stroke-width="0.6"/>
<polygon points="-91.47,218.06 48.11,218.06 48.11,223.46 -91.47,223.46 -91.47,218.06" fill="#FF9800" fill-opacity="0.12" stroke="#FFB74D" stroke-width="0.6"/>
<polygon points="393.80,218.06 430.50,218.06 430.50,223.46 393.80,223.46 393.80,218.06" fill="#FF9800" fill-opacity="0.12" stroke="#FFB74D" stroke-width="0.6"/>
<polygon points="60.24,218.06 230.23,218.06 230.23,223.46 60.24,223.46 60.24,218.06" fill="#FF9800" fill-opacity="0.12" stroke="#FFB74D" stroke-width="0.6"/>
<polygon points="682.14,1018.58 682.14,1013.18 714.50,1013.18 714.50,1018.58 682.14,1018.58" fill="#FF9800" fill-opacity="0.12" stroke="#FFB74D" stroke-width="0.6"/>
<polygon points="682.14,1005.09 714.50,1005.09 714.50,1010.48 682.14,1010.48 682.14,1005.09" fill="#FF9800" fill-opacity="0.12" stroke="#FFB74D" stroke-width="0.6"/>
<polygon points="655.16,1007.79 655.16,963.95 660.56,963.95 660.56,1007.79 655.16,1007.79" fill="#FF9800" fill-opacity="0.12" stroke="#FFB74D" stroke-width="0.6"/>
<polygon points="663.26,1007.79 663.26,963.95 668.65,963.95 668.65,1007.79 663.26,1007.79" fill="#FF9800" fill-opacity="0.12" stroke="#FFB74D" stroke-width="0.6"/>
<polygon points="655.16,953.76 655.16,888.41 660.56,888.41 660.56,953.76 655.16,953.76" fill="#FF9800" fill-opacity="0.12" stroke="#FFB74D" stroke-width="0.6"/>
<polygon points="663.26,953.76 663.26,888.41 668.65,888.41 668.65,953.76 663.26,953.76" fill="#FF9800" fill-opacity="0.12" stroke="#FFB74D" stroke-width="0.6"/>
<polygon points="668.65,885.72 727.99,885.72 727.99,891.11 668.65,891.11 668.65,885.72" fill="#FF9800" fill-opacity="0.12" stroke="#FFB74D" stroke-width="0.6"/>
<polygon points="490.09,885.72 566.42,885.72 566.42,891.11 490.09,891.11 490.09,885.72" fill="#FF9800" fill-opacity="0.12" stroke="#FFB74D" stroke-width="0.6"/>
<polygon points="402.43,885.72 479.30,885.72 479.30,891.11 402.43,891.11 402.43,885.72" fill="#FF9800" fill-opacity="0.12" stroke="#FFB74D" stroke-width="0.6"/>
<polygon points="402.43,874.93 479.30,874.93 479.30,880.32 402.43,880.32 402.43,874.93" fill="#FF9800" fill-opacity="0.12" stroke="#FFB74D" stroke-width="0.6"/>
<polygon points="490.09,880.32 490.09,874.93 566.96,874.93 566.96,880.32 490.09,880.32" fill="#FF9800" fill-opacity="0.12" stroke="#FFB74D" stroke-width="0.6"/>
<polygon points="730.69,812.88 730.69,815.58 669.19,815.58 669.19,812.88 666.49,812.88 666.49,807.48 669.19,807.48 669.19,804.78 730.69,804.78 730.69,807.48 733.38,807.48 733.38,812.88 730.69,812.88" fill="#FF9800" fill-opacity="0.12" stroke="#FFB74D" stroke-width="0.6"/>
<polygon points="651.12,793.73 651.12,815.58 645.72,815.58 645.72,791.03 648.42,791.03 648.42,788.33 658.40,788.33 658.40,793.73 651.12,793.73" fill="#FF9800" fill-opacity="0.12" stroke="#FFB74D" stroke-width="0.6"/>
<polygon points="588.27,775.11 588.27,780.51 384.09,780.51 384.09,812.88 378.69,812.88 378.69,777.81 381.39,777.81 381.39,775.11 588.27,775.11" fill="#FF9800" fill-opacity="0.12" stroke="#FFB74D" stroke-width="0.6"/>
<polygon points="637.63,746.52 643.03,746.52 643.03,815.58 637.63,815.58 637.63,746.52" fill="#FF9800" fill-opacity="0.12" stroke="#FFB74D" stroke-width="0.6"/>
<polygon points="543.23,767.02 582.40,767.02 582.40,772.42 543.23,772.42 543.23,767.02" fill="#FF9800" fill-opacity="0.12" stroke="#FFB74D" stroke-width="0.6"/>
<polygon points="648.42,782.94 645.72,782.94 645.72,746.52 651.12,746.52 651.12,780.24 658.40,780.24 658.40,785.64 648.42,785.64 648.42,782.94" fill="#FF9800" fill-opacity="0.12" stroke="#FFB74D" stroke-width="0.6"/>
<polygon points="458.26,761.63 533.79,761.63 533.79,767.02 458.26,767.02 458.26,761.63" fill="#FF9800" fill-opacity="0.12" stroke="#FFB74D" stroke-width="0.6"/>
<polygon points="634.93,738.43 634.93,743.82 634.93,749.22 588.27,749.22 588.27,743.82 588.27,738.43 634.93,738.43" fill="#FF9800" fill-opacity="0.12" stroke="#FFB74D" stroke-width="0.6"/>
<polygon points="688.88,714.42 648.42,714.42 648.42,709.02 688.88,709.02 688.88,714.42" fill="#FF9800" fill-opacity="0.12" stroke="#FFB74D" stroke-width="0.6"/>
<polygon points="535.13,710.37 458.26,710.37 458.26,704.98 535.13,704.98 535.13,710.37" fill="#FF9800" fill-opacity="0.12" stroke="#FFB74D" stroke-width="0.6"/>
<polygon points="688.88,703.63 648.42,703.63 648.42,698.23 688.88,698.23 688.88,703.63" fill="#FF9800" fill-opacity="0.12" stroke="#FFB74D" stroke-width="0.6"/>
<polygon points="535.13,696.88 458.26,696.88 458.26,691.49 535.13,691.49 535.13,696.88" fill="#FF9800" fill-opacity="0.12" stroke="#FFB74D" stroke-width="0.6"/>
<polygon points="648.42,525.59 730.69,525.59 730.69,530.98 648.42,530.98 648.42,525.59" fill="#FF9800" fill-opacity="0.12" stroke="#FFB74D" stroke-width="0.6"/>
<polygon points="634.93,530.98 458.26,530.98 458.26,525.59 634.93,525.59 634.93,530.98" fill="#FF9800" fill-opacity="0.12" stroke="#FFB74D" stroke-width="0.6"/>
<polygon points="458.26,515.54 455.55,515.78 440.66,350.46 443.35,350.21 443.35,347.55 678.38,347.55 678.38,350.24 680.95,349.45 732.86,517.14 729.95,518.04 729.95,518.84 648.42,518.84 648.42,513.45 726.07,513.45 676.39,352.94 446.30,352.94 460.75,513.45 634.93,513.45 634.93,518.84 458.26,518.84 458.26,515.54" fill="#FF9800" fill-opacity="0.12" stroke="#FFB74D" stroke-width="0.6"/>
<polygon points="443.32,261.22 443.32,309.78 437.92,309.78 437.92,261.22 443.32,261.22" fill="#FF9800" fill-opacity="0.12" stroke="#FFB74D" stroke-width="0.6"/>
<polygon points="435.22,261.22 435.22,309.78 429.83,309.78 429.83,261.22 435.22,261.22" fill="#FF9800" fill-opacity="0.12" stroke="#FFB74D" stroke-width="0.6"/>
<polygon points="681.35,331.36 688.09,331.36 688.09,232.90 690.79,232.90 690.79,230.20 889.04,230.20 889.04,232.90 891.74,232.90 891.74,338.11 889.04,338.11 889.04,340.80 690.79,340.80 690.79,338.11 688.09,338.11 688.09,336.76 680.66,336.76 680.66,334.06 678.65,334.06 678.65,336.76 440.62,336.76 440.62,331.36 675.96,331.36 675.96,239.64 440.62,239.64 440.62,234.25 678.65,234.25 678.65,236.95 681.35,236.95 681.35,331.36" fill="#FF9800" fill-opacity="0.12" stroke="#FFB74D" stroke-width="0.6"/>
<polygon points="586.66,218.06 678.65,218.06 678.65,223.46 586.66,223.46 586.66,218.06" fill="#FF9800" fill-opacity="0.12" stroke="#FFB74D" stroke-width="0.6"/>
<polygon points="442.64,218.06 574.52,218.06 574.52,223.46 442.64,223.46 442.64,218.06" fill="#FF9800" fill-opacity="0.12" stroke="#FFB74D" stroke-width="0.6"/>
<polygon points="792.50,1498.69 797.90,1498.69 797.90,1505.02 797.82,1505.02 797.82,1506.00 797.83,1506.03 814.88,1506.03 814.88,1508.72 817.57,1508.72 817.57,1516.82 820.27,1516.82 820.27,1508.72 822.97,1508.72 822.97,1506.03 852.30,1506.03 852.30,1506.03 822.97,1506.03 822.97,1500.63 852.21,1500.63 852.21,1498.69 857.61,1498.69 857.61,1505.02 857.53,1505.02 857.53,1506.00 858.72,1508.42 857.61,1508.96 857.61,1513.60 852.21,1513.60 852.21,1511.42 825.66,1511.42 825.66,1519.51 822.97,1519.51 822.97,1522.21 814.88,1522.21 814.88,1519.51 812.18,1519.51 812.18,1511.42 797.90,1511.42 797.90,1513.60 792.50,1513.60 792.50,1507.29 792.59,1507.29 792.59,1506.00 791.65,1503.47 792.50,1503.15 792.50,1498.69" fill="#FF9800" fill-opacity="0.12" stroke="#FFB74D" stroke-width="0.6"/>
<polygon points="741.48,1092.76 908.71,1092.76 908.71,1098.16 741.48,1098.16 741.48,1092.76" fill="#FF9800" fill-opacity="0.12" stroke="#FFB74D" stroke-width="0.6"/>
<polygon points="726.64,1171.21 726.64,1107.60 732.04,1107.60 732.04,1171.21 738.78,1171.21 738.78,1107.60 741.48,1107.60 741.48,1104.90 908.71,1104.90 908.71,1107.60 911.40,1107.60 911.40,1160.91 915.18,1156.44 918.15,1158.94 918.15,1107.60 923.54,1107.60 923.54,1165.60 1526.38,1165.60 1526.38,1107.60 1531.78,1107.60 1531.78,1165.60 1538.52,1165.60 1538.52,1107.60 1541.22,1107.60 1541.22,1104.90 1594.48,1104.90 1589.82,1100.97 1592.19,1098.16 1541.22,1098.16 1541.22,1092.76 1598.98,1092.76 1598.98,872.45 1604.37,872.45 1604.37,1092.76 1662.98,1092.76 1662.98,1098.16 1611.16,1098.16 1613.53,1100.97 1608.87,1104.90 1662.98,1104.90 1662.98,1110.30 1543.91,1110.30 1543.91,1228.48 1538.52,1228.48 1538.52,1170.99 1531.78,1170.99 1531.78,1228.84 1526.38,1228.84 1526.38,1170.99 923.54,1170.99 923.54,1228.99 918.15,1228.99 918.15,1177.64 915.18,1180.15 911.40,1175.67 911.40,1234.38 906.01,1234.38 906.01,1110.30 744.17,1110.30 744.17,1234.38 738.78,1234.38 738.78,1176.61 732.04,1176.61 732.04,1234.38 726.64,1234.38 726.64,1176.61 123.80,1176.61 123.80,1228.99 118.41,1228.99 118.41,1183.67 115.92,1185.77 111.66,1180.72 111.66,1228.99 106.27,1228.99 106.27,1107.60 111.66,1107.60 111.66,1167.10 115.92,1162.06 118.41,1164.15 118.41,1107.60 123.80,1107.60 123.80,1171.21 726.64,1171.21" fill="#FF9800" fill-opacity="0.12" stroke="#FFB74D" stroke-width="0.6"/>
<polygon points="968.05,1018.58 935.68,1018.58 935.68,1013.18 968.05,1013.18 968.05,1018.58" fill="#FF9800" fill-opacity="0.12" stroke="#FFB74D" stroke-width="0.6"/>
<polygon points="968.05,1010.48 935.68,1010.48 935.68,1005.09 968.05,1005.09 968.05,1010.48" fill="#FF9800" fill-opacity="0.12" stroke="#FFB74D" stroke-width="0.6"/>
<polygon points="981.53,1007.79 981.53,963.95 986.93,963.95 986.93,1007.79 981.53,1007.79" fill="#FF9800" fill-opacity="0.12" stroke="#FFB74D" stroke-width="0.6"/>
<polygon points="989.62,1007.79 989.62,963.95 995.02,963.95 995.02,1007.79 989.62,1007.79" fill="#FF9800" fill-opacity="0.12" stroke="#FFB74D" stroke-width="0.6"/>
<polygon points="981.53,953.76 981.53,888.41 986.93,888.41 986.93,953.76 981.53,953.76" fill="#FF9800" fill-opacity="0.12" stroke="#FFB74D" stroke-width="0.6"/>
<polygon points="989.62,953.76 989.62,888.41 995.02,888.41 995.02,953.76 989.62,953.76" fill="#FF9800" fill-opacity="0.12" stroke="#FFB74D" stroke-width="0.6"/>
<polygon points="741.48,892.46 741.48,887.06 908.71,887.06 908.71,892.46 741.48,892.46" fill="#FF9800" fill-opacity="0.12" stroke="#FFB74D" stroke-width="0.6"/>
<polygon points="981.53,891.11 922.19,891.11 922.19,885.72 981.53,885.72 981.53,891.11" fill="#FF9800" fill-opacity="0.12" stroke="#FFB74D" stroke-width="0.6"/>
<polygon points="732.04,877.62 727.99,877.62 727.99,880.32 668.65,880.32 668.65,874.93 726.64,874.93 726.64,823.67 732.04,823.67 732.04,877.62" fill="#FF9800" fill-opacity="0.12" stroke="#FFB74D" stroke-width="0.6"/>
<polygon points="918.15,823.67 923.54,823.67 923.54,874.93 981.53,874.93 981.53,880.32 922.19,880.32 922.19,877.62 918.15,877.62 918.15,823.67" fill="#FF9800" fill-opacity="0.12" stroke="#FFB74D" stroke-width="0.6"/>
<polygon points="741.48,877.62 738.78,877.62 738.78,823.67 741.48,823.67 741.48,820.97 908.71,820.97 908.71,823.67 911.40,823.67 911.40,877.62 908.71,877.62 908.71,880.32 741.48,880.32 741.48,877.62" fill="#FF9800" fill-opacity="0.12" stroke="#FFB74D" stroke-width="0.6"/>
<polygon points="741.48,808.83 908.71,808.83 908.71,814.23 741.48,814.23 741.48,808.83" fill="#FF9800" fill-opacity="0.12" stroke="#FFB74D" stroke-width="0.6"/>
<polygon points="919.50,812.88 916.80,812.88 916.80,807.48 919.50,807.48 919.50,804.78 980.99,804.78 980.99,807.48 983.69,807.48 983.69,812.88 980.99,812.88 980.99,815.58 919.50,815.58 919.50,812.88" fill="#FF9800" fill-opacity="0.12" stroke="#FFB74D" stroke-width="0.6"/>
<polygon points="991.78,793.73 991.78,788.33 1001.76,788.33 1001.76,791.03 1004.46,791.03 1004.46,815.58 999.06,815.58 999.06,793.73 991.78,793.73" fill="#FF9800" fill-opacity="0.12" stroke="#FFB74D" stroke-width="0.6"/>
<polygon points="1012.55,746.52 1012.55,815.58 1007.16,815.58 1007.16,746.52 1012.55,746.52" fill="#FF9800" fill-opacity="0.12" stroke="#FFB74D" stroke-width="0.6"/>
<polygon points="999.06,746.52 1004.46,746.52 1004.46,782.94 1001.76,782.94 1001.76,785.64 991.78,785.64 991.78,780.24 999.06,780.24 999.06,746.52" fill="#FF9800" fill-opacity="0.12" stroke="#FFB74D" stroke-width="0.6"/>
<polygon points="1061.91,749.22 1015.25,749.22 1015.25,743.82 1015.25,738.43 1061.91,738.43 1061.91,743.82 1061.91,749.22" fill="#FF9800" fill-opacity="0.12" stroke="#FFB74D" stroke-width="0.6"/>
<polygon points="961.30,709.02 1001.76,709.02 1001.76,714.42 961.30,714.42 961.30,709.02" fill="#FF9800" fill-opacity="0.12" stroke="#FFB74D" stroke-width="0.6"/>
<polygon points="961.30,698.23 1001.76,698.23 1001.76,703.63 961.30,703.63 961.30,698.23" fill="#FF9800" fill-opacity="0.12" stroke="#FFB74D" stroke-width="0.6"/>
<polygon points="908.71,622.70 741.48,622.70 741.48,617.31 908.71,617.31 908.71,622.70" fill="#FF9800" fill-opacity="0.12" stroke="#FFB74D" stroke-width="0.6"/>
<polygon points="908.71,610.56 741.48,610.56 741.48,605.17 908.71,605.17 908.71,610.56" fill="#FF9800" fill-opacity="0.12" stroke="#FFB74D" stroke-width="0.6"/>
<polygon points="1001.76,530.98 919.50,530.98 919.50,525.59 1001.76,525.59 1001.76,530.98" fill="#FF9800" fill-opacity="0.12" stroke="#FFB74D" stroke-width="0.6"/>
<polygon points="908.71,530.98 741.48,530.98 741.48,525.59 908.71,525.59 908.71,530.98" fill="#FF9800" fill-opacity="0.12" stroke="#FFB74D" stroke-width="0.6"/>
<polygon points="1001.56,350.24 1004.25,350.24 1004.46,516.14 1001.76,516.15 1001.76,518.84 919.50,518.84 919.50,515.53 918.12,515.69 899.22,350.52 901.90,350.21 901.90,347.55 1001.56,347.55 1001.56,350.24" fill="#FF9800" fill-opacity="0.12" stroke="#FFB74D" stroke-width="0.6"/>
<polygon points="891.00,349.94 910.08,516.61 908.71,516.76 908.71,518.84 742.21,518.84 742.21,514.25 739.30,515.15 688.51,351.04 691.08,350.24 691.08,347.55 888.32,347.55 888.32,350.24 891.00,349.94" fill="#FF9800" fill-opacity="0.12" stroke="#FFB74D" stroke-width="0.6"/>
<polygon points="1194.26,338.10 1191.56,338.11 1191.56,340.80 901.18,340.80 901.18,338.11 898.48,338.11 898.48,232.90 901.18,232.90 901.18,230.20 1013.17,230.20 1013.17,235.60 903.87,235.60 903.87,335.41 1188.86,335.41 1188.83,319.56 1194.22,319.55 1194.26,338.10" fill="#FF9800" fill-opacity="0.12" stroke="#FFB74D" stroke-width="0.6"/>
<polygon points="898.48,220.76 898.48,168.17 903.87,168.17 903.87,218.06 991.01,218.06 991.01,223.46 901.18,223.46 901.18,220.76 898.48,220.76" fill="#FF9800" fill-opacity="0.12" stroke="#FFB74D" stroke-width="0.6"/>
<polygon points="891.74,220.76 889.04,220.76 889.04,223.46 690.79,223.46 690.79,218.06 886.34,218.06 886.34,160.64 891.74,160.64 891.74,220.76" fill="#FF9800" fill-opacity="0.12" stroke="#FFB74D" stroke-width="0.6"/>
<polygon points="1261.78,1056.34 1261.78,1061.74 1208.10,1061.74 1208.10,1056.34 1261.78,1056.34" fill="#FF9800" fill-opacity="0.12" stroke="#FFB74D" stroke-width="0.6"/>
<polygon points="1259.08,1053.65 1241.55,1053.65 1241.55,1048.25 1259.08,1048.25 1259.08,1053.65" fill="#FF9800" fill-opacity="0.12" stroke="#FFB74D" stroke-width="0.6"/>
<polygon points="1417.26,1029.43 1417.26,999.01 1422.65,999.01 1422.65,1029.43 1417.26,1029.43" fill="#FF9800" fill-opacity="0.12" stroke="#FFB74D" stroke-width="0.6"/>
<polygon points="1428.05,1029.43 1428.05,999.01 1433.44,999.01 1433.44,1029.43 1428.05,1029.43" fill="#FF9800" fill-opacity="0.12" stroke="#FFB74D" stroke-width="0.6"/>
<polygon points="1330.95,891.11 1258.54,891.11 1258.54,885.72 1330.95,885.72 1330.95,891.11" fill="#FF9800" fill-opacity="0.12" stroke="#FFB74D" stroke-width="0.6"/>
<polygon points="1160.09,891.11 1083.76,891.11 1083.76,885.72 1160.09,885.72 1160.09,891.11" fill="#FF9800" fill-opacity="0.12" stroke="#FFB74D" stroke-width="0.6"/>
<polygon points="1247.75,891.11 1170.88,891.11 1170.88,885.72 1247.75,885.72 1247.75,891.11" fill="#FF9800" fill-opacity="0.12" stroke="#FFB74D" stroke-width="0.6"/>
<polygon points="1387.47,885.72 1387.47,891.11 1341.74,891.11 1341.74,885.72 1387.47,885.72" fill="#FF9800" fill-opacity="0.12" stroke="#FFB74D" stroke-width="0.6"/>
<polygon points="1247.75,880.32 1170.88,880.32 1170.88,874.93 1247.75,874.93 1247.75,880.32" fill="#FF9800" fill-opacity="0.12" stroke="#FFB74D" stroke-width="0.6"/>
<polygon points="1160.09,880.32 1083.22,880.32 1083.22,874.93 1160.09,874.93 1160.09,880.32" fill="#FF9800" fill-opacity="0.12" stroke="#FFB74D" stroke-width="0.6"/>
<polygon points="1330.95,823.67 1336.34,823.67 1336.34,877.62 1330.95,877.62 1330.95,880.32 1258.54,880.32 1258.54,874.93 1330.95,874.93 1330.95,823.67" fill="#FF9800" fill-opacity="0.12" stroke="#FFB74D" stroke-width="0.6"/>
<polygon points="1384.77,823.67 1390.17,823.67 1390.17,877.62 1387.47,877.62 1387.47,880.32 1341.74,880.32 1341.74,877.62 1339.04,877.62 1339.04,823.67 1344.43,823.67 1344.43,874.93 1384.77,874.93 1384.77,823.67" fill="#FF9800" fill-opacity="0.12" stroke="#FFB74D" stroke-width="0.6"/>
<polygon points="1400.96,823.68 1400.69,877.64 1395.29,877.61 1395.56,823.66 1400.96,823.68" fill="#FF9800" fill-opacity="0.12" stroke="#FFB74D" stroke-width="0.6"/>
<polygon points="1382.08,775.11 1382.08,780.51 1284.98,780.51 1284.98,812.88 1279.58,812.88 1279.58,777.81 1282.28,777.81 1282.28,775.11 1382.08,775.11" fill="#FF9800" fill-opacity="0.12" stroke="#FFB74D" stroke-width="0.6"/>
<polygon points="1268.79,777.81 1271.49,777.81 1271.49,812.88 1266.09,812.88 1266.09,780.51 1061.91,780.51 1061.91,775.11 1268.79,775.11 1268.79,777.81" fill="#FF9800" fill-opacity="0.12" stroke="#FFB74D" stroke-width="0.6"/>
<polygon points="1527.73,780.51 1395.56,780.51 1395.56,775.11 1527.73,775.11 1527.73,780.51" fill="#FF9800" fill-opacity="0.12" stroke="#FFB74D" stroke-width="0.6"/>
<polygon points="1106.96,772.42 1067.78,772.42 1067.78,767.02 1106.96,767.02 1106.96,772.42" fill="#FF9800" fill-opacity="0.12" stroke="#FFB74D" stroke-width="0.6"/>
<polygon points="1191.92,767.02 1116.40,767.02 1116.40,761.63 1191.92,761.63 1191.92,767.02" fill="#FF9800" fill-opacity="0.12" stroke="#FFB74D" stroke-width="0.6"/>
<polygon points="1382.08,767.02 1205.41,767.02 1205.41,761.63 1382.08,761.63 1382.08,767.02" fill="#FF9800" fill-opacity="0.12" stroke="#FFB74D" stroke-width="0.6"/>
<polygon points="1527.73,767.02 1395.56,767.02 1395.56,761.63 1527.73,761.63 1527.73,767.02" fill="#FF9800" fill-opacity="0.12" stroke="#FFB74D" stroke-width="0.6"/>
<polygon points="1115.05,704.98 1191.92,704.98 1191.92,710.37 1115.05,710.37 1115.05,704.98" fill="#FF9800" fill-opacity="0.12" stroke="#FFB74D" stroke-width="0.6"/>
<polygon points="1115.05,696.88 1115.05,691.49 1191.92,691.49 1191.92,696.88 1115.05,696.88" fill="#FF9800" fill-opacity="0.12" stroke="#FFB74D" stroke-width="0.6"/>
<polygon points="1662.98,606.52 1541.21,606.52 1541.21,601.12 1662.98,601.12 1662.98,606.52" fill="#FF9800" fill-opacity="0.12" stroke="#FFB74D" stroke-width="0.6"/>
<polygon points="1527.73,525.59 1527.73,528.29 1530.43,528.29 1530.43,591.68 1525.03,591.68 1525.03,530.98 1395.56,530.98 1395.56,525.59 1527.73,525.59" fill="#FF9800" fill-opacity="0.12" stroke="#FFB74D" stroke-width="0.6"/>
<polygon points="1015.25,525.59 1191.92,525.59 1191.92,530.98 1015.25,530.98 1015.25,525.59" fill="#FF9800" fill-opacity="0.12" stroke="#FFB74D" stroke-width="0.6"/>
<polygon points="1382.08,530.98 1205.41,530.98 1205.41,525.59 1382.08,525.59 1382.08,530.98" fill="#FF9800" fill-opacity="0.12" stroke="#FFB74D" stroke-width="0.6"/>
<polygon points="1540.54,591.68 1540.54,438.49 1545.94,438.49 1545.94,588.98 1662.98,588.98 1662.98,594.38 1541.22,594.38 1541.22,591.68 1540.54,591.68" fill="#FF9800" fill-opacity="0.12" stroke="#FFB74D" stroke-width="0.6"/>
<polygon points="1527.73,518.84 1395.56,518.84 1395.56,516.15 1392.87,516.15 1392.63,396.53 1398.02,396.52 1398.26,513.45 1525.03,513.45 1525.03,435.40 1530.43,435.40 1530.43,516.15 1527.73,516.15 1527.73,518.84" fill="#FF9800" fill-opacity="0.12" stroke="#FFB74D" stroke-width="0.6"/>
<polygon points="1015.25,516.15 1012.55,516.15 1012.35,350.25 1015.05,350.24 1015.05,347.55 1191.59,347.55 1191.59,350.24 1194.28,350.24 1194.62,516.14 1191.92,516.15 1191.92,518.84 1015.25,518.84 1015.25,516.15" fill="#FF9800" fill-opacity="0.12" stroke="#FFB74D" stroke-width="0.6"/>
<polygon points="1379.13,392.11 1384.52,392.10 1384.77,516.14 1382.08,516.15 1382.08,518.84 1205.41,518.84 1205.41,516.15 1202.71,516.15 1202.38,350.25 1205.07,350.24 1205.07,347.55 1265.93,347.55 1265.93,352.94 1207.78,352.94 1208.10,513.45 1379.37,513.45 1379.13,392.11" fill="#FF9800" fill-opacity="0.12" stroke="#FFB74D" stroke-width="0.6"/>
<polygon points="1207.74,335.41 1235.60,335.41 1235.60,340.80 1205.05,340.80 1205.05,338.11 1202.35,338.11 1202.32,325.36 1207.72,325.35 1207.74,335.41" fill="#FF9800" fill-opacity="0.12" stroke="#FFB74D" stroke-width="0.6"/>
<polygon class="slab-poly" data-slab-id="SLAB-001" points="689.31,593.16 660.42,593.16 660.42,526.80 689.31,526.80 689.31,514.66 723.62,514.66 725.13,519.54 725.31,520.03 725.54,520.51 725.82,520.96 726.13,521.39 726.49,521.78 726.89,522.13 727.31,522.44 727.77,522.71 728.25,522.94 728.75,523.11 729.26,523.24 729.79,523.31 730.31,523.34 730.82,523.31 730.82,526.80 739.99,526.80 742.96,526.80 887.56,526.80 887.56,514.66 922.33,514.66 922.33,526.80 989.76,526.80 989.76,593.16 922.33,593.16 922.33,604.36 922.33,607.32 922.33,621.49 906.43,621.49 903.46,621.49 887.56,621.49 887.56,607.32 887.56,604.36 887.56,593.16 742.96,593.16 739.99,593.16 730.82,593.16 730.82,604.36 730.82,607.32 730.82,621.49 689.31,621.49 689.31,607.32 689.31,604.36 689.31,593.16" fill="#2196F3" fill-opacity="0.45" stroke="#2196F3" stroke-width="0.8"/>
<text x="822.0" y="562.7" fill="#fff" font-size="9" text-anchor="middle" dominant-baseline="middle" font-family="Segoe UI, sans-serif" paint-order="stroke" stroke="#000" stroke-width="2" pointer-events="none">SLAB-001</text>
<polygon class="slab-poly" data-slab-id="SLAB-002" points="120.97,1100.99 107.48,1100.99 107.48,988.26 120.97,988.26 122.45,988.26 122.45,901.93 120.97,901.93 107.48,901.93 107.48,891.25 58.76,891.25 53.29,891.25 53.29,885.78 54.53,886.83 54.95,887.15 55.40,887.43 55.87,887.66 56.37,887.85 56.88,887.98 57.40,888.07 57.93,888.10 58.46,888.08 58.99,888.01 59.50,887.89 60.00,887.72 60.48,887.50 60.94,887.23 61.37,886.92 61.77,886.57 62.13,886.18 62.45,885.76 62.73,885.31 62.96,884.84 63.15,884.34 63.28,883.83 63.37,883.31 63.40,882.78 63.38,882.25 63.31,881.72 63.19,881.21 63.02,880.71 62.80,880.23 62.53,879.77 62.22,879.34 61.87,878.94 61.48,878.58 51.37,870.05 51.34,870.02 51.31,870.00 51.11,869.85 50.94,869.72 50.91,869.70 50.89,869.68 50.66,869.55 50.48,869.44 50.46,869.43 50.43,869.41 50.19,869.30 49.99,869.20 49.97,869.19 49.96,869.19 49.69,869.09 49.49,869.02 49.47,869.01 49.46,869.01 49.16,868.93 48.96,868.88 48.95,868.88 48.94,868.88 48.60,868.83 48.43,868.80 48.42,868.80 48.42,868.80 47.89,868.77 47.36,868.80 47.36,868.80 47.35,868.80 47.18,868.83 46.84,868.88 46.83,868.88 46.82,868.88 46.62,868.93 46.32,869.01 46.31,869.01 46.29,869.02 46.09,869.09 45.83,869.19 45.81,869.19 45.79,869.20 45.59,869.30 45.35,869.41 45.33,869.43 45.30,869.44 45.28,869.45 45.28,813.02 45.28,810.05 45.28,776.33 61.73,776.33 61.73,810.05 107.48,810.05 110.45,810.05 123.94,810.05 123.94,888.28 220.66,888.28 223.62,888.28 234.82,888.28 234.82,876.14 264.19,876.14 264.19,888.28 311.01,888.28 313.98,888.28 380.18,888.28 383.15,888.28 395.29,888.28 395.29,1045.55 391.10,1045.55 390.57,1045.58 390.05,1045.66 389.54,1045.79 389.04,1045.96 388.56,1046.19 388.10,1046.46 387.68,1046.78 387.29,1047.13 386.93,1047.53 386.62,1047.95 386.34,1048.40 386.12,1048.88 385.94,1049.38 385.81,1049.90 385.73,1050.42 385.71,1050.95 385.73,1051.48 385.81,1052.00 385.94,1052.51 386.12,1053.01 386.34,1053.49 386.62,1053.95 386.93,1054.37 387.29,1054.76 387.68,1055.12 388.10,1055.43 388.56,1055.71 389.04,1055.93 389.54,1056.11 390.05,1056.24 390.57,1056.32 391.10,1056.34 395.29,1056.34 395.29,1100.99 383.15,1100.99 380.18,1100.99 313.98,1100.99 311.01,1100.99 264.19,1100.99 261.23,1100.99 223.62,1100.99 220.66,1100.99 123.94,1100.99 120.97,1100.99" fill="#2196F3" fill-opacity="0.45" stroke="#2196F3" stroke-width="0.8"/>
<text x="237.3" y="979.6" fill="#fff" font-size="9" text-anchor="middle" dominant-baseline="middle" font-family="Segoe UI, sans-serif" paint-order="stroke" stroke="#000" stroke-width="2" pointer-events="none">SLAB-002</text>
<polygon class="slab-poly" data-slab-id="SLAB-003" points="576.00,348.76 576.00,517.63 392.32,517.63 392.32,348.76 576.00,348.76" fill="#2196F3" fill-opacity="0.45" stroke="#2196F3" stroke-width="0.8"/>
<text x="484.2" y="433.2" fill="#fff" font-size="9" text-anchor="middle" dominant-baseline="middle" font-family="Segoe UI, sans-serif" paint-order="stroke" stroke="#000" stroke-width="2" pointer-events="none">SLAB-003</text>
<polygon class="slab-poly" data-slab-id="SLAB-004" points="261.23,333.25 380.18,333.25 383.15,333.25 395.29,333.25 395.29,529.77 383.15,529.77 380.18,529.77 261.23,529.77 261.23,333.25" fill="#2196F3" fill-opacity="0.45" stroke="#2196F3" stroke-width="0.8"/>
<text x="328.3" y="431.5" fill="#fff" font-size="9" text-anchor="middle" dominant-baseline="middle" font-family="Segoe UI, sans-serif" paint-order="stroke" stroke="#000" stroke-width="2" pointer-events="none">SLAB-004</text>
<polygon class="slab-poly" data-slab-id="SLAB-005" points="264.19,529.77 234.82,529.77 220.66,529.77 220.66,351.73 220.66,348.76 220.66,333.25 225.91,333.25 226.05,333.44 226.41,333.83 226.80,334.18 227.22,334.50 227.68,334.77 228.16,335.00 228.65,335.18 229.17,335.30 229.69,335.38 230.22,335.41 230.23,335.41 230.76,335.38 231.28,335.30 231.80,335.18 232.30,335.00 232.77,334.77 233.23,334.50 233.65,334.18 234.05,333.83 234.40,333.44 234.54,333.25 237.78,333.25 237.78,348.76 264.19,348.76 264.19,514.66 264.19,529.77" fill="#2196F3" fill-opacity="0.45" stroke="#2196F3" stroke-width="0.8"/>
<polygon class="slab-poly" data-slab-id="SLAB-006" points="392.32,225.94 392.75,226.05 393.27,226.13 393.80,226.16 430.50,226.16 431.03,226.13 431.56,226.05 432.07,225.92 432.57,225.75 433.05,225.52 433.50,225.25 433.93,224.93 434.32,224.58 434.67,224.18 434.99,223.76 435.26,223.30 435.49,222.83 435.67,222.33 435.79,221.81 435.87,221.29 435.90,220.76 435.87,220.23 435.79,219.71 435.69,219.28 576.00,219.28 576.00,351.73 392.32,351.73 392.32,225.94" fill="#2196F3" fill-opacity="0.45" stroke="#2196F3" stroke-width="0.8"/>
<text x="485.0" y="286.3" fill="#fff" font-size="9" text-anchor="middle" dominant-baseline="middle" font-family="Segoe UI, sans-serif" paint-order="stroke" stroke="#000" stroke-width="2" pointer-events="none">SLAB-006</text>
<polygon class="slab-poly" data-slab-id="SLAB-007" points="392.32,60.39 392.32,45.28 576.00,45.28 576.00,60.39 392.32,60.39" fill="#2196F3" fill-opacity="0.45" stroke="#2196F3" stroke-width="0.8"/>
<polygon class="slab-poly" data-slab-id="SLAB-008" points="395.29,237.76 380.18,237.76 380.18,45.28 395.29,45.28 395.29,215.37 393.80,215.37 393.27,215.39 392.75,215.47 392.24,215.60 391.74,215.78 391.26,216.00 390.81,216.27 390.38,216.59 389.99,216.95 389.63,217.34 389.32,217.76 389.05,218.22 388.82,218.70 388.64,219.19 388.51,219.71 388.43,220.23 388.41,220.76 388.43,221.29 388.51,221.81 388.64,222.33 388.82,222.83 389.05,223.30 389.32,223.76 389.63,224.18 389.99,224.58 390.38,224.93 390.81,225.25 391.26,225.52 391.74,225.75 392.24,225.92 392.75,226.05 393.27,226.13 393.80,226.16 395.29,226.16 395.29,237.76" fill="#2196F3" fill-opacity="0.45" stroke="#2196F3" stroke-width="0.8"/>
<polygon class="slab-poly" data-slab-id="SLAB-009" points="220.66,222.24 220.66,45.28 264.19,45.28 264.19,222.24 235.41,222.24 235.52,221.81 235.60,221.29 235.63,220.76 235.60,220.23 235.52,219.71 235.39,219.19 235.22,218.70 234.99,218.22 234.72,217.76 234.40,217.34 234.05,216.95 233.65,216.59 233.23,216.27 232.77,216.00 232.30,215.78 231.80,215.60 231.28,215.47 230.76,215.39 230.23,215.37 230.22,215.37 229.69,215.39 229.17,215.47 228.65,215.60 228.16,215.78 227.68,216.00 227.22,216.27 226.80,216.59 226.41,216.95 226.05,217.34 225.73,217.76 225.46,218.22 225.24,218.70 225.06,219.19 224.93,219.71 224.85,220.23 224.83,220.76 224.85,221.29 224.93,221.81 225.04,222.24 220.66,222.24" fill="#2196F3" fill-opacity="0.45" stroke="#2196F3" stroke-width="0.8"/>
<polygon class="slab-poly" data-slab-id="SLAB-010" points="45.28,222.24 45.28,45.28 110.45,45.28 110.45,222.24 45.28,222.24" fill="#2196F3" fill-opacity="0.45" stroke="#2196F3" stroke-width="0.8"/>
<text x="77.9" y="133.8" fill="#fff" font-size="9" text-anchor="middle" dominant-baseline="middle" font-family="Segoe UI, sans-serif" paint-order="stroke" stroke="#000" stroke-width="2" pointer-events="none">SLAB-010</text>
<polygon class="slab-poly" data-slab-id="SLAB-011" points="45.28,336.22 45.28,234.79 61.73,234.79 61.73,336.22 45.28,336.22" fill="#2196F3" fill-opacity="0.45" stroke="#2196F3" stroke-width="0.8"/>
<polygon class="slab-poly" data-slab-id="SLAB-012" points="730.82,351.73 697.19,351.73 696.24,348.65 696.06,348.15 695.83,347.67 695.55,347.22 695.23,346.80 694.88,346.41 694.48,346.05 694.06,345.74 693.60,345.47 693.12,345.25 692.62,345.07 692.11,344.95 691.58,344.87 691.05,344.85 690.52,344.88 690.00,344.96 689.49,345.09 689.31,345.16 689.31,339.43 689.82,339.35 690.33,339.22 690.83,339.04 691.31,338.82 691.76,338.55 692.19,338.23 692.58,337.87 692.94,337.48 693.25,337.06 693.52,336.60 693.75,336.12 693.93,335.63 694.06,335.11 694.14,334.59 694.16,334.06 694.14,333.53 694.09,333.25 727.85,333.25 727.85,234.79 742.96,234.79 742.96,336.22 730.82,336.22 730.82,351.73" fill="#2196F3" fill-opacity="0.45" stroke="#2196F3" stroke-width="0.8"/>
<polygon class="slab-poly" data-slab-id="SLAB-013" points="1193.24,314.45 1193.08,314.39 1192.57,314.26 1192.04,314.19 1191.51,314.16 1190.98,314.19 1190.46,314.27 1189.95,314.40 1189.45,314.58 1188.97,314.80 1188.52,315.08 1188.09,315.39 1187.70,315.75 1187.35,316.14 1187.03,316.57 1186.76,317.02 1186.54,317.50 1186.36,318.00 1186.23,318.51 1186.15,319.04 1186.13,319.57 1186.17,338.12 1186.19,338.65 1186.27,339.17 1186.40,339.68 1186.58,340.18 1186.81,340.66 1187.08,341.11 1187.40,341.54 1187.75,341.93 1188.15,342.28 1188.57,342.60 1189.03,342.87 1189.51,343.09 1190.01,343.27 1190.52,343.40 1191.04,343.48 1191.57,343.50 1192.10,343.47 1192.62,343.39 1193.14,343.27 1193.24,343.23 1193.24,351.73 1011.02,351.73 1011.02,222.24 1011.02,219.28 1011.02,57.42 1190.27,57.42 1190.27,45.28 1203.76,45.28 1206.72,45.28 1339.17,45.28 1339.17,237.76 1206.72,237.76 1203.76,237.76 1193.24,237.76 1193.24,314.45" fill="#2196F3" fill-opacity="0.45" stroke="#2196F3" stroke-width="0.8"/>
<text x="1158.5" y="182.5" fill="#fff" font-size="9" text-anchor="middle" dominant-baseline="middle" font-family="Segoe UI, sans-serif" paint-order="stroke" stroke="#000" stroke-width="2" pointer-events="none">SLAB-013</text>
<polygon class="slab-poly" data-slab-id="SLAB-014" points="58.76,60.39 58.76,45.28 110.45,45.28 110.45,60.39 58.76,60.39" fill="#2196F3" fill-opacity="0.45" stroke="#2196F3" stroke-width="0.8"/>
<polygon class="slab-poly" data-slab-id="SLAB-015" points="107.48,222.24 107.48,45.28 123.94,45.28 123.94,222.24 107.48,222.24" fill="#2196F3" fill-opacity="0.45" stroke="#2196F3" stroke-width="0.8"/>
<polygon class="slab-poly" data-slab-id="SLAB-016" points="234.82,60.39 234.82,45.28 264.19,45.28 264.19,60.39 234.82,60.39" fill="#2196F3" fill-opacity="0.45" stroke="#2196F3" stroke-width="0.8"/>
<polygon class="slab-poly" data-slab-id="SLAB-017" points="689.31,60.39 689.31,45.28 730.82,45.28 730.82,60.39 689.31,60.39" fill="#2196F3" fill-opacity="0.45" stroke="#2196F3" stroke-width="0.8"/>
<polygon class="slab-poly" data-slab-id="SLAB-018" points="573.04,529.77 573.04,333.25 641.81,333.25 641.81,529.77 573.04,529.77" fill="#2196F3" fill-opacity="0.45" stroke="#2196F3" stroke-width="0.8"/>
<text x="607.4" y="431.5" fill="#fff" font-size="9" text-anchor="middle" dominant-baseline="middle" font-family="Segoe UI, sans-serif" paint-order="stroke" stroke="#000" stroke-width="2" pointer-events="none">SLAB-018</text>
<polygon class="slab-poly" data-slab-id="SLAB-019" points="311.01,517.63 311.01,348.76 383.15,348.76 383.15,517.63 311.01,517.63" fill="#2196F3" fill-opacity="0.45" stroke="#2196F3" stroke-width="0.8"/>
<text x="347.1" y="433.2" fill="#fff" font-size="9" text-anchor="middle" dominant-baseline="middle" font-family="Segoe UI, sans-serif" paint-order="stroke" stroke="#000" stroke-width="2" pointer-events="none">SLAB-019</text>
<polygon class="slab-poly" data-slab-id="SLAB-020" points="120.97,529.77 120.97,333.25 223.62,333.25 223.62,529.77 162.69,529.77 162.80,529.34 162.87,528.81 162.90,528.29 162.87,527.76 162.80,527.23 162.67,526.72 162.49,526.22 162.26,525.74 161.99,525.29 161.67,524.86 161.32,524.47 160.93,524.11 160.50,523.80 160.05,523.53 159.57,523.30 159.07,523.12 158.56,522.99 158.03,522.92 157.50,522.89 143.22,522.89 142.69,522.92 142.17,522.99 141.66,523.12 141.16,523.30 140.68,523.53 140.22,523.80 139.80,524.11 139.41,524.47 139.05,524.86 138.74,525.29 138.46,525.74 138.24,526.22 138.06,526.72 137.93,527.23 137.85,527.76 137.83,528.29 137.85,528.81 137.93,529.34 138.04,529.77 120.97,529.77" fill="#2196F3" fill-opacity="0.45" stroke="#2196F3" stroke-width="0.8"/>
<text x="172.5" y="430.8" fill="#fff" font-size="9" text-anchor="middle" dominant-baseline="middle" font-family="Segoe UI, sans-serif" paint-order="stroke" stroke="#000" stroke-width="2" pointer-events="none">SLAB-020</text>
<polygon class="slab-poly" data-slab-id="SLAB-021" points="573.04,336.22 573.04,234.79 588.14,234.79 588.14,336.22 573.04,336.22" fill="#2196F3" fill-opacity="0.45" stroke="#2196F3" stroke-width="0.8"/>
<polygon class="slab-poly" data-slab-id="SLAB-022" points="392.32,57.42 576.00,57.42 576.00,222.24 435.69,222.24 435.79,221.81 435.87,221.29 435.90,220.76 435.87,220.23 435.79,219.71 435.67,219.19 435.49,218.70 435.26,218.22 434.99,217.76 434.67,217.34 434.32,216.95 433.93,216.59 433.50,216.27 433.05,216.00 432.57,215.78 432.07,215.60 431.56,215.47 431.03,215.39 430.50,215.37 393.80,215.37 393.27,215.39 392.75,215.47 392.32,215.58 392.32,57.42" fill="#2196F3" fill-opacity="0.45" stroke="#2196F3" stroke-width="0.8"/>
<text x="484.9" y="139.1" fill="#fff" font-size="9" text-anchor="middle" dominant-baseline="middle" font-family="Segoe UI, sans-serif" paint-order="stroke" stroke="#000" stroke-width="2" pointer-events="none">SLAB-022</text>
<polygon class="slab-poly" data-slab-id="SLAB-023" points="261.23,237.76 261.23,45.28 383.15,45.28 383.15,237.76 261.23,237.76" fill="#2196F3" fill-opacity="0.45" stroke="#2196F3" stroke-width="0.8"/>
<text x="322.2" y="141.5" fill="#fff" font-size="9" text-anchor="middle" dominant-baseline="middle" font-family="Segoe UI, sans-serif" paint-order="stroke" stroke="#000" stroke-width="2" pointer-events="none">SLAB-023</text>
<polygon class="slab-poly" data-slab-id="SLAB-024" points="120.97,237.76 120.97,45.28 223.62,45.28 223.62,237.76 120.97,237.76" fill="#2196F3" fill-opacity="0.45" stroke="#2196F3" stroke-width="0.8"/>
<text x="172.3" y="141.5" fill="#fff" font-size="9" text-anchor="middle" dominant-baseline="middle" font-family="Segoe UI, sans-serif" paint-order="stroke" stroke="#000" stroke-width="2" pointer-events="none">SLAB-024</text>
<polygon class="slab-poly" data-slab-id="SLAB-025" points="45.28,237.76 45.28,219.28 61.73,219.28 61.73,237.76 45.28,237.76" fill="#2196F3" fill-opacity="0.45" stroke="#2196F3" stroke-width="0.8"/>
<polygon class="slab-poly" data-slab-id="SLAB-026" points="45.28,351.73 45.28,333.25 61.73,333.25 61.73,351.73 45.28,351.73" fill="#2196F3" fill-opacity="0.45" stroke="#2196F3" stroke-width="0.8"/>
<polygon class="slab-poly" data-slab-id="SLAB-027" points="739.99,336.22 739.99,234.79 890.52,234.79 890.52,336.22 739.99,336.22" fill="#2196F3" fill-opacity="0.45" stroke="#2196F3" stroke-width="0.8"/>
<text x="815.3" y="285.5" fill="#fff" font-size="9" text-anchor="middle" dominant-baseline="middle" font-family="Segoe UI, sans-serif" paint-order="stroke" stroke="#000" stroke-width="2" pointer-events="none">SLAB-027</text>
<polygon class="slab-poly" data-slab-id="SLAB-028" points="986.79,336.22 986.79,234.79 1013.98,234.79 1013.98,336.22 986.79,336.22" fill="#2196F3" fill-opacity="0.45" stroke="#2196F3" stroke-width="0.8"/>
<polygon class="slab-poly" data-slab-id="SLAB-029" points="107.48,237.76 107.48,219.28 123.94,219.28 123.94,237.76 107.48,237.76" fill="#2196F3" fill-opacity="0.45" stroke="#2196F3" stroke-width="0.8"/>
<polygon class="slab-poly" data-slab-id="SLAB-030" points="58.76,237.76 58.76,219.28 110.45,219.28 110.45,237.76 58.76,237.76" fill="#2196F3" fill-opacity="0.45" stroke="#2196F3" stroke-width="0.8"/>
<polygon class="slab-poly" data-slab-id="SLAB-031" points="311.01,222.24 311.01,57.42 383.15,57.42 383.15,222.24 311.01,222.24" fill="#2196F3" fill-opacity="0.45" stroke="#2196F3" stroke-width="0.8"/>
<text x="347.1" y="139.8" fill="#fff" font-size="9" text-anchor="middle" dominant-baseline="middle" font-family="Segoe UI, sans-serif" paint-order="stroke" stroke="#000" stroke-width="2" pointer-events="none">SLAB-031</text>
<polygon class="slab-poly" data-slab-id="SLAB-032" points="638.84,60.39 638.84,45.28 663.39,45.28 663.39,60.39 638.84,60.39" fill="#2196F3" fill-opacity="0.45" stroke="#2196F3" stroke-width="0.8"/>
<polygon class="slab-poly" data-slab-id="SLAB-033" points="727.85,333.25 742.96,333.25 742.96,499.60 727.85,450.80 727.85,333.25" fill="#2196F3" fill-opacity="0.45" stroke="#2196F3" stroke-width="0.8"/>
<polygon class="slab-poly" data-slab-id="SLAB-034" points="739.99,333.25 890.52,333.25 890.52,529.77 739.99,529.77 739.99,519.40 740.34,519.52 740.86,519.65 741.38,519.72 741.91,519.75 742.44,519.72 742.96,519.64 743.47,519.51 743.97,519.32 744.45,519.10 744.90,518.82 745.32,518.50 745.71,518.14 746.07,517.75 746.38,517.32 746.65,516.87 746.87,516.39 747.05,515.89 747.18,515.37 747.25,514.85 747.27,514.32 747.24,513.79 747.16,513.27 747.03,512.76 739.99,490.01 739.99,333.25" fill="#2196F3" fill-opacity="0.45" stroke="#2196F3" stroke-width="0.8"/>
<text x="815.6" y="431.2" fill="#fff" font-size="9" text-anchor="middle" dominant-baseline="middle" font-family="Segoe UI, sans-serif" paint-order="stroke" stroke="#000" stroke-width="2" pointer-events="none">SLAB-034</text>
<polygon class="slab-poly" data-slab-id="SLAB-035" points="986.79,526.80 986.79,517.63 986.79,514.66 986.79,333.25 1013.98,333.25 1013.98,514.66 1013.98,517.63 1013.98,526.80 1013.98,529.77 1013.98,593.16 986.79,593.16 986.79,529.77 986.79,526.80" fill="#2196F3" fill-opacity="0.45" stroke="#2196F3" stroke-width="0.8"/>
<text x="1000.4" y="463.2" fill="#fff" font-size="9" text-anchor="middle" dominant-baseline="middle" font-family="Segoe UI, sans-serif" paint-order="stroke" stroke="#000" stroke-width="2" pointer-events="none">SLAB-035</text>
<polygon class="slab-poly" data-slab-id="SLAB-036" points="919.36,529.77 919.36,333.25 989.76,333.25 989.76,529.77 919.36,529.77" fill="#2196F3" fill-opacity="0.45" stroke="#2196F3" stroke-width="0.8"/>
<text x="954.6" y="431.5" fill="#fff" font-size="9" text-anchor="middle" dominant-baseline="middle" font-family="Segoe UI, sans-serif" paint-order="stroke" stroke="#000" stroke-width="2" pointer-events="none">SLAB-036</text>
<polygon class="slab-poly" data-slab-id="SLAB-037" points="1011.02,517.63 1011.02,348.76 1193.24,348.76 1193.24,517.63 1011.02,517.63" fill="#2196F3" fill-opacity="0.45" stroke="#2196F3" stroke-width="0.8"/>
<text x="1102.1" y="433.2" fill="#fff" font-size="9" text-anchor="middle" dominant-baseline="middle" font-family="Segoe UI, sans-serif" paint-order="stroke" stroke="#000" stroke-width="2" pointer-events="none">SLAB-037</text>
<polygon class="slab-poly" data-slab-id="SLAB-038" points="1190.27,529.77 1190.27,348.76 1206.72,348.76 1206.72,529.77 1190.27,529.77" fill="#2196F3" fill-opacity="0.45" stroke="#2196F3" stroke-width="0.8"/>
<polygon class="slab-poly" data-slab-id="SLAB-039" points="1389.77,336.22 1389.77,529.77 1336.21,529.77 1336.21,336.22 1240.65,336.22 1240.58,336.04 1240.36,335.56 1240.08,335.11 1239.77,334.68 1239.41,334.29 1239.02,333.94 1238.60,333.62 1238.14,333.35 1237.66,333.12 1237.17,332.94 1236.65,332.81 1236.13,332.74 1235.60,332.71 1210.43,332.71 1210.42,325.34 1210.39,324.81 1210.31,324.29 1210.18,323.78 1210.00,323.28 1209.77,322.80 1209.50,322.35 1209.19,321.92 1208.83,321.53 1208.44,321.18 1208.01,320.86 1207.56,320.59 1207.08,320.36 1206.58,320.19 1206.06,320.06 1205.54,319.98 1205.01,319.96 1204.48,319.98 1203.96,320.06 1203.45,320.19 1202.95,320.37 1202.47,320.60 1202.02,320.87 1201.59,321.19 1201.20,321.55 1200.85,321.94 1200.53,322.36 1200.26,322.82 1200.03,323.30 1199.86,323.80 1199.73,324.31 1199.65,324.83 1199.63,325.36 1199.65,336.22 1196.95,336.22 1196.92,319.55 1196.89,319.02 1196.81,318.49 1196.68,317.98 1196.50,317.48 1196.28,317.00 1196.00,316.55 1195.69,316.13 1195.33,315.73 1194.94,315.38 1194.51,315.06 1194.06,314.79 1193.58,314.57 1193.08,314.39 1192.57,314.26 1192.04,314.19 1191.51,314.16 1190.98,314.19 1190.46,314.27 1190.27,314.32 1190.27,234.79 1203.76,234.79 1206.72,234.79 1336.21,234.79 1336.21,45.28 1389.77,45.28 1389.77,234.79 1389.77,237.76 1389.77,333.25 1389.77,336.22" fill="#2196F3" fill-opacity="0.45" stroke="#2196F3" stroke-width="0.8"/>
<text x="1328.0" y="286.4" fill="#fff" font-size="9" text-anchor="middle" dominant-baseline="middle" font-family="Segoe UI, sans-serif" paint-order="stroke" stroke="#000" stroke-width="2" pointer-events="none">SLAB-039</text>
<polygon class="slab-poly" data-slab-id="SLAB-040" points="1339.17,333.25 1339.17,529.77 1203.76,529.77 1203.76,343.34 1204.00,343.40 1204.00,343.40 1204.01,343.40 1204.26,343.44 1204.52,343.47 1204.52,343.48 1204.53,343.48 1204.79,343.49 1205.05,343.50 1235.60,343.50 1236.13,343.47 1236.65,343.40 1237.17,343.27 1237.66,343.09 1238.14,342.86 1238.60,342.59 1239.02,342.28 1239.41,341.92 1239.77,341.53 1240.08,341.10 1240.36,340.65 1240.58,340.17 1240.76,339.67 1240.89,339.16 1240.97,338.63 1240.99,338.11 1240.97,337.58 1240.89,337.05 1240.76,336.54 1240.58,336.04 1240.36,335.56 1240.08,335.11 1239.77,334.68 1239.41,334.29 1239.02,333.94 1238.60,333.62 1238.14,333.35 1237.94,333.25 1339.17,333.25" fill="#2196F3" fill-opacity="0.45" stroke="#2196F3" stroke-width="0.8"/>
<text x="1272.2" y="432.8" fill="#fff" font-size="9" text-anchor="middle" dominant-baseline="middle" font-family="Segoe UI, sans-serif" paint-order="stroke" stroke="#000" stroke-width="2" pointer-events="none">SLAB-040</text>
<polygon class="slab-poly" data-slab-id="SLAB-041" points="1386.81,336.22 1386.81,237.76 1386.81,234.79 1386.81,45.28 1526.25,45.28 1529.21,45.28 1544.72,45.28 1544.72,219.28 1544.72,222.24 1544.72,234.79 1544.72,237.76 1544.72,333.25 1544.72,336.22 1544.72,351.73 1526.25,351.73 1526.25,336.22 1386.81,336.22" fill="#2196F3" fill-opacity="0.45" stroke="#2196F3" stroke-width="0.8"/>
<text x="1466.2" y="191.7" fill="#fff" font-size="9" text-anchor="middle" dominant-baseline="middle" font-family="Segoe UI, sans-serif" paint-order="stroke" stroke="#000" stroke-width="2" pointer-events="none">SLAB-041</text>
<polygon class="slab-poly" data-slab-id="SLAB-042" points="1386.81,529.77 1386.81,333.25 1529.21,333.25 1529.21,529.77 1386.81,529.77" fill="#2196F3" fill-opacity="0.45" stroke="#2196F3" stroke-width="0.8"/>
<text x="1458.0" y="431.5" fill="#fff" font-size="9" text-anchor="middle" dominant-baseline="middle" font-family="Segoe UI, sans-serif" paint-order="stroke" stroke="#000" stroke-width="2" pointer-events="none">SLAB-042</text>
<polygon class="slab-poly" data-slab-id="SLAB-043" points="1526.25,593.16 1526.25,526.80 1544.72,526.80 1544.72,593.16 1526.25,593.16" fill="#2196F3" fill-opacity="0.45" stroke="#2196F3" stroke-width="0.8"/>
<polygon class="slab-poly" data-slab-id="SLAB-044" points="1526.25,529.77 1526.25,348.76 1544.72,348.76 1544.72,529.77 1526.25,529.77" fill="#2196F3" fill-opacity="0.45" stroke="#2196F3" stroke-width="0.8"/>
<polygon class="slab-poly" data-slab-id="SLAB-045" points="689.31,219.28 727.85,219.28 727.85,45.28 742.96,45.28 742.96,237.76 730.82,237.76 727.85,237.76 689.31,237.76 689.31,219.28" fill="#2196F3" fill-opacity="0.45" stroke="#2196F3" stroke-width="0.8"/>
<polygon class="slab-poly" data-slab-id="SLAB-046" points="739.99,237.76 739.99,45.28 890.52,45.28 890.52,237.76 739.99,237.76" fill="#2196F3" fill-opacity="0.45" stroke="#2196F3" stroke-width="0.8"/>
<text x="815.3" y="141.5" fill="#fff" font-size="9" text-anchor="middle" dominant-baseline="middle" font-family="Segoe UI, sans-serif" paint-order="stroke" stroke="#000" stroke-width="2" pointer-events="none">SLAB-046</text>
<polygon class="slab-poly" data-slab-id="SLAB-047" points="58.76,526.80 58.76,514.66 107.48,514.66 107.48,348.76 123.94,348.76 123.94,529.77 110.45,529.77 110.45,593.16 61.73,593.16 58.76,593.16 45.28,593.16 45.28,526.80 58.76,526.80" fill="#2196F3" fill-opacity="0.45" stroke="#2196F3" stroke-width="0.8"/>
<polygon class="slab-poly" data-slab-id="SLAB-048" points="45.28,529.77 45.28,348.76 110.45,348.76 110.45,529.77 45.28,529.77" fill="#2196F3" fill-opacity="0.45" stroke="#2196F3" stroke-width="0.8"/>
<text x="77.9" y="439.3" fill="#fff" font-size="9" text-anchor="middle" dominant-baseline="middle" font-family="Segoe UI, sans-serif" paint-order="stroke" stroke="#000" stroke-width="2" pointer-events="none">SLAB-048</text>
<polygon class="slab-poly" data-slab-id="SLAB-049" points="585.17,888.28 588.14,888.28 638.84,888.28 641.81,888.28 677.17,888.28 680.14,888.28 727.85,888.28 730.82,888.28 739.99,888.28 742.96,888.28 887.56,888.28 890.52,888.28 919.36,888.28 922.33,888.28 986.79,888.28 989.76,888.28 1011.02,888.28 1013.98,888.28 1193.24,888.28 1193.24,1100.99 1013.98,1100.99 1011.02,1100.99 989.76,1100.99 986.79,1100.99 922.33,1100.99 919.36,1100.99 890.52,1100.99 887.56,1100.99 742.96,1100.99 739.99,1100.99 730.82,1100.99 727.85,1100.99 680.14,1100.99 677.17,1100.99 641.81,1100.99 638.84,1100.99 588.14,1100.99 585.17,1100.99 576.00,1100.99 573.04,1100.99 392.32,1100.99 392.32,1056.34 408.63,1056.34 409.16,1056.32 409.69,1056.24 410.20,1056.11 410.70,1055.93 411.18,1055.71 411.63,1055.43 412.06,1055.12 412.45,1054.76 412.80,1054.37 413.12,1053.95 413.39,1053.49 413.62,1053.01 413.80,1052.51 413.93,1052.00 414.00,1051.48 414.03,1050.95 414.00,1050.42 413.93,1049.90 413.80,1049.38 413.62,1048.88 413.39,1048.40 413.12,1047.95 412.80,1047.53 412.45,1047.13 412.06,1046.78 411.63,1046.46 411.18,1046.19 410.70,1045.96 410.20,1045.79 409.69,1045.66 409.16,1045.58 408.63,1045.55 392.32,1045.55 392.32,888.28 573.04,888.28 576.00,888.28 585.17,888.28" fill="#2196F3" fill-opacity="0.45" stroke="#2196F3" stroke-width="0.8"/>
<text x="793.0" y="994.4" fill="#fff" font-size="9" text-anchor="middle" dominant-baseline="middle" font-family="Segoe UI, sans-serif" paint-order="stroke" stroke="#000" stroke-width="2" pointer-events="none">SLAB-049</text>
<polygon class="slab-poly" data-slab-id="SLAB-050" points="660.42,810.05 660.42,796.03 660.46,796.01 660.94,795.79 661.40,795.52 661.82,795.20 662.21,794.85 662.57,794.45 662.89,794.03 663.16,793.57 663.38,793.10 663.56,792.60 663.69,792.08 663.77,791.56 663.79,791.03 663.77,790.50 663.69,789.98 663.56,789.46 663.38,788.97 663.16,788.49 662.89,788.03 662.57,787.61 662.21,787.22 661.96,786.98 662.21,786.75 662.57,786.36 662.89,785.94 663.16,785.48 663.38,785.00 663.56,784.50 663.69,783.99 663.77,783.47 663.79,782.94 663.77,782.41 663.69,781.89 663.56,781.37 663.38,780.87 663.16,780.39 662.89,779.94 662.57,779.51 662.21,779.12 661.82,778.77 661.40,778.45 660.94,778.18 660.46,777.95 660.42,777.94 660.42,776.33 677.17,776.33 680.14,776.33 689.31,776.33 692.27,776.33 727.85,776.33 730.82,776.33 739.99,776.33 742.96,776.33 887.56,776.33 890.52,776.33 903.46,776.33 906.43,776.33 922.33,776.33 989.76,776.33 989.76,777.94 989.72,777.95 989.24,778.18 988.79,778.45 988.36,778.77 987.97,779.12 987.61,779.51 987.30,779.94 987.02,780.39 986.80,780.87 986.62,781.37 986.49,781.89 986.41,782.41 986.39,782.94 986.41,783.47 986.49,783.99 986.62,784.50 986.80,785.00 987.02,785.48 987.30,785.94 987.61,786.36 987.97,786.75 988.22,786.98 987.97,787.22 987.61,787.61 987.30,788.03 987.02,788.49 986.80,788.97 986.62,789.46 986.49,789.98 986.41,790.50 986.39,791.03 986.41,791.56 986.49,792.08 986.62,792.60 986.80,793.10 987.02,793.57 987.30,794.03 987.61,794.45 987.97,794.85 988.36,795.20 988.79,795.52 989.24,795.79 989.72,796.01 989.76,796.03 989.76,810.05 996.37,810.05 996.37,815.58 996.39,816.11 996.47,816.63 996.60,817.14 996.78,817.64 997.00,818.12 997.28,818.58 997.59,819.00 997.95,819.39 998.34,819.75 998.77,820.06 999.22,820.34 999.70,820.56 1000.20,820.74 1000.71,820.87 1001.23,820.95 1001.76,820.97 1002.29,820.95 1002.81,820.87 1003.33,820.74 1003.83,820.56 1004.31,820.34 1004.76,820.06 1005.18,819.75 1005.58,819.39 1005.93,819.00 1006.25,818.58 1006.52,818.12 1006.75,817.64 1006.92,817.14 1007.05,816.63 1007.13,816.11 1007.16,815.58 1007.16,810.05 1013.98,810.05 1013.98,822.19 1013.98,825.15 1013.98,876.14 1013.98,879.11 1013.98,891.25 989.76,891.25 986.79,891.25 922.33,891.25 890.52,891.25 887.56,891.25 742.96,891.25 739.99,891.25 730.82,891.25 727.85,891.25 689.31,891.25 680.14,891.25 663.39,891.25 660.42,891.25 638.84,891.25 638.84,876.14 660.42,876.14 660.42,813.02 660.42,810.05" fill="#2196F3" fill-opacity="0.45" stroke="#2196F3" stroke-width="0.8"/>
<text x="832.3" y="836.7" fill="#fff" font-size="9" text-anchor="middle" dominant-baseline="middle" font-family="Segoe UI, sans-serif" paint-order="stroke" stroke="#000" stroke-width="2" pointer-events="none">SLAB-050</text>
<polygon class="slab-poly" data-slab-id="SLAB-051" points="662.37,779.30 662.21,779.12 661.82,778.77 661.40,778.45 660.94,778.18 660.46,777.95 660.42,777.94 660.42,762.84 660.42,717.12 688.88,717.12 689.41,717.09 689.93,717.01 690.44,716.88 690.94,716.71 691.42,716.48 691.88,716.21 692.30,715.89 692.69,715.54 693.05,715.14 693.36,714.72 693.64,714.26 693.86,713.79 694.04,713.29 694.17,712.77 694.25,712.25 694.27,711.72 694.25,711.19 694.17,710.67 694.04,710.16 693.86,709.66 693.64,709.18 693.36,708.72 693.05,708.30 692.69,707.91 692.30,707.55 691.88,707.24 691.42,706.96 690.94,706.74 690.44,706.56 689.93,706.43 689.41,706.35 688.88,706.33 689.41,706.30 689.93,706.22 690.44,706.09 690.94,705.92 691.42,705.69 691.88,705.42 692.30,705.10 692.69,704.75 693.05,704.35 693.36,703.93 693.64,703.47 693.86,703.00 694.04,702.50 694.17,701.98 694.25,701.46 694.27,700.93 694.25,700.40 694.17,699.88 694.04,699.36 693.86,698.87 693.64,698.39 693.36,697.93 693.05,697.51 692.69,697.12 692.30,696.76 691.88,696.45 691.42,696.17 690.94,695.95 690.44,695.77 689.93,695.64 689.41,695.56 688.88,695.54 660.42,695.54 660.42,590.19 727.85,590.19 730.82,590.19 739.99,590.19 742.96,590.19 890.52,590.19 890.52,618.52 919.36,618.52 919.36,590.19 989.76,590.19 989.76,695.54 961.30,695.54 960.77,695.56 960.25,695.64 959.74,695.77 959.24,695.95 958.76,696.17 958.31,696.45 957.88,696.76 957.49,697.12 957.13,697.51 956.82,697.93 956.55,698.39 956.32,698.87 956.14,699.36 956.01,699.88 955.93,700.40 955.91,700.93 955.93,701.46 956.01,701.98 956.14,702.50 956.32,703.00 956.55,703.47 956.82,703.93 957.13,704.35 957.49,704.75 957.88,705.10 958.31,705.42 958.76,705.69 959.24,705.92 959.74,706.09 960.25,706.22 960.77,706.30 961.30,706.33 960.77,706.35 960.25,706.43 959.74,706.56 959.24,706.74 958.76,706.96 958.31,707.24 957.88,707.55 957.49,707.91 957.13,708.30 956.82,708.72 956.55,709.18 956.32,709.66 956.14,710.16 956.01,710.67 955.93,711.19 955.91,711.72 955.93,712.25 956.01,712.77 956.14,713.29 956.32,713.79 956.55,714.26 956.82,714.72 957.13,715.14 957.49,715.54 957.88,715.89 958.31,716.21 958.76,716.48 959.24,716.71 959.74,716.88 960.25,717.01 960.77,717.09 961.30,717.12 989.76,717.12 989.76,777.94 989.72,777.95 989.24,778.18 988.79,778.45 988.36,778.77 987.97,779.12 987.81,779.30 922.33,779.30 919.36,779.30 906.43,779.30 903.46,779.30 890.52,779.30 887.56,779.30 742.96,779.30 739.99,779.30 730.82,779.30 727.85,779.30 689.31,779.30 680.14,779.30 662.37,779.30" fill="#2196F3" fill-opacity="0.45" stroke="#2196F3" stroke-width="0.8"/>
<text x="824.0" y="685.3" fill="#fff" font-size="9" text-anchor="middle" dominant-baseline="middle" font-family="Segoe UI, sans-serif" paint-order="stroke" stroke="#000" stroke-width="2" pointer-events="none">SLAB-051</text>
<polygon class="slab-poly" data-slab-id="SLAB-052" points="1336.21,888.28 1339.17,888.28 1386.81,888.28 1386.81,776.33 1526.25,776.33 1529.21,776.33 1544.72,776.33 1544.72,810.05 1544.72,813.02 1544.72,891.25 1529.21,891.25 1529.21,901.93 1527.73,901.93 1527.73,988.26 1529.21,988.26 1529.21,1100.99 1389.77,1100.99 1386.81,1100.99 1339.17,1100.99 1336.21,1100.99 1203.76,1100.99 1203.76,888.28 1336.21,888.28" fill="#2196F3" fill-opacity="0.45" stroke="#2196F3" stroke-width="0.8"/>
<text x="1386.6" y="960.8" fill="#fff" font-size="9" text-anchor="middle" dominant-baseline="middle" font-family="Segoe UI, sans-serif" paint-order="stroke" stroke="#000" stroke-width="2" pointer-events="none">SLAB-052</text>
<polygon class="slab-poly" data-slab-id="SLAB-053" points="120.97,333.25 120.97,234.79 220.66,234.79 223.62,234.79 237.78,234.79 237.78,336.22 223.62,336.22 220.66,336.22 123.94,336.22 123.94,351.73 110.45,351.73 107.48,351.73 58.76,351.73 58.76,336.22 58.76,333.25 58.76,234.79 110.45,234.79 110.45,333.25 120.97,333.25" fill="#2196F3" fill-opacity="0.45" stroke="#2196F3" stroke-width="0.8"/>
<text x="146.5" y="288.6" fill="#fff" font-size="9" text-anchor="middle" dominant-baseline="middle" font-family="Segoe UI, sans-serif" paint-order="stroke" stroke="#000" stroke-width="2" pointer-events="none">SLAB-053</text>
<polygon class="slab-poly" data-slab-id="SLAB-054" points="107.48,336.22 107.48,234.79 123.94,234.79 123.94,336.22 107.48,336.22" fill="#2196F3" fill-opacity="0.45" stroke="#2196F3" stroke-width="0.8"/>
<polygon class="slab-poly" data-slab-id="SLAB-055" points="220.66,891.25 120.97,891.25 120.97,813.02 110.45,813.02 107.48,813.02 58.76,813.02 58.76,779.30 45.28,779.30 45.28,590.19 58.76,590.19 107.48,590.19 107.48,526.80 120.97,526.80 123.94,526.80 138.04,526.80 137.93,527.23 137.85,527.76 137.83,528.29 137.85,528.81 137.93,529.34 138.06,529.85 138.24,530.35 138.46,530.83 138.74,531.28 139.05,531.71 139.41,532.10 139.80,532.46 140.22,532.77 140.68,533.04 141.16,533.27 141.66,533.45 142.17,533.58 142.69,533.65 143.22,533.68 157.50,533.68 158.03,533.65 158.56,533.58 159.07,533.45 159.57,533.27 160.05,533.04 160.50,532.77 160.93,532.46 161.32,532.10 161.67,531.71 161.99,531.28 162.26,530.83 162.49,530.35 162.67,529.85 162.80,529.34 162.87,528.81 162.90,528.29 162.87,527.76 162.80,527.23 162.69,526.80 220.66,526.80 223.62,526.80 264.19,526.80 264.19,590.19 264.19,593.16 264.19,604.36 264.19,607.32 264.19,621.49 237.78,621.49 237.78,762.84 264.19,762.84 264.19,776.33 264.19,779.30 264.19,810.05 264.19,813.02 264.19,825.15 264.19,891.25 223.62,891.25 220.66,891.25" fill="#FF9800" fill-opacity="0.45" stroke="#FF9800" stroke-width="0.8"/>
<text x="161.2" y="705.9" fill="#fff" font-size="9" text-anchor="middle" dominant-baseline="middle" font-family="Segoe UI, sans-serif" paint-order="stroke" stroke="#000" stroke-width="2" pointer-events="none">SLAB-055</text>
<polygon class="slab-poly" data-slab-id="SLAB-056" points="380.18,891.25 261.23,891.25 261.23,779.30 234.82,779.30 234.82,590.19 261.23,590.19 261.23,526.80 380.18,526.80 383.15,526.80 395.29,526.80 395.29,590.19 395.29,593.16 395.29,776.33 395.29,779.30 395.29,810.05 395.29,813.02 395.29,891.25 383.15,891.25 380.18,891.25" fill="#FF9800" fill-opacity="0.45" stroke="#FF9800" stroke-width="0.8"/>
<text x="319.9" y="705.2" fill="#fff" font-size="9" text-anchor="middle" dominant-baseline="middle" font-family="Segoe UI, sans-serif" paint-order="stroke" stroke="#000" stroke-width="2" pointer-events="none">SLAB-056</text>
<polygon class="slab-poly" data-slab-id="SLAB-057" points="585.17,891.25 576.00,891.25 573.04,891.25 392.32,891.25 392.32,765.81 392.32,762.84 392.32,607.32 392.32,604.36 392.32,514.66 576.00,514.66 576.00,526.80 585.17,526.80 588.14,526.80 663.39,526.80 663.39,590.19 680.14,590.19 680.14,604.36 680.14,607.32 680.14,621.49 663.39,621.49 663.39,695.54 648.42,695.54 647.89,695.56 647.37,695.64 646.85,695.77 646.36,695.95 645.88,696.17 645.42,696.45 645.00,696.76 644.61,697.12 644.25,697.51 643.93,697.93 643.66,698.39 643.44,698.87 643.26,699.36 643.13,699.88 643.05,700.40 643.03,700.93 643.05,701.46 643.13,701.98 643.26,702.50 643.44,703.00 643.66,703.47 643.93,703.93 644.25,704.35 644.61,704.75 645.00,705.10 645.42,705.42 645.88,705.69 646.36,705.92 646.85,706.09 647.37,706.22 647.89,706.30 648.42,706.33 647.89,706.35 647.37,706.43 646.85,706.56 646.36,706.74 645.88,706.96 645.42,707.24 645.00,707.55 644.61,707.91 644.25,708.30 643.93,708.72 643.66,709.18 643.44,709.66 643.26,710.16 643.13,710.67 643.05,711.19 643.03,711.72 643.05,712.25 643.13,712.77 643.26,713.29 643.44,713.79 643.66,714.26 643.93,714.72 644.25,715.14 644.61,715.54 645.00,715.89 645.42,716.21 645.88,716.48 646.36,716.71 646.85,716.88 647.37,717.01 647.89,717.09 648.42,717.12 663.39,717.12 663.39,779.30 662.37,779.30 662.21,779.12 661.82,778.77 661.40,778.45 660.94,778.18 660.46,777.95 659.97,777.77 659.45,777.65 658.93,777.57 658.40,777.54 653.81,777.54 653.81,746.52 653.79,745.99 653.71,745.47 653.58,744.95 653.40,744.46 653.18,743.98 652.91,743.52 652.59,743.10 652.23,742.71 651.84,742.35 651.42,742.03 650.96,741.76 650.48,741.54 649.99,741.36 649.47,741.23 648.95,741.15 648.42,741.13 647.89,741.15 647.37,741.23 646.85,741.36 646.36,741.54 645.88,741.76 645.42,742.03 645.00,742.35 644.61,742.71 644.25,743.10 643.93,743.52 643.66,743.98 643.44,744.46 643.26,744.95 643.13,745.47 643.05,745.99 643.03,746.52 643.03,776.33 643.03,779.30 643.03,782.94 643.05,783.47 643.13,783.99 643.26,784.50 643.44,785.00 643.66,785.48 643.93,785.94 644.25,786.36 644.61,786.75 644.86,786.98 644.61,787.22 644.25,787.61 643.93,788.03 643.66,788.49 643.44,788.97 643.26,789.46 643.13,789.98 643.05,790.50 643.03,791.03 643.03,815.58 643.05,816.11 643.13,816.63 643.26,817.14 643.44,817.64 643.66,818.12 643.93,818.58 644.25,819.00 644.61,819.39 645.00,819.75 645.42,820.06 645.88,820.34 646.36,820.56 646.85,820.74 647.37,820.87 647.89,820.95 648.42,820.97 648.95,820.95 649.47,820.87 649.99,820.74 650.48,820.56 650.96,820.34 651.42,820.06 651.84,819.75 652.23,819.39 652.59,819.00 652.91,818.58 653.18,818.12 653.40,817.64 653.58,817.14 653.71,816.63 653.79,816.11 653.81,815.58 653.81,796.43 658.40,796.43 658.93,796.40 659.45,796.32 659.97,796.19 660.46,796.01 660.94,795.79 661.40,795.52 661.82,795.20 662.21,794.85 662.57,794.45 662.89,794.03 663.16,793.57 663.38,793.10 663.39,793.08 663.39,891.25 588.14,891.25 585.17,891.25" fill="#FF9800" fill-opacity="0.45" stroke="#FF9800" stroke-width="0.8"/>
<text x="525.7" y="703.2" fill="#fff" font-size="9" text-anchor="middle" dominant-baseline="middle" font-family="Segoe UI, sans-serif" paint-order="stroke" stroke="#000" stroke-width="2" pointer-events="none">SLAB-057</text>
<polygon class="slab-poly" data-slab-id="SLAB-058" points="1544.72,779.30 1529.21,779.30 1526.25,779.30 1386.81,779.30 1386.81,593.16 1386.81,590.19 1386.81,526.80 1529.21,526.80 1529.21,590.19 1544.72,590.19 1544.72,604.36 1544.72,607.32 1544.72,618.52 1544.72,621.49 1544.72,762.84 1544.72,765.81 1544.72,779.30" fill="#FF9800" fill-opacity="0.45" stroke="#FF9800" stroke-width="0.8"/>
<text x="1464.0" y="655.4" fill="#fff" font-size="9" text-anchor="middle" dominant-baseline="middle" font-family="Segoe UI, sans-serif" paint-order="stroke" stroke="#000" stroke-width="2" pointer-events="none">SLAB-058</text>
<polygon class="slab-poly" data-slab-id="SLAB-059" points="1190.27,813.02 1190.27,810.05 1190.27,779.30 1190.27,776.33 1190.27,590.19 1203.76,590.19 1203.76,526.80 1336.21,526.80 1339.17,526.80 1389.77,526.80 1389.77,590.19 1389.77,593.16 1389.77,776.33 1389.77,779.30 1389.77,891.25 1339.17,891.25 1336.21,891.25 1206.72,891.25 1206.72,1100.99 1190.27,1100.99 1190.27,891.25 1190.27,888.28 1190.27,813.02" fill="#FF9800" fill-opacity="0.45" stroke="#FF9800" stroke-width="0.8"/>
<text x="1287.0" y="723.0" fill="#fff" font-size="9" text-anchor="middle" dominant-baseline="middle" font-family="Segoe UI, sans-serif" paint-order="stroke" stroke="#000" stroke-width="2" pointer-events="none">SLAB-059</text>
<polygon class="slab-poly" data-slab-id="SLAB-060" points="1007.16,765.81 1007.16,746.52 1007.13,745.99 1007.05,745.47 1006.92,744.95 1006.75,744.46 1006.52,743.98 1006.25,743.52 1005.93,743.10 1005.58,742.71 1005.18,742.35 1004.76,742.03 1004.31,741.76 1003.83,741.54 1003.33,741.36 1002.81,741.23 1002.29,741.15 1001.76,741.13 1001.23,741.15 1000.71,741.23 1000.20,741.36 999.70,741.54 999.22,741.76 998.77,742.03 998.34,742.35 997.95,742.71 997.59,743.10 997.28,743.52 997.00,743.98 996.78,744.46 996.60,744.95 996.47,745.47 996.39,745.99 996.37,746.52 996.37,765.81 986.79,765.81 986.79,717.12 1001.76,717.12 1002.29,717.09 1002.81,717.01 1003.33,716.88 1003.83,716.71 1004.31,716.48 1004.76,716.21 1005.18,715.89 1005.58,715.54 1005.93,715.14 1006.25,714.72 1006.52,714.26 1006.75,713.79 1006.92,713.29 1007.05,712.77 1007.13,712.25 1007.16,711.72 1007.13,711.19 1007.05,710.67 1006.92,710.16 1006.75,709.66 1006.52,709.18 1006.25,708.72 1005.93,708.30 1005.58,707.91 1005.18,707.55 1004.76,707.24 1004.31,706.96 1003.83,706.74 1003.33,706.56 1002.81,706.43 1002.29,706.35 1001.76,706.33 1002.29,706.30 1002.81,706.22 1003.33,706.09 1003.83,705.92 1004.31,705.69 1004.76,705.42 1005.18,705.10 1005.58,704.75 1005.93,704.35 1006.25,703.93 1006.52,703.47 1006.75,703.00 1006.92,702.50 1007.05,701.98 1007.13,701.46 1007.16,700.93 1007.13,700.40 1007.05,699.88 1006.92,699.36 1006.75,698.87 1006.52,698.39 1006.25,697.93 1005.93,697.51 1005.58,697.12 1005.18,696.76 1004.76,696.45 1004.31,696.17 1003.83,695.95 1003.33,695.77 1002.81,695.64 1002.29,695.56 1001.76,695.54 986.79,695.54 986.79,621.49 986.79,618.52 986.79,607.32 986.79,604.36 986.79,590.19 1011.02,590.19 1011.02,514.66 1193.24,514.66 1193.24,526.80 1206.72,526.80 1206.72,593.16 1193.24,593.16 1193.24,604.36 1193.24,607.32 1193.24,762.84 1193.24,765.81 1193.24,891.25 1011.02,891.25 1011.02,765.81 1007.16,765.81" fill="#FF9800" fill-opacity="0.45" stroke="#FF9800" stroke-width="0.8"/>
<text x="1098.3" y="699.1" fill="#fff" font-size="9" text-anchor="middle" dominant-baseline="middle" font-family="Segoe UI, sans-serif" paint-order="stroke" stroke="#000" stroke-width="2" pointer-events="none">SLAB-060</text>
<polygon class="slab-poly" data-slab-id="SLAB-061" points="234.82,333.25 234.82,332.84 234.99,332.56 235.22,332.08 235.39,331.58 235.52,331.07 235.60,330.54 235.63,330.01 235.60,329.48 235.52,328.96 235.39,328.45 235.22,327.95 234.99,327.47 234.82,327.18 234.82,237.76 234.82,234.79 234.82,223.59 234.99,223.30 235.22,222.83 235.39,222.33 235.52,221.81 235.60,221.29 235.63,220.76 235.60,220.23 235.52,219.71 235.41,219.28 264.19,219.28 264.19,234.79 313.98,234.79 313.98,336.22 264.19,336.22 264.19,351.73 234.82,351.73 234.82,336.22 234.82,333.25" fill="#2196F3" fill-opacity="0.45" stroke="#2196F3" stroke-width="0.8"/>
<text x="271.9" y="285.5" fill="#fff" font-size="9" text-anchor="middle" dominant-baseline="middle" font-family="Segoe UI, sans-serif" paint-order="stroke" stroke="#000" stroke-width="2" pointer-events="none">SLAB-061</text>
<polygon class="slab-poly" data-slab-id="SLAB-062" points="311.01,336.22 311.01,234.79 383.15,234.79 383.15,336.22 311.01,336.22" fill="#2196F3" fill-opacity="0.45" stroke="#2196F3" stroke-width="0.8"/>
<polygon class="slab-poly" data-slab-id="SLAB-063" points="906.43,237.76 887.56,237.76 887.56,222.24 887.56,219.28 887.56,60.39 887.56,57.42 887.56,45.28 919.36,45.28 922.33,45.28 986.79,45.28 989.76,45.28 1011.02,45.28 1013.98,45.28 1193.24,45.28 1193.24,60.39 1013.98,60.39 1013.98,237.76 989.76,237.76 986.79,237.76 919.36,237.76 919.36,222.24 906.43,222.24 906.43,237.76" fill="#2196F3" fill-opacity="0.45" stroke="#2196F3" stroke-width="0.8"/>
<text x="966.5" y="131.9" fill="#fff" font-size="9" text-anchor="middle" dominant-baseline="middle" font-family="Segoe UI, sans-serif" paint-order="stroke" stroke="#000" stroke-width="2" pointer-events="none">SLAB-063</text>
<polygon class="slab-poly" data-slab-id="SLAB-064" points="903.46,237.76 903.46,219.28 922.33,219.28 922.33,237.76 903.46,237.76" fill="#2196F3" fill-opacity="0.45" stroke="#2196F3" stroke-width="0.8"/>
<polygon class="slab-poly" data-slab-id="SLAB-065" points="660.42,60.39 660.42,45.28 680.14,45.28 680.14,60.39 660.42,60.39" fill="#2196F3" fill-opacity="0.45" stroke="#2196F3" stroke-width="0.8"/>
<polygon class="slab-poly" data-slab-id="SLAB-066" points="573.04,237.76 573.04,45.28 588.14,45.28 588.14,237.76 573.04,237.76" fill="#2196F3" fill-opacity="0.45" stroke="#2196F3" stroke-width="0.8"/>
<polygon class="slab-poly" data-slab-id="SLAB-067" points="660.42,222.24 638.84,222.24 638.84,57.42 660.42,57.42 660.42,45.28 730.82,45.28 730.82,237.76 660.42,237.76 660.42,222.24" fill="#2196F3" fill-opacity="0.45" stroke="#2196F3" stroke-width="0.8"/>
<text x="686.1" y="141.2" fill="#fff" font-size="9" text-anchor="middle" dominant-baseline="middle" font-family="Segoe UI, sans-serif" paint-order="stroke" stroke="#000" stroke-width="2" pointer-events="none">SLAB-067</text>
<polygon class="slab-poly" data-slab-id="SLAB-068" points="585.17,237.76 585.17,45.28 641.81,45.28 641.81,237.76 585.17,237.76" fill="#2196F3" fill-opacity="0.45" stroke="#2196F3" stroke-width="0.8"/>
<text x="613.5" y="141.5" fill="#fff" font-size="9" text-anchor="middle" dominant-baseline="middle" font-family="Segoe UI, sans-serif" paint-order="stroke" stroke="#000" stroke-width="2" pointer-events="none">SLAB-068</text>
<polygon class="slab-poly" data-slab-id="SLAB-069" points="107.48,1554.72 107.48,1505.44 122.59,1505.44 122.59,1554.72 107.48,1554.72" fill="#2196F3" fill-opacity="0.45" stroke="#2196F3" stroke-width="0.8"/>
<polygon class="slab-poly" data-slab-id="SLAB-070" points="122.59,1508.41 107.48,1508.41 107.48,1179.95 113.86,1187.51 114.22,1187.89 114.62,1188.24 115.04,1188.55 115.50,1188.82 115.98,1189.04 116.48,1189.21 117.00,1189.33 117.52,1189.40 118.05,1189.42 118.58,1189.39 119.10,1189.30 119.62,1189.17 120.11,1188.98 120.59,1188.75 121.04,1188.47 121.46,1188.15 121.85,1187.79 122.20,1187.39 122.51,1186.96 122.59,1186.82 122.59,1508.41" fill="#2196F3" fill-opacity="0.45" stroke="#2196F3" stroke-width="0.8"/>
</svg>