<svg xmlns="http://www.w3.org/2000/svg" width="1621" height="1600" viewBox="0 0 1621 1600">
<rect width="100%" height="100%" fill="#121212"/>
<polygon points="110.13,1131.90 110.13,1137.46 -13.57,1137.46 -13.57,1131.90 110.13,1131.90" fill="#FF9800" fill-opacity="0.12" stroke="#FFB74D" stroke-width="0.6"/>
<polygon points="399.48,1088.11 454.79,1088.11 454.79,1093.67 399.48,1093.67 399.48,1088.11" fill="#FF9800" fill-opacity="0.12" stroke="#FFB74D" stroke-width="0.6"/>
<polygon points="402.26,1079.77 420.33,1079.77 420.33,1085.33 402.26,1085.33 402.26,1079.77" fill="#FF9800" fill-opacity="0.12" stroke="#FFB74D" stroke-width="0.6"/>
<polygon points="222.57,1060.36 222.57,1029.01 228.13,1029.01 228.13,1060.36 222.57,1060.36" fill="#FF9800" fill-opacity="0.12" stroke="#FFB74D" stroke-width="0.6"/>
<polygon points="239.25,1060.36 233.69,1060.36 233.69,1029.01 239.25,1029.01 239.25,1060.36" fill="#FF9800" fill-opacity="0.12" stroke="#FFB74D" stroke-width="0.6"/>
<polygon points="51.35,906.31 51.35,1119.39 110.00,1119.39 110.00,1124.95 -13.57,1124.95 -13.57,1119.39 45.79,1119.39 45.79,906.31 39.94,911.25 36.35,906.99 46.78,898.20 48.57,900.32 50.36,898.20 60.79,906.99 57.20,911.25 51.35,906.31" fill="#FF9800" fill-opacity="0.12" stroke="#FFB74D" stroke-width="0.6"/>
<polygon points="328.20,912.22 402.82,912.22 402.82,917.79 328.20,917.79 328.20,912.22" fill="#FF9800" fill-opacity="0.12" stroke="#FFB74D" stroke-width="0.6"/>
<polygon points="269.95,912.22 317.08,912.22 317.08,917.79 269.95,917.79 269.95,912.22" fill="#FF9800" fill-opacity="0.12" stroke="#FFB74D" stroke-width="0.6"/>
<polygon points="328.20,906.66 328.20,903.88 322.64,903.88 322.64,848.27 328.20,848.27 328.20,903.88 328.20,901.10 402.82,901.10 402.82,906.66 328.20,906.66" fill="#FF9800" fill-opacity="0.12" stroke="#FFB74D" stroke-width="0.6"/>
<polygon points="319.86,903.88 317.08,903.88 317.08,906.66 269.95,906.66 269.95,903.88 267.17,903.88 267.17,848.27 272.73,848.27 272.73,901.10 314.30,901.10 314.30,848.27 319.86,848.27 319.86,903.88" fill="#FF9800" fill-opacity="0.12" stroke="#FFB74D" stroke-width="0.6"/>
<polygon points="256.05,848.28 261.61,848.25 261.89,903.87 256.33,903.90 256.05,848.28" fill="#FF9800" fill-opacity="0.12" stroke="#FFB74D" stroke-width="0.6"/>
<polygon points="275.51,798.22 378.35,798.22 378.35,801.00 381.13,801.00 381.13,837.15 375.58,837.15 375.58,803.78 275.51,803.78 275.51,798.22" fill="#FF9800" fill-opacity="0.12" stroke="#FFB74D" stroke-width="0.6"/>
<polygon points="125.41,798.22 261.61,798.22 261.61,803.78 125.41,803.78 125.41,798.22" fill="#FF9800" fill-opacity="0.12" stroke="#FFB74D" stroke-width="0.6"/>
<polygon points="125.41,784.31 261.61,784.31 261.61,789.87 125.41,789.87 125.41,784.31" fill="#FF9800" fill-opacity="0.12" stroke="#FFB74D" stroke-width="0.6"/>
<polygon points="275.51,784.31 457.57,784.31 457.57,789.87 275.51,789.87 275.51,784.31" fill="#FF9800" fill-opacity="0.12" stroke="#FFB74D" stroke-width="0.6"/>
<polygon points="111.51,541.00 111.51,543.78 114.29,543.78 114.29,609.13 108.73,609.13 108.73,546.56 -13.56,546.56 -13.56,541.00 111.51,541.00" fill="#FF9800" fill-opacity="0.12" stroke="#FFB74D" stroke-width="0.6"/>
<polygon points="122.63,609.13 122.63,543.78 125.41,543.78 125.41,541.00 261.61,541.00 261.61,546.56 161.53,546.56 161.53,546.56 146.81,546.56 146.81,546.56 128.19,546.56 128.19,609.13 122.63,609.13" fill="#FF9800" fill-opacity="0.12" stroke="#FFB74D" stroke-width="0.6"/>
<polygon points="275.51,541.00 457.57,541.00 457.57,546.56 275.51,546.56 275.51,541.00" fill="#FF9800" fill-opacity="0.12" stroke="#FFB74D" stroke-width="0.6"/>
<polygon points="271.16,529.40 238.15,360.76 240.89,360.22 240.89,357.47 442.15,357.47 442.15,360.25 444.91,360.00 460.37,531.64 457.57,531.89 457.57,534.05 275.51,534.05 275.51,528.55 271.16,529.40" fill="#FF9800" fill-opacity="0.12" stroke="#FFB74D" stroke-width="0.6"/>
<polygon points="125.41,357.47 228.14,357.47 228.14,360.25 230.87,359.72 264.34,530.73 261.61,531.27 261.61,534.05 125.41,534.05 125.41,531.27 122.63,531.27 122.63,360.25 125.41,360.25 125.41,357.47" fill="#FF9800" fill-opacity="0.12" stroke="#FFB74D" stroke-width="0.6"/>
<polygon points="114.29,531.27 111.51,531.27 111.51,534.05 -13.56,534.05 -13.56,528.49 108.73,528.49 108.73,363.03 -87.28,363.03 -87.28,357.47 111.51,357.47 111.51,360.25 114.29,360.25 114.29,531.27" fill="#FF9800" fill-opacity="0.12" stroke="#FFB74D" stroke-width="0.6"/>
<polygon points="444.94,350.52 236.48,350.52 236.48,344.96 444.94,344.96 444.94,350.52" fill="#FF9800" fill-opacity="0.12" stroke="#FFB74D" stroke-width="0.6"/>
<polygon points="239.26,268.49 239.26,318.54 233.70,318.54 233.70,268.49 239.26,268.49" fill="#FF9800" fill-opacity="0.12" stroke="#FFB74D" stroke-width="0.6"/>
<polygon points="230.92,268.49 230.92,318.54 225.36,318.54 225.36,268.49 230.92,268.49" fill="#FF9800" fill-opacity="0.12" stroke="#FFB74D" stroke-width="0.6"/>
<polygon points="-88.49,336.62 46.02,336.62 46.02,250.42 -93.83,250.42 -93.83,244.85 48.80,244.85 48.80,247.60 51.58,247.60 51.58,339.40 48.80,339.40 48.80,342.18 -88.49,342.18 -88.49,336.62" fill="#FF9800" fill-opacity="0.12" stroke="#FFB74D" stroke-width="0.6"/>
<polygon points="61.30,339.37 58.53,339.37 58.53,247.60 61.31,247.60 61.31,244.85 228.13,244.85 228.13,250.42 64.09,250.42 64.09,336.62 228.13,336.62 228.13,342.18 61.30,342.18 61.30,339.37" fill="#FF9800" fill-opacity="0.12" stroke="#FFB74D" stroke-width="0.6"/>
<polygon points="236.48,242.07 236.48,236.51 444.94,236.51 444.94,242.07 236.48,242.07" fill="#FF9800" fill-opacity="0.12" stroke="#FFB74D" stroke-width="0.6"/>
<polygon points="240.65,224.00 392.54,224.00 392.54,229.56 240.65,229.56 240.65,224.00" fill="#FF9800" fill-opacity="0.12" stroke="#FFB74D" stroke-width="0.6"/>
<polygon points="-95.05,224.00 48.80,224.00 48.80,229.56 -95.05,229.56 -95.05,224.00" fill="#FF9800" fill-opacity="0.12" stroke="#FFB74D" stroke-width="0.6"/>
<polygon points="405.04,224.00 442.87,224.00 442.87,229.56 405.04,229.56 405.04,224.00" fill="#FF9800" fill-opacity="0.12" stroke="#FFB74D" stroke-width="0.6"/>
<polygon points="61.30,224.00 236.48,224.00 236.48,229.56 61.30,229.56 61.30,224.00" fill="#FF9800" fill-opacity="0.12" stroke="#FFB74D" stroke-width="0.6"/>
<polygon points="702.18,1049.18 702.18,1043.62 735.54,1043.62 735.54,1049.18 702.18,1049.18" fill="#FF9800" fill-opacity="0.12" stroke="#FFB74D" stroke-width="0.6"/>
<polygon points="702.18,1035.28 735.54,1035.28 735.54,1040.84 702.18,1040.84 702.18,1035.28" fill="#FF9800" fill-opacity="0.12" stroke="#FFB74D" stroke-width="0.6"/>
<polygon points="674.38,1038.06 674.38,992.87 679.94,992.87 679.94,1038.06 674.38,1038.06" fill="#FF9800" fill-opacity="0.12" stroke="#FFB74D" stroke-width="0.6"/>
<polygon points="682.72,1038.06 682.72,992.87 688.28,992.87 688.28,1038.06 682.72,1038.06" fill="#FF9800" fill-opacity="0.12" stroke="#FFB74D" stroke-width="0.6"/>
<polygon points="674.38,982.37 674.38,915.01 679.94,915.01 679.94,982.37 674.38,982.37" fill="#FF9800" fill-opacity="0.12" stroke="#FFB74D" stroke-width="0.6"/>
<polygon points="682.72,982.37 682.72,915.01 688.28,915.01 688.28,982.37 682.72,982.37" fill="#FF9800" fill-opacity="0.12" stroke="#FFB74D" stroke-width="0.6"/>
<polygon points="688.28,912.22 749.43,912.22 749.43,917.79 688.28,917.79 688.28,912.22" fill="#FF9800" fill-opacity="0.12" stroke="#FFB74D" stroke-width="0.6"/>
<polygon points="504.27,912.22 582.94,912.22 582.94,917.79 504.27,917.79 504.27,912.22" fill="#FF9800" fill-opacity="0.12" stroke="#FFB74D" stroke-width="0.6"/>
<polygon points="413.93,912.22 493.15,912.22 493.15,917.79 413.93,917.79 413.93,912.22" fill="#FF9800" fill-opacity="0.12" stroke="#FFB74D" stroke-width="0.6"/>
<polygon points="413.93,901.10 493.15,901.10 493.15,906.66 413.93,906.66 413.93,901.10" fill="#FF9800" fill-opacity="0.12" stroke="#FFB74D" stroke-width="0.6"/>
<polygon points="504.27,906.66 504.27,901.10 583.49,901.10 583.49,906.66 504.27,906.66" fill="#FF9800" fill-opacity="0.12" stroke="#FFB74D" stroke-width="0.6"/>
<polygon points="752.21,837.15 752.21,839.93 688.84,839.93 688.84,837.15 686.06,837.15 686.06,831.58 688.84,831.58 688.84,828.80 752.21,828.80 752.21,831.58 754.99,831.58 754.99,837.15 752.21,837.15" fill="#FF9800" fill-opacity="0.12" stroke="#FFB74D" stroke-width="0.6"/>
<polygon points="670.22,817.40 670.22,839.93 664.66,839.93 664.66,814.62 667.44,814.62 667.44,811.84 677.72,811.84 677.72,817.40 670.22,817.40" fill="#FF9800" fill-opacity="0.12" stroke="#FFB74D" stroke-width="0.6"/>
<polygon points="605.45,798.22 605.45,803.78 395.03,803.78 395.03,837.15 389.47,837.15 389.47,801.00 392.25,801.00 392.25,798.22 605.45,798.22" fill="#FF9800" fill-opacity="0.12" stroke="#FFB74D" stroke-width="0.6"/>
<polygon points="656.32,768.74 661.88,768.74 661.88,839.93 656.32,839.93 656.32,768.74" fill="#FF9800" fill-opacity="0.12" stroke="#FFB74D" stroke-width="0.6"/>
<polygon points="559.03,789.87 599.40,789.87 599.40,795.43 559.03,795.43 559.03,789.87" fill="#FF9800" fill-opacity="0.12" stroke="#FFB74D" stroke-width="0.6"/>
<polygon points="667.44,806.28 664.66,806.28 664.66,768.74 670.22,768.74 670.22,803.50 677.72,803.50 677.72,809.06 667.44,809.06 667.44,806.28" fill="#FF9800" fill-opacity="0.12" stroke="#FFB74D" stroke-width="0.6"/>
<polygon points="471.47,784.31 549.30,784.31 549.30,789.87 471.47,789.87 471.47,784.31" fill="#FF9800" fill-opacity="0.12" stroke="#FFB74D" stroke-width="0.6"/>
<polygon points="653.54,760.40 653.54,765.96 653.54,771.52 605.45,771.52 605.45,765.96 605.45,760.40 653.54,760.40" fill="#FF9800" fill-opacity="0.12" stroke="#FFB74D" stroke-width="0.6"/>
<polygon points="709.13,735.65 667.44,735.65 667.44,730.09 709.13,730.09 709.13,735.65" fill="#FF9800" fill-opacity="0.12" stroke="#FFB74D" stroke-width="0.6"/>
<polygon points="550.69,731.48 471.47,731.48 471.47,725.92 550.69,725.92 550.69,731.48" fill="#FF9800" fill-opacity="0.12" stroke="#FFB74D" stroke-width="0.6"/>
<polygon points="709.13,724.53 667.44,724.53 667.44,718.97 709.13,718.97 709.13,724.53" fill="#FF9800" fill-opacity="0.12" stroke="#FFB74D" stroke-width="0.6"/>
<polygon points="550.69,717.58 471.47,717.58 471.47,712.01 550.69,712.01 550.69,717.58" fill="#FF9800" fill-opacity="0.12" stroke="#FFB74D" stroke-width="0.6"/>
<polygon points="667.44,541.00 752.21,541.00 752.21,546.56 667.44,546.56 667.44,541.00" fill="#FF9800" fill-opacity="0.12" stroke="#FFB74D" stroke-width="0.6"/>
<polygon points="653.54,546.56 471.47,546.56 471.47,541.00 653.54,541.00 653.54,546.56" fill="#FF9800" fill-opacity="0.12" stroke="#FFB74D" stroke-width="0.6"/>
<polygon points="471.47,530.64 468.68,530.89 453.33,360.47 456.10,360.22 456.10,357.47 698.31,357.47 698.31,360.25 700.96,359.43 754.45,532.30 751.46,533.22 751.46,534.05 667.44,534.05 667.44,528.49 747.46,528.49 696.26,363.03 459.14,363.03 474.04,528.49 653.54,528.49 653.54,534.05 471.47,534.05 471.47,530.64" fill="#FF9800" fill-opacity="0.12" stroke="#FFB74D" stroke-width="0.6"/>
<polygon points="456.07,268.49 456.07,318.54 450.51,318.54 450.51,268.49 456.07,268.49" fill="#FF9800" fill-opacity="0.12" stroke="#FFB74D" stroke-width="0.6"/>
<polygon points="447.73,268.49 447.73,318.54 442.17,318.54 442.17,268.49 447.73,268.49" fill="#FF9800" fill-opacity="0.12" stroke="#FFB74D" stroke-width="0.6"/>
<polygon points="701.37,340.79 708.32,340.79 708.32,239.29 711.10,239.29 711.10,236.51 915.40,236.51 915.40,239.29 918.18,239.29 918.18,347.74 915.40,347.74 915.40,350.52 711.10,350.52 711.10,347.74 708.32,347.74 708.32,346.35 700.66,346.35 700.66,343.57 698.59,343.57 698.59,346.35 453.29,346.35 453.29,340.79 695.81,340.79 695.81,246.25 453.29,246.25 453.29,240.68 698.59,240.68 698.59,243.46 701.37,243.46 701.37,340.79" fill="#FF9800" fill-opacity="0.12" stroke="#FFB74D" stroke-width="0.6"/>
<polygon points="603.79,224.00 698.59,224.00 698.59,229.56 603.79,229.56 603.79,224.00" fill="#FF9800" fill-opacity="0.12" stroke="#FFB74D" stroke-width="0.6"/>
<polygon points="455.37,224.00 591.28,224.00 591.28,229.56 455.37,229.56 455.37,224.00" fill="#FF9800" fill-opacity="0.12" stroke="#FFB74D" stroke-width="0.6"/>
<polygon points="815.92,1544.09 821.48,1544.09 821.48,1550.61 821.39,1550.61 821.39,1551.62 821.41,1551.65 838.97,1551.65 838.97,1554.43 841.75,1554.43 841.75,1562.77 844.53,1562.77 844.53,1554.43 847.31,1554.43 847.31,1551.65 877.54,1551.65 877.54,1551.65 847.31,1551.65 847.31,1546.09 877.45,1546.09 877.45,1544.09 883.01,1544.09 883.01,1550.61 882.93,1550.61 882.93,1551.62 884.16,1554.11 883.01,1554.68 883.01,1559.45 877.45,1559.45 877.45,1557.21 850.09,1557.21 850.09,1565.55 847.31,1565.55 847.31,1568.33 838.97,1568.33 838.97,1565.55 836.19,1565.55 836.19,1557.21 821.48,1557.21 821.48,1559.45 815.92,1559.45 815.92,1552.95 816.01,1552.95 816.01,1551.62 815.03,1549.01 815.92,1548.68 815.92,1544.09" fill="#FF9800" fill-opacity="0.12" stroke="#FFB74D" stroke-width="0.6"/>
<polygon points="763.33,1125.65 935.67,1125.65 935.67,1131.21 763.33,1131.21 763.33,1125.65" fill="#FF9800" fill-opacity="0.12" stroke="#FFB74D" stroke-width="0.6"/>
<polygon points="748.05,1206.52 748.05,1140.94 753.60,1140.94 753.60,1206.52 760.55,1206.52 760.55,1140.94 763.33,1140.94 763.33,1138.16 935.67,1138.16 935.67,1140.94 938.45,1140.94 938.45,1195.90 942.34,1191.29 945.40,1193.87 945.40,1140.94 950.96,1140.94 950.96,1200.73 1572.20,1200.73 1572.20,1140.94 1577.76,1140.94 1577.76,1200.73 1584.71,1200.73 1584.71,1140.94 1587.49,1140.94 1587.49,1138.16 1642.38,1138.16 1637.58,1134.11 1640.03,1131.21 1587.49,1131.21 1587.49,1125.65 1647.02,1125.65 1647.02,898.55 1652.58,898.55 1652.58,1125.65 1712.97,1125.65 1712.97,1131.21 1659.57,1131.21 1662.01,1134.11 1657.21,1138.16 1712.97,1138.16 1712.97,1143.72 1590.27,1143.72 1590.27,1265.55 1584.71,1265.55 1584.71,1206.29 1577.76,1206.29 1577.76,1265.92 1572.20,1265.92 1572.20,1206.29 950.96,1206.29 950.96,1266.08 945.40,1266.08 945.40,1213.15 942.34,1215.73 938.45,1211.12 938.45,1271.64 932.89,1271.64 932.89,1143.72 766.11,1143.72 766.11,1271.64 760.55,1271.64 760.55,1212.08 753.60,1212.08 753.60,1271.64 748.05,1271.64 748.05,1212.08 126.80,1212.08 126.80,1266.08 121.24,1266.08 121.24,1219.36 118.68,1221.52 114.29,1216.32 114.29,1266.08 108.73,1266.08 108.73,1140.94 114.29,1140.94 114.29,1202.28 118.68,1197.08 121.24,1199.24 121.24,1140.94 126.80,1140.94 126.80,1206.52 748.05,1206.52" fill="#FF9800" fill-opacity="0.12" stroke="#FFB74D" stroke-width="0.6"/>
<polygon points="996.82,1049.18 963.47,1049.18 963.47,1043.62 996.82,1043.62 996.82,1049.18" fill="#FF9800" fill-opacity="0.12" stroke="#FFB74D" stroke-width="0.6"/>
<polygon points="996.82,1040.84 963.47,1040.84 963.47,1035.28 996.82,1035.28 996.82,1040.84" fill="#FF9800" fill-opacity="0.12" stroke="#FFB74D" stroke-width="0.6"/>
<polygon points="1010.72,1038.06 1010.72,992.87 1016.28,992.87 1016.28,1038.06 1010.72,1038.06" fill="#FF9800" fill-opacity="0.12" stroke="#FFB74D" stroke-width="0.6"/>
<polygon points="1019.06,1038.06 1019.06,992.87 1024.62,992.87 1024.62,1038.06 1019.06,1038.06" fill="#FF9800" fill-opacity="0.12" stroke="#FFB74D" stroke-width="0.6"/>
<polygon points="1010.72,982.37 1010.72,915.01 1016.28,915.01 1016.28,982.37 1010.72,982.37" fill="#FF9800" fill-opacity="0.12" stroke="#FFB74D" stroke-width="0.6"/>
<polygon points="1019.06,982.37 1019.06,915.01 1024.62,915.01 1024.62,982.37 1019.06,982.37" fill="#FF9800" fill-opacity="0.12" stroke="#FFB74D" stroke-width="0.6"/>
<polygon points="763.33,919.18 763.33,913.61 935.67,913.61 935.67,919.18 763.33,919.18" fill="#FF9800" fill-opacity="0.12" stroke="#FFB74D" stroke-width="0.6"/>
<polygon points="1010.72,917.79 949.57,917.79 949.57,912.22 1010.72,912.22 1010.72,917.79" fill="#FF9800" fill-opacity="0.12" stroke="#FFB74D" stroke-width="0.6"/>
<polygon points="753.60,903.88 749.43,903.88 749.43,906.66 688.28,906.66 688.28,901.10 748.05,901.10 748.05,848.27 753.60,848.27 753.60,903.88" fill="#FF9800" fill-opacity="0.12" stroke="#FFB74D" stroke-width="0.6"/>
<polygon points="945.40,848.27 950.96,848.27 950.96,901.10 1010.72,901.10 1010.72,906.66 949.57,906.66 949.57,903.88 945.40,903.88 945.40,848.27" fill="#FF9800" fill-opacity="0.12" stroke="#FFB74D" stroke-width="0.6"/>
<polygon points="763.33,903.88 760.55,903.88 760.55,848.27 763.33,848.27 763.33,845.49 935.67,845.49 935.67,848.27 938.45,848.27 938.45,903.88 935.67,903.88 935.67,906.66 763.33,906.66 763.33,903.88" fill="#FF9800" fill-opacity="0.12" stroke="#FFB74D" stroke-width="0.6"/>
<polygon points="763.33,832.97 935.67,832.97 935.67,838.54 763.33,838.54 763.33,832.97" fill="#FF9800" fill-opacity="0.12" stroke="#FFB74D" stroke-width="0.6"/>
<polygon points="946.79,837.15 944.01,837.15 944.01,831.58 946.79,831.58 946.79,828.80 1010.16,828.80 1010.16,831.58 1012.94,831.58 1012.94,837.15 1010.16,837.15 1010.16,839.93 946.79,839.93 946.79,837.15" fill="#FF9800" fill-opacity="0.12" stroke="#FFB74D" stroke-width="0.6"/>
<polygon points="1021.28,817.40 1021.28,811.84 1031.57,811.84 1031.57,814.62 1034.35,814.62 1034.35,839.93 1028.79,839.93 1028.79,817.40 1021.28,817.40" fill="#FF9800" fill-opacity="0.12" stroke="#FFB74D" stroke-width="0.6"/>
<polygon points="1042.69,768.74 1042.69,839.93 1037.13,839.93 1037.13,768.74 1042.69,768.74" fill="#FF9800" fill-opacity="0.12" stroke="#FFB74D" stroke-width="0.6"/>
<polygon points="1028.79,768.74 1034.35,768.74 1034.35,806.28 1031.57,806.28 1031.57,809.06 1021.28,809.06 1021.28,803.50 1028.79,803.50 1028.79,768.74" fill="#FF9800" fill-opacity="0.12" stroke="#FFB74D" stroke-width="0.6"/>
<polygon points="1093.55,771.52 1045.46,771.52 1045.46,765.96 1045.46,760.40 1093.55,760.40 1093.55,765.96 1093.55,771.52" fill="#FF9800" fill-opacity="0.12" stroke="#FFB74D" stroke-width="0.6"/>
<polygon points="989.87,730.09 1031.57,730.09 1031.57,735.65 989.87,735.65 989.87,730.09" fill="#FF9800" fill-opacity="0.12" stroke="#FFB74D" stroke-width="0.6"/>
<polygon points="989.87,718.97 1031.57,718.97 1031.57,724.53 989.87,724.53 989.87,718.97" fill="#FF9800" fill-opacity="0.12" stroke="#FFB74D" stroke-width="0.6"/>
<polygon points="935.67,641.11 763.33,641.11 763.33,635.54 935.67,635.54 935.67,641.11" fill="#FF9800" fill-opacity="0.12" stroke="#FFB74D" stroke-width="0.6"/>
<polygon points="935.67,628.59 763.33,628.59 763.33,623.03 935.67,623.03 935.67,628.59" fill="#FF9800" fill-opacity="0.12" stroke="#FFB74D" stroke-width="0.6"/>
<polygon points="1031.57,546.56 946.79,546.56 946.79,541.00 1031.57,541.00 1031.57,546.56" fill="#FF9800" fill-opacity="0.12" stroke="#FFB74D" stroke-width="0.6"/>
<polygon points="935.67,546.56 763.33,546.56 763.33,541.00 935.67,541.00 935.67,546.56" fill="#FF9800" fill-opacity="0.12" stroke="#FFB74D" stroke-width="0.6"/>
<polygon points="1031.35,360.25 1034.13,360.25 1034.35,531.26 1031.57,531.27 1031.57,534.05 946.79,534.05 946.79,530.63 945.37,530.79 925.89,360.54 928.65,360.22 928.65,357.47 1031.35,357.47 1031.35,360.25" fill="#FF9800" fill-opacity="0.12" stroke="#FFB74D" stroke-width="0.6"/>
<polygon points="917.43,359.94 937.09,531.74 935.67,531.90 935.67,534.05 764.09,534.05 764.09,529.31 761.09,530.24 708.75,361.08 711.40,360.25 711.40,357.47 914.67,357.47 914.67,360.25 917.43,359.94" fill="#FF9800" fill-opacity="0.12" stroke="#FFB74D" stroke-width="0.6"/>
<polygon points="1229.94,347.74 1227.16,347.74 1227.16,350.52 927.91,350.52 927.91,347.74 925.13,347.74 925.13,239.29 927.91,239.29 927.91,236.51 1043.32,236.51 1043.32,242.07 930.69,242.07 930.69,344.96 1224.38,344.96 1224.34,328.63 1229.90,328.61 1229.94,347.74" fill="#FF9800" fill-opacity="0.12" stroke="#FFB74D" stroke-width="0.6"/>
<polygon points="925.13,226.78 925.13,172.57 930.69,172.57 930.69,224.00 1020.49,224.00 1020.49,229.56 927.91,229.56 927.91,226.78 925.13,226.78" fill="#FF9800" fill-opacity="0.12" stroke="#FFB74D" stroke-width="0.6"/>
<polygon points="918.18,226.78 915.40,226.78 915.40,229.56 711.10,229.56 711.10,224.00 912.62,224.00 912.62,164.81 918.18,164.81 918.18,226.78" fill="#FF9800" fill-opacity="0.12" stroke="#FFB74D" stroke-width="0.6"/>
<polygon points="1299.52,1088.11 1299.52,1093.67 1244.21,1093.67 1244.21,1088.11 1299.52,1088.11" fill="#FF9800" fill-opacity="0.12" stroke="#FFB74D" stroke-width="0.6"/>
<polygon points="1296.74,1085.33 1278.67,1085.33 1278.67,1079.77 1296.74,1079.77 1296.74,1085.33" fill="#FF9800" fill-opacity="0.12" stroke="#FFB74D" stroke-width="0.6"/>
<polygon points="1459.75,1060.36 1459.75,1029.01 1465.31,1029.01 1465.31,1060.36 1459.75,1060.36" fill="#FF9800" fill-opacity="0.12" stroke="#FFB74D" stroke-width="0.6"/>
<polygon points="1470.87,1060.36 1470.87,1029.01 1476.43,1029.01 1476.43,1060.36 1470.87,1060.36" fill="#FF9800" fill-opacity="0.12" stroke="#FFB74D" stroke-width="0.6"/>
<polygon points="1370.80,917.79 1296.19,917.79 1296.19,912.22 1370.80,912.22 1370.80,917.79" fill="#FF9800" fill-opacity="0.12" stroke="#FFB74D" stroke-width="0.6"/>
<polygon points="1194.73,917.79 1116.07,917.79 1116.07,912.22 1194.73,912.22 1194.73,917.79" fill="#FF9800" fill-opacity="0.12" stroke="#FFB74D" stroke-width="0.6"/>
<polygon points="1285.07,917.79 1205.85,917.79 1205.85,912.22 1285.07,912.22 1285.07,917.79" fill="#FF9800" fill-opacity="0.12" stroke="#FFB74D" stroke-width="0.6"/>
<polygon points="1429.05,912.22 1429.05,917.79 1381.92,917.79 1381.92,912.22 1429.05,912.22" fill="#FF9800" fill-opacity="0.12" stroke="#FFB74D" stroke-width="0.6"/>
<polygon points="1285.07,906.66 1205.85,906.66 1205.85,901.10 1285.07,901.10 1285.07,906.66" fill="#FF9800" fill-opacity="0.12" stroke="#FFB74D" stroke-width="0.6"/>
<polygon points="1194.73,906.66 1115.51,906.66 1115.51,901.10 1194.73,901.10 1194.73,906.66" fill="#FF9800" fill-opacity="0.12" stroke="#FFB74D" stroke-width="0.6"/>
<polygon points="1370.80,848.27 1376.36,848.27 1376.36,903.88 1370.80,903.88 1370.80,906.66 1296.19,906.66 1296.19,901.10 1370.80,901.10 1370.80,848.27" fill="#FF9800" fill-opacity="0.12" stroke="#FFB74D" stroke-width="0.6"/>
<polygon points="1426.27,848.27 1431.83,848.27 1431.83,903.88 1429.05,903.88 1429.05,906.66 1381.92,906.66 1381.92,903.88 1379.14,903.88 1379.14,848.27 1384.70,848.27 1384.70,901.10 1426.27,901.10 1426.27,848.27" fill="#FF9800" fill-opacity="0.12" stroke="#FFB74D" stroke-width="0.6"/>
<polygon points="1442.95,848.28 1442.67,903.90 1437.11,903.87 1437.39,848.25 1442.95,848.28" fill="#FF9800" fill-opacity="0.12" stroke="#FFB74D" stroke-width="0.6"/>
<polygon points="1423.49,798.22 1423.49,803.78 1323.43,803.78 1323.43,837.15 1317.87,837.15 1317.87,801.00 1320.65,801.00 1320.65,798.22 1423.49,798.22" fill="#FF9800" fill-opacity="0.12" stroke="#FFB74D" stroke-width="0.6"/>
<polygon points="1306.75,801.00 1309.53,801.00 1309.53,837.15 1303.97,837.15 1303.97,803.78 1093.55,803.78 1093.55,798.22 1306.75,798.22 1306.75,801.00" fill="#FF9800" fill-opacity="0.12" stroke="#FFB74D" stroke-width="0.6"/>
<polygon points="1573.59,803.78 1437.39,803.78 1437.39,798.22 1573.59,798.22 1573.59,803.78" fill="#FF9800" fill-opacity="0.12" stroke="#FFB74D" stroke-width="0.6"/>
<polygon points="1139.97,795.43 1099.60,795.43 1099.60,789.87 1139.97,789.87 1139.97,795.43" fill="#FF9800" fill-opacity="0.12" stroke="#FFB74D" stroke-width="0.6"/>
<polygon points="1227.53,789.87 1149.70,789.87 1149.70,784.31 1227.53,784.31 1227.53,789.87" fill="#FF9800" fill-opacity="0.12" stroke="#FFB74D" stroke-width="0.6"/>
<polygon points="1423.49,789.87 1241.43,789.87 1241.43,784.31 1423.49,784.31 1423.49,789.87" fill="#FF9800" fill-opacity="0.12" stroke="#FFB74D" stroke-width="0.6"/>
<polygon points="1573.59,789.87 1437.39,789.87 1437.39,784.31 1573.59,784.31 1573.59,789.87" fill="#FF9800" fill-opacity="0.12" stroke="#FFB74D" stroke-width="0.6"/>
<polygon points="1148.31,725.92 1227.53,725.92 1227.53,731.48 1148.31,731.48 1148.31,725.92" fill="#FF9800" fill-opacity="0.12" stroke="#FFB74D" stroke-width="0.6"/>
<polygon points="1148.31,717.58 1148.31,712.01 1227.53,712.01 1227.53,717.58 1148.31,717.58" fill="#FF9800" fill-opacity="0.12" stroke="#FFB74D" stroke-width="0.6"/>
<polygon points="1712.97,624.42 1587.49,624.42 1587.49,618.86 1712.97,618.86 1712.97,624.42" fill="#FF9800" fill-opacity="0.12" stroke="#FFB74D" stroke-width="0.6"/>
<polygon points="1573.59,541.00 1573.59,543.78 1576.37,543.78 1576.37,609.13 1570.81,609.13 1570.81,546.56 1437.39,546.56 1437.39,541.00 1573.59,541.00" fill="#FF9800" fill-opacity="0.12" stroke="#FFB74D" stroke-width="0.6"/>
<polygon points="1045.47,541.00 1227.53,541.00 1227.53,546.56 1045.47,546.56 1045.47,541.00" fill="#FF9800" fill-opacity="0.12" stroke="#FFB74D" stroke-width="0.6"/>
<polygon points="1423.49,546.56 1241.43,546.56 1241.43,541.00 1423.49,541.00 1423.49,546.56" fill="#FF9800" fill-opacity="0.12" stroke="#FFB74D" stroke-width="0.6"/>
<polygon points="1586.80,609.13 1586.80,451.22 1592.36,451.22 1592.36,606.35 1712.97,606.35 1712.97,611.91 1587.49,611.91 1587.49,609.13 1586.80,609.13" fill="#FF9800" fill-opacity="0.12" stroke="#FFB74D" stroke-width="0.6"/>
<polygon points="1573.59,534.05 1437.39,534.05 1437.39,531.27 1434.61,531.27 1434.36,407.96 1439.92,407.95 1440.17,528.49 1570.81,528.49 1570.81,448.03 1576.37,448.03 1576.37,531.27 1573.59,531.27 1573.59,534.05" fill="#FF9800" fill-opacity="0.12" stroke="#FFB74D" stroke-width="0.6"/>
<polygon points="1045.47,531.27 1042.69,531.27 1042.48,360.26 1045.26,360.25 1045.26,357.47 1227.19,357.47 1227.19,360.25 1229.97,360.25 1230.31,531.26 1227.53,531.27 1227.53,534.05 1045.47,534.05 1045.47,531.27" fill="#FF9800" fill-opacity="0.12" stroke="#FFB74D" stroke-width="0.6"/>
<polygon points="1420.46,403.41 1426.02,403.39 1426.27,531.26 1423.49,531.27 1423.49,534.05 1241.43,534.05 1241.43,531.27 1238.65,531.27 1238.31,360.26 1241.08,360.25 1241.08,357.47 1303.80,357.47 1303.80,363.03 1243.87,363.03 1244.20,528.49 1420.71,528.49 1420.46,403.41" fill="#FF9800" fill-opacity="0.12" stroke="#FFB74D" stroke-width="0.6"/>
<polygon points="1243.83,344.96 1272.54,344.96 1272.54,350.52 1241.06,350.52 1241.06,347.74 1238.28,347.75 1238.25,334.60 1243.81,334.59 1243.83,344.96" fill="#FF9800" fill-opacity="0.12" stroke="#FFB74D" stroke-width="0.6"/>
<polygon class="slab-poly" data-slab-id="SLAB-001" points="226.61,228.31 226.61,45.90 271.48,45.90 271.48,228.31 226.61,228.31" fill="#2196F3" fill-opacity="0.45" stroke="#2196F3" stroke-width="0.8"/>
<polygon class="slab-poly" data-slab-id="SLAB-002" points="1041.10,228.31 1041.10,58.41 1228.89,58.41 1228.89,228.31 1041.10,228.31" fill="#2196F3" fill-opacity="0.45" stroke="#2196F3" stroke-width="0.8"/>
<text x="1135.0" y="143.4" fill="#fff" font-size="9" text-anchor="middle" dominant-baseline="middle" font-family="Segoe UI, sans-serif" paint-order="stroke" stroke="#000" stroke-width="2" pointer-events="none">SLAB-002</text>
<polygon class="slab-poly" data-slab-id="SLAB-003" points="946.65,228.31 946.65,58.41 1015.03,58.41 1015.03,228.31 946.65,228.31" fill="#2196F3" fill-opacity="0.45" stroke="#2196F3" stroke-width="0.8"/>
<text x="980.8" y="143.4" fill="#fff" font-size="9" text-anchor="middle" dominant-baseline="middle" font-family="Segoe UI, sans-serif" paint-order="stroke" stroke="#000" stroke-width="2" pointer-events="none">SLAB-003</text>
<polygon class="slab-poly" data-slab-id="SLAB-004" points="403.52,228.31 403.52,58.41 592.81,58.41 592.81,228.31 403.52,228.31" fill="#2196F3" fill-opacity="0.45" stroke="#2196F3" stroke-width="0.8"/>
<text x="498.2" y="143.4" fill="#fff" font-size="9" text-anchor="middle" dominant-baseline="middle" font-family="Segoe UI, sans-serif" paint-order="stroke" stroke="#000" stroke-width="2" pointer-events="none">SLAB-004</text>
<polygon class="slab-poly" data-slab-id="SLAB-005" points="319.72,228.31 319.72,58.41 394.07,58.41 394.07,228.31 319.72,228.31" fill="#2196F3" fill-opacity="0.45" stroke="#2196F3" stroke-width="0.8"/>
<text x="356.9" y="143.4" fill="#fff" font-size="9" text-anchor="middle" dominant-baseline="middle" font-family="Segoe UI, sans-serif" paint-order="stroke" stroke="#000" stroke-width="2" pointer-events="none">SLAB-005</text>
<polygon class="slab-poly" data-slab-id="SLAB-006" points="1239.73,244.30 1239.73,45.90 1379.28,45.90 1379.28,244.30 1239.73,244.30" fill="#2196F3" fill-opacity="0.45" stroke="#2196F3" stroke-width="0.8"/>
<text x="1309.5" y="145.1" fill="#fff" font-size="9" text-anchor="middle" dominant-baseline="middle" font-family="Segoe UI, sans-serif" paint-order="stroke" stroke="#000" stroke-width="2" pointer-events="none">SLAB-006</text>
<polygon class="slab-poly" data-slab-id="SLAB-007" points="1011.97,244.30 1011.97,45.90 1044.16,45.90 1044.16,244.30 1011.97,244.30" fill="#2196F3" fill-opacity="0.45" stroke="#2196F3" stroke-width="0.8"/>
<polygon class="slab-poly" data-slab-id="SLAB-008" points="913.87,244.30 913.87,45.90 1015.03,45.90 1015.03,244.30 913.87,244.30" fill="#2196F3" fill-opacity="0.45" stroke="#2196F3" stroke-width="0.8"/>
<text x="964.5" y="145.1" fill="#fff" font-size="9" text-anchor="middle" dominant-baseline="middle" font-family="Segoe UI, sans-serif" paint-order="stroke" stroke="#000" stroke-width="2" pointer-events="none">SLAB-008</text>
<polygon class="slab-poly" data-slab-id="SLAB-009" points="761.80,244.30 761.80,45.90 916.93,45.90 916.93,244.30 761.80,244.30" fill="#2196F3" fill-opacity="0.45" stroke="#2196F3" stroke-width="0.8"/>
<text x="839.4" y="145.1" fill="#fff" font-size="9" text-anchor="middle" dominant-baseline="middle" font-family="Segoe UI, sans-serif" paint-order="stroke" stroke="#000" stroke-width="2" pointer-events="none">SLAB-009</text>
<polygon class="slab-poly" data-slab-id="SLAB-010" points="679.81,244.30 679.81,45.90 752.35,45.90 752.35,244.30 679.81,244.30" fill="#2196F3" fill-opacity="0.45" stroke="#2196F3" stroke-width="0.8"/>
<text x="716.1" y="145.1" fill="#fff" font-size="9" text-anchor="middle" dominant-baseline="middle" font-family="Segoe UI, sans-serif" paint-order="stroke" stroke="#000" stroke-width="2" pointer-events="none">SLAB-010</text>
<polygon class="slab-poly" data-slab-id="SLAB-011" points="602.26,244.30 602.26,45.90 682.86,45.90 682.86,244.30 602.26,244.30" fill="#2196F3" fill-opacity="0.45" stroke="#2196F3" stroke-width="0.8"/>
<text x="642.6" y="145.1" fill="#fff" font-size="9" text-anchor="middle" dominant-baseline="middle" font-family="Segoe UI, sans-serif" paint-order="stroke" stroke="#000" stroke-width="2" pointer-events="none">SLAB-011</text>
<polygon class="slab-poly" data-slab-id="SLAB-012" points="268.42,244.30 268.42,45.90 394.07,45.90 394.07,244.30 268.42,244.30" fill="#2196F3" fill-opacity="0.45" stroke="#2196F3" stroke-width="0.8"/>
<text x="331.2" y="145.1" fill="#fff" font-size="9" text-anchor="middle" dominant-baseline="middle" font-family="Segoe UI, sans-serif" paint-order="stroke" stroke="#000" stroke-width="2" pointer-events="none">SLAB-012</text>
<polygon class="slab-poly" data-slab-id="SLAB-013" points="123.88,244.30 123.88,45.90 229.67,45.90 229.67,244.30 123.88,244.30" fill="#2196F3" fill-opacity="0.45" stroke="#2196F3" stroke-width="0.8"/>
<text x="176.8" y="145.1" fill="#fff" font-size="9" text-anchor="middle" dominant-baseline="middle" font-family="Segoe UI, sans-serif" paint-order="stroke" stroke="#000" stroke-width="2" pointer-events="none">SLAB-013</text>
<polygon class="slab-poly" data-slab-id="SLAB-014" points="45.88,244.30 45.88,45.90 113.04,45.90 113.04,244.30 45.88,244.30" fill="#2196F3" fill-opacity="0.45" stroke="#2196F3" stroke-width="0.8"/>
<text x="79.5" y="145.1" fill="#fff" font-size="9" text-anchor="middle" dominant-baseline="middle" font-family="Segoe UI, sans-serif" paint-order="stroke" stroke="#000" stroke-width="2" pointer-events="none">SLAB-014</text>
<polygon class="slab-poly" data-slab-id="SLAB-015" points="1428.37,244.30 1428.37,241.24 1428.37,45.90 1575.12,45.90 1575.12,241.24 1575.12,244.30 1575.12,345.79 1428.37,345.79 1428.37,244.30" fill="#2196F3" fill-opacity="0.45" stroke="#2196F3" stroke-width="0.8"/>
<text x="1501.7" y="195.8" fill="#fff" font-size="9" text-anchor="middle" dominant-baseline="middle" font-family="Segoe UI, sans-serif" paint-order="stroke" stroke="#000" stroke-width="2" pointer-events="none">SLAB-015</text>
<polygon class="slab-poly" data-slab-id="SLAB-016" points="1376.22,244.30 1376.22,241.24 1376.22,45.90 1431.42,45.90 1431.42,241.24 1431.42,244.30 1431.42,345.79 1376.22,345.79 1376.22,244.30" fill="#2196F3" fill-opacity="0.45" stroke="#2196F3" stroke-width="0.8"/>
<text x="1403.8" y="195.8" fill="#fff" font-size="9" text-anchor="middle" dominant-baseline="middle" font-family="Segoe UI, sans-serif" paint-order="stroke" stroke="#000" stroke-width="2" pointer-events="none">SLAB-016</text>
<polygon class="slab-poly" data-slab-id="SLAB-017" points="1239.73,345.79 1239.73,241.24 1379.28,241.24 1379.28,345.79 1239.73,345.79" fill="#2196F3" fill-opacity="0.45" stroke="#2196F3" stroke-width="0.8"/>
<text x="1309.5" y="293.5" fill="#fff" font-size="9" text-anchor="middle" dominant-baseline="middle" font-family="Segoe UI, sans-serif" paint-order="stroke" stroke="#000" stroke-width="2" pointer-events="none">SLAB-017</text>
<polygon class="slab-poly" data-slab-id="SLAB-018" points="1041.10,361.78 1041.10,225.25 1228.89,225.25 1228.89,361.78 1041.10,361.78" fill="#2196F3" fill-opacity="0.45" stroke="#2196F3" stroke-width="0.8"/>
<text x="1135.0" y="293.5" fill="#fff" font-size="9" text-anchor="middle" dominant-baseline="middle" font-family="Segoe UI, sans-serif" paint-order="stroke" stroke="#000" stroke-width="2" pointer-events="none">SLAB-018</text>
<polygon class="slab-poly" data-slab-id="SLAB-019" points="913.87,345.79 913.87,241.24 1015.03,241.24 1015.03,345.79 913.87,345.79" fill="#2196F3" fill-opacity="0.45" stroke="#2196F3" stroke-width="0.8"/>
<text x="964.5" y="293.5" fill="#fff" font-size="9" text-anchor="middle" dominant-baseline="middle" font-family="Segoe UI, sans-serif" paint-order="stroke" stroke="#000" stroke-width="2" pointer-events="none">SLAB-019</text>
<polygon class="slab-poly" data-slab-id="SLAB-020" points="761.80,345.79 761.80,241.24 916.93,241.24 916.93,345.79 761.80,345.79" fill="#2196F3" fill-opacity="0.45" stroke="#2196F3" stroke-width="0.8"/>
<text x="839.4" y="293.5" fill="#fff" font-size="9" text-anchor="middle" dominant-baseline="middle" font-family="Segoe UI, sans-serif" paint-order="stroke" stroke="#000" stroke-width="2" pointer-events="none">SLAB-020</text>
<polygon class="slab-poly" data-slab-id="SLAB-021" points="679.81,345.79 679.81,241.24 752.35,241.24 752.35,345.79 679.81,345.79" fill="#2196F3" fill-opacity="0.45" stroke="#2196F3" stroke-width="0.8"/>
<polygon class="slab-poly" data-slab-id="SLAB-022" points="602.26,345.79 602.26,241.24 682.86,241.24 682.86,345.79 602.26,345.79" fill="#2196F3" fill-opacity="0.45" stroke="#2196F3" stroke-width="0.8"/>
<polygon class="slab-poly" data-slab-id="SLAB-023" points="403.52,361.78 403.52,225.25 592.81,225.25 592.81,361.78 403.52,361.78" fill="#2196F3" fill-opacity="0.45" stroke="#2196F3" stroke-width="0.8"/>
<text x="498.2" y="293.5" fill="#fff" font-size="9" text-anchor="middle" dominant-baseline="middle" font-family="Segoe UI, sans-serif" paint-order="stroke" stroke="#000" stroke-width="2" pointer-events="none">SLAB-023</text>
<polygon class="slab-poly" data-slab-id="SLAB-024" points="319.72,345.79 319.72,241.24 394.07,241.24 394.07,345.79 319.72,345.79" fill="#2196F3" fill-opacity="0.45" stroke="#2196F3" stroke-width="0.8"/>
<polygon class="slab-poly" data-slab-id="SLAB-025" points="226.61,361.78 226.61,225.25 322.78,225.25 322.78,361.78 226.61,361.78" fill="#2196F3" fill-opacity="0.45" stroke="#2196F3" stroke-width="0.8"/>
<text x="274.7" y="293.5" fill="#fff" font-size="9" text-anchor="middle" dominant-baseline="middle" font-family="Segoe UI, sans-serif" paint-order="stroke" stroke="#000" stroke-width="2" pointer-events="none">SLAB-025</text>
<polygon class="slab-poly" data-slab-id="SLAB-026" points="123.88,345.79 123.88,241.24 229.67,241.24 229.67,345.79 123.88,345.79" fill="#2196F3" fill-opacity="0.45" stroke="#2196F3" stroke-width="0.8"/>
<text x="176.8" y="293.5" fill="#fff" font-size="9" text-anchor="middle" dominant-baseline="middle" font-family="Segoe UI, sans-serif" paint-order="stroke" stroke="#000" stroke-width="2" pointer-events="none">SLAB-026</text>
<polygon class="slab-poly" data-slab-id="SLAB-027" points="59.78,345.79 59.78,241.24 113.04,241.24 113.04,345.79 59.78,345.79" fill="#2196F3" fill-opacity="0.45" stroke="#2196F3" stroke-width="0.8"/>
<polygon class="slab-poly" data-slab-id="SLAB-028" points="1428.37,545.31 1428.37,342.74 1575.12,342.74 1575.12,545.31 1428.37,545.31" fill="#2196F3" fill-opacity="0.45" stroke="#2196F3" stroke-width="0.8"/>
<text x="1501.7" y="444.0" fill="#fff" font-size="9" text-anchor="middle" dominant-baseline="middle" font-family="Segoe UI, sans-serif" paint-order="stroke" stroke="#000" stroke-width="2" pointer-events="none">SLAB-028</text>
<polygon class="slab-poly" data-slab-id="SLAB-029" points="1376.22,545.31 1376.22,342.74 1431.42,342.74 1431.42,545.31 1376.22,545.31" fill="#2196F3" fill-opacity="0.45" stroke="#2196F3" stroke-width="0.8"/>
<text x="1403.8" y="444.0" fill="#fff" font-size="9" text-anchor="middle" dominant-baseline="middle" font-family="Segoe UI, sans-serif" paint-order="stroke" stroke="#000" stroke-width="2" pointer-events="none">SLAB-029</text>
<polygon class="slab-poly" data-slab-id="SLAB-030" points="1239.73,545.31 1239.73,342.74 1379.28,342.74 1379.28,545.31 1239.73,545.31" fill="#2196F3" fill-opacity="0.45" stroke="#2196F3" stroke-width="0.8"/>
<text x="1309.5" y="444.0" fill="#fff" font-size="9" text-anchor="middle" dominant-baseline="middle" font-family="Segoe UI, sans-serif" paint-order="stroke" stroke="#000" stroke-width="2" pointer-events="none">SLAB-030</text>
<polygon class="slab-poly" data-slab-id="SLAB-031" points="1011.97,545.31 1011.97,342.74 1044.16,342.74 1044.16,545.31 1011.97,545.31" fill="#2196F3" fill-opacity="0.45" stroke="#2196F3" stroke-width="0.8"/>
<polygon class="slab-poly" data-slab-id="SLAB-032" points="913.87,545.31 913.87,342.74 1015.03,342.74 1015.03,545.31 913.87,545.31" fill="#2196F3" fill-opacity="0.45" stroke="#2196F3" stroke-width="0.8"/>
<text x="964.5" y="444.0" fill="#fff" font-size="9" text-anchor="middle" dominant-baseline="middle" font-family="Segoe UI, sans-serif" paint-order="stroke" stroke="#000" stroke-width="2" pointer-events="none">SLAB-032</text>
<polygon class="slab-poly" data-slab-id="SLAB-033" points="761.80,545.31 761.80,342.74 916.93,342.74 916.93,545.31 761.80,545.31" fill="#2196F3" fill-opacity="0.45" stroke="#2196F3" stroke-width="0.8"/>
<text x="839.4" y="444.0" fill="#fff" font-size="9" text-anchor="middle" dominant-baseline="middle" font-family="Segoe UI, sans-serif" paint-order="stroke" stroke="#000" stroke-width="2" pointer-events="none">SLAB-033</text>
<polygon class="slab-poly" data-slab-id="SLAB-034" points="679.81,545.31 679.81,342.74 752.35,342.74 752.35,545.31 679.81,545.31" fill="#2196F3" fill-opacity="0.45" stroke="#2196F3" stroke-width="0.8"/>
<text x="716.1" y="444.0" fill="#fff" font-size="9" text-anchor="middle" dominant-baseline="middle" font-family="Segoe UI, sans-serif" paint-order="stroke" stroke="#000" stroke-width="2" pointer-events="none">SLAB-034</text>
<polygon class="slab-poly" data-slab-id="SLAB-035" points="589.75,545.31 589.75,342.74 682.86,342.74 682.86,545.31 589.75,545.31" fill="#2196F3" fill-opacity="0.45" stroke="#2196F3" stroke-width="0.8"/>
<text x="636.3" y="444.0" fill="#fff" font-size="9" text-anchor="middle" dominant-baseline="middle" font-family="Segoe UI, sans-serif" paint-order="stroke" stroke="#000" stroke-width="2" pointer-events="none">SLAB-035</text>
<polygon class="slab-poly" data-slab-id="SLAB-036" points="268.42,545.31 268.42,342.74 394.07,342.74 394.07,545.31 268.42,545.31" fill="#2196F3" fill-opacity="0.45" stroke="#2196F3" stroke-width="0.8"/>
<text x="331.2" y="444.0" fill="#fff" font-size="9" text-anchor="middle" dominant-baseline="middle" font-family="Segoe UI, sans-serif" paint-order="stroke" stroke="#000" stroke-width="2" pointer-events="none">SLAB-036</text>
<polygon class="slab-poly" data-slab-id="SLAB-037" points="123.88,545.31 123.88,342.74 229.67,342.74 229.67,545.31 123.88,545.31" fill="#2196F3" fill-opacity="0.45" stroke="#2196F3" stroke-width="0.8"/>
<text x="176.8" y="444.0" fill="#fff" font-size="9" text-anchor="middle" dominant-baseline="middle" font-family="Segoe UI, sans-serif" paint-order="stroke" stroke="#000" stroke-width="2" pointer-events="none">SLAB-037</text>
<polygon class="slab-poly" data-slab-id="SLAB-038" points="45.88,545.31 45.88,342.74 113.04,342.74 113.04,545.31 45.88,545.31" fill="#2196F3" fill-opacity="0.45" stroke="#2196F3" stroke-width="0.8"/>
<text x="79.5" y="444.0" fill="#fff" font-size="9" text-anchor="middle" dominant-baseline="middle" font-family="Segoe UI, sans-serif" paint-order="stroke" stroke="#000" stroke-width="2" pointer-events="none">SLAB-038</text>
<polygon class="slab-poly" data-slab-id="SLAB-039" points="1041.10,532.80 1041.10,358.72 1228.89,358.72 1228.89,532.80 1041.10,532.80" fill="#2196F3" fill-opacity="0.45" stroke="#2196F3" stroke-width="0.8"/>
<text x="1135.0" y="445.8" fill="#fff" font-size="9" text-anchor="middle" dominant-baseline="middle" font-family="Segoe UI, sans-serif" paint-order="stroke" stroke="#000" stroke-width="2" pointer-events="none">SLAB-039</text>
<polygon class="slab-poly" data-slab-id="SLAB-040" points="946.65,532.80 946.65,358.72 1015.03,358.72 1015.03,532.80 946.65,532.80" fill="#2196F3" fill-opacity="0.45" stroke="#2196F3" stroke-width="0.8"/>
<text x="980.8" y="445.8" fill="#fff" font-size="9" text-anchor="middle" dominant-baseline="middle" font-family="Segoe UI, sans-serif" paint-order="stroke" stroke="#000" stroke-width="2" pointer-events="none">SLAB-040</text>
<polygon class="slab-poly" data-slab-id="SLAB-041" points="403.52,532.80 403.52,358.72 592.81,358.72 592.81,532.80 403.52,532.80" fill="#2196F3" fill-opacity="0.45" stroke="#2196F3" stroke-width="0.8"/>
<text x="498.2" y="445.8" fill="#fff" font-size="9" text-anchor="middle" dominant-baseline="middle" font-family="Segoe UI, sans-serif" paint-order="stroke" stroke="#000" stroke-width="2" pointer-events="none">SLAB-041</text>
<polygon class="slab-poly" data-slab-id="SLAB-042" points="319.72,532.80 319.72,358.72 394.07,358.72 394.07,532.80 319.72,532.80" fill="#2196F3" fill-opacity="0.45" stroke="#2196F3" stroke-width="0.8"/>
<text x="356.9" y="445.8" fill="#fff" font-size="9" text-anchor="middle" dominant-baseline="middle" font-family="Segoe UI, sans-serif" paint-order="stroke" stroke="#000" stroke-width="2" pointer-events="none">SLAB-042</text>
<polygon class="slab-poly" data-slab-id="SLAB-043" points="226.61,545.31 226.61,358.72 271.48,358.72 271.48,545.31 226.61,545.31" fill="#2196F3" fill-opacity="0.45" stroke="#2196F3" stroke-width="0.8"/>
<polygon class="slab-poly" data-slab-id="SLAB-044" points="1428.37,610.66 1428.37,542.25 1575.12,542.25 1575.12,610.66 1428.37,610.66" fill="#2196F3" fill-opacity="0.45" stroke="#2196F3" stroke-width="0.8"/>
<text x="1501.7" y="576.5" fill="#fff" font-size="9" text-anchor="middle" dominant-baseline="middle" font-family="Segoe UI, sans-serif" paint-order="stroke" stroke="#000" stroke-width="2" pointer-events="none">SLAB-044</text>
<polygon class="slab-poly" data-slab-id="SLAB-045" points="913.87,610.66 913.87,542.25 1015.03,542.25 1015.03,610.66 913.87,610.66" fill="#2196F3" fill-opacity="0.45" stroke="#2196F3" stroke-width="0.8"/>
<polygon class="slab-poly" data-slab-id="SLAB-046" points="761.80,610.66 761.80,542.25 916.93,542.25 916.93,610.66 761.80,610.66" fill="#2196F3" fill-opacity="0.45" stroke="#2196F3" stroke-width="0.8"/>
<text x="839.4" y="576.5" fill="#fff" font-size="9" text-anchor="middle" dominant-baseline="middle" font-family="Segoe UI, sans-serif" paint-order="stroke" stroke="#000" stroke-width="2" pointer-events="none">SLAB-046</text>
<polygon class="slab-poly" data-slab-id="SLAB-047" points="679.81,610.66 679.81,542.25 752.35,542.25 752.35,610.66 679.81,610.66" fill="#2196F3" fill-opacity="0.45" stroke="#2196F3" stroke-width="0.8"/>
<polygon class="slab-poly" data-slab-id="SLAB-048" points="602.26,610.66 602.26,542.25 682.86,542.25 682.86,610.66 602.26,610.66" fill="#2196F3" fill-opacity="0.45" stroke="#2196F3" stroke-width="0.8"/>
<polygon class="slab-poly" data-slab-id="SLAB-049" points="268.42,610.66 268.42,542.25 394.07,542.25 394.07,610.66 268.42,610.66" fill="#2196F3" fill-opacity="0.45" stroke="#2196F3" stroke-width="0.8"/>
<polygon class="slab-poly" data-slab-id="SLAB-050" points="123.88,610.66 123.88,542.25 229.67,542.25 229.67,610.66 123.88,610.66" fill="#2196F3" fill-opacity="0.45" stroke="#2196F3" stroke-width="0.8"/>
<polygon class="slab-poly" data-slab-id="SLAB-051" points="403.52,625.26 403.52,529.74 592.81,529.74 592.81,625.26 403.52,625.26" fill="#2196F3" fill-opacity="0.45" stroke="#2196F3" stroke-width="0.8"/>
<text x="498.2" y="577.5" fill="#fff" font-size="9" text-anchor="middle" dominant-baseline="middle" font-family="Segoe UI, sans-serif" paint-order="stroke" stroke="#000" stroke-width="2" pointer-events="none">SLAB-051</text>
<polygon class="slab-poly" data-slab-id="SLAB-052" points="226.61,788.62 226.61,607.60 394.07,607.60 394.07,788.62 226.61,788.62" fill="#2196F3" fill-opacity="0.45" stroke="#2196F3" stroke-width="0.8"/>
<text x="310.3" y="698.1" fill="#fff" font-size="9" text-anchor="middle" dominant-baseline="middle" font-family="Segoe UI, sans-serif" paint-order="stroke" stroke="#000" stroke-width="2" pointer-events="none">SLAB-052</text>
<polygon class="slab-poly" data-slab-id="SLAB-053" points="1428.37,802.53 1428.37,607.60 1575.12,607.60 1575.12,802.53 1428.37,802.53" fill="#FF9800" fill-opacity="0.45" stroke="#FF9800" stroke-width="0.8"/>
<text x="1501.7" y="705.1" fill="#fff" font-size="9" text-anchor="middle" dominant-baseline="middle" font-family="Segoe UI, sans-serif" paint-order="stroke" stroke="#000" stroke-width="2" pointer-events="none">SLAB-053</text>
<polygon class="slab-poly" data-slab-id="SLAB-054" points="1015.03,788.62 1015.03,802.53 916.93,802.53 913.87,802.53 761.80,802.53 761.80,607.60 913.87,607.60 916.93,607.60 1015.03,607.60 1015.03,636.80 1015.03,788.62" fill="#2196F3" fill-opacity="0.45" stroke="#2196F3" stroke-width="0.8"/>
<text x="888.4" y="705.1" fill="#fff" font-size="9" text-anchor="middle" dominant-baseline="middle" font-family="Segoe UI, sans-serif" paint-order="stroke" stroke="#000" stroke-width="2" pointer-events="none">SLAB-054</text>
<polygon class="slab-poly" data-slab-id="SLAB-055" points="602.26,802.53 602.26,607.60 682.86,607.60 682.86,802.53 602.26,802.53" fill="#2196F3" fill-opacity="0.45" stroke="#2196F3" stroke-width="0.8"/>
<text x="642.6" y="705.1" fill="#fff" font-size="9" text-anchor="middle" dominant-baseline="middle" font-family="Segoe UI, sans-serif" paint-order="stroke" stroke="#000" stroke-width="2" pointer-events="none">SLAB-055</text>
<polygon class="slab-poly" data-slab-id="SLAB-056" points="123.88,802.53 123.88,607.60 229.67,607.60 229.67,802.53 123.88,802.53" fill="#2196F3" fill-opacity="0.45" stroke="#2196F3" stroke-width="0.8"/>
<text x="176.8" y="705.1" fill="#fff" font-size="9" text-anchor="middle" dominant-baseline="middle" font-family="Segoe UI, sans-serif" paint-order="stroke" stroke="#000" stroke-width="2" pointer-events="none">SLAB-056</text>
<polygon class="slab-poly" data-slab-id="SLAB-057" points="59.78,802.53 59.78,607.60 113.04,607.60 113.04,802.53 59.78,802.53" fill="#2196F3" fill-opacity="0.45" stroke="#2196F3" stroke-width="0.8"/>
<text x="86.4" y="705.1" fill="#fff" font-size="9" text-anchor="middle" dominant-baseline="middle" font-family="Segoe UI, sans-serif" paint-order="stroke" stroke="#000" stroke-width="2" pointer-events="none">SLAB-057</text>
<polygon class="slab-poly" data-slab-id="SLAB-058" points="403.52,788.62 403.52,622.20 592.81,622.20 592.81,788.62 403.52,788.62" fill="#2196F3" fill-opacity="0.45" stroke="#2196F3" stroke-width="0.8"/>
<text x="498.2" y="705.4" fill="#fff" font-size="9" text-anchor="middle" dominant-baseline="middle" font-family="Segoe UI, sans-serif" paint-order="stroke" stroke="#000" stroke-width="2" pointer-events="none">SLAB-058</text>
<polygon class="slab-poly" data-slab-id="SLAB-059" points="1228.89,625.26 1228.89,785.56 1228.89,788.62 1228.89,917.93 1041.10,917.93 1041.10,802.53 1011.97,802.53 1011.97,607.60 1041.10,607.60 1041.10,529.74 1228.89,529.74 1228.89,622.20 1228.89,625.26" fill="#FF9800" fill-opacity="0.45" stroke="#FF9800" stroke-width="0.8"/>
<text x="1127.2" y="722.5" fill="#fff" font-size="9" text-anchor="middle" dominant-baseline="middle" font-family="Segoe UI, sans-serif" paint-order="stroke" stroke="#000" stroke-width="2" pointer-events="none">SLAB-059</text>
<polygon class="slab-poly" data-slab-id="SLAB-060" points="268.42,837.28 268.42,636.80 394.07,636.80 394.07,837.28 268.42,837.28" fill="#2196F3" fill-opacity="0.45" stroke="#2196F3" stroke-width="0.8"/>
<text x="331.2" y="737.0" fill="#fff" font-size="9" text-anchor="middle" dominant-baseline="middle" font-family="Segoe UI, sans-serif" paint-order="stroke" stroke="#000" stroke-width="2" pointer-events="none">SLAB-060</text>
<polygon class="slab-poly" data-slab-id="SLAB-061" points="1431.42,802.53 1431.42,917.93 1379.28,917.93 1376.22,917.93 1239.73,917.93 1239.73,802.53 1239.73,799.47 1239.73,610.66 1239.73,607.60 1239.73,542.25 1379.28,542.25 1379.28,607.60 1431.42,607.60 1431.42,799.47 1431.42,802.53" fill="#FF9800" fill-opacity="0.45" stroke="#FF9800" stroke-width="0.8"/>
<text x="1332.1" y="737.8" fill="#fff" font-size="9" text-anchor="middle" dominant-baseline="middle" font-family="Segoe UI, sans-serif" paint-order="stroke" stroke="#000" stroke-width="2" pointer-events="none">SLAB-061</text>
<polygon class="slab-poly" data-slab-id="SLAB-062" points="403.52,785.56 592.81,785.56 592.81,917.93 403.52,917.93 403.52,785.56" fill="#FF9800" fill-opacity="0.45" stroke="#FF9800" stroke-width="0.8"/>
<text x="498.2" y="851.7" fill="#fff" font-size="9" text-anchor="middle" dominant-baseline="middle" font-family="Segoe UI, sans-serif" paint-order="stroke" stroke="#000" stroke-width="2" pointer-events="none">SLAB-062</text>
<polygon class="slab-poly" data-slab-id="SLAB-063" points="123.88,799.47 226.61,799.47 226.61,785.56 271.48,785.56 271.48,917.93 229.67,917.93 226.61,917.93 123.88,917.93 123.88,799.47" fill="#FF9800" fill-opacity="0.45" stroke="#FF9800" stroke-width="0.8"/>
<text x="199.4" y="856.4" fill="#fff" font-size="9" text-anchor="middle" dominant-baseline="middle" font-family="Segoe UI, sans-serif" paint-order="stroke" stroke="#000" stroke-width="2" pointer-events="none">SLAB-063</text>
<polygon class="slab-poly" data-slab-id="SLAB-064" points="913.87,799.47 916.93,799.47 1015.03,799.47 1015.03,917.93 916.93,917.93 913.87,917.93 761.80,917.93 761.80,799.47 913.87,799.47" fill="#2196F3" fill-opacity="0.45" stroke="#2196F3" stroke-width="0.8"/>
<text x="888.4" y="858.7" fill="#fff" font-size="9" text-anchor="middle" dominant-baseline="middle" font-family="Segoe UI, sans-serif" paint-order="stroke" stroke="#000" stroke-width="2" pointer-events="none">SLAB-064</text>
<polygon class="slab-poly" data-slab-id="SLAB-065" points="268.42,917.93 268.42,834.23 394.07,834.23 394.07,917.93 268.42,917.93" fill="#FF9800" fill-opacity="0.45" stroke="#FF9800" stroke-width="0.8"/>
<text x="331.2" y="876.1" fill="#fff" font-size="9" text-anchor="middle" dominant-baseline="middle" font-family="Segoe UI, sans-serif" paint-order="stroke" stroke="#000" stroke-width="2" pointer-events="none">SLAB-065</text>
<polygon class="slab-poly" data-slab-id="SLAB-066" points="1376.22,914.87 1379.28,914.87 1428.37,914.87 1428.37,799.47 1575.12,799.47 1575.12,914.87 1575.12,917.93 1575.12,928.94 1573.59,928.94 1573.59,1017.92 1575.12,1017.92 1575.12,1134.13 1431.42,1134.13 1428.37,1134.13 1379.28,1134.13 1376.22,1134.13 1239.73,1134.13 1239.73,914.87 1376.22,914.87" fill="#2196F3" fill-opacity="0.45" stroke="#2196F3" stroke-width="0.8"/>
<text x="1424.9" y="993.2" fill="#fff" font-size="9" text-anchor="middle" dominant-baseline="middle" font-family="Segoe UI, sans-serif" paint-order="stroke" stroke="#000" stroke-width="2" pointer-events="none">SLAB-066</text>
<polygon class="slab-poly" data-slab-id="SLAB-067" points="916.93,914.87 946.65,914.87 949.71,914.87 1011.97,914.87 1015.03,914.87 1041.10,914.87 1044.16,914.87 1228.89,914.87 1228.89,1134.13 1044.16,1134.13 1041.10,1134.13 1015.03,1134.13 1011.97,1134.13 949.71,1134.13 946.65,1134.13 916.93,1134.13 913.87,1134.13 761.80,1134.13 761.80,914.87 913.87,914.87 916.93,914.87" fill="#2196F3" fill-opacity="0.45" stroke="#2196F3" stroke-width="0.8"/>
<text x="995.3" y="1024.5" fill="#fff" font-size="9" text-anchor="middle" dominant-baseline="middle" font-family="Segoe UI, sans-serif" paint-order="stroke" stroke="#000" stroke-width="2" pointer-events="none">SLAB-067</text>
<polygon class="slab-poly" data-slab-id="SLAB-068" points="229.67,914.87 268.42,914.87 271.48,914.87 319.72,914.87 322.78,914.87 394.07,914.87 394.07,1134.13 322.78,1134.13 319.72,1134.13 271.48,1134.13 268.42,1134.13 229.67,1134.13 226.61,1134.13 123.88,1134.13 123.88,1017.92 125.41,1017.92 125.41,928.94 123.88,928.94 123.88,914.87 226.61,914.87 229.67,914.87" fill="#2196F3" fill-opacity="0.45" stroke="#2196F3" stroke-width="0.8"/>
<text x="259.3" y="1024.6" fill="#fff" font-size="9" text-anchor="middle" dominant-baseline="middle" font-family="Segoe UI, sans-serif" paint-order="stroke" stroke="#000" stroke-width="2" pointer-events="none">SLAB-068</text>
<polygon class="slab-poly" data-slab-id="SLAB-069" points="109.98,1554.10 109.98,1169.16 125.55,1169.16 125.55,1554.10 109.98,1554.10" fill="#2196F3" fill-opacity="0.45" stroke="#2196F3" stroke-width="0.8"/>
</svg>