<svg xmlns="http://www.w3.org/2000/svg" width="3200" height="1600" viewBox="0 0 3200 1600">
<rect width="100%" height="100%" fill="#121212"/>
<text x="16" y="28" fill="#e0e0e0" font-size="18" font-family="Segoe UI, sans-serif" font-weight="600">SDIE v3.3 — Inizio_Terrace_LayerTest.dxf</text>
<text x="16" y="50" fill="#9e9e9e" font-size="13" font-family="Segoe UI, sans-serif">12 bays · 169.2 m² · 33.8 m³</text>
<polygon points="593.76,1024.09 593.76,1054.84 416.19,1054.84 416.19,1024.09 593.76,1024.09" fill="#B71C1C" fill-opacity="0.45" stroke="#EF5350" stroke-width="0.5"/>
<polygon points="319.78,1070.21 325.14,1070.21 325.14,1054.83 335.85,1054.83 335.85,1054.83 381.37,1054.83 381.37,1054.83 400.12,1054.83 400.12,1070.21 405.47,1070.20 405.52,1300.81 400.12,1300.81 400.12,1316.19 399.00,1316.19 410.83,1316.19 410.83,1070.21 416.19,1070.21 416.19,1054.84 593.76,1054.84 593.76,1085.58 421.54,1085.58 421.54,1331.56 416.19,1331.56 416.19,1346.94 85.48,1346.94 85.48,1331.56 80.12,1331.56 80.12,451.38 90.83,451.38 90.83,1316.19 101.44,1316.19 101.44,1301.18 96.19,1301.18 96.19,1070.52 101.54,1070.52 101.54,1055.14 185.89,1055.14 314.42,1054.83 314.43,1070.21 319.78,1070.21 319.78,1300.76 319.78,1070.21" fill="#B71C1C" fill-opacity="0.45" stroke="#EF5350" stroke-width="0.5"/>
<polygon points="595.60,891.07 595.60,860.33 714.19,860.33 714.19,891.07 595.60,891.07" fill="#B71C1C" fill-opacity="0.45" stroke="#EF5350" stroke-width="0.5"/>
<polygon points="714.19,860.32 595.60,860.33 595.60,829.58 714.19,829.58 714.19,860.32" fill="#B71C1C" fill-opacity="0.45" stroke="#EF5350" stroke-width="0.5"/>
<polygon points="839.51,808.85 730.26,808.85 730.26,778.11 839.51,778.11 839.51,808.85" fill="#B71C1C" fill-opacity="0.45" stroke="#EF5350" stroke-width="0.5"/>
<polygon points="770.42,762.73 735.61,762.73 735.61,731.99 770.42,731.99 770.42,762.73" fill="#B71C1C" fill-opacity="0.45" stroke="#EF5350" stroke-width="0.5"/>
<polygon points="101.54,1039.80 101.54,1024.42 96.19,1024.42 96.19,451.38 106.90,451.38 106.90,1009.05 178.10,1009.05 178.10,1039.80 101.54,1039.80" fill="#B71C1C" fill-opacity="0.45" stroke="#EF5350" stroke-width="0.5"/>
<polygon points="303.72,912.60 303.72,451.38 314.43,451.38 319.78,451.38 319.78,436.01 400.12,436.01 400.12,451.38 405.47,451.38 405.47,624.71 400.12,624.71 400.12,640.08 400.12,670.83 325.14,670.83 325.14,1009.05 400.12,1009.05 400.12,1039.80 235.43,1039.80 235.43,1009.05 274.80,1009.05 274.80,927.97 280.15,927.97 280.15,912.60 303.72,912.60" fill="#B71C1C" fill-opacity="0.45" stroke="#EF5350" stroke-width="0.5"/>
<polygon points="714.19,712.74 595.60,712.74 595.60,681.99 714.19,681.99 714.19,712.74" fill="#B71C1C" fill-opacity="0.45" stroke="#EF5350" stroke-width="0.5"/>
<polygon points="714.19,681.99 595.60,681.99 595.60,651.24 714.19,651.24 714.19,681.99" fill="#B71C1C" fill-opacity="0.45" stroke="#EF5350" stroke-width="0.5"/>
<polygon points="410.83,624.71 410.83,451.38 421.54,451.38 421.54,624.70 410.83,624.71" fill="#B71C1C" fill-opacity="0.45" stroke="#EF5350" stroke-width="0.5"/>
<polygon points="400.12,420.64 319.79,420.70 319.78,389.95 400.12,389.89 400.12,420.64" fill="#B71C1C" fill-opacity="0.45" stroke="#EF5350" stroke-width="0.5"/>
<polygon points="172.74,-102.07 183.46,-102.07 183.46,405.26 172.74,405.26 172.74,-102.07" fill="#B71C1C" fill-opacity="0.45" stroke="#EF5350" stroke-width="0.5"/>
<polygon points="208.09,-102.07 208.09,405.26 197.38,405.26 197.38,-102.07 208.09,-102.07" fill="#B71C1C" fill-opacity="0.45" stroke="#EF5350" stroke-width="0.5"/>
<polygon points="427.13,-870.77 467.30,-870.77 467.30,-855.39 472.65,-855.39 472.65,-809.09 467.30,-809.09 467.30,-793.72 427.13,-793.72 427.13,-809.09 421.77,-809.09 421.77,-855.39 427.13,-855.39 427.13,-870.77" fill="#B71C1C" fill-opacity="0.45" stroke="#EF5350" stroke-width="0.5"/>
<polygon points="504.81,-809.27 499.45,-809.27 499.45,-793.90 494.07,-793.90 494.07,-809.27 488.72,-809.27 488.72,-855.39 494.07,-855.39 494.07,-870.77 499.45,-870.77 499.45,-855.39 504.81,-855.39 504.81,-809.27" fill="#B71C1C" fill-opacity="0.45" stroke="#EF5350" stroke-width="0.5"/>
<polygon points="392.83,-870.93 392.83,-855.55 398.19,-855.55 398.19,-809.43 392.83,-809.43 392.83,-794.06 204.94,-794.06 204.94,-809.43 199.58,-809.43 199.58,-855.55 204.94,-855.55 204.94,-870.93 392.83,-870.93" fill="#B71C1C" fill-opacity="0.45" stroke="#EF5350" stroke-width="0.5"/>
<polygon points="1766.02,1200.89 1433.98,1200.89 1433.98,1170.14 1766.02,1170.14 1766.02,1200.89" fill="#B71C1C" fill-opacity="0.45" stroke="#EF5350" stroke-width="0.5"/>
<polygon points="1766.02,1124.02 1766.02,1154.77 1433.98,1154.77 1433.98,1124.02 1766.02,1124.02" fill="#B71C1C" fill-opacity="0.45" stroke="#EF5350" stroke-width="0.5"/>
<polygon points="2604.40,829.58 2604.40,860.33 2485.81,860.32 2485.81,829.58 2604.40,829.58" fill="#B71C1C" fill-opacity="0.45" stroke="#EF5350" stroke-width="0.5"/>
<polygon points="2360.49,778.11 2469.74,778.11 2469.74,808.85 2360.49,808.85 2360.49,778.11" fill="#B71C1C" fill-opacity="0.45" stroke="#EF5350" stroke-width="0.5"/>
<polygon points="2429.58,731.99 2464.39,731.99 2464.39,762.73 2429.58,762.73 2429.58,731.99" fill="#B71C1C" fill-opacity="0.45" stroke="#EF5350" stroke-width="0.5"/>
<polygon points="1883.85,532.13 1883.85,562.87 1819.58,562.87 1819.58,532.13 1883.85,532.13" fill="#B71C1C" fill-opacity="0.45" stroke="#EF5350" stroke-width="0.5"/>
<polygon points="1380.42,562.87 1316.15,562.87 1316.15,532.13 1380.42,532.13 1380.42,562.87" fill="#B71C1C" fill-opacity="0.45" stroke="#EF5350" stroke-width="0.5"/>
<polygon points="1883.85,486.00 1883.85,516.75 1819.58,516.75 1819.58,486.01 1883.85,486.00" fill="#B71C1C" fill-opacity="0.45" stroke="#EF5350" stroke-width="0.5"/>
<polygon points="1380.42,486.01 1380.42,516.75 1316.15,516.75 1316.15,486.00 1380.42,486.01" fill="#B71C1C" fill-opacity="0.45" stroke="#EF5350" stroke-width="0.5"/>
<polygon points="1737.10,276.12 1737.10,291.50 1742.46,291.50 1747.81,291.50 1747.81,276.12 1766.02,276.12 1766.02,306.87 1753.17,306.87 1753.17,469.83 1766.02,469.83 1766.02,500.58 1766.02,500.58 1766.02,531.33 1737.10,531.33 1737.10,515.95 1731.75,515.95 1731.75,306.87 1433.98,306.87 1433.98,276.12 1737.10,276.12" fill="#B71C1C" fill-opacity="0.45" stroke="#EF5350" stroke-width="0.5"/>
<polygon points="1926.69,251.52 1937.40,251.52 1937.40,501.38 1926.69,501.38 1926.69,251.52" fill="#B71C1C" fill-opacity="0.45" stroke="#EF5350" stroke-width="0.5"/>
<polygon points="1273.31,501.38 1262.60,501.38 1262.60,251.52 1273.31,251.52 1273.31,501.38" fill="#B71C1C" fill-opacity="0.45" stroke="#EF5350" stroke-width="0.5"/>
<polygon points="1910.62,501.38 1910.62,251.52 1921.33,251.52 1921.33,501.38 1910.62,501.38" fill="#B71C1C" fill-opacity="0.45" stroke="#EF5350" stroke-width="0.5"/>
<polygon points="1278.67,501.38 1278.67,251.52 1289.38,251.52 1289.38,501.38 1278.67,501.38" fill="#B71C1C" fill-opacity="0.45" stroke="#EF5350" stroke-width="0.5"/>
<polygon points="1600.00,230.00 1600.00,260.75 1433.98,260.75 1433.98,230.00 1600.00,230.00" fill="#B71C1C" fill-opacity="0.45" stroke="#EF5350" stroke-width="0.5"/>
<polygon points="1766.02,260.75 1610.71,260.75 1610.71,230.00 1766.02,230.00 1766.02,260.75" fill="#B71C1C" fill-opacity="0.45" stroke="#EF5350" stroke-width="0.5"/>
<polygon points="2497.06,-855.39 2502.41,-855.39 2502.41,-809.27 2497.06,-809.27 2497.06,-594.04 2491.70,-594.04 2491.70,-578.66 2480.99,-578.66 2480.99,-594.04 2475.64,-594.04 2475.64,-793.90 2440.83,-793.90 2440.83,-809.27 2435.47,-809.27 2435.47,-855.39 2440.83,-855.39 2440.83,-870.77 2497.06,-870.77 2497.06,-855.39" fill="#B71C1C" fill-opacity="0.45" stroke="#EF5350" stroke-width="0.5"/>
<polygon points="2606.24,1054.84 2606.24,1024.09 2783.81,1024.09 2783.81,1054.84 2606.24,1054.84" fill="#B71C1C" fill-opacity="0.45" stroke="#EF5350" stroke-width="0.5"/>
<polygon points="2864.15,1054.83 2874.86,1054.83 2874.86,1070.21 2880.22,1070.21 2880.22,1299.92 2880.22,1070.21 2885.57,1070.21 2885.58,1054.83 3014.11,1055.14 3098.46,1055.14 3098.46,1070.52 3103.81,1070.52 3103.81,1301.18 3098.56,1301.18 3098.56,1316.19 3109.17,1316.19 3109.17,451.38 3119.88,451.38 3119.88,1331.56 3114.52,1331.56 3114.52,1346.94 2783.81,1346.94 2783.81,1331.56 2778.46,1331.56 2778.46,1085.58 2606.24,1085.58 2606.24,1054.84 2783.81,1054.84 2783.81,1070.21 2789.17,1070.21 2789.17,1316.19 2801.00,1316.19 2799.88,1316.19 2799.88,1300.81 2794.48,1300.81 2794.53,1070.20 2799.88,1070.21 2799.88,1054.83 2818.63,1054.83 2818.63,1054.83 2864.15,1054.83 2864.15,1054.83" fill="#B71C1C" fill-opacity="0.45" stroke="#EF5350" stroke-width="0.5"/>
<polygon points="2604.40,860.33 2604.40,891.07 2485.81,891.07 2485.81,860.33 2604.40,860.33" fill="#B71C1C" fill-opacity="0.45" stroke="#EF5350" stroke-width="0.5"/>
<polygon points="3019.46,927.97 3024.82,927.97 3024.82,912.60 3093.10,912.60 3093.10,451.38 3103.81,451.38 3103.81,927.97 3103.81,927.97 3103.81,952.57 3103.81,952.57 3103.81,1024.42 3098.46,1024.42 3098.46,1039.80 3021.90,1039.80 3021.90,1009.05 3093.10,1009.05 3093.10,967.94 3024.82,967.94 3024.82,952.57 3019.46,952.57 3019.46,927.97" fill="#B71C1C" fill-opacity="0.45" stroke="#EF5350" stroke-width="0.5"/>
<polygon points="2885.57,451.38 2896.28,451.38 2896.28,912.60 2919.85,912.60 2919.85,927.97 2925.20,927.97 2925.20,1009.05 2964.57,1009.05 2964.57,1039.80 2799.88,1039.80 2799.88,1009.05 2874.86,1009.05 2874.86,670.83 2799.88,670.83 2799.88,640.08 2799.88,624.71 2794.53,624.71 2794.53,451.38 2799.88,451.38 2799.88,436.01 2880.22,436.01 2880.22,451.38 2885.57,451.38 2885.57,451.38" fill="#B71C1C" fill-opacity="0.45" stroke="#EF5350" stroke-width="0.5"/>
<polygon points="2485.81,681.99 2604.40,681.99 2604.40,712.74 2485.81,712.74 2485.81,681.99" fill="#B71C1C" fill-opacity="0.45" stroke="#EF5350" stroke-width="0.5"/>
<polygon points="2485.81,651.24 2604.40,651.24 2604.40,681.99 2485.81,681.99 2485.81,651.24" fill="#B71C1C" fill-opacity="0.45" stroke="#EF5350" stroke-width="0.5"/>
<polygon points="2778.46,624.70 2778.46,451.38 2789.17,451.38 2789.17,624.71 2778.46,624.70" fill="#B71C1C" fill-opacity="0.45" stroke="#EF5350" stroke-width="0.5"/>
<polygon points="2880.22,389.95 2880.21,420.70 2799.88,420.64 2799.88,389.89 2880.22,389.95" fill="#B71C1C" fill-opacity="0.45" stroke="#EF5350" stroke-width="0.5"/>
<polygon points="3002.62,-102.07 3002.62,405.26 2991.91,405.26 2991.91,-102.07 3002.62,-102.07" fill="#B71C1C" fill-opacity="0.45" stroke="#EF5350" stroke-width="0.5"/>
<polygon points="3027.26,-102.07 3027.26,405.26 3016.55,405.26 3016.55,-102.07 3027.26,-102.07" fill="#B71C1C" fill-opacity="0.45" stroke="#EF5350" stroke-width="0.5"/>
<polygon points="3085.63,-148.20 3085.63,405.26 3074.92,405.26 3074.92,-148.20 3085.63,-148.20" fill="#B71C1C" fill-opacity="0.45" stroke="#EF5350" stroke-width="0.5"/>
<polygon points="2732.70,-870.77 2773.96,-870.77 2773.96,-855.39 2779.32,-855.39 2779.32,-809.09 2773.96,-809.09 2773.96,-793.72 2732.70,-793.72 2732.70,-809.09 2727.35,-809.09 2727.35,-855.39 2732.70,-855.39 2732.70,-870.77" fill="#B71C1C" fill-opacity="0.45" stroke="#EF5350" stroke-width="0.5"/>
<polygon points="2711.28,-855.39 2711.28,-809.27 2705.93,-809.27 2705.93,-793.90 2700.55,-793.90 2700.55,-809.27 2695.19,-809.27 2695.19,-855.39 2700.55,-855.39 2700.55,-870.77 2705.93,-870.77 2705.93,-855.39 2711.28,-855.39" fill="#B71C1C" fill-opacity="0.45" stroke="#EF5350" stroke-width="0.5"/>
<polygon points="2572.04,-855.39 2577.39,-855.39 2577.39,-870.77 2666.81,-870.77 2666.81,-855.39 2672.16,-855.39 2672.16,-809.27 2666.81,-809.27 2666.81,-793.90 2577.39,-793.90 2577.39,-809.27 2572.04,-809.27 2572.04,-855.39" fill="#B71C1C" fill-opacity="0.45" stroke="#EF5350" stroke-width="0.5"/>
<polygon points="3000.42,-809.43 2995.06,-809.43 2995.06,-794.06 2807.70,-794.06 2807.70,-809.43 2802.35,-809.43 2802.35,-855.55 2807.70,-855.55 2807.70,-870.93 2995.06,-870.93 2995.06,-855.55 3000.42,-855.55 3000.42,-809.43" fill="#B71C1C" fill-opacity="0.45" stroke="#EF5350" stroke-width="0.5"/>
<polygon points="205.68,920.34 175.18,920.34 175.15,920.35 175.15,459.07 178.10,459.07 205.68,459.07 205.68,920.34" fill="#2196F3" fill-opacity="0.4" stroke="#2196F3" stroke-width="1.5" stroke-opacity="0.9"/>
<text x="190.4" y="689.7" fill="#fff" font-size="10" text-anchor="middle" dominant-baseline="middle" font-family="Segoe UI, sans-serif" paint-order="stroke" stroke="#000" stroke-width="3">SLAB-001 200mm</text>
<polygon points="3024.85,920.35 3024.82,920.34 2994.32,920.34 2994.32,459.07 3021.90,459.07 3024.85,459.07 3024.85,920.35" fill="#2196F3" fill-opacity="0.4" stroke="#2196F3" stroke-width="1.5" stroke-opacity="0.9"/>
<text x="3009.6" y="689.7" fill="#fff" font-size="10" text-anchor="middle" dominant-baseline="middle" font-family="Segoe UI, sans-serif" paint-order="stroke" stroke="#000" stroke-width="3">SLAB-002 200mm</text>
<polygon points="711.51,1036.24 711.51,1070.21 711.53,1070.96 711.57,1071.71 711.63,1072.44 711.72,1073.15 711.83,1073.83 711.96,1074.48 712.12,1075.09 712.30,1075.64 712.49,1076.15 712.70,1076.60 712.93,1076.99 713.17,1077.31 713.41,1077.56 713.67,1077.75 713.93,1077.86 714.19,1077.90 730.26,1077.90 839.51,1077.90 860.93,1077.90 1267.95,1077.90 1409.88,1077.90 1409.88,1170.91 311.48,1170.91 311.48,1036.24 397.44,1036.24 397.44,1070.21 397.45,1070.96 397.49,1071.71 397.56,1072.44 397.64,1073.15 397.76,1073.83 397.89,1074.48 398.05,1075.09 398.22,1075.64 398.42,1076.15 398.63,1076.60 398.86,1076.99 399.09,1077.31 399.34,1077.56 399.60,1077.75 399.86,1077.86 400.12,1077.90 416.19,1077.90 416.45,1077.86 416.71,1077.75 416.96,1077.56 417.21,1077.31 417.45,1076.99 417.67,1076.60 417.89,1076.15 418.08,1075.64 418.26,1075.09 418.41,1074.48 418.55,1073.83 418.66,1073.15 418.75,1072.44 418.81,1071.71 418.85,1070.96 418.86,1070.21 418.86,1036.24 576.85,1036.24 576.85,1070.21 576.87,1070.96 576.90,1071.71 576.97,1072.44 577.06,1073.15 577.17,1073.83 577.30,1074.48 577.46,1075.09 577.64,1075.64 577.83,1076.15 578.04,1076.60 578.27,1076.99 578.51,1077.31 578.75,1077.56 579.01,1077.75 579.27,1077.86 579.53,1077.90 595.60,1077.90 595.86,1077.86 596.12,1077.75 596.37,1077.56 596.62,1077.31 596.86,1076.99 597.08,1076.60 597.30,1076.15 597.49,1075.64 597.67,1075.09 597.82,1074.48 597.96,1073.83 598.07,1073.15 598.16,1072.44 598.22,1071.71 598.26,1070.96 598.27,1070.21 598.27,1036.24 711.51,1036.24" fill="#2196F3" fill-opacity="0.4" stroke="#2196F3" stroke-width="1.5" stroke-opacity="0.9"/>
<text x="816.4" y="1115.8" fill="#fff" font-size="10" text-anchor="middle" dominant-baseline="middle" font-family="Segoe UI, sans-serif" paint-order="stroke" stroke="#000" stroke-width="3">SLAB-003 200mm</text>
<polygon points="2336.39,259.98 2336.39,924.15 2336.39,1001.03 1934.72,1001.03 1934.72,501.38 1934.72,501.38 1934.72,501.38 1934.72,501.00 1934.71,500.62 1934.71,500.62 1934.71,500.62 1934.69,500.25 1934.67,499.88 1934.67,499.88 1934.67,499.88 1934.64,499.51 1934.61,499.15 1934.61,499.15 1934.61,499.15 1934.56,498.79 1934.52,498.44 1934.52,498.44 1934.52,498.44 1934.46,498.10 1934.41,497.75 1934.41,497.75 1934.41,497.75 1934.34,497.43 1934.27,497.11 1934.27,497.11 1934.27,497.11 1934.19,496.80 1934.12,496.50 1934.12,496.50 1934.12,496.50 1934.03,496.22 1933.94,495.94 1933.94,495.94 1933.94,495.94 1933.84,495.69 1933.74,495.44 1933.74,495.44 1933.74,495.44 1933.64,495.21 1933.53,494.99 1933.53,494.99 1933.53,494.99 1933.42,494.79 1933.31,494.60 1933.31,494.60 1933.31,494.60 1933.19,494.44 1933.07,494.28 1933.07,494.28 1933.07,494.28 1932.95,494.15 1932.82,494.02 1932.82,494.02 1932.82,494.02 1932.70,493.93 1932.57,493.84 1932.57,493.84 1932.57,493.84 1932.44,493.78 1932.31,493.73 1932.31,493.73 1932.31,493.73 1932.18,493.71 1932.05,493.69 1932.05,493.69 1932.05,493.69 1883.85,493.69 1883.58,493.73 1883.32,493.84 1883.07,494.02 1882.82,494.28 1882.58,494.60 1882.36,494.99 1882.15,495.44 1881.95,495.94 1881.78,496.50 1881.62,497.11 1881.48,497.75 1881.37,498.44 1881.28,499.15 1881.22,499.88 1881.18,500.62 1881.17,501.38 1881.17,547.50 1881.18,548.25 1881.22,549.00 1881.28,549.73 1881.37,550.44 1881.48,551.12 1881.62,551.77 1881.78,552.38 1881.95,552.94 1882.15,553.44 1882.36,553.89 1882.58,554.28 1882.82,554.60 1883.07,554.86 1883.32,555.04 1883.58,555.15 1883.85,555.19 1913.30,555.19 1913.30,1001.03 1790.12,1001.03 1790.12,555.19 1819.58,555.19 1819.84,555.15 1820.10,555.04 1820.36,554.86 1820.60,554.60 1820.84,554.28 1821.07,553.89 1821.28,553.44 1821.47,552.94 1821.65,552.38 1821.80,551.77 1821.94,551.12 1822.05,550.44 1822.14,549.73 1822.20,549.00 1822.24,548.25 1822.26,547.50 1822.26,501.38 1822.24,500.63 1822.20,499.88 1822.14,499.15 1822.05,498.44 1821.94,497.76 1821.80,497.11 1821.65,496.50 1821.47,495.94 1821.28,495.44 1821.07,494.99 1820.84,494.60 1820.60,494.28 1820.36,494.02 1820.10,493.84 1819.84,493.73 1819.58,493.69 1790.12,493.69 1790.12,259.98 2336.39,259.98" fill="#2196F3" fill-opacity="0.4" stroke="#2196F3" stroke-width="1.5" stroke-opacity="0.9"/>
<text x="2069.3" y="628.3" fill="#fff" font-size="10" text-anchor="middle" dominant-baseline="middle" font-family="Segoe UI, sans-serif" paint-order="stroke" stroke="#000" stroke-width="3">SLAB-004 200mm</text>
<polygon points="3000.21,920.34 2963.23,920.34 2962.96,920.38 2962.70,920.49 2962.45,920.68 2962.20,920.93 2961.96,921.25 2961.74,921.64 2961.53,922.09 2961.33,922.60 2961.16,923.15 2961.00,923.76 2960.87,924.41 2960.75,925.09 2960.66,925.80 2960.60,926.53 2960.56,927.28 2960.55,928.03 2960.55,1053.15 2882.63,1053.15 2882.63,459.07 3000.21,459.07 3000.21,920.34" fill="#2196F3" fill-opacity="0.4" stroke="#2196F3" stroke-width="1.5" stroke-opacity="0.9"/>
<text x="2938.2" y="737.3" fill="#fff" font-size="10" text-anchor="middle" dominant-baseline="middle" font-family="Segoe UI, sans-serif" paint-order="stroke" stroke="#000" stroke-width="3">SLAB-005 200mm</text>
<polygon points="3000.21,1170.91 2882.63,1170.91 2882.63,1036.24 2960.55,1036.24 2960.55,1070.21 2960.56,1070.96 2960.60,1071.71 2960.66,1072.44 2960.75,1073.15 2960.87,1073.83 2961.00,1074.48 2961.16,1075.09 2961.33,1075.64 2961.53,1076.15 2961.74,1076.60 2961.96,1076.99 2962.20,1077.31 2962.45,1077.56 2962.70,1077.75 2962.96,1077.86 2963.23,1077.90 3000.21,1077.90 3000.21,1170.91" fill="#2196F3" fill-opacity="0.4" stroke="#2196F3" stroke-width="1.5" stroke-opacity="0.9"/>
<text x="2936.9" y="1109.0" fill="#fff" font-size="10" text-anchor="middle" dominant-baseline="middle" font-family="Segoe UI, sans-serif" paint-order="stroke" stroke="#000" stroke-width="3">SLAB-006 200mm</text>
<polygon points="3000.21,1154.00 3018.96,1154.00 3018.96,1077.90 3024.82,1077.90 3025.08,1077.86 3025.34,1077.75 3025.59,1077.56 3025.84,1077.31 3026.08,1076.99 3026.30,1076.60 3026.51,1076.15 3026.71,1075.64 3026.89,1075.09 3027.04,1074.48 3027.18,1073.83 3027.29,1073.15 3027.38,1072.44 3027.44,1071.71 3027.48,1070.96 3027.49,1070.21 3027.49,1053.15 3027.49,1036.24 3027.49,928.03 3027.48,927.28 3027.44,926.53 3027.38,925.80 3027.29,925.09 3027.18,924.41 3027.04,923.76 3026.89,923.15 3026.71,922.60 3026.51,922.09 3026.30,921.64 3026.08,921.25 3025.84,920.93 3025.59,920.68 3025.34,920.49 3025.08,920.38 3024.82,920.34 3018.96,920.34 3018.96,459.07 3021.90,459.07 3077.33,459.07 3083.22,459.07 3109.43,459.07 3109.43,1036.24 3109.43,1053.15 3109.43,1154.00 3109.43,1170.91 3109.43,1340.02 3083.22,1340.02 3077.33,1340.02 3024.85,1340.02 3018.96,1340.02 3000.21,1340.02 2994.32,1340.02 2882.63,1340.02 2882.63,1154.00 2994.32,1154.00 3000.21,1154.00" fill="#2196F3" fill-opacity="0.4" stroke="#2196F3" stroke-width="1.5" stroke-opacity="0.9"/>
<text x="3037.0" y="983.2" fill="#fff" font-size="10" text-anchor="middle" dominant-baseline="middle" font-family="Segoe UI, sans-serif" paint-order="stroke" stroke="#000" stroke-width="3">SLAB-007 200mm</text>
<polygon points="317.37,1053.15 239.45,1053.15 239.45,928.03 239.44,927.28 239.40,926.53 239.34,925.80 239.25,925.09 239.13,924.41 239.00,923.76 238.84,923.15 238.67,922.60 238.47,922.09 238.26,921.64 238.04,921.25 237.80,920.93 237.55,920.68 237.30,920.49 237.04,920.38 236.77,920.34 199.79,920.34 199.79,459.07 317.37,459.07 317.37,1053.15" fill="#2196F3" fill-opacity="0.4" stroke="#2196F3" stroke-width="1.5" stroke-opacity="0.9"/>
<text x="261.8" y="737.3" fill="#fff" font-size="10" text-anchor="middle" dominant-baseline="middle" font-family="Segoe UI, sans-serif" paint-order="stroke" stroke="#000" stroke-width="3">SLAB-008 200mm</text>
<polygon points="317.37,1036.24 317.37,1170.91 199.79,1170.91 199.79,1077.90 236.77,1077.90 237.04,1077.86 237.30,1077.75 237.55,1077.56 237.80,1077.31 238.04,1076.99 238.26,1076.60 238.47,1076.15 238.67,1075.64 238.84,1075.09 239.00,1074.48 239.13,1073.83 239.25,1073.15 239.34,1072.44 239.40,1071.71 239.44,1070.96 239.45,1070.21 239.45,1036.24 317.37,1036.24" fill="#2196F3" fill-opacity="0.4" stroke="#2196F3" stroke-width="1.5" stroke-opacity="0.9"/>
<text x="263.1" y="1109.0" fill="#fff" font-size="10" text-anchor="middle" dominant-baseline="middle" font-family="Segoe UI, sans-serif" paint-order="stroke" stroke="#000" stroke-width="3">SLAB-009 200mm</text>
<polygon points="205.68,1154.00 205.68,1340.02 181.05,1340.02 175.15,1340.02 90.57,1340.02 90.57,1170.91 90.57,1154.00 90.57,1053.15 90.57,1036.24 90.57,459.07 178.10,459.07 181.05,459.07 181.05,920.34 175.18,920.34 174.92,920.38 174.66,920.49 174.41,920.68 174.16,920.93 173.92,921.25 173.70,921.64 173.49,922.09 173.29,922.60 173.11,923.15 172.96,923.76 172.82,924.41 172.71,925.09 172.62,925.80 172.56,926.53 172.52,927.28 172.51,928.03 172.51,1036.24 172.51,1053.15 172.51,1070.21 172.52,1070.96 172.56,1071.71 172.62,1072.44 172.71,1073.15 172.82,1073.83 172.96,1074.48 173.11,1075.09 173.29,1075.64 173.49,1076.15 173.70,1076.60 173.92,1076.99 174.16,1077.31 174.41,1077.56 174.66,1077.75 174.92,1077.86 175.18,1077.90 181.05,1077.90 181.05,1154.00 205.68,1154.00" fill="#2196F3" fill-opacity="0.4" stroke="#2196F3" stroke-width="1.5" stroke-opacity="0.9"/>
<text x="138.3" y="917.1" fill="#fff" font-size="10" text-anchor="middle" dominant-baseline="middle" font-family="Segoe UI, sans-serif" paint-order="stroke" stroke="#000" stroke-width="3">SLAB-010 200mm</text>
<polygon points="199.79,1340.02 199.79,1154.00 317.37,1154.00 317.37,1340.02 199.79,1340.02" fill="#2196F3" fill-opacity="0.4" stroke="#2196F3" stroke-width="1.5" stroke-opacity="0.9"/>
<text x="258.6" y="1247.0" fill="#fff" font-size="10" text-anchor="middle" dominant-baseline="middle" font-family="Segoe UI, sans-serif" paint-order="stroke" stroke="#000" stroke-width="3">SLAB-011 200mm</text>
<polygon points="2888.52,1154.00 2888.52,1340.02 311.48,1340.02 311.48,1154.00 1409.88,1154.00 1409.88,1185.51 1409.89,1186.27 1409.93,1187.01 1409.99,1187.74 1410.08,1188.45 1410.19,1189.14 1410.33,1189.78 1410.49,1190.39 1410.66,1190.95 1410.86,1191.45 1411.07,1191.90 1411.29,1192.29 1411.53,1192.61 1411.78,1192.87 1412.03,1193.05 1412.29,1193.16 1412.55,1193.20 1433.98,1193.20 1434.24,1193.16 1434.50,1193.05 1434.75,1192.87 1435.00,1192.61 1435.24,1192.29 1435.46,1191.90 1435.68,1191.45 1435.87,1190.95 1436.05,1190.39 1436.20,1189.78 1436.34,1189.14 1436.45,1188.45 1436.54,1187.74 1436.60,1187.01 1436.64,1186.27 1436.66,1185.51 1436.66,1154.00 1763.34,1154.00 1763.34,1185.51 1763.36,1186.27 1763.40,1187.01 1763.46,1187.74 1763.55,1188.45 1763.66,1189.14 1763.80,1189.78 1763.95,1190.39 1764.13,1190.95 1764.32,1191.45 1764.54,1191.90 1764.76,1192.29 1765.00,1192.61 1765.25,1192.87 1765.50,1193.05 1765.76,1193.16 1766.02,1193.20 1787.45,1193.20 1787.71,1193.16 1787.97,1193.05 1788.22,1192.87 1788.47,1192.61 1788.71,1192.29 1788.93,1191.90 1789.14,1191.45 1789.34,1190.95 1789.51,1190.39 1789.67,1189.78 1789.81,1189.14 1789.92,1188.45 1790.01,1187.74 1790.07,1187.01 1790.11,1186.27 1790.12,1185.51 1790.12,1154.00 2888.52,1154.00" fill="#2196F3" fill-opacity="0.4" stroke="#2196F3" stroke-width="1.5" stroke-opacity="0.9"/>
<text x="1600.0" y="1247.3" fill="#fff" font-size="10" text-anchor="middle" dominant-baseline="middle" font-family="Segoe UI, sans-serif" paint-order="stroke" stroke="#000" stroke-width="3">SLAB-012 200mm</text>
<rect x="2988" y="16" width="188" height="88" fill="#1e1e1e" fill-opacity="0.85" rx="6"/>
<rect x="3000" y="82" width="14" height="14" fill="#B71C1C" rx="2"/><text x="3022" y="94" fill="#e0e0e0" font-size="11" font-family="Segoe UI, sans-serif">Excluded (non-slab)</text>
<text x="3000" y="34" fill="#bdbdbd" font-size="12" font-family="Segoe UI, sans-serif">Thickness</text>
<rect x="3000" y="42" width="14" height="14" fill="#2196F3" rx="2"/><text x="3022" y="54" fill="#e0e0e0" font-size="11" font-family="Segoe UI, sans-serif">200 mm</text>
</svg>