<svg xmlns="http://www.w3.org/2000/svg" width="1604" height="1600" viewBox="0 0 1604 1600">
<rect width="100%" height="100%" fill="#121212"/>
<text x="16" y="28" fill="#e0e0e0" font-size="18" font-family="Segoe UI, sans-serif" font-weight="600">SDIE v3.3 — Slab -04 test 01_Layer_Test.dxf</text>
<text x="16" y="50" fill="#9e9e9e" font-size="13" font-family="Segoe UI, sans-serif">1 bays · 60.5 m² · 12.1 m³</text>
<polygon points="240.72,1306.59 240.51,1306.36 240.52,1306.36 240.11,1305.89 240.09,1305.90 235.25,1300.38 226.16,1290.05 226.19,1290.03 225.78,1289.57 225.76,1289.59 225.23,1288.94 224.61,1288.23 224.63,1288.22 224.24,1287.74 224.21,1287.76 216.12,1277.92 211.07,1271.80 211.08,1271.79 210.70,1271.31 210.68,1271.32 210.38,1270.93 209.29,1269.61 209.33,1269.58 208.95,1269.09 208.91,1269.12 198.02,1254.97 196.55,1253.08 196.56,1253.07 194.58,1250.50 194.64,1250.46 194.28,1249.96 194.21,1250.00 180.48,1230.94 180.57,1230.88 180.22,1230.37 180.13,1230.43 167.02,1210.93 167.13,1210.86 166.80,1210.34 166.68,1210.41 154.20,1190.51 187.11,1169.85 189.42,1173.54 189.47,1173.51 192.12,1177.70 187.51,1170.35 220.41,1149.69 232.56,1169.05 245.17,1187.73 258.39,1205.98 272.21,1223.78 286.61,1241.11 301.58,1257.96 317.10,1274.29 333.16,1290.10 349.73,1305.37 366.80,1320.08 384.35,1334.21 402.36,1347.76 413.42,1355.51 413.42,1103.55 164.26,1103.55 164.26,1064.69 432.84,1064.69 432.84,1084.12 452.27,1084.12 452.27,1380.64 452.27,1380.64 452.27,1084.12 471.69,1084.12 471.69,1064.69 1130.11,1064.69 1130.11,1084.12 1149.54,1084.12 1149.54,1084.12 1168.96,1084.12 1168.96,1064.69 1437.00,1064.69 1437.00,1103.55 1188.39,1103.55 1188.39,1354.03 1203.22,1343.36 1220.79,1329.83 1237.91,1315.73 1254.55,1301.08 1270.71,1285.88 1286.35,1270.16 1301.47,1253.94 1316.05,1237.23 1330.07,1220.04 1343.52,1202.40 1356.38,1184.34 1368.82,1165.59 1401.18,1187.07 1401.57,1186.49 1433.94,1207.98 1421.04,1227.43 1404.85,1216.69 1420.69,1227.94 1407.18,1246.98 1391.34,1235.73 1406.81,1247.47 1392.70,1266.07 1377.23,1254.32 1392.32,1266.56 1377.62,1284.69 1362.53,1272.46 1377.22,1285.17 1361.96,1302.83 1347.26,1290.12 1361.55,1303.29 1345.73,1320.45 1331.44,1307.28 1345.30,1320.90 1328.94,1337.56 1315.09,1323.94 1328.50,1337.99 1311.63,1354.11 1298.21,1340.06 1311.17,1354.53 1293.79,1370.11 1280.83,1355.64 1293.32,1370.52 1275.45,1385.54 1262.96,1370.66 1274.97,1385.93 1256.64,1400.37 1244.62,1385.10 1256.15,1400.74 1237.36,1414.60 1225.83,1398.96 1236.85,1414.96 1217.64,1428.20 1206.61,1412.20 1217.12,1428.54 1197.49,1441.17 1186.98,1424.83 1196.97,1441.50 1176.94,1453.50 1166.96,1436.83 1176.41,1453.81 1156.02,1465.16 1146.57,1448.18 1155.47,1465.45 1134.73,1476.15 1125.83,1458.88 1134.17,1476.43 1113.10,1486.46 1104.75,1468.92 1112.54,1486.72 1091.16,1496.08 1083.37,1478.28 1090.59,1496.32 1068.92,1504.99 1061.70,1486.95 1068.34,1505.21 1046.41,1513.19 1039.77,1494.93 1045.82,1513.40 1023.65,1520.67 1017.59,1502.21 1023.06,1520.86 1000.66,1527.43 995.20,1508.78 1000.07,1527.59 977.47,1533.45 972.60,1514.64 976.87,1533.59 954.10,1538.72 949.83,1519.77 953.50,1538.85 930.58,1543.25 926.91,1524.17 929.97,1543.36 906.92,1547.03 903.86,1527.84 906.31,1547.12 883.15,1550.06 880.71,1530.78 882.54,1550.13 859.30,1552.33 857.47,1532.98 858.69,1552.38 835.39,1553.83 834.18,1534.44 834.78,1553.86 811.45,1554.58 810.85,1535.16 810.83,1554.59 787.49,1554.57 787.53,1515.70 810.56,1515.73 833.27,1515.03 855.95,1513.61 878.57,1511.47 901.11,1508.61 923.55,1505.03 945.86,1500.74 968.03,1495.75 990.03,1490.05 1011.83,1483.65 1033.42,1476.57 1039.94,1474.19 1019.08,1481.27 1012.84,1462.87 1018.47,1481.47 996.64,1488.08 991.01,1469.49 996.03,1488.26 973.99,1494.15 968.97,1475.38 973.37,1494.31 951.15,1499.47 946.75,1480.55 950.52,1499.61 928.14,1504.04 924.37,1484.98 927.51,1504.15 905.00,1507.85 901.86,1488.67 904.37,1507.94 881.74,1510.89 879.23,1491.62 881.11,1510.96 858.40,1513.16 856.53,1493.83 857.77,1513.22 835.00,1514.67 833.76,1495.28 834.36,1514.70 811.56,1515.41 810.96,1495.99 810.92,1515.42 788.10,1515.37 788.18,1476.51 810.67,1476.56 832.84,1475.87 854.97,1474.45 877.04,1472.31 899.03,1469.44 920.91,1465.86 942.66,1461.55 964.26,1456.53 985.68,1450.80 1006.91,1444.37 1027.91,1437.24 1048.66,1429.43 1069.15,1420.94 1089.34,1411.78 1109.22,1401.96 1110.69,1401.18 1110.69,1103.55 491.12,1103.55 491.12,1402.22 498.60,1406.10 518.93,1415.80 539.58,1424.83 560.51,1433.16 581.71,1440.79 603.15,1447.71 624.81,1453.92 646.98,1459.48 637.53,1497.16 638.18,1497.33 628.75,1535.03 605.97,1529.32 606.08,1528.87 605.50,1528.72 605.37,1529.16 582.77,1522.74 582.89,1522.34 582.30,1522.17 582.18,1522.56 559.80,1515.41 559.91,1515.07 559.33,1514.88 559.21,1515.22 537.07,1507.36 537.18,1507.07 536.60,1506.87 536.49,1507.15 514.62,1498.59 514.71,1498.35 514.14,1498.12 514.04,1498.36 492.45,1489.11 492.53,1488.91 491.97,1488.66 491.88,1488.85 470.59,1478.92 470.67,1478.76 470.11,1478.50 470.04,1478.65 449.08,1468.04 449.14,1467.92 448.59,1467.64 448.53,1467.75 427.92,1456.48 427.97,1456.39 427.43,1456.09 427.38,1456.18 407.13,1444.26 407.17,1444.19 406.64,1443.88 406.61,1443.93 386.75,1431.37 386.78,1431.33 386.26,1431.00 386.24,1431.03 366.79,1417.84 366.81,1417.82 366.29,1417.48 366.29,1417.49 365.46,1416.89 365.46,1416.90 351.95,1407.08 347.27,1403.69 347.28,1403.68 346.79,1403.33 347.15,1402.83 346.78,1403.31 346.31,1402.95 346.30,1402.96 328.07,1388.82 336.68,1377.72 327.73,1388.52 327.61,1388.42 327.60,1388.43 309.82,1373.72 309.84,1373.70 309.64,1373.54 316.94,1364.72 309.35,1373.32 292.05,1358.06 292.07,1358.03 291.62,1357.63 291.60,1357.65 274.78,1341.84 274.81,1341.81 274.37,1341.40 274.34,1341.42 258.04,1325.09 258.07,1325.06 257.63,1324.63 257.61,1324.66 256.55,1323.53 256.55,1323.53 255.51,1322.42 241.82,1307.83 241.85,1307.80 241.43,1307.35 241.41,1307.37 240.72,1306.59" fill="#B71C1C" fill-opacity="0.45" stroke="#EF5350" stroke-width="0.5"/>
<polygon points="1532.72,1016.79 1525.89,978.53 1542.59,975.55 1535.76,937.29 2134.59,830.31 2141.42,868.56 1964.68,900.14 2141.42,868.56 2148.26,906.82 1532.72,1016.79" fill="#B71C1C" fill-opacity="0.45" stroke="#EF5350" stroke-width="0.5"/>
<polygon points="61.63,955.93 80.57,951.63 61.50,955.34 57.14,932.89 76.21,929.18 57.03,932.30 53.37,909.72 72.54,906.61 53.28,909.12 50.32,886.45 69.58,883.93 50.25,885.85 48.00,863.09 67.33,861.17 47.95,862.48 46.40,839.67 65.78,838.35 46.37,839.06 45.53,816.21 64.95,815.50 45.52,815.60 45.40,792.73 64.82,792.63 45.40,792.13 45.99,769.27 65.41,769.77 46.01,768.66 47.31,745.83 66.71,746.93 47.36,745.23 49.36,722.45 68.71,724.15 49.42,721.84 52.14,699.14 71.43,701.44 52.22,698.54 55.64,675.92 74.85,678.83 55.74,675.33 59.86,652.83 78.97,656.33 59.98,652.24 64.80,629.88 83.78,633.98 64.93,629.29 70.44,607.10 108.15,616.47 108.00,617.07 145.70,626.40 140.29,648.29 135.66,670.03 131.75,691.91 128.56,713.90 126.10,735.99 124.36,758.15 123.35,780.35 123.06,802.58 123.51,824.80 124.69,846.99 126.59,869.14 129.22,891.21 132.58,913.18 136.65,935.03 141.44,956.74 146.93,978.27 153.13,999.61 160.13,1021.05 123.21,1033.11 123.40,1033.70 86.48,1045.80 79.36,1024.06 97.82,1018.01 79.18,1023.48 72.75,1001.54 91.39,996.07 72.59,1000.96 66.83,978.82 85.63,973.93 66.69,978.24 61.63,955.93" fill="#B71C1C" fill-opacity="0.45" stroke="#EF5350" stroke-width="0.5"/>
<polygon points="2852.14,780.37 2262.92,886.33 2256.05,848.09 2845.26,742.12 2852.14,780.37" fill="#B71C1C" fill-opacity="0.45" stroke="#EF5350" stroke-width="0.5"/>
<polygon points="2851.08,425.21 2902.62,711.99 2864.38,718.87 2812.84,432.09 2851.08,425.21" fill="#B71C1C" fill-opacity="0.45" stroke="#EF5350" stroke-width="0.5"/>
<polygon points="389.76,261.45 372.39,275.15 355.47,289.41 339.03,304.22 322.85,319.78 295.93,291.77 295.51,292.18 268.57,264.17 285.51,247.87 298.98,261.87 285.96,247.45 303.41,231.70 316.42,246.13 303.88,231.29 321.83,216.11 334.37,230.95 322.31,215.72 340.73,201.12 352.79,216.35 341.22,200.74 360.10,186.74 371.67,202.35 360.60,186.37 379.92,172.98 390.98,188.96 380.44,172.64 400.17,159.87 410.72,176.19 400.70,159.54 420.83,147.42 430.85,164.06 421.37,147.11 441.88,135.63 451.36,152.59 442.43,135.33 463.30,124.52 472.23,141.77 463.85,124.24 485.05,114.10 493.43,131.63 485.62,113.84 507.14,104.39 514.95,122.18 507.71,104.15 529.52,95.38 536.76,113.41 530.10,95.16 552.17,87.10 558.83,105.35 552.76,86.90 575.08,79.55 581.16,98.00 575.68,79.36 598.23,72.73 603.70,91.37 598.82,72.57 621.57,66.66 626.45,85.47 622.18,66.51 645.10,61.34 649.38,80.29 645.71,61.21 668.79,56.77 672.46,75.85 669.40,56.66 692.61,52.97 695.67,72.16 693.23,52.88 716.54,49.93 718.98,69.20 717.16,49.86 740.56,47.65 742.38,67.00 741.18,47.60 764.63,46.15 765.83,65.54 765.25,46.12 788.74,45.42 789.33,64.84 789.37,45.41 812.87,45.46 812.83,64.89 813.49,45.47 836.98,46.27 836.32,65.69 837.60,46.30 861.05,47.86 859.77,67.24 861.67,47.91 885.06,50.21 883.15,69.55 885.67,50.28 908.98,53.33 906.46,72.60 909.59,53.42 932.79,57.22 929.65,76.39 933.40,57.33 956.46,61.86 952.71,80.93 957.07,61.99 979.97,67.26 975.61,86.20 980.57,67.41 1003.29,73.41 998.34,92.20 1003.89,73.58 1026.41,80.30 1020.86,98.92 1027.00,80.49 1049.30,87.93 1043.15,106.37 1049.88,88.14 1071.93,96.29 1065.19,114.52 1072.51,96.52 1094.28,105.37 1086.96,123.37 1094.85,105.62 1116.33,115.16 1108.44,132.92 1116.89,115.42 1138.05,125.65 1129.60,143.15 1138.61,125.93 1159.43,136.83 1150.42,154.05 1159.97,137.13 1180.44,148.69 1170.88,165.61 1180.97,149.01 1201.05,161.22 1190.97,177.82 1201.58,161.55 1221.26,174.40 1210.65,190.67 1221.78,174.75 1241.04,188.22 1229.91,204.14 1241.54,188.58 1260.36,202.66 1248.73,218.22 1260.85,203.04 1279.21,217.72 1254.96,248.08 1254.70,247.87 1230.44,278.22 1212.91,264.21 1195.19,250.97 1188.39,246.22 1188.39,501.13 1437.01,501.13 1437.01,539.99 1452.65,539.99 1452.65,559.99 1471.20,553.63 1470.90,552.77 1507.58,539.95 1515.01,561.22 1496.67,567.63 1515.19,561.79 1521.97,583.28 1503.44,589.12 1522.14,583.85 1528.25,605.53 1509.55,610.80 1528.40,606.11 1533.85,627.97 1515.00,632.67 1533.98,628.55 1538.76,650.57 1519.77,654.69 1538.87,651.15 1542.97,673.31 1523.87,676.84 1543.07,673.89 1546.49,696.16 1527.29,699.11 1546.57,696.75 1549.30,719.12 1530.02,721.48 1549.36,719.71 1551.41,742.15 1532.07,743.91 1551.46,742.74 1552.81,765.23 1533.42,766.40 1552.84,765.83 1553.51,788.35 1534.09,788.92 1553.52,788.94 1553.50,811.47 1534.07,811.45 1553.49,812.07 1552.78,834.59 1533.36,833.97 1552.75,835.18 1551.35,857.67 1531.96,856.46 1551.30,858.26 1549.22,880.70 1529.88,878.90 1549.15,881.29 1546.38,903.65 1509.72,899.10 1509.67,899.54 1471.05,895.32 1473.50,872.91 1475.22,850.74 1476.24,828.52 1476.57,806.29 1476.20,784.05 1475.14,761.84 1473.37,739.67 1470.92,717.57 1467.77,695.55 1463.93,673.65 1459.41,651.88 1454.20,630.25 1448.32,608.81 1441.77,587.56 1438.79,578.86 1188.39,578.86 1188.39,1025.83 1452.89,1025.83 1452.89,1064.69 1168.96,1064.69 1168.96,1045.26 1149.54,1045.26 1149.54,559.42 1168.96,559.42 1168.96,539.99 1168.96,539.99 1168.96,520.56 1149.54,520.56 1149.54,220.85 1149.54,220.85 1149.54,520.56 1130.11,520.56 1130.11,539.99 471.69,539.99 471.69,520.56 452.27,520.56 452.27,520.56 432.84,520.56 432.84,539.99 432.84,559.42 452.27,559.42 452.27,801.98 452.27,559.42 471.69,559.42 471.69,539.99 1130.11,539.99 1130.11,559.42 1149.54,559.42 1149.54,1045.26 1130.11,1045.26 1130.11,1064.69 471.69,1064.69 471.69,1045.26 452.27,1045.26 452.27,1045.26 432.84,1045.26 432.84,1064.69 164.26,1064.69 148.28,1064.69 148.28,1025.83 413.42,1025.83 413.42,578.86 146.48,578.86 146.48,539.99 162.13,539.99 162.13,501.13 413.42,501.13 413.42,244.31 407.58,248.33 389.76,261.45" fill="#B71C1C" fill-opacity="0.45" stroke="#EF5350" stroke-width="0.5"/>
<polygon points="3128.15,395.47 3169.27,625.79 3131.02,632.62 3089.90,402.30 3089.90,402.30 3131.03,632.66 3092.79,639.50 3051.66,409.14 2892.76,437.53 2940.86,705.11 2902.62,711.99 2851.08,425.26 2870.20,421.82 2866.79,402.69 3044.83,370.88 3041.45,351.96 3079.69,345.13 3083.07,364.05 3083.07,364.05 3079.71,345.20 3117.95,338.37 3121.32,357.22 3168.50,348.79 3120.11,101.88 3158.24,94.41 3210.66,361.92 3158.24,94.41 3196.36,86.93 3312.10,677.58 3291.84,681.56 3295.28,700.67 2938.18,764.90 2931.31,726.65 2988.70,716.33 2981.83,678.70 3224.46,634.42 3175.97,386.93 3128.15,395.47" fill="#B71C1C" fill-opacity="0.45" stroke="#EF5350" stroke-width="0.5"/>
<polygon points="2133.86,277.70 2172.10,270.83 2203.12,443.63 2681.26,357.52 2639.93,127.56 2165.37,212.90 2158.50,174.67 2135.80,178.74 2128.95,140.49 3113.83,-36.03 3120.58,1.64 3120.59,1.63 3127.46,39.88 2716.40,113.81 2761.18,362.95 2722.94,369.82 2708.07,287.08 2722.93,369.78 2695.58,374.70 2699.02,393.81 2699.02,393.81 2705.90,432.06 2216.85,520.13 2268.22,806.34 2838.31,703.81 2845.18,742.06 2192.74,859.40 2185.87,821.15 2191.75,820.09 2095.62,284.57 2133.86,277.70 2229.98,813.21 2229.98,813.21 2175.18,507.88 2194.30,504.45 2190.86,485.32 2190.87,485.32 2187.43,466.20 2168.31,469.63 2133.86,277.70" fill="#B71C1C" fill-opacity="0.45" stroke="#EF5350" stroke-width="0.5"/>
<polygon points="2097.57,185.59 2104.45,223.84 1373.11,355.36 1366.24,317.11 2097.57,185.59" fill="#B71C1C" fill-opacity="0.45" stroke="#EF5350" stroke-width="0.5"/>
<polygon points="2097.57,185.59 1343.55,321.19 1336.68,282.95 2090.70,147.34 2097.57,185.59" fill="#B71C1C" fill-opacity="0.45" stroke="#EF5350" stroke-width="0.5"/>
<polygon points="1558.60,1554.59 1558.60,45.41 45.40,45.41 45.40,1554.59 1558.60,1554.59" fill="#2196F3" fill-opacity="0.4" stroke="#2196F3" stroke-width="1.5" stroke-opacity="0.9"/>
<text x="802.0" y="800.0" fill="#fff" font-size="10" text-anchor="middle" dominant-baseline="middle" font-family="Segoe UI, sans-serif" paint-order="stroke" stroke="#000" stroke-width="3">SLAB-001 200mm</text>
<rect x="1392" y="16" width="188" height="88" fill="#1e1e1e" fill-opacity="0.85" rx="6"/>
<rect x="1404" y="82" width="14" height="14" fill="#B71C1C" rx="2"/><text x="1426" y="94" fill="#e0e0e0" font-size="11" font-family="Segoe UI, sans-serif">Excluded (non-slab)</text>
<text x="1404" y="34" fill="#bdbdbd" font-size="12" font-family="Segoe UI, sans-serif">Thickness</text>
<rect x="1404" y="42" width="14" height="14" fill="#2196F3" rx="2"/><text x="1426" y="54" fill="#e0e0e0" font-size="11" font-family="Segoe UI, sans-serif">200 mm</text>
</svg>